<?xml version="1.0" encoding="utf-8"?>
<svg version="1.1" xmlns:xlink="http://www.w3.org/1999/xlink" width="40px" height="40px" xmlns="http://www.w3.org/2000/svg">
  <defs>
    <filter x="196px" y="6635px" width="40px" height="40px" filterUnits="userSpaceOnUse" id="filter69">
      <feOffset dx="1" dy="1" in="SourceAlpha" result="shadowOffsetInner" />
      <feGaussianBlur stdDeviation="2.5" in="shadowOffsetInner" result="shadowGaussian" />
      <feComposite in2="shadowGaussian" operator="atop" in="SourceAlpha" result="shadowComposite" />
      <feColorMatrix type="matrix" values="0 0 0 0 0  0 0 0 0 0  0 0 0 0 0  0 0 0 0.698039215686274 0  " in="shadowComposite" />
    </filter>
    <g id="widget70">
      <path d="M 215 6639  C 223.4 6639  230 6645.6  230 6654  C 230 6662.4  223.4 6669  215 6669  C 206.6 6669  200 6662.4  200 6654  C 200 6645.6  206.6 6639  215 6639  Z " fill-rule="nonzero" fill="#009dd9" stroke="none" />
      <path d="M 215 6639.5  C 223.12 6639.5  229.5 6645.88  229.5 6654  C 229.5 6662.12  223.12 6668.5  215 6668.5  C 206.88 6668.5  200.5 6662.12  200.5 6654  C 200.5 6645.88  206.88 6639.5  215 6639.5  Z " stroke-width="1" stroke="#ffffff" fill="none" />
    </g>
  </defs>
  <g transform="matrix(1 0 0 1 -196 -6635 )">
    <use xlink:href="#widget70" filter="url(#filter69)" />
    <use xlink:href="#widget70" />
  </g>
</svg>