<svg t="1582879698294" class="icon" viewBox="0 0 1024 1024" version="1.1" xmlns="http://www.w3.org/2000/svg" p-id="3336" width="40" height="40"><path d="M512 64C264 64 64 264 64 512s200 448 448 448 448-200 448-448S760 64 512 64z m208 555.2" fill="#FFA6CE" p-id="3337"></path><path d="M720 302.4c-88-88-230.4-88-318.4 0-80 81.6-86.4 211.2-14.4 300.8l-32 32-80-80c-9.6-8-24-8-32 0-8 9.6-8 24 0 32l80 80-46.4 46.4c-8 9.6-8 24 0 32 9.6 8 24 8 32 0l44.8-49.6 80 80c9.6 8 24 9.6 32 0s8-24 0-32l-80-80 32-32c89.6 73.6 219.2 67.2 300.8-14.4 89.6-84.8 89.6-225.6 1.6-315.2z m-30.4 286.4c-72 68.8-185.6 68.8-254.4 0-68.8-72-68.8-185.6 0-254.4 70.4-68.8 184-68.8 254.4 0 68.8 72 68.8 185.6 0 254.4z" fill="#FFFFFF" p-id="3338"></path></svg>