<svg t="1582879614941" class="icon" viewBox="0 0 1024 1024" version="1.1" xmlns="http://www.w3.org/2000/svg" p-id="1798" width="40" height="40"><path d="M512 73.728C269.970286 73.728 73.728 269.970286 73.728 512S269.970286 950.272 512 950.272 950.272 754.029714 950.272 512 754.029714 73.728 512 73.728z m277.650286 362.057143a25.161143 25.161143 0 0 1-50.322286 0V330.934857l-118.125714 127.780572a215.369143 215.369143 0 0 1 52.187428 141.165714 215.552 215.552 0 0 1-63.561143 153.453714 215.552 215.552 0 0 1-153.453714 63.561143 215.552 215.552 0 0 1-153.417143-63.561143 215.552 215.552 0 0 1-63.561143-153.417143c0-57.965714 22.601143-112.457143 63.561143-153.453714a215.552 215.552 0 0 1 153.417143-63.561143c46.628571 0 90.953143 14.628571 127.853714 41.618286l122.697143-132.754286H595.382857a25.161143 25.161143 0 1 1 0-50.322286h169.179429a25.088 25.088 0 0 1 25.124571 25.344v168.96z m-333.275429-2.523429a166.838857 166.838857 0 0 0-166.619428 166.656 166.838857 166.838857 0 0 0 166.619428 166.619429 166.838857 166.838857 0 0 0 166.656-166.619429 166.838857 166.838857 0 0 0-166.656-166.656z" fill="#4CC4FF" p-id="1799"></path></svg>