<?xml version="1.0" encoding="utf-8"?>
<svg version="1.1" xmlns:xlink="http://www.w3.org/1999/xlink" width="9px" height="10px" xmlns="http://www.w3.org/2000/svg">
  <defs>
    <mask fill="white" id="clip1">
      <path d="M 6.20984660336006 7.96637177718253  C 7.44162162162161 7.41733625517406  7.79675675675679 6.7656034412791  8.70219138056973 5.64383302221142  C 8.28626734842953 4.74720666612552  7.34563915266602 2.66561155750338  6.75054784514236 1.98227957687408  C 6.21944485025557 1.37399561723885  5.71073776479193 1.16465113762416  5.05805697589471 0.840759678597522  C 4.48216216216218 0.552417282146962  3.02322863403941 -0.146714281849427  2.4377355734112 0.0468306143981181  C 1.5195032870709 0.354922490057561  1.0715850986121 1.87563238914584  0.806033601168735 2.87890593295998  C 0.639663988312577 3.49508968427881  0.159751643535515 6.03092281470657  0.223739956172324 6.59180802424044  C 0.396508400292248 8.08091875659443  2.70968590211828 9.65692719746767  3.39436084733376 9.68457646836015  C 4.25820306793275 9.72407542677814  4.78610664718775 8.59440521602681  6.20984660336006 7.96637177718253  Z " fill-rule="evenodd" />
    </mask>
  </defs>
  <g transform="matrix(1 0 0 1 -582 -2277 )">
    <path d="M 6.20984660336006 7.96637177718253  C 7.44162162162161 7.41733625517406  7.79675675675679 6.7656034412791  8.70219138056973 5.64383302221142  C 8.28626734842953 4.74720666612552  7.34563915266602 2.66561155750338  6.75054784514236 1.98227957687408  C 6.21944485025557 1.37399561723885  5.71073776479193 1.16465113762416  5.05805697589471 0.840759678597522  C 4.48216216216218 0.552417282146962  3.02322863403941 -0.146714281849427  2.4377355734112 0.0468306143981181  C 1.5195032870709 0.354922490057561  1.0715850986121 1.87563238914584  0.806033601168735 2.87890593295998  C 0.639663988312577 3.49508968427881  0.159751643535515 6.03092281470657  0.223739956172324 6.59180802424044  C 0.396508400292248 8.08091875659443  2.70968590211828 9.65692719746767  3.39436084733376 9.68457646836015  C 4.25820306793275 9.72407542677814  4.78610664718775 8.59440521602681  6.20984660336006 7.96637177718253  Z " fill-rule="nonzero" fill="#324d95" stroke="none" transform="matrix(1 0 0 1 582 2277 )" />
    <path d="M 6.20984660336006 7.96637177718253  C 7.44162162162161 7.41733625517406  7.79675675675679 6.7656034412791  8.70219138056973 5.64383302221142  C 8.28626734842953 4.74720666612552  7.34563915266602 2.66561155750338  6.75054784514236 1.98227957687408  C 6.21944485025557 1.37399561723885  5.71073776479193 1.16465113762416  5.05805697589471 0.840759678597522  C 4.48216216216218 0.552417282146962  3.02322863403941 -0.146714281849427  2.4377355734112 0.0468306143981181  C 1.5195032870709 0.354922490057561  1.0715850986121 1.87563238914584  0.806033601168735 2.87890593295998  C 0.639663988312577 3.49508968427881  0.159751643535515 6.03092281470657  0.223739956172324 6.59180802424044  C 0.396508400292248 8.08091875659443  2.70968590211828 9.65692719746767  3.39436084733376 9.68457646836015  C 4.25820306793275 9.72407542677814  4.78610664718775 8.59440521602681  6.20984660336006 7.96637177718253  Z " stroke-width="2.13294375456538" stroke="#ffffff" fill="none" transform="matrix(1 0 0 1 582 2277 )" mask="url(#clip1)" />
  </g>
</svg>