<?xml version="1.0" encoding="utf-8"?>
<svg version="1.1" xmlns:xlink="http://www.w3.org/1999/xlink" width="82px" height="103px" xmlns="http://www.w3.org/2000/svg">
  <defs>
    <mask fill="white" id="clip12">
      <path d="M 17.4245214936538 5.86038711714383  C 17.3949329129984 4.06582356041815  17.9998550063984 1.80048884643475  17.4245214936538 0.062256881175756  C 16.6157669557385 1.41019139127246  16.2672792280189 2.51268110997836  16.056871543358 4.17043937314202  C 16.056871543358 4.17043937314202  13.8903299153654 2.95931015660744  13.8903299153654 2.95931015660744  C 13.8903299153654 2.95931015660744  13.0618496570132 5.86038711714383  13.0618496570132 5.86038711714383  C 13.0618496570132 5.86038711714383  13.6930727109959 12.137335880579  13.6930727109959 12.137335880579  C 11.7172130472273 12.5115385953223  11.5626949038044 13.4933177608852  10.3397002367131 11.1716514554352  C 9.79724292469666 11.4130725617212  9.06410364845641 11.7872752764644  8.67616447986291 12.3264490805032  C 8.31781389192489 12.8294097185989  8.37041581309003 13.4450335396281  8.36712819301724 14.0687047308668  C 8.34740247258026 18.3499056823381  8.96547504627162 17.0422080232892  9.74792862360425 20.587074600588  C 10.3298373764945 20.3255350687783  11.3161233983425 19.4926322520917  11.8585807103588 19.830621800892  C 12.8021276712601 20.4221035112927  13.3412973632035 22.4902776551424  13.2097925602904 23.7255489823057  C 13.0750001373045 24.9688676796784  12.9171943738089 25.1861466753359  12.9040438935176 26.6266259428421  C 12.9040438935176 26.6266259428421  12.9040438935176 31.6964691748476  12.9040438935176 31.6964691748476  C 12.9040438935176 31.6964691748476  12.5095294847784 35.0763646628511  12.5095294847784 35.0763646628511  C 12.5095294847784 35.0763646628511  12.5095294847784 37.2411072492152  12.5095294847784 37.2411072492152  C 12.3221351406273 38.4361417253308  11.6415977855523 38.5045443721119  11.3457119789979 39.2529498015986  C 10.9906490111326 40.1623026352755  11.7994035490479 41.1843186518862  11.4837920220566 41.9850319877346  C 11.26680909725 42.5362768470876  10.3890145378054 42.9024321916214  9.96491154841084 43.2766349063646  C 9.16601987071397 43.9848034848035  9.15615701049558 44.6809010079279  8.52164633644011 45.2884774587477  C 7.9528880638411 45.8356986329958  7.14084590585301 45.9161723350912  6.67400385551164 46.3869434923488  C 6.11839606320402 46.9422120368067  6.09209510262141 47.8837543513219  5.52991207016811 48.4551176361986  C 4.79348517385498 49.1994993805804  3.87295155346368 48.6080176701798  2.97871889365479 49.8392653122382  C 1.94969381086025 51.2515787840111  2.38037204040046 52.9012896769653  1.89051664954931 54.3136031487382  C 1.31518313680473 55.9753850970067  -0.016302992689873 56.9813063731983  0.200679932116543 59.1420252744577  C 0.309171394519836 60.1962307719064  0.992996369667765 60.4135097675638  1.09162497185261 61.5562363373174  C 1.24285549520255 63.3427525238336  0.358485695612217 63.4151788557194  1.46312604008193 65.9018162504648  C 3.53761430603532 65.177552931607  4.19513832060059 63.8738789576628  6.78907055806056 63.7410973492054  C 9.41916661632163 63.6002683705386  8.77479308204767 64.899918659378  12.1150150760392 64.936131825321  C 12.1150150760392 64.936131825321  10.3397002367131 66.1432373567509  10.3397002367131 66.1432373567509  C 11.3161233983425 68.9236037641442  11.9473464523251 70.4606514741649  12.0952893556023 73.6313153367208  C 12.1643293771316 75.0637472340175  11.7632397282468 75.7196079060944  12.233369398661 76.3312080420188  C 13.2196554205088 77.6067162202297  16.4678240524613 77.4940530372963  17.8321863826842 77.4940530372963  C 17.3028795509592 79.9002167299464  16.4217973714418 81.0751327805381  16.1785134860525 82.0810540567298  C 15.8957781597896 83.3123016987881  16.4415230918787 84.3182229749796  16.1785134860525 85.1189363108281  C 15.7839990773134 86.2737339358961  14.3834729262894 86.861191961192  13.8903299153654 89.0822661390227  C 16.6190545758114 90.6836928107197  15.3105817868264 89.6858189047379  17.0431575652059 90.1445190066811  C 18.4568341965212 90.5146980363197  18.3417674939723 91.4481929806254  20.7910444482279 90.5307927767386  C 21.0573416741269 91.2912692615395  21.4025417817737 92.1362431335403  21.5143208642497 92.9450038395984  C 21.6392504270171 93.794001396704  21.4847322835943 94.638975268705  21.7806180901487 95.3632385875629  C 22.1291058178683 96.1961414042495  23.572371029839 97.6728338376986  24.3416741268804 97.7935443908417  C 24.8282418976586 97.9142549439845  25.2490572669805 97.6245496164415  25.9197317618371 97.7935443908417  C 26.7613625004805 97.9383970546131  27.1328635687099 98.5339024501186  28.0895610099024 98.1516523651657  C 29.3026928167752 97.6688101525939  29.8024110678449 96.6789836168215  30.6539046667069 95.9788624085921  C 31.23910103967 95.5000438811249  31.9656650757646 95.3873806981915  32.6264767104028 95.1218174812769  C 32.6264767104028 95.1218174812769  33.3234521658419 98.2602918629945  33.3234521658419 98.2602918629945  C 33.3201645457691 99.1213604754145  32.9585263377582 99.8617185346915  33.3234521658419 100.634266074807  C 34.3919286895105 102.666227052714  35.7760167401704 101.78504001477  36.5157312565563 101.905750567913  C 36.9003828050769 101.966105844484  37.6663982820455 102.593800720828  38.1463908126782 102.847292882428  C 38.1463908126782 102.847292882428  38.3370727769021 100.191660713282  38.3370727769021 100.191660713282  C 38.3370727769021 100.191660713282  39.152402554963 97.5360285441366  39.152402554963 97.5360285441366  C 39.152402554963 97.5360285441366  37.4033886762194 89.5651083515948  37.4033886762194 89.5651083515948  C 37.4033886762194 89.5651083515948  38.9354196301564 86.4266339698771  38.9354196301564 86.4266339698771  C 39.2871949779488 86.8370498505634  39.6554084261053 87.3440341737638  40.118962856374 87.581431594945  C 40.4773134443119 87.7303079438214  41.2564794015719 87.6578816119356  41.6312680898741 87.581431594945  C 43.3967200689817 87.3359868035544  43.8569868791774 86.8008366846205  45.1818977685265 85.3925468979522  C 45.6717531593776 84.8734915194374  46.5265343783124 83.6462675624837  47.1544698122223 83.5859122859122  C 47.9665119702103 83.5094622689216  49.2190952179572 85.070652089571  49.9160706733964 85.5897074680857  C 50.6722232901465 86.1489996976483  51.799876975126 86.2858049912105  52.6776715345705 86.4266339698771  C 52.6776715345705 86.4266339698771  54.6502435782663 82.8053173755876  54.6502435782663 82.8053173755876  C 55.1203732486806 83.2197569413785  56.2250135931502 84.5113598600084  56.6195280018892 84.6280467280467  C 57.2934901168187 84.8292309832851  57.7011550058492 83.9319492049221  58.3619666404873 84.2578676984081  C 59.1411325977471 84.6441414684657  59.0655173360722 85.742607502067  60.95918649802 86.1852128635911  C 61.0512398600592 84.8493494088088  61.3800018673419 83.6502912475885  62.5372441329766 83.1714727201213  C 63.4479148931497 82.7932463202732  64.1087265277877 83.8715939283506  64.9043305854116 83.8434281326172  C 65.5092526788117 83.8233097070935  65.8906166072596 83.2036622009594  66.4823882203682 82.9461463542544  C 66.4823882203682 82.9461463542544  67.7809981491346 82.6685120820255  67.7809981491346 82.6685120820255  C 68.454960264064 82.2621198864441  68.3629069020249 80.9423511720809  68.9579661352065 80.0088562277751  C 70.0889074402588 78.2505058369921  71.2165611252382 77.3532240586293  72.9918759645644 76.9589029183624  C 73.4192665740319 76.9025713268957  73.948573405757 76.7536949780192  74.3726763951515 76.9589029183624  C 74.8493813057113 77.1118029523434  75.1978690334309 77.5745267393916  75.556219621369 77.9768952498681  C 76.3025093779005 77.3210345777912  76.82524096948 76.7174818120764  77.3742735216419 75.8041052932944  C 77.7523498300168 75.1683630467414  78.0285099161343 74.3394839151595  78.7189101314278 74.1262286046069  C 79.2087655222791 74.0417312174068  79.7314971138584 74.3917918215215  80.2279277448552 74.1262286046069  C 81.0991470641542 73.5468179495206  81.9999549641086 70.476746214584  81.8552996809042 69.5231328447545  C 81.7698215590106 68.9718879854014  81.424621451364 68.4930694579343  81.0728461035715 68.1510562240292  C 80.2016267842727 67.3060823520283  78.4230243248736 67.6078587348857  77.3282468406223 67.5917639944666  C 76.1808674352059 67.5756692540476  73.1036550470405 67.120992837209  72.3705157708002 66.0225268036078  C 71.8214832186382 65.2057187273404  72.2028471470861 63.9624000299676  71.3645040285153 63.4151788557194  C 71.3645040285153 63.4151788557194  67.8631886509554 62.473636541204  67.8631886509554 62.473636541204  C 67.3601827798129 62.3489023029564  66.5974549229173 62.2483101753371  66.2884186360716 61.6930416308795  C 66.0517099908282 61.2705546948789  66.0812985714835 60.3772966016209  66.0911614317019 59.8662885933156  C 66.1437633528672 57.4078169943034  67.6034666652021 56.2771614798642  67.662643826513 53.5893398298803  C 67.6955200272412 52.1005763411168  67.4094970809053 50.0686153632099  66.5547158619705 48.9339361636659  C 65.7985632452204 47.932038572579  64.7235114814063 48.2499096958556  64.7728257824986 46.6605540794729  C 64.8254277036638 45.0309616120426  65.8478775463128 41.6550898091439  66.4396491594215 40.1462078948564  C 66.7947121272867 39.2408787462841  67.6100419053477 38.0015837340162  67.3831961203227 37.0077335131389  C 67.2615541776281 36.4725833942049  66.8045749875053 35.6195621519946  66.4166358189117 35.3218094542418  C 65.9103423276965 34.9274883139748  62.9317585417159 34.3158881780503  62.3399869286071 34.4808592673458  C 61.603560032294 34.6860672076888  61.0643903403505 35.4706858031182  60.3674148849114 35.2654778627751  C 58.4901838233275 34.7182566885269  59.351540282408 32.4529219745435  59.0655173360722 31.4550480685615  C 58.8222334506829 30.6060505114559  58.1252579952438 30.1151609286744  58.1121075149525 29.2822581119878  C 58.0858065543699 27.5198840361002  60.4331672863678 25.2384545816977  61.7482153154983 25.0734834924024  C 62.2413583264224 25.0131282158309  63.4479148931497 25.5321835943457  64.1153017679333 25.6569178325934  C 64.1153017679333 25.6569178325934  64.9043305854116 23.9669700885917  64.9043305854116 23.9669700885917  C 65.9793823492259 24.5383333734684  67.7842857692076 26.027096862232  68.8494746728032 26.0351442324415  C 69.6154901497719 26.0391679175463  70.2565760639729 25.2988098582694  70.8220467164991 24.7395176287067  C 71.2921763869131 24.2767938416587  71.7623060573274 23.8019989992962  72.1601080861392 23.2427067697337  C 74.2050077714374 20.3617482347212  72.4362681722567 18.4223320142239  71.2165611252382 15.7586524748686  C 70.2401379636087 16.611673717079  68.550301246176 18.7321557672909  67.2714170378466 18.7080136566623  C 66.1700643134498 18.6919189162432  65.1607649510921 16.8450474531555  65.1311763704367 15.6178234962018  C 65.0621363489074 15.0384128411155  65.3152830945149 14.426812705191  65.1311763704367 13.8997099564666  C 64.9930963273781 13.2720150801231  64.3750237536866 12.9420729015322  64.121877008079 12.3385201358174  C 63.8983188431267 11.7752042211501  64.0890008073507 10.6365013365013  64.121877008079 9.96454592400528  C 62.0473887421255 9.28454314129988  62.9120328212788 9.2402826051474  60.5646720892809 9.2402826051474  C 60.4364549064407 11.1676277703305  60.2096091214156 13.171422952504  58.7729191495905 14.3503626882005  C 58.3422409200502 14.7044469774198  57.3460920379839 15.0625549517441  56.8167852062588 15.2758102622967  C 56.8924004679338 15.9558130450022  57.15541007376 17.8388976740328  57.040343371211 18.4142846440143  C 56.8595242672056 19.2914479968533  55.7746096431729 20.381866660245  55.2584532917392 21.06991681316  C 54.2853177501826 22.3695671019995  54.1176491264685 23.1541856974289  53.5587537140879 23.9428279779631  C 52.3160333265595 25.6971546836411  51.5072787886443 24.3773859692778  51.4678273477705 27.109468155414  C 51.4678273477705 27.109468155414  51.4678273477705 29.2822581119878  51.4678273477705 29.2822581119878  C 51.5302921291542 32.4609693447532  53.7461480582391 34.6498540417458  51.4678273477705 37.6796889256348  C 51.0963262795411 38.0941284914257  50.5703070678888 38.4804022614832  50.113327877766 38.6051364997311  C 48.8278684292908 38.9471497336361  48.7029388665235 37.2572019896344  47.351727016592 38.0015837340162  C 45.5731245571928 38.9753155293695  45.5007969155907 40.1864447459042  43.2093257248306 40.5445527202284  C 42.8707008573295 40.6210027372189  42.4334473876437 40.6934290691047  42.1079730004339 40.5445527202284  C 40.4937515446762 39.6995788482275  39.3989740604249 36.178854381557  36.9628475864606 34.8349435565652  C 37.2357200525052 34.2796750121074  37.9359831280173 33.0323326296299  37.9031069272891 32.4207324937055  C 37.8209164254683 30.9802532261991  35.3979404317953 29.6202476607882  34.8291821591963 28.3045026315296  C 34.8291821591963 28.3045026315296  34.2768619869615 25.1740756200217  34.2768619869615 25.1740756200217  C 33.9217990190963 23.7577384631438  32.8730482158648 21.93098542558  32.2944270830473 20.587074600588  C 32.0840193983863 20.1042323880162  31.69279260972 18.8649373757481  31.4429334841853 18.5510899375764  C 31.0845828962472 18.1044608909473  29.0100946302937 18.0360582441663  28.286818214272 17.7624476570422  C 26.6167072172762 17.1267054104891  25.6994612169577 15.0504838964297  25.3279601487283 13.1030203057229  C 25.3279601487283 13.1030203057229  26.7087605793153 12.137335880579  26.7087605793153 12.137335880579  C 26.1794537475903 10.7612355747491  25.5613811738989 10.3548433791676  24.7986533170032 9.2402826051474  C 23.7564777539173 7.70725858023155  23.3784014455423 6.3029924786681  21.7773304700758 5.37754490457178  C 20.5904996237855 8.75341670747071  19.80475842638 9.52596424758576  19.80475842638 13.3444414120089  C 18.2924531928799 11.1555567150162  17.4442472140907 8.76951144788973  17.4245214936538 5.86038711714383  Z " fill-rule="evenodd" />
    </mask>
  </defs>
  <g transform="matrix(1 0 0 1 -374 -2316 )">
    <path d="M 17.4245214936538 5.86038711714383  C 17.3949329129984 4.06582356041815  17.9998550063984 1.80048884643475  17.4245214936538 0.062256881175756  C 16.6157669557385 1.41019139127246  16.2672792280189 2.51268110997836  16.056871543358 4.17043937314202  C 16.056871543358 4.17043937314202  13.8903299153654 2.95931015660744  13.8903299153654 2.95931015660744  C 13.8903299153654 2.95931015660744  13.0618496570132 5.86038711714383  13.0618496570132 5.86038711714383  C 13.0618496570132 5.86038711714383  13.6930727109959 12.137335880579  13.6930727109959 12.137335880579  C 11.7172130472273 12.5115385953223  11.5626949038044 13.4933177608852  10.3397002367131 11.1716514554352  C 9.79724292469666 11.4130725617212  9.06410364845641 11.7872752764644  8.67616447986291 12.3264490805032  C 8.31781389192489 12.8294097185989  8.37041581309003 13.4450335396281  8.36712819301724 14.0687047308668  C 8.34740247258026 18.3499056823381  8.96547504627162 17.0422080232892  9.74792862360425 20.587074600588  C 10.3298373764945 20.3255350687783  11.3161233983425 19.4926322520917  11.8585807103588 19.830621800892  C 12.8021276712601 20.4221035112927  13.3412973632035 22.4902776551424  13.2097925602904 23.7255489823057  C 13.0750001373045 24.9688676796784  12.9171943738089 25.1861466753359  12.9040438935176 26.6266259428421  C 12.9040438935176 26.6266259428421  12.9040438935176 31.6964691748476  12.9040438935176 31.6964691748476  C 12.9040438935176 31.6964691748476  12.5095294847784 35.0763646628511  12.5095294847784 35.0763646628511  C 12.5095294847784 35.0763646628511  12.5095294847784 37.2411072492152  12.5095294847784 37.2411072492152  C 12.3221351406273 38.4361417253308  11.6415977855523 38.5045443721119  11.3457119789979 39.2529498015986  C 10.9906490111326 40.1623026352755  11.7994035490479 41.1843186518862  11.4837920220566 41.9850319877346  C 11.26680909725 42.5362768470876  10.3890145378054 42.9024321916214  9.96491154841084 43.2766349063646  C 9.16601987071397 43.9848034848035  9.15615701049558 44.6809010079279  8.52164633644011 45.2884774587477  C 7.9528880638411 45.8356986329958  7.14084590585301 45.9161723350912  6.67400385551164 46.3869434923488  C 6.11839606320402 46.9422120368067  6.09209510262141 47.8837543513219  5.52991207016811 48.4551176361986  C 4.79348517385498 49.1994993805804  3.87295155346368 48.6080176701798  2.97871889365479 49.8392653122382  C 1.94969381086025 51.2515787840111  2.38037204040046 52.9012896769653  1.89051664954931 54.3136031487382  C 1.31518313680473 55.9753850970067  -0.016302992689873 56.9813063731983  0.200679932116543 59.1420252744577  C 0.309171394519836 60.1962307719064  0.992996369667765 60.4135097675638  1.09162497185261 61.5562363373174  C 1.24285549520255 63.3427525238336  0.358485695612217 63.4151788557194  1.46312604008193 65.9018162504648  C 3.53761430603532 65.177552931607  4.19513832060059 63.8738789576628  6.78907055806056 63.7410973492054  C 9.41916661632163 63.6002683705386  8.77479308204767 64.899918659378  12.1150150760392 64.936131825321  C 12.1150150760392 64.936131825321  10.3397002367131 66.1432373567509  10.3397002367131 66.1432373567509  C 11.3161233983425 68.9236037641442  11.9473464523251 70.4606514741649  12.0952893556023 73.6313153367208  C 12.1643293771316 75.0637472340175  11.7632397282468 75.7196079060944  12.233369398661 76.3312080420188  C 13.2196554205088 77.6067162202297  16.4678240524613 77.4940530372963  17.8321863826842 77.4940530372963  C 17.3028795509592 79.9002167299464  16.4217973714418 81.0751327805381  16.1785134860525 82.0810540567298  C 15.8957781597896 83.3123016987881  16.4415230918787 84.3182229749796  16.1785134860525 85.1189363108281  C 15.7839990773134 86.2737339358961  14.3834729262894 86.861191961192  13.8903299153654 89.0822661390227  C 16.6190545758114 90.6836928107197  15.3105817868264 89.6858189047379  17.0431575652059 90.1445190066811  C 18.4568341965212 90.5146980363197  18.3417674939723 91.4481929806254  20.7910444482279 90.5307927767386  C 21.0573416741269 91.2912692615395  21.4025417817737 92.1362431335403  21.5143208642497 92.9450038395984  C 21.6392504270171 93.794001396704  21.4847322835943 94.638975268705  21.7806180901487 95.3632385875629  C 22.1291058178683 96.1961414042495  23.572371029839 97.6728338376986  24.3416741268804 97.7935443908417  C 24.8282418976586 97.9142549439845  25.2490572669805 97.6245496164415  25.9197317618371 97.7935443908417  C 26.7613625004805 97.9383970546131  27.1328635687099 98.5339024501186  28.0895610099024 98.1516523651657  C 29.3026928167752 97.6688101525939  29.8024110678449 96.6789836168215  30.6539046667069 95.9788624085921  C 31.23910103967 95.5000438811249  31.9656650757646 95.3873806981915  32.6264767104028 95.1218174812769  C 32.6264767104028 95.1218174812769  33.3234521658419 98.2602918629945  33.3234521658419 98.2602918629945  C 33.3201645457691 99.1213604754145  32.9585263377582 99.8617185346915  33.3234521658419 100.634266074807  C 34.3919286895105 102.666227052714  35.7760167401704 101.78504001477  36.5157312565563 101.905750567913  C 36.9003828050769 101.966105844484  37.6663982820455 102.593800720828  38.1463908126782 102.847292882428  C 38.1463908126782 102.847292882428  38.3370727769021 100.191660713282  38.3370727769021 100.191660713282  C 38.3370727769021 100.191660713282  39.152402554963 97.5360285441366  39.152402554963 97.5360285441366  C 39.152402554963 97.5360285441366  37.4033886762194 89.5651083515948  37.4033886762194 89.5651083515948  C 37.4033886762194 89.5651083515948  38.9354196301564 86.4266339698771  38.9354196301564 86.4266339698771  C 39.2871949779488 86.8370498505634  39.6554084261053 87.3440341737638  40.118962856374 87.581431594945  C 40.4773134443119 87.7303079438214  41.2564794015719 87.6578816119356  41.6312680898741 87.581431594945  C 43.3967200689817 87.3359868035544  43.8569868791774 86.8008366846205  45.1818977685265 85.3925468979522  C 45.6717531593776 84.8734915194374  46.5265343783124 83.6462675624837  47.1544698122223 83.5859122859122  C 47.9665119702103 83.5094622689216  49.2190952179572 85.070652089571  49.9160706733964 85.5897074680857  C 50.6722232901465 86.1489996976483  51.799876975126 86.2858049912105  52.6776715345705 86.4266339698771  C 52.6776715345705 86.4266339698771  54.6502435782663 82.8053173755876  54.6502435782663 82.8053173755876  C 55.1203732486806 83.2197569413785  56.2250135931502 84.5113598600084  56.6195280018892 84.6280467280467  C 57.2934901168187 84.8292309832851  57.7011550058492 83.9319492049221  58.3619666404873 84.2578676984081  C 59.1411325977471 84.6441414684657  59.0655173360722 85.742607502067  60.95918649802 86.1852128635911  C 61.0512398600592 84.8493494088088  61.3800018673419 83.6502912475885  62.5372441329766 83.1714727201213  C 63.4479148931497 82.7932463202732  64.1087265277877 83.8715939283506  64.9043305854116 83.8434281326172  C 65.5092526788117 83.8233097070935  65.8906166072596 83.2036622009594  66.4823882203682 82.9461463542544  C 66.4823882203682 82.9461463542544  67.7809981491346 82.6685120820255  67.7809981491346 82.6685120820255  C 68.454960264064 82.2621198864441  68.3629069020249 80.9423511720809  68.9579661352065 80.0088562277751  C 70.0889074402588 78.2505058369921  71.2165611252382 77.3532240586293  72.9918759645644 76.9589029183624  C 73.4192665740319 76.9025713268957  73.948573405757 76.7536949780192  74.3726763951515 76.9589029183624  C 74.8493813057113 77.1118029523434  75.1978690334309 77.5745267393916  75.556219621369 77.9768952498681  C 76.3025093779005 77.3210345777912  76.82524096948 76.7174818120764  77.3742735216419 75.8041052932944  C 77.7523498300168 75.1683630467414  78.0285099161343 74.3394839151595  78.7189101314278 74.1262286046069  C 79.2087655222791 74.0417312174068  79.7314971138584 74.3917918215215  80.2279277448552 74.1262286046069  C 81.0991470641542 73.5468179495206  81.9999549641086 70.476746214584  81.8552996809042 69.5231328447545  C 81.7698215590106 68.9718879854014  81.424621451364 68.4930694579343  81.0728461035715 68.1510562240292  C 80.2016267842727 67.3060823520283  78.4230243248736 67.6078587348857  77.3282468406223 67.5917639944666  C 76.1808674352059 67.5756692540476  73.1036550470405 67.120992837209  72.3705157708002 66.0225268036078  C 71.8214832186382 65.2057187273404  72.2028471470861 63.9624000299676  71.3645040285153 63.4151788557194  C 71.3645040285153 63.4151788557194  67.8631886509554 62.473636541204  67.8631886509554 62.473636541204  C 67.3601827798129 62.3489023029564  66.5974549229173 62.2483101753371  66.2884186360716 61.6930416308795  C 66.0517099908282 61.2705546948789  66.0812985714835 60.3772966016209  66.0911614317019 59.8662885933156  C 66.1437633528672 57.4078169943034  67.6034666652021 56.2771614798642  67.662643826513 53.5893398298803  C 67.6955200272412 52.1005763411168  67.4094970809053 50.0686153632099  66.5547158619705 48.9339361636659  C 65.7985632452204 47.932038572579  64.7235114814063 48.2499096958556  64.7728257824986 46.6605540794729  C 64.8254277036638 45.0309616120426  65.8478775463128 41.6550898091439  66.4396491594215 40.1462078948564  C 66.7947121272867 39.2408787462841  67.6100419053477 38.0015837340162  67.3831961203227 37.0077335131389  C 67.2615541776281 36.4725833942049  66.8045749875053 35.6195621519946  66.4166358189117 35.3218094542418  C 65.9103423276965 34.9274883139748  62.9317585417159 34.3158881780503  62.3399869286071 34.4808592673458  C 61.603560032294 34.6860672076888  61.0643903403505 35.4706858031182  60.3674148849114 35.2654778627751  C 58.4901838233275 34.7182566885269  59.351540282408 32.4529219745435  59.0655173360722 31.4550480685615  C 58.8222334506829 30.6060505114559  58.1252579952438 30.1151609286744  58.1121075149525 29.2822581119878  C 58.0858065543699 27.5198840361002  60.4331672863678 25.2384545816977  61.7482153154983 25.0734834924024  C 62.2413583264224 25.0131282158309  63.4479148931497 25.5321835943457  64.1153017679333 25.6569178325934  C 64.1153017679333 25.6569178325934  64.9043305854116 23.9669700885917  64.9043305854116 23.9669700885917  C 65.9793823492259 24.5383333734684  67.7842857692076 26.027096862232  68.8494746728032 26.0351442324415  C 69.6154901497719 26.0391679175463  70.2565760639729 25.2988098582694  70.8220467164991 24.7395176287067  C 71.2921763869131 24.2767938416587  71.7623060573274 23.8019989992962  72.1601080861392 23.2427067697337  C 74.2050077714374 20.3617482347212  72.4362681722567 18.4223320142239  71.2165611252382 15.7586524748686  C 70.2401379636087 16.611673717079  68.550301246176 18.7321557672909  67.2714170378466 18.7080136566623  C 66.1700643134498 18.6919189162432  65.1607649510921 16.8450474531555  65.1311763704367 15.6178234962018  C 65.0621363489074 15.0384128411155  65.3152830945149 14.426812705191  65.1311763704367 13.8997099564666  C 64.9930963273781 13.2720150801231  64.3750237536866 12.9420729015322  64.121877008079 12.3385201358174  C 63.8983188431267 11.7752042211501  64.0890008073507 10.6365013365013  64.121877008079 9.96454592400528  C 62.0473887421255 9.28454314129988  62.9120328212788 9.2402826051474  60.5646720892809 9.2402826051474  C 60.4364549064407 11.1676277703305  60.2096091214156 13.171422952504  58.7729191495905 14.3503626882005  C 58.3422409200502 14.7044469774198  57.3460920379839 15.0625549517441  56.8167852062588 15.2758102622967  C 56.8924004679338 15.9558130450022  57.15541007376 17.8388976740328  57.040343371211 18.4142846440143  C 56.8595242672056 19.2914479968533  55.7746096431729 20.381866660245  55.2584532917392 21.06991681316  C 54.2853177501826 22.3695671019995  54.1176491264685 23.1541856974289  53.5587537140879 23.9428279779631  C 52.3160333265595 25.6971546836411  51.5072787886443 24.3773859692778  51.4678273477705 27.109468155414  C 51.4678273477705 27.109468155414  51.4678273477705 29.2822581119878  51.4678273477705 29.2822581119878  C 51.5302921291542 32.4609693447532  53.7461480582391 34.6498540417458  51.4678273477705 37.6796889256348  C 51.0963262795411 38.0941284914257  50.5703070678888 38.4804022614832  50.113327877766 38.6051364997311  C 48.8278684292908 38.9471497336361  48.7029388665235 37.2572019896344  47.351727016592 38.0015837340162  C 45.5731245571928 38.9753155293695  45.5007969155907 40.1864447459042  43.2093257248306 40.5445527202284  C 42.8707008573295 40.6210027372189  42.4334473876437 40.6934290691047  42.1079730004339 40.5445527202284  C 40.4937515446762 39.6995788482275  39.3989740604249 36.178854381557  36.9628475864606 34.8349435565652  C 37.2357200525052 34.2796750121074  37.9359831280173 33.0323326296299  37.9031069272891 32.4207324937055  C 37.8209164254683 30.9802532261991  35.3979404317953 29.6202476607882  34.8291821591963 28.3045026315296  C 34.8291821591963 28.3045026315296  34.2768619869615 25.1740756200217  34.2768619869615 25.1740756200217  C 33.9217990190963 23.7577384631438  32.8730482158648 21.93098542558  32.2944270830473 20.587074600588  C 32.0840193983863 20.1042323880162  31.69279260972 18.8649373757481  31.4429334841853 18.5510899375764  C 31.0845828962472 18.1044608909473  29.0100946302937 18.0360582441663  28.286818214272 17.7624476570422  C 26.6167072172762 17.1267054104891  25.6994612169577 15.0504838964297  25.3279601487283 13.1030203057229  C 25.3279601487283 13.1030203057229  26.7087605793153 12.137335880579  26.7087605793153 12.137335880579  C 26.1794537475903 10.7612355747491  25.5613811738989 10.3548433791676  24.7986533170032 9.2402826051474  C 23.7564777539173 7.70725858023155  23.3784014455423 6.3029924786681  21.7773304700758 5.37754490457178  C 20.5904996237855 8.75341670747071  19.80475842638 9.52596424758576  19.80475842638 13.3444414120089  C 18.2924531928799 11.1555567150162  17.4442472140907 8.76951144788973  17.4245214936538 5.86038711714383  Z " fill-rule="nonzero" fill="#1c8dff" stroke="none" transform="matrix(1 0 0 1 374 2316 )" />
    <path d="M 17.4245214936538 5.86038711714383  C 17.3949329129984 4.06582356041815  17.9998550063984 1.80048884643475  17.4245214936538 0.062256881175756  C 16.6157669557385 1.41019139127246  16.2672792280189 2.51268110997836  16.056871543358 4.17043937314202  C 16.056871543358 4.17043937314202  13.8903299153654 2.95931015660744  13.8903299153654 2.95931015660744  C 13.8903299153654 2.95931015660744  13.0618496570132 5.86038711714383  13.0618496570132 5.86038711714383  C 13.0618496570132 5.86038711714383  13.6930727109959 12.137335880579  13.6930727109959 12.137335880579  C 11.7172130472273 12.5115385953223  11.5626949038044 13.4933177608852  10.3397002367131 11.1716514554352  C 9.79724292469666 11.4130725617212  9.06410364845641 11.7872752764644  8.67616447986291 12.3264490805032  C 8.31781389192489 12.8294097185989  8.37041581309003 13.4450335396281  8.36712819301724 14.0687047308668  C 8.34740247258026 18.3499056823381  8.96547504627162 17.0422080232892  9.74792862360425 20.587074600588  C 10.3298373764945 20.3255350687783  11.3161233983425 19.4926322520917  11.8585807103588 19.830621800892  C 12.8021276712601 20.4221035112927  13.3412973632035 22.4902776551424  13.2097925602904 23.7255489823057  C 13.0750001373045 24.9688676796784  12.9171943738089 25.1861466753359  12.9040438935176 26.6266259428421  C 12.9040438935176 26.6266259428421  12.9040438935176 31.6964691748476  12.9040438935176 31.6964691748476  C 12.9040438935176 31.6964691748476  12.5095294847784 35.0763646628511  12.5095294847784 35.0763646628511  C 12.5095294847784 35.0763646628511  12.5095294847784 37.2411072492152  12.5095294847784 37.2411072492152  C 12.3221351406273 38.4361417253308  11.6415977855523 38.5045443721119  11.3457119789979 39.2529498015986  C 10.9906490111326 40.1623026352755  11.7994035490479 41.1843186518862  11.4837920220566 41.9850319877346  C 11.26680909725 42.5362768470876  10.3890145378054 42.9024321916214  9.96491154841084 43.2766349063646  C 9.16601987071397 43.9848034848035  9.15615701049558 44.6809010079279  8.52164633644011 45.2884774587477  C 7.9528880638411 45.8356986329958  7.14084590585301 45.9161723350912  6.67400385551164 46.3869434923488  C 6.11839606320402 46.9422120368067  6.09209510262141 47.8837543513219  5.52991207016811 48.4551176361986  C 4.79348517385498 49.1994993805804  3.87295155346368 48.6080176701798  2.97871889365479 49.8392653122382  C 1.94969381086025 51.2515787840111  2.38037204040046 52.9012896769653  1.89051664954931 54.3136031487382  C 1.31518313680473 55.9753850970067  -0.016302992689873 56.9813063731983  0.200679932116543 59.1420252744577  C 0.309171394519836 60.1962307719064  0.992996369667765 60.4135097675638  1.09162497185261 61.5562363373174  C 1.24285549520255 63.3427525238336  0.358485695612217 63.4151788557194  1.46312604008193 65.9018162504648  C 3.53761430603532 65.177552931607  4.19513832060059 63.8738789576628  6.78907055806056 63.7410973492054  C 9.41916661632163 63.6002683705386  8.77479308204767 64.899918659378  12.1150150760392 64.936131825321  C 12.1150150760392 64.936131825321  10.3397002367131 66.1432373567509  10.3397002367131 66.1432373567509  C 11.3161233983425 68.9236037641442  11.9473464523251 70.4606514741649  12.0952893556023 73.6313153367208  C 12.1643293771316 75.0637472340175  11.7632397282468 75.7196079060944  12.233369398661 76.3312080420188  C 13.2196554205088 77.6067162202297  16.4678240524613 77.4940530372963  17.8321863826842 77.4940530372963  C 17.3028795509592 79.9002167299464  16.4217973714418 81.0751327805381  16.1785134860525 82.0810540567298  C 15.8957781597896 83.3123016987881  16.4415230918787 84.3182229749796  16.1785134860525 85.1189363108281  C 15.7839990773134 86.2737339358961  14.3834729262894 86.861191961192  13.8903299153654 89.0822661390227  C 16.6190545758114 90.6836928107197  15.3105817868264 89.6858189047379  17.0431575652059 90.1445190066811  C 18.4568341965212 90.5146980363197  18.3417674939723 91.4481929806254  20.7910444482279 90.5307927767386  C 21.0573416741269 91.2912692615395  21.4025417817737 92.1362431335403  21.5143208642497 92.9450038395984  C 21.6392504270171 93.794001396704  21.4847322835943 94.638975268705  21.7806180901487 95.3632385875629  C 22.1291058178683 96.1961414042495  23.572371029839 97.6728338376986  24.3416741268804 97.7935443908417  C 24.8282418976586 97.9142549439845  25.2490572669805 97.6245496164415  25.9197317618371 97.7935443908417  C 26.7613625004805 97.9383970546131  27.1328635687099 98.5339024501186  28.0895610099024 98.1516523651657  C 29.3026928167752 97.6688101525939  29.8024110678449 96.6789836168215  30.6539046667069 95.9788624085921  C 31.23910103967 95.5000438811249  31.9656650757646 95.3873806981915  32.6264767104028 95.1218174812769  C 32.6264767104028 95.1218174812769  33.3234521658419 98.2602918629945  33.3234521658419 98.2602918629945  C 33.3201645457691 99.1213604754145  32.9585263377582 99.8617185346915  33.3234521658419 100.634266074807  C 34.3919286895105 102.666227052714  35.7760167401704 101.78504001477  36.5157312565563 101.905750567913  C 36.9003828050769 101.966105844484  37.6663982820455 102.593800720828  38.1463908126782 102.847292882428  C 38.1463908126782 102.847292882428  38.3370727769021 100.191660713282  38.3370727769021 100.191660713282  C 38.3370727769021 100.191660713282  39.152402554963 97.5360285441366  39.152402554963 97.5360285441366  C 39.152402554963 97.5360285441366  37.4033886762194 89.5651083515948  37.4033886762194 89.5651083515948  C 37.4033886762194 89.5651083515948  38.9354196301564 86.4266339698771  38.9354196301564 86.4266339698771  C 39.2871949779488 86.8370498505634  39.6554084261053 87.3440341737638  40.118962856374 87.581431594945  C 40.4773134443119 87.7303079438214  41.2564794015719 87.6578816119356  41.6312680898741 87.581431594945  C 43.3967200689817 87.3359868035544  43.8569868791774 86.8008366846205  45.1818977685265 85.3925468979522  C 45.6717531593776 84.8734915194374  46.5265343783124 83.6462675624837  47.1544698122223 83.5859122859122  C 47.9665119702103 83.5094622689216  49.2190952179572 85.070652089571  49.9160706733964 85.5897074680857  C 50.6722232901465 86.1489996976483  51.799876975126 86.2858049912105  52.6776715345705 86.4266339698771  C 52.6776715345705 86.4266339698771  54.6502435782663 82.8053173755876  54.6502435782663 82.8053173755876  C 55.1203732486806 83.2197569413785  56.2250135931502 84.5113598600084  56.6195280018892 84.6280467280467  C 57.2934901168187 84.8292309832851  57.7011550058492 83.9319492049221  58.3619666404873 84.2578676984081  C 59.1411325977471 84.6441414684657  59.0655173360722 85.742607502067  60.95918649802 86.1852128635911  C 61.0512398600592 84.8493494088088  61.3800018673419 83.6502912475885  62.5372441329766 83.1714727201213  C 63.4479148931497 82.7932463202732  64.1087265277877 83.8715939283506  64.9043305854116 83.8434281326172  C 65.5092526788117 83.8233097070935  65.8906166072596 83.2036622009594  66.4823882203682 82.9461463542544  C 66.4823882203682 82.9461463542544  67.7809981491346 82.6685120820255  67.7809981491346 82.6685120820255  C 68.454960264064 82.2621198864441  68.3629069020249 80.9423511720809  68.9579661352065 80.0088562277751  C 70.0889074402588 78.2505058369921  71.2165611252382 77.3532240586293  72.9918759645644 76.9589029183624  C 73.4192665740319 76.9025713268957  73.948573405757 76.7536949780192  74.3726763951515 76.9589029183624  C 74.8493813057113 77.1118029523434  75.1978690334309 77.5745267393916  75.556219621369 77.9768952498681  C 76.3025093779005 77.3210345777912  76.82524096948 76.7174818120764  77.3742735216419 75.8041052932944  C 77.7523498300168 75.1683630467414  78.0285099161343 74.3394839151595  78.7189101314278 74.1262286046069  C 79.2087655222791 74.0417312174068  79.7314971138584 74.3917918215215  80.2279277448552 74.1262286046069  C 81.0991470641542 73.5468179495206  81.9999549641086 70.476746214584  81.8552996809042 69.5231328447545  C 81.7698215590106 68.9718879854014  81.424621451364 68.4930694579343  81.0728461035715 68.1510562240292  C 80.2016267842727 67.3060823520283  78.4230243248736 67.6078587348857  77.3282468406223 67.5917639944666  C 76.1808674352059 67.5756692540476  73.1036550470405 67.120992837209  72.3705157708002 66.0225268036078  C 71.8214832186382 65.2057187273404  72.2028471470861 63.9624000299676  71.3645040285153 63.4151788557194  C 71.3645040285153 63.4151788557194  67.8631886509554 62.473636541204  67.8631886509554 62.473636541204  C 67.3601827798129 62.3489023029564  66.5974549229173 62.2483101753371  66.2884186360716 61.6930416308795  C 66.0517099908282 61.2705546948789  66.0812985714835 60.3772966016209  66.0911614317019 59.8662885933156  C 66.1437633528672 57.4078169943034  67.6034666652021 56.2771614798642  67.662643826513 53.5893398298803  C 67.6955200272412 52.1005763411168  67.4094970809053 50.0686153632099  66.5547158619705 48.9339361636659  C 65.7985632452204 47.932038572579  64.7235114814063 48.2499096958556  64.7728257824986 46.6605540794729  C 64.8254277036638 45.0309616120426  65.8478775463128 41.6550898091439  66.4396491594215 40.1462078948564  C 66.7947121272867 39.2408787462841  67.6100419053477 38.0015837340162  67.3831961203227 37.0077335131389  C 67.2615541776281 36.4725833942049  66.8045749875053 35.6195621519946  66.4166358189117 35.3218094542418  C 65.9103423276965 34.9274883139748  62.9317585417159 34.3158881780503  62.3399869286071 34.4808592673458  C 61.603560032294 34.6860672076888  61.0643903403505 35.4706858031182  60.3674148849114 35.2654778627751  C 58.4901838233275 34.7182566885269  59.351540282408 32.4529219745435  59.0655173360722 31.4550480685615  C 58.8222334506829 30.6060505114559  58.1252579952438 30.1151609286744  58.1121075149525 29.2822581119878  C 58.0858065543699 27.5198840361002  60.4331672863678 25.2384545816977  61.7482153154983 25.0734834924024  C 62.2413583264224 25.0131282158309  63.4479148931497 25.5321835943457  64.1153017679333 25.6569178325934  C 64.1153017679333 25.6569178325934  64.9043305854116 23.9669700885917  64.9043305854116 23.9669700885917  C 65.9793823492259 24.5383333734684  67.7842857692076 26.027096862232  68.8494746728032 26.0351442324415  C 69.6154901497719 26.0391679175463  70.2565760639729 25.2988098582694  70.8220467164991 24.7395176287067  C 71.2921763869131 24.2767938416587  71.7623060573274 23.8019989992962  72.1601080861392 23.2427067697337  C 74.2050077714374 20.3617482347212  72.4362681722567 18.4223320142239  71.2165611252382 15.7586524748686  C 70.2401379636087 16.611673717079  68.550301246176 18.7321557672909  67.2714170378466 18.7080136566623  C 66.1700643134498 18.6919189162432  65.1607649510921 16.8450474531555  65.1311763704367 15.6178234962018  C 65.0621363489074 15.0384128411155  65.3152830945149 14.426812705191  65.1311763704367 13.8997099564666  C 64.9930963273781 13.2720150801231  64.3750237536866 12.9420729015322  64.121877008079 12.3385201358174  C 63.8983188431267 11.7752042211501  64.0890008073507 10.6365013365013  64.121877008079 9.96454592400528  C 62.0473887421255 9.28454314129988  62.9120328212788 9.2402826051474  60.5646720892809 9.2402826051474  C 60.4364549064407 11.1676277703305  60.2096091214156 13.171422952504  58.7729191495905 14.3503626882005  C 58.3422409200502 14.7044469774198  57.3460920379839 15.0625549517441  56.8167852062588 15.2758102622967  C 56.8924004679338 15.9558130450022  57.15541007376 17.8388976740328  57.040343371211 18.4142846440143  C 56.8595242672056 19.2914479968533  55.7746096431729 20.381866660245  55.2584532917392 21.06991681316  C 54.2853177501826 22.3695671019995  54.1176491264685 23.1541856974289  53.5587537140879 23.9428279779631  C 52.3160333265595 25.6971546836411  51.5072787886443 24.3773859692778  51.4678273477705 27.109468155414  C 51.4678273477705 27.109468155414  51.4678273477705 29.2822581119878  51.4678273477705 29.2822581119878  C 51.5302921291542 32.4609693447532  53.7461480582391 34.6498540417458  51.4678273477705 37.6796889256348  C 51.0963262795411 38.0941284914257  50.5703070678888 38.4804022614832  50.113327877766 38.6051364997311  C 48.8278684292908 38.9471497336361  48.7029388665235 37.2572019896344  47.351727016592 38.0015837340162  C 45.5731245571928 38.9753155293695  45.5007969155907 40.1864447459042  43.2093257248306 40.5445527202284  C 42.8707008573295 40.6210027372189  42.4334473876437 40.6934290691047  42.1079730004339 40.5445527202284  C 40.4937515446762 39.6995788482275  39.3989740604249 36.178854381557  36.9628475864606 34.8349435565652  C 37.2357200525052 34.2796750121074  37.9359831280173 33.0323326296299  37.9031069272891 32.4207324937055  C 37.8209164254683 30.9802532261991  35.3979404317953 29.6202476607882  34.8291821591963 28.3045026315296  C 34.8291821591963 28.3045026315296  34.2768619869615 25.1740756200217  34.2768619869615 25.1740756200217  C 33.9217990190963 23.7577384631438  32.8730482158648 21.93098542558  32.2944270830473 20.587074600588  C 32.0840193983863 20.1042323880162  31.69279260972 18.8649373757481  31.4429334841853 18.5510899375764  C 31.0845828962472 18.1044608909473  29.0100946302937 18.0360582441663  28.286818214272 17.7624476570422  C 26.6167072172762 17.1267054104891  25.6994612169577 15.0504838964297  25.3279601487283 13.1030203057229  C 25.3279601487283 13.1030203057229  26.7087605793153 12.137335880579  26.7087605793153 12.137335880579  C 26.1794537475903 10.7612355747491  25.5613811738989 10.3548433791676  24.7986533170032 9.2402826051474  C 23.7564777539173 7.70725858023155  23.3784014455423 6.3029924786681  21.7773304700758 5.37754490457178  C 20.5904996237855 8.75341670747071  19.80475842638 9.52596424758576  19.80475842638 13.3444414120089  C 18.2924531928799 11.1555567150162  17.4442472140907 8.76951144788973  17.4245214936538 5.86038711714383  Z " stroke-width="2.13294375456538" stroke="#ffffff" fill="none" transform="matrix(1 0 0 1 374 2316 )" mask="url(#clip12)" />
  </g>
</svg>