<?xml version="1.0" encoding="utf-8"?>
<svg version="1.1" xmlns:xlink="http://www.w3.org/1999/xlink" width="197px" height="209px" xmlns="http://www.w3.org/2000/svg">
  <defs>
    <mask fill="white" id="clip28">
      <path d="M 157.479087528731 5.84760452025953  C 156.331923161514 8.26326787837122  155.938609664182 6.95610793623512  156.256538074525 9.90019765393374  C 157.249654655288 9.74127243300534  159.511207264945 9.29230868388261  160.268335747309 10.2736719231155  C 160.740311944107 10.8855340236898  160.553488032874 12.6337114539022  160.599374607563 13.4760151248228  C 160.599374607563 13.4760151248228  160.759977618973 15.144729944571  160.759977618973 15.144729944571  C 160.877971668173 17.6835603489022  160.212616335187 17.945786963434  159.114616155136 19.6740987410304  C 159.114616155136 19.6740987410304  157.875678638541 22.0579770549564  157.875678638541 22.0579770549564  C 157.0562755191 23.8180738767384  156.9087829576 25.6735258310775  156.41058586098 27.5448703075094  C 155.948442501615 29.2811283461522  155.705899178261 28.9593047737722  155.204424469163 31.5974634411836  C 155.053654295186 32.3960626763489  154.955325920853 33.2224738251765  154.693116922632 33.9813417551097  C 154.08020338929 35.7533579684613  152.65771957394 37.5134547902433  154.879940833864 38.5107105515691  C 154.879940833864 38.5107105515691  154.175254151145 41.7726507111245  154.175254151145 41.7726507111245  C 154.175254151145 41.7726507111245  150.563325200649 44.0969320672023  150.563325200649 44.0969320672023  C 150.563325200649 44.0969320672023  149.114620485477 46.1192555035162  149.114620485477 46.1192555035162  C 149.114620485477 46.1192555035162  145.440416897903 49.7109654964981  145.440416897903 49.7109654964981  C 145.440416897903 49.7109654964981  143.280470275056 49.3176255747003  143.280470275056 49.3176255747003  C 143.280470275056 49.3176255747003  141.70721628573 49.1626734842951  141.70721628573 49.1626734842951  C 141.70721628573 49.1626734842951  137.774081312412 47.3350334436185  137.774081312412 47.3350334436185  C 137.774081312412 47.3350334436185  134.909448006846 59.9695885074263  134.909448006846 59.9695885074263  C 134.909448006846 59.9695885074263  133.195256680976 63.783793809708  133.195256680976 63.783793809708  C 133.195256680976 63.783793809708  133.532850766185 67.359611280597  133.532850766185 67.359611280597  C 133.532850766185 67.359611280597  132.267692349768 72.1313410389722  132.267692349768 72.1313410389722  C 132.85110737081 72.5048153081539  134.483358384737 73.8755453386614  135.020886831091 73.7960827281972  C 135.643633201866 73.7047007261634  136.220492997952 72.7074449648376  136.790797569083 72.2743737378077  C 137.459430514547 71.7618399003137  137.875687299223 71.9922814706598  138.560708307076 71.7260817256048  C 139.324392014395 71.428096936364  139.534159212972 70.9751600567181  140.527275793734 70.955294404102  C 142.798661240825 70.91556309887  143.283747887534 72.5961973101878  145.047103400571 73.5616680273278  C 145.450249735336 72.4332989587362  146.784238013786 69.3859078474341  147.472536634117 68.627039917501  C 147.993677018081 68.0549091221587  148.350936778158 68.1383448631462  148.980238373888 67.9992852948338  C 150.301116202427 67.7132198971626  151.172961121513 67.3556381500738  152.503671787485 68.1780761683782  C 153.477122693381 68.7819920079062  153.559063005325 69.8865222933585  155.07659758253 71.0029719703805  C 155.07659758253 71.0029719703805  157.633135315186 72.7908807058251  157.633135315186 72.7908807058251  C 157.633135315186 72.7908807058251  159.599702801845 74.6741445738266  159.599702801845 74.6741445738266  C 160.619040282429 75.5283676363168  160.917303017906 75.2780604133546  161.825201674247 76.6646829659548  C 163.08052725323 78.5757587476188  163.326348189063 80.4033987882955  163.926151272493 82.6204056202466  C 162.2742345837 83.1925364155889  161.802258386902 83.9911356507541  159.79635955051 84.0507326086022  C 158.003505525174 84.0984101748808  157.705242789697 83.6931508615133  156.649851571857 83.6256076426188  C 156.649851571857 83.6256076426188  153.306686844537 84.102383305404  153.306686844537 84.102383305404  C 151.615438806011 84.4122874862144  150.084793778895 86.4266646614818  149.570208619886 86.6809450149673  C 148.967127923977 86.9749566736848  148.573814426646 86.5140735329924  147.996954630559 86.4187184004354  C 147.515145596328 86.3432289204944  146.908787287941 86.5577779687478  146.423700641232 86.6729987539209  C 146.423700641232 86.6729987539209  146.423700641232 89.533652730632  146.423700641232 89.533652730632  C 145.597742296836 89.6170884716195  142.487288055437 90.0581059596958  141.936649159173 90.5229622309113  C 141.136911714599 91.198394419857  139.747204024027 94.3292212721466  139.471884575894 95.4973216459703  C 139.249006927406 96.4468998410175  139.462051738461 97.1143857689168  139.147400940596 97.8811999598963  C 138.695090418664 98.9698377232558  137.544648438969 99.8161145246996  136.790797569083 100.578955585156  C 136.095943723797 101.286172818287  135.102827143035 102.676768501411  134.430916585093 103.141624772626  C 133.985161288117 103.447555822914  131.523674317316 103.868707658374  130.891095109107 103.9759821825  C 129.911088978256 104.071337315057  129.471888906236 103.487287128146  128.731148486261 103.9759821825  C 127.85274834222 104.61962932726  127.184115396756 106.991588249617  126.51876006377 108.052414099314  C 124.791458287988 110.825659204515  124.5980791518 110.027059969349  123.224759523617 111.441494435612  C 122.733117651952 111.94608201206  122.005487681888 112.983069078618  121.454848785624 113.277080737335  C 121.061535288292 113.447925349833  119.986478395586 113.300919520474  119.488281298966 113.277080737335  C 118.662322954569 113.292973259428  115.591200062904 112.947310903909  114.965176079651 112.57780976525  C 113.899952024378 111.950055142583  113.346035515635 110.476023718472  111.032041106334 110.43629241324  C 110.301133523792 110.428346152194  109.521061754084 110.360802933299  108.888482545876 110.889229292886  C 108.269013787579 111.40176313038  107.967473439624 112.271878714963  107.639712191848 113.058558558559  C 106.820309072407 115.05307008121  105.620702905545 119.590385138716  106.58104336153 121.644493619215  C 107.390613643538 123.376778527335  108.845873583665 124.27470602558  109.353903517718 125.05343960813  C 109.796381202216 125.859985104341  109.930763313805 127.222768873802  109.353903517718 128.013421847921  C 109.353903517718 128.013421847921  107.289007656727 130.504574685974  107.289007656727 130.504574685974  C 106.154953739421 131.418394706312  104.729192311593 131.760083931308  103.621359294109 133.130813961816  C 102.274260565748 134.799528781564  101.395860421707 137.155595181827  100.56990207731 138.335614947221  C 100.009430343613 139.134214182386  97.6429941346667 141.637286412008  96.9415850644252 142.074330769561  C 96.1352923948952 142.574945215486  95.7321460601302 142.185578424211  94.7783608291008 142.757709219553  C 93.6443069117944 143.441087669546  92.6774112308539 144.664811870694  91.4351961017812 145.097883097724  C 90.7763959937507 145.32832466807  89.4260196529118 145.24091579656  88.6820016204592 145.248862057606  C 88.6820016204592 145.248862057606  86.125463887803 145.586578152079  86.125463887803 145.586578152079  C 86.125463887803 145.586578152079  84.3555531498104 145.34024405964  84.3555531498104 145.34024405964  C 84.3555531498104 145.34024405964  79.8357255429735 146.18254773056  79.8357255429735 146.18254773056  C 78.6230089262007 146.269956602071  77.8101610317152 145.757422764577  77.0825310616515 145.86072415818  C 77.0825310616515 145.86072415818  73.739366334332 147.418191323279  73.739366334332 147.418191323279  C 72.7790258783471 147.771799939844  72.277551169249 147.517519586359  71.5761420990075 147.751934287228  C 71.5761420990075 147.751934287228  68.0363206230222 149.95702172761  68.0363206230222 149.95702172761  C 68.0363206230222 149.95702172761  61.9432390268584 153.652033114195  61.9432390268584 153.652033114195  C 60.2814895006319 154.661208267091  58.7344564111272 155.710114725218  56.8301635615461 155.737926638881  C 56.8301635615461 155.737926638881  54.6669393262217 155.737926638881  54.6669393262217 155.737926638881  C 54.6669393262217 155.737926638881  54.6669393262217 153.115660493562  54.6669393262217 153.115660493562  C 54.6669393262217 153.115660493562  51.9137448448998 153.759307638322  51.9137448448998 153.759307638322  C 50.3175475682285 154.037426774947  47.7052904234504 153.703683810997  46.2106991335898 152.972627794726  C 46.2106991335898 152.972627794726  41.2975580294212 149.496138586918  41.2975580294212 149.496138586918  C 40.3175518985697 149.074986751457  38.4460351737663 149.504084847964  36.7810080350621 148.482990303499  C 35.5748466432449 147.747961156705  35.7649481669551 146.277902863117  34.5915628999156 145.280647101792  C 33.6934970810082 144.517806041335  32.307067002914 144.3747733425  31.2680638474626 143.925809593377  C 29.9209651191015 143.341759406465  29.4620993722144 142.75373608903  27.7282423714771 142.308745470431  C 26.8367317775253 142.078303900085  25.15859418891 142.137900857933  24.1884208954918 142.149820249502  C 24.1884208954918 142.149820249502  22.4217877699768 142.276960426245  22.4217877699768 142.276960426245  C 21.7465995995575 142.348476775663  21.4221159642587 142.114062074793  20.6518770319841 142.276960426245  C 19.1998947043346 142.43191251665  18.7934707570917 143.023908964608  16.9153988073327 142.841144960541  C 16.9153988073327 142.841144960541  15.1454880693401 142.43191251665  15.1454880693401 142.43191251665  C 15.1454880693401 142.43191251665  11.212353096023 142.038572594852  11.212353096023 142.038572594852  C 11.212353096023 142.038572594852  8.85247211203279 141.303543448059  8.85247211203279 141.303543448059  C 8.85247211203279 141.303543448059  6.49259112804253 140.981719875679  6.49259112804253 140.981719875679  C 6.49259112804253 140.981719875679  0.202852783212734 139.050778441399  0.202852783212734 139.050778441399  C 0.202852783212734 139.050778441399  2.89049501497956 148.586291697102  2.89049501497956 148.586291697102  C 2.89049501497956 148.586291697102  4.0114384823749 152.877272662169  4.0114384823749 152.877272662169  C 4.0114384823749 152.877272662169  2.98226816435701 157.168253627236  2.98226816435701 157.168253627236  C 2.98226816435701 157.168253627236  4.10976685670784 159.0793294089  4.10976685670784 159.0793294089  C 4.10976685670784 159.0793294089  6.38442991627619 162.416759048397  6.38442991627619 162.416759048397  C 6.38442991627619 162.416759048397  7.3709912720833 164.085473868145  7.3709912720833 164.085473868145  C 7.3709912720833 164.085473868145  6.68924787670835 167.899679170426  6.68924787670835 167.899679170426  C 6.68924787670835 167.899679170426  8.06584511736932 167.899679170426  8.06584511736932 167.899679170426  C 10.2028484528716 167.883786648334  9.82920063040646 166.989832280611  11.2221859334563 165.579370944872  C 12.1399174272303 164.649658402441  16.122216587714 163.390176026583  17.3087123046645 163.48553115914  C 17.7937989513737 163.525262464372  18.5935363959481 163.886817341984  19.0786230426573 164.085473868145  C 19.5571544644109 164.280157263782  20.2192321849192 164.502652573082  20.5928800073844 164.919831278019  C 21.3958950644366 165.813785645741  21.612217487969 167.728834557928  21.0943547164823 168.853230495997  C 21.0943547164823 168.853230495997  19.471936539989 171.948299173577  19.471936539989 171.948299173577  C 18.1313930365834 174.510968361048  16.7384077335335 173.259432246237  15.5388015666719 176.48164110056  C 16.135327037625 176.48164110056  16.9743958319326 176.406151620619  17.5053690533305 176.727975192999  C 18.1674467738388 177.129261375843  18.7311961200143 178.114597745599  19.471936539989 178.662889757802  C 20.0061873738646 179.064175940647  20.6649874818951 179.111853506925  21.1140203913489 179.683984302267  C 21.7039906373465 180.438879101677  21.4942234387695 181.173908248471  22.6249997435982 182.262546011831  C 22.6249997435982 182.262546011831  25.8239495218962 184.519284149014  25.8239495218962 184.519284149014  C 26.3614779682495 185.29404460104  25.5486300737639 186.45817184434  26.0533823953396 187.689842306535  C 26.604021291604 189.040706684427  28.6230305779068 190.391571062318  29.6948098581357 191.285525430041  C 31.3073951971958 192.620497285839  33.0871387726217 193.446908434667  34.5981181248711 191.500074478294  C 34.9291569851252 191.07494951231  35.2143092706908 190.685582721036  35.2339749455574 190.073720620461  C 35.2536406204239 189.497616694596  34.8111629359258 188.242107449262  34.6112285747821 187.689842306535  C 34.6112285747821 187.689842306535  36.184482564109 186.855484896661  36.184482564109 186.855484896661  C 36.8006737099287 186.676694023117  39.0818919944526 186.672720892594  39.7243040400944 186.855484896661  C 40.5535399969688 187.022356378636  41.9235820126742 187.952068921067  42.6741552700822 187.801089961185  C 43.775433062611 187.578594651886  44.873433242662 185.723142697546  45.8173856362581 185.031817986508  C 45.8173856362581 185.031817986508  50.3404908555729 183.398861341469  50.3404908555729 183.398861341469  C 50.5338699917609 184.392143972271  50.8288551147597 185.349668428365  51.2254462245692 186.25951531818  C 51.5105985101347 186.915081854509  51.9891299318883 187.618325957118  51.8449149828667 188.405005800713  C 51.7465866085337 188.925485899254  51.0877865005031 189.99823114052  50.8354103397152 190.550496283247  C 50.284771443451 191.754354831779  50.0553385700074 193.049595382346  49.3145981500326 194.126313754136  C 48.6492428170466 195.095757601799  46.8531111792316 196.800230596256  46.682675330388 197.940519056417  C 46.5909021810105 198.5881393317  46.8301678918873 199.4781205689  46.9973261282533 200.086009538951  C 45.6567826248478 200.797199902605  45.3683527268045 200.904474426732  45.5977856002479 202.708275684269  C 45.6502273998922 203.141346911299  45.679725912192 203.610176313038  45.9648781977576 203.928026754895  C 46.3745797574781 204.384936765064  47.0071589656866 204.170387716811  47.7282337107947 204.929255646744  C 48.3378696316589 205.572902791504  48.8295115033235 206.653594293817  49.5735295357759 207.285322047007  C 50.1208908195625 207.750178318223  52.2644493800204 208.958009997279  52.897028588229 208.906359300477  C 53.4902764467043 208.854708603675  53.8803123315582 208.338201635658  54.8635960748875 208.219007719962  C 55.9845395422829 208.083921282172  57.1218710720672 208.123652587405  58.2067608022071 207.638930663573  C 58.2067608022071 207.638930663573  60.3699850375315 206.315878199344  60.3699850375315 206.315878199344  C 61.9825703765915 205.557010269411  63.7754244019285 206.196684283648  64.3785050978372 204.357124851401  C 64.5423857217254 203.864456666523  64.4932215345589 202.799657686303  64.4964991470367 202.231500021484  C 64.5259976593365 199.581421962503  65.2798485292223 200.23301536831  65.2831261417002 196.986967730847  C 65.2896813666557 193.693242527106  65.7649351759316 190.240592102436  67.6856160879013 187.709707959152  C 69.1474312529842 185.782739655395  71.6941361482071 183.458458299317  73.0969542886901 186.736290980965  C 73.2411692377118 187.066060814392  73.4312707614221 187.562702129793  73.4869901735441 187.928230137928  C 73.5984289977881 188.726829373093  73.113342351079 190.01015053209  72.8707990277244 190.788884114639  C 71.8285182597955 194.10644810152  72.0350078458945 192.513222761712  71.458148049808 196.271804236669  C 71.3630972879529 196.867773815151  71.1074435146872 198.019981666881  71.3008226508754 198.564300548561  C 71.8973481218283 200.276719804065  74.3850559924515 199.557583179364  75.7059338209905 200.276719804065  C 76.6957727892753 200.821038685745  77.0726982242181 201.703073661897  78.0658148049807 202.37453272032  C 78.0658148049807 202.37453272032  81.7924601921987 204.003516234836  81.7924601921987 204.003516234836  C 82.7560782606614 204.599485813317  82.8839051472942 205.644419140922  83.4476544934697 206.033785932196  C 83.9687948774343 206.391367679285  85.2667294186289 205.886780102837  85.9288071391373 205.787451839757  C 85.9288071391373 205.787451839757  87.4594521662532 205.787451839757  87.4594521662532 205.787451839757  C 88.2854105106498 205.441789484238  88.2231358735723 203.777047795013  88.5705627962152 202.958582907232  C 88.9638762935471 202.0288703648  89.6783958136996 201.774590011315  90.451912358452 201.516336527306  C 90.2716436721749 200.578677723829  89.86849733741 199.617180137212  89.9045510746653 198.655682550595  C 89.9733809366984 196.812149987826  91.035327379494 195.397715521563  91.7891782493798 193.887925922743  C 92.2709872836111 192.91848207508  92.7757396051869 191.627214655036  93.4378173256952 190.868346725103  C 94.1097278836369 190.097559403601  94.6538115549457 189.986311748951  95.5322116989865 188.869862071929  C 95.5322116989865 188.869862071929  97.9969762822653 185.544351824002  97.9969762822653 185.544351824002  C 98.3673464922526 184.912624070812  98.9343734509059 184.050454747275  99.4719018972593 183.629302911815  C 99.8652153945909 183.327344992051  101.035323049153 183.12868846589  101.59579478285 182.922085678683  C 101.59579478285 182.922085678683  102.57907852618 184.829188329824  102.57907852618 184.829188329824  C 102.57907852618 184.829188329824  106.115622389687 180.772622065627  106.115622389687 180.772622065627  C 106.115622389687 180.772622065627  106.705592635685 182.922085678683  106.705592635685 182.922085678683  C 107.295562881682 182.715482891476  107.878977902725 182.492987582177  108.265736175101 181.873179220556  C 108.606607872788 181.328860338876  108.704936247121 180.482583537433  109.163801994008 180.02170039674  C 109.888154351594 179.298590641516  111.877665125597 179.342295077271  112.801951844327 179.342295077271  C 113.034662330248 177.268320944156  113.595134063945 175.770450736905  114.260489396932 173.859374955241  C 114.67346856913 172.679355189848  114.925844729918 171.797320213695  115.94845982298 171.197377504691  C 117.321779451163 170.438509574758  117.698704886106 171.539066729687  118.48533188077 171.197377504691  C 118.891755828012 170.99872097853  119.330955900033 170.26766496226  119.70132611002 169.906110084647  C 120.124138119652 169.492904510234  121.317189061558 168.821445451811  121.848162282956 168.65854710036  C 122.952717687962 168.32480413641  123.657404370682 169.202865982039  124.401422403134 169.063806413727  C 124.945506074443 168.964478150647  125.361762859119 168.380427963735  125.778019643795 167.99106117246  C 126.748192937213 167.097106804738  128.128067790352 166.624304272476  128.531214125117 165.897221386729  C 128.695094749005 165.599236597488  128.757369386083 165.150272848365  128.806533573249 164.800637362323  C 129.160515720848 162.2975651327  127.57415128161 161.77708503416  126.92846162349 159.794492903078  C 126.649864562881 158.924377318495  126.761303387124 155.233339062433  126.761303387124 154.069211819132  C 126.761303387124 154.069211819132  128.531214125117 153.83082398774  128.531214125117 153.83082398774  C 128.531214125117 151.510515762185  128.862252985371 149.333240235466  130.032360639933 147.398325670663  C 130.546945798942 146.552048869219  131.346683243517 145.534927455277  132.264414737291 146.111031381143  C 133.818003051751 147.088421489852  133.24769848062 148.737270656985  134.008104575461 150.251033386327  C 134.712791258181 151.649575330497  135.4174779409 151.546273936894  136.594140820417 151.923721336599  C 137.456152902069 150.326522866269  139.511215925627 147.136099056131  141.117246039732 146.718920351194  C 141.913705871829 146.512317563987  142.670834354192 147.306943668629  143.477127023722 147.151991578224  C 144.68328841554 146.917576877354  144.332583880419 145.975944943354  146.817014138564 145.964025551784  C 147.07266791183 144.434370300348  148.206721829136 140.413562210859  149.058901073355 139.380548274825  C 149.452214570687 138.899799481516  150.242119177828 138.45878199344  150.750149111881 138.041603288503  C 151.625271643444 137.326439794325  152.543003137218 136.297398988814  153.700000341869 136.599356908578  C 155.699343953305 137.123810137642  155.568239454195 139.456037754766  156.528579910179 140.572487431788  C 157.288986005021 141.454522407941  158.318156323039 141.609474498346  159.009732555847 142.872930004726  C 160.271613359786 145.189265099758  159.045786293102 146.027595640155  159.121171380091 147.632740371532  C 159.157225117347 148.423393345651  159.937296887054 149.841800942437  160.448604433586 150.322549735745  C 161.536771776204 151.339671149687  162.467613719889 150.660265830218  163.532837775162 150.632453916556  C 165.063482802278 150.596695741847  167.216874200169 151.828366204042  167.983835519966 148.824679528495  C 168.278820642964 147.664525415718  167.403698111401 146.973200704679  167.151321950614 145.725637720391  C 167.151321950614 145.725637720391  167.052993576281 141.673044586717  167.052993576281 141.673044586717  C 166.98088610177 140.62413812859  166.630181566649 139.527554104184  166.282754644006 138.574002778613  C 166.282754644006 138.574002778613  167.856008633333 137.143675790258  167.856008633333 137.143675790258  C 169.016283450462 138.168743465246  169.779967157781 138.577975909136  170.76325090111 140.004329766969  C 171.936636168149 141.704829630903  171.140176336053 142.002814420144  173.165740847311 143.580147237858  C 173.867149917553 141.939244331772  174.230964902584 140.437400993999  175.345353145024 139.070644094015  C 175.869771141467 138.430970079778  177.629849042026 136.809932826308  178.278816312623 136.360969077185  C 178.278816312623 136.360969077185  179.989730026016 135.304116358011  179.989730026016 135.304116358011  C 181.415491453844 133.945305719074  181.556428790387 132.038203067933  183.785205275267 132.610333863275  C 183.785205275267 132.610333863275  185.751772761926 129.586781535112  185.751772761926 129.586781535112  C 185.751772761926 129.586781535112  187.420077513108 128.79215543047  187.420077513108 128.79215543047  C 187.420077513108 128.79215543047  188.305032882104 126.65063807846  188.305032882104 126.65063807846  C 189.58657936091 127.127413741245  192.467600728865 127.632001317693  193.454162084672 126.261271287185  C 193.876974094303 125.67324796975  193.958914406248 124.477335682264  194.368615965968 123.893285495352  C 194.860257837633 123.190041392744  195.555111682919 123.392671049428  196.072974454405 122.872190950887  C 197.164419409501 121.775606926481  196.777661137125 119.725471576505  196.56461632607 118.307063979719  C 196.56461632607 118.307063979719  193.418108347416 116.876736991363  193.418108347416 116.876736991363  C 193.739314370237 116.471477677996  194.198180117124 115.958943840502  194.388281640834 115.446410003008  C 195.076580261165 113.622743092854  193.185397861495 111.679882267005  192.654424640097 110.197904581847  C 192.175893218344 108.866905856572  191.72686030889 106.761146679271  190.271600368763 106.498920064739  C 188.767176241469 106.228747189161  188.137874645738 107.97295148885  187.125092390109 108.870878987095  C 186.24341463359 109.649612569644  185.397790614327 109.48274108767  184.371897908787 109.48274108767  C 184.371897908787 108.787443246108  184.437450158342 107.730590526934  184.171963547643 107.122701556883  C 183.837647074912 106.355887365903  183.26734250378 106.181069622882  183.057575305204 105.191760122603  C 182.929748418571 104.571951760982  183.090351429981 103.67799739326  182.811754369371 102.648956587748  C 182.585599108405 101.830491699967  181.995628862408 100.602794368295  181.995628862408 99.7883026110371  C 181.995628862408 98.7433692834329  182.66753942035 97.8613343072802  182.395497584695 96.6892608029333  C 182.103790074174 95.4218321660293  181.389270554022 94.9530027642905  180.678028646347 94.1464572680789  C 179.907789714072 93.2683954224495  179.711132965406 92.3227903579255  179.186714968964 91.9254773056045  C 178.754070121899 91.5996806027013  177.813395340781 91.6831163436887  177.295532569294 91.6831163436887  C 178.442696936512 89.9468583050459  179.537419504085 88.1351107864621  181.425324291277 89.7720405620247  C 181.425324291277 89.7720405620247  182.716703607516 88.7350534954669  182.716703607516 88.7350534954669  C 182.716703607516 88.7350534954669  184.961868154784 90.0104283934173  184.961868154784 90.0104283934173  C 185.263408502739 89.342942465518  185.499396601138 88.8939787163953  185.469898088838 88.1033257422765  C 185.499396601138 87.5669531216431  185.269963727694 86.7882195390939  185.469898088838 86.3233632678784  C 185.71571902467 85.5764147295149  187.272584951608 85.1473166330082  187.311916301342 83.5739569458171  C 187.338137201164 82.3979103109469  185.905820548381 81.2377561981696  186.059868334836 80.2444735673671  C 186.151641484213 79.6485039888855  187.134925227542 78.786334665349  187.511850662485 78.3214783941334  C 188.354197069271 77.2805181970524  188.626238904925 76.6249516607227  188.895003128102 75.230382847076  C 188.895003128102 75.230382847076  187.518405887441 74.7536071842908  187.518405887441 74.7536071842908  C 187.518405887441 74.7536071842908  187.056262528076 75.9137612970681  187.056262528076 75.9137612970681  C 186.767832630033 76.4342413956087  186.456459444645 76.7044142711869  185.945151898114 76.8236081868832  C 184.52922330772 77.1573511508329  184.647217356919 75.703185379338  183.188679804314 74.0622824732523  C 181.874357200731 72.5763316575717  180.956625706957 73.0610535814033  180.789467470591 70.462626219224  C 180.592810721925 67.3556381500738  182.542990146194 66.8828356178118  183.939253061722 64.9677867056245  C 184.712769606474 63.9029877254043  184.683271094175 63.2474211890746  185.15852490345 62.365386212922  C 185.696053349804 61.3641573210731  186.315522108101 61.1297426202037  186.908769966576 60.1682450335869  C 186.908769966576 60.1682450335869  189.245707663223 55.460085363583  189.245707663223 55.460085363583  C 189.743904759843 54.6892980420802  190.432203380173 54.137032899354  191.058227363426 53.5331170598261  C 191.284382624392 55.5474942350936  191.481039373058 56.4692605164783  192.828138101419 57.824098024893  C 192.828138101419 57.824098024893  192.828138101419 50.6724630831149  192.828138101419 50.6724630831149  C 192.828138101419 50.6724630831149  193.418108347416 44.4704063363841  193.418108347416 44.4704063363841  C 195.37812060912 44.7564717340552  195.499392270797 43.7989472779616  195.368287771686 41.6097523596729  C 195.368287771686 41.6097523596729  194.034299493236 33.7469270542402  194.034299493236 33.7469270542402  C 193.883529319259 32.1139704092009  194.299786103935 32.0146421461207  194.896311574888 30.6439121156132  C 194.896311574888 30.6439121156132  196.37451480236 26.3529311505464  196.37451480236 26.3529311505464  C 196.600670063325 25.4589767828242  196.230299853338 24.8272490296338  196.37451480236 23.9690528366204  C 196.485953626604 23.1903192540712  197.387297057989 21.6765565247282  196.757995462258 20.1508744038156  C 196.423678989526 19.3483020381272  193.929415893948 16.8492029390281  193.22145159875 16.1618513585127  C 192.860914226196 15.8161890029934  192.660979865053 15.6850756957275  192.238167855421 15.4784729085206  C 189.429253961977 14.0918503559203  189.838955521698 16.8531760695513  187.518405887441 18.6092997608101  C 186.797331142333 19.1575917730131  185.011032341951 20.083331184921  184.175241160121 20.1469012732924  C 183.32633952838 20.3018533636976  182.896972293793 19.8846746587605  182.21195128594 20.1469012732924  C 180.80585553298 20.5442143256134  180.914016744746 21.8275354846102  178.475473061289 21.8195892235638  C 178.108380463779 21.8195892235638  177.636404266981 21.8315086151334  177.295532569294 21.6765565247282  C 176.06970550261 21.1282645125252  175.637060655545 19.5549048253341  175.158529233792 18.2437717526748  C 174.673442587082 16.9087998968762  173.254236384211 13.8892206992366  173.306678183855 12.5224637992523  C 173.326343858721 11.986091178619  173.585275244465 11.3503902949054  173.755711093309 10.8537489795041  C 171.67114955745 11.1000830719432  172.388946690081 9.91211704550337  169.42926262266 8.94664632836334  C 169.035949125328 10.0551497443389  168.554140091097 11.8271659576906  167.275871224769 11.4894498632178  C 166.538408417272 11.2987395981037  166.367972568428 10.5517910597402  165.660008273231 9.98363339492115  C 164.896324565912 9.37971755539323  163.831100510638 9.09762528824532  162.942867529164 8.94664632836334  C 164.434181206547 7.11900628768673  165.610844086064 5.73238373508644  165.479739586954 2.98695054354832  C 165.417464949876 1.73938755926037  165.073315639711 0.360711267706499  163.926151272493 0.0428608258496963  C 163.349291476407 -0.116064395078705  162.883870504565 0.273302396195877  162.352897283167 0.452093269740327  C 161.612156863192 0.69445423165614  160.920580630384 0.551421532820576  160.22244917262 1.09971354502356  C 159.448932627868 1.70760251507469  157.99367268774 4.76293988742319  157.479087528731 5.84760452025953  Z " fill-rule="evenodd" />
    </mask>
  </defs>
  <g transform="matrix(1 0 0 1 -387 -2006 )">
    <path d="M 157.479087528731 5.84760452025953  C 156.331923161514 8.26326787837122  155.938609664182 6.95610793623512  156.256538074525 9.90019765393374  C 157.249654655288 9.74127243300534  159.511207264945 9.29230868388261  160.268335747309 10.2736719231155  C 160.740311944107 10.8855340236898  160.553488032874 12.6337114539022  160.599374607563 13.4760151248228  C 160.599374607563 13.4760151248228  160.759977618973 15.144729944571  160.759977618973 15.144729944571  C 160.877971668173 17.6835603489022  160.212616335187 17.945786963434  159.114616155136 19.6740987410304  C 159.114616155136 19.6740987410304  157.875678638541 22.0579770549564  157.875678638541 22.0579770549564  C 157.0562755191 23.8180738767384  156.9087829576 25.6735258310775  156.41058586098 27.5448703075094  C 155.948442501615 29.2811283461522  155.705899178261 28.9593047737722  155.204424469163 31.5974634411836  C 155.053654295186 32.3960626763489  154.955325920853 33.2224738251765  154.693116922632 33.9813417551097  C 154.08020338929 35.7533579684613  152.65771957394 37.5134547902433  154.879940833864 38.5107105515691  C 154.879940833864 38.5107105515691  154.175254151145 41.7726507111245  154.175254151145 41.7726507111245  C 154.175254151145 41.7726507111245  150.563325200649 44.0969320672023  150.563325200649 44.0969320672023  C 150.563325200649 44.0969320672023  149.114620485477 46.1192555035162  149.114620485477 46.1192555035162  C 149.114620485477 46.1192555035162  145.440416897903 49.7109654964981  145.440416897903 49.7109654964981  C 145.440416897903 49.7109654964981  143.280470275056 49.3176255747003  143.280470275056 49.3176255747003  C 143.280470275056 49.3176255747003  141.70721628573 49.1626734842951  141.70721628573 49.1626734842951  C 141.70721628573 49.1626734842951  137.774081312412 47.3350334436185  137.774081312412 47.3350334436185  C 137.774081312412 47.3350334436185  134.909448006846 59.9695885074263  134.909448006846 59.9695885074263  C 134.909448006846 59.9695885074263  133.195256680976 63.783793809708  133.195256680976 63.783793809708  C 133.195256680976 63.783793809708  133.532850766185 67.359611280597  133.532850766185 67.359611280597  C 133.532850766185 67.359611280597  132.267692349768 72.1313410389722  132.267692349768 72.1313410389722  C 132.85110737081 72.5048153081539  134.483358384737 73.8755453386614  135.020886831091 73.7960827281972  C 135.643633201866 73.7047007261634  136.220492997952 72.7074449648376  136.790797569083 72.2743737378077  C 137.459430514547 71.7618399003137  137.875687299223 71.9922814706598  138.560708307076 71.7260817256048  C 139.324392014395 71.428096936364  139.534159212972 70.9751600567181  140.527275793734 70.955294404102  C 142.798661240825 70.91556309887  143.283747887534 72.5961973101878  145.047103400571 73.5616680273278  C 145.450249735336 72.4332989587362  146.784238013786 69.3859078474341  147.472536634117 68.627039917501  C 147.993677018081 68.0549091221587  148.350936778158 68.1383448631462  148.980238373888 67.9992852948338  C 150.301116202427 67.7132198971626  151.172961121513 67.3556381500738  152.503671787485 68.1780761683782  C 153.477122693381 68.7819920079062  153.559063005325 69.8865222933585  155.07659758253 71.0029719703805  C 155.07659758253 71.0029719703805  157.633135315186 72.7908807058251  157.633135315186 72.7908807058251  C 157.633135315186 72.7908807058251  159.599702801845 74.6741445738266  159.599702801845 74.6741445738266  C 160.619040282429 75.5283676363168  160.917303017906 75.2780604133546  161.825201674247 76.6646829659548  C 163.08052725323 78.5757587476188  163.326348189063 80.4033987882955  163.926151272493 82.6204056202466  C 162.2742345837 83.1925364155889  161.802258386902 83.9911356507541  159.79635955051 84.0507326086022  C 158.003505525174 84.0984101748808  157.705242789697 83.6931508615133  156.649851571857 83.6256076426188  C 156.649851571857 83.6256076426188  153.306686844537 84.102383305404  153.306686844537 84.102383305404  C 151.615438806011 84.4122874862144  150.084793778895 86.4266646614818  149.570208619886 86.6809450149673  C 148.967127923977 86.9749566736848  148.573814426646 86.5140735329924  147.996954630559 86.4187184004354  C 147.515145596328 86.3432289204944  146.908787287941 86.5577779687478  146.423700641232 86.6729987539209  C 146.423700641232 86.6729987539209  146.423700641232 89.533652730632  146.423700641232 89.533652730632  C 145.597742296836 89.6170884716195  142.487288055437 90.0581059596958  141.936649159173 90.5229622309113  C 141.136911714599 91.198394419857  139.747204024027 94.3292212721466  139.471884575894 95.4973216459703  C 139.249006927406 96.4468998410175  139.462051738461 97.1143857689168  139.147400940596 97.8811999598963  C 138.695090418664 98.9698377232558  137.544648438969 99.8161145246996  136.790797569083 100.578955585156  C 136.095943723797 101.286172818287  135.102827143035 102.676768501411  134.430916585093 103.141624772626  C 133.985161288117 103.447555822914  131.523674317316 103.868707658374  130.891095109107 103.9759821825  C 129.911088978256 104.071337315057  129.471888906236 103.487287128146  128.731148486261 103.9759821825  C 127.85274834222 104.61962932726  127.184115396756 106.991588249617  126.51876006377 108.052414099314  C 124.791458287988 110.825659204515  124.5980791518 110.027059969349  123.224759523617 111.441494435612  C 122.733117651952 111.94608201206  122.005487681888 112.983069078618  121.454848785624 113.277080737335  C 121.061535288292 113.447925349833  119.986478395586 113.300919520474  119.488281298966 113.277080737335  C 118.662322954569 113.292973259428  115.591200062904 112.947310903909  114.965176079651 112.57780976525  C 113.899952024378 111.950055142583  113.346035515635 110.476023718472  111.032041106334 110.43629241324  C 110.301133523792 110.428346152194  109.521061754084 110.360802933299  108.888482545876 110.889229292886  C 108.269013787579 111.40176313038  107.967473439624 112.271878714963  107.639712191848 113.058558558559  C 106.820309072407 115.05307008121  105.620702905545 119.590385138716  106.58104336153 121.644493619215  C 107.390613643538 123.376778527335  108.845873583665 124.27470602558  109.353903517718 125.05343960813  C 109.796381202216 125.859985104341  109.930763313805 127.222768873802  109.353903517718 128.013421847921  C 109.353903517718 128.013421847921  107.289007656727 130.504574685974  107.289007656727 130.504574685974  C 106.154953739421 131.418394706312  104.729192311593 131.760083931308  103.621359294109 133.130813961816  C 102.274260565748 134.799528781564  101.395860421707 137.155595181827  100.56990207731 138.335614947221  C 100.009430343613 139.134214182386  97.6429941346667 141.637286412008  96.9415850644252 142.074330769561  C 96.1352923948952 142.574945215486  95.7321460601302 142.185578424211  94.7783608291008 142.757709219553  C 93.6443069117944 143.441087669546  92.6774112308539 144.664811870694  91.4351961017812 145.097883097724  C 90.7763959937507 145.32832466807  89.4260196529118 145.24091579656  88.6820016204592 145.248862057606  C 88.6820016204592 145.248862057606  86.125463887803 145.586578152079  86.125463887803 145.586578152079  C 86.125463887803 145.586578152079  84.3555531498104 145.34024405964  84.3555531498104 145.34024405964  C 84.3555531498104 145.34024405964  79.8357255429735 146.18254773056  79.8357255429735 146.18254773056  C 78.6230089262007 146.269956602071  77.8101610317152 145.757422764577  77.0825310616515 145.86072415818  C 77.0825310616515 145.86072415818  73.739366334332 147.418191323279  73.739366334332 147.418191323279  C 72.7790258783471 147.771799939844  72.277551169249 147.517519586359  71.5761420990075 147.751934287228  C 71.5761420990075 147.751934287228  68.0363206230222 149.95702172761  68.0363206230222 149.95702172761  C 68.0363206230222 149.95702172761  61.9432390268584 153.652033114195  61.9432390268584 153.652033114195  C 60.2814895006319 154.661208267091  58.7344564111272 155.710114725218  56.8301635615461 155.737926638881  C 56.8301635615461 155.737926638881  54.6669393262217 155.737926638881  54.6669393262217 155.737926638881  C 54.6669393262217 155.737926638881  54.6669393262217 153.115660493562  54.6669393262217 153.115660493562  C 54.6669393262217 153.115660493562  51.9137448448998 153.759307638322  51.9137448448998 153.759307638322  C 50.3175475682285 154.037426774947  47.7052904234504 153.703683810997  46.2106991335898 152.972627794726  C 46.2106991335898 152.972627794726  41.2975580294212 149.496138586918  41.2975580294212 149.496138586918  C 40.3175518985697 149.074986751457  38.4460351737663 149.504084847964  36.7810080350621 148.482990303499  C 35.5748466432449 147.747961156705  35.7649481669551 146.277902863117  34.5915628999156 145.280647101792  C 33.6934970810082 144.517806041335  32.307067002914 144.3747733425  31.2680638474626 143.925809593377  C 29.9209651191015 143.341759406465  29.4620993722144 142.75373608903  27.7282423714771 142.308745470431  C 26.8367317775253 142.078303900085  25.15859418891 142.137900857933  24.1884208954918 142.149820249502  C 24.1884208954918 142.149820249502  22.4217877699768 142.276960426245  22.4217877699768 142.276960426245  C 21.7465995995575 142.348476775663  21.4221159642587 142.114062074793  20.6518770319841 142.276960426245  C 19.1998947043346 142.43191251665  18.7934707570917 143.023908964608  16.9153988073327 142.841144960541  C 16.9153988073327 142.841144960541  15.1454880693401 142.43191251665  15.1454880693401 142.43191251665  C 15.1454880693401 142.43191251665  11.212353096023 142.038572594852  11.212353096023 142.038572594852  C 11.212353096023 142.038572594852  8.85247211203279 141.303543448059  8.85247211203279 141.303543448059  C 8.85247211203279 141.303543448059  6.49259112804253 140.981719875679  6.49259112804253 140.981719875679  C 6.49259112804253 140.981719875679  0.202852783212734 139.050778441399  0.202852783212734 139.050778441399  C 0.202852783212734 139.050778441399  2.89049501497956 148.586291697102  2.89049501497956 148.586291697102  C 2.89049501497956 148.586291697102  4.0114384823749 152.877272662169  4.0114384823749 152.877272662169  C 4.0114384823749 152.877272662169  2.98226816435701 157.168253627236  2.98226816435701 157.168253627236  C 2.98226816435701 157.168253627236  4.10976685670784 159.0793294089  4.10976685670784 159.0793294089  C 4.10976685670784 159.0793294089  6.38442991627619 162.416759048397  6.38442991627619 162.416759048397  C 6.38442991627619 162.416759048397  7.3709912720833 164.085473868145  7.3709912720833 164.085473868145  C 7.3709912720833 164.085473868145  6.68924787670835 167.899679170426  6.68924787670835 167.899679170426  C 6.68924787670835 167.899679170426  8.06584511736932 167.899679170426  8.06584511736932 167.899679170426  C 10.2028484528716 167.883786648334  9.82920063040646 166.989832280611  11.2221859334563 165.579370944872  C 12.1399174272303 164.649658402441  16.122216587714 163.390176026583  17.3087123046645 163.48553115914  C 17.7937989513737 163.525262464372  18.5935363959481 163.886817341984  19.0786230426573 164.085473868145  C 19.5571544644109 164.280157263782  20.2192321849192 164.502652573082  20.5928800073844 164.919831278019  C 21.3958950644366 165.813785645741  21.612217487969 167.728834557928  21.0943547164823 168.853230495997  C 21.0943547164823 168.853230495997  19.471936539989 171.948299173577  19.471936539989 171.948299173577  C 18.1313930365834 174.510968361048  16.7384077335335 173.259432246237  15.5388015666719 176.48164110056  C 16.135327037625 176.48164110056  16.9743958319326 176.406151620619  17.5053690533305 176.727975192999  C 18.1674467738388 177.129261375843  18.7311961200143 178.114597745599  19.471936539989 178.662889757802  C 20.0061873738646 179.064175940647  20.6649874818951 179.111853506925  21.1140203913489 179.683984302267  C 21.7039906373465 180.438879101677  21.4942234387695 181.173908248471  22.6249997435982 182.262546011831  C 22.6249997435982 182.262546011831  25.8239495218962 184.519284149014  25.8239495218962 184.519284149014  C 26.3614779682495 185.29404460104  25.5486300737639 186.45817184434  26.0533823953396 187.689842306535  C 26.604021291604 189.040706684427  28.6230305779068 190.391571062318  29.6948098581357 191.285525430041  C 31.3073951971958 192.620497285839  33.0871387726217 193.446908434667  34.5981181248711 191.500074478294  C 34.9291569851252 191.07494951231  35.2143092706908 190.685582721036  35.2339749455574 190.073720620461  C 35.2536406204239 189.497616694596  34.8111629359258 188.242107449262  34.6112285747821 187.689842306535  C 34.6112285747821 187.689842306535  36.184482564109 186.855484896661  36.184482564109 186.855484896661  C 36.8006737099287 186.676694023117  39.0818919944526 186.672720892594  39.7243040400944 186.855484896661  C 40.5535399969688 187.022356378636  41.9235820126742 187.952068921067  42.6741552700822 187.801089961185  C 43.775433062611 187.578594651886  44.873433242662 185.723142697546  45.8173856362581 185.031817986508  C 45.8173856362581 185.031817986508  50.3404908555729 183.398861341469  50.3404908555729 183.398861341469  C 50.5338699917609 184.392143972271  50.8288551147597 185.349668428365  51.2254462245692 186.25951531818  C 51.5105985101347 186.915081854509  51.9891299318883 187.618325957118  51.8449149828667 188.405005800713  C 51.7465866085337 188.925485899254  51.0877865005031 189.99823114052  50.8354103397152 190.550496283247  C 50.284771443451 191.754354831779  50.0553385700074 193.049595382346  49.3145981500326 194.126313754136  C 48.6492428170466 195.095757601799  46.8531111792316 196.800230596256  46.682675330388 197.940519056417  C 46.5909021810105 198.5881393317  46.8301678918873 199.4781205689  46.9973261282533 200.086009538951  C 45.6567826248478 200.797199902605  45.3683527268045 200.904474426732  45.5977856002479 202.708275684269  C 45.6502273998922 203.141346911299  45.679725912192 203.610176313038  45.9648781977576 203.928026754895  C 46.3745797574781 204.384936765064  47.0071589656866 204.170387716811  47.7282337107947 204.929255646744  C 48.3378696316589 205.572902791504  48.8295115033235 206.653594293817  49.5735295357759 207.285322047007  C 50.1208908195625 207.750178318223  52.2644493800204 208.958009997279  52.897028588229 208.906359300477  C 53.4902764467043 208.854708603675  53.8803123315582 208.338201635658  54.8635960748875 208.219007719962  C 55.9845395422829 208.083921282172  57.1218710720672 208.123652587405  58.2067608022071 207.638930663573  C 58.2067608022071 207.638930663573  60.3699850375315 206.315878199344  60.3699850375315 206.315878199344  C 61.9825703765915 205.557010269411  63.7754244019285 206.196684283648  64.3785050978372 204.357124851401  C 64.5423857217254 203.864456666523  64.4932215345589 202.799657686303  64.4964991470367 202.231500021484  C 64.5259976593365 199.581421962503  65.2798485292223 200.23301536831  65.2831261417002 196.986967730847  C 65.2896813666557 193.693242527106  65.7649351759316 190.240592102436  67.6856160879013 187.709707959152  C 69.1474312529842 185.782739655395  71.6941361482071 183.458458299317  73.0969542886901 186.736290980965  C 73.2411692377118 187.066060814392  73.4312707614221 187.562702129793  73.4869901735441 187.928230137928  C 73.5984289977881 188.726829373093  73.113342351079 190.01015053209  72.8707990277244 190.788884114639  C 71.8285182597955 194.10644810152  72.0350078458945 192.513222761712  71.458148049808 196.271804236669  C 71.3630972879529 196.867773815151  71.1074435146872 198.019981666881  71.3008226508754 198.564300548561  C 71.8973481218283 200.276719804065  74.3850559924515 199.557583179364  75.7059338209905 200.276719804065  C 76.6957727892753 200.821038685745  77.0726982242181 201.703073661897  78.0658148049807 202.37453272032  C 78.0658148049807 202.37453272032  81.7924601921987 204.003516234836  81.7924601921987 204.003516234836  C 82.7560782606614 204.599485813317  82.8839051472942 205.644419140922  83.4476544934697 206.033785932196  C 83.9687948774343 206.391367679285  85.2667294186289 205.886780102837  85.9288071391373 205.787451839757  C 85.9288071391373 205.787451839757  87.4594521662532 205.787451839757  87.4594521662532 205.787451839757  C 88.2854105106498 205.441789484238  88.2231358735723 203.777047795013  88.5705627962152 202.958582907232  C 88.9638762935471 202.0288703648  89.6783958136996 201.774590011315  90.451912358452 201.516336527306  C 90.2716436721749 200.578677723829  89.86849733741 199.617180137212  89.9045510746653 198.655682550595  C 89.9733809366984 196.812149987826  91.035327379494 195.397715521563  91.7891782493798 193.887925922743  C 92.2709872836111 192.91848207508  92.7757396051869 191.627214655036  93.4378173256952 190.868346725103  C 94.1097278836369 190.097559403601  94.6538115549457 189.986311748951  95.5322116989865 188.869862071929  C 95.5322116989865 188.869862071929  97.9969762822653 185.544351824002  97.9969762822653 185.544351824002  C 98.3673464922526 184.912624070812  98.9343734509059 184.050454747275  99.4719018972593 183.629302911815  C 99.8652153945909 183.327344992051  101.035323049153 183.12868846589  101.59579478285 182.922085678683  C 101.59579478285 182.922085678683  102.57907852618 184.829188329824  102.57907852618 184.829188329824  C 102.57907852618 184.829188329824  106.115622389687 180.772622065627  106.115622389687 180.772622065627  C 106.115622389687 180.772622065627  106.705592635685 182.922085678683  106.705592635685 182.922085678683  C 107.295562881682 182.715482891476  107.878977902725 182.492987582177  108.265736175101 181.873179220556  C 108.606607872788 181.328860338876  108.704936247121 180.482583537433  109.163801994008 180.02170039674  C 109.888154351594 179.298590641516  111.877665125597 179.342295077271  112.801951844327 179.342295077271  C 113.034662330248 177.268320944156  113.595134063945 175.770450736905  114.260489396932 173.859374955241  C 114.67346856913 172.679355189848  114.925844729918 171.797320213695  115.94845982298 171.197377504691  C 117.321779451163 170.438509574758  117.698704886106 171.539066729687  118.48533188077 171.197377504691  C 118.891755828012 170.99872097853  119.330955900033 170.26766496226  119.70132611002 169.906110084647  C 120.124138119652 169.492904510234  121.317189061558 168.821445451811  121.848162282956 168.65854710036  C 122.952717687962 168.32480413641  123.657404370682 169.202865982039  124.401422403134 169.063806413727  C 124.945506074443 168.964478150647  125.361762859119 168.380427963735  125.778019643795 167.99106117246  C 126.748192937213 167.097106804738  128.128067790352 166.624304272476  128.531214125117 165.897221386729  C 128.695094749005 165.599236597488  128.757369386083 165.150272848365  128.806533573249 164.800637362323  C 129.160515720848 162.2975651327  127.57415128161 161.77708503416  126.92846162349 159.794492903078  C 126.649864562881 158.924377318495  126.761303387124 155.233339062433  126.761303387124 154.069211819132  C 126.761303387124 154.069211819132  128.531214125117 153.83082398774  128.531214125117 153.83082398774  C 128.531214125117 151.510515762185  128.862252985371 149.333240235466  130.032360639933 147.398325670663  C 130.546945798942 146.552048869219  131.346683243517 145.534927455277  132.264414737291 146.111031381143  C 133.818003051751 147.088421489852  133.24769848062 148.737270656985  134.008104575461 150.251033386327  C 134.712791258181 151.649575330497  135.4174779409 151.546273936894  136.594140820417 151.923721336599  C 137.456152902069 150.326522866269  139.511215925627 147.136099056131  141.117246039732 146.718920351194  C 141.913705871829 146.512317563987  142.670834354192 147.306943668629  143.477127023722 147.151991578224  C 144.68328841554 146.917576877354  144.332583880419 145.975944943354  146.817014138564 145.964025551784  C 147.07266791183 144.434370300348  148.206721829136 140.413562210859  149.058901073355 139.380548274825  C 149.452214570687 138.899799481516  150.242119177828 138.45878199344  150.750149111881 138.041603288503  C 151.625271643444 137.326439794325  152.543003137218 136.297398988814  153.700000341869 136.599356908578  C 155.699343953305 137.123810137642  155.568239454195 139.456037754766  156.528579910179 140.572487431788  C 157.288986005021 141.454522407941  158.318156323039 141.609474498346  159.009732555847 142.872930004726  C 160.271613359786 145.189265099758  159.045786293102 146.027595640155  159.121171380091 147.632740371532  C 159.157225117347 148.423393345651  159.937296887054 149.841800942437  160.448604433586 150.322549735745  C 161.536771776204 151.339671149687  162.467613719889 150.660265830218  163.532837775162 150.632453916556  C 165.063482802278 150.596695741847  167.216874200169 151.828366204042  167.983835519966 148.824679528495  C 168.278820642964 147.664525415718  167.403698111401 146.973200704679  167.151321950614 145.725637720391  C 167.151321950614 145.725637720391  167.052993576281 141.673044586717  167.052993576281 141.673044586717  C 166.98088610177 140.62413812859  166.630181566649 139.527554104184  166.282754644006 138.574002778613  C 166.282754644006 138.574002778613  167.856008633333 137.143675790258  167.856008633333 137.143675790258  C 169.016283450462 138.168743465246  169.779967157781 138.577975909136  170.76325090111 140.004329766969  C 171.936636168149 141.704829630903  171.140176336053 142.002814420144  173.165740847311 143.580147237858  C 173.867149917553 141.939244331772  174.230964902584 140.437400993999  175.345353145024 139.070644094015  C 175.869771141467 138.430970079778  177.629849042026 136.809932826308  178.278816312623 136.360969077185  C 178.278816312623 136.360969077185  179.989730026016 135.304116358011  179.989730026016 135.304116358011  C 181.415491453844 133.945305719074  181.556428790387 132.038203067933  183.785205275267 132.610333863275  C 183.785205275267 132.610333863275  185.751772761926 129.586781535112  185.751772761926 129.586781535112  C 185.751772761926 129.586781535112  187.420077513108 128.79215543047  187.420077513108 128.79215543047  C 187.420077513108 128.79215543047  188.305032882104 126.65063807846  188.305032882104 126.65063807846  C 189.58657936091 127.127413741245  192.467600728865 127.632001317693  193.454162084672 126.261271287185  C 193.876974094303 125.67324796975  193.958914406248 124.477335682264  194.368615965968 123.893285495352  C 194.860257837633 123.190041392744  195.555111682919 123.392671049428  196.072974454405 122.872190950887  C 197.164419409501 121.775606926481  196.777661137125 119.725471576505  196.56461632607 118.307063979719  C 196.56461632607 118.307063979719  193.418108347416 116.876736991363  193.418108347416 116.876736991363  C 193.739314370237 116.471477677996  194.198180117124 115.958943840502  194.388281640834 115.446410003008  C 195.076580261165 113.622743092854  193.185397861495 111.679882267005  192.654424640097 110.197904581847  C 192.175893218344 108.866905856572  191.72686030889 106.761146679271  190.271600368763 106.498920064739  C 188.767176241469 106.228747189161  188.137874645738 107.97295148885  187.125092390109 108.870878987095  C 186.24341463359 109.649612569644  185.397790614327 109.48274108767  184.371897908787 109.48274108767  C 184.371897908787 108.787443246108  184.437450158342 107.730590526934  184.171963547643 107.122701556883  C 183.837647074912 106.355887365903  183.26734250378 106.181069622882  183.057575305204 105.191760122603  C 182.929748418571 104.571951760982  183.090351429981 103.67799739326  182.811754369371 102.648956587748  C 182.585599108405 101.830491699967  181.995628862408 100.602794368295  181.995628862408 99.7883026110371  C 181.995628862408 98.7433692834329  182.66753942035 97.8613343072802  182.395497584695 96.6892608029333  C 182.103790074174 95.4218321660293  181.389270554022 94.9530027642905  180.678028646347 94.1464572680789  C 179.907789714072 93.2683954224495  179.711132965406 92.3227903579255  179.186714968964 91.9254773056045  C 178.754070121899 91.5996806027013  177.813395340781 91.6831163436887  177.295532569294 91.6831163436887  C 178.442696936512 89.9468583050459  179.537419504085 88.1351107864621  181.425324291277 89.7720405620247  C 181.425324291277 89.7720405620247  182.716703607516 88.7350534954669  182.716703607516 88.7350534954669  C 182.716703607516 88.7350534954669  184.961868154784 90.0104283934173  184.961868154784 90.0104283934173  C 185.263408502739 89.342942465518  185.499396601138 88.8939787163953  185.469898088838 88.1033257422765  C 185.499396601138 87.5669531216431  185.269963727694 86.7882195390939  185.469898088838 86.3233632678784  C 185.71571902467 85.5764147295149  187.272584951608 85.1473166330082  187.311916301342 83.5739569458171  C 187.338137201164 82.3979103109469  185.905820548381 81.2377561981696  186.059868334836 80.2444735673671  C 186.151641484213 79.6485039888855  187.134925227542 78.786334665349  187.511850662485 78.3214783941334  C 188.354197069271 77.2805181970524  188.626238904925 76.6249516607227  188.895003128102 75.230382847076  C 188.895003128102 75.230382847076  187.518405887441 74.7536071842908  187.518405887441 74.7536071842908  C 187.518405887441 74.7536071842908  187.056262528076 75.9137612970681  187.056262528076 75.9137612970681  C 186.767832630033 76.4342413956087  186.456459444645 76.7044142711869  185.945151898114 76.8236081868832  C 184.52922330772 77.1573511508329  184.647217356919 75.703185379338  183.188679804314 74.0622824732523  C 181.874357200731 72.5763316575717  180.956625706957 73.0610535814033  180.789467470591 70.462626219224  C 180.592810721925 67.3556381500738  182.542990146194 66.8828356178118  183.939253061722 64.9677867056245  C 184.712769606474 63.9029877254043  184.683271094175 63.2474211890746  185.15852490345 62.365386212922  C 185.696053349804 61.3641573210731  186.315522108101 61.1297426202037  186.908769966576 60.1682450335869  C 186.908769966576 60.1682450335869  189.245707663223 55.460085363583  189.245707663223 55.460085363583  C 189.743904759843 54.6892980420802  190.432203380173 54.137032899354  191.058227363426 53.5331170598261  C 191.284382624392 55.5474942350936  191.481039373058 56.4692605164783  192.828138101419 57.824098024893  C 192.828138101419 57.824098024893  192.828138101419 50.6724630831149  192.828138101419 50.6724630831149  C 192.828138101419 50.6724630831149  193.418108347416 44.4704063363841  193.418108347416 44.4704063363841  C 195.37812060912 44.7564717340552  195.499392270797 43.7989472779616  195.368287771686 41.6097523596729  C 195.368287771686 41.6097523596729  194.034299493236 33.7469270542402  194.034299493236 33.7469270542402  C 193.883529319259 32.1139704092009  194.299786103935 32.0146421461207  194.896311574888 30.6439121156132  C 194.896311574888 30.6439121156132  196.37451480236 26.3529311505464  196.37451480236 26.3529311505464  C 196.600670063325 25.4589767828242  196.230299853338 24.8272490296338  196.37451480236 23.9690528366204  C 196.485953626604 23.1903192540712  197.387297057989 21.6765565247282  196.757995462258 20.1508744038156  C 196.423678989526 19.3483020381272  193.929415893948 16.8492029390281  193.22145159875 16.1618513585127  C 192.860914226196 15.8161890029934  192.660979865053 15.6850756957275  192.238167855421 15.4784729085206  C 189.429253961977 14.0918503559203  189.838955521698 16.8531760695513  187.518405887441 18.6092997608101  C 186.797331142333 19.1575917730131  185.011032341951 20.083331184921  184.175241160121 20.1469012732924  C 183.32633952838 20.3018533636976  182.896972293793 19.8846746587605  182.21195128594 20.1469012732924  C 180.80585553298 20.5442143256134  180.914016744746 21.8275354846102  178.475473061289 21.8195892235638  C 178.108380463779 21.8195892235638  177.636404266981 21.8315086151334  177.295532569294 21.6765565247282  C 176.06970550261 21.1282645125252  175.637060655545 19.5549048253341  175.158529233792 18.2437717526748  C 174.673442587082 16.9087998968762  173.254236384211 13.8892206992366  173.306678183855 12.5224637992523  C 173.326343858721 11.986091178619  173.585275244465 11.3503902949054  173.755711093309 10.8537489795041  C 171.67114955745 11.1000830719432  172.388946690081 9.91211704550337  169.42926262266 8.94664632836334  C 169.035949125328 10.0551497443389  168.554140091097 11.8271659576906  167.275871224769 11.4894498632178  C 166.538408417272 11.2987395981037  166.367972568428 10.5517910597402  165.660008273231 9.98363339492115  C 164.896324565912 9.37971755539323  163.831100510638 9.09762528824532  162.942867529164 8.94664632836334  C 164.434181206547 7.11900628768673  165.610844086064 5.73238373508644  165.479739586954 2.98695054354832  C 165.417464949876 1.73938755926037  165.073315639711 0.360711267706499  163.926151272493 0.0428608258496963  C 163.349291476407 -0.116064395078705  162.883870504565 0.273302396195877  162.352897283167 0.452093269740327  C 161.612156863192 0.69445423165614  160.920580630384 0.551421532820576  160.22244917262 1.09971354502356  C 159.448932627868 1.70760251507469  157.99367268774 4.76293988742319  157.479087528731 5.84760452025953  Z " fill-rule="nonzero" fill="#1c8dff" stroke="none" transform="matrix(1 0 0 1 387 2006 )" />
    <path d="M 157.479087528731 5.84760452025953  C 156.331923161514 8.26326787837122  155.938609664182 6.95610793623512  156.256538074525 9.90019765393374  C 157.249654655288 9.74127243300534  159.511207264945 9.29230868388261  160.268335747309 10.2736719231155  C 160.740311944107 10.8855340236898  160.553488032874 12.6337114539022  160.599374607563 13.4760151248228  C 160.599374607563 13.4760151248228  160.759977618973 15.144729944571  160.759977618973 15.144729944571  C 160.877971668173 17.6835603489022  160.212616335187 17.945786963434  159.114616155136 19.6740987410304  C 159.114616155136 19.6740987410304  157.875678638541 22.0579770549564  157.875678638541 22.0579770549564  C 157.0562755191 23.8180738767384  156.9087829576 25.6735258310775  156.41058586098 27.5448703075094  C 155.948442501615 29.2811283461522  155.705899178261 28.9593047737722  155.204424469163 31.5974634411836  C 155.053654295186 32.3960626763489  154.955325920853 33.2224738251765  154.693116922632 33.9813417551097  C 154.08020338929 35.7533579684613  152.65771957394 37.5134547902433  154.879940833864 38.5107105515691  C 154.879940833864 38.5107105515691  154.175254151145 41.7726507111245  154.175254151145 41.7726507111245  C 154.175254151145 41.7726507111245  150.563325200649 44.0969320672023  150.563325200649 44.0969320672023  C 150.563325200649 44.0969320672023  149.114620485477 46.1192555035162  149.114620485477 46.1192555035162  C 149.114620485477 46.1192555035162  145.440416897903 49.7109654964981  145.440416897903 49.7109654964981  C 145.440416897903 49.7109654964981  143.280470275056 49.3176255747003  143.280470275056 49.3176255747003  C 143.280470275056 49.3176255747003  141.70721628573 49.1626734842951  141.70721628573 49.1626734842951  C 141.70721628573 49.1626734842951  137.774081312412 47.3350334436185  137.774081312412 47.3350334436185  C 137.774081312412 47.3350334436185  134.909448006846 59.9695885074263  134.909448006846 59.9695885074263  C 134.909448006846 59.9695885074263  133.195256680976 63.783793809708  133.195256680976 63.783793809708  C 133.195256680976 63.783793809708  133.532850766185 67.359611280597  133.532850766185 67.359611280597  C 133.532850766185 67.359611280597  132.267692349768 72.1313410389722  132.267692349768 72.1313410389722  C 132.85110737081 72.5048153081539  134.483358384737 73.8755453386614  135.020886831091 73.7960827281972  C 135.643633201866 73.7047007261634  136.220492997952 72.7074449648376  136.790797569083 72.2743737378077  C 137.459430514547 71.7618399003137  137.875687299223 71.9922814706598  138.560708307076 71.7260817256048  C 139.324392014395 71.428096936364  139.534159212972 70.9751600567181  140.527275793734 70.955294404102  C 142.798661240825 70.91556309887  143.283747887534 72.5961973101878  145.047103400571 73.5616680273278  C 145.450249735336 72.4332989587362  146.784238013786 69.3859078474341  147.472536634117 68.627039917501  C 147.993677018081 68.0549091221587  148.350936778158 68.1383448631462  148.980238373888 67.9992852948338  C 150.301116202427 67.7132198971626  151.172961121513 67.3556381500738  152.503671787485 68.1780761683782  C 153.477122693381 68.7819920079062  153.559063005325 69.8865222933585  155.07659758253 71.0029719703805  C 155.07659758253 71.0029719703805  157.633135315186 72.7908807058251  157.633135315186 72.7908807058251  C 157.633135315186 72.7908807058251  159.599702801845 74.6741445738266  159.599702801845 74.6741445738266  C 160.619040282429 75.5283676363168  160.917303017906 75.2780604133546  161.825201674247 76.6646829659548  C 163.08052725323 78.5757587476188  163.326348189063 80.4033987882955  163.926151272493 82.6204056202466  C 162.2742345837 83.1925364155889  161.802258386902 83.9911356507541  159.79635955051 84.0507326086022  C 158.003505525174 84.0984101748808  157.705242789697 83.6931508615133  156.649851571857 83.6256076426188  C 156.649851571857 83.6256076426188  153.306686844537 84.102383305404  153.306686844537 84.102383305404  C 151.615438806011 84.4122874862144  150.084793778895 86.4266646614818  149.570208619886 86.6809450149673  C 148.967127923977 86.9749566736848  148.573814426646 86.5140735329924  147.996954630559 86.4187184004354  C 147.515145596328 86.3432289204944  146.908787287941 86.5577779687478  146.423700641232 86.6729987539209  C 146.423700641232 86.6729987539209  146.423700641232 89.533652730632  146.423700641232 89.533652730632  C 145.597742296836 89.6170884716195  142.487288055437 90.0581059596958  141.936649159173 90.5229622309113  C 141.136911714599 91.198394419857  139.747204024027 94.3292212721466  139.471884575894 95.4973216459703  C 139.249006927406 96.4468998410175  139.462051738461 97.1143857689168  139.147400940596 97.8811999598963  C 138.695090418664 98.9698377232558  137.544648438969 99.8161145246996  136.790797569083 100.578955585156  C 136.095943723797 101.286172818287  135.102827143035 102.676768501411  134.430916585093 103.141624772626  C 133.985161288117 103.447555822914  131.523674317316 103.868707658374  130.891095109107 103.9759821825  C 129.911088978256 104.071337315057  129.471888906236 103.487287128146  128.731148486261 103.9759821825  C 127.85274834222 104.61962932726  127.184115396756 106.991588249617  126.51876006377 108.052414099314  C 124.791458287988 110.825659204515  124.5980791518 110.027059969349  123.224759523617 111.441494435612  C 122.733117651952 111.94608201206  122.005487681888 112.983069078618  121.454848785624 113.277080737335  C 121.061535288292 113.447925349833  119.986478395586 113.300919520474  119.488281298966 113.277080737335  C 118.662322954569 113.292973259428  115.591200062904 112.947310903909  114.965176079651 112.57780976525  C 113.899952024378 111.950055142583  113.346035515635 110.476023718472  111.032041106334 110.43629241324  C 110.301133523792 110.428346152194  109.521061754084 110.360802933299  108.888482545876 110.889229292886  C 108.269013787579 111.40176313038  107.967473439624 112.271878714963  107.639712191848 113.058558558559  C 106.820309072407 115.05307008121  105.620702905545 119.590385138716  106.58104336153 121.644493619215  C 107.390613643538 123.376778527335  108.845873583665 124.27470602558  109.353903517718 125.05343960813  C 109.796381202216 125.859985104341  109.930763313805 127.222768873802  109.353903517718 128.013421847921  C 109.353903517718 128.013421847921  107.289007656727 130.504574685974  107.289007656727 130.504574685974  C 106.154953739421 131.418394706312  104.729192311593 131.760083931308  103.621359294109 133.130813961816  C 102.274260565748 134.799528781564  101.395860421707 137.155595181827  100.56990207731 138.335614947221  C 100.009430343613 139.134214182386  97.6429941346667 141.637286412008  96.9415850644252 142.074330769561  C 96.1352923948952 142.574945215486  95.7321460601302 142.185578424211  94.7783608291008 142.757709219553  C 93.6443069117944 143.441087669546  92.6774112308539 144.664811870694  91.4351961017812 145.097883097724  C 90.7763959937507 145.32832466807  89.4260196529118 145.24091579656  88.6820016204592 145.248862057606  C 88.6820016204592 145.248862057606  86.125463887803 145.586578152079  86.125463887803 145.586578152079  C 86.125463887803 145.586578152079  84.3555531498104 145.34024405964  84.3555531498104 145.34024405964  C 84.3555531498104 145.34024405964  79.8357255429735 146.18254773056  79.8357255429735 146.18254773056  C 78.6230089262007 146.269956602071  77.8101610317152 145.757422764577  77.0825310616515 145.86072415818  C 77.0825310616515 145.86072415818  73.739366334332 147.418191323279  73.739366334332 147.418191323279  C 72.7790258783471 147.771799939844  72.277551169249 147.517519586359  71.5761420990075 147.751934287228  C 71.5761420990075 147.751934287228  68.0363206230222 149.95702172761  68.0363206230222 149.95702172761  C 68.0363206230222 149.95702172761  61.9432390268584 153.652033114195  61.9432390268584 153.652033114195  C 60.2814895006319 154.661208267091  58.7344564111272 155.710114725218  56.8301635615461 155.737926638881  C 56.8301635615461 155.737926638881  54.6669393262217 155.737926638881  54.6669393262217 155.737926638881  C 54.6669393262217 155.737926638881  54.6669393262217 153.115660493562  54.6669393262217 153.115660493562  C 54.6669393262217 153.115660493562  51.9137448448998 153.759307638322  51.9137448448998 153.759307638322  C 50.3175475682285 154.037426774947  47.7052904234504 153.703683810997  46.2106991335898 152.972627794726  C 46.2106991335898 152.972627794726  41.2975580294212 149.496138586918  41.2975580294212 149.496138586918  C 40.3175518985697 149.074986751457  38.4460351737663 149.504084847964  36.7810080350621 148.482990303499  C 35.5748466432449 147.747961156705  35.7649481669551 146.277902863117  34.5915628999156 145.280647101792  C 33.6934970810082 144.517806041335  32.307067002914 144.3747733425  31.2680638474626 143.925809593377  C 29.9209651191015 143.341759406465  29.4620993722144 142.75373608903  27.7282423714771 142.308745470431  C 26.8367317775253 142.078303900085  25.15859418891 142.137900857933  24.1884208954918 142.149820249502  C 24.1884208954918 142.149820249502  22.4217877699768 142.276960426245  22.4217877699768 142.276960426245  C 21.7465995995575 142.348476775663  21.4221159642587 142.114062074793  20.6518770319841 142.276960426245  C 19.1998947043346 142.43191251665  18.7934707570917 143.023908964608  16.9153988073327 142.841144960541  C 16.9153988073327 142.841144960541  15.1454880693401 142.43191251665  15.1454880693401 142.43191251665  C 15.1454880693401 142.43191251665  11.212353096023 142.038572594852  11.212353096023 142.038572594852  C 11.212353096023 142.038572594852  8.85247211203279 141.303543448059  8.85247211203279 141.303543448059  C 8.85247211203279 141.303543448059  6.49259112804253 140.981719875679  6.49259112804253 140.981719875679  C 6.49259112804253 140.981719875679  0.202852783212734 139.050778441399  0.202852783212734 139.050778441399  C 0.202852783212734 139.050778441399  2.89049501497956 148.586291697102  2.89049501497956 148.586291697102  C 2.89049501497956 148.586291697102  4.0114384823749 152.877272662169  4.0114384823749 152.877272662169  C 4.0114384823749 152.877272662169  2.98226816435701 157.168253627236  2.98226816435701 157.168253627236  C 2.98226816435701 157.168253627236  4.10976685670784 159.0793294089  4.10976685670784 159.0793294089  C 4.10976685670784 159.0793294089  6.38442991627619 162.416759048397  6.38442991627619 162.416759048397  C 6.38442991627619 162.416759048397  7.3709912720833 164.085473868145  7.3709912720833 164.085473868145  C 7.3709912720833 164.085473868145  6.68924787670835 167.899679170426  6.68924787670835 167.899679170426  C 6.68924787670835 167.899679170426  8.06584511736932 167.899679170426  8.06584511736932 167.899679170426  C 10.2028484528716 167.883786648334  9.82920063040646 166.989832280611  11.2221859334563 165.579370944872  C 12.1399174272303 164.649658402441  16.122216587714 163.390176026583  17.3087123046645 163.48553115914  C 17.7937989513737 163.525262464372  18.5935363959481 163.886817341984  19.0786230426573 164.085473868145  C 19.5571544644109 164.280157263782  20.2192321849192 164.502652573082  20.5928800073844 164.919831278019  C 21.3958950644366 165.813785645741  21.612217487969 167.728834557928  21.0943547164823 168.853230495997  C 21.0943547164823 168.853230495997  19.471936539989 171.948299173577  19.471936539989 171.948299173577  C 18.1313930365834 174.510968361048  16.7384077335335 173.259432246237  15.5388015666719 176.48164110056  C 16.135327037625 176.48164110056  16.9743958319326 176.406151620619  17.5053690533305 176.727975192999  C 18.1674467738388 177.129261375843  18.7311961200143 178.114597745599  19.471936539989 178.662889757802  C 20.0061873738646 179.064175940647  20.6649874818951 179.111853506925  21.1140203913489 179.683984302267  C 21.7039906373465 180.438879101677  21.4942234387695 181.173908248471  22.6249997435982 182.262546011831  C 22.6249997435982 182.262546011831  25.8239495218962 184.519284149014  25.8239495218962 184.519284149014  C 26.3614779682495 185.29404460104  25.5486300737639 186.45817184434  26.0533823953396 187.689842306535  C 26.604021291604 189.040706684427  28.6230305779068 190.391571062318  29.6948098581357 191.285525430041  C 31.3073951971958 192.620497285839  33.0871387726217 193.446908434667  34.5981181248711 191.500074478294  C 34.9291569851252 191.07494951231  35.2143092706908 190.685582721036  35.2339749455574 190.073720620461  C 35.2536406204239 189.497616694596  34.8111629359258 188.242107449262  34.6112285747821 187.689842306535  C 34.6112285747821 187.689842306535  36.184482564109 186.855484896661  36.184482564109 186.855484896661  C 36.8006737099287 186.676694023117  39.0818919944526 186.672720892594  39.7243040400944 186.855484896661  C 40.5535399969688 187.022356378636  41.9235820126742 187.952068921067  42.6741552700822 187.801089961185  C 43.775433062611 187.578594651886  44.873433242662 185.723142697546  45.8173856362581 185.031817986508  C 45.8173856362581 185.031817986508  50.3404908555729 183.398861341469  50.3404908555729 183.398861341469  C 50.5338699917609 184.392143972271  50.8288551147597 185.349668428365  51.2254462245692 186.25951531818  C 51.5105985101347 186.915081854509  51.9891299318883 187.618325957118  51.8449149828667 188.405005800713  C 51.7465866085337 188.925485899254  51.0877865005031 189.99823114052  50.8354103397152 190.550496283247  C 50.284771443451 191.754354831779  50.0553385700074 193.049595382346  49.3145981500326 194.126313754136  C 48.6492428170466 195.095757601799  46.8531111792316 196.800230596256  46.682675330388 197.940519056417  C 46.5909021810105 198.5881393317  46.8301678918873 199.4781205689  46.9973261282533 200.086009538951  C 45.6567826248478 200.797199902605  45.3683527268045 200.904474426732  45.5977856002479 202.708275684269  C 45.6502273998922 203.141346911299  45.679725912192 203.610176313038  45.9648781977576 203.928026754895  C 46.3745797574781 204.384936765064  47.0071589656866 204.170387716811  47.7282337107947 204.929255646744  C 48.3378696316589 205.572902791504  48.8295115033235 206.653594293817  49.5735295357759 207.285322047007  C 50.1208908195625 207.750178318223  52.2644493800204 208.958009997279  52.897028588229 208.906359300477  C 53.4902764467043 208.854708603675  53.8803123315582 208.338201635658  54.8635960748875 208.219007719962  C 55.9845395422829 208.083921282172  57.1218710720672 208.123652587405  58.2067608022071 207.638930663573  C 58.2067608022071 207.638930663573  60.3699850375315 206.315878199344  60.3699850375315 206.315878199344  C 61.9825703765915 205.557010269411  63.7754244019285 206.196684283648  64.3785050978372 204.357124851401  C 64.5423857217254 203.864456666523  64.4932215345589 202.799657686303  64.4964991470367 202.231500021484  C 64.5259976593365 199.581421962503  65.2798485292223 200.23301536831  65.2831261417002 196.986967730847  C 65.2896813666557 193.693242527106  65.7649351759316 190.240592102436  67.6856160879013 187.709707959152  C 69.1474312529842 185.782739655395  71.6941361482071 183.458458299317  73.0969542886901 186.736290980965  C 73.2411692377118 187.066060814392  73.4312707614221 187.562702129793  73.4869901735441 187.928230137928  C 73.5984289977881 188.726829373093  73.113342351079 190.01015053209  72.8707990277244 190.788884114639  C 71.8285182597955 194.10644810152  72.0350078458945 192.513222761712  71.458148049808 196.271804236669  C 71.3630972879529 196.867773815151  71.1074435146872 198.019981666881  71.3008226508754 198.564300548561  C 71.8973481218283 200.276719804065  74.3850559924515 199.557583179364  75.7059338209905 200.276719804065  C 76.6957727892753 200.821038685745  77.0726982242181 201.703073661897  78.0658148049807 202.37453272032  C 78.0658148049807 202.37453272032  81.7924601921987 204.003516234836  81.7924601921987 204.003516234836  C 82.7560782606614 204.599485813317  82.8839051472942 205.644419140922  83.4476544934697 206.033785932196  C 83.9687948774343 206.391367679285  85.2667294186289 205.886780102837  85.9288071391373 205.787451839757  C 85.9288071391373 205.787451839757  87.4594521662532 205.787451839757  87.4594521662532 205.787451839757  C 88.2854105106498 205.441789484238  88.2231358735723 203.777047795013  88.5705627962152 202.958582907232  C 88.9638762935471 202.0288703648  89.6783958136996 201.774590011315  90.451912358452 201.516336527306  C 90.2716436721749 200.578677723829  89.86849733741 199.617180137212  89.9045510746653 198.655682550595  C 89.9733809366984 196.812149987826  91.035327379494 195.397715521563  91.7891782493798 193.887925922743  C 92.2709872836111 192.91848207508  92.7757396051869 191.627214655036  93.4378173256952 190.868346725103  C 94.1097278836369 190.097559403601  94.6538115549457 189.986311748951  95.5322116989865 188.869862071929  C 95.5322116989865 188.869862071929  97.9969762822653 185.544351824002  97.9969762822653 185.544351824002  C 98.3673464922526 184.912624070812  98.9343734509059 184.050454747275  99.4719018972593 183.629302911815  C 99.8652153945909 183.327344992051  101.035323049153 183.12868846589  101.59579478285 182.922085678683  C 101.59579478285 182.922085678683  102.57907852618 184.829188329824  102.57907852618 184.829188329824  C 102.57907852618 184.829188329824  106.115622389687 180.772622065627  106.115622389687 180.772622065627  C 106.115622389687 180.772622065627  106.705592635685 182.922085678683  106.705592635685 182.922085678683  C 107.295562881682 182.715482891476  107.878977902725 182.492987582177  108.265736175101 181.873179220556  C 108.606607872788 181.328860338876  108.704936247121 180.482583537433  109.163801994008 180.02170039674  C 109.888154351594 179.298590641516  111.877665125597 179.342295077271  112.801951844327 179.342295077271  C 113.034662330248 177.268320944156  113.595134063945 175.770450736905  114.260489396932 173.859374955241  C 114.67346856913 172.679355189848  114.925844729918 171.797320213695  115.94845982298 171.197377504691  C 117.321779451163 170.438509574758  117.698704886106 171.539066729687  118.48533188077 171.197377504691  C 118.891755828012 170.99872097853  119.330955900033 170.26766496226  119.70132611002 169.906110084647  C 120.124138119652 169.492904510234  121.317189061558 168.821445451811  121.848162282956 168.65854710036  C 122.952717687962 168.32480413641  123.657404370682 169.202865982039  124.401422403134 169.063806413727  C 124.945506074443 168.964478150647  125.361762859119 168.380427963735  125.778019643795 167.99106117246  C 126.748192937213 167.097106804738  128.128067790352 166.624304272476  128.531214125117 165.897221386729  C 128.695094749005 165.599236597488  128.757369386083 165.150272848365  128.806533573249 164.800637362323  C 129.160515720848 162.2975651327  127.57415128161 161.77708503416  126.92846162349 159.794492903078  C 126.649864562881 158.924377318495  126.761303387124 155.233339062433  126.761303387124 154.069211819132  C 126.761303387124 154.069211819132  128.531214125117 153.83082398774  128.531214125117 153.83082398774  C 128.531214125117 151.510515762185  128.862252985371 149.333240235466  130.032360639933 147.398325670663  C 130.546945798942 146.552048869219  131.346683243517 145.534927455277  132.264414737291 146.111031381143  C 133.818003051751 147.088421489852  133.24769848062 148.737270656985  134.008104575461 150.251033386327  C 134.712791258181 151.649575330497  135.4174779409 151.546273936894  136.594140820417 151.923721336599  C 137.456152902069 150.326522866269  139.511215925627 147.136099056131  141.117246039732 146.718920351194  C 141.913705871829 146.512317563987  142.670834354192 147.306943668629  143.477127023722 147.151991578224  C 144.68328841554 146.917576877354  144.332583880419 145.975944943354  146.817014138564 145.964025551784  C 147.07266791183 144.434370300348  148.206721829136 140.413562210859  149.058901073355 139.380548274825  C 149.452214570687 138.899799481516  150.242119177828 138.45878199344  150.750149111881 138.041603288503  C 151.625271643444 137.326439794325  152.543003137218 136.297398988814  153.700000341869 136.599356908578  C 155.699343953305 137.123810137642  155.568239454195 139.456037754766  156.528579910179 140.572487431788  C 157.288986005021 141.454522407941  158.318156323039 141.609474498346  159.009732555847 142.872930004726  C 160.271613359786 145.189265099758  159.045786293102 146.027595640155  159.121171380091 147.632740371532  C 159.157225117347 148.423393345651  159.937296887054 149.841800942437  160.448604433586 150.322549735745  C 161.536771776204 151.339671149687  162.467613719889 150.660265830218  163.532837775162 150.632453916556  C 165.063482802278 150.596695741847  167.216874200169 151.828366204042  167.983835519966 148.824679528495  C 168.278820642964 147.664525415718  167.403698111401 146.973200704679  167.151321950614 145.725637720391  C 167.151321950614 145.725637720391  167.052993576281 141.673044586717  167.052993576281 141.673044586717  C 166.98088610177 140.62413812859  166.630181566649 139.527554104184  166.282754644006 138.574002778613  C 166.282754644006 138.574002778613  167.856008633333 137.143675790258  167.856008633333 137.143675790258  C 169.016283450462 138.168743465246  169.779967157781 138.577975909136  170.76325090111 140.004329766969  C 171.936636168149 141.704829630903  171.140176336053 142.002814420144  173.165740847311 143.580147237858  C 173.867149917553 141.939244331772  174.230964902584 140.437400993999  175.345353145024 139.070644094015  C 175.869771141467 138.430970079778  177.629849042026 136.809932826308  178.278816312623 136.360969077185  C 178.278816312623 136.360969077185  179.989730026016 135.304116358011  179.989730026016 135.304116358011  C 181.415491453844 133.945305719074  181.556428790387 132.038203067933  183.785205275267 132.610333863275  C 183.785205275267 132.610333863275  185.751772761926 129.586781535112  185.751772761926 129.586781535112  C 185.751772761926 129.586781535112  187.420077513108 128.79215543047  187.420077513108 128.79215543047  C 187.420077513108 128.79215543047  188.305032882104 126.65063807846  188.305032882104 126.65063807846  C 189.58657936091 127.127413741245  192.467600728865 127.632001317693  193.454162084672 126.261271287185  C 193.876974094303 125.67324796975  193.958914406248 124.477335682264  194.368615965968 123.893285495352  C 194.860257837633 123.190041392744  195.555111682919 123.392671049428  196.072974454405 122.872190950887  C 197.164419409501 121.775606926481  196.777661137125 119.725471576505  196.56461632607 118.307063979719  C 196.56461632607 118.307063979719  193.418108347416 116.876736991363  193.418108347416 116.876736991363  C 193.739314370237 116.471477677996  194.198180117124 115.958943840502  194.388281640834 115.446410003008  C 195.076580261165 113.622743092854  193.185397861495 111.679882267005  192.654424640097 110.197904581847  C 192.175893218344 108.866905856572  191.72686030889 106.761146679271  190.271600368763 106.498920064739  C 188.767176241469 106.228747189161  188.137874645738 107.97295148885  187.125092390109 108.870878987095  C 186.24341463359 109.649612569644  185.397790614327 109.48274108767  184.371897908787 109.48274108767  C 184.371897908787 108.787443246108  184.437450158342 107.730590526934  184.171963547643 107.122701556883  C 183.837647074912 106.355887365903  183.26734250378 106.181069622882  183.057575305204 105.191760122603  C 182.929748418571 104.571951760982  183.090351429981 103.67799739326  182.811754369371 102.648956587748  C 182.585599108405 101.830491699967  181.995628862408 100.602794368295  181.995628862408 99.7883026110371  C 181.995628862408 98.7433692834329  182.66753942035 97.8613343072802  182.395497584695 96.6892608029333  C 182.103790074174 95.4218321660293  181.389270554022 94.9530027642905  180.678028646347 94.1464572680789  C 179.907789714072 93.2683954224495  179.711132965406 92.3227903579255  179.186714968964 91.9254773056045  C 178.754070121899 91.5996806027013  177.813395340781 91.6831163436887  177.295532569294 91.6831163436887  C 178.442696936512 89.9468583050459  179.537419504085 88.1351107864621  181.425324291277 89.7720405620247  C 181.425324291277 89.7720405620247  182.716703607516 88.7350534954669  182.716703607516 88.7350534954669  C 182.716703607516 88.7350534954669  184.961868154784 90.0104283934173  184.961868154784 90.0104283934173  C 185.263408502739 89.342942465518  185.499396601138 88.8939787163953  185.469898088838 88.1033257422765  C 185.499396601138 87.5669531216431  185.269963727694 86.7882195390939  185.469898088838 86.3233632678784  C 185.71571902467 85.5764147295149  187.272584951608 85.1473166330082  187.311916301342 83.5739569458171  C 187.338137201164 82.3979103109469  185.905820548381 81.2377561981696  186.059868334836 80.2444735673671  C 186.151641484213 79.6485039888855  187.134925227542 78.786334665349  187.511850662485 78.3214783941334  C 188.354197069271 77.2805181970524  188.626238904925 76.6249516607227  188.895003128102 75.230382847076  C 188.895003128102 75.230382847076  187.518405887441 74.7536071842908  187.518405887441 74.7536071842908  C 187.518405887441 74.7536071842908  187.056262528076 75.9137612970681  187.056262528076 75.9137612970681  C 186.767832630033 76.4342413956087  186.456459444645 76.7044142711869  185.945151898114 76.8236081868832  C 184.52922330772 77.1573511508329  184.647217356919 75.703185379338  183.188679804314 74.0622824732523  C 181.874357200731 72.5763316575717  180.956625706957 73.0610535814033  180.789467470591 70.462626219224  C 180.592810721925 67.3556381500738  182.542990146194 66.8828356178118  183.939253061722 64.9677867056245  C 184.712769606474 63.9029877254043  184.683271094175 63.2474211890746  185.15852490345 62.365386212922  C 185.696053349804 61.3641573210731  186.315522108101 61.1297426202037  186.908769966576 60.1682450335869  C 186.908769966576 60.1682450335869  189.245707663223 55.460085363583  189.245707663223 55.460085363583  C 189.743904759843 54.6892980420802  190.432203380173 54.137032899354  191.058227363426 53.5331170598261  C 191.284382624392 55.5474942350936  191.481039373058 56.4692605164783  192.828138101419 57.824098024893  C 192.828138101419 57.824098024893  192.828138101419 50.6724630831149  192.828138101419 50.6724630831149  C 192.828138101419 50.6724630831149  193.418108347416 44.4704063363841  193.418108347416 44.4704063363841  C 195.37812060912 44.7564717340552  195.499392270797 43.7989472779616  195.368287771686 41.6097523596729  C 195.368287771686 41.6097523596729  194.034299493236 33.7469270542402  194.034299493236 33.7469270542402  C 193.883529319259 32.1139704092009  194.299786103935 32.0146421461207  194.896311574888 30.6439121156132  C 194.896311574888 30.6439121156132  196.37451480236 26.3529311505464  196.37451480236 26.3529311505464  C 196.600670063325 25.4589767828242  196.230299853338 24.8272490296338  196.37451480236 23.9690528366204  C 196.485953626604 23.1903192540712  197.387297057989 21.6765565247282  196.757995462258 20.1508744038156  C 196.423678989526 19.3483020381272  193.929415893948 16.8492029390281  193.22145159875 16.1618513585127  C 192.860914226196 15.8161890029934  192.660979865053 15.6850756957275  192.238167855421 15.4784729085206  C 189.429253961977 14.0918503559203  189.838955521698 16.8531760695513  187.518405887441 18.6092997608101  C 186.797331142333 19.1575917730131  185.011032341951 20.083331184921  184.175241160121 20.1469012732924  C 183.32633952838 20.3018533636976  182.896972293793 19.8846746587605  182.21195128594 20.1469012732924  C 180.80585553298 20.5442143256134  180.914016744746 21.8275354846102  178.475473061289 21.8195892235638  C 178.108380463779 21.8195892235638  177.636404266981 21.8315086151334  177.295532569294 21.6765565247282  C 176.06970550261 21.1282645125252  175.637060655545 19.5549048253341  175.158529233792 18.2437717526748  C 174.673442587082 16.9087998968762  173.254236384211 13.8892206992366  173.306678183855 12.5224637992523  C 173.326343858721 11.986091178619  173.585275244465 11.3503902949054  173.755711093309 10.8537489795041  C 171.67114955745 11.1000830719432  172.388946690081 9.91211704550337  169.42926262266 8.94664632836334  C 169.035949125328 10.0551497443389  168.554140091097 11.8271659576906  167.275871224769 11.4894498632178  C 166.538408417272 11.2987395981037  166.367972568428 10.5517910597402  165.660008273231 9.98363339492115  C 164.896324565912 9.37971755539323  163.831100510638 9.09762528824532  162.942867529164 8.94664632836334  C 164.434181206547 7.11900628768673  165.610844086064 5.73238373508644  165.479739586954 2.98695054354832  C 165.417464949876 1.73938755926037  165.073315639711 0.360711267706499  163.926151272493 0.0428608258496963  C 163.349291476407 -0.116064395078705  162.883870504565 0.273302396195877  162.352897283167 0.452093269740327  C 161.612156863192 0.69445423165614  160.920580630384 0.551421532820576  160.22244917262 1.09971354502356  C 159.448932627868 1.70760251507469  157.99367268774 4.76293988742319  157.479087528731 5.84760452025953  Z " stroke-width="2.13294375456538" stroke="#ffffff" fill="none" transform="matrix(1 0 0 1 387 2006 )" mask="url(#clip28)" />
  </g>
</svg>