<?xml version="1.0" encoding="utf-8"?>
<svg version="1.1" xmlns:xlink="http://www.w3.org/1999/xlink" width="14px" height="20px" xmlns="http://www.w3.org/2000/svg">
  <defs>
    <mask fill="white" id="clip59">
      <path d="M 0.340170647933746 13.3944622848244  C -0.0505664951897984 14.356299185468  0.0542654212579805 17.2297366208635  0.0542654212579805 18.4129167413206  C 0.0542654212579805 18.4129167413206  3.10392117246636 19.0769464007607  3.10392117246636 19.0769464007607  C 3.10392117246636 19.0769464007607  5.00677929223059 19.0769464007607  5.00677929223059 19.0769464007607  C 5.73107253314265 19.2258500213625  6.58243476368835 20.0508565679397  7.23048661082021 19.7932935485204  C 7.78641344046747 19.5719503287071  8.28515922477959 18.5054784514244  8.77437483486938 18.0064501012997  C 9.64797413860083 17.1130283776892  10.3849742784762 17.7448626597021  10.5596941392225 16.6904640489546  C 10.6899398535971 15.9217994128754  9.90846556734982 14.0021500337666  9.708331908677 13.1006794657993  C 9.708331908677 13.1006794657993  12.7579876598853 10.7745634466695  12.7579876598853 10.7745634466695  C 13.0629532350061 10.4888294720014  13.5458153956141 9.56321237096353  13.647470587321 9.0843061317309  C 13.8317206222899 8.20698209683422  12.9517678690767 7.94137023305811  12.764341109367 6.89904488884596  C 12.5165565795813 5.52671692600293  13.345681736941 4.30731700594012  13.9016085665884 3.2810893504417  C 12.6595091929192 3.2810893504417  10.9980821534587 3.5386523698609  9.89893539312737 2.78206100031701  C 7.8944220816561 1.40973303747398  8.45034891130354 0.101795829485752  7.22413316133839 0.258748294444388  C 5.54046904869216 0.472042669900873  5.75966305581028 2.10998249651999  4.76534821192672 3.40987086015133  C 4.18718430909337 4.16243780751682  2.69730040563854 5.24500737351326  2.34468395940507 6.00964758741404  C 2.03971838428424 6.66965282467578  2.15408047495458 8.93942693330757  2.15090375021373 9.80065327949058  C 2.14455030073202 10.3962677618975  2.19220117184454 11.498959438786  1.8459381750929 11.9657924114834  C 1.43614068352417 12.5251870942845  0.705493993130631 12.4929917168571  0.340170647933746 13.3944622848244  Z " fill-rule="evenodd" />
    </mask>
  </defs>
  <g transform="matrix(1 0 0 1 -526 -2164 )">
    <path d="M 0.340170647933746 13.3944622848244  C -0.0505664951897984 14.356299185468  0.0542654212579805 17.2297366208635  0.0542654212579805 18.4129167413206  C 0.0542654212579805 18.4129167413206  3.10392117246636 19.0769464007607  3.10392117246636 19.0769464007607  C 3.10392117246636 19.0769464007607  5.00677929223059 19.0769464007607  5.00677929223059 19.0769464007607  C 5.73107253314265 19.2258500213625  6.58243476368835 20.0508565679397  7.23048661082021 19.7932935485204  C 7.78641344046747 19.5719503287071  8.28515922477959 18.5054784514244  8.77437483486938 18.0064501012997  C 9.64797413860083 17.1130283776892  10.3849742784762 17.7448626597021  10.5596941392225 16.6904640489546  C 10.6899398535971 15.9217994128754  9.90846556734982 14.0021500337666  9.708331908677 13.1006794657993  C 9.708331908677 13.1006794657993  12.7579876598853 10.7745634466695  12.7579876598853 10.7745634466695  C 13.0629532350061 10.4888294720014  13.5458153956141 9.56321237096353  13.647470587321 9.0843061317309  C 13.8317206222899 8.20698209683422  12.9517678690767 7.94137023305811  12.764341109367 6.89904488884596  C 12.5165565795813 5.52671692600293  13.345681736941 4.30731700594012  13.9016085665884 3.2810893504417  C 12.6595091929192 3.2810893504417  10.9980821534587 3.5386523698609  9.89893539312737 2.78206100031701  C 7.8944220816561 1.40973303747398  8.45034891130354 0.101795829485752  7.22413316133839 0.258748294444388  C 5.54046904869216 0.472042669900873  5.75966305581028 2.10998249651999  4.76534821192672 3.40987086015133  C 4.18718430909337 4.16243780751682  2.69730040563854 5.24500737351326  2.34468395940507 6.00964758741404  C 2.03971838428424 6.66965282467578  2.15408047495458 8.93942693330757  2.15090375021373 9.80065327949058  C 2.14455030073202 10.3962677618975  2.19220117184454 11.498959438786  1.8459381750929 11.9657924114834  C 1.43614068352417 12.5251870942845  0.705493993130631 12.4929917168571  0.340170647933746 13.3944622848244  Z " fill-rule="nonzero" fill="#324d95" stroke="none" transform="matrix(1 0 0 1 526 2164 )" />
    <path d="M 0.340170647933746 13.3944622848244  C -0.0505664951897984 14.356299185468  0.0542654212579805 17.2297366208635  0.0542654212579805 18.4129167413206  C 0.0542654212579805 18.4129167413206  3.10392117246636 19.0769464007607  3.10392117246636 19.0769464007607  C 3.10392117246636 19.0769464007607  5.00677929223059 19.0769464007607  5.00677929223059 19.0769464007607  C 5.73107253314265 19.2258500213625  6.58243476368835 20.0508565679397  7.23048661082021 19.7932935485204  C 7.78641344046747 19.5719503287071  8.28515922477959 18.5054784514244  8.77437483486938 18.0064501012997  C 9.64797413860083 17.1130283776892  10.3849742784762 17.7448626597021  10.5596941392225 16.6904640489546  C 10.6899398535971 15.9217994128754  9.90846556734982 14.0021500337666  9.708331908677 13.1006794657993  C 9.708331908677 13.1006794657993  12.7579876598853 10.7745634466695  12.7579876598853 10.7745634466695  C 13.0629532350061 10.4888294720014  13.5458153956141 9.56321237096353  13.647470587321 9.0843061317309  C 13.8317206222899 8.20698209683422  12.9517678690767 7.94137023305811  12.764341109367 6.89904488884596  C 12.5165565795813 5.52671692600293  13.345681736941 4.30731700594012  13.9016085665884 3.2810893504417  C 12.6595091929192 3.2810893504417  10.9980821534587 3.5386523698609  9.89893539312737 2.78206100031701  C 7.8944220816561 1.40973303747398  8.45034891130354 0.101795829485752  7.22413316133839 0.258748294444388  C 5.54046904869216 0.472042669900873  5.75966305581028 2.10998249651999  4.76534821192672 3.40987086015133  C 4.18718430909337 4.16243780751682  2.69730040563854 5.24500737351326  2.34468395940507 6.00964758741404  C 2.03971838428424 6.66965282467578  2.15408047495458 8.93942693330757  2.15090375021373 9.80065327949058  C 2.14455030073202 10.3962677618975  2.19220117184454 11.498959438786  1.8459381750929 11.9657924114834  C 1.43614068352417 12.5251870942845  0.705493993130631 12.4929917168571  0.340170647933746 13.3944622848244  Z " stroke-width="2.13294375456538" stroke="#ffffff" fill="none" transform="matrix(1 0 0 1 526 2164 )" mask="url(#clip59)" />
  </g>
</svg>