<?xml version="1.0" encoding="utf-8"?>
<svg version="1.1" xmlns:xlink="http://www.w3.org/1999/xlink" width="15px" height="42px" xmlns="http://www.w3.org/2000/svg">
  <defs>
    <mask fill="white" id="clip4">
      <path d="M 13.2862509503436 1.68608699586929  C 12.7736915072822 1.10736084086955  11.1543954323877 0.528634685869804  10.4459533996213 0.33044079717115  C 10.0672470595251 1.12321635196543  9.85504092067782 1.69401475141723  9.25106960242096 2.28463253973888  C 8.27165665389595 3.23992708326608  6.58380167260469 3.79090609384792  5.88188905949522 5.12673290367627  C 5.06571160239122 6.68453686884686  5.68600646979019 8.07982184528458  5.21915296432672 9.09061067764719  C 4.83065249474504 9.93491664350302  4.03406329661152 10.1093272655579  3.42682726852604 11.5125399975436  C 3.42682726852604 11.5125399975436  2.39844367257496 15.555695326994  2.39844367257496 15.555695326994  C 1.84997242140099 17.331512569733  0.230676346506357 21.7710556765806  0.171911569594897 23.3248957639773  C 0.126205631997038 24.5378423628124  0.628970945573144 25.2077377066135  0.71385340111209 26.0797908168872  C 0.792206436994036 26.8646386161334  0.446147195181879 27.5583172265784  0.602853266945829 28.5572144256191  C 0.602853266945829 28.5572144256191  1.5822662154709 31.4112064228783  1.5822662154709 31.4112064228783  C 2.0164726226501 33.0205407991104  1.91526661796922 34.0630406536649  2.86529717803847 35.668411152123  C 3.65535695651516 37.0002740841775  5.37259432626223 37.5750363614031  6.3781249534145 38.6413194826014  C 7.60892055872745 39.9414713924638  7.09636111566607 40.3735340698267  9.63957007200236 41.8798076239357  C 9.65589362114457 39.5054448373271  9.0258046242601 38.3361008940057  9.63957007200236 35.9300270852052  C 10.1684530642059 33.7023277762336  10.5896006320716 33.4288202098295  11.4351604776315 31.6490390893164  C 11.7518373309879 30.9791437455153  12.7998091859095 27.8556080596262  12.9173387397324 27.1302184269895  C 12.9173387397324 27.1302184269895  13.0250741640702 24.7518917626069  13.0250741640702 24.7518917626069  C 13.1654566866922 23.0632798308952  13.3809275353677 22.682747564594  13.3841922451961 20.5501813221976  C 13.3907216648529 15.8926249377815  13.2764568208582 17.2839460364453  13.9555164651689 12.6977394519609  C 13.9555164651689 12.6977394519609  14.7847527615867 8.41675145607212  14.7847527615867 8.41675145607212  C 14.7716939222731 7.46145691254509  14.2885168676675 6.83516422425765  14.1873108629865 5.56275945881299  C 14.0861048583056 4.27053530449837  14.1546637647024 2.66516480604014  13.2862509503436 1.68608699586929  Z " fill-rule="evenodd" />
    </mask>
  </defs>
  <g transform="matrix(1 0 0 1 -588 -2351 )">
    <path d="M 13.2862509503436 1.68608699586929  C 12.7736915072822 1.10736084086955  11.1543954323877 0.528634685869804  10.4459533996213 0.33044079717115  C 10.0672470595251 1.12321635196543  9.85504092067782 1.69401475141723  9.25106960242096 2.28463253973888  C 8.27165665389595 3.23992708326608  6.58380167260469 3.79090609384792  5.88188905949522 5.12673290367627  C 5.06571160239122 6.68453686884686  5.68600646979019 8.07982184528458  5.21915296432672 9.09061067764719  C 4.83065249474504 9.93491664350302  4.03406329661152 10.1093272655579  3.42682726852604 11.5125399975436  C 3.42682726852604 11.5125399975436  2.39844367257496 15.555695326994  2.39844367257496 15.555695326994  C 1.84997242140099 17.331512569733  0.230676346506357 21.7710556765806  0.171911569594897 23.3248957639773  C 0.126205631997038 24.5378423628124  0.628970945573144 25.2077377066135  0.71385340111209 26.0797908168872  C 0.792206436994036 26.8646386161334  0.446147195181879 27.5583172265784  0.602853266945829 28.5572144256191  C 0.602853266945829 28.5572144256191  1.5822662154709 31.4112064228783  1.5822662154709 31.4112064228783  C 2.0164726226501 33.0205407991104  1.91526661796922 34.0630406536649  2.86529717803847 35.668411152123  C 3.65535695651516 37.0002740841775  5.37259432626223 37.5750363614031  6.3781249534145 38.6413194826014  C 7.60892055872745 39.9414713924638  7.09636111566607 40.3735340698267  9.63957007200236 41.8798076239357  C 9.65589362114457 39.5054448373271  9.0258046242601 38.3361008940057  9.63957007200236 35.9300270852052  C 10.1684530642059 33.7023277762336  10.5896006320716 33.4288202098295  11.4351604776315 31.6490390893164  C 11.7518373309879 30.9791437455153  12.7998091859095 27.8556080596262  12.9173387397324 27.1302184269895  C 12.9173387397324 27.1302184269895  13.0250741640702 24.7518917626069  13.0250741640702 24.7518917626069  C 13.1654566866922 23.0632798308952  13.3809275353677 22.682747564594  13.3841922451961 20.5501813221976  C 13.3907216648529 15.8926249377815  13.2764568208582 17.2839460364453  13.9555164651689 12.6977394519609  C 13.9555164651689 12.6977394519609  14.7847527615867 8.41675145607212  14.7847527615867 8.41675145607212  C 14.7716939222731 7.46145691254509  14.2885168676675 6.83516422425765  14.1873108629865 5.56275945881299  C 14.0861048583056 4.27053530449837  14.1546637647024 2.66516480604014  13.2862509503436 1.68608699586929  Z " fill-rule="nonzero" fill="#1c8dff" stroke="none" transform="matrix(1 0 0 1 588 2351 )" />
    <path d="M 13.2862509503436 1.68608699586929  C 12.7736915072822 1.10736084086955  11.1543954323877 0.528634685869804  10.4459533996213 0.33044079717115  C 10.0672470595251 1.12321635196543  9.85504092067782 1.69401475141723  9.25106960242096 2.28463253973888  C 8.27165665389595 3.23992708326608  6.58380167260469 3.79090609384792  5.88188905949522 5.12673290367627  C 5.06571160239122 6.68453686884686  5.68600646979019 8.07982184528458  5.21915296432672 9.09061067764719  C 4.83065249474504 9.93491664350302  4.03406329661152 10.1093272655579  3.42682726852604 11.5125399975436  C 3.42682726852604 11.5125399975436  2.39844367257496 15.555695326994  2.39844367257496 15.555695326994  C 1.84997242140099 17.331512569733  0.230676346506357 21.7710556765806  0.171911569594897 23.3248957639773  C 0.126205631997038 24.5378423628124  0.628970945573144 25.2077377066135  0.71385340111209 26.0797908168872  C 0.792206436994036 26.8646386161334  0.446147195181879 27.5583172265784  0.602853266945829 28.5572144256191  C 0.602853266945829 28.5572144256191  1.5822662154709 31.4112064228783  1.5822662154709 31.4112064228783  C 2.0164726226501 33.0205407991104  1.91526661796922 34.0630406536649  2.86529717803847 35.668411152123  C 3.65535695651516 37.0002740841775  5.37259432626223 37.5750363614031  6.3781249534145 38.6413194826014  C 7.60892055872745 39.9414713924638  7.09636111566607 40.3735340698267  9.63957007200236 41.8798076239357  C 9.65589362114457 39.5054448373271  9.0258046242601 38.3361008940057  9.63957007200236 35.9300270852052  C 10.1684530642059 33.7023277762336  10.5896006320716 33.4288202098295  11.4351604776315 31.6490390893164  C 11.7518373309879 30.9791437455153  12.7998091859095 27.8556080596262  12.9173387397324 27.1302184269895  C 12.9173387397324 27.1302184269895  13.0250741640702 24.7518917626069  13.0250741640702 24.7518917626069  C 13.1654566866922 23.0632798308952  13.3809275353677 22.682747564594  13.3841922451961 20.5501813221976  C 13.3907216648529 15.8926249377815  13.2764568208582 17.2839460364453  13.9555164651689 12.6977394519609  C 13.9555164651689 12.6977394519609  14.7847527615867 8.41675145607212  14.7847527615867 8.41675145607212  C 14.7716939222731 7.46145691254509  14.2885168676675 6.83516422425765  14.1873108629865 5.56275945881299  C 14.0861048583056 4.27053530449837  14.1546637647024 2.66516480604014  13.2862509503436 1.68608699586929  Z " stroke-width="2.13294375456538" stroke="#ffffff" fill="none" transform="matrix(1 0 0 1 588 2351 )" mask="url(#clip4)" />
  </g>
</svg>