<?xml version="1.0" encoding="utf-8"?>
<svg version="1.1" xmlns:xlink="http://www.w3.org/1999/xlink" width="75px" height="64px" xmlns="http://www.w3.org/2000/svg">
  <defs>
    <mask fill="white" id="clip31">
      <path d="M 9.27189418589904 2.99215519730917  C 8.85213614329086 3.53183957055737  8.29025529885473 3.86517403638709  7.76142626879721 4.23025464181968  C 8.29356048029268 6.63502471673434  8.06880814251826 6.13105475053933  7.56311538252561 8.27788744118094  C 5.68246714438357 7.41677340445412  5.36516972634911 5.84533949411383  3.99682461107523 8.03979139415974  C 3.68283237447855 7.76598094008526  3.38206086363329 7.45248781150731  3.00527017971734 7.31359845074491  C 1.7856582291472 6.87312076375558  0.546215189949748 8.32550665058523  0.0306068856437491 9.4723359437376  C 2.12939709868454 9.50408208334039  1.67989242313564 10.2183702244041  2.86975774076512 11.829486809248  C 3.57045620559131 12.781870997333  4.54217954832205 13.4088572544889  4.87930805498382 14.7104489782051  C 5.19991065445612 15.9525166901659  4.41658265368335 16.8810912735488  4.50582255250566 18.0437936365026  C 4.55870545551124 18.742208707765  5.18338474726676 20.1390388502897  5.39491635928977 20.9009462007576  C 5.67585678150789 21.9168226680483  5.51390289105274 22.4485705063958  5.64280496712922 23.0239692866972  C 5.85103139771434 23.9366708002786  6.43935369365323 24.0954014982928  6.76656665600143 24.781911767204  C 7.02767598959235 25.3255644079026  6.96818272371087 26.2303293865833  6.96818272371087 26.8533473762889  C 7.96965269938244 26.8533473762889  8.88518795766953 27.0200146092038  9.72800922432367 26.2422341889344  C 10.6567652083622 25.3811201522075  11.1062698839112 23.7898449046155  12.520887539315 23.9366708002786  C 14.4411979547114 24.1390524402467  14.9501958961419 27.5676355173527  15.7599653484174 28.9962117994802  C 16.3053202856642 29.9684373248169  17.0853431049991 31.2343146414799  17.1283104636912 32.4922554232422  C 17.158057096632 33.3732107972208  16.5961762521959 34.0676576010328  16.2887943784749 34.8732158934547  C 18.3148705998827 36.1708393497205  18.618947292166 36.758142932373  20.453322990178 34.6351198464335  C 20.7375685938339 35.3851223945504  21.1639369993178 36.3295700477347  21.8580251012683 36.6232218390609  C 22.3769385870122 36.8494130837311  22.8429691697505 36.512110350451  23.3519671111808 36.9406832350893  C 23.7948614238539 37.3137003754225  24.2741127323436 38.5756094246352  24.6079360575674 39.1549764723869  C 25.1235443618736 40.0597414510677  25.6490682104932 40.4883143357059  26.4026495783252 41.0637131160073  C 26.4026495783252 41.0637131160073  26.994277055702 38.4446565987735  26.994277055702 38.4446565987735  C 29.1657812603759 39.1906908794401  28.8980615639092 40.2145038816314  30.2036082318638 42.0160973040923  C 32.1437497358874 44.690709565631  31.5058497183804 44.2224540064892  32.9204673737843 46.5399221974961  C 33.3336150535168 47.2145276640563  34.3813575693181 48.7224692951909  34.5895839999034 49.3970747617511  C 34.8903555107486 50.4288242988432  34.4243249280104 51.3375575449742  34.5895839999034 52.2542273260061  C 34.7449275274828 53.059785618428  35.3233342791082 53.64312093363  35.6769886929592 54.4010600166477  C 35.6769886929592 54.4010600166477  36.222343630206 55.8058266940731  36.222343630206 55.8058266940731  C 36.6553223985656 56.7224964751049  37.7691685431243 57.1986885691474  38.3277442061225 57.9923420592182  C 39.7357514986508 59.984412319296  39.9968608322416 61.3812424618207  40.0166919208688 63.9249018974977  C 42.551766083707 62.5995005690794  42.4129484633169 61.4328299386753  43.2722956371604 58.6867888630302  C 43.2722956371604 58.6867888630302  44.9777692590961 53.2066115140911  44.9777692590961 53.2066115140911  C 44.9777692590961 53.2066115140911  46.362640281559 50.1113629028148  46.362640281559 50.1113629028148  C 49.1753496851776 51.1034297654034  48.4217683173458 51.7899400343146  49.9289310530096 52.5240695126301  C 50.8676025813619 52.9804202694209  53.3299627525672 53.1470875023357  54.2917705509842 52.8216895714067  C 54.2917705509842 52.8216895714067  55.6799467548854 52.1312110350451  55.6799467548854 52.1312110350451  C 55.6799467548854 52.1312110350451  57.4647447313295 51.5399391849423  57.4647447313295 51.5399391849423  C 57.2565183007443 50.774063567024  56.9458312455855 49.3018363429426  56.6549752790538 48.6827866206873  C 56.0897892531799 47.4843698506803  55.0321311930647 46.4843664531911  55.6006224003766 44.9049960079502  C 55.9542768142276 43.9248339477127  57.3027908408744 43.9843579594679  58.0596773901443 43.8097541916524  C 59.2660686149631 43.5319754701275  60.7071277218698 42.6867345032021  61.6160526172811 41.6986359080639  C 62.9447355553006 40.2621230910357  62.039115841327 39.4803744033159  62.7398143061533 38.2105288192026  C 63.6751806530676 36.5002055480999  64.699786898804 37.464494538536  65.3244661905596 36.4684594084971  C 65.9524506637528 35.4684560110079  65.7904967732977 33.4803540183804  65.7938019547358 32.254159376221  C 65.7938019547358 30.1271680228311  65.9755869338179 29.722404742895  66.1904237272786 27.8057315643739  C 66.8448496519749 28.1747804372569  67.7636900916999 28.5279562403384  68.2792983960061 29.095418485739  C 69.4592481693218 30.3970102094552  69.6410331484041 32.1549526899621  71.5415124751732 31.3811405371431  C 71.5415124751732 31.3811405371431  71.5415124751732 30.9009801756502  71.5415124751732 30.9009801756502  C 71.5415124751732 30.9009801756502  70.351647157544 30.4247880816077  70.351647157544 30.4247880816077  C 71.0159886265537 29.6311345915368  71.713381909942 28.7303378803065  72.5330669065313 28.1708121698065  C 73.2469860971089 27.6866835408633  73.9642104691243 27.694620075764  74.5029550434955 26.8216012366861  C 75.1937379640083 25.464453768665  74.6715192968264 23.6192094042502  74.5029550434955 22.0914264358639  C 74.5029550434955 22.0914264358639  74.5029550434955 19.4723699186302  74.5029550434955 19.4723699186302  C 74.5029550434955 19.4723699186302  71.1448907026301 19.964435082474  71.1448907026301 19.964435082474  C 71.1448907026301 19.964435082474  67.3769838634704 17.4247439142474  67.3769838634704 17.4247439142474  C 67.3769838634704 17.4247439142474  65.6285428828427 16.5715664124212  65.6285428828427 16.5715664124212  C 65.6285428828427 16.5715664124212  64.6039366371061 17.5676015424601  64.6039366371061 17.5676015424601  C 64.6039366371061 17.5676015424601  63.8106930920198 15.9009292133113  63.8106930920198 15.9009292133113  C 63.8106930920198 15.9009292133113  63.4140713194766 15.9009292133113  63.4140713194766 15.9009292133113  C 62.3498028964859 18.0398253690523  61.3516381022524 18.0636349737544  60.3171163122022 19.3215757555167  C 59.404886235353 20.4287223741655  58.958686741242 22.0041245519562  58.8529209352306 23.5200027179914  C 58.8529209352306 23.5200027179914  56.6715011862431 23.9961948120339  56.6715011862431 23.9961948120339  C 55.6700312105718 20.7382472352932  53.2440280351829 18.4683982536905  52.6755368278709 17.3295054954389  C 52.3384083212093 16.6469634939779  52.2326425151979 15.5080707357263  52.110350801997 14.7104489782051  C 52.110350801997 14.7104489782051  50.3255528255527 14.4723529311838  50.3255528255527 14.4723529311838  C 50.3255528255527 14.4723529311838  50.0941901249027 16.6152173543751  50.0941901249027 16.6152173543751  C 50.0049502260804 17.1707747974247  49.8925740571931 17.5318871354069  49.6777372637324 18.0437936365026  C 48.3325284185235 21.2065027944349  46.3064521971156 18.059666706304  45.5991433694137 16.1390252603326  C 45.4338842975207 15.6945793058929  45.1496386938649 14.7501316527086  44.8356464572681 14.4683846637335  C 44.1151169038147 13.8294936042265  42.1485339482882 14.8334652691661  41.1371484283032 13.4525081964428  C 39.9340623849224 11.8175820068969  40.4893328664828 8.96042944264191  37.8352721718815 8.14296634786892  C 37.4419555807762 8.09137887101431  36.7214260273228 8.03979139415974  36.3148887104661 8.14296634786892  C 34.7217912574177 8.25407783647883  34.5598373669626 9.42868500178366  33.1419145301209 9.62709837430138  C 32.3255347149696 9.74217813036167  30.6597232702884 9.23820816416665  30.1308942402308 8.45249120899655  C 29.8995315395807 8.1072519408157  29.5524874886055 7.07550240372366  29.374007690961 6.61121511203223  C 28.785685395022 6.75804100769533  28.313044449408 6.86518422885487  27.7875206007884 7.26201097389028  C 27.0901273174001 7.78582227733705  26.3530718567573 8.861222756383  25.4110951469673 8.57153923250721  C 24.8459091210933 8.39693546469158  24.2344505550894 7.57550410246829  23.8246080567948 7.08740720607469  C 23.2395909422937 7.67074252127676  22.6479634649167 8.71042859326954  22.0199789917235 8.984239047344  C 21.0548660118685 9.40487539708155  20.40374526861 8.65487284896462  19.6600794450917 8.04772792906041  C 18.7478493682425 7.30963018329453  17.795957114139 6.87708903120593  17.2902643541464 5.65089438904648  C 16.7217731468346 4.26993731632324  16.1334508508955 0.52786111063925  14.8840922673846 0.0397642142456789  C 14.3850098702679 -0.154680890821709  13.43972797904 0.42071788947969  12.9175093118582 0.611194727096674  C 12.2829144757892 0.845322506667571  10.6666807526758 1.20643484464982  10.2204812585648 1.59532505478448  C 9.8238594860216 1.94056432296532  9.62224341831217 2.54374097541915  9.27189418589904 2.99215519730917  Z " fill-rule="evenodd" />
    </mask>
  </defs>
  <g transform="matrix(1 0 0 1 -563 -2088 )">
    <path d="M 9.27189418589904 2.99215519730917  C 8.85213614329086 3.53183957055737  8.29025529885473 3.86517403638709  7.76142626879721 4.23025464181968  C 8.29356048029268 6.63502471673434  8.06880814251826 6.13105475053933  7.56311538252561 8.27788744118094  C 5.68246714438357 7.41677340445412  5.36516972634911 5.84533949411383  3.99682461107523 8.03979139415974  C 3.68283237447855 7.76598094008526  3.38206086363329 7.45248781150731  3.00527017971734 7.31359845074491  C 1.7856582291472 6.87312076375558  0.546215189949748 8.32550665058523  0.0306068856437491 9.4723359437376  C 2.12939709868454 9.50408208334039  1.67989242313564 10.2183702244041  2.86975774076512 11.829486809248  C 3.57045620559131 12.781870997333  4.54217954832205 13.4088572544889  4.87930805498382 14.7104489782051  C 5.19991065445612 15.9525166901659  4.41658265368335 16.8810912735488  4.50582255250566 18.0437936365026  C 4.55870545551124 18.742208707765  5.18338474726676 20.1390388502897  5.39491635928977 20.9009462007576  C 5.67585678150789 21.9168226680483  5.51390289105274 22.4485705063958  5.64280496712922 23.0239692866972  C 5.85103139771434 23.9366708002786  6.43935369365323 24.0954014982928  6.76656665600143 24.781911767204  C 7.02767598959235 25.3255644079026  6.96818272371087 26.2303293865833  6.96818272371087 26.8533473762889  C 7.96965269938244 26.8533473762889  8.88518795766953 27.0200146092038  9.72800922432367 26.2422341889344  C 10.6567652083622 25.3811201522075  11.1062698839112 23.7898449046155  12.520887539315 23.9366708002786  C 14.4411979547114 24.1390524402467  14.9501958961419 27.5676355173527  15.7599653484174 28.9962117994802  C 16.3053202856642 29.9684373248169  17.0853431049991 31.2343146414799  17.1283104636912 32.4922554232422  C 17.158057096632 33.3732107972208  16.5961762521959 34.0676576010328  16.2887943784749 34.8732158934547  C 18.3148705998827 36.1708393497205  18.618947292166 36.758142932373  20.453322990178 34.6351198464335  C 20.7375685938339 35.3851223945504  21.1639369993178 36.3295700477347  21.8580251012683 36.6232218390609  C 22.3769385870122 36.8494130837311  22.8429691697505 36.512110350451  23.3519671111808 36.9406832350893  C 23.7948614238539 37.3137003754225  24.2741127323436 38.5756094246352  24.6079360575674 39.1549764723869  C 25.1235443618736 40.0597414510677  25.6490682104932 40.4883143357059  26.4026495783252 41.0637131160073  C 26.4026495783252 41.0637131160073  26.994277055702 38.4446565987735  26.994277055702 38.4446565987735  C 29.1657812603759 39.1906908794401  28.8980615639092 40.2145038816314  30.2036082318638 42.0160973040923  C 32.1437497358874 44.690709565631  31.5058497183804 44.2224540064892  32.9204673737843 46.5399221974961  C 33.3336150535168 47.2145276640563  34.3813575693181 48.7224692951909  34.5895839999034 49.3970747617511  C 34.8903555107486 50.4288242988432  34.4243249280104 51.3375575449742  34.5895839999034 52.2542273260061  C 34.7449275274828 53.059785618428  35.3233342791082 53.64312093363  35.6769886929592 54.4010600166477  C 35.6769886929592 54.4010600166477  36.222343630206 55.8058266940731  36.222343630206 55.8058266940731  C 36.6553223985656 56.7224964751049  37.7691685431243 57.1986885691474  38.3277442061225 57.9923420592182  C 39.7357514986508 59.984412319296  39.9968608322416 61.3812424618207  40.0166919208688 63.9249018974977  C 42.551766083707 62.5995005690794  42.4129484633169 61.4328299386753  43.2722956371604 58.6867888630302  C 43.2722956371604 58.6867888630302  44.9777692590961 53.2066115140911  44.9777692590961 53.2066115140911  C 44.9777692590961 53.2066115140911  46.362640281559 50.1113629028148  46.362640281559 50.1113629028148  C 49.1753496851776 51.1034297654034  48.4217683173458 51.7899400343146  49.9289310530096 52.5240695126301  C 50.8676025813619 52.9804202694209  53.3299627525672 53.1470875023357  54.2917705509842 52.8216895714067  C 54.2917705509842 52.8216895714067  55.6799467548854 52.1312110350451  55.6799467548854 52.1312110350451  C 55.6799467548854 52.1312110350451  57.4647447313295 51.5399391849423  57.4647447313295 51.5399391849423  C 57.2565183007443 50.774063567024  56.9458312455855 49.3018363429426  56.6549752790538 48.6827866206873  C 56.0897892531799 47.4843698506803  55.0321311930647 46.4843664531911  55.6006224003766 44.9049960079502  C 55.9542768142276 43.9248339477127  57.3027908408744 43.9843579594679  58.0596773901443 43.8097541916524  C 59.2660686149631 43.5319754701275  60.7071277218698 42.6867345032021  61.6160526172811 41.6986359080639  C 62.9447355553006 40.2621230910357  62.039115841327 39.4803744033159  62.7398143061533 38.2105288192026  C 63.6751806530676 36.5002055480999  64.699786898804 37.464494538536  65.3244661905596 36.4684594084971  C 65.9524506637528 35.4684560110079  65.7904967732977 33.4803540183804  65.7938019547358 32.254159376221  C 65.7938019547358 30.1271680228311  65.9755869338179 29.722404742895  66.1904237272786 27.8057315643739  C 66.8448496519749 28.1747804372569  67.7636900916999 28.5279562403384  68.2792983960061 29.095418485739  C 69.4592481693218 30.3970102094552  69.6410331484041 32.1549526899621  71.5415124751732 31.3811405371431  C 71.5415124751732 31.3811405371431  71.5415124751732 30.9009801756502  71.5415124751732 30.9009801756502  C 71.5415124751732 30.9009801756502  70.351647157544 30.4247880816077  70.351647157544 30.4247880816077  C 71.0159886265537 29.6311345915368  71.713381909942 28.7303378803065  72.5330669065313 28.1708121698065  C 73.2469860971089 27.6866835408633  73.9642104691243 27.694620075764  74.5029550434955 26.8216012366861  C 75.1937379640083 25.464453768665  74.6715192968264 23.6192094042502  74.5029550434955 22.0914264358639  C 74.5029550434955 22.0914264358639  74.5029550434955 19.4723699186302  74.5029550434955 19.4723699186302  C 74.5029550434955 19.4723699186302  71.1448907026301 19.964435082474  71.1448907026301 19.964435082474  C 71.1448907026301 19.964435082474  67.3769838634704 17.4247439142474  67.3769838634704 17.4247439142474  C 67.3769838634704 17.4247439142474  65.6285428828427 16.5715664124212  65.6285428828427 16.5715664124212  C 65.6285428828427 16.5715664124212  64.6039366371061 17.5676015424601  64.6039366371061 17.5676015424601  C 64.6039366371061 17.5676015424601  63.8106930920198 15.9009292133113  63.8106930920198 15.9009292133113  C 63.8106930920198 15.9009292133113  63.4140713194766 15.9009292133113  63.4140713194766 15.9009292133113  C 62.3498028964859 18.0398253690523  61.3516381022524 18.0636349737544  60.3171163122022 19.3215757555167  C 59.404886235353 20.4287223741655  58.958686741242 22.0041245519562  58.8529209352306 23.5200027179914  C 58.8529209352306 23.5200027179914  56.6715011862431 23.9961948120339  56.6715011862431 23.9961948120339  C 55.6700312105718 20.7382472352932  53.2440280351829 18.4683982536905  52.6755368278709 17.3295054954389  C 52.3384083212093 16.6469634939779  52.2326425151979 15.5080707357263  52.110350801997 14.7104489782051  C 52.110350801997 14.7104489782051  50.3255528255527 14.4723529311838  50.3255528255527 14.4723529311838  C 50.3255528255527 14.4723529311838  50.0941901249027 16.6152173543751  50.0941901249027 16.6152173543751  C 50.0049502260804 17.1707747974247  49.8925740571931 17.5318871354069  49.6777372637324 18.0437936365026  C 48.3325284185235 21.2065027944349  46.3064521971156 18.059666706304  45.5991433694137 16.1390252603326  C 45.4338842975207 15.6945793058929  45.1496386938649 14.7501316527086  44.8356464572681 14.4683846637335  C 44.1151169038147 13.8294936042265  42.1485339482882 14.8334652691661  41.1371484283032 13.4525081964428  C 39.9340623849224 11.8175820068969  40.4893328664828 8.96042944264191  37.8352721718815 8.14296634786892  C 37.4419555807762 8.09137887101431  36.7214260273228 8.03979139415974  36.3148887104661 8.14296634786892  C 34.7217912574177 8.25407783647883  34.5598373669626 9.42868500178366  33.1419145301209 9.62709837430138  C 32.3255347149696 9.74217813036167  30.6597232702884 9.23820816416665  30.1308942402308 8.45249120899655  C 29.8995315395807 8.1072519408157  29.5524874886055 7.07550240372366  29.374007690961 6.61121511203223  C 28.785685395022 6.75804100769533  28.313044449408 6.86518422885487  27.7875206007884 7.26201097389028  C 27.0901273174001 7.78582227733705  26.3530718567573 8.861222756383  25.4110951469673 8.57153923250721  C 24.8459091210933 8.39693546469158  24.2344505550894 7.57550410246829  23.8246080567948 7.08740720607469  C 23.2395909422937 7.67074252127676  22.6479634649167 8.71042859326954  22.0199789917235 8.984239047344  C 21.0548660118685 9.40487539708155  20.40374526861 8.65487284896462  19.6600794450917 8.04772792906041  C 18.7478493682425 7.30963018329453  17.795957114139 6.87708903120593  17.2902643541464 5.65089438904648  C 16.7217731468346 4.26993731632324  16.1334508508955 0.52786111063925  14.8840922673846 0.0397642142456789  C 14.3850098702679 -0.154680890821709  13.43972797904 0.42071788947969  12.9175093118582 0.611194727096674  C 12.2829144757892 0.845322506667571  10.6666807526758 1.20643484464982  10.2204812585648 1.59532505478448  C 9.8238594860216 1.94056432296532  9.62224341831217 2.54374097541915  9.27189418589904 2.99215519730917  Z " fill-rule="nonzero" fill="#aad5ff" stroke="none" transform="matrix(1 0 0 1 563 2088 )" />
    <path d="M 9.27189418589904 2.99215519730917  C 8.85213614329086 3.53183957055737  8.29025529885473 3.86517403638709  7.76142626879721 4.23025464181968  C 8.29356048029268 6.63502471673434  8.06880814251826 6.13105475053933  7.56311538252561 8.27788744118094  C 5.68246714438357 7.41677340445412  5.36516972634911 5.84533949411383  3.99682461107523 8.03979139415974  C 3.68283237447855 7.76598094008526  3.38206086363329 7.45248781150731  3.00527017971734 7.31359845074491  C 1.7856582291472 6.87312076375558  0.546215189949748 8.32550665058523  0.0306068856437491 9.4723359437376  C 2.12939709868454 9.50408208334039  1.67989242313564 10.2183702244041  2.86975774076512 11.829486809248  C 3.57045620559131 12.781870997333  4.54217954832205 13.4088572544889  4.87930805498382 14.7104489782051  C 5.19991065445612 15.9525166901659  4.41658265368335 16.8810912735488  4.50582255250566 18.0437936365026  C 4.55870545551124 18.742208707765  5.18338474726676 20.1390388502897  5.39491635928977 20.9009462007576  C 5.67585678150789 21.9168226680483  5.51390289105274 22.4485705063958  5.64280496712922 23.0239692866972  C 5.85103139771434 23.9366708002786  6.43935369365323 24.0954014982928  6.76656665600143 24.781911767204  C 7.02767598959235 25.3255644079026  6.96818272371087 26.2303293865833  6.96818272371087 26.8533473762889  C 7.96965269938244 26.8533473762889  8.88518795766953 27.0200146092038  9.72800922432367 26.2422341889344  C 10.6567652083622 25.3811201522075  11.1062698839112 23.7898449046155  12.520887539315 23.9366708002786  C 14.4411979547114 24.1390524402467  14.9501958961419 27.5676355173527  15.7599653484174 28.9962117994802  C 16.3053202856642 29.9684373248169  17.0853431049991 31.2343146414799  17.1283104636912 32.4922554232422  C 17.158057096632 33.3732107972208  16.5961762521959 34.0676576010328  16.2887943784749 34.8732158934547  C 18.3148705998827 36.1708393497205  18.618947292166 36.758142932373  20.453322990178 34.6351198464335  C 20.7375685938339 35.3851223945504  21.1639369993178 36.3295700477347  21.8580251012683 36.6232218390609  C 22.3769385870122 36.8494130837311  22.8429691697505 36.512110350451  23.3519671111808 36.9406832350893  C 23.7948614238539 37.3137003754225  24.2741127323436 38.5756094246352  24.6079360575674 39.1549764723869  C 25.1235443618736 40.0597414510677  25.6490682104932 40.4883143357059  26.4026495783252 41.0637131160073  C 26.4026495783252 41.0637131160073  26.994277055702 38.4446565987735  26.994277055702 38.4446565987735  C 29.1657812603759 39.1906908794401  28.8980615639092 40.2145038816314  30.2036082318638 42.0160973040923  C 32.1437497358874 44.690709565631  31.5058497183804 44.2224540064892  32.9204673737843 46.5399221974961  C 33.3336150535168 47.2145276640563  34.3813575693181 48.7224692951909  34.5895839999034 49.3970747617511  C 34.8903555107486 50.4288242988432  34.4243249280104 51.3375575449742  34.5895839999034 52.2542273260061  C 34.7449275274828 53.059785618428  35.3233342791082 53.64312093363  35.6769886929592 54.4010600166477  C 35.6769886929592 54.4010600166477  36.222343630206 55.8058266940731  36.222343630206 55.8058266940731  C 36.6553223985656 56.7224964751049  37.7691685431243 57.1986885691474  38.3277442061225 57.9923420592182  C 39.7357514986508 59.984412319296  39.9968608322416 61.3812424618207  40.0166919208688 63.9249018974977  C 42.551766083707 62.5995005690794  42.4129484633169 61.4328299386753  43.2722956371604 58.6867888630302  C 43.2722956371604 58.6867888630302  44.9777692590961 53.2066115140911  44.9777692590961 53.2066115140911  C 44.9777692590961 53.2066115140911  46.362640281559 50.1113629028148  46.362640281559 50.1113629028148  C 49.1753496851776 51.1034297654034  48.4217683173458 51.7899400343146  49.9289310530096 52.5240695126301  C 50.8676025813619 52.9804202694209  53.3299627525672 53.1470875023357  54.2917705509842 52.8216895714067  C 54.2917705509842 52.8216895714067  55.6799467548854 52.1312110350451  55.6799467548854 52.1312110350451  C 55.6799467548854 52.1312110350451  57.4647447313295 51.5399391849423  57.4647447313295 51.5399391849423  C 57.2565183007443 50.774063567024  56.9458312455855 49.3018363429426  56.6549752790538 48.6827866206873  C 56.0897892531799 47.4843698506803  55.0321311930647 46.4843664531911  55.6006224003766 44.9049960079502  C 55.9542768142276 43.9248339477127  57.3027908408744 43.9843579594679  58.0596773901443 43.8097541916524  C 59.2660686149631 43.5319754701275  60.7071277218698 42.6867345032021  61.6160526172811 41.6986359080639  C 62.9447355553006 40.2621230910357  62.039115841327 39.4803744033159  62.7398143061533 38.2105288192026  C 63.6751806530676 36.5002055480999  64.699786898804 37.464494538536  65.3244661905596 36.4684594084971  C 65.9524506637528 35.4684560110079  65.7904967732977 33.4803540183804  65.7938019547358 32.254159376221  C 65.7938019547358 30.1271680228311  65.9755869338179 29.722404742895  66.1904237272786 27.8057315643739  C 66.8448496519749 28.1747804372569  67.7636900916999 28.5279562403384  68.2792983960061 29.095418485739  C 69.4592481693218 30.3970102094552  69.6410331484041 32.1549526899621  71.5415124751732 31.3811405371431  C 71.5415124751732 31.3811405371431  71.5415124751732 30.9009801756502  71.5415124751732 30.9009801756502  C 71.5415124751732 30.9009801756502  70.351647157544 30.4247880816077  70.351647157544 30.4247880816077  C 71.0159886265537 29.6311345915368  71.713381909942 28.7303378803065  72.5330669065313 28.1708121698065  C 73.2469860971089 27.6866835408633  73.9642104691243 27.694620075764  74.5029550434955 26.8216012366861  C 75.1937379640083 25.464453768665  74.6715192968264 23.6192094042502  74.5029550434955 22.0914264358639  C 74.5029550434955 22.0914264358639  74.5029550434955 19.4723699186302  74.5029550434955 19.4723699186302  C 74.5029550434955 19.4723699186302  71.1448907026301 19.964435082474  71.1448907026301 19.964435082474  C 71.1448907026301 19.964435082474  67.3769838634704 17.4247439142474  67.3769838634704 17.4247439142474  C 67.3769838634704 17.4247439142474  65.6285428828427 16.5715664124212  65.6285428828427 16.5715664124212  C 65.6285428828427 16.5715664124212  64.6039366371061 17.5676015424601  64.6039366371061 17.5676015424601  C 64.6039366371061 17.5676015424601  63.8106930920198 15.9009292133113  63.8106930920198 15.9009292133113  C 63.8106930920198 15.9009292133113  63.4140713194766 15.9009292133113  63.4140713194766 15.9009292133113  C 62.3498028964859 18.0398253690523  61.3516381022524 18.0636349737544  60.3171163122022 19.3215757555167  C 59.404886235353 20.4287223741655  58.958686741242 22.0041245519562  58.8529209352306 23.5200027179914  C 58.8529209352306 23.5200027179914  56.6715011862431 23.9961948120339  56.6715011862431 23.9961948120339  C 55.6700312105718 20.7382472352932  53.2440280351829 18.4683982536905  52.6755368278709 17.3295054954389  C 52.3384083212093 16.6469634939779  52.2326425151979 15.5080707357263  52.110350801997 14.7104489782051  C 52.110350801997 14.7104489782051  50.3255528255527 14.4723529311838  50.3255528255527 14.4723529311838  C 50.3255528255527 14.4723529311838  50.0941901249027 16.6152173543751  50.0941901249027 16.6152173543751  C 50.0049502260804 17.1707747974247  49.8925740571931 17.5318871354069  49.6777372637324 18.0437936365026  C 48.3325284185235 21.2065027944349  46.3064521971156 18.059666706304  45.5991433694137 16.1390252603326  C 45.4338842975207 15.6945793058929  45.1496386938649 14.7501316527086  44.8356464572681 14.4683846637335  C 44.1151169038147 13.8294936042265  42.1485339482882 14.8334652691661  41.1371484283032 13.4525081964428  C 39.9340623849224 11.8175820068969  40.4893328664828 8.96042944264191  37.8352721718815 8.14296634786892  C 37.4419555807762 8.09137887101431  36.7214260273228 8.03979139415974  36.3148887104661 8.14296634786892  C 34.7217912574177 8.25407783647883  34.5598373669626 9.42868500178366  33.1419145301209 9.62709837430138  C 32.3255347149696 9.74217813036167  30.6597232702884 9.23820816416665  30.1308942402308 8.45249120899655  C 29.8995315395807 8.1072519408157  29.5524874886055 7.07550240372366  29.374007690961 6.61121511203223  C 28.785685395022 6.75804100769533  28.313044449408 6.86518422885487  27.7875206007884 7.26201097389028  C 27.0901273174001 7.78582227733705  26.3530718567573 8.861222756383  25.4110951469673 8.57153923250721  C 24.8459091210933 8.39693546469158  24.2344505550894 7.57550410246829  23.8246080567948 7.08740720607469  C 23.2395909422937 7.67074252127676  22.6479634649167 8.71042859326954  22.0199789917235 8.984239047344  C 21.0548660118685 9.40487539708155  20.40374526861 8.65487284896462  19.6600794450917 8.04772792906041  C 18.7478493682425 7.30963018329453  17.795957114139 6.87708903120593  17.2902643541464 5.65089438904648  C 16.7217731468346 4.26993731632324  16.1334508508955 0.52786111063925  14.8840922673846 0.0397642142456789  C 14.3850098702679 -0.154680890821709  13.43972797904 0.42071788947969  12.9175093118582 0.611194727096674  C 12.2829144757892 0.845322506667571  10.6666807526758 1.20643484464982  10.2204812585648 1.59532505478448  C 9.8238594860216 1.94056432296532  9.62224341831217 2.54374097541915  9.27189418589904 2.99215519730917  Z " stroke-width="2.13294375456538" stroke="#ffffff" fill="none" transform="matrix(1 0 0 1 563 2088 )" mask="url(#clip31)" />
  </g>
</svg>