<?xml version="1.0" encoding="utf-8"?>
<svg version="1.1" xmlns:xlink="http://www.w3.org/1999/xlink" width="95px" height="104px" xmlns="http://www.w3.org/2000/svg">
  <defs>
    <mask fill="white" id="clip16">
      <path d="M 49.5266079489052 4.2690942031831  C 49.2181172856848 3.37860929805129  47.256766121631 0.89002201853117  46.6397847951902 0.214207581600732  C 44.2400521623495 3.1361111765645  44.7661099248937 1.78050692366298  42.9378968365454 3.01684980534145  C 42.9378968365454 3.01684980534145  41.184370961398 4.50761694562914  41.184370961398 4.50761694562914  C 41.184370961398 4.50761694562914  42.8599623532056 9.44901309330254  42.8599623532056 9.44901309330254  C 42.8599623532056 9.44901309330254  42.14556292259 11.1862537341177  42.14556292259 11.1862537341177  C 42.14556292259 11.1862537341177  40.9473202412391 13.5675057795372  40.9473202412391 13.5675057795372  C 40.9473202412391 13.5675057795372  39.041172669551 13.8100039010239  39.041172669551 13.8100039010239  C 39.0249363188552 11.8024374854365  39.0249363188552 10.7012574911441  37.2876467944036 9.99364002188759  C 37.2876467944036 9.99364002188759  36.3134657526549 15.2411403557001  36.3134657526549 15.2411403557001  C 35.9530187672079 14.8356516935418  35.6217972130134 14.3983599990574  35.1444485025566 14.1916402889375  C 34.0663548163548 13.722545562127  32.3388071023206 14.4301630313835  32.0627891404918 15.9567085830381  C 31.9166619842295 16.7676859073545  32.387516154408 17.4832541346927  32.4751924481654 18.3419360074983  C 32.80641400236 21.5739191676419  30.2345760521436 21.2837164976659  28.5232646888052 20.7271634319585  C 27.5718145380308 22.9732525899918  27.9355087936169 23.1123908564187  25.7955577719091 23.1163662354595  C 25.7955577719091 23.1163662354595  25.9903939802589 19.7730724621745  25.9903939802589 19.7730724621745  C 25.2759945496431 19.7730724621745  24.6752495738982 19.8684815591528  24.1167191099623 19.2244701545486  C 23.6263813189488 18.6639417098004  22.7853383529059 16.5609661972347  21.905328145193 16.2787142853402  C 21.06428517915 16.0044131315273  20.7135800041205 17.8450136274024  19.1711266880185 17.8489890064432  C 18.4534799872637 17.8489890064432  17.9663894663894 17.3162882149804  17.4176008128711 16.8233412139253  C 17.4176008128711 16.8233412139253  13.4234585417017 13.5237766100887  13.4234585417017 13.5237766100887  C 12.9915716131932 12.9036174797291  12.5954046562155 11.4963332992975  12.2901612631343 10.7092082492257  C 12.2901612631343 10.7092082492257  11.1471221741492 8.08545808231946  11.1471221741492 8.08545808231946  C 10.9100714539903 7.29833303224751  10.9652750463561 6.2408822074035  10.6080753310482 5.56506777047309  C 10.2541228858796 4.89720409162425  9.05263293438961 3.86758092006568  8.45838249892302 3.50979680639659  C 7.09777631061408 2.69881948208013  6.45156955292083 3.35475702380666  5.73067558202695 3.1361111765645  C 4.78247270139164 2.84590850658844  4.28239309996064 1.41079667287158  3.19780487348046 2.0508326984351  C 1.17800284692166 3.24344641066517  0.301239909347998 7.47722508908203  3.39264108183028 8.56250356721148  C 3.39264108183028 8.56250356721148  1.32737727332326 13.0944356736858  1.32737727332326 13.0944356736858  C 0.788330430222317 14.0843050548369  0.106403700998271 14.6726611528703  0.210316345451389 15.9567085830381  C 0.515559738532659 19.6498357119106  4.85066537431393 20.5085175847163  6.28920604596277 22.408748766203  C 6.8639728605944 23.1720215420303  8.15313910584175 26.5987982751714  8.35446985446984 27.6482983419339  C 8.52008063156705 28.5069802147396  8.4518879586447 29.3616867085044  8.7441422711693 30.2720485088402  C 8.7441422711693 30.2720485088402  10.6762680039707 34.0168555652426  10.6762680039707 34.0168555652426  C 10.6762680039707 34.0168555652426  11.9621869790789 35.5195488426525  11.9621869790789 35.5195488426525  C 11.9621869790789 35.5195488426525  10.2119083740705 35.7580715850986  10.2119083740705 35.7580715850986  C 10.2119083740705 35.7580715850986  10.3125737483846 38.8588672368968  10.3125737483846 38.8588672368968  C 10.3125737483846 38.8588672368968  11.7218889887809 43.6293220858173  11.7218889887809 43.6293220858173  C 11.7218889887809 43.6293220858173  11.9979069506097 49.5963660260085  11.9979069506097 49.5963660260085  C 11.9979069506097 49.5963660260085  12.6343718978854 53.5717450667756  12.6343718978854 53.5717450667756  C 12.6343718978854 53.5717450667756  11.9719287894964 57.1495862034659  11.9719287894964 57.1495862034659  C 11.9719287894964 57.1495862034659  12.7285427319212 64.5437912192925  12.7285427319212 64.5437912192925  C 12.7285427319212 64.5437912192925  12.7285427319212 67.1675413861987  12.7285427319212 67.1675413861987  C 12.7285427319212 67.1675413861987  12.4720083909273 69.7952669321456  12.4720083909273 69.7952669321456  C 12.4720083909273 69.7952669321456  13.2773313854394 74.3271990386201  13.2773313854394 74.3271990386201  C 13.2773313854394 74.3271990386201  14.3002214792755 76.4739037206343  14.3002214792755 76.4739037206343  C 14.3002214792755 76.4739037206343  14.8100428911239 73.8501535537281  14.8100428911239 73.8501535537281  C 14.8100428911239 73.8501535537281  16.6382559794722 68.6026532199155  16.6382559794722 68.6026532199155  C 16.6382559794722 68.6026532199155  18.5249199303254 70.9878806443759  18.5249199303254 70.9878806443759  C 18.5249199303254 70.9878806443759  19.8173334457118 73.1345853263899  19.8173334457118 73.1345853263899  C 19.8173334457118 73.1345853263899  21.1909287145774 75.0387918869174  21.1909287145774 75.0387918869174  C 21.6780192354517 76.1996025668215  20.3758639096477 76.2592332524328  20.52199106591 77.6665174328643  C 20.5674528478582 78.1038091273488  20.8856853214961 78.9624910001544  21.083768799985 79.3361766299865  C 22.2982478320316 81.6299703365091  24.4024788822086 81.4828813120007  26.3800663969583 81.4828813120007  C 26.7892224344927 84.2656466405376  28.2147740255848 85.931330458619  29.039580640932 88.4000408429353  C 29.4162639770748 89.5330238695539  29.3902858159615 91.3974766396736  29.8351618250267 92.1488232783786  C 30.1923615403345 92.757056271616  32.2608726189807 94.5499522190019  32.627814144706 95.4921170516636  C 32.9622829690397 96.3468235454285  32.0238218988219 96.9630072967474  32.1894326759191 97.9329997826946  C 32.2965925905114 98.5770111872989  33.0044974808488 99.1693426643732  33.3714390065741 99.6344620121429  C 34.2871691858178 100.799248071088  34.7840015171096 102.377473550272  35.9237933359555 103.335539899097  C 36.4725819894739 103.792708488785  36.8590071360342 103.733077803174  37.4824830027533 103.637668706195  C 40.1744699481186 103.232180044037  40.4797133411998 101.502890161303  41.9312430934052 101.001992402167  C 42.8404787323706 100.683962078905  43.0515512914161 102.127024670704  44.3017502949935 101.769240557035  C 45.1492878013149 101.530717814589  45.6006583506583 101.001992402167  46.0033198479144 100.08765522279  C 47.3899041973366 96.9471057805844  45.5032402464834 95.5398216001528  45.4707675450919 92.4589028435585  C 45.4610257346743 91.699605446772  45.3830912513345 89.7635958539183  45.6688510235807 89.1672889978033  C 46.0390398194452 88.4000408429353  46.8248791931224 88.2887302297939  47.3541842258058 87.7560294383311  C 47.8672529077935 87.2432055420721  48.6725759023056 86.034690313679  49.1694082335974 85.2992451911371  C 49.6759823753067 84.5478985524321  50.9716431608323 83.1525405091229  51.2379193122437 82.4369722817848  C 51.5171845442115 81.6856256430798  51.1502430184863 79.5110933077802  51.0528249143114 78.6206084026485  C 52.3939474817853 78.3661841440394  53.4720411679871 78.0123754094112  54.1766987881853 76.4739037206343  C 54.9690327021408 74.7525645959821  54.1799460583244 72.5899583978049  56.1185663314042 72.6813921157425  C 56.8102348710457 72.7171705271095  58.2747537038078 73.218068286246  58.5377825850798 74.1204793285002  C 58.6352006892547 74.6333032247592  58.3819136184001 75.3369453149749  58.5377825850798 75.9253014130084  C 58.8008114663519 76.6408696403464  59.4859854657152 76.8952938989555  59.6548435129516 77.6863943280682  C 59.7652506976831 78.2707750470609  59.4502654941844 78.8193773546868  59.6548435129516 79.8132221148785  C 60.3042975407841 82.7947563954538  62.0188561742615 82.3693908380917  63.7171784570433 81.0177619642309  C 64.3763742952931 80.489036551809  64.9154211383941 79.7734683244709  65.4707043321907 79.0976538875405  C 65.4707043321907 79.0976538875405  67.6139026240377 84.106631478907  67.6139026240377 84.106631478907  C 67.9613605289281 83.9237640430317  68.7439526324662 83.4467185581396  69.0881632672173 83.4427431790988  C 69.6694246221273 83.438767800058  70.5331984791443 84.3570803584752  71.3125433125432 84.4485140764129  C 71.9392664494015 84.5200708991467  72.8257711973928 84.0072470028878  73.4557416043903 83.8124534298902  C 73.4557416043903 83.8124534298902  75.3294164746868 83.4944231066288  75.3294164746868 83.4944231066288  C 75.6314125976288 83.3234818078759  75.816506995561 83.0014761055737  75.9788705025192 82.6635688871085  C 76.6445608810474 81.2761616018809  76.1704594407297 80.2425630512814  75.7937761045869 78.8591311450945  C 75.7937761045869 78.8591311450945  73.7090286752448 79.053924718092  73.7090286752448 79.053924718092  C 73.7090286752448 79.053924718092  72.5919677473731 77.8016803202505  72.5919677473731 77.8016803202505  C 72.5919677473731 77.8016803202505  70.9228708958439 77.1894719479724  70.9228708958439 77.1894719479724  C 70.8611727631998 76.6130419870611  70.6046384222061 75.0546934030804  70.7053037965201 74.5855986762699  C 70.8839036541739 73.7706459729126  73.3583235002154 71.7153750088361  74.0402502294394 71.7511534202031  C 74.572802532262 71.7829564525293  75.7158416212471 72.896062583944  76.7679571463355 73.373108068836  C 76.196437601843 71.6199659118578  75.7418197823602 69.994035884184  74.2350864377891 69.1154771161745  C 73.4070325523028 68.6304808732009  72.7640730647487 69.0598218096039  72.1730698994212 68.4595395744479  C 71.5755721938155 67.8433558231291  71.7801502125827 67.0125016036088  70.5267039388661 65.6012420441364  C 69.925958963121 64.925427607206  68.0912513344945 63.0450733209234  67.9353823678148 62.1585637948323  C 67.8282224532225 61.5503308015949  68.3120657039576 60.5167322509955  68.5783418553688 60.0118591128181  C 69.3576866887677 58.5489196258158  70.5137148583095 57.5829025189094  70.9196236257046 55.7224251278304  C 71.2313615590642 54.3111655683583  69.9714207450695 54.2078057132983  70.4617585360828 53.1622810255765  C 70.6403583937368 52.7806446376629  72.3549170272143 50.3238603904689  72.6861385814088 50.1807467450013  C 73.8681449120638 49.6639474697015  74.8877877357608 51.1984437794376  75.7937761045869 51.7430707080227  C 76.7874407671704 52.3473283222193  77.1219095915042 51.3216805297014  77.9369743964339 51.7430707080227  C 78.459784888839 52.0054457247133  80.3886633515012 55.1976750944492  82.2233709801278 54.6013682383342  C 83.4963008746793 54.1839534390536  84.4607401060103 51.1944684003968  85.0907105130078 49.8348887684546  C 85.3537393942799 49.2703849446656  85.7206809200052 48.5468659592461  85.8440771852934 47.9267068288863  C 86.0324188533648 46.9646651010208  85.7499063512577 46.2331953575197  86.2337496019929 45.3029566619802  C 87.4871958757094 42.8978523423161  89.143303646682 45.4659472026516  90.6175642898616 43.0290398506614  C 90.9390440336386 42.4963390591986  91.2865019385289 40.2184468688391  91.5560253600794 39.3359127217889  C 92.4685082691839 36.3782307154582  93.0595114345115 35.3764351971849  94.8844772527205 33.1343214181924  C 94.2707431964188 31.9456830850029  93.111467756738 30.1448363795355  93.5823219269166 28.602389311718  C 93.7219545429004 28.1452207220298  94.4038812721245 27.1871543732049  94.6896410443707 26.6942073721498  C 94.6896410443707 26.6942073721498  92.7412789608736 26.3761770488885  92.7412789608736 26.3761770488885  C 92.7412789608736 26.3761770488885  89.4323106890674 26.5590444847637  89.4323106890674 26.5590444847637  C 89.4323106890674 26.5590444847637  87.8736210222697 25.461839869512  87.8736210222697 25.461839869512  C 87.8736210222697 25.461839869512  86.376629488116 24.6508625451955  86.376629488116 24.6508625451955  C 86.376629488116 24.6508625451955  84.9315942761889 22.9016957672581  84.9315942761889 22.9016957672581  C 84.9315942761889 22.9016957672581  82.8078796051769 23.5934117203515  82.8078796051769 23.5934117203515  C 82.8078796051769 23.5934117203515  82.2233709801278 20.7629418433255  82.2233709801278 20.7629418433255  C 82.2233709801278 20.7629418433255  80.2750088966304 20.7629418433255  80.2750088966304 20.7629418433255  C 79.1482061583413 20.9776123115268  77.1965968047049 21.7170328131095  76.1834485212863 21.5699437886011  C 75.5307472233148 21.4745346916228  75.0046894607705 21.2837164976659  74.5500716412879 20.6754835044285  C 74.1831301155626 20.1865118824142  73.9688102863779 19.4590175179538  73.4232689029986 19.2125440174262  C 72.4133678897193 18.7553754277381  70.62736931318 20.1626596081696  69.7571009158846 20.7271634319585  C 69.7571009158846 20.7271634319585  69.1725922908354 18.5804587499443  69.1725922908354 18.5804587499443  C 68.3964947275758 19.5385250987692  67.639880785151 21.2757657395844  66.8150741698038 21.7647373615987  C 64.4672978591897 23.1640707839488  60.0704940907644 20.4170838667787  58.6514370399505 18.1034132650523  C 58.6514370399505 18.1034132650523  60.0152904983986 17.1493222952682  60.0152904983986 17.1493222952682  C 59.602887190725 14.9469623066833  58.2552700829727 9.95388623147994  56.5082387481035 9.02364753594043  C 55.8847628813844 8.68971569651603  55.0567089958982 8.84475547910597  54.3650404562567 8.76127251924981  C 53.3389030922814 8.63406038994532  51.306111985166 7.88668913028107  50.4975417205147 7.13931787061688  C 49.6370151336368 6.34026668342267  49.8967967447697 5.33052040706787  49.5266079489052 4.2690942031831  Z " fill-rule="evenodd" />
    </mask>
  </defs>
  <g transform="matrix(1 0 0 1 -379 -2254 )">
    <path d="M 49.5266079489052 4.2690942031831  C 49.2181172856848 3.37860929805129  47.256766121631 0.89002201853117  46.6397847951902 0.214207581600732  C 44.2400521623495 3.1361111765645  44.7661099248937 1.78050692366298  42.9378968365454 3.01684980534145  C 42.9378968365454 3.01684980534145  41.184370961398 4.50761694562914  41.184370961398 4.50761694562914  C 41.184370961398 4.50761694562914  42.8599623532056 9.44901309330254  42.8599623532056 9.44901309330254  C 42.8599623532056 9.44901309330254  42.14556292259 11.1862537341177  42.14556292259 11.1862537341177  C 42.14556292259 11.1862537341177  40.9473202412391 13.5675057795372  40.9473202412391 13.5675057795372  C 40.9473202412391 13.5675057795372  39.041172669551 13.8100039010239  39.041172669551 13.8100039010239  C 39.0249363188552 11.8024374854365  39.0249363188552 10.7012574911441  37.2876467944036 9.99364002188759  C 37.2876467944036 9.99364002188759  36.3134657526549 15.2411403557001  36.3134657526549 15.2411403557001  C 35.9530187672079 14.8356516935418  35.6217972130134 14.3983599990574  35.1444485025566 14.1916402889375  C 34.0663548163548 13.722545562127  32.3388071023206 14.4301630313835  32.0627891404918 15.9567085830381  C 31.9166619842295 16.7676859073545  32.387516154408 17.4832541346927  32.4751924481654 18.3419360074983  C 32.80641400236 21.5739191676419  30.2345760521436 21.2837164976659  28.5232646888052 20.7271634319585  C 27.5718145380308 22.9732525899918  27.9355087936169 23.1123908564187  25.7955577719091 23.1163662354595  C 25.7955577719091 23.1163662354595  25.9903939802589 19.7730724621745  25.9903939802589 19.7730724621745  C 25.2759945496431 19.7730724621745  24.6752495738982 19.8684815591528  24.1167191099623 19.2244701545486  C 23.6263813189488 18.6639417098004  22.7853383529059 16.5609661972347  21.905328145193 16.2787142853402  C 21.06428517915 16.0044131315273  20.7135800041205 17.8450136274024  19.1711266880185 17.8489890064432  C 18.4534799872637 17.8489890064432  17.9663894663894 17.3162882149804  17.4176008128711 16.8233412139253  C 17.4176008128711 16.8233412139253  13.4234585417017 13.5237766100887  13.4234585417017 13.5237766100887  C 12.9915716131932 12.9036174797291  12.5954046562155 11.4963332992975  12.2901612631343 10.7092082492257  C 12.2901612631343 10.7092082492257  11.1471221741492 8.08545808231946  11.1471221741492 8.08545808231946  C 10.9100714539903 7.29833303224751  10.9652750463561 6.2408822074035  10.6080753310482 5.56506777047309  C 10.2541228858796 4.89720409162425  9.05263293438961 3.86758092006568  8.45838249892302 3.50979680639659  C 7.09777631061408 2.69881948208013  6.45156955292083 3.35475702380666  5.73067558202695 3.1361111765645  C 4.78247270139164 2.84590850658844  4.28239309996064 1.41079667287158  3.19780487348046 2.0508326984351  C 1.17800284692166 3.24344641066517  0.301239909347998 7.47722508908203  3.39264108183028 8.56250356721148  C 3.39264108183028 8.56250356721148  1.32737727332326 13.0944356736858  1.32737727332326 13.0944356736858  C 0.788330430222317 14.0843050548369  0.106403700998271 14.6726611528703  0.210316345451389 15.9567085830381  C 0.515559738532659 19.6498357119106  4.85066537431393 20.5085175847163  6.28920604596277 22.408748766203  C 6.8639728605944 23.1720215420303  8.15313910584175 26.5987982751714  8.35446985446984 27.6482983419339  C 8.52008063156705 28.5069802147396  8.4518879586447 29.3616867085044  8.7441422711693 30.2720485088402  C 8.7441422711693 30.2720485088402  10.6762680039707 34.0168555652426  10.6762680039707 34.0168555652426  C 10.6762680039707 34.0168555652426  11.9621869790789 35.5195488426525  11.9621869790789 35.5195488426525  C 11.9621869790789 35.5195488426525  10.2119083740705 35.7580715850986  10.2119083740705 35.7580715850986  C 10.2119083740705 35.7580715850986  10.3125737483846 38.8588672368968  10.3125737483846 38.8588672368968  C 10.3125737483846 38.8588672368968  11.7218889887809 43.6293220858173  11.7218889887809 43.6293220858173  C 11.7218889887809 43.6293220858173  11.9979069506097 49.5963660260085  11.9979069506097 49.5963660260085  C 11.9979069506097 49.5963660260085  12.6343718978854 53.5717450667756  12.6343718978854 53.5717450667756  C 12.6343718978854 53.5717450667756  11.9719287894964 57.1495862034659  11.9719287894964 57.1495862034659  C 11.9719287894964 57.1495862034659  12.7285427319212 64.5437912192925  12.7285427319212 64.5437912192925  C 12.7285427319212 64.5437912192925  12.7285427319212 67.1675413861987  12.7285427319212 67.1675413861987  C 12.7285427319212 67.1675413861987  12.4720083909273 69.7952669321456  12.4720083909273 69.7952669321456  C 12.4720083909273 69.7952669321456  13.2773313854394 74.3271990386201  13.2773313854394 74.3271990386201  C 13.2773313854394 74.3271990386201  14.3002214792755 76.4739037206343  14.3002214792755 76.4739037206343  C 14.3002214792755 76.4739037206343  14.8100428911239 73.8501535537281  14.8100428911239 73.8501535537281  C 14.8100428911239 73.8501535537281  16.6382559794722 68.6026532199155  16.6382559794722 68.6026532199155  C 16.6382559794722 68.6026532199155  18.5249199303254 70.9878806443759  18.5249199303254 70.9878806443759  C 18.5249199303254 70.9878806443759  19.8173334457118 73.1345853263899  19.8173334457118 73.1345853263899  C 19.8173334457118 73.1345853263899  21.1909287145774 75.0387918869174  21.1909287145774 75.0387918869174  C 21.6780192354517 76.1996025668215  20.3758639096477 76.2592332524328  20.52199106591 77.6665174328643  C 20.5674528478582 78.1038091273488  20.8856853214961 78.9624910001544  21.083768799985 79.3361766299865  C 22.2982478320316 81.6299703365091  24.4024788822086 81.4828813120007  26.3800663969583 81.4828813120007  C 26.7892224344927 84.2656466405376  28.2147740255848 85.931330458619  29.039580640932 88.4000408429353  C 29.4162639770748 89.5330238695539  29.3902858159615 91.3974766396736  29.8351618250267 92.1488232783786  C 30.1923615403345 92.757056271616  32.2608726189807 94.5499522190019  32.627814144706 95.4921170516636  C 32.9622829690397 96.3468235454285  32.0238218988219 96.9630072967474  32.1894326759191 97.9329997826946  C 32.2965925905114 98.5770111872989  33.0044974808488 99.1693426643732  33.3714390065741 99.6344620121429  C 34.2871691858178 100.799248071088  34.7840015171096 102.377473550272  35.9237933359555 103.335539899097  C 36.4725819894739 103.792708488785  36.8590071360342 103.733077803174  37.4824830027533 103.637668706195  C 40.1744699481186 103.232180044037  40.4797133411998 101.502890161303  41.9312430934052 101.001992402167  C 42.8404787323706 100.683962078905  43.0515512914161 102.127024670704  44.3017502949935 101.769240557035  C 45.1492878013149 101.530717814589  45.6006583506583 101.001992402167  46.0033198479144 100.08765522279  C 47.3899041973366 96.9471057805844  45.5032402464834 95.5398216001528  45.4707675450919 92.4589028435585  C 45.4610257346743 91.699605446772  45.3830912513345 89.7635958539183  45.6688510235807 89.1672889978033  C 46.0390398194452 88.4000408429353  46.8248791931224 88.2887302297939  47.3541842258058 87.7560294383311  C 47.8672529077935 87.2432055420721  48.6725759023056 86.034690313679  49.1694082335974 85.2992451911371  C 49.6759823753067 84.5478985524321  50.9716431608323 83.1525405091229  51.2379193122437 82.4369722817848  C 51.5171845442115 81.6856256430798  51.1502430184863 79.5110933077802  51.0528249143114 78.6206084026485  C 52.3939474817853 78.3661841440394  53.4720411679871 78.0123754094112  54.1766987881853 76.4739037206343  C 54.9690327021408 74.7525645959821  54.1799460583244 72.5899583978049  56.1185663314042 72.6813921157425  C 56.8102348710457 72.7171705271095  58.2747537038078 73.218068286246  58.5377825850798 74.1204793285002  C 58.6352006892547 74.6333032247592  58.3819136184001 75.3369453149749  58.5377825850798 75.9253014130084  C 58.8008114663519 76.6408696403464  59.4859854657152 76.8952938989555  59.6548435129516 77.6863943280682  C 59.7652506976831 78.2707750470609  59.4502654941844 78.8193773546868  59.6548435129516 79.8132221148785  C 60.3042975407841 82.7947563954538  62.0188561742615 82.3693908380917  63.7171784570433 81.0177619642309  C 64.3763742952931 80.489036551809  64.9154211383941 79.7734683244709  65.4707043321907 79.0976538875405  C 65.4707043321907 79.0976538875405  67.6139026240377 84.106631478907  67.6139026240377 84.106631478907  C 67.9613605289281 83.9237640430317  68.7439526324662 83.4467185581396  69.0881632672173 83.4427431790988  C 69.6694246221273 83.438767800058  70.5331984791443 84.3570803584752  71.3125433125432 84.4485140764129  C 71.9392664494015 84.5200708991467  72.8257711973928 84.0072470028878  73.4557416043903 83.8124534298902  C 73.4557416043903 83.8124534298902  75.3294164746868 83.4944231066288  75.3294164746868 83.4944231066288  C 75.6314125976288 83.3234818078759  75.816506995561 83.0014761055737  75.9788705025192 82.6635688871085  C 76.6445608810474 81.2761616018809  76.1704594407297 80.2425630512814  75.7937761045869 78.8591311450945  C 75.7937761045869 78.8591311450945  73.7090286752448 79.053924718092  73.7090286752448 79.053924718092  C 73.7090286752448 79.053924718092  72.5919677473731 77.8016803202505  72.5919677473731 77.8016803202505  C 72.5919677473731 77.8016803202505  70.9228708958439 77.1894719479724  70.9228708958439 77.1894719479724  C 70.8611727631998 76.6130419870611  70.6046384222061 75.0546934030804  70.7053037965201 74.5855986762699  C 70.8839036541739 73.7706459729126  73.3583235002154 71.7153750088361  74.0402502294394 71.7511534202031  C 74.572802532262 71.7829564525293  75.7158416212471 72.896062583944  76.7679571463355 73.373108068836  C 76.196437601843 71.6199659118578  75.7418197823602 69.994035884184  74.2350864377891 69.1154771161745  C 73.4070325523028 68.6304808732009  72.7640730647487 69.0598218096039  72.1730698994212 68.4595395744479  C 71.5755721938155 67.8433558231291  71.7801502125827 67.0125016036088  70.5267039388661 65.6012420441364  C 69.925958963121 64.925427607206  68.0912513344945 63.0450733209234  67.9353823678148 62.1585637948323  C 67.8282224532225 61.5503308015949  68.3120657039576 60.5167322509955  68.5783418553688 60.0118591128181  C 69.3576866887677 58.5489196258158  70.5137148583095 57.5829025189094  70.9196236257046 55.7224251278304  C 71.2313615590642 54.3111655683583  69.9714207450695 54.2078057132983  70.4617585360828 53.1622810255765  C 70.6403583937368 52.7806446376629  72.3549170272143 50.3238603904689  72.6861385814088 50.1807467450013  C 73.8681449120638 49.6639474697015  74.8877877357608 51.1984437794376  75.7937761045869 51.7430707080227  C 76.7874407671704 52.3473283222193  77.1219095915042 51.3216805297014  77.9369743964339 51.7430707080227  C 78.459784888839 52.0054457247133  80.3886633515012 55.1976750944492  82.2233709801278 54.6013682383342  C 83.4963008746793 54.1839534390536  84.4607401060103 51.1944684003968  85.0907105130078 49.8348887684546  C 85.3537393942799 49.2703849446656  85.7206809200052 48.5468659592461  85.8440771852934 47.9267068288863  C 86.0324188533648 46.9646651010208  85.7499063512577 46.2331953575197  86.2337496019929 45.3029566619802  C 87.4871958757094 42.8978523423161  89.143303646682 45.4659472026516  90.6175642898616 43.0290398506614  C 90.9390440336386 42.4963390591986  91.2865019385289 40.2184468688391  91.5560253600794 39.3359127217889  C 92.4685082691839 36.3782307154582  93.0595114345115 35.3764351971849  94.8844772527205 33.1343214181924  C 94.2707431964188 31.9456830850029  93.111467756738 30.1448363795355  93.5823219269166 28.602389311718  C 93.7219545429004 28.1452207220298  94.4038812721245 27.1871543732049  94.6896410443707 26.6942073721498  C 94.6896410443707 26.6942073721498  92.7412789608736 26.3761770488885  92.7412789608736 26.3761770488885  C 92.7412789608736 26.3761770488885  89.4323106890674 26.5590444847637  89.4323106890674 26.5590444847637  C 89.4323106890674 26.5590444847637  87.8736210222697 25.461839869512  87.8736210222697 25.461839869512  C 87.8736210222697 25.461839869512  86.376629488116 24.6508625451955  86.376629488116 24.6508625451955  C 86.376629488116 24.6508625451955  84.9315942761889 22.9016957672581  84.9315942761889 22.9016957672581  C 84.9315942761889 22.9016957672581  82.8078796051769 23.5934117203515  82.8078796051769 23.5934117203515  C 82.8078796051769 23.5934117203515  82.2233709801278 20.7629418433255  82.2233709801278 20.7629418433255  C 82.2233709801278 20.7629418433255  80.2750088966304 20.7629418433255  80.2750088966304 20.7629418433255  C 79.1482061583413 20.9776123115268  77.1965968047049 21.7170328131095  76.1834485212863 21.5699437886011  C 75.5307472233148 21.4745346916228  75.0046894607705 21.2837164976659  74.5500716412879 20.6754835044285  C 74.1831301155626 20.1865118824142  73.9688102863779 19.4590175179538  73.4232689029986 19.2125440174262  C 72.4133678897193 18.7553754277381  70.62736931318 20.1626596081696  69.7571009158846 20.7271634319585  C 69.7571009158846 20.7271634319585  69.1725922908354 18.5804587499443  69.1725922908354 18.5804587499443  C 68.3964947275758 19.5385250987692  67.639880785151 21.2757657395844  66.8150741698038 21.7647373615987  C 64.4672978591897 23.1640707839488  60.0704940907644 20.4170838667787  58.6514370399505 18.1034132650523  C 58.6514370399505 18.1034132650523  60.0152904983986 17.1493222952682  60.0152904983986 17.1493222952682  C 59.602887190725 14.9469623066833  58.2552700829727 9.95388623147994  56.5082387481035 9.02364753594043  C 55.8847628813844 8.68971569651603  55.0567089958982 8.84475547910597  54.3650404562567 8.76127251924981  C 53.3389030922814 8.63406038994532  51.306111985166 7.88668913028107  50.4975417205147 7.13931787061688  C 49.6370151336368 6.34026668342267  49.8967967447697 5.33052040706787  49.5266079489052 4.2690942031831  Z " fill-rule="nonzero" fill="#1c8dff" stroke="none" transform="matrix(1 0 0 1 379 2254 )" />
    <path d="M 49.5266079489052 4.2690942031831  C 49.2181172856848 3.37860929805129  47.256766121631 0.89002201853117  46.6397847951902 0.214207581600732  C 44.2400521623495 3.1361111765645  44.7661099248937 1.78050692366298  42.9378968365454 3.01684980534145  C 42.9378968365454 3.01684980534145  41.184370961398 4.50761694562914  41.184370961398 4.50761694562914  C 41.184370961398 4.50761694562914  42.8599623532056 9.44901309330254  42.8599623532056 9.44901309330254  C 42.8599623532056 9.44901309330254  42.14556292259 11.1862537341177  42.14556292259 11.1862537341177  C 42.14556292259 11.1862537341177  40.9473202412391 13.5675057795372  40.9473202412391 13.5675057795372  C 40.9473202412391 13.5675057795372  39.041172669551 13.8100039010239  39.041172669551 13.8100039010239  C 39.0249363188552 11.8024374854365  39.0249363188552 10.7012574911441  37.2876467944036 9.99364002188759  C 37.2876467944036 9.99364002188759  36.3134657526549 15.2411403557001  36.3134657526549 15.2411403557001  C 35.9530187672079 14.8356516935418  35.6217972130134 14.3983599990574  35.1444485025566 14.1916402889375  C 34.0663548163548 13.722545562127  32.3388071023206 14.4301630313835  32.0627891404918 15.9567085830381  C 31.9166619842295 16.7676859073545  32.387516154408 17.4832541346927  32.4751924481654 18.3419360074983  C 32.80641400236 21.5739191676419  30.2345760521436 21.2837164976659  28.5232646888052 20.7271634319585  C 27.5718145380308 22.9732525899918  27.9355087936169 23.1123908564187  25.7955577719091 23.1163662354595  C 25.7955577719091 23.1163662354595  25.9903939802589 19.7730724621745  25.9903939802589 19.7730724621745  C 25.2759945496431 19.7730724621745  24.6752495738982 19.8684815591528  24.1167191099623 19.2244701545486  C 23.6263813189488 18.6639417098004  22.7853383529059 16.5609661972347  21.905328145193 16.2787142853402  C 21.06428517915 16.0044131315273  20.7135800041205 17.8450136274024  19.1711266880185 17.8489890064432  C 18.4534799872637 17.8489890064432  17.9663894663894 17.3162882149804  17.4176008128711 16.8233412139253  C 17.4176008128711 16.8233412139253  13.4234585417017 13.5237766100887  13.4234585417017 13.5237766100887  C 12.9915716131932 12.9036174797291  12.5954046562155 11.4963332992975  12.2901612631343 10.7092082492257  C 12.2901612631343 10.7092082492257  11.1471221741492 8.08545808231946  11.1471221741492 8.08545808231946  C 10.9100714539903 7.29833303224751  10.9652750463561 6.2408822074035  10.6080753310482 5.56506777047309  C 10.2541228858796 4.89720409162425  9.05263293438961 3.86758092006568  8.45838249892302 3.50979680639659  C 7.09777631061408 2.69881948208013  6.45156955292083 3.35475702380666  5.73067558202695 3.1361111765645  C 4.78247270139164 2.84590850658844  4.28239309996064 1.41079667287158  3.19780487348046 2.0508326984351  C 1.17800284692166 3.24344641066517  0.301239909347998 7.47722508908203  3.39264108183028 8.56250356721148  C 3.39264108183028 8.56250356721148  1.32737727332326 13.0944356736858  1.32737727332326 13.0944356736858  C 0.788330430222317 14.0843050548369  0.106403700998271 14.6726611528703  0.210316345451389 15.9567085830381  C 0.515559738532659 19.6498357119106  4.85066537431393 20.5085175847163  6.28920604596277 22.408748766203  C 6.8639728605944 23.1720215420303  8.15313910584175 26.5987982751714  8.35446985446984 27.6482983419339  C 8.52008063156705 28.5069802147396  8.4518879586447 29.3616867085044  8.7441422711693 30.2720485088402  C 8.7441422711693 30.2720485088402  10.6762680039707 34.0168555652426  10.6762680039707 34.0168555652426  C 10.6762680039707 34.0168555652426  11.9621869790789 35.5195488426525  11.9621869790789 35.5195488426525  C 11.9621869790789 35.5195488426525  10.2119083740705 35.7580715850986  10.2119083740705 35.7580715850986  C 10.2119083740705 35.7580715850986  10.3125737483846 38.8588672368968  10.3125737483846 38.8588672368968  C 10.3125737483846 38.8588672368968  11.7218889887809 43.6293220858173  11.7218889887809 43.6293220858173  C 11.7218889887809 43.6293220858173  11.9979069506097 49.5963660260085  11.9979069506097 49.5963660260085  C 11.9979069506097 49.5963660260085  12.6343718978854 53.5717450667756  12.6343718978854 53.5717450667756  C 12.6343718978854 53.5717450667756  11.9719287894964 57.1495862034659  11.9719287894964 57.1495862034659  C 11.9719287894964 57.1495862034659  12.7285427319212 64.5437912192925  12.7285427319212 64.5437912192925  C 12.7285427319212 64.5437912192925  12.7285427319212 67.1675413861987  12.7285427319212 67.1675413861987  C 12.7285427319212 67.1675413861987  12.4720083909273 69.7952669321456  12.4720083909273 69.7952669321456  C 12.4720083909273 69.7952669321456  13.2773313854394 74.3271990386201  13.2773313854394 74.3271990386201  C 13.2773313854394 74.3271990386201  14.3002214792755 76.4739037206343  14.3002214792755 76.4739037206343  C 14.3002214792755 76.4739037206343  14.8100428911239 73.8501535537281  14.8100428911239 73.8501535537281  C 14.8100428911239 73.8501535537281  16.6382559794722 68.6026532199155  16.6382559794722 68.6026532199155  C 16.6382559794722 68.6026532199155  18.5249199303254 70.9878806443759  18.5249199303254 70.9878806443759  C 18.5249199303254 70.9878806443759  19.8173334457118 73.1345853263899  19.8173334457118 73.1345853263899  C 19.8173334457118 73.1345853263899  21.1909287145774 75.0387918869174  21.1909287145774 75.0387918869174  C 21.6780192354517 76.1996025668215  20.3758639096477 76.2592332524328  20.52199106591 77.6665174328643  C 20.5674528478582 78.1038091273488  20.8856853214961 78.9624910001544  21.083768799985 79.3361766299865  C 22.2982478320316 81.6299703365091  24.4024788822086 81.4828813120007  26.3800663969583 81.4828813120007  C 26.7892224344927 84.2656466405376  28.2147740255848 85.931330458619  29.039580640932 88.4000408429353  C 29.4162639770748 89.5330238695539  29.3902858159615 91.3974766396736  29.8351618250267 92.1488232783786  C 30.1923615403345 92.757056271616  32.2608726189807 94.5499522190019  32.627814144706 95.4921170516636  C 32.9622829690397 96.3468235454285  32.0238218988219 96.9630072967474  32.1894326759191 97.9329997826946  C 32.2965925905114 98.5770111872989  33.0044974808488 99.1693426643732  33.3714390065741 99.6344620121429  C 34.2871691858178 100.799248071088  34.7840015171096 102.377473550272  35.9237933359555 103.335539899097  C 36.4725819894739 103.792708488785  36.8590071360342 103.733077803174  37.4824830027533 103.637668706195  C 40.1744699481186 103.232180044037  40.4797133411998 101.502890161303  41.9312430934052 101.001992402167  C 42.8404787323706 100.683962078905  43.0515512914161 102.127024670704  44.3017502949935 101.769240557035  C 45.1492878013149 101.530717814589  45.6006583506583 101.001992402167  46.0033198479144 100.08765522279  C 47.3899041973366 96.9471057805844  45.5032402464834 95.5398216001528  45.4707675450919 92.4589028435585  C 45.4610257346743 91.699605446772  45.3830912513345 89.7635958539183  45.6688510235807 89.1672889978033  C 46.0390398194452 88.4000408429353  46.8248791931224 88.2887302297939  47.3541842258058 87.7560294383311  C 47.8672529077935 87.2432055420721  48.6725759023056 86.034690313679  49.1694082335974 85.2992451911371  C 49.6759823753067 84.5478985524321  50.9716431608323 83.1525405091229  51.2379193122437 82.4369722817848  C 51.5171845442115 81.6856256430798  51.1502430184863 79.5110933077802  51.0528249143114 78.6206084026485  C 52.3939474817853 78.3661841440394  53.4720411679871 78.0123754094112  54.1766987881853 76.4739037206343  C 54.9690327021408 74.7525645959821  54.1799460583244 72.5899583978049  56.1185663314042 72.6813921157425  C 56.8102348710457 72.7171705271095  58.2747537038078 73.218068286246  58.5377825850798 74.1204793285002  C 58.6352006892547 74.6333032247592  58.3819136184001 75.3369453149749  58.5377825850798 75.9253014130084  C 58.8008114663519 76.6408696403464  59.4859854657152 76.8952938989555  59.6548435129516 77.6863943280682  C 59.7652506976831 78.2707750470609  59.4502654941844 78.8193773546868  59.6548435129516 79.8132221148785  C 60.3042975407841 82.7947563954538  62.0188561742615 82.3693908380917  63.7171784570433 81.0177619642309  C 64.3763742952931 80.489036551809  64.9154211383941 79.7734683244709  65.4707043321907 79.0976538875405  C 65.4707043321907 79.0976538875405  67.6139026240377 84.106631478907  67.6139026240377 84.106631478907  C 67.9613605289281 83.9237640430317  68.7439526324662 83.4467185581396  69.0881632672173 83.4427431790988  C 69.6694246221273 83.438767800058  70.5331984791443 84.3570803584752  71.3125433125432 84.4485140764129  C 71.9392664494015 84.5200708991467  72.8257711973928 84.0072470028878  73.4557416043903 83.8124534298902  C 73.4557416043903 83.8124534298902  75.3294164746868 83.4944231066288  75.3294164746868 83.4944231066288  C 75.6314125976288 83.3234818078759  75.816506995561 83.0014761055737  75.9788705025192 82.6635688871085  C 76.6445608810474 81.2761616018809  76.1704594407297 80.2425630512814  75.7937761045869 78.8591311450945  C 75.7937761045869 78.8591311450945  73.7090286752448 79.053924718092  73.7090286752448 79.053924718092  C 73.7090286752448 79.053924718092  72.5919677473731 77.8016803202505  72.5919677473731 77.8016803202505  C 72.5919677473731 77.8016803202505  70.9228708958439 77.1894719479724  70.9228708958439 77.1894719479724  C 70.8611727631998 76.6130419870611  70.6046384222061 75.0546934030804  70.7053037965201 74.5855986762699  C 70.8839036541739 73.7706459729126  73.3583235002154 71.7153750088361  74.0402502294394 71.7511534202031  C 74.572802532262 71.7829564525293  75.7158416212471 72.896062583944  76.7679571463355 73.373108068836  C 76.196437601843 71.6199659118578  75.7418197823602 69.994035884184  74.2350864377891 69.1154771161745  C 73.4070325523028 68.6304808732009  72.7640730647487 69.0598218096039  72.1730698994212 68.4595395744479  C 71.5755721938155 67.8433558231291  71.7801502125827 67.0125016036088  70.5267039388661 65.6012420441364  C 69.925958963121 64.925427607206  68.0912513344945 63.0450733209234  67.9353823678148 62.1585637948323  C 67.8282224532225 61.5503308015949  68.3120657039576 60.5167322509955  68.5783418553688 60.0118591128181  C 69.3576866887677 58.5489196258158  70.5137148583095 57.5829025189094  70.9196236257046 55.7224251278304  C 71.2313615590642 54.3111655683583  69.9714207450695 54.2078057132983  70.4617585360828 53.1622810255765  C 70.6403583937368 52.7806446376629  72.3549170272143 50.3238603904689  72.6861385814088 50.1807467450013  C 73.8681449120638 49.6639474697015  74.8877877357608 51.1984437794376  75.7937761045869 51.7430707080227  C 76.7874407671704 52.3473283222193  77.1219095915042 51.3216805297014  77.9369743964339 51.7430707080227  C 78.459784888839 52.0054457247133  80.3886633515012 55.1976750944492  82.2233709801278 54.6013682383342  C 83.4963008746793 54.1839534390536  84.4607401060103 51.1944684003968  85.0907105130078 49.8348887684546  C 85.3537393942799 49.2703849446656  85.7206809200052 48.5468659592461  85.8440771852934 47.9267068288863  C 86.0324188533648 46.9646651010208  85.7499063512577 46.2331953575197  86.2337496019929 45.3029566619802  C 87.4871958757094 42.8978523423161  89.143303646682 45.4659472026516  90.6175642898616 43.0290398506614  C 90.9390440336386 42.4963390591986  91.2865019385289 40.2184468688391  91.5560253600794 39.3359127217889  C 92.4685082691839 36.3782307154582  93.0595114345115 35.3764351971849  94.8844772527205 33.1343214181924  C 94.2707431964188 31.9456830850029  93.111467756738 30.1448363795355  93.5823219269166 28.602389311718  C 93.7219545429004 28.1452207220298  94.4038812721245 27.1871543732049  94.6896410443707 26.6942073721498  C 94.6896410443707 26.6942073721498  92.7412789608736 26.3761770488885  92.7412789608736 26.3761770488885  C 92.7412789608736 26.3761770488885  89.4323106890674 26.5590444847637  89.4323106890674 26.5590444847637  C 89.4323106890674 26.5590444847637  87.8736210222697 25.461839869512  87.8736210222697 25.461839869512  C 87.8736210222697 25.461839869512  86.376629488116 24.6508625451955  86.376629488116 24.6508625451955  C 86.376629488116 24.6508625451955  84.9315942761889 22.9016957672581  84.9315942761889 22.9016957672581  C 84.9315942761889 22.9016957672581  82.8078796051769 23.5934117203515  82.8078796051769 23.5934117203515  C 82.8078796051769 23.5934117203515  82.2233709801278 20.7629418433255  82.2233709801278 20.7629418433255  C 82.2233709801278 20.7629418433255  80.2750088966304 20.7629418433255  80.2750088966304 20.7629418433255  C 79.1482061583413 20.9776123115268  77.1965968047049 21.7170328131095  76.1834485212863 21.5699437886011  C 75.5307472233148 21.4745346916228  75.0046894607705 21.2837164976659  74.5500716412879 20.6754835044285  C 74.1831301155626 20.1865118824142  73.9688102863779 19.4590175179538  73.4232689029986 19.2125440174262  C 72.4133678897193 18.7553754277381  70.62736931318 20.1626596081696  69.7571009158846 20.7271634319585  C 69.7571009158846 20.7271634319585  69.1725922908354 18.5804587499443  69.1725922908354 18.5804587499443  C 68.3964947275758 19.5385250987692  67.639880785151 21.2757657395844  66.8150741698038 21.7647373615987  C 64.4672978591897 23.1640707839488  60.0704940907644 20.4170838667787  58.6514370399505 18.1034132650523  C 58.6514370399505 18.1034132650523  60.0152904983986 17.1493222952682  60.0152904983986 17.1493222952682  C 59.602887190725 14.9469623066833  58.2552700829727 9.95388623147994  56.5082387481035 9.02364753594043  C 55.8847628813844 8.68971569651603  55.0567089958982 8.84475547910597  54.3650404562567 8.76127251924981  C 53.3389030922814 8.63406038994532  51.306111985166 7.88668913028107  50.4975417205147 7.13931787061688  C 49.6370151336368 6.34026668342267  49.8967967447697 5.33052040706787  49.5266079489052 4.2690942031831  Z " stroke-width="2.13294375456538" stroke="#ffffff" fill="none" transform="matrix(1 0 0 1 379 2254 )" mask="url(#clip16)" />
  </g>
</svg>