<?xml version="1.0" encoding="utf-8"?>
<svg version="1.1" xmlns:xlink="http://www.w3.org/1999/xlink" width="10px" height="21px" xmlns="http://www.w3.org/2000/svg">
  <defs>
    <mask fill="white" id="clip5">
      <path d="M 2.28350449018171 2.84814501557028  C 2.25841103424568 4.68303794548459  2.4748420916942 5.79497520279881  2.65990632922268 7.51985313905649  C 2.16431057448546 7.44912921456302  0.762213724057972 6.95013263619231  0.404631976968972 7.51985313905649  C -0.254071241352676 8.46283879896967  1.03196837537052 11.7711468224982  1.09783869720263 12.9066587213102  C 1.09783869720263 12.9066587213102  0.621063034417489 17.1540232978355  0.621063034417489 17.1540232978355  C 0.592832896489426 17.637303448541  0.595969578481458 18.1127253854139  0.781033816009995 18.5567144669563  C 1.11979547114674 19.3621813847987  2.69127314914272 20.5959209565184  3.41271000730455 20.7059359501749  C 3.94908262793791 20.784518088501  6.43019808361623 20.1440736611433  7.1296781678339 19.9829802775748  C 7.1296781678339 19.9829802775748  7.1296781678339 17.6255161277921  7.1296781678339 17.6255161277921  C 7.26769217548235 16.3642728076582  8.0330425815323 13.1188304947907  8.84544321746233 12.376229287609  C 9.21243501052714 12.0383260928068  9.5072831177759 12.0265387720579  9.93700855068096 11.9636730613971  C 9.93700855068096 11.9636730613971  8.61960211403766 7.09158048517932  8.61960211403766 7.09158048517932  C 8.61960211403766 7.09158048517932  7.11399475787391 7.56307331513588  7.11399475787391 7.56307331513588  C 7.11399475787391 7.56307331513588  6.07261633652729 5.20560916535308  6.07261633652729 5.20560916535308  C 6.07261633652729 5.20560916535308  5.60838740171016 2.37665218561378  5.60838740171016 2.37665218561378  C 5.60838740171016 2.37665218561378  6.92579383835346 1.90515935565722  6.92579383835346 1.90515935565722  C 5.80286168521457 0.309941947637554  3.25587590770425 -1.24598439121914  2.39642504189408 1.66941294067888  C 2.28664117217375 2.03874899081157  2.28977785416578 2.46309253777241  2.28350449018171 2.84814501557028  Z " fill-rule="evenodd" />
    </mask>
  </defs>
  <g transform="matrix(1 0 0 1 -537 -2172 )">
    <path d="M 2.28350449018171 2.84814501557028  C 2.25841103424568 4.68303794548459  2.4748420916942 5.79497520279881  2.65990632922268 7.51985313905649  C 2.16431057448546 7.44912921456302  0.762213724057972 6.95013263619231  0.404631976968972 7.51985313905649  C -0.254071241352676 8.46283879896967  1.03196837537052 11.7711468224982  1.09783869720263 12.9066587213102  C 1.09783869720263 12.9066587213102  0.621063034417489 17.1540232978355  0.621063034417489 17.1540232978355  C 0.592832896489426 17.637303448541  0.595969578481458 18.1127253854139  0.781033816009995 18.5567144669563  C 1.11979547114674 19.3621813847987  2.69127314914272 20.5959209565184  3.41271000730455 20.7059359501749  C 3.94908262793791 20.784518088501  6.43019808361623 20.1440736611433  7.1296781678339 19.9829802775748  C 7.1296781678339 19.9829802775748  7.1296781678339 17.6255161277921  7.1296781678339 17.6255161277921  C 7.26769217548235 16.3642728076582  8.0330425815323 13.1188304947907  8.84544321746233 12.376229287609  C 9.21243501052714 12.0383260928068  9.5072831177759 12.0265387720579  9.93700855068096 11.9636730613971  C 9.93700855068096 11.9636730613971  8.61960211403766 7.09158048517932  8.61960211403766 7.09158048517932  C 8.61960211403766 7.09158048517932  7.11399475787391 7.56307331513588  7.11399475787391 7.56307331513588  C 7.11399475787391 7.56307331513588  6.07261633652729 5.20560916535308  6.07261633652729 5.20560916535308  C 6.07261633652729 5.20560916535308  5.60838740171016 2.37665218561378  5.60838740171016 2.37665218561378  C 5.60838740171016 2.37665218561378  6.92579383835346 1.90515935565722  6.92579383835346 1.90515935565722  C 5.80286168521457 0.309941947637554  3.25587590770425 -1.24598439121914  2.39642504189408 1.66941294067888  C 2.28664117217375 2.03874899081157  2.28977785416578 2.46309253777241  2.28350449018171 2.84814501557028  Z " fill-rule="nonzero" fill="#52b0fa" stroke="none" transform="matrix(1 0 0 1 537 2172 )" />
    <path d="M 2.28350449018171 2.84814501557028  C 2.25841103424568 4.68303794548459  2.4748420916942 5.79497520279881  2.65990632922268 7.51985313905649  C 2.16431057448546 7.44912921456302  0.762213724057972 6.95013263619231  0.404631976968972 7.51985313905649  C -0.254071241352676 8.46283879896967  1.03196837537052 11.7711468224982  1.09783869720263 12.9066587213102  C 1.09783869720263 12.9066587213102  0.621063034417489 17.1540232978355  0.621063034417489 17.1540232978355  C 0.592832896489426 17.637303448541  0.595969578481458 18.1127253854139  0.781033816009995 18.5567144669563  C 1.11979547114674 19.3621813847987  2.69127314914272 20.5959209565184  3.41271000730455 20.7059359501749  C 3.94908262793791 20.784518088501  6.43019808361623 20.1440736611433  7.1296781678339 19.9829802775748  C 7.1296781678339 19.9829802775748  7.1296781678339 17.6255161277921  7.1296781678339 17.6255161277921  C 7.26769217548235 16.3642728076582  8.0330425815323 13.1188304947907  8.84544321746233 12.376229287609  C 9.21243501052714 12.0383260928068  9.5072831177759 12.0265387720579  9.93700855068096 11.9636730613971  C 9.93700855068096 11.9636730613971  8.61960211403766 7.09158048517932  8.61960211403766 7.09158048517932  C 8.61960211403766 7.09158048517932  7.11399475787391 7.56307331513588  7.11399475787391 7.56307331513588  C 7.11399475787391 7.56307331513588  6.07261633652729 5.20560916535308  6.07261633652729 5.20560916535308  C 6.07261633652729 5.20560916535308  5.60838740171016 2.37665218561378  5.60838740171016 2.37665218561378  C 5.60838740171016 2.37665218561378  6.92579383835346 1.90515935565722  6.92579383835346 1.90515935565722  C 5.80286168521457 0.309941947637554  3.25587590770425 -1.24598439121914  2.39642504189408 1.66941294067888  C 2.28664117217375 2.03874899081157  2.28977785416578 2.46309253777241  2.28350449018171 2.84814501557028  Z " stroke-width="2.13294375456538" stroke="#ffffff" fill="none" transform="matrix(1 0 0 1 537 2172 )" mask="url(#clip5)" />
  </g>
</svg>