<?xml version="1.0" encoding="utf-8"?>
<svg version="1.1" xmlns:xlink="http://www.w3.org/1999/xlink" width="27px" height="52px" xmlns="http://www.w3.org/2000/svg">
  <defs>
    <mask fill="white" id="clip26">
      <path d="M 3.69756933074734 23.1293440047086  C 2.47627515679699 23.3806937795271  1.15237903327375 23.1253543257432  0.123049797234273 24.0669185615715  C 0.123049797234273 24.0669185615715  3.10181607516193 24.5456800374163  3.10181607516193 24.5456800374163  C 3.10181607516193 24.5456800374163  2.10889398251925 26.8596938373333  2.10889398251925 26.8596938373333  C 4.17417193521572 27.0711468224981  3.85643686557012 27.645660593512  5.14723558600542 29.1417902055273  C 6.20966222513283 30.3746010058279  7.39454925568623 31.5316079057864  7.61630185637637 33.4626125250274  C 7.77847913150805 34.3124141446521  7.36476159290703 35.2140815908266  7.61630185637637 36.1955426163087  C 7.89762978262513 37.7754554865968  8.64232135210705 37.6437960807394  8.82435706909143 40.7437766368352  C 8.92695901866455 42.5231734553919  8.08628498022722 43.3729750750167  8.44042719326973 44.5778581225596  C 8.85414473187075 45.9702560814752  11.8726278935039 48.2643214865652  13.027727261278 48.7191448886179  C 13.5341175285257 48.9186288368866  14.4244376715951 48.8827217261983  14.9473766403868 48.8867114051636  C 14.9473766403868 48.8867114051636  13.755870129216 49.8442343568535  13.755870129216 49.8442343568535  C 13.755870129216 49.8442343568535  15.3445454774439 50.2272435375293  15.3445454774439 50.2272435375293  C 15.3445454774439 50.2272435375293  17.1318052442003 51.7592802602329  17.1318052442003 51.7592802602329  C 18.0750812322107 49.1619992537744  17.6249565502128 49.0143811320556  17.5289740812574 46.4929040259391  C 18.0982494143724 46.4929040259391  18.9951890380596 46.5487595314545  19.5148182665424 46.3173581514627  C 19.9086773632905 46.1418122769863  20.3720410065237 45.7348650225181  20.6798468552429 45.3837732735652  C 21.0571572504471 44.9568776242702  21.2060955643435 44.6895691335902  21.3583436185486 44.0951069677494  C 21.7257247928263 42.6867502929723  21.4245384247248 41.2025897178531  20.4316163320823 40.2650151609903  C 19.6207299564242 39.4989967996384  18.4093650034004 39.6346458844612  18.0055766857258 37.3924463059209  C 17.8798065539911 36.7022318449112  17.8665675927559 35.4175552180608  18.1247273368429 34.7831962625662  C 18.3564091584595 34.2126721705177  18.7039318908843 34.0052088643183  18.8594896853983 33.3030253664124  C 18.8594896853983 33.3030253664124  19.0018085186771 30.9291663820149  19.0018085186771 30.9291663820149  C 19.0944812473238 30.4703533009969  19.2467293015289 30.1392099468709  19.4386942394398 29.7322626924027  C 20.6997052970957 27.0711468224981  21.9143799904284 28.10447367453  23.9002241757134 28.7747397407129  C 23.9002241757134 28.7747397407129  23.9002241757134 26.3809323614884  23.9002241757134 26.3809323614884  C 23.9002241757134 26.3809323614884  25.478970303015 20.7155882306571  25.478970303015 20.7155882306571  C 25.478970303015 20.7155882306571  26.8624417520969 18.0784104345449  26.8624417520969 18.0784104345449  C 24.356968338329 17.0251351876862  24.7475176947684 16.191292283923  23.287922218584 15.3973461698136  C 21.9805747966046 14.6911729929423  21.0869449132264 15.1858931846487  20.1105715221278 14.7988943250074  C 19.4751013828367 14.5515342291543  18.5351351351351 13.909195915729  18.4192942243268 13.0434355802429  C 18.3630286390771 12.6125502519824  18.6013299413113 11.3956981675434  18.6708344877962 10.8969882968716  C 19.0911715070149 7.99649168904469  19.4982695649983 7.57757539768036  20.3356338631268 4.91246984881045  C 20.7890682854336 3.38841248403756  21.0108208861238 3.10514527749604  20.3356338631268 1.56512919686162  C 20.1701468476865 1.12626451067044  19.9848013903931 0.68341014551396  19.6372786579682 0.396153260006997  C 18.190922143019 -0.808729787535924  15.9601571748822 1.28585166928542  15.0235006674894 2.55855925923979  C 13.1237097302334 5.13589187087146  12.4485227072365 8.57499513902383  12.4319740056924 11.8545112485614  C 12.4220447847661 14.7310697825961  11.6674239943577 14.2922050964049  11.6078486687992 16.8815067449327  C 11.6343265912697 17.3602682207776  11.664114254049 18.3816260359134  11.6078486687992 18.8005423272777  C 11.0518122969194 21.3020710385672  8.59598498778365 20.7514953413456  7.07350444573177 21.4616581971822  C 5.5444044230623 22.1718210530188  5.73967910128204 22.7104277133443  3.69756933074734 23.1293440047086  Z " fill-rule="evenodd" />
    </mask>
  </defs>
  <g transform="matrix(1 0 0 1 -438 -2192 )">
    <path d="M 3.69756933074734 23.1293440047086  C 2.47627515679699 23.3806937795271  1.15237903327375 23.1253543257432  0.123049797234273 24.0669185615715  C 0.123049797234273 24.0669185615715  3.10181607516193 24.5456800374163  3.10181607516193 24.5456800374163  C 3.10181607516193 24.5456800374163  2.10889398251925 26.8596938373333  2.10889398251925 26.8596938373333  C 4.17417193521572 27.0711468224981  3.85643686557012 27.645660593512  5.14723558600542 29.1417902055273  C 6.20966222513283 30.3746010058279  7.39454925568623 31.5316079057864  7.61630185637637 33.4626125250274  C 7.77847913150805 34.3124141446521  7.36476159290703 35.2140815908266  7.61630185637637 36.1955426163087  C 7.89762978262513 37.7754554865968  8.64232135210705 37.6437960807394  8.82435706909143 40.7437766368352  C 8.92695901866455 42.5231734553919  8.08628498022722 43.3729750750167  8.44042719326973 44.5778581225596  C 8.85414473187075 45.9702560814752  11.8726278935039 48.2643214865652  13.027727261278 48.7191448886179  C 13.5341175285257 48.9186288368866  14.4244376715951 48.8827217261983  14.9473766403868 48.8867114051636  C 14.9473766403868 48.8867114051636  13.755870129216 49.8442343568535  13.755870129216 49.8442343568535  C 13.755870129216 49.8442343568535  15.3445454774439 50.2272435375293  15.3445454774439 50.2272435375293  C 15.3445454774439 50.2272435375293  17.1318052442003 51.7592802602329  17.1318052442003 51.7592802602329  C 18.0750812322107 49.1619992537744  17.6249565502128 49.0143811320556  17.5289740812574 46.4929040259391  C 18.0982494143724 46.4929040259391  18.9951890380596 46.5487595314545  19.5148182665424 46.3173581514627  C 19.9086773632905 46.1418122769863  20.3720410065237 45.7348650225181  20.6798468552429 45.3837732735652  C 21.0571572504471 44.9568776242702  21.2060955643435 44.6895691335902  21.3583436185486 44.0951069677494  C 21.7257247928263 42.6867502929723  21.4245384247248 41.2025897178531  20.4316163320823 40.2650151609903  C 19.6207299564242 39.4989967996384  18.4093650034004 39.6346458844612  18.0055766857258 37.3924463059209  C 17.8798065539911 36.7022318449112  17.8665675927559 35.4175552180608  18.1247273368429 34.7831962625662  C 18.3564091584595 34.2126721705177  18.7039318908843 34.0052088643183  18.8594896853983 33.3030253664124  C 18.8594896853983 33.3030253664124  19.0018085186771 30.9291663820149  19.0018085186771 30.9291663820149  C 19.0944812473238 30.4703533009969  19.2467293015289 30.1392099468709  19.4386942394398 29.7322626924027  C 20.6997052970957 27.0711468224981  21.9143799904284 28.10447367453  23.9002241757134 28.7747397407129  C 23.9002241757134 28.7747397407129  23.9002241757134 26.3809323614884  23.9002241757134 26.3809323614884  C 23.9002241757134 26.3809323614884  25.478970303015 20.7155882306571  25.478970303015 20.7155882306571  C 25.478970303015 20.7155882306571  26.8624417520969 18.0784104345449  26.8624417520969 18.0784104345449  C 24.356968338329 17.0251351876862  24.7475176947684 16.191292283923  23.287922218584 15.3973461698136  C 21.9805747966046 14.6911729929423  21.0869449132264 15.1858931846487  20.1105715221278 14.7988943250074  C 19.4751013828367 14.5515342291543  18.5351351351351 13.909195915729  18.4192942243268 13.0434355802429  C 18.3630286390771 12.6125502519824  18.6013299413113 11.3956981675434  18.6708344877962 10.8969882968716  C 19.0911715070149 7.99649168904469  19.4982695649983 7.57757539768036  20.3356338631268 4.91246984881045  C 20.7890682854336 3.38841248403756  21.0108208861238 3.10514527749604  20.3356338631268 1.56512919686162  C 20.1701468476865 1.12626451067044  19.9848013903931 0.68341014551396  19.6372786579682 0.396153260006997  C 18.190922143019 -0.808729787535924  15.9601571748822 1.28585166928542  15.0235006674894 2.55855925923979  C 13.1237097302334 5.13589187087146  12.4485227072365 8.57499513902383  12.4319740056924 11.8545112485614  C 12.4220447847661 14.7310697825961  11.6674239943577 14.2922050964049  11.6078486687992 16.8815067449327  C 11.6343265912697 17.3602682207776  11.664114254049 18.3816260359134  11.6078486687992 18.8005423272777  C 11.0518122969194 21.3020710385672  8.59598498778365 20.7514953413456  7.07350444573177 21.4616581971822  C 5.5444044230623 22.1718210530188  5.73967910128204 22.7104277133443  3.69756933074734 23.1293440047086  Z " fill-rule="nonzero" fill="#1c8dff" stroke="none" transform="matrix(1 0 0 1 438 2192 )" />
    <path d="M 3.69756933074734 23.1293440047086  C 2.47627515679699 23.3806937795271  1.15237903327375 23.1253543257432  0.123049797234273 24.0669185615715  C 0.123049797234273 24.0669185615715  3.10181607516193 24.5456800374163  3.10181607516193 24.5456800374163  C 3.10181607516193 24.5456800374163  2.10889398251925 26.8596938373333  2.10889398251925 26.8596938373333  C 4.17417193521572 27.0711468224981  3.85643686557012 27.645660593512  5.14723558600542 29.1417902055273  C 6.20966222513283 30.3746010058279  7.39454925568623 31.5316079057864  7.61630185637637 33.4626125250274  C 7.77847913150805 34.3124141446521  7.36476159290703 35.2140815908266  7.61630185637637 36.1955426163087  C 7.89762978262513 37.7754554865968  8.64232135210705 37.6437960807394  8.82435706909143 40.7437766368352  C 8.92695901866455 42.5231734553919  8.08628498022722 43.3729750750167  8.44042719326973 44.5778581225596  C 8.85414473187075 45.9702560814752  11.8726278935039 48.2643214865652  13.027727261278 48.7191448886179  C 13.5341175285257 48.9186288368866  14.4244376715951 48.8827217261983  14.9473766403868 48.8867114051636  C 14.9473766403868 48.8867114051636  13.755870129216 49.8442343568535  13.755870129216 49.8442343568535  C 13.755870129216 49.8442343568535  15.3445454774439 50.2272435375293  15.3445454774439 50.2272435375293  C 15.3445454774439 50.2272435375293  17.1318052442003 51.7592802602329  17.1318052442003 51.7592802602329  C 18.0750812322107 49.1619992537744  17.6249565502128 49.0143811320556  17.5289740812574 46.4929040259391  C 18.0982494143724 46.4929040259391  18.9951890380596 46.5487595314545  19.5148182665424 46.3173581514627  C 19.9086773632905 46.1418122769863  20.3720410065237 45.7348650225181  20.6798468552429 45.3837732735652  C 21.0571572504471 44.9568776242702  21.2060955643435 44.6895691335902  21.3583436185486 44.0951069677494  C 21.7257247928263 42.6867502929723  21.4245384247248 41.2025897178531  20.4316163320823 40.2650151609903  C 19.6207299564242 39.4989967996384  18.4093650034004 39.6346458844612  18.0055766857258 37.3924463059209  C 17.8798065539911 36.7022318449112  17.8665675927559 35.4175552180608  18.1247273368429 34.7831962625662  C 18.3564091584595 34.2126721705177  18.7039318908843 34.0052088643183  18.8594896853983 33.3030253664124  C 18.8594896853983 33.3030253664124  19.0018085186771 30.9291663820149  19.0018085186771 30.9291663820149  C 19.0944812473238 30.4703533009969  19.2467293015289 30.1392099468709  19.4386942394398 29.7322626924027  C 20.6997052970957 27.0711468224981  21.9143799904284 28.10447367453  23.9002241757134 28.7747397407129  C 23.9002241757134 28.7747397407129  23.9002241757134 26.3809323614884  23.9002241757134 26.3809323614884  C 23.9002241757134 26.3809323614884  25.478970303015 20.7155882306571  25.478970303015 20.7155882306571  C 25.478970303015 20.7155882306571  26.8624417520969 18.0784104345449  26.8624417520969 18.0784104345449  C 24.356968338329 17.0251351876862  24.7475176947684 16.191292283923  23.287922218584 15.3973461698136  C 21.9805747966046 14.6911729929423  21.0869449132264 15.1858931846487  20.1105715221278 14.7988943250074  C 19.4751013828367 14.5515342291543  18.5351351351351 13.909195915729  18.4192942243268 13.0434355802429  C 18.3630286390771 12.6125502519824  18.6013299413113 11.3956981675434  18.6708344877962 10.8969882968716  C 19.0911715070149 7.99649168904469  19.4982695649983 7.57757539768036  20.3356338631268 4.91246984881045  C 20.7890682854336 3.38841248403756  21.0108208861238 3.10514527749604  20.3356338631268 1.56512919686162  C 20.1701468476865 1.12626451067044  19.9848013903931 0.68341014551396  19.6372786579682 0.396153260006997  C 18.190922143019 -0.808729787535924  15.9601571748822 1.28585166928542  15.0235006674894 2.55855925923979  C 13.1237097302334 5.13589187087146  12.4485227072365 8.57499513902383  12.4319740056924 11.8545112485614  C 12.4220447847661 14.7310697825961  11.6674239943577 14.2922050964049  11.6078486687992 16.8815067449327  C 11.6343265912697 17.3602682207776  11.664114254049 18.3816260359134  11.6078486687992 18.8005423272777  C 11.0518122969194 21.3020710385672  8.59598498778365 20.7514953413456  7.07350444573177 21.4616581971822  C 5.5444044230623 22.1718210530188  5.73967910128204 22.7104277133443  3.69756933074734 23.1293440047086  Z " stroke-width="2.13294375456538" stroke="#ffffff" fill="none" transform="matrix(1 0 0 1 438 2192 )" mask="url(#clip26)" />
  </g>
</svg>