<?xml version="1.0" encoding="utf-8"?>
<svg version="1.1" xmlns:xlink="http://www.w3.org/1999/xlink" width="43px" height="64px" xmlns="http://www.w3.org/2000/svg">
  <defs>
    <mask fill="white" id="clip62">
      <path d="M 13.5451481383625 8.88346839685477  C 13.1906407845454 9.69850384565805  11.6945547042155 10.2043879173291  10.6017613933658 11.8264289090362  C 10.6017613933658 11.8264289090362  8.17875241544021 8.99990203239804  8.17875241544021 8.99990203239804  C 7.06319257728103 7.7392068061703  5.47604038771374 8.04032827740295  5.05973817405675 9.22473939758521  C 4.88411067767021 9.72259356335658  4.96216734273082 11.5534121084519  4.88736303871434 12.3082232630086  C 4.60765998891355 15.1106604219481  4.01573027887002 14.8456735272633  3.69049417445035 16.1625780947879  C 3.45957654031253 17.0820023202853  3.79782208890896 17.8970377690886  3.69049417445035 18.5595050058007  C 3.55389501059426 19.4829441842478  2.32450253588837 20.6031160572337  1.6252449113864 20.8560580930692  C 1.23170922503868 21.0005963992609  0.678807847525377 20.9765066815622  0.262505633868386 20.980521634512  C 0.40886188085733 21.7554075538177  0.571479933066996 22.622637390968  1.11787658849187 23.1285214626391  C 1.61223546720964 23.5862260989128  2.45459697765625 23.6584952520087  2.87740391340151 24.2366484767756  C 3.31322029332387 24.8308615133416  3.36851043107504 26.4529025050487  3.38151987525191 27.2438482361535  C 3.38151987525191 27.2438482361535  5.52807816442083 27.6573883899797  5.52807816442083 27.6573883899797  C 6.76072300017091 27.846091178619  7.68764589776669 27.5489846603359  8.83572934636754 28.4684088858334  C 9.55450113713471 29.0425471576504  9.62280071906292 29.6528200060155  9.78541877127259 30.6164087139603  C 10.0391029327199 32.1541356937223  10.487928756819 35.582905512826  9.78541877127259 36.9881390452455  C 9.37562127970409 37.8152193528982  8.68612073833458 37.6827259055557  8.08443394515848 38.080206247583  C 7.11848271503243 38.7225987195462  6.14277440177392 40.7140153826322  6.25985939936481 42.1031891032526  C 6.56883369856331 45.7487663816439  12.9206948178771 44.628594508658  11.0603443005973 48.8483100588664  C 10.8424361106361 49.3461642246379  10.4976858399515 49.8520482963091  10.2114780680623 50.2936931207837  C 10.2114780680623 50.2936931207837  11.6685358158618 53.4253564216044  11.6685358158618 53.4253564216044  C 11.6685358158618 53.4253564216044  12.2149324712868 55.5974459674301  12.2149324712868 55.5974459674301  C 12.2149324712868 55.5974459674301  13.2882116158711 57.765520560306  13.2882116158711 57.765520560306  C 13.2882116158711 57.765520560306  14.3094529837485 61.378978215099  14.3094529837485 61.378978215099  C 14.3094529837485 61.378978215099  16.5503297431993 60.7004511665878  16.5503297431993 60.7004511665878  C 16.5503297431993 60.7004511665878  18.0789394339711 58.4922270442144  18.0789394339711 58.4922270442144  C 18.0789394339711 58.4922270442144  20.3588445259521 58.2473149142784  20.3588445259521 58.2473149142784  C 20.3588445259521 62.3505968289434  20.1181698086816 60.4314493189532  19.3831362126934 63.3061556309887  C 20.4856866066758 63.683561208267  21.9297349102984 63.5831873845228  22.6387496179331 62.2622678640485  C 23.1396132187391 61.3267838267519  22.739572810303 59.78905684699  24.5836615223619 59.9456400120311  C 25.8260634412446 60.0540437416749  25.78378274767 61.1461109440123  26.7497339777961 61.7844884630257  C 26.7497339777961 61.7844884630257  30.0476280766102 62.7601220298199  30.0476280766102 62.7601220298199  C 30.0476280766102 62.7601220298199  32.9747530163861 63.9244583852533  32.9747530163861 63.9244583852533  C 33.9797325790425 64.0047574442488  35.0432546404945 62.6758080178747  35.7034839324661 61.8567576161217  C 36.6922016899015 60.6321969664418  38.3606629055737 57.1191131353929  38.3639152666179 55.3525338374941  C 38.3704199887064 54.569618012289  37.9118370814747 52.9636368323808  37.6581529200275 52.2208705366733  C 39.6811214895172 51.3897752760709  39.8665060690362 51.4499995703175  41.7528754746696 50.0527959437975  C 41.7528754746696 50.0527959437975  40.3901361971517 47.1620298199629  40.3901361971517 47.1620298199629  C 40.3901361971517 47.1620298199629  42.3383004626247 46.6802354659906  42.3383004626247 46.6802354659906  C 42.7708644815027 42.9021647402569  42.92372545058 44.9176711210415  42.92372545058 40.1760116873631  C 42.92372545058 40.1760116873631  39.414427883893 39.1000042968246  39.414427883893 39.1000042968246  C 39.414427883893 39.1000042968246  35.901877956162 40.4169088643492  35.901877956162 40.4169088643492  C 36.018962953753 38.6342697546512  36.451526972631 36.7873913977569  35.3749954670024 35.2416345120955  C 34.3505017380808 33.7761766854294  31.9600163705971 33.0976496369182  31.8169124846526 30.8573058909465  C 31.6705562376638 28.6169621449748  32.6169933015247 28.3760649679886  33.0267907930933 27.0029510591672  C 33.0267907930933 27.0029510591672  33.5601780043414 22.6668018734155  33.5601780043414 22.6668018734155  C 34.1748742416942 22.8715644738537  35.1115542224225 23.4175980750225  35.7067362935103 23.2248803334335  C 36.9654000176139 22.8193700855068  37.332916815608 21.6630636359729  36.9393811292603 20.2618450565033  C 36.815791409581 19.8161852790787  36.7052111340783 19.4106750311519  36.3864797517471 19.1175834658187  C 34.0122561894846 16.9173892493446  32.5649555248174 21.2655832939457  30.8281947272171 21.1090001289047  C 29.5044837822297 20.9885515404117  29.1304622621471 19.201897477764  28.4962518585289 18.1138452283762  C 27.8165084002922 16.9575387788424  27.0424464717736 17.086017273235  26.5123116215698 15.6767687878657  C 26.0374669091173 14.4160735616379  26.6033777308073 13.7415614660765  26.8212859207684 12.5491204399947  C 26.9708945288014 11.742114897091  26.9253614741826 10.2887019292743  26.9253614741826 9.41344218622433  C 26.3692077356252 9.41344218622433  25.6764548332116 9.48169638637035  25.1690865103172 9.16853005628835  C 24.4242958311962 8.70681046706477  23.455092240026 7.10082928715676  22.4371032331931 6.53472092123911  C 21.7313408866025 6.18542001460915  20.8857270151117 6.50661625059072  20.1637028633003 6.53472092123911  C 19.4156598231355 6.50661625059072  18.6871309492355 6.24162935590593  18.0171445741314 5.84816396682848  C 16.3812069689011 4.90063507068274  16.6576576576578 4.23013792807114  15.9421382279346 3.27859407897566  C 15.5778737909847 2.79278477205341  14.2346486797321 1.79306148756064  13.7240279957935 1.43171572208138  C 12.7223007941811 0.729098955871564  11.0993726331276 -0.696209341296878  10.0521123768966 0.436007390538322  C 9.62280071906292 0.897726979761927  9.57076294235583 1.27914750999011  9.63906252428376 1.94562969965185  C 9.93502737930567 4.89662011773302  12.2084277491983 4.05749495123095  13.219912033943 6.76357323937603  C 13.4410725849483 7.36983113479127  13.8215988271191 8.23706097194167  13.5451481383625 8.88346839685477  Z " fill-rule="evenodd" />
    </mask>
  </defs>
  <g transform="matrix(1 0 0 1 -528 -2245 )">
    <path d="M 13.5451481383625 8.88346839685477  C 13.1906407845454 9.69850384565805  11.6945547042155 10.2043879173291  10.6017613933658 11.8264289090362  C 10.6017613933658 11.8264289090362  8.17875241544021 8.99990203239804  8.17875241544021 8.99990203239804  C 7.06319257728103 7.7392068061703  5.47604038771374 8.04032827740295  5.05973817405675 9.22473939758521  C 4.88411067767021 9.72259356335658  4.96216734273082 11.5534121084519  4.88736303871434 12.3082232630086  C 4.60765998891355 15.1106604219481  4.01573027887002 14.8456735272633  3.69049417445035 16.1625780947879  C 3.45957654031253 17.0820023202853  3.79782208890896 17.8970377690886  3.69049417445035 18.5595050058007  C 3.55389501059426 19.4829441842478  2.32450253588837 20.6031160572337  1.6252449113864 20.8560580930692  C 1.23170922503868 21.0005963992609  0.678807847525377 20.9765066815622  0.262505633868386 20.980521634512  C 0.40886188085733 21.7554075538177  0.571479933066996 22.622637390968  1.11787658849187 23.1285214626391  C 1.61223546720964 23.5862260989128  2.45459697765625 23.6584952520087  2.87740391340151 24.2366484767756  C 3.31322029332387 24.8308615133416  3.36851043107504 26.4529025050487  3.38151987525191 27.2438482361535  C 3.38151987525191 27.2438482361535  5.52807816442083 27.6573883899797  5.52807816442083 27.6573883899797  C 6.76072300017091 27.846091178619  7.68764589776669 27.5489846603359  8.83572934636754 28.4684088858334  C 9.55450113713471 29.0425471576504  9.62280071906292 29.6528200060155  9.78541877127259 30.6164087139603  C 10.0391029327199 32.1541356937223  10.487928756819 35.582905512826  9.78541877127259 36.9881390452455  C 9.37562127970409 37.8152193528982  8.68612073833458 37.6827259055557  8.08443394515848 38.080206247583  C 7.11848271503243 38.7225987195462  6.14277440177392 40.7140153826322  6.25985939936481 42.1031891032526  C 6.56883369856331 45.7487663816439  12.9206948178771 44.628594508658  11.0603443005973 48.8483100588664  C 10.8424361106361 49.3461642246379  10.4976858399515 49.8520482963091  10.2114780680623 50.2936931207837  C 10.2114780680623 50.2936931207837  11.6685358158618 53.4253564216044  11.6685358158618 53.4253564216044  C 11.6685358158618 53.4253564216044  12.2149324712868 55.5974459674301  12.2149324712868 55.5974459674301  C 12.2149324712868 55.5974459674301  13.2882116158711 57.765520560306  13.2882116158711 57.765520560306  C 13.2882116158711 57.765520560306  14.3094529837485 61.378978215099  14.3094529837485 61.378978215099  C 14.3094529837485 61.378978215099  16.5503297431993 60.7004511665878  16.5503297431993 60.7004511665878  C 16.5503297431993 60.7004511665878  18.0789394339711 58.4922270442144  18.0789394339711 58.4922270442144  C 18.0789394339711 58.4922270442144  20.3588445259521 58.2473149142784  20.3588445259521 58.2473149142784  C 20.3588445259521 62.3505968289434  20.1181698086816 60.4314493189532  19.3831362126934 63.3061556309887  C 20.4856866066758 63.683561208267  21.9297349102984 63.5831873845228  22.6387496179331 62.2622678640485  C 23.1396132187391 61.3267838267519  22.739572810303 59.78905684699  24.5836615223619 59.9456400120311  C 25.8260634412446 60.0540437416749  25.78378274767 61.1461109440123  26.7497339777961 61.7844884630257  C 26.7497339777961 61.7844884630257  30.0476280766102 62.7601220298199  30.0476280766102 62.7601220298199  C 30.0476280766102 62.7601220298199  32.9747530163861 63.9244583852533  32.9747530163861 63.9244583852533  C 33.9797325790425 64.0047574442488  35.0432546404945 62.6758080178747  35.7034839324661 61.8567576161217  C 36.6922016899015 60.6321969664418  38.3606629055737 57.1191131353929  38.3639152666179 55.3525338374941  C 38.3704199887064 54.569618012289  37.9118370814747 52.9636368323808  37.6581529200275 52.2208705366733  C 39.6811214895172 51.3897752760709  39.8665060690362 51.4499995703175  41.7528754746696 50.0527959437975  C 41.7528754746696 50.0527959437975  40.3901361971517 47.1620298199629  40.3901361971517 47.1620298199629  C 40.3901361971517 47.1620298199629  42.3383004626247 46.6802354659906  42.3383004626247 46.6802354659906  C 42.7708644815027 42.9021647402569  42.92372545058 44.9176711210415  42.92372545058 40.1760116873631  C 42.92372545058 40.1760116873631  39.414427883893 39.1000042968246  39.414427883893 39.1000042968246  C 39.414427883893 39.1000042968246  35.901877956162 40.4169088643492  35.901877956162 40.4169088643492  C 36.018962953753 38.6342697546512  36.451526972631 36.7873913977569  35.3749954670024 35.2416345120955  C 34.3505017380808 33.7761766854294  31.9600163705971 33.0976496369182  31.8169124846526 30.8573058909465  C 31.6705562376638 28.6169621449748  32.6169933015247 28.3760649679886  33.0267907930933 27.0029510591672  C 33.0267907930933 27.0029510591672  33.5601780043414 22.6668018734155  33.5601780043414 22.6668018734155  C 34.1748742416942 22.8715644738537  35.1115542224225 23.4175980750225  35.7067362935103 23.2248803334335  C 36.9654000176139 22.8193700855068  37.332916815608 21.6630636359729  36.9393811292603 20.2618450565033  C 36.815791409581 19.8161852790787  36.7052111340783 19.4106750311519  36.3864797517471 19.1175834658187  C 34.0122561894846 16.9173892493446  32.5649555248174 21.2655832939457  30.8281947272171 21.1090001289047  C 29.5044837822297 20.9885515404117  29.1304622621471 19.201897477764  28.4962518585289 18.1138452283762  C 27.8165084002922 16.9575387788424  27.0424464717736 17.086017273235  26.5123116215698 15.6767687878657  C 26.0374669091173 14.4160735616379  26.6033777308073 13.7415614660765  26.8212859207684 12.5491204399947  C 26.9708945288014 11.742114897091  26.9253614741826 10.2887019292743  26.9253614741826 9.41344218622433  C 26.3692077356252 9.41344218622433  25.6764548332116 9.48169638637035  25.1690865103172 9.16853005628835  C 24.4242958311962 8.70681046706477  23.455092240026 7.10082928715676  22.4371032331931 6.53472092123911  C 21.7313408866025 6.18542001460915  20.8857270151117 6.50661625059072  20.1637028633003 6.53472092123911  C 19.4156598231355 6.50661625059072  18.6871309492355 6.24162935590593  18.0171445741314 5.84816396682848  C 16.3812069689011 4.90063507068274  16.6576576576578 4.23013792807114  15.9421382279346 3.27859407897566  C 15.5778737909847 2.79278477205341  14.2346486797321 1.79306148756064  13.7240279957935 1.43171572208138  C 12.7223007941811 0.729098955871564  11.0993726331276 -0.696209341296878  10.0521123768966 0.436007390538322  C 9.62280071906292 0.897726979761927  9.57076294235583 1.27914750999011  9.63906252428376 1.94562969965185  C 9.93502737930567 4.89662011773302  12.2084277491983 4.05749495123095  13.219912033943 6.76357323937603  C 13.4410725849483 7.36983113479127  13.8215988271191 8.23706097194167  13.5451481383625 8.88346839685477  Z " fill-rule="nonzero" fill="#1c8dff" stroke="none" transform="matrix(1 0 0 1 528 2245 )" />
    <path d="M 13.5451481383625 8.88346839685477  C 13.1906407845454 9.69850384565805  11.6945547042155 10.2043879173291  10.6017613933658 11.8264289090362  C 10.6017613933658 11.8264289090362  8.17875241544021 8.99990203239804  8.17875241544021 8.99990203239804  C 7.06319257728103 7.7392068061703  5.47604038771374 8.04032827740295  5.05973817405675 9.22473939758521  C 4.88411067767021 9.72259356335658  4.96216734273082 11.5534121084519  4.88736303871434 12.3082232630086  C 4.60765998891355 15.1106604219481  4.01573027887002 14.8456735272633  3.69049417445035 16.1625780947879  C 3.45957654031253 17.0820023202853  3.79782208890896 17.8970377690886  3.69049417445035 18.5595050058007  C 3.55389501059426 19.4829441842478  2.32450253588837 20.6031160572337  1.6252449113864 20.8560580930692  C 1.23170922503868 21.0005963992609  0.678807847525377 20.9765066815622  0.262505633868386 20.980521634512  C 0.40886188085733 21.7554075538177  0.571479933066996 22.622637390968  1.11787658849187 23.1285214626391  C 1.61223546720964 23.5862260989128  2.45459697765625 23.6584952520087  2.87740391340151 24.2366484767756  C 3.31322029332387 24.8308615133416  3.36851043107504 26.4529025050487  3.38151987525191 27.2438482361535  C 3.38151987525191 27.2438482361535  5.52807816442083 27.6573883899797  5.52807816442083 27.6573883899797  C 6.76072300017091 27.846091178619  7.68764589776669 27.5489846603359  8.83572934636754 28.4684088858334  C 9.55450113713471 29.0425471576504  9.62280071906292 29.6528200060155  9.78541877127259 30.6164087139603  C 10.0391029327199 32.1541356937223  10.487928756819 35.582905512826  9.78541877127259 36.9881390452455  C 9.37562127970409 37.8152193528982  8.68612073833458 37.6827259055557  8.08443394515848 38.080206247583  C 7.11848271503243 38.7225987195462  6.14277440177392 40.7140153826322  6.25985939936481 42.1031891032526  C 6.56883369856331 45.7487663816439  12.9206948178771 44.628594508658  11.0603443005973 48.8483100588664  C 10.8424361106361 49.3461642246379  10.4976858399515 49.8520482963091  10.2114780680623 50.2936931207837  C 10.2114780680623 50.2936931207837  11.6685358158618 53.4253564216044  11.6685358158618 53.4253564216044  C 11.6685358158618 53.4253564216044  12.2149324712868 55.5974459674301  12.2149324712868 55.5974459674301  C 12.2149324712868 55.5974459674301  13.2882116158711 57.765520560306  13.2882116158711 57.765520560306  C 13.2882116158711 57.765520560306  14.3094529837485 61.378978215099  14.3094529837485 61.378978215099  C 14.3094529837485 61.378978215099  16.5503297431993 60.7004511665878  16.5503297431993 60.7004511665878  C 16.5503297431993 60.7004511665878  18.0789394339711 58.4922270442144  18.0789394339711 58.4922270442144  C 18.0789394339711 58.4922270442144  20.3588445259521 58.2473149142784  20.3588445259521 58.2473149142784  C 20.3588445259521 62.3505968289434  20.1181698086816 60.4314493189532  19.3831362126934 63.3061556309887  C 20.4856866066758 63.683561208267  21.9297349102984 63.5831873845228  22.6387496179331 62.2622678640485  C 23.1396132187391 61.3267838267519  22.739572810303 59.78905684699  24.5836615223619 59.9456400120311  C 25.8260634412446 60.0540437416749  25.78378274767 61.1461109440123  26.7497339777961 61.7844884630257  C 26.7497339777961 61.7844884630257  30.0476280766102 62.7601220298199  30.0476280766102 62.7601220298199  C 30.0476280766102 62.7601220298199  32.9747530163861 63.9244583852533  32.9747530163861 63.9244583852533  C 33.9797325790425 64.0047574442488  35.0432546404945 62.6758080178747  35.7034839324661 61.8567576161217  C 36.6922016899015 60.6321969664418  38.3606629055737 57.1191131353929  38.3639152666179 55.3525338374941  C 38.3704199887064 54.569618012289  37.9118370814747 52.9636368323808  37.6581529200275 52.2208705366733  C 39.6811214895172 51.3897752760709  39.8665060690362 51.4499995703175  41.7528754746696 50.0527959437975  C 41.7528754746696 50.0527959437975  40.3901361971517 47.1620298199629  40.3901361971517 47.1620298199629  C 40.3901361971517 47.1620298199629  42.3383004626247 46.6802354659906  42.3383004626247 46.6802354659906  C 42.7708644815027 42.9021647402569  42.92372545058 44.9176711210415  42.92372545058 40.1760116873631  C 42.92372545058 40.1760116873631  39.414427883893 39.1000042968246  39.414427883893 39.1000042968246  C 39.414427883893 39.1000042968246  35.901877956162 40.4169088643492  35.901877956162 40.4169088643492  C 36.018962953753 38.6342697546512  36.451526972631 36.7873913977569  35.3749954670024 35.2416345120955  C 34.3505017380808 33.7761766854294  31.9600163705971 33.0976496369182  31.8169124846526 30.8573058909465  C 31.6705562376638 28.6169621449748  32.6169933015247 28.3760649679886  33.0267907930933 27.0029510591672  C 33.0267907930933 27.0029510591672  33.5601780043414 22.6668018734155  33.5601780043414 22.6668018734155  C 34.1748742416942 22.8715644738537  35.1115542224225 23.4175980750225  35.7067362935103 23.2248803334335  C 36.9654000176139 22.8193700855068  37.332916815608 21.6630636359729  36.9393811292603 20.2618450565033  C 36.815791409581 19.8161852790787  36.7052111340783 19.4106750311519  36.3864797517471 19.1175834658187  C 34.0122561894846 16.9173892493446  32.5649555248174 21.2655832939457  30.8281947272171 21.1090001289047  C 29.5044837822297 20.9885515404117  29.1304622621471 19.201897477764  28.4962518585289 18.1138452283762  C 27.8165084002922 16.9575387788424  27.0424464717736 17.086017273235  26.5123116215698 15.6767687878657  C 26.0374669091173 14.4160735616379  26.6033777308073 13.7415614660765  26.8212859207684 12.5491204399947  C 26.9708945288014 11.742114897091  26.9253614741826 10.2887019292743  26.9253614741826 9.41344218622433  C 26.3692077356252 9.41344218622433  25.6764548332116 9.48169638637035  25.1690865103172 9.16853005628835  C 24.4242958311962 8.70681046706477  23.455092240026 7.10082928715676  22.4371032331931 6.53472092123911  C 21.7313408866025 6.18542001460915  20.8857270151117 6.50661625059072  20.1637028633003 6.53472092123911  C 19.4156598231355 6.50661625059072  18.6871309492355 6.24162935590593  18.0171445741314 5.84816396682848  C 16.3812069689011 4.90063507068274  16.6576576576578 4.23013792807114  15.9421382279346 3.27859407897566  C 15.5778737909847 2.79278477205341  14.2346486797321 1.79306148756064  13.7240279957935 1.43171572208138  C 12.7223007941811 0.729098955871564  11.0993726331276 -0.696209341296878  10.0521123768966 0.436007390538322  C 9.62280071906292 0.897726979761927  9.57076294235583 1.27914750999011  9.63906252428376 1.94562969965185  C 9.93502737930567 4.89662011773302  12.2084277491983 4.05749495123095  13.219912033943 6.76357323937603  C 13.4410725849483 7.36983113479127  13.8215988271191 8.23706097194167  13.5451481383625 8.88346839685477  Z " stroke-width="2.13294375456538" stroke="#ffffff" fill="none" transform="matrix(1 0 0 1 528 2245 )" mask="url(#clip62)" />
  </g>
</svg>