<?xml version="1.0" encoding="utf-8"?>
<svg version="1.1" xmlns:xlink="http://www.w3.org/1999/xlink" width="60px" height="49px" xmlns="http://www.w3.org/2000/svg">
  <defs>
    <mask fill="white" id="clip20">
      <path d="M 4.00610930340656 28.2368798112041  C 4.34220953139868 29.1815277855817  4.06104876375144 30.3874613698937  4.00610930340656 31.4044653593302  C 4.5619673727781 31.4326038096308  5.32788808464483 31.6697707478788  5.89344135290077 31.4044653593302  C 6.92436416760739 31.0105270551217  6.79509484914882 30.2869669045344  8.80200101821708 29.9251868292408  C 8.35602186953531 30.9019930325335  8.13949576111736 31.6215334045063  7.42528277663405 32.361172669551  C 7.42528277663405 32.361172669551  5.25355822653114 34.1781126032477  5.25355822653114 34.1781126032477  C 4.70416362308254 34.9177518682924  4.80757907784937 35.9468151935719  3.96732850786896 37.4059948305894  C 2.77805077805067 39.4681412597629  2.19310711202604 38.87723380345  1.64371250857732 39.6932488621678  C 1.25267282024038 40.2720969826375  0.509374239103863 43.2668320503455  0.273457732917166 44.1592229027363  C 2.13170418575811 44.1592229027363  3.01396728423748 43.7572450412991  4.53288177612501 45.3209389222903  C 6.61734953626842 47.4594611451368  4.9982513225757 48.7377507445075  7.44467317440279 48.7417705231219  C 9.11871084844068 48.7457903017362  9.30291962724385 48.3920497836713  10.5471368174071 48.2835157610833  C 11.4100095181176 48.2071399674102  12.117759036678 48.4041091195145  12.8448989530071 47.6403511827837  C 13.6754543241029 46.7680592234647  13.3231954313036 45.9158661572174  13.5720388693362 45.1440686632578  C 13.8273457732917 44.360211833455  15.1329658897226 43.2788913861887  15.7825442149766 43.0819222340844  C 17.349934701286 42.6075883575883  18.2031122031121 44.2154998033376  18.943179051287 45.6063432039107  C 19.172632091551 46.0364595156487  19.5022688536202 46.7961976737652  19.8933085419571 46.9971866044839  C 20.3845319520995 47.2504326571894  20.8143524359741 46.7600196662358  21.4057595679217 46.816296566837  C 22.3882063882064 46.9087514749677  22.944064457578 48.1589026240377  24.3110875002767 47.4474018092937  C 25.5488412245168 46.8042372309939  26.0271377028133 45.5138882957801  26.8318392102177 45.5018289599371  C 27.4361732740111 45.4937894027083  29.1619186754321 46.8645339102095  30.257476149368 47.2946502219475  C 30.3156473426744 46.4102989267854  30.3738185359807 45.4093740518065  30.900591008699 44.7340512445918  C 31.430595214379 44.0547086587627  32.3387121765499 43.8617592852728  32.7006662682338 43.0980013485418  C 33.043229962149 42.3784609765689  32.9559731721894 40.2640574254087  34.0159815835491 38.9455700398944  C 34.8594638864909 37.8923880429285  36.5431967594129 37.7436562341967  37.1346038913607 36.6221380007866  C 37.1346038913607 36.6221380007866  39.1447417933905 30.7170832162723  39.1447417933905 30.7170832162723  C 39.7070633286849 29.808613249424  40.5279235008966 30.0176417373714  41.0611594395377 28.9282817328762  C 41.0611594395377 28.9282817328762  42.334462226354 25.101452491993  42.334462226354 25.101452491993  C 42.4928171414658 24.1688638534584  42.1082409190517 22.9991082766758  42.334462226354 22.3398645839186  C 42.5348296699648 21.7811153565208  43.2231887907563 21.3791374950834  43.6368506098235 21.0816738776198  C 43.6368506098235 21.0816738776198  44.0214268322376 23.2523543293813  44.0214268322376 23.2523543293813  C 44.0214268322376 23.2523543293813  46.5421785421785 21.8052340282071  46.5421785421785 21.8052340282071  C 46.5421785421785 21.8052340282071  46.154370586803 18.4286199921335  46.154370586803 18.4286199921335  C 46.154370586803 18.4286199921335  47.705602408305 18.4286199921335  47.705602408305 18.4286199921335  C 47.9609093122608 16.6197196156655  47.9253602496844 16.5312844861493  46.5421785421785 15.7755661066471  C 48.7914646833565 14.5857116367927  48.4779865860946 15.2369157723212  51.0019700289969 13.1948682362195  C 51.0019700289969 13.1948682362195  54.1044336720012 10.2081727257402  54.1044336720012 10.2081727257402  C 54.6505965424884 9.82227397876045  55.1547468844766 9.8343333146035  55.6556654935033 9.57304770466931  C 56.1468889036456 9.31980165196379  56.6122584500962 8.77311176040902  57.0129933373176 8.78517109625213  C 57.4298868893464 8.79723043209529  58.1925758682515 9.65746305557118  58.5642251588197 9.98306512333534  C 58.5642251588197 9.98306512333534  58.9197157845805 7.08882452098669  58.9197157845805 7.08882452098669  C 58.9197157845805 7.08882452098669  59.8795404741351 4.91814406922509  59.8795404741351 4.91814406922509  C 59.8795404741351 4.91814406922509  59.8795404741351 2.50627690060116  59.8795404741351 2.50627690060116  C 59.8795404741351 2.50627690060116  57.5947052703809 3.11326347137157  57.5947052703809 3.11326347137157  C 56.7253691037473 3.08914479968533  55.668592425349 2.34548575602631  54.4922416273768 2.58667247288861  C 53.2835734997896 2.83187896836546  52.2978949465436 3.98153565207622  51.5836819620603 3.79662583581498  C 51.043982557496 3.6559335843119  50.6432476702746 2.90423498342417  50.0324501405581 2.66304826656173  C 49.0823206498882 2.27714951958194  49.1404918431945 3.24189638703146  47.3177944529295 1.87517165814464  C 46.5195564114483 1.27220486598864  45.5532682559709 0.0180339383041712  44.6031387653009 0.33961622745403  C 43.7596564623591 0.629040287688866  41.7592137592138 2.41784177108502  41.1904287579964 3.25395572287462  C 41.1904287579964 3.25395572287462  40.2661531310179 4.91814406922509  40.2661531310179 4.91814406922509  C 39.8848086415654 5.53317019722419  39.5357814817273 5.89495027251778  39.2287668503885 6.60645108726186  C 38.6470549173251 7.96513625892004  38.4725413374062 10.1277771534528  37.0247249706709 11.1166426925886  C 36.2555725258428 11.6472534696858  33.9772007880117 11.8924599651626  33.1660358146843 11.530679889869  C 32.5810921486596 11.2653745013204  32.2191380569759 10.6704472663932  31.6148039931823 10.3006276338708  C 31.1688248445004 10.0272826880934  30.0506452398345 9.86247176490417  29.5464948978462 9.74187840647298  C 30.1185116320251 7.10892341405844  30.7034552980498 6.06780075293585  30.30595214379 3.22983705118835  C 30.1928414901387 2.43794066415686  29.6693007503818 1.28828398044615  29.0843570843571 0.821989661178805  C 28.7353299245191 0.544624936787102  28.2053257188392 0.580802944316417  27.8013590986564 0.576783165702096  C 27.1097682449034 0.57276338708769  25.6975009407441 0.512466707872051  25.0867034110277 0.729534753048171  C 25.0867034110277 0.729534753048171  23.3447993447994 1.75859807832782  23.3447993447994 1.75859807832782  C 22.3171082630542 2.10831881777827  22.210461075326 0.592862280159551  21.0179516125462 0.283339326852825  C 20.0969077185293 0.0421526099903815  19.8642229453041 0.990820362982475  19.4473293932753 1.782716750014  C 18.8817761250194 2.87207675450912  18.2839055271487 3.90917963701745  17.3337760364788 4.50812665055909  C 17.3337760364788 4.50812665055909  13.0711202603094 6.20045344721021  13.0711202603094 6.20045344721021  C 11.642694291343 7.567178176097  11.1514708812005 9.7820761926167  10.4728069592935 10.5578934651907  C 9.53883613343072 11.6150952407709  8.15565442592475 11.6311743552284  7.40589237886536 13.146630892847  C 6.15197998981773 15.6710518626735  6.64966686588303 16.732273416868  5.65106138079113 18.6698067089958  C 4.90129933373174 20.1289863460133  2.82652677247262 22.4765370568073  2.70048918697563 24.2171011968309  C 2.61000066405467 25.4190150025285  3.71202160391346 27.1314406922515  4.00610930340656 28.2368798112041  Z " fill-rule="evenodd" />
    </mask>
  </defs>
  <g transform="matrix(1 0 0 1 -525 -2197 )">
    <path d="M 4.00610930340656 28.2368798112041  C 4.34220953139868 29.1815277855817  4.06104876375144 30.3874613698937  4.00610930340656 31.4044653593302  C 4.5619673727781 31.4326038096308  5.32788808464483 31.6697707478788  5.89344135290077 31.4044653593302  C 6.92436416760739 31.0105270551217  6.79509484914882 30.2869669045344  8.80200101821708 29.9251868292408  C 8.35602186953531 30.9019930325335  8.13949576111736 31.6215334045063  7.42528277663405 32.361172669551  C 7.42528277663405 32.361172669551  5.25355822653114 34.1781126032477  5.25355822653114 34.1781126032477  C 4.70416362308254 34.9177518682924  4.80757907784937 35.9468151935719  3.96732850786896 37.4059948305894  C 2.77805077805067 39.4681412597629  2.19310711202604 38.87723380345  1.64371250857732 39.6932488621678  C 1.25267282024038 40.2720969826375  0.509374239103863 43.2668320503455  0.273457732917166 44.1592229027363  C 2.13170418575811 44.1592229027363  3.01396728423748 43.7572450412991  4.53288177612501 45.3209389222903  C 6.61734953626842 47.4594611451368  4.9982513225757 48.7377507445075  7.44467317440279 48.7417705231219  C 9.11871084844068 48.7457903017362  9.30291962724385 48.3920497836713  10.5471368174071 48.2835157610833  C 11.4100095181176 48.2071399674102  12.117759036678 48.4041091195145  12.8448989530071 47.6403511827837  C 13.6754543241029 46.7680592234647  13.3231954313036 45.9158661572174  13.5720388693362 45.1440686632578  C 13.8273457732917 44.360211833455  15.1329658897226 43.2788913861887  15.7825442149766 43.0819222340844  C 17.349934701286 42.6075883575883  18.2031122031121 44.2154998033376  18.943179051287 45.6063432039107  C 19.172632091551 46.0364595156487  19.5022688536202 46.7961976737652  19.8933085419571 46.9971866044839  C 20.3845319520995 47.2504326571894  20.8143524359741 46.7600196662358  21.4057595679217 46.816296566837  C 22.3882063882064 46.9087514749677  22.944064457578 48.1589026240377  24.3110875002767 47.4474018092937  C 25.5488412245168 46.8042372309939  26.0271377028133 45.5138882957801  26.8318392102177 45.5018289599371  C 27.4361732740111 45.4937894027083  29.1619186754321 46.8645339102095  30.257476149368 47.2946502219475  C 30.3156473426744 46.4102989267854  30.3738185359807 45.4093740518065  30.900591008699 44.7340512445918  C 31.430595214379 44.0547086587627  32.3387121765499 43.8617592852728  32.7006662682338 43.0980013485418  C 33.043229962149 42.3784609765689  32.9559731721894 40.2640574254087  34.0159815835491 38.9455700398944  C 34.8594638864909 37.8923880429285  36.5431967594129 37.7436562341967  37.1346038913607 36.6221380007866  C 37.1346038913607 36.6221380007866  39.1447417933905 30.7170832162723  39.1447417933905 30.7170832162723  C 39.7070633286849 29.808613249424  40.5279235008966 30.0176417373714  41.0611594395377 28.9282817328762  C 41.0611594395377 28.9282817328762  42.334462226354 25.101452491993  42.334462226354 25.101452491993  C 42.4928171414658 24.1688638534584  42.1082409190517 22.9991082766758  42.334462226354 22.3398645839186  C 42.5348296699648 21.7811153565208  43.2231887907563 21.3791374950834  43.6368506098235 21.0816738776198  C 43.6368506098235 21.0816738776198  44.0214268322376 23.2523543293813  44.0214268322376 23.2523543293813  C 44.0214268322376 23.2523543293813  46.5421785421785 21.8052340282071  46.5421785421785 21.8052340282071  C 46.5421785421785 21.8052340282071  46.154370586803 18.4286199921335  46.154370586803 18.4286199921335  C 46.154370586803 18.4286199921335  47.705602408305 18.4286199921335  47.705602408305 18.4286199921335  C 47.9609093122608 16.6197196156655  47.9253602496844 16.5312844861493  46.5421785421785 15.7755661066471  C 48.7914646833565 14.5857116367927  48.4779865860946 15.2369157723212  51.0019700289969 13.1948682362195  C 51.0019700289969 13.1948682362195  54.1044336720012 10.2081727257402  54.1044336720012 10.2081727257402  C 54.6505965424884 9.82227397876045  55.1547468844766 9.8343333146035  55.6556654935033 9.57304770466931  C 56.1468889036456 9.31980165196379  56.6122584500962 8.77311176040902  57.0129933373176 8.78517109625213  C 57.4298868893464 8.79723043209529  58.1925758682515 9.65746305557118  58.5642251588197 9.98306512333534  C 58.5642251588197 9.98306512333534  58.9197157845805 7.08882452098669  58.9197157845805 7.08882452098669  C 58.9197157845805 7.08882452098669  59.8795404741351 4.91814406922509  59.8795404741351 4.91814406922509  C 59.8795404741351 4.91814406922509  59.8795404741351 2.50627690060116  59.8795404741351 2.50627690060116  C 59.8795404741351 2.50627690060116  57.5947052703809 3.11326347137157  57.5947052703809 3.11326347137157  C 56.7253691037473 3.08914479968533  55.668592425349 2.34548575602631  54.4922416273768 2.58667247288861  C 53.2835734997896 2.83187896836546  52.2978949465436 3.98153565207622  51.5836819620603 3.79662583581498  C 51.043982557496 3.6559335843119  50.6432476702746 2.90423498342417  50.0324501405581 2.66304826656173  C 49.0823206498882 2.27714951958194  49.1404918431945 3.24189638703146  47.3177944529295 1.87517165814464  C 46.5195564114483 1.27220486598864  45.5532682559709 0.0180339383041712  44.6031387653009 0.33961622745403  C 43.7596564623591 0.629040287688866  41.7592137592138 2.41784177108502  41.1904287579964 3.25395572287462  C 41.1904287579964 3.25395572287462  40.2661531310179 4.91814406922509  40.2661531310179 4.91814406922509  C 39.8848086415654 5.53317019722419  39.5357814817273 5.89495027251778  39.2287668503885 6.60645108726186  C 38.6470549173251 7.96513625892004  38.4725413374062 10.1277771534528  37.0247249706709 11.1166426925886  C 36.2555725258428 11.6472534696858  33.9772007880117 11.8924599651626  33.1660358146843 11.530679889869  C 32.5810921486596 11.2653745013204  32.2191380569759 10.6704472663932  31.6148039931823 10.3006276338708  C 31.1688248445004 10.0272826880934  30.0506452398345 9.86247176490417  29.5464948978462 9.74187840647298  C 30.1185116320251 7.10892341405844  30.7034552980498 6.06780075293585  30.30595214379 3.22983705118835  C 30.1928414901387 2.43794066415686  29.6693007503818 1.28828398044615  29.0843570843571 0.821989661178805  C 28.7353299245191 0.544624936787102  28.2053257188392 0.580802944316417  27.8013590986564 0.576783165702096  C 27.1097682449034 0.57276338708769  25.6975009407441 0.512466707872051  25.0867034110277 0.729534753048171  C 25.0867034110277 0.729534753048171  23.3447993447994 1.75859807832782  23.3447993447994 1.75859807832782  C 22.3171082630542 2.10831881777827  22.210461075326 0.592862280159551  21.0179516125462 0.283339326852825  C 20.0969077185293 0.0421526099903815  19.8642229453041 0.990820362982475  19.4473293932753 1.782716750014  C 18.8817761250194 2.87207675450912  18.2839055271487 3.90917963701745  17.3337760364788 4.50812665055909  C 17.3337760364788 4.50812665055909  13.0711202603094 6.20045344721021  13.0711202603094 6.20045344721021  C 11.642694291343 7.567178176097  11.1514708812005 9.7820761926167  10.4728069592935 10.5578934651907  C 9.53883613343072 11.6150952407709  8.15565442592475 11.6311743552284  7.40589237886536 13.146630892847  C 6.15197998981773 15.6710518626735  6.64966686588303 16.732273416868  5.65106138079113 18.6698067089958  C 4.90129933373174 20.1289863460133  2.82652677247262 22.4765370568073  2.70048918697563 24.2171011968309  C 2.61000066405467 25.4190150025285  3.71202160391346 27.1314406922515  4.00610930340656 28.2368798112041  Z " fill-rule="nonzero" fill="#1c8dff" stroke="none" transform="matrix(1 0 0 1 525 2197 )" />
    <path d="M 4.00610930340656 28.2368798112041  C 4.34220953139868 29.1815277855817  4.06104876375144 30.3874613698937  4.00610930340656 31.4044653593302  C 4.5619673727781 31.4326038096308  5.32788808464483 31.6697707478788  5.89344135290077 31.4044653593302  C 6.92436416760739 31.0105270551217  6.79509484914882 30.2869669045344  8.80200101821708 29.9251868292408  C 8.35602186953531 30.9019930325335  8.13949576111736 31.6215334045063  7.42528277663405 32.361172669551  C 7.42528277663405 32.361172669551  5.25355822653114 34.1781126032477  5.25355822653114 34.1781126032477  C 4.70416362308254 34.9177518682924  4.80757907784937 35.9468151935719  3.96732850786896 37.4059948305894  C 2.77805077805067 39.4681412597629  2.19310711202604 38.87723380345  1.64371250857732 39.6932488621678  C 1.25267282024038 40.2720969826375  0.509374239103863 43.2668320503455  0.273457732917166 44.1592229027363  C 2.13170418575811 44.1592229027363  3.01396728423748 43.7572450412991  4.53288177612501 45.3209389222903  C 6.61734953626842 47.4594611451368  4.9982513225757 48.7377507445075  7.44467317440279 48.7417705231219  C 9.11871084844068 48.7457903017362  9.30291962724385 48.3920497836713  10.5471368174071 48.2835157610833  C 11.4100095181176 48.2071399674102  12.117759036678 48.4041091195145  12.8448989530071 47.6403511827837  C 13.6754543241029 46.7680592234647  13.3231954313036 45.9158661572174  13.5720388693362 45.1440686632578  C 13.8273457732917 44.360211833455  15.1329658897226 43.2788913861887  15.7825442149766 43.0819222340844  C 17.349934701286 42.6075883575883  18.2031122031121 44.2154998033376  18.943179051287 45.6063432039107  C 19.172632091551 46.0364595156487  19.5022688536202 46.7961976737652  19.8933085419571 46.9971866044839  C 20.3845319520995 47.2504326571894  20.8143524359741 46.7600196662358  21.4057595679217 46.816296566837  C 22.3882063882064 46.9087514749677  22.944064457578 48.1589026240377  24.3110875002767 47.4474018092937  C 25.5488412245168 46.8042372309939  26.0271377028133 45.5138882957801  26.8318392102177 45.5018289599371  C 27.4361732740111 45.4937894027083  29.1619186754321 46.8645339102095  30.257476149368 47.2946502219475  C 30.3156473426744 46.4102989267854  30.3738185359807 45.4093740518065  30.900591008699 44.7340512445918  C 31.430595214379 44.0547086587627  32.3387121765499 43.8617592852728  32.7006662682338 43.0980013485418  C 33.043229962149 42.3784609765689  32.9559731721894 40.2640574254087  34.0159815835491 38.9455700398944  C 34.8594638864909 37.8923880429285  36.5431967594129 37.7436562341967  37.1346038913607 36.6221380007866  C 37.1346038913607 36.6221380007866  39.1447417933905 30.7170832162723  39.1447417933905 30.7170832162723  C 39.7070633286849 29.808613249424  40.5279235008966 30.0176417373714  41.0611594395377 28.9282817328762  C 41.0611594395377 28.9282817328762  42.334462226354 25.101452491993  42.334462226354 25.101452491993  C 42.4928171414658 24.1688638534584  42.1082409190517 22.9991082766758  42.334462226354 22.3398645839186  C 42.5348296699648 21.7811153565208  43.2231887907563 21.3791374950834  43.6368506098235 21.0816738776198  C 43.6368506098235 21.0816738776198  44.0214268322376 23.2523543293813  44.0214268322376 23.2523543293813  C 44.0214268322376 23.2523543293813  46.5421785421785 21.8052340282071  46.5421785421785 21.8052340282071  C 46.5421785421785 21.8052340282071  46.154370586803 18.4286199921335  46.154370586803 18.4286199921335  C 46.154370586803 18.4286199921335  47.705602408305 18.4286199921335  47.705602408305 18.4286199921335  C 47.9609093122608 16.6197196156655  47.9253602496844 16.5312844861493  46.5421785421785 15.7755661066471  C 48.7914646833565 14.5857116367927  48.4779865860946 15.2369157723212  51.0019700289969 13.1948682362195  C 51.0019700289969 13.1948682362195  54.1044336720012 10.2081727257402  54.1044336720012 10.2081727257402  C 54.6505965424884 9.82227397876045  55.1547468844766 9.8343333146035  55.6556654935033 9.57304770466931  C 56.1468889036456 9.31980165196379  56.6122584500962 8.77311176040902  57.0129933373176 8.78517109625213  C 57.4298868893464 8.79723043209529  58.1925758682515 9.65746305557118  58.5642251588197 9.98306512333534  C 58.5642251588197 9.98306512333534  58.9197157845805 7.08882452098669  58.9197157845805 7.08882452098669  C 58.9197157845805 7.08882452098669  59.8795404741351 4.91814406922509  59.8795404741351 4.91814406922509  C 59.8795404741351 4.91814406922509  59.8795404741351 2.50627690060116  59.8795404741351 2.50627690060116  C 59.8795404741351 2.50627690060116  57.5947052703809 3.11326347137157  57.5947052703809 3.11326347137157  C 56.7253691037473 3.08914479968533  55.668592425349 2.34548575602631  54.4922416273768 2.58667247288861  C 53.2835734997896 2.83187896836546  52.2978949465436 3.98153565207622  51.5836819620603 3.79662583581498  C 51.043982557496 3.6559335843119  50.6432476702746 2.90423498342417  50.0324501405581 2.66304826656173  C 49.0823206498882 2.27714951958194  49.1404918431945 3.24189638703146  47.3177944529295 1.87517165814464  C 46.5195564114483 1.27220486598864  45.5532682559709 0.0180339383041712  44.6031387653009 0.33961622745403  C 43.7596564623591 0.629040287688866  41.7592137592138 2.41784177108502  41.1904287579964 3.25395572287462  C 41.1904287579964 3.25395572287462  40.2661531310179 4.91814406922509  40.2661531310179 4.91814406922509  C 39.8848086415654 5.53317019722419  39.5357814817273 5.89495027251778  39.2287668503885 6.60645108726186  C 38.6470549173251 7.96513625892004  38.4725413374062 10.1277771534528  37.0247249706709 11.1166426925886  C 36.2555725258428 11.6472534696858  33.9772007880117 11.8924599651626  33.1660358146843 11.530679889869  C 32.5810921486596 11.2653745013204  32.2191380569759 10.6704472663932  31.6148039931823 10.3006276338708  C 31.1688248445004 10.0272826880934  30.0506452398345 9.86247176490417  29.5464948978462 9.74187840647298  C 30.1185116320251 7.10892341405844  30.7034552980498 6.06780075293585  30.30595214379 3.22983705118835  C 30.1928414901387 2.43794066415686  29.6693007503818 1.28828398044615  29.0843570843571 0.821989661178805  C 28.7353299245191 0.544624936787102  28.2053257188392 0.580802944316417  27.8013590986564 0.576783165702096  C 27.1097682449034 0.57276338708769  25.6975009407441 0.512466707872051  25.0867034110277 0.729534753048171  C 25.0867034110277 0.729534753048171  23.3447993447994 1.75859807832782  23.3447993447994 1.75859807832782  C 22.3171082630542 2.10831881777827  22.210461075326 0.592862280159551  21.0179516125462 0.283339326852825  C 20.0969077185293 0.0421526099903815  19.8642229453041 0.990820362982475  19.4473293932753 1.782716750014  C 18.8817761250194 2.87207675450912  18.2839055271487 3.90917963701745  17.3337760364788 4.50812665055909  C 17.3337760364788 4.50812665055909  13.0711202603094 6.20045344721021  13.0711202603094 6.20045344721021  C 11.642694291343 7.567178176097  11.1514708812005 9.7820761926167  10.4728069592935 10.5578934651907  C 9.53883613343072 11.6150952407709  8.15565442592475 11.6311743552284  7.40589237886536 13.146630892847  C 6.15197998981773 15.6710518626735  6.64966686588303 16.732273416868  5.65106138079113 18.6698067089958  C 4.90129933373174 20.1289863460133  2.82652677247262 22.4765370568073  2.70048918697563 24.2171011968309  C 2.61000066405467 25.4190150025285  3.71202160391346 27.1314406922515  4.00610930340656 28.2368798112041  Z " stroke-width="2.13294375456538" stroke="#ffffff" fill="none" transform="matrix(1 0 0 1 525 2197 )" mask="url(#clip20)" />
  </g>
</svg>