<?xml version="1.0" encoding="utf-8"?>
<svg version="1.1" xmlns:xlink="http://www.w3.org/1999/xlink" width="31px" height="79px" xmlns="http://www.w3.org/2000/svg">
  <defs>
    <mask fill="white" id="clip17">
      <path d="M 28.3868517165815 2.45350857614375  C 28.3868517165815 2.45350857614375  27.2848307767226 0.136598422747113  27.2848307767226 0.136598422747113  C 27.1579313957693 0.706074655736813  27.0677660461445 1.49398012877737  26.7672148807283 1.95814226388549  C 26.2696357290952 2.71874408191977  24.8269901350982 3.30382240348456  24.0789516789516 3.87329863647432  C 23.6080881864666 4.22824615155699  22.8633891877134 5.1448688553418  22.3925256952284 5.21507825392962  C 22.0151670097616 5.26968556394232  21.2003394057447 4.80552342883422  20.6760445949636 4.72751298595892  C 19.7910883856829 4.59099471092711  17.9677446488258 5.52712002543083  17.3666423179936 6.27211975489001  C 17.0059809194945 6.71677927927928  16.8690631663604 7.07952783864943  16.6686957227498 7.62560093877656  C 15.8304919169785 7.34866386656924  14.828654698925 6.83769546573601  13.9303406600704 7.11073201579958  C 12.5645025861241 7.52808788518249  12.3274011111848 8.58902990828668  11.8465192465193 9.96591422503585  C 11.1686093956364 11.9122747747748  10.6075805535264 13.2033476043611  10.5240941186887 15.3486347834321  C 9.58236713371838 15.3486347834321  7.77906014122232 15.266723818413  6.96089307981197 15.7464880420961  C 6.23957028281342 16.1716449557666  6.22955191063301 16.9751525173822  5.77538570511547 17.6421418039661  C 5.33457732917191 18.2935290019749  4.77020902966842 18.4534504098693  4.49971298079407 18.9527172442713  C 4.25259313367417 19.5572981765549  4.63997019132154 20.2359890295701  4.49971298079407 21.2033185212239  C 4.49971298079407 21.2033185212239  3.89861064996199 23.0755691502313  3.89861064996199 23.0755691502313  C 3.89861064996199 23.0755691502313  3.29416886173641 26.3520077509942  3.29416886173641 26.3520077509942  C 2.90011288930219 27.7561957227497  2.20884520884522 29.9716923004085  1.65449528152232 31.2666656521387  C 1.36062303089324 31.9609585937288  0.37214364241396 33.7512982577171  0.288657207576023 34.3090729242756  C 0.0882897639653493 35.6625541081622  2.22888195320621 39.0209036739441  2.27229489932188 40.78784020507  C 2.35578133415964 44.0837814165516  0.5023824807609 47.46943463734  0.195152400557788 49.9150620214809  C 0.0215006160951816 51.3114489489489  0.622602946927259 53.3553225522819  0.863043879260033 54.8297199226253  C 0.863043879260033 54.8297199226253  0.863043879260033 58.808252509266  0.863043879260033 58.808252509266  C 0.943190856704405 62.2017067743419  2.34576296197906 63.7424130211292  2.25559761235422 65.8330928901875  C 2.21218466623873 66.8394276032789  1.36062303089324 69.2187461109758  1.05005349329673 70.2796881340799  C 0.759520700061273 71.2626197143089  0.0515557326367571 75.6858118253388  0.168436741409778 76.5985340069799  C 0.261941548428013 77.3045285150016  0.806273103570504 78.2796590509428  1.11016372637999 78.9388472932391  C 2.28231327150246 78.5409940345751  3.61475677151367 78.2757585287989  4.71343825397872 77.6984812515217  C 6.07927632792484 76.9729841327814  6.70709431790516 76.1889791818846  7.31821502091771 75.8808379325271  C 8.31003386679055 75.3893721424126  8.72412658358598 76.0368588182777  10.1233592314672 75.1358382030679  C 11.60941777158 74.1802102778453  12.1103363806066 73.1738755647539  12.9285034420169 72.50688627817  C 13.7399915886401 71.8398969915862  14.2409101976669 72.042724143062  14.9121411337627 71.5122531315099  C 15.5432985811364 71.0168868192516  16.0842906788853 70.3537980548115  16.8690631663604 69.913039052566  C 18.2515985272742 69.1407356681004  20.0014742014741 69.565892581771  21.4775143694062 69.0276205259313  C 22.8667286451071 68.5205526472418  23.8151345448643 67.6546367313259  24.8804214533944 66.5117837432026  C 24.8804214533944 66.5117837432026  26.6035814684462 64.6200305034763  26.6035814684462 64.6200305034763  C 27.535290081236 63.3172561074588  27.8792541927677 60.7078067932798  27.8859331075547 59.0422838378919  C 27.8892725649482 58.043750169088  28.0094930311147 55.38359406704  27.6822262065505 54.5956885939994  C 27.274812404542 53.620558058058  25.6151020799668 51.6507943754565  25.9657451062856 50.4338314666017  C 26.1627730925028 49.747339569299  26.8740775173206 49.7551406135866  27.3249042654447 48.7215022454886  C 27.3249042654447 48.7215022454886  28.847696836886 42.4260595054514  28.847696836886 42.4260595054514  C 29.1215323431539 41.6225519438358  30.0131674672214 39.2198303032762  29.9697545211059 38.5216368395422  C 29.9129837454162 37.6128151800449  28.3968700887619 35.0930778751724  27.959401170212 34.0750415956496  C 27.67220783437 33.4002512647783  27.4284274446436 32.3939165516868  26.9842796113066 31.8829481508535  C 26.5334528631825 31.3602781835889  24.7167880411124 30.5606711441171  24.5097416827145 28.4582897086275  C 24.3026953243169 26.3949134945756  25.6184415373604 25.841039350161  26.092644487239 24.4797571219868  C 26.6302971275943 22.9351503530557  25.3279087441249 22.0575328707085  27.1779681401302 20.4076120038958  C 27.8525385336197 19.8030310716121  28.567182415831 20.1696801531261  29.2885052128295 19.9590519573628  C 30.7211324346459 19.5416960879799  30.8881053043215 18.1999164705246  30.8914447617149 16.7567232773314  C 30.8947842191085 15.0521951005059  31.0584176313905 11.526123082542  29.6358087817547 10.4729821037253  C 29.6358087817547 10.4729821037253  27.6855656639441 9.83719699429159  27.6855656639441 9.83719699429159  C 27.6855656639441 9.83719699429159  26.0826261150585 9.02978891053212  26.0826261150585 9.02978891053212  C 27.4217485298566 5.5310205475746  28.4603197792387 6.51395212780346  30.4907098744936 4.34916233801366  C 30.4907098744936 4.34916233801366  28.3868517165815 2.45350857614375  28.3868517165815 2.45350857614375  Z " fill-rule="evenodd" />
    </mask>
  </defs>
  <g transform="matrix(1 0 0 1 -488 -2170 )">
    <path d="M 28.3868517165815 2.45350857614375  C 28.3868517165815 2.45350857614375  27.2848307767226 0.136598422747113  27.2848307767226 0.136598422747113  C 27.1579313957693 0.706074655736813  27.0677660461445 1.49398012877737  26.7672148807283 1.95814226388549  C 26.2696357290952 2.71874408191977  24.8269901350982 3.30382240348456  24.0789516789516 3.87329863647432  C 23.6080881864666 4.22824615155699  22.8633891877134 5.1448688553418  22.3925256952284 5.21507825392962  C 22.0151670097616 5.26968556394232  21.2003394057447 4.80552342883422  20.6760445949636 4.72751298595892  C 19.7910883856829 4.59099471092711  17.9677446488258 5.52712002543083  17.3666423179936 6.27211975489001  C 17.0059809194945 6.71677927927928  16.8690631663604 7.07952783864943  16.6686957227498 7.62560093877656  C 15.8304919169785 7.34866386656924  14.828654698925 6.83769546573601  13.9303406600704 7.11073201579958  C 12.5645025861241 7.52808788518249  12.3274011111848 8.58902990828668  11.8465192465193 9.96591422503585  C 11.1686093956364 11.9122747747748  10.6075805535264 13.2033476043611  10.5240941186887 15.3486347834321  C 9.58236713371838 15.3486347834321  7.77906014122232 15.266723818413  6.96089307981197 15.7464880420961  C 6.23957028281342 16.1716449557666  6.22955191063301 16.9751525173822  5.77538570511547 17.6421418039661  C 5.33457732917191 18.2935290019749  4.77020902966842 18.4534504098693  4.49971298079407 18.9527172442713  C 4.25259313367417 19.5572981765549  4.63997019132154 20.2359890295701  4.49971298079407 21.2033185212239  C 4.49971298079407 21.2033185212239  3.89861064996199 23.0755691502313  3.89861064996199 23.0755691502313  C 3.89861064996199 23.0755691502313  3.29416886173641 26.3520077509942  3.29416886173641 26.3520077509942  C 2.90011288930219 27.7561957227497  2.20884520884522 29.9716923004085  1.65449528152232 31.2666656521387  C 1.36062303089324 31.9609585937288  0.37214364241396 33.7512982577171  0.288657207576023 34.3090729242756  C 0.0882897639653493 35.6625541081622  2.22888195320621 39.0209036739441  2.27229489932188 40.78784020507  C 2.35578133415964 44.0837814165516  0.5023824807609 47.46943463734  0.195152400557788 49.9150620214809  C 0.0215006160951816 51.3114489489489  0.622602946927259 53.3553225522819  0.863043879260033 54.8297199226253  C 0.863043879260033 54.8297199226253  0.863043879260033 58.808252509266  0.863043879260033 58.808252509266  C 0.943190856704405 62.2017067743419  2.34576296197906 63.7424130211292  2.25559761235422 65.8330928901875  C 2.21218466623873 66.8394276032789  1.36062303089324 69.2187461109758  1.05005349329673 70.2796881340799  C 0.759520700061273 71.2626197143089  0.0515557326367571 75.6858118253388  0.168436741409778 76.5985340069799  C 0.261941548428013 77.3045285150016  0.806273103570504 78.2796590509428  1.11016372637999 78.9388472932391  C 2.28231327150246 78.5409940345751  3.61475677151367 78.2757585287989  4.71343825397872 77.6984812515217  C 6.07927632792484 76.9729841327814  6.70709431790516 76.1889791818846  7.31821502091771 75.8808379325271  C 8.31003386679055 75.3893721424126  8.72412658358598 76.0368588182777  10.1233592314672 75.1358382030679  C 11.60941777158 74.1802102778453  12.1103363806066 73.1738755647539  12.9285034420169 72.50688627817  C 13.7399915886401 71.8398969915862  14.2409101976669 72.042724143062  14.9121411337627 71.5122531315099  C 15.5432985811364 71.0168868192516  16.0842906788853 70.3537980548115  16.8690631663604 69.913039052566  C 18.2515985272742 69.1407356681004  20.0014742014741 69.565892581771  21.4775143694062 69.0276205259313  C 22.8667286451071 68.5205526472418  23.8151345448643 67.6546367313259  24.8804214533944 66.5117837432026  C 24.8804214533944 66.5117837432026  26.6035814684462 64.6200305034763  26.6035814684462 64.6200305034763  C 27.535290081236 63.3172561074588  27.8792541927677 60.7078067932798  27.8859331075547 59.0422838378919  C 27.8892725649482 58.043750169088  28.0094930311147 55.38359406704  27.6822262065505 54.5956885939994  C 27.274812404542 53.620558058058  25.6151020799668 51.6507943754565  25.9657451062856 50.4338314666017  C 26.1627730925028 49.747339569299  26.8740775173206 49.7551406135866  27.3249042654447 48.7215022454886  C 27.3249042654447 48.7215022454886  28.847696836886 42.4260595054514  28.847696836886 42.4260595054514  C 29.1215323431539 41.6225519438358  30.0131674672214 39.2198303032762  29.9697545211059 38.5216368395422  C 29.9129837454162 37.6128151800449  28.3968700887619 35.0930778751724  27.959401170212 34.0750415956496  C 27.67220783437 33.4002512647783  27.4284274446436 32.3939165516868  26.9842796113066 31.8829481508535  C 26.5334528631825 31.3602781835889  24.7167880411124 30.5606711441171  24.5097416827145 28.4582897086275  C 24.3026953243169 26.3949134945756  25.6184415373604 25.841039350161  26.092644487239 24.4797571219868  C 26.6302971275943 22.9351503530557  25.3279087441249 22.0575328707085  27.1779681401302 20.4076120038958  C 27.8525385336197 19.8030310716121  28.567182415831 20.1696801531261  29.2885052128295 19.9590519573628  C 30.7211324346459 19.5416960879799  30.8881053043215 18.1999164705246  30.8914447617149 16.7567232773314  C 30.8947842191085 15.0521951005059  31.0584176313905 11.526123082542  29.6358087817547 10.4729821037253  C 29.6358087817547 10.4729821037253  27.6855656639441 9.83719699429159  27.6855656639441 9.83719699429159  C 27.6855656639441 9.83719699429159  26.0826261150585 9.02978891053212  26.0826261150585 9.02978891053212  C 27.4217485298566 5.5310205475746  28.4603197792387 6.51395212780346  30.4907098744936 4.34916233801366  C 30.4907098744936 4.34916233801366  28.3868517165815 2.45350857614375  28.3868517165815 2.45350857614375  Z " fill-rule="nonzero" fill="#52b0fa" stroke="none" transform="matrix(1 0 0 1 488 2170 )" />
    <path d="M 28.3868517165815 2.45350857614375  C 28.3868517165815 2.45350857614375  27.2848307767226 0.136598422747113  27.2848307767226 0.136598422747113  C 27.1579313957693 0.706074655736813  27.0677660461445 1.49398012877737  26.7672148807283 1.95814226388549  C 26.2696357290952 2.71874408191977  24.8269901350982 3.30382240348456  24.0789516789516 3.87329863647432  C 23.6080881864666 4.22824615155699  22.8633891877134 5.1448688553418  22.3925256952284 5.21507825392962  C 22.0151670097616 5.26968556394232  21.2003394057447 4.80552342883422  20.6760445949636 4.72751298595892  C 19.7910883856829 4.59099471092711  17.9677446488258 5.52712002543083  17.3666423179936 6.27211975489001  C 17.0059809194945 6.71677927927928  16.8690631663604 7.07952783864943  16.6686957227498 7.62560093877656  C 15.8304919169785 7.34866386656924  14.828654698925 6.83769546573601  13.9303406600704 7.11073201579958  C 12.5645025861241 7.52808788518249  12.3274011111848 8.58902990828668  11.8465192465193 9.96591422503585  C 11.1686093956364 11.9122747747748  10.6075805535264 13.2033476043611  10.5240941186887 15.3486347834321  C 9.58236713371838 15.3486347834321  7.77906014122232 15.266723818413  6.96089307981197 15.7464880420961  C 6.23957028281342 16.1716449557666  6.22955191063301 16.9751525173822  5.77538570511547 17.6421418039661  C 5.33457732917191 18.2935290019749  4.77020902966842 18.4534504098693  4.49971298079407 18.9527172442713  C 4.25259313367417 19.5572981765549  4.63997019132154 20.2359890295701  4.49971298079407 21.2033185212239  C 4.49971298079407 21.2033185212239  3.89861064996199 23.0755691502313  3.89861064996199 23.0755691502313  C 3.89861064996199 23.0755691502313  3.29416886173641 26.3520077509942  3.29416886173641 26.3520077509942  C 2.90011288930219 27.7561957227497  2.20884520884522 29.9716923004085  1.65449528152232 31.2666656521387  C 1.36062303089324 31.9609585937288  0.37214364241396 33.7512982577171  0.288657207576023 34.3090729242756  C 0.0882897639653493 35.6625541081622  2.22888195320621 39.0209036739441  2.27229489932188 40.78784020507  C 2.35578133415964 44.0837814165516  0.5023824807609 47.46943463734  0.195152400557788 49.9150620214809  C 0.0215006160951816 51.3114489489489  0.622602946927259 53.3553225522819  0.863043879260033 54.8297199226253  C 0.863043879260033 54.8297199226253  0.863043879260033 58.808252509266  0.863043879260033 58.808252509266  C 0.943190856704405 62.2017067743419  2.34576296197906 63.7424130211292  2.25559761235422 65.8330928901875  C 2.21218466623873 66.8394276032789  1.36062303089324 69.2187461109758  1.05005349329673 70.2796881340799  C 0.759520700061273 71.2626197143089  0.0515557326367571 75.6858118253388  0.168436741409778 76.5985340069799  C 0.261941548428013 77.3045285150016  0.806273103570504 78.2796590509428  1.11016372637999 78.9388472932391  C 2.28231327150246 78.5409940345751  3.61475677151367 78.2757585287989  4.71343825397872 77.6984812515217  C 6.07927632792484 76.9729841327814  6.70709431790516 76.1889791818846  7.31821502091771 75.8808379325271  C 8.31003386679055 75.3893721424126  8.72412658358598 76.0368588182777  10.1233592314672 75.1358382030679  C 11.60941777158 74.1802102778453  12.1103363806066 73.1738755647539  12.9285034420169 72.50688627817  C 13.7399915886401 71.8398969915862  14.2409101976669 72.042724143062  14.9121411337627 71.5122531315099  C 15.5432985811364 71.0168868192516  16.0842906788853 70.3537980548115  16.8690631663604 69.913039052566  C 18.2515985272742 69.1407356681004  20.0014742014741 69.565892581771  21.4775143694062 69.0276205259313  C 22.8667286451071 68.5205526472418  23.8151345448643 67.6546367313259  24.8804214533944 66.5117837432026  C 24.8804214533944 66.5117837432026  26.6035814684462 64.6200305034763  26.6035814684462 64.6200305034763  C 27.535290081236 63.3172561074588  27.8792541927677 60.7078067932798  27.8859331075547 59.0422838378919  C 27.8892725649482 58.043750169088  28.0094930311147 55.38359406704  27.6822262065505 54.5956885939994  C 27.274812404542 53.620558058058  25.6151020799668 51.6507943754565  25.9657451062856 50.4338314666017  C 26.1627730925028 49.747339569299  26.8740775173206 49.7551406135866  27.3249042654447 48.7215022454886  C 27.3249042654447 48.7215022454886  28.847696836886 42.4260595054514  28.847696836886 42.4260595054514  C 29.1215323431539 41.6225519438358  30.0131674672214 39.2198303032762  29.9697545211059 38.5216368395422  C 29.9129837454162 37.6128151800449  28.3968700887619 35.0930778751724  27.959401170212 34.0750415956496  C 27.67220783437 33.4002512647783  27.4284274446436 32.3939165516868  26.9842796113066 31.8829481508535  C 26.5334528631825 31.3602781835889  24.7167880411124 30.5606711441171  24.5097416827145 28.4582897086275  C 24.3026953243169 26.3949134945756  25.6184415373604 25.841039350161  26.092644487239 24.4797571219868  C 26.6302971275943 22.9351503530557  25.3279087441249 22.0575328707085  27.1779681401302 20.4076120038958  C 27.8525385336197 19.8030310716121  28.567182415831 20.1696801531261  29.2885052128295 19.9590519573628  C 30.7211324346459 19.5416960879799  30.8881053043215 18.1999164705246  30.8914447617149 16.7567232773314  C 30.8947842191085 15.0521951005059  31.0584176313905 11.526123082542  29.6358087817547 10.4729821037253  C 29.6358087817547 10.4729821037253  27.6855656639441 9.83719699429159  27.6855656639441 9.83719699429159  C 27.6855656639441 9.83719699429159  26.0826261150585 9.02978891053212  26.0826261150585 9.02978891053212  C 27.4217485298566 5.5310205475746  28.4603197792387 6.51395212780346  30.4907098744936 4.34916233801366  C 30.4907098744936 4.34916233801366  28.3868517165815 2.45350857614375  28.3868517165815 2.45350857614375  Z " stroke-width="2.13294375456538" stroke="#ffffff" fill="none" transform="matrix(1 0 0 1 488 2170 )" mask="url(#clip17)" />
  </g>
</svg>