<?xml version="1.0" encoding="utf-8"?>
<svg version="1.1" xmlns:xlink="http://www.w3.org/1999/xlink" width="71px" height="68px" xmlns="http://www.w3.org/2000/svg">
  <defs>
    <mask fill="white" id="clip51">
      <path d="M 29.9152999372059 1.61450806315662  C 29.261056860559 2.12055482866282  28.4806146117667 2.18829337207711  27.7234195788961 2.22813957408545  C 28.776186357054 4.82212732483003  29.1547838734894 4.26428049671296  29.516776235695 7.49182285939037  C 28.8260018197429 7.49182285939037  27.3680692783822 7.66316152802636  26.85663052811 7.10929932011004  C 26.3584759012211 6.56739097279643  26.368438993759 5.60311288419399  25.6876276703446 5.24449706611864  C 25.2260043827611 4.99745061366667  22.2603238373508 5.10105073888855  21.5463022054771 5.10105073888855  C 21.5463022054771 5.97368256287172  21.6193648840875 7.42009969577538  21.3868927248727 8.20905449554101  C 21.1444574731203 9.0179323963107  20.5699191367754 9.75907175366632  20.4669671805518 10.5998266160428  C 20.4669671805518 10.5998266160428  20.6562659387695 13.9469075847455  20.6562659387695 13.9469075847455  C 20.5367088283161 14.8992318127453  19.8592185357476 15.8874176225527  19.7263773019108 16.8158341293475  C 19.6167832839952 17.7761275977492  20.061801417349 18.4814053732973  19.7263773019108 19.4456834618996  C 19.2282226750221 20.7964697099831  17.9795150769547 21.6173014713556  17.5079286968333 22.3863331701169  C 17.0994419027847 23.0557493638574  17.1558994271654 23.7610271394054  16.8802538669537 24.4663049149535  C 16.5016563505183 25.4425368641585  15.817523996258 25.9206912882588  15.4322844181308 26.8610616556562  C 14.6850524777979 28.6900023278402  15.4322844181308 30.3197119899822  15.5983359604269 32.1207603207603  C 15.7112510091884 33.367946443622  15.0702920559251 34.5434094028688  14.3662335165891 35.3642411642412  C 13.1972306588238 36.7349505133288  10.1053509412685 38.7671068157554  9.61715940691755 40.1696931264498  C 9.35147693924358 40.9347402050105  9.81642125767308 42.0145722794371  9.99243589250693 42.7995424590019  C 9.99243589250693 42.7995424590019  7.20276998193066 44.2698673131106  7.20276998193066 44.2698673131106  C 7.20276998193066 44.2698673131106  5.92085207540396 45.2859454643238  5.92085207540396 45.2859454643238  C 5.92085207540396 45.2859454643238  5.80793702664249 47.8201639120558  5.80793702664249 47.8201639120558  C 5.24336178283545 47.8201639120558  3.88838119769838 47.7564099888423  3.41679481757717 47.9636102392858  C 2.52011648917761 48.3660568795703  1.16181487319466 50.6890904566579  0.427867056245475 51.6493839250595  C 0.427867056245475 51.6493839250595  2.22122371304454 54.757387681712  2.22122371304454 54.757387681712  C 2.22122371304454 54.757387681712  0.826390757756315 54.9964648937622  0.826390757756315 54.9964648937622  C 0.826390757756315 54.9964648937622  0.215321082106243 57.8653914383644  0.215321082106243 57.8653914383644  C 0.119011187574358 58.8655311087743  0.583955506003747 60.0131017266152  0.819748696064494 60.9733951950167  C 0.819748696064494 60.9733951950167  1.37768187817977 63.3641673155186  1.37768187817977 63.3641673155186  C 1.70314290108024 64.204922177895  3.20756987428393 66.5558480963886  3.82528161162583 67.0459563810915  C 4.32343623851443 67.448403021376  5.81457908833437 67.739280296037  6.40572257890898 67.5958339688069  C 7.9234336754962 67.225264290129  8.47804582676571 65.0735693816775  7.99981738495251 64.232814519301  C 7.71420873220302 63.7307523739956  6.49871144259481 63.1410285842717  6.00719887739791 62.8860128914183  C 6.00719887739791 62.8860128914183  6.40572257890898 60.4952407709164  6.40572257890898 60.4952407709164  C 4.27694180667152 59.4711933793014  4.71863890917939 59.5987012257282  4.81162777286534 57.1481598022138  C 6.2463130983046 58.8057618057617  6.30277062268522 58.5826230745149  8.19907923570787 58.5826230745149  C 8.19907923570787 58.5826230745149  7.00682916202112 56.191850954013  7.00682916202112 56.191850954013  C 7.00682916202112 56.191850954013  7.20276998193066 53.562001621461  7.20276998193066 53.562001621461  C 7.20276998193066 53.562001621461  7.40203183268619 55.7136965299127  7.40203183268619 55.7136965299127  C 7.40203183268619 55.7136965299127  12.3835781015724 52.8567238459129  12.3835781015724 52.8567238459129  C 12.3835781015724 52.8567238459129  16.3688151166814 51.6653224058629  16.3688151166814 51.6653224058629  C 16.3688151166814 51.6653224058629  20.1514692501891 49.9758434407083  20.1514692501891 49.9758434407083  C 20.1514692501891 49.9758434407083  19.1584810272576 48.0592411241059  19.1584810272576 48.0592411241059  C 19.1584810272576 48.0592411241059  20.7492548024553 48.0592411241059  20.7492548024553 48.0592411241059  C 20.7492548024553 48.0592411241059  20.7492548024553 49.9758434407083  20.7492548024553 49.9758434407083  C 21.4533133417913 49.2386887035535  22.6223161995565 47.4575634737796  23.5389207130316 47.3858403101646  C 23.9806178155395 47.3499787283571  24.8939012981687 47.8520408736625  25.3322773698306 48.0592411241059  C 25.3322773698306 48.0592411241059  26.3285866236079 45.6684690036041  26.3285866236079 45.6684690036041  C 26.3285866236079 45.6684690036041  28.7197288326733 47.1029322759051  28.7197288326733 47.1029322759051  C 28.7197288326733 47.1029322759051  29.7160380864506 44.7121601554034  29.7160380864506 44.7121601554034  C 29.7160380864506 44.7121601554034  31.7086565940051 45.1903145795038  31.7086565940051 45.1903145795038  C 31.7086565940051 45.1903145795038  32.1071802955159 42.0823108228514  32.1071802955159 42.0823108228514  C 32.1071802955159 42.0823108228514  34.0997988030705 43.7558513072025  34.0997988030705 43.7558513072025  C 35.0462925941588 42.0185568996379  35.4581004190536 41.4646946917216  37.2215677982392 40.8869247626004  C 37.2215677982392 40.8869247626004  37.0289480091756 37.778921005948  37.0289480091756 37.778921005948  C 37.0289480091756 37.778921005948  37.0289480091756 34.1927628251951  37.0289480091756 34.1927628251951  C 37.0289480091756 34.1927628251951  39.0149244550382 33.3161463810113  39.0149244550382 33.3161463810113  C 39.2573597067906 33.9257932717392  39.642599284918 35.3044718612285  40.0842963874258 35.7228569823163  C 41.1370631655838 36.7150274123247  43.7806037189395 35.0893023703835  44.9894589468559 34.9219483219482  C 45.7466539797265 34.8223328169274  46.4573545807543 35.1849332552035  47.1813393051657 35.3881488854461  C 47.1813393051657 35.3881488854461  46.5835537528994 32.8379919569108  46.5835537528994 32.8379919569108  C 46.5835537528994 32.8379919569108  48.3204528853177 32.6427455670698  48.3204528853177 32.6427455670698  C 48.3204528853177 32.6427455670698  50.1702670664975 34.6709172492957  50.1702670664975 34.6709172492957  C 50.3828130406365 34.1369781423834  50.6385324157728 33.0890230295635  50.9473882844437 32.6307917064673  C 52.1130701113631 30.909435779706  54.7698947881024 32.0370832965428  55.5071636358977 31.8059753248942  C 56.2842848538438 31.5668981128439  56.184653928466 30.5906661636392  57.1510739046299 30.2798657879738  C 57.1510739046299 30.2798657879738  60.13335960427 30.1563425617479  60.13335960427 30.1563425617479  C 60.8938756679865 30.0168808547186  61.6909230710084 29.470987887204  62.3219189317339 28.9569718812962  C 62.3219189317339 28.9569718812962  65.3971934950597 26.6299536840076  65.3971934950597 26.6299536840076  C 66.2307722373866 25.6019216721919  64.9621384542436 24.1993353614975  67.1042033498649 23.9881504908531  C 66.6558641856651 23.1513802486775  66.0514365717067 22.9362107578324  65.3108466930657 22.5536872185521  C 65.3108466930657 22.5536872185521  67.2403656145477 22.0715481742509  67.2403656145477 22.0715481742509  C 67.2403656145477 22.0715481742509  68.7348294952136 19.9875918092134  68.7348294952136 19.9875918092134  C 68.7348294952136 19.9875918092134  70.8901785142183 18.7284518257491  70.8901785142183 18.7284518257491  C 70.8901785142183 18.7284518257491  68.7879659887484 15.3813708570466  68.7879659887484 15.3813708570466  C 68.7879659887484 15.3813708570466  67.5525425140646 11.0779810401431  67.5525425140646 11.0779810401431  C 67.5525425140646 11.0779810401431  66.5462701677495 9.16536334374172  66.5462701677495 9.16536334374172  C 66.5462701677495 9.16536334374172  65.7492227647278 7.39619197457029  65.7492227647278 7.39619197457029  C 65.7492227647278 7.39619197457029  63.5174900362667 7.14516090191756  63.5174900362667 7.14516090191756  C 63.5174900362667 7.14516090191756  60.7311451565363 5.05323529647848  60.7311451565363 5.05323529647848  C 60.7311451565363 5.05323529647848  56.9451699921827 4.14474189068773  56.9451699921827 4.14474189068773  C 56.058454756321 6.67099109801808  56.4669415503697 6.17689819311437  56.9451699921827 8.68720891964125  C 54.3746921174375 8.43219322678777  54.2518139761383 7.31649957055362  53.1591948278293 7.15711476252005  C 53.1591948278293 7.15711476252005  49.5758025450771 8.17319291373343  49.5758025450771 8.17319291373343  C 48.390194533082 8.58759341462036  48.4499730883088 9.36459435378356  47.7193463022055 9.87861035969144  C 47.085029410634 10.3209032019842  46.5304172593645 9.89454884049474  45.3879826483667 10.4444264282102  C 44.8865069906321 10.6835036402603  44.1359540194532 11.30111977139  43.5946259915675 11.1576734441599  C 42.3758076711135 10.8428884482939  41.960678815373 9.22513264675416  42.2595715915061 7.96997728349078  C 42.7942575576999 5.73460535082148  44.2056956672176 4.33201904012714  45.7865063498776 3.18444842228627  C 45.7167647021131 2.74215557999338  45.6038496533517 1.92530843882179  45.4477612035932 1.53880027934082  C 45.245178321992 1.02478427343289  45.0027430702395 0.809614782587744  44.584293183653 0.57053757053751  C 42.877283328848 -0.405694378667306  41.9175054143759 1.31167692789313  40.4097574103263 1.25589224508144  C 39.6724885625312 1.22401528347478  38.9883562082708 0.578506810939246  38.4171389027719 0.0764446656338009  C 37.8658477823486 0.622337633148447  37.2348519216229 1.57864648134915  36.6237822459728 1.84561603480512  C 35.8200927812592 2.2002472326796  33.854042520472 1.65833888536594  33.1034895492932 1.23198452387629  C 32.678397601015 0.984938071424494  31.9544128766035 0.36333732009399  31.5093947432497 0.387245041299082  C 30.9182512526752 0.419122002905681  30.4101335332487 1.22799990367554  29.9152999372059 1.61450806315662  Z " fill-rule="evenodd" />
    </mask>
  </defs>
  <g transform="matrix(1 0 0 1 -489 -2362 )">
    <path d="M 29.9152999372059 1.61450806315662  C 29.261056860559 2.12055482866282  28.4806146117667 2.18829337207711  27.7234195788961 2.22813957408545  C 28.776186357054 4.82212732483003  29.1547838734894 4.26428049671296  29.516776235695 7.49182285939037  C 28.8260018197429 7.49182285939037  27.3680692783822 7.66316152802636  26.85663052811 7.10929932011004  C 26.3584759012211 6.56739097279643  26.368438993759 5.60311288419399  25.6876276703446 5.24449706611864  C 25.2260043827611 4.99745061366667  22.2603238373508 5.10105073888855  21.5463022054771 5.10105073888855  C 21.5463022054771 5.97368256287172  21.6193648840875 7.42009969577538  21.3868927248727 8.20905449554101  C 21.1444574731203 9.0179323963107  20.5699191367754 9.75907175366632  20.4669671805518 10.5998266160428  C 20.4669671805518 10.5998266160428  20.6562659387695 13.9469075847455  20.6562659387695 13.9469075847455  C 20.5367088283161 14.8992318127453  19.8592185357476 15.8874176225527  19.7263773019108 16.8158341293475  C 19.6167832839952 17.7761275977492  20.061801417349 18.4814053732973  19.7263773019108 19.4456834618996  C 19.2282226750221 20.7964697099831  17.9795150769547 21.6173014713556  17.5079286968333 22.3863331701169  C 17.0994419027847 23.0557493638574  17.1558994271654 23.7610271394054  16.8802538669537 24.4663049149535  C 16.5016563505183 25.4425368641585  15.817523996258 25.9206912882588  15.4322844181308 26.8610616556562  C 14.6850524777979 28.6900023278402  15.4322844181308 30.3197119899822  15.5983359604269 32.1207603207603  C 15.7112510091884 33.367946443622  15.0702920559251 34.5434094028688  14.3662335165891 35.3642411642412  C 13.1972306588238 36.7349505133288  10.1053509412685 38.7671068157554  9.61715940691755 40.1696931264498  C 9.35147693924358 40.9347402050105  9.81642125767308 42.0145722794371  9.99243589250693 42.7995424590019  C 9.99243589250693 42.7995424590019  7.20276998193066 44.2698673131106  7.20276998193066 44.2698673131106  C 7.20276998193066 44.2698673131106  5.92085207540396 45.2859454643238  5.92085207540396 45.2859454643238  C 5.92085207540396 45.2859454643238  5.80793702664249 47.8201639120558  5.80793702664249 47.8201639120558  C 5.24336178283545 47.8201639120558  3.88838119769838 47.7564099888423  3.41679481757717 47.9636102392858  C 2.52011648917761 48.3660568795703  1.16181487319466 50.6890904566579  0.427867056245475 51.6493839250595  C 0.427867056245475 51.6493839250595  2.22122371304454 54.757387681712  2.22122371304454 54.757387681712  C 2.22122371304454 54.757387681712  0.826390757756315 54.9964648937622  0.826390757756315 54.9964648937622  C 0.826390757756315 54.9964648937622  0.215321082106243 57.8653914383644  0.215321082106243 57.8653914383644  C 0.119011187574358 58.8655311087743  0.583955506003747 60.0131017266152  0.819748696064494 60.9733951950167  C 0.819748696064494 60.9733951950167  1.37768187817977 63.3641673155186  1.37768187817977 63.3641673155186  C 1.70314290108024 64.204922177895  3.20756987428393 66.5558480963886  3.82528161162583 67.0459563810915  C 4.32343623851443 67.448403021376  5.81457908833437 67.739280296037  6.40572257890898 67.5958339688069  C 7.9234336754962 67.225264290129  8.47804582676571 65.0735693816775  7.99981738495251 64.232814519301  C 7.71420873220302 63.7307523739956  6.49871144259481 63.1410285842717  6.00719887739791 62.8860128914183  C 6.00719887739791 62.8860128914183  6.40572257890898 60.4952407709164  6.40572257890898 60.4952407709164  C 4.27694180667152 59.4711933793014  4.71863890917939 59.5987012257282  4.81162777286534 57.1481598022138  C 6.2463130983046 58.8057618057617  6.30277062268522 58.5826230745149  8.19907923570787 58.5826230745149  C 8.19907923570787 58.5826230745149  7.00682916202112 56.191850954013  7.00682916202112 56.191850954013  C 7.00682916202112 56.191850954013  7.20276998193066 53.562001621461  7.20276998193066 53.562001621461  C 7.20276998193066 53.562001621461  7.40203183268619 55.7136965299127  7.40203183268619 55.7136965299127  C 7.40203183268619 55.7136965299127  12.3835781015724 52.8567238459129  12.3835781015724 52.8567238459129  C 12.3835781015724 52.8567238459129  16.3688151166814 51.6653224058629  16.3688151166814 51.6653224058629  C 16.3688151166814 51.6653224058629  20.1514692501891 49.9758434407083  20.1514692501891 49.9758434407083  C 20.1514692501891 49.9758434407083  19.1584810272576 48.0592411241059  19.1584810272576 48.0592411241059  C 19.1584810272576 48.0592411241059  20.7492548024553 48.0592411241059  20.7492548024553 48.0592411241059  C 20.7492548024553 48.0592411241059  20.7492548024553 49.9758434407083  20.7492548024553 49.9758434407083  C 21.4533133417913 49.2386887035535  22.6223161995565 47.4575634737796  23.5389207130316 47.3858403101646  C 23.9806178155395 47.3499787283571  24.8939012981687 47.8520408736625  25.3322773698306 48.0592411241059  C 25.3322773698306 48.0592411241059  26.3285866236079 45.6684690036041  26.3285866236079 45.6684690036041  C 26.3285866236079 45.6684690036041  28.7197288326733 47.1029322759051  28.7197288326733 47.1029322759051  C 28.7197288326733 47.1029322759051  29.7160380864506 44.7121601554034  29.7160380864506 44.7121601554034  C 29.7160380864506 44.7121601554034  31.7086565940051 45.1903145795038  31.7086565940051 45.1903145795038  C 31.7086565940051 45.1903145795038  32.1071802955159 42.0823108228514  32.1071802955159 42.0823108228514  C 32.1071802955159 42.0823108228514  34.0997988030705 43.7558513072025  34.0997988030705 43.7558513072025  C 35.0462925941588 42.0185568996379  35.4581004190536 41.4646946917216  37.2215677982392 40.8869247626004  C 37.2215677982392 40.8869247626004  37.0289480091756 37.778921005948  37.0289480091756 37.778921005948  C 37.0289480091756 37.778921005948  37.0289480091756 34.1927628251951  37.0289480091756 34.1927628251951  C 37.0289480091756 34.1927628251951  39.0149244550382 33.3161463810113  39.0149244550382 33.3161463810113  C 39.2573597067906 33.9257932717392  39.642599284918 35.3044718612285  40.0842963874258 35.7228569823163  C 41.1370631655838 36.7150274123247  43.7806037189395 35.0893023703835  44.9894589468559 34.9219483219482  C 45.7466539797265 34.8223328169274  46.4573545807543 35.1849332552035  47.1813393051657 35.3881488854461  C 47.1813393051657 35.3881488854461  46.5835537528994 32.8379919569108  46.5835537528994 32.8379919569108  C 46.5835537528994 32.8379919569108  48.3204528853177 32.6427455670698  48.3204528853177 32.6427455670698  C 48.3204528853177 32.6427455670698  50.1702670664975 34.6709172492957  50.1702670664975 34.6709172492957  C 50.3828130406365 34.1369781423834  50.6385324157728 33.0890230295635  50.9473882844437 32.6307917064673  C 52.1130701113631 30.909435779706  54.7698947881024 32.0370832965428  55.5071636358977 31.8059753248942  C 56.2842848538438 31.5668981128439  56.184653928466 30.5906661636392  57.1510739046299 30.2798657879738  C 57.1510739046299 30.2798657879738  60.13335960427 30.1563425617479  60.13335960427 30.1563425617479  C 60.8938756679865 30.0168808547186  61.6909230710084 29.470987887204  62.3219189317339 28.9569718812962  C 62.3219189317339 28.9569718812962  65.3971934950597 26.6299536840076  65.3971934950597 26.6299536840076  C 66.2307722373866 25.6019216721919  64.9621384542436 24.1993353614975  67.1042033498649 23.9881504908531  C 66.6558641856651 23.1513802486775  66.0514365717067 22.9362107578324  65.3108466930657 22.5536872185521  C 65.3108466930657 22.5536872185521  67.2403656145477 22.0715481742509  67.2403656145477 22.0715481742509  C 67.2403656145477 22.0715481742509  68.7348294952136 19.9875918092134  68.7348294952136 19.9875918092134  C 68.7348294952136 19.9875918092134  70.8901785142183 18.7284518257491  70.8901785142183 18.7284518257491  C 70.8901785142183 18.7284518257491  68.7879659887484 15.3813708570466  68.7879659887484 15.3813708570466  C 68.7879659887484 15.3813708570466  67.5525425140646 11.0779810401431  67.5525425140646 11.0779810401431  C 67.5525425140646 11.0779810401431  66.5462701677495 9.16536334374172  66.5462701677495 9.16536334374172  C 66.5462701677495 9.16536334374172  65.7492227647278 7.39619197457029  65.7492227647278 7.39619197457029  C 65.7492227647278 7.39619197457029  63.5174900362667 7.14516090191756  63.5174900362667 7.14516090191756  C 63.5174900362667 7.14516090191756  60.7311451565363 5.05323529647848  60.7311451565363 5.05323529647848  C 60.7311451565363 5.05323529647848  56.9451699921827 4.14474189068773  56.9451699921827 4.14474189068773  C 56.058454756321 6.67099109801808  56.4669415503697 6.17689819311437  56.9451699921827 8.68720891964125  C 54.3746921174375 8.43219322678777  54.2518139761383 7.31649957055362  53.1591948278293 7.15711476252005  C 53.1591948278293 7.15711476252005  49.5758025450771 8.17319291373343  49.5758025450771 8.17319291373343  C 48.390194533082 8.58759341462036  48.4499730883088 9.36459435378356  47.7193463022055 9.87861035969144  C 47.085029410634 10.3209032019842  46.5304172593645 9.89454884049474  45.3879826483667 10.4444264282102  C 44.8865069906321 10.6835036402603  44.1359540194532 11.30111977139  43.5946259915675 11.1576734441599  C 42.3758076711135 10.8428884482939  41.960678815373 9.22513264675416  42.2595715915061 7.96997728349078  C 42.7942575576999 5.73460535082148  44.2056956672176 4.33201904012714  45.7865063498776 3.18444842228627  C 45.7167647021131 2.74215557999338  45.6038496533517 1.92530843882179  45.4477612035932 1.53880027934082  C 45.245178321992 1.02478427343289  45.0027430702395 0.809614782587744  44.584293183653 0.57053757053751  C 42.877283328848 -0.405694378667306  41.9175054143759 1.31167692789313  40.4097574103263 1.25589224508144  C 39.6724885625312 1.22401528347478  38.9883562082708 0.578506810939246  38.4171389027719 0.0764446656338009  C 37.8658477823486 0.622337633148447  37.2348519216229 1.57864648134915  36.6237822459728 1.84561603480512  C 35.8200927812592 2.2002472326796  33.854042520472 1.65833888536594  33.1034895492932 1.23198452387629  C 32.678397601015 0.984938071424494  31.9544128766035 0.36333732009399  31.5093947432497 0.387245041299082  C 30.9182512526752 0.419122002905681  30.4101335332487 1.22799990367554  29.9152999372059 1.61450806315662  Z " fill-rule="nonzero" fill="#324d95" stroke="none" transform="matrix(1 0 0 1 489 2362 )" />
    <path d="M 29.9152999372059 1.61450806315662  C 29.261056860559 2.12055482866282  28.4806146117667 2.18829337207711  27.7234195788961 2.22813957408545  C 28.776186357054 4.82212732483003  29.1547838734894 4.26428049671296  29.516776235695 7.49182285939037  C 28.8260018197429 7.49182285939037  27.3680692783822 7.66316152802636  26.85663052811 7.10929932011004  C 26.3584759012211 6.56739097279643  26.368438993759 5.60311288419399  25.6876276703446 5.24449706611864  C 25.2260043827611 4.99745061366667  22.2603238373508 5.10105073888855  21.5463022054771 5.10105073888855  C 21.5463022054771 5.97368256287172  21.6193648840875 7.42009969577538  21.3868927248727 8.20905449554101  C 21.1444574731203 9.0179323963107  20.5699191367754 9.75907175366632  20.4669671805518 10.5998266160428  C 20.4669671805518 10.5998266160428  20.6562659387695 13.9469075847455  20.6562659387695 13.9469075847455  C 20.5367088283161 14.8992318127453  19.8592185357476 15.8874176225527  19.7263773019108 16.8158341293475  C 19.6167832839952 17.7761275977492  20.061801417349 18.4814053732973  19.7263773019108 19.4456834618996  C 19.2282226750221 20.7964697099831  17.9795150769547 21.6173014713556  17.5079286968333 22.3863331701169  C 17.0994419027847 23.0557493638574  17.1558994271654 23.7610271394054  16.8802538669537 24.4663049149535  C 16.5016563505183 25.4425368641585  15.817523996258 25.9206912882588  15.4322844181308 26.8610616556562  C 14.6850524777979 28.6900023278402  15.4322844181308 30.3197119899822  15.5983359604269 32.1207603207603  C 15.7112510091884 33.367946443622  15.0702920559251 34.5434094028688  14.3662335165891 35.3642411642412  C 13.1972306588238 36.7349505133288  10.1053509412685 38.7671068157554  9.61715940691755 40.1696931264498  C 9.35147693924358 40.9347402050105  9.81642125767308 42.0145722794371  9.99243589250693 42.7995424590019  C 9.99243589250693 42.7995424590019  7.20276998193066 44.2698673131106  7.20276998193066 44.2698673131106  C 7.20276998193066 44.2698673131106  5.92085207540396 45.2859454643238  5.92085207540396 45.2859454643238  C 5.92085207540396 45.2859454643238  5.80793702664249 47.8201639120558  5.80793702664249 47.8201639120558  C 5.24336178283545 47.8201639120558  3.88838119769838 47.7564099888423  3.41679481757717 47.9636102392858  C 2.52011648917761 48.3660568795703  1.16181487319466 50.6890904566579  0.427867056245475 51.6493839250595  C 0.427867056245475 51.6493839250595  2.22122371304454 54.757387681712  2.22122371304454 54.757387681712  C 2.22122371304454 54.757387681712  0.826390757756315 54.9964648937622  0.826390757756315 54.9964648937622  C 0.826390757756315 54.9964648937622  0.215321082106243 57.8653914383644  0.215321082106243 57.8653914383644  C 0.119011187574358 58.8655311087743  0.583955506003747 60.0131017266152  0.819748696064494 60.9733951950167  C 0.819748696064494 60.9733951950167  1.37768187817977 63.3641673155186  1.37768187817977 63.3641673155186  C 1.70314290108024 64.204922177895  3.20756987428393 66.5558480963886  3.82528161162583 67.0459563810915  C 4.32343623851443 67.448403021376  5.81457908833437 67.739280296037  6.40572257890898 67.5958339688069  C 7.9234336754962 67.225264290129  8.47804582676571 65.0735693816775  7.99981738495251 64.232814519301  C 7.71420873220302 63.7307523739956  6.49871144259481 63.1410285842717  6.00719887739791 62.8860128914183  C 6.00719887739791 62.8860128914183  6.40572257890898 60.4952407709164  6.40572257890898 60.4952407709164  C 4.27694180667152 59.4711933793014  4.71863890917939 59.5987012257282  4.81162777286534 57.1481598022138  C 6.2463130983046 58.8057618057617  6.30277062268522 58.5826230745149  8.19907923570787 58.5826230745149  C 8.19907923570787 58.5826230745149  7.00682916202112 56.191850954013  7.00682916202112 56.191850954013  C 7.00682916202112 56.191850954013  7.20276998193066 53.562001621461  7.20276998193066 53.562001621461  C 7.20276998193066 53.562001621461  7.40203183268619 55.7136965299127  7.40203183268619 55.7136965299127  C 7.40203183268619 55.7136965299127  12.3835781015724 52.8567238459129  12.3835781015724 52.8567238459129  C 12.3835781015724 52.8567238459129  16.3688151166814 51.6653224058629  16.3688151166814 51.6653224058629  C 16.3688151166814 51.6653224058629  20.1514692501891 49.9758434407083  20.1514692501891 49.9758434407083  C 20.1514692501891 49.9758434407083  19.1584810272576 48.0592411241059  19.1584810272576 48.0592411241059  C 19.1584810272576 48.0592411241059  20.7492548024553 48.0592411241059  20.7492548024553 48.0592411241059  C 20.7492548024553 48.0592411241059  20.7492548024553 49.9758434407083  20.7492548024553 49.9758434407083  C 21.4533133417913 49.2386887035535  22.6223161995565 47.4575634737796  23.5389207130316 47.3858403101646  C 23.9806178155395 47.3499787283571  24.8939012981687 47.8520408736625  25.3322773698306 48.0592411241059  C 25.3322773698306 48.0592411241059  26.3285866236079 45.6684690036041  26.3285866236079 45.6684690036041  C 26.3285866236079 45.6684690036041  28.7197288326733 47.1029322759051  28.7197288326733 47.1029322759051  C 28.7197288326733 47.1029322759051  29.7160380864506 44.7121601554034  29.7160380864506 44.7121601554034  C 29.7160380864506 44.7121601554034  31.7086565940051 45.1903145795038  31.7086565940051 45.1903145795038  C 31.7086565940051 45.1903145795038  32.1071802955159 42.0823108228514  32.1071802955159 42.0823108228514  C 32.1071802955159 42.0823108228514  34.0997988030705 43.7558513072025  34.0997988030705 43.7558513072025  C 35.0462925941588 42.0185568996379  35.4581004190536 41.4646946917216  37.2215677982392 40.8869247626004  C 37.2215677982392 40.8869247626004  37.0289480091756 37.778921005948  37.0289480091756 37.778921005948  C 37.0289480091756 37.778921005948  37.0289480091756 34.1927628251951  37.0289480091756 34.1927628251951  C 37.0289480091756 34.1927628251951  39.0149244550382 33.3161463810113  39.0149244550382 33.3161463810113  C 39.2573597067906 33.9257932717392  39.642599284918 35.3044718612285  40.0842963874258 35.7228569823163  C 41.1370631655838 36.7150274123247  43.7806037189395 35.0893023703835  44.9894589468559 34.9219483219482  C 45.7466539797265 34.8223328169274  46.4573545807543 35.1849332552035  47.1813393051657 35.3881488854461  C 47.1813393051657 35.3881488854461  46.5835537528994 32.8379919569108  46.5835537528994 32.8379919569108  C 46.5835537528994 32.8379919569108  48.3204528853177 32.6427455670698  48.3204528853177 32.6427455670698  C 48.3204528853177 32.6427455670698  50.1702670664975 34.6709172492957  50.1702670664975 34.6709172492957  C 50.3828130406365 34.1369781423834  50.6385324157728 33.0890230295635  50.9473882844437 32.6307917064673  C 52.1130701113631 30.909435779706  54.7698947881024 32.0370832965428  55.5071636358977 31.8059753248942  C 56.2842848538438 31.5668981128439  56.184653928466 30.5906661636392  57.1510739046299 30.2798657879738  C 57.1510739046299 30.2798657879738  60.13335960427 30.1563425617479  60.13335960427 30.1563425617479  C 60.8938756679865 30.0168808547186  61.6909230710084 29.470987887204  62.3219189317339 28.9569718812962  C 62.3219189317339 28.9569718812962  65.3971934950597 26.6299536840076  65.3971934950597 26.6299536840076  C 66.2307722373866 25.6019216721919  64.9621384542436 24.1993353614975  67.1042033498649 23.9881504908531  C 66.6558641856651 23.1513802486775  66.0514365717067 22.9362107578324  65.3108466930657 22.5536872185521  C 65.3108466930657 22.5536872185521  67.2403656145477 22.0715481742509  67.2403656145477 22.0715481742509  C 67.2403656145477 22.0715481742509  68.7348294952136 19.9875918092134  68.7348294952136 19.9875918092134  C 68.7348294952136 19.9875918092134  70.8901785142183 18.7284518257491  70.8901785142183 18.7284518257491  C 70.8901785142183 18.7284518257491  68.7879659887484 15.3813708570466  68.7879659887484 15.3813708570466  C 68.7879659887484 15.3813708570466  67.5525425140646 11.0779810401431  67.5525425140646 11.0779810401431  C 67.5525425140646 11.0779810401431  66.5462701677495 9.16536334374172  66.5462701677495 9.16536334374172  C 66.5462701677495 9.16536334374172  65.7492227647278 7.39619197457029  65.7492227647278 7.39619197457029  C 65.7492227647278 7.39619197457029  63.5174900362667 7.14516090191756  63.5174900362667 7.14516090191756  C 63.5174900362667 7.14516090191756  60.7311451565363 5.05323529647848  60.7311451565363 5.05323529647848  C 60.7311451565363 5.05323529647848  56.9451699921827 4.14474189068773  56.9451699921827 4.14474189068773  C 56.058454756321 6.67099109801808  56.4669415503697 6.17689819311437  56.9451699921827 8.68720891964125  C 54.3746921174375 8.43219322678777  54.2518139761383 7.31649957055362  53.1591948278293 7.15711476252005  C 53.1591948278293 7.15711476252005  49.5758025450771 8.17319291373343  49.5758025450771 8.17319291373343  C 48.390194533082 8.58759341462036  48.4499730883088 9.36459435378356  47.7193463022055 9.87861035969144  C 47.085029410634 10.3209032019842  46.5304172593645 9.89454884049474  45.3879826483667 10.4444264282102  C 44.8865069906321 10.6835036402603  44.1359540194532 11.30111977139  43.5946259915675 11.1576734441599  C 42.3758076711135 10.8428884482939  41.960678815373 9.22513264675416  42.2595715915061 7.96997728349078  C 42.7942575576999 5.73460535082148  44.2056956672176 4.33201904012714  45.7865063498776 3.18444842228627  C 45.7167647021131 2.74215557999338  45.6038496533517 1.92530843882179  45.4477612035932 1.53880027934082  C 45.245178321992 1.02478427343289  45.0027430702395 0.809614782587744  44.584293183653 0.57053757053751  C 42.877283328848 -0.405694378667306  41.9175054143759 1.31167692789313  40.4097574103263 1.25589224508144  C 39.6724885625312 1.22401528347478  38.9883562082708 0.578506810939246  38.4171389027719 0.0764446656338009  C 37.8658477823486 0.622337633148447  37.2348519216229 1.57864648134915  36.6237822459728 1.84561603480512  C 35.8200927812592 2.2002472326796  33.854042520472 1.65833888536594  33.1034895492932 1.23198452387629  C 32.678397601015 0.984938071424494  31.9544128766035 0.36333732009399  31.5093947432497 0.387245041299082  C 30.9182512526752 0.419122002905681  30.4101335332487 1.22799990367554  29.9152999372059 1.61450806315662  Z " stroke-width="2.13294375456538" stroke="#ffffff" fill="none" transform="matrix(1 0 0 1 489 2362 )" mask="url(#clip51)" />
  </g>
</svg>