<?xml version="1.0" encoding="utf-8"?>
<svg version="1.1" xmlns:xlink="http://www.w3.org/1999/xlink" width="73px" height="63px" xmlns="http://www.w3.org/2000/svg">
  <defs>
    <mask fill="white" id="clip50">
      <path d="M 49.3660136795272 5.82225164353537  C 48.9245127893776 5.84624726077431  47.9606253498146 4.93441380569749  47.5460863460864 4.62247078159231  C 47.5460863460864 4.62247078159231  46.5350156052859 8.70172571219865  46.5350156052859 8.70172571219865  C 45.9081517459896 8.70172571219865  44.4993931804742 8.58574689554411  43.9938578100741 8.94168188458724  C 43.4074367804097 9.35360664718763  43.0333406063136 10.3574233016799  42.2817780223186 10.8693298027757  C 42.2817780223186 10.8693298027757  38.8508779752022 12.1450967859751  38.8508779752022 12.1450967859751  C 37.6780359158736 12.505031044558  36.4546403195051 11.537207815924  35.3390922688221 12.7689828341855  C 34.7021177021177 13.4688550036523  34.8739997280537 14.716627100073  34.8739997280537 15.664453981008  C 34.8739997280537 15.664453981008  32.6867166921221 16.3283327246165  32.6867166921221 16.3283327246165  C 32.1002956624578 16.4403122717312  28.9861977807923 15.116554054054  28.4469600523654 14.6846329437545  C 27.2842287004449 13.748803871439  27.2640072856289 11.8091581446311  25.373305000332 11.7091764061358  C 24.9655064682092 11.685180788897  24.6857768965876 11.8331537618699  24.3723449669395 12.1410975164353  C 22.9433649866082 13.5288440467494  24.3993068533608 14.7046292914535  23.482602715035 15.664453981008  C 23.1759112569923 15.9883948137326  21.9693668396371 16.5122991234478  21.5312361852902 16.7202611395179  C 21.5312361852902 16.7202611395179  18.2958098147287 18.3759587289992  18.2958098147287 18.3759587289992  C 17.7498316146965 18.6119156318481  16.3882563504185 18.927857925493  16.0714541849677 19.431765887509  C 15.7782436701355 19.8956811541271  15.8692400368075 21.5233838568298  15.8692400368075 22.1432706355004  C 14.3088208601721 22.1432706355004  11.4542311353122 21.791334915997  10.0083999759675 21.179446676406  C 9.18606244011647 20.8355094959824  8.86926027466563 20.3435993425857  8.18847264252668 19.9436723886048  C 7.61553255607311 19.6117330168005  6.7999354918274 19.4637600438276  6.16633116092572 19.2637965668371  C 5.91693371152832 19.8276935719503  5.54620777323487 20.907496347699  5.2260353719812 21.3274196493791  C 4.78116424602905 21.9233108108108  2.78261441504679 23.159085098612  2.12204819772376 23.095096785975  C 1.66706636436368 23.0511048210372  0.767213405051223 22.4072224251278  0.302120864282983 22.1432706355004  C 0.302120864282983 22.1432706355004  0.507705248245713 24.8827702702702  0.507705248245713 24.8827702702702  C 0.507705248245713 24.8827702702702  2.12204819772376 25.5506482834185  2.12204819772376 25.5506482834185  C 2.12204819772376 25.5506482834185  6.16633116092572 26.4624817384952  6.16633116092572 26.4624817384952  C 6.20677399055774 27.0943663257851  6.32136200784845 28.4981099342585  6.60446181527266 29.0100164353542  C 7.04933294122475 29.813869612856  8.43449985612148 30.1338111760408  9.19954338332707 30.2697863403944  C 9.19954338332707 30.2697863403944  10.8138863328053 30.5217403214025  10.8138863328053 30.5217403214025  C 11.6665559908803 30.5897279035792  14.0493127033668 30.4217585829071  14.6559551478471 30.6857103725347  C 15.1143072170099 30.8856738495251  15.51873551333 31.7255204528852  15.8523888577943 32.1374452154857  C 16.098416071389 32.4413897005112  16.3680349356025 32.7733290723155  16.4354396516558 33.2052501826149  C 16.5533979047492 34.0091033601167  15.5659188145675 37.2925036523009  14.4368898206736 37.8284057706354  C 13.9650568083001 38.0523648648648  13.1393490366463 37.776415266618  12.6338136662462 37.6644357195032  C 12.6338136662462 37.6644357195032  10.0083999759675 41.7436906501094  10.0083999759675 41.7436906501094  C 10.7060387871198 42.2955898466034  13.2674179971477 44.5231829802776  13.8470985552066 44.6631574141709  C 13.8470985552066 44.6631574141709  16.0714541849677 44.4791910153396  16.0714541849677 44.4791910153396  C 16.0714541849677 44.4791910153396  18.9024522592089 45.3230368882395  18.9024522592089 45.3230368882395  C 19.563018476532 45.3830259313367  20.6886772346231 45.1670653761869  21.187472133418 45.7269631117604  C 21.6020111371463 46.1908783783783  22.0367715556904 47.6946037253469  21.7536717482663 48.3224890430971  C 21.4773124124476 48.9463750913075  20.7021581778338 49.4262874360847  20.7055284136365 50.3821128560992  C 20.7055284136365 50.3821128560992  21.2717280284847 52.5417184075967  21.2717280284847 52.5417184075967  C 21.5952706655409 53.9614590942293  21.7300800976476 55.1572406866324  21.7334503334503 56.6369704163622  C 22.2625773544692 56.5929784514244  23.0882851261229 56.413011322133  23.5533776668912 56.6369704163622  C 24.3487533163208 57.0528944485024  25.5013739608335 58.9925401753104  26.7888040374527 59.7963933528122  C 27.3550036523009 60.1523283418553  30.5567276648358 60.8641983199415  31.2341450611721 60.8601990504017  C 31.2341450611721 60.8601990504017  32.6496440982928 60.6642348429509  32.6496440982928 60.6642348429509  C 33.6101613020532 60.6922297297297  34.5841594490243 61.5960646457268  35.480642172534 61.7360390796201  C 36.7748127207586 61.9320032870709  38.9890576431117 60.8482012417822  39.595700087592 59.4804510591674  C 39.8450975369894 58.9205533235937  39.9900176765041 57.5328067932797  40.0641628641629 56.8609295105916  C 41.5571773247449 58.9205533235937  41.3313715259661 58.8725620891161  43.5018033828844 59.9843590211833  C 43.5018033828844 59.9843590211833  43.0973750865642 57.8207542001461  43.0973750865642 57.8207542001461  C 43.0973750865642 57.8207542001461  44.7150882718449 60.4642713659604  44.7150882718449 60.4642713659604  C 44.7150882718449 60.4642713659604  46.3328014571257 59.9843590211833  46.3328014571257 59.9843590211833  C 46.3328014571257 59.9843590211833  46.737229753446 62.8638330898465  46.737229753446 62.8638330898465  C 47.6842660139957 62.5638878743608  49.3862350943431 62.3039353542732  49.9861370672181 61.3281135865596  C 50.2961987610636 60.8202063550036  50.4310081931703 59.4684532505478  50.5792985684878 58.7845781592404  C 50.5792985684878 58.7845781592404  52.395855666126 60.4642713659604  52.395855666126 60.4642713659604  C 52.395855666126 60.4642713659604  55.6312820366874 56.6289718772827  55.6312820366874 56.6289718772827  C 55.6312820366874 56.6289718772827  57.8556376664486 56.3810171658145  57.8556376664486 56.3810171658145  C 57.8556376664486 56.3810171658145  58.0612220504112 54.033445945946  58.0612220504112 54.033445945946  C 58.0612220504112 54.033445945946  62.1021347778105 51.3419375456537  62.1021347778105 51.3419375456537  C 61.994287232125 50.8580259313367  61.6707445950688 49.862207815924  61.7212981321089 49.4222881665449  C 61.8122944987809 48.6784240321403  62.6514832136454 47.7865869247626  63.1132055186109 47.3066745799853  C 64.5287045557316 45.8309441197954  66.4969222644899 44.9591033601168  67.5888786645543 42.9434715120525  C 68.5426553967094 41.0558162892622  66.6586935830178 38.5522735573411  67.5888786645543 36.2246986851716  C 67.9831962534665 35.3568571950329  68.6066898769602 34.8609477720964  68.9908967584644 34.0610938641344  C 69.4323976486138 33.141261869978  69.2436644436644 31.9814737034332  69.8705283029607 31.0656409788166  C 70.3895446165716 30.3097790357926  71.4949819598468 29.5939097881665  71.9769256796284 28.382131117604  C 72.5397550586739 26.9583911614316  71.5859783265188 26.4904766252739  72.2667659586578 24.762792184076  C 72.5094229364499 24.1429054054053  72.8262251019007 23.5430149744339  72.9374428833888 22.8631391526661  C 73.1059546735222 21.8233290723156  72.9475535907969 19.5477447041636  71.9870363870364 19.1478177501825  C 70.659163480785 18.5999178232286  70.2412542412541 19.4397644265887  69.1796299634137 20.0596512052593  C 68.5763577547361 20.4115869247625  67.8180546991358 20.5555606281957  67.1574884818128 20.7035336011687  C 67.1574884818128 20.7035336011687  66.7530601854925 15.1845416362307  66.7530601854925 15.1845416362307  C 63.5917790025899 16.4323137326515  65.0409803977372 15.916407962016  62.5065630741307 17.8240595325054  C 62.5065630741307 17.8240595325054  62.6784451000667 14.7046292914535  62.6784451000667 14.7046292914535  C 62.6784451000667 14.7046292914535  65.1016446421852 10.6213750913075  65.1016446421852 10.6213750913075  C 65.1016446421852 10.6213750913075  65.4251872792412 7.98185719503277  65.4251872792412 7.98185719503277  C 65.4251872792412 7.98185719503277  66.5508460373326 5.57029766252731  66.5508460373326 5.57029766252731  C 66.1363070336043 5.64228451424395  65.559996711348 5.79025748721693  65.1791600656466 5.57029766252731  C 64.1546083816354 4.92641526661799  63.9119514038432 1.57502739225708  63.7198479630911 0.303259678597385  C 60.8416665876125 0.307258948137303  61.2730567703541 0.99113403944483  59.8777791480494 1.21909240321395  C 59.1902510443051 1.24708728999263  58.529684826982 0.863157414170871  57.8758590812644 1.21909240321395  C 56.8007538602131 1.93896092037977  56.5311349959999 3.72663440467483  54.640432710703 4.2465394448501  C 53.5147739526117 4.55448319941559  53.1103456562916 3.01076515704887  52.2138629327818 3.16273739956165  C 51.4319682265627 3.29071402483561  50.2995689968663 5.77026113951786  49.3660136795272 5.82225164353537  Z " fill-rule="evenodd" />
    </mask>
  </defs>
  <g transform="matrix(1 0 0 1 -440 -2353 )">
    <path d="M 49.3660136795272 5.82225164353537  C 48.9245127893776 5.84624726077431  47.9606253498146 4.93441380569749  47.5460863460864 4.62247078159231  C 47.5460863460864 4.62247078159231  46.5350156052859 8.70172571219865  46.5350156052859 8.70172571219865  C 45.9081517459896 8.70172571219865  44.4993931804742 8.58574689554411  43.9938578100741 8.94168188458724  C 43.4074367804097 9.35360664718763  43.0333406063136 10.3574233016799  42.2817780223186 10.8693298027757  C 42.2817780223186 10.8693298027757  38.8508779752022 12.1450967859751  38.8508779752022 12.1450967859751  C 37.6780359158736 12.505031044558  36.4546403195051 11.537207815924  35.3390922688221 12.7689828341855  C 34.7021177021177 13.4688550036523  34.8739997280537 14.716627100073  34.8739997280537 15.664453981008  C 34.8739997280537 15.664453981008  32.6867166921221 16.3283327246165  32.6867166921221 16.3283327246165  C 32.1002956624578 16.4403122717312  28.9861977807923 15.116554054054  28.4469600523654 14.6846329437545  C 27.2842287004449 13.748803871439  27.2640072856289 11.8091581446311  25.373305000332 11.7091764061358  C 24.9655064682092 11.685180788897  24.6857768965876 11.8331537618699  24.3723449669395 12.1410975164353  C 22.9433649866082 13.5288440467494  24.3993068533608 14.7046292914535  23.482602715035 15.664453981008  C 23.1759112569923 15.9883948137326  21.9693668396371 16.5122991234478  21.5312361852902 16.7202611395179  C 21.5312361852902 16.7202611395179  18.2958098147287 18.3759587289992  18.2958098147287 18.3759587289992  C 17.7498316146965 18.6119156318481  16.3882563504185 18.927857925493  16.0714541849677 19.431765887509  C 15.7782436701355 19.8956811541271  15.8692400368075 21.5233838568298  15.8692400368075 22.1432706355004  C 14.3088208601721 22.1432706355004  11.4542311353122 21.791334915997  10.0083999759675 21.179446676406  C 9.18606244011647 20.8355094959824  8.86926027466563 20.3435993425857  8.18847264252668 19.9436723886048  C 7.61553255607311 19.6117330168005  6.7999354918274 19.4637600438276  6.16633116092572 19.2637965668371  C 5.91693371152832 19.8276935719503  5.54620777323487 20.907496347699  5.2260353719812 21.3274196493791  C 4.78116424602905 21.9233108108108  2.78261441504679 23.159085098612  2.12204819772376 23.095096785975  C 1.66706636436368 23.0511048210372  0.767213405051223 22.4072224251278  0.302120864282983 22.1432706355004  C 0.302120864282983 22.1432706355004  0.507705248245713 24.8827702702702  0.507705248245713 24.8827702702702  C 0.507705248245713 24.8827702702702  2.12204819772376 25.5506482834185  2.12204819772376 25.5506482834185  C 2.12204819772376 25.5506482834185  6.16633116092572 26.4624817384952  6.16633116092572 26.4624817384952  C 6.20677399055774 27.0943663257851  6.32136200784845 28.4981099342585  6.60446181527266 29.0100164353542  C 7.04933294122475 29.813869612856  8.43449985612148 30.1338111760408  9.19954338332707 30.2697863403944  C 9.19954338332707 30.2697863403944  10.8138863328053 30.5217403214025  10.8138863328053 30.5217403214025  C 11.6665559908803 30.5897279035792  14.0493127033668 30.4217585829071  14.6559551478471 30.6857103725347  C 15.1143072170099 30.8856738495251  15.51873551333 31.7255204528852  15.8523888577943 32.1374452154857  C 16.098416071389 32.4413897005112  16.3680349356025 32.7733290723155  16.4354396516558 33.2052501826149  C 16.5533979047492 34.0091033601167  15.5659188145675 37.2925036523009  14.4368898206736 37.8284057706354  C 13.9650568083001 38.0523648648648  13.1393490366463 37.776415266618  12.6338136662462 37.6644357195032  C 12.6338136662462 37.6644357195032  10.0083999759675 41.7436906501094  10.0083999759675 41.7436906501094  C 10.7060387871198 42.2955898466034  13.2674179971477 44.5231829802776  13.8470985552066 44.6631574141709  C 13.8470985552066 44.6631574141709  16.0714541849677 44.4791910153396  16.0714541849677 44.4791910153396  C 16.0714541849677 44.4791910153396  18.9024522592089 45.3230368882395  18.9024522592089 45.3230368882395  C 19.563018476532 45.3830259313367  20.6886772346231 45.1670653761869  21.187472133418 45.7269631117604  C 21.6020111371463 46.1908783783783  22.0367715556904 47.6946037253469  21.7536717482663 48.3224890430971  C 21.4773124124476 48.9463750913075  20.7021581778338 49.4262874360847  20.7055284136365 50.3821128560992  C 20.7055284136365 50.3821128560992  21.2717280284847 52.5417184075967  21.2717280284847 52.5417184075967  C 21.5952706655409 53.9614590942293  21.7300800976476 55.1572406866324  21.7334503334503 56.6369704163622  C 22.2625773544692 56.5929784514244  23.0882851261229 56.413011322133  23.5533776668912 56.6369704163622  C 24.3487533163208 57.0528944485024  25.5013739608335 58.9925401753104  26.7888040374527 59.7963933528122  C 27.3550036523009 60.1523283418553  30.5567276648358 60.8641983199415  31.2341450611721 60.8601990504017  C 31.2341450611721 60.8601990504017  32.6496440982928 60.6642348429509  32.6496440982928 60.6642348429509  C 33.6101613020532 60.6922297297297  34.5841594490243 61.5960646457268  35.480642172534 61.7360390796201  C 36.7748127207586 61.9320032870709  38.9890576431117 60.8482012417822  39.595700087592 59.4804510591674  C 39.8450975369894 58.9205533235937  39.9900176765041 57.5328067932797  40.0641628641629 56.8609295105916  C 41.5571773247449 58.9205533235937  41.3313715259661 58.8725620891161  43.5018033828844 59.9843590211833  C 43.5018033828844 59.9843590211833  43.0973750865642 57.8207542001461  43.0973750865642 57.8207542001461  C 43.0973750865642 57.8207542001461  44.7150882718449 60.4642713659604  44.7150882718449 60.4642713659604  C 44.7150882718449 60.4642713659604  46.3328014571257 59.9843590211833  46.3328014571257 59.9843590211833  C 46.3328014571257 59.9843590211833  46.737229753446 62.8638330898465  46.737229753446 62.8638330898465  C 47.6842660139957 62.5638878743608  49.3862350943431 62.3039353542732  49.9861370672181 61.3281135865596  C 50.2961987610636 60.8202063550036  50.4310081931703 59.4684532505478  50.5792985684878 58.7845781592404  C 50.5792985684878 58.7845781592404  52.395855666126 60.4642713659604  52.395855666126 60.4642713659604  C 52.395855666126 60.4642713659604  55.6312820366874 56.6289718772827  55.6312820366874 56.6289718772827  C 55.6312820366874 56.6289718772827  57.8556376664486 56.3810171658145  57.8556376664486 56.3810171658145  C 57.8556376664486 56.3810171658145  58.0612220504112 54.033445945946  58.0612220504112 54.033445945946  C 58.0612220504112 54.033445945946  62.1021347778105 51.3419375456537  62.1021347778105 51.3419375456537  C 61.994287232125 50.8580259313367  61.6707445950688 49.862207815924  61.7212981321089 49.4222881665449  C 61.8122944987809 48.6784240321403  62.6514832136454 47.7865869247626  63.1132055186109 47.3066745799853  C 64.5287045557316 45.8309441197954  66.4969222644899 44.9591033601168  67.5888786645543 42.9434715120525  C 68.5426553967094 41.0558162892622  66.6586935830178 38.5522735573411  67.5888786645543 36.2246986851716  C 67.9831962534665 35.3568571950329  68.6066898769602 34.8609477720964  68.9908967584644 34.0610938641344  C 69.4323976486138 33.141261869978  69.2436644436644 31.9814737034332  69.8705283029607 31.0656409788166  C 70.3895446165716 30.3097790357926  71.4949819598468 29.5939097881665  71.9769256796284 28.382131117604  C 72.5397550586739 26.9583911614316  71.5859783265188 26.4904766252739  72.2667659586578 24.762792184076  C 72.5094229364499 24.1429054054053  72.8262251019007 23.5430149744339  72.9374428833888 22.8631391526661  C 73.1059546735222 21.8233290723156  72.9475535907969 19.5477447041636  71.9870363870364 19.1478177501825  C 70.659163480785 18.5999178232286  70.2412542412541 19.4397644265887  69.1796299634137 20.0596512052593  C 68.5763577547361 20.4115869247625  67.8180546991358 20.5555606281957  67.1574884818128 20.7035336011687  C 67.1574884818128 20.7035336011687  66.7530601854925 15.1845416362307  66.7530601854925 15.1845416362307  C 63.5917790025899 16.4323137326515  65.0409803977372 15.916407962016  62.5065630741307 17.8240595325054  C 62.5065630741307 17.8240595325054  62.6784451000667 14.7046292914535  62.6784451000667 14.7046292914535  C 62.6784451000667 14.7046292914535  65.1016446421852 10.6213750913075  65.1016446421852 10.6213750913075  C 65.1016446421852 10.6213750913075  65.4251872792412 7.98185719503277  65.4251872792412 7.98185719503277  C 65.4251872792412 7.98185719503277  66.5508460373326 5.57029766252731  66.5508460373326 5.57029766252731  C 66.1363070336043 5.64228451424395  65.559996711348 5.79025748721693  65.1791600656466 5.57029766252731  C 64.1546083816354 4.92641526661799  63.9119514038432 1.57502739225708  63.7198479630911 0.303259678597385  C 60.8416665876125 0.307258948137303  61.2730567703541 0.99113403944483  59.8777791480494 1.21909240321395  C 59.1902510443051 1.24708728999263  58.529684826982 0.863157414170871  57.8758590812644 1.21909240321395  C 56.8007538602131 1.93896092037977  56.5311349959999 3.72663440467483  54.640432710703 4.2465394448501  C 53.5147739526117 4.55448319941559  53.1103456562916 3.01076515704887  52.2138629327818 3.16273739956165  C 51.4319682265627 3.29071402483561  50.2995689968663 5.77026113951786  49.3660136795272 5.82225164353537  Z " fill-rule="nonzero" fill="#1c8dff" stroke="none" transform="matrix(1 0 0 1 440 2353 )" />
    <path d="M 49.3660136795272 5.82225164353537  C 48.9245127893776 5.84624726077431  47.9606253498146 4.93441380569749  47.5460863460864 4.62247078159231  C 47.5460863460864 4.62247078159231  46.5350156052859 8.70172571219865  46.5350156052859 8.70172571219865  C 45.9081517459896 8.70172571219865  44.4993931804742 8.58574689554411  43.9938578100741 8.94168188458724  C 43.4074367804097 9.35360664718763  43.0333406063136 10.3574233016799  42.2817780223186 10.8693298027757  C 42.2817780223186 10.8693298027757  38.8508779752022 12.1450967859751  38.8508779752022 12.1450967859751  C 37.6780359158736 12.505031044558  36.4546403195051 11.537207815924  35.3390922688221 12.7689828341855  C 34.7021177021177 13.4688550036523  34.8739997280537 14.716627100073  34.8739997280537 15.664453981008  C 34.8739997280537 15.664453981008  32.6867166921221 16.3283327246165  32.6867166921221 16.3283327246165  C 32.1002956624578 16.4403122717312  28.9861977807923 15.116554054054  28.4469600523654 14.6846329437545  C 27.2842287004449 13.748803871439  27.2640072856289 11.8091581446311  25.373305000332 11.7091764061358  C 24.9655064682092 11.685180788897  24.6857768965876 11.8331537618699  24.3723449669395 12.1410975164353  C 22.9433649866082 13.5288440467494  24.3993068533608 14.7046292914535  23.482602715035 15.664453981008  C 23.1759112569923 15.9883948137326  21.9693668396371 16.5122991234478  21.5312361852902 16.7202611395179  C 21.5312361852902 16.7202611395179  18.2958098147287 18.3759587289992  18.2958098147287 18.3759587289992  C 17.7498316146965 18.6119156318481  16.3882563504185 18.927857925493  16.0714541849677 19.431765887509  C 15.7782436701355 19.8956811541271  15.8692400368075 21.5233838568298  15.8692400368075 22.1432706355004  C 14.3088208601721 22.1432706355004  11.4542311353122 21.791334915997  10.0083999759675 21.179446676406  C 9.18606244011647 20.8355094959824  8.86926027466563 20.3435993425857  8.18847264252668 19.9436723886048  C 7.61553255607311 19.6117330168005  6.7999354918274 19.4637600438276  6.16633116092572 19.2637965668371  C 5.91693371152832 19.8276935719503  5.54620777323487 20.907496347699  5.2260353719812 21.3274196493791  C 4.78116424602905 21.9233108108108  2.78261441504679 23.159085098612  2.12204819772376 23.095096785975  C 1.66706636436368 23.0511048210372  0.767213405051223 22.4072224251278  0.302120864282983 22.1432706355004  C 0.302120864282983 22.1432706355004  0.507705248245713 24.8827702702702  0.507705248245713 24.8827702702702  C 0.507705248245713 24.8827702702702  2.12204819772376 25.5506482834185  2.12204819772376 25.5506482834185  C 2.12204819772376 25.5506482834185  6.16633116092572 26.4624817384952  6.16633116092572 26.4624817384952  C 6.20677399055774 27.0943663257851  6.32136200784845 28.4981099342585  6.60446181527266 29.0100164353542  C 7.04933294122475 29.813869612856  8.43449985612148 30.1338111760408  9.19954338332707 30.2697863403944  C 9.19954338332707 30.2697863403944  10.8138863328053 30.5217403214025  10.8138863328053 30.5217403214025  C 11.6665559908803 30.5897279035792  14.0493127033668 30.4217585829071  14.6559551478471 30.6857103725347  C 15.1143072170099 30.8856738495251  15.51873551333 31.7255204528852  15.8523888577943 32.1374452154857  C 16.098416071389 32.4413897005112  16.3680349356025 32.7733290723155  16.4354396516558 33.2052501826149  C 16.5533979047492 34.0091033601167  15.5659188145675 37.2925036523009  14.4368898206736 37.8284057706354  C 13.9650568083001 38.0523648648648  13.1393490366463 37.776415266618  12.6338136662462 37.6644357195032  C 12.6338136662462 37.6644357195032  10.0083999759675 41.7436906501094  10.0083999759675 41.7436906501094  C 10.7060387871198 42.2955898466034  13.2674179971477 44.5231829802776  13.8470985552066 44.6631574141709  C 13.8470985552066 44.6631574141709  16.0714541849677 44.4791910153396  16.0714541849677 44.4791910153396  C 16.0714541849677 44.4791910153396  18.9024522592089 45.3230368882395  18.9024522592089 45.3230368882395  C 19.563018476532 45.3830259313367  20.6886772346231 45.1670653761869  21.187472133418 45.7269631117604  C 21.6020111371463 46.1908783783783  22.0367715556904 47.6946037253469  21.7536717482663 48.3224890430971  C 21.4773124124476 48.9463750913075  20.7021581778338 49.4262874360847  20.7055284136365 50.3821128560992  C 20.7055284136365 50.3821128560992  21.2717280284847 52.5417184075967  21.2717280284847 52.5417184075967  C 21.5952706655409 53.9614590942293  21.7300800976476 55.1572406866324  21.7334503334503 56.6369704163622  C 22.2625773544692 56.5929784514244  23.0882851261229 56.413011322133  23.5533776668912 56.6369704163622  C 24.3487533163208 57.0528944485024  25.5013739608335 58.9925401753104  26.7888040374527 59.7963933528122  C 27.3550036523009 60.1523283418553  30.5567276648358 60.8641983199415  31.2341450611721 60.8601990504017  C 31.2341450611721 60.8601990504017  32.6496440982928 60.6642348429509  32.6496440982928 60.6642348429509  C 33.6101613020532 60.6922297297297  34.5841594490243 61.5960646457268  35.480642172534 61.7360390796201  C 36.7748127207586 61.9320032870709  38.9890576431117 60.8482012417822  39.595700087592 59.4804510591674  C 39.8450975369894 58.9205533235937  39.9900176765041 57.5328067932797  40.0641628641629 56.8609295105916  C 41.5571773247449 58.9205533235937  41.3313715259661 58.8725620891161  43.5018033828844 59.9843590211833  C 43.5018033828844 59.9843590211833  43.0973750865642 57.8207542001461  43.0973750865642 57.8207542001461  C 43.0973750865642 57.8207542001461  44.7150882718449 60.4642713659604  44.7150882718449 60.4642713659604  C 44.7150882718449 60.4642713659604  46.3328014571257 59.9843590211833  46.3328014571257 59.9843590211833  C 46.3328014571257 59.9843590211833  46.737229753446 62.8638330898465  46.737229753446 62.8638330898465  C 47.6842660139957 62.5638878743608  49.3862350943431 62.3039353542732  49.9861370672181 61.3281135865596  C 50.2961987610636 60.8202063550036  50.4310081931703 59.4684532505478  50.5792985684878 58.7845781592404  C 50.5792985684878 58.7845781592404  52.395855666126 60.4642713659604  52.395855666126 60.4642713659604  C 52.395855666126 60.4642713659604  55.6312820366874 56.6289718772827  55.6312820366874 56.6289718772827  C 55.6312820366874 56.6289718772827  57.8556376664486 56.3810171658145  57.8556376664486 56.3810171658145  C 57.8556376664486 56.3810171658145  58.0612220504112 54.033445945946  58.0612220504112 54.033445945946  C 58.0612220504112 54.033445945946  62.1021347778105 51.3419375456537  62.1021347778105 51.3419375456537  C 61.994287232125 50.8580259313367  61.6707445950688 49.862207815924  61.7212981321089 49.4222881665449  C 61.8122944987809 48.6784240321403  62.6514832136454 47.7865869247626  63.1132055186109 47.3066745799853  C 64.5287045557316 45.8309441197954  66.4969222644899 44.9591033601168  67.5888786645543 42.9434715120525  C 68.5426553967094 41.0558162892622  66.6586935830178 38.5522735573411  67.5888786645543 36.2246986851716  C 67.9831962534665 35.3568571950329  68.6066898769602 34.8609477720964  68.9908967584644 34.0610938641344  C 69.4323976486138 33.141261869978  69.2436644436644 31.9814737034332  69.8705283029607 31.0656409788166  C 70.3895446165716 30.3097790357926  71.4949819598468 29.5939097881665  71.9769256796284 28.382131117604  C 72.5397550586739 26.9583911614316  71.5859783265188 26.4904766252739  72.2667659586578 24.762792184076  C 72.5094229364499 24.1429054054053  72.8262251019007 23.5430149744339  72.9374428833888 22.8631391526661  C 73.1059546735222 21.8233290723156  72.9475535907969 19.5477447041636  71.9870363870364 19.1478177501825  C 70.659163480785 18.5999178232286  70.2412542412541 19.4397644265887  69.1796299634137 20.0596512052593  C 68.5763577547361 20.4115869247625  67.8180546991358 20.5555606281957  67.1574884818128 20.7035336011687  C 67.1574884818128 20.7035336011687  66.7530601854925 15.1845416362307  66.7530601854925 15.1845416362307  C 63.5917790025899 16.4323137326515  65.0409803977372 15.916407962016  62.5065630741307 17.8240595325054  C 62.5065630741307 17.8240595325054  62.6784451000667 14.7046292914535  62.6784451000667 14.7046292914535  C 62.6784451000667 14.7046292914535  65.1016446421852 10.6213750913075  65.1016446421852 10.6213750913075  C 65.1016446421852 10.6213750913075  65.4251872792412 7.98185719503277  65.4251872792412 7.98185719503277  C 65.4251872792412 7.98185719503277  66.5508460373326 5.57029766252731  66.5508460373326 5.57029766252731  C 66.1363070336043 5.64228451424395  65.559996711348 5.79025748721693  65.1791600656466 5.57029766252731  C 64.1546083816354 4.92641526661799  63.9119514038432 1.57502739225708  63.7198479630911 0.303259678597385  C 60.8416665876125 0.307258948137303  61.2730567703541 0.99113403944483  59.8777791480494 1.21909240321395  C 59.1902510443051 1.24708728999263  58.529684826982 0.863157414170871  57.8758590812644 1.21909240321395  C 56.8007538602131 1.93896092037977  56.5311349959999 3.72663440467483  54.640432710703 4.2465394448501  C 53.5147739526117 4.55448319941559  53.1103456562916 3.01076515704887  52.2138629327818 3.16273739956165  C 51.4319682265627 3.29071402483561  50.2995689968663 5.77026113951786  49.3660136795272 5.82225164353537  Z " stroke-width="2.13294375456538" stroke="#ffffff" fill="none" transform="matrix(1 0 0 1 440 2353 )" mask="url(#clip50)" />
  </g>
</svg>