<?xml version="1.0" encoding="utf-8"?>
<svg version="1.1" xmlns:xlink="http://www.w3.org/1999/xlink" width="181px" height="170px" xmlns="http://www.w3.org/2000/svg">
  <defs>
    <mask fill="white" id="clip7">
      <path d="M 93.3272958562534 17.8265084805625  C 92.900525732572 17.6352467109224  92.0338540967884 17.6830621533324  91.5545584194233 17.6830621533324  C 91.0128886470585 20.1216497162443  90.2184396475902 20.0897727546376  89.3255052349647 21.9904365904366  C 87.8712039673429 25.0705480056832  88.2979740910242 24.7438091492146  86.2790231213011 27.9673668916912  C 85.5436653697271 29.1388452307371  84.4340630481557 30.310323569783  83.9514845236853 31.553525072444  C 83.4886030818464 32.7409418922932  83.0815300407964 34.7850520553223  83.1734497597432 36.0959921013975  C 83.2456723960585 37.1160548728116  83.5641085652668 37.5185015130961  83.6494625900032 38.2476870098492  C 83.7315337676342 38.9529647853972  83.5017344702673 39.9491198356063  83.3507235034262 40.638459130351  C 81.7519769631739 39.2039958580499  81.6239459260695 39.9929506578155  80.826214079496 39.4390884498993  C 80.2353016005526 39.032657189414  79.9037340429232 37.9966559371965  79.2077704566122 37.4348244888786  C 78.6365550603002 36.9726085455815  77.9044801558315 37.0363624687949  77.2446278876781 37.0562855697991  C 77.2446278876781 37.0562855697991  71.9264155771878 37.7615633453471  71.9264155771878 37.7615633453471  C 71.9264155771878 37.7615633453471  69.3690776822051 37.7615633453471  69.3690776822051 37.7615633453471  C 69.3690776822051 37.7615633453471  67.7933110716894 37.4786553110877  67.7933110716894 37.4786553110877  C 66.7986083988015 37.3870090464685  65.2294074824962 37.7097632827362  65.0915279040762 39.2039958580499  C 64.9700625611822 40.5029820435226  66.5819404898556 41.1723982372631  66.6968401385389 42.7901540388027  C 66.6968401385389 42.7901540388027  66.0369878703855 50.4446094446094  66.0369878703855 50.4446094446094  C 66.0369878703855 50.4446094446094  66.0369878703855 53.3135359892117  66.0369878703855 53.3135359892117  C 66.1945645314371 55.010984194768  66.411232440383 54.9950457139647  66.4145152874883 57.1387713820146  C 66.4145152874883 57.1387713820146  66.4145152874883 62.1593928350685  66.4145152874883 62.1593928350685  C 65.5839549698623 61.9601618250267  64.421827094607 61.4142688575121  63.972077041189 62.6853627015789  C 63.7324292025064 63.3547788953194  64.0311682890834 64.2035029980976  63.3975787977719 64.8251037494281  C 62.9609601327748 65.2554427311184  60.8665036796311 65.7495356360221  60.4266021675288 66.9927371386831  C 60.1180145396362 67.8573997222645  60.6399872293694 70.2521564629673  59.5566476846399 71.9017892261136  C 59.1134633254324 72.5751900400549  58.358408491227 72.7704364298959  57.7477989296522 73.156944589377  C 57.7477989296522 73.156944589377  55.9750614928221 74.5117154576614  55.9750614928221 74.5117154576614  C 53.8149480975736 75.9740710713684  53.6376743538906 75.276762536222  51.8386741402185 75.6632706957031  C 51.8386741402185 75.6632706957031  47.9025404610346 76.834749034749  47.9025404610346 76.834749034749  C 47.9025404610346 76.834749034749  44.16009476106 77.9942735131924  44.16009476106 77.9942735131924  C 43.1095836873829 77.9066118687741  42.5547825265972 76.1693174612094  41.0085615400287 76.1334558794018  C 39.9514847721412 76.1095481581968  39.5148661071441 77.1973494730251  38.6449116242553 77.4882267476862  C 38.6449116242553 77.4882267476862  35.6903492295384 77.7033962385314  35.6903492295384 77.7033962385314  C 35.6903492295384 77.7033962385314  35.493378403224 80.0941683590332  35.493378403224 80.0941683590332  C 33.6648325656048 79.6399216561379  33.4219018798169 79.0462132462133  32.7357868348216 78.8987822987823  C 30.519865038784 78.4126586342803  29.78450728721 82.389309594715  27.8147990240655 84.2859888103131  C 26.1700926243397 85.8599137896435  25.5890286867121 85.0111896868654  24.0723533240908 85.1626052544972  C 23.2680557833068 85.2462822787147  21.895825693316 85.4375440483549  21.2523876606888 84.5051429213591  C 20.9241029501647 84.0269884972588  21.1243566235844 83.094587370263  21.104659540953 82.4849404795351  C 21.0816796112163 81.5286316313343  20.8485974667442 80.9428924618113  20.5268784504306 80.0941683590332  C 20.5268784504306 80.0941683590332  17.2932740517682 81.2178312556691  17.2932740517682 81.2178312556691  C 17.2932740517682 81.2178312556691  15.0116953136258 79.855091146983  15.0116953136258 79.855091146983  C 15.0116953136258 79.855091146983  15.0116953136258 82.0067860554347  15.0116953136258 82.0067860554347  C 12.4477917244326 80.8711692981963  12.2147095799606 82.608463705761  10.6783371347078 82.9073102208237  C 10.054596184712 83.0268488268488  9.70661439155647 82.608463705761  9.10585337129737 82.5805713643551  C 7.98968535551548 82.5327559219451  6.49598992263082 83.55680331356  5.85583473710889 84.6366353879867  C 5.2156795515869 85.7324059432168  5.4914387084271 86.9477151044719  4.86769775843137 87.7805007264467  C 4.14218854817312 88.7567326756516  2.9209694250235 88.9997945079026  2.15934889660758 90.7769351174757  C 1.67020467792671 91.9205211151157  2.3202084047644 92.4066447796178  2.38258249976397 93.3071689450068  C 2.49748214844741 94.9727401889564  1.28282871950828 96.4271265622617  0.242166187146896 97.2320198428307  C 0.613127910039118 98.2759903354498  1.37803128556025 100.551208470127  2.21844014450194 101.04131675483  C 3.05884900344358 101.531425039533  3.91895494501673 100.595039292337  4.69042401474835 100.583085431734  C 5.71795515868876 100.567146950931  7.49397544262411 102.495703128136  8.05205945051505 103.448027356135  C 8.82352852024668 104.774905883014  7.91746271920015 106.396646304754  7.66796633920185 107.751417173039  C 7.42175280630877 108.906957031281  7.76316890525388 109.456834618997  7.66796633920185 110.620343717641  C 7.66796633920185 110.620343717641  6.82427463315494 115.166795366795  6.82427463315494 115.166795366795  C 6.75205199683966 116.728766485523  8.33110145446052 117.386228818661  6.6831122076296 119.171338668636  C 5.448761696059 120.434463272301  4.61163568422253 119.243061832251  3.7876410608071 119.171338668636  C 3.42324503212536 119.203215630243  2.45808798318453 119.585739169523  2.01490362397697 119.709262395749  C 2.01490362397697 119.709262395749  5.36340767132274 123.060327984652  5.36340767132274 123.060327984652  C 5.36340767132274 123.060327984652  6.93917428183838 124.112267717673  6.93917428183838 124.112267717673  C 8.4427182560387 125.498915547564  8.39675839656537 126.542886040183  8.90559969787767 127.244179195531  C 9.38161252813762 127.897656908468  9.93313084181807 127.682487417622  10.5535889447087 128.590980823413  C 11.5909686299648 130.109121119932  11.7222825141744 133.464171329036  11.1379357294415 135.253265799212  C 10.9015707378642 135.970497435362  10.4813663083933 136.568190465488  10.0907075028697 137.165883495613  C 11.1018244112839 138.91513176378  11.2626839194407 138.560500565906  11.2692496136511 140.752041676366  C 13.7773448020552 140.763995536969  13.3177462073215 141.839842991194  14.768764627838 143.780353029002  C 15.3793741894128 144.605169410575  16.0851863170396 144.864169723629  16.7516042794035 145.613278321386  C 17.2965568988735 146.222925212114  17.58873029124 146.924218367462  18.1960570057095 147.454172854173  C 19.4271246701749 148.5340049286  21.9844625651576 148.836836063863  23.4814408451474 149.4903137768  C 24.1018989480379 149.761267950457  24.6731143443499 150.183637691746  25.2541782819775 150.554207370424  C 24.3054354685629 151.901008998306  23.8228569440925 152.785594682892  24.1478588075113 154.618519975277  C 24.1478588075113 154.618519975277  24.6796800385604 156.535122291879  24.6796800385604 156.535122291879  C 24.6796800385604 156.535122291879  24.4695778238249 160.117295852431  24.4695778238249 160.117295852431  C 24.5221033775088 161.802790197385  25.0867530796102 161.288774191477  26.6329740661787 163.010130118238  C 27.2731292517007 163.727361754389  28.9506641224788 165.978672167861  29.5875364608955 166.309395644531  C 30.2244087993122 166.644103741401  31.2355257077265 166.177903177903  31.9479035295638 166.177903177903  C 31.9479035295638 166.177903177903  35.493378403224 166.871227092849  35.493378403224 166.871227092849  C 36.4979296174277 166.899119434255  37.210307439265 165.293317493317  37.7782399884716 164.424670289535  C 37.7782399884716 164.424670289535  40.0434044910879 160.619357997736  40.0434044910879 160.619357997736  C 40.0434044910879 160.619357997736  41.5994740189721 158.913940551778  41.5994740189721 158.913940551778  C 42.0098299071272 158.439770747879  42.6828135637016 157.53924658249  43.1752406294877 157.264307788632  C 44.4391367650055 156.563014633285  45.9164179623639 158.260462838841  46.9176863294624 158.953786753787  C 47.689155399194 159.487725860699  48.5919383531353 159.894157121184  49.4783070715503 160.049557309017  C 49.9707341373364 160.133234333234  50.8439714673305 160.073465030222  51.2280645786437 160.264726799862  C 51.9240281649548 160.607404137134  51.9896851070597 161.392374316699  52.5083749496877 161.790836336782  C 52.8957509081061 162.085698231644  53.5556031762595 162.033898169033  54.0053532296776 162.033898169033  C 54.6290941796733 162.033898169033  55.6237968525613 162.121559813452  56.1720323191365 161.790836336782  C 57.0124411780783 161.280804951075  59.3465454699046 157.929739362172  61.5723158072579 158.475632329686  C 62.6031297983035 158.73064802254  64.3364730698707 159.949941803996  64.8354658298674 161.077589320833  C 65.1013764453919 161.68325159136  65.1867304701282 162.78300676679  65.2326903296015 163.468361441334  C 67.678411423006 163.711423273585  67.3796723364291 164.548193515761  68.7781652032617 165.173778887292  C 70.4950942393027 165.942810586054  71.4142914287702 165.289332873117  72.3203572298167 165.404886858941  C 72.9211182500758 165.480594642757  73.3675854563885 165.926872105251  73.8961238403324 165.906949004246  C 74.6249158976958 165.87905666284  75.8494178679507 164.667732121786  76.6537154087347 164.35294712592  C 77.5138213503078 164.014254408849  78.8597886634566 164.325054784514  79.805248629766 164.093946812866  C 80.635808947392 163.894715802824  81.7322798805424 163.11373024346  82.5628401981684 163.093807142456  C 84.0631013252635 163.049976320247  85.2711890599922 165.440748440748  86.305285898143 165.313240594322  C 87.2047860049791 165.205655848899  90.2676823541688 163.06591480105  90.9472317049537 162.249067659878  C 91.5676898078443 161.507928302523  92.0371369438937 160.467942430105  92.9333542036244 160.193003636247  C 92.9333542036244 160.193003636247  96.6757999035991 159.790556995962  96.6757999035991 159.790556995962  C 97.3651977956997 159.854310919176  97.6179770228032 160.121280472632  98.4485373404293 160.041588068615  C 98.4485373404293 160.041588068615  101.797041387775 159.463818139494  101.797041387775 159.463818139494  C 102.424065184876 159.58734136572  102.778612672242 160.200972876649  103.372807998291 160.455988569502  C 103.815992357498 160.647250339142  104.836957807228 160.607404137134  105.342516261435 160.599434896732  C 105.342516261435 160.599434896732  108.887991135095 160.121280472632  108.887991135095 160.121280472632  C 110.069816092982 160.089403511025  111.034973141923 160.272696040264  111.977150261127 161.229004888464  C 112.485991562439 161.743020894372  112.765033566385 162.412437088113  113.254177785066 162.747145184983  C 113.92716144164 163.205376508079  114.124132267955 162.655498920364  115.778687208996 163.647669350372  C 115.778687208996 163.647669350372  119.521132908971 166.472765072765  119.521132908971 166.472765072765  C 120.276187743176 166.87521171305  121.664832068693 167.516735565384  122.475695303688 167.253750632129  C 123.06004208842 167.062488862489  123.66736880289 166.40104190915  124.166361562887 166.393072668748  C 124.580000298147 166.393072668748  125.37116645051 167.074442723091  125.824199351033 167.30555069474  C 125.824199351033 167.30555069474  127.981029899177 168.050674672296  127.981029899177 168.050674672296  C 128.50956828312 168.397336629769  128.972449724959 169.138475987125  129.369674224693 169.684368954639  C 129.871949831795 169.329737756765  130.298719955477 168.983075799292  130.735338620474 168.508905995392  C 131.70377851652 167.44899702197  131.815395318098 165.564271666974  131.211351450734 164.185593077485  C 130.797712715473 163.249207330288  129.835838513638 161.743020894372  129.980283786268 160.599434896732  C 130.242911554688 158.559309353904  132.688632648092 158.093108790406  133.305807903877 157.591046645101  C 133.847477676242 157.148753802808  134.425258766765 156.427537546456  134.336621894923 155.574828823477  C 134.218439399134 154.463119787444  132.947977569406 152.458855826423  132.426004879673 151.510516218624  C 132.002517603097 150.745469140064  131.638121574415 149.836975734273  131.099734649156 149.195451881938  C 130.584327653633 148.58580499121  129.425482625483 147.788880951043  129.103763609169 147.167280199713  C 128.486588353384 146.111355846491  129.399219848641 145.545539777972  129.103763609169 144.099122645069  C 128.896944241539 142.804121079797  127.994161287598 139.9630868766  128.338860233648 138.632223729521  C 128.539113907068 137.843268929755  129.415634084167 137.612160958107  129.960586703637 137.277452861237  C 130.518670711528 136.938760144166  131.22776568626 136.221528508015  131.730041293362 136.058159079781  C 131.730041293362 136.058159079781  134.684603688079 136.209574647412  134.684603688079 136.209574647412  C 136.371987100172 136.185666926207  136.893959789906 135.663681679898  138.427049388053 135.313035102224  C 138.427049388053 135.313035102224  142.366465914342 134.364695494425  142.366465914342 134.364695494425  C 142.366465914342 134.364695494425  144.92708665643 133.930371892534  144.92708665643 133.930371892534  C 144.92708665643 133.930371892534  146.502853266946 133.284863419999  146.502853266946 133.284863419999  C 147.399070526677 132.986016904936  149.677366417714 133.14938633317  150.294541673499 132.424185456618  C 150.701614714549 131.946031032518  150.849342834285 129.511428089806  150.816514363233 128.794196453656  C 150.816514363233 128.794196453656  150.258430355342 123.634113293573  150.258430355342 123.634113293573  C 150.386461392446 122.908912417021  151.19732462744 121.888849645606  151.489498019807 120.904648456  C 151.725863011384 120.091785935029  151.978642238488 116.641104841105  152.014753556646 115.644949790896  C 152.865010956903 115.876057762544  154.161735563473 116.481720033071  154.969315951362 116.398043008854  C 157.789281614764 116.107165734193  157.818827238711 114.485425312452  159.210754411334 112.297868822193  C 159.210754411334 112.297868822193  162.257236524997 108.492556530394  162.257236524997 108.492556530394  C 164.620886440771 105.814891755432  167.627974389171 102.332333699901  170.920670035728 101.639009784956  C 172.65073046019 101.272424726479  172.975732323609 101.730656049575  174.466144909388 101.774486871784  C 174.863369409122 101.782456112186  175.480544664908 101.798394592989  175.844940693589 101.631040544554  C 178.911119889884 100.260331195466  177.440404386737 95.2556482232157  178.50732969594 92.7373682562872  C 178.85202864199 91.9205211151157  180.089662000666 91.3706435274003  180.769211351451 91.0160123295258  C 180.62476607882 90.0716573419276  180.49345219461 88.9838560270993  180.102793389087 88.1431011647227  C 180.102793389087 88.1431011647227  177.647223754367 83.4412493277358  177.647223754367 83.4412493277358  C 177.322221890948 82.5805713643551  177.489647093315 81.9231090312172  177.345201820684 81.050477207234  C 177.345201820684 81.050477207234  176.586864139374 78.4206278746819  176.586864139374 78.4206278746819  C 175.956557495168 75.8704709461466  176.442418866743 74.2766228658121  173.875232430445 73.6390836336782  C 173.875232430445 73.6390836336782  174.269174083074 70.4832644346158  174.269174083074 70.4832644346158  C 173.94088937255 70.5191260164233  173.612604662026 70.5231106366242  173.284319951501 70.4832644346158  C 173.284319951501 70.4832644346158  170.014604234682 68.8934009744821  170.014604234682 68.8934009744821  C 169.558288487053 68.4670466129925  169.423691755738 67.8175535202562  169.026467256004 67.3314298557542  C 169.026467256004 67.3314298557542  167.650954318908 66.1320591753024  167.650954318908 66.1320591753024  C 167.650954318908 66.1320591753024  166.662817340231 64.4346109697461  166.662817340231 64.4346109697461  C 166.662817340231 64.4346109697461  163.045119830255 60.8763451303992  163.045119830255 60.8763451303992  C 161.663041198949 59.6849436903491  158.445851035812 58.6011269957216  156.742053388192 58.517449971504  C 155.973867165566 58.5652654139141  155.130175459519 58.6290193371275  154.378403472419 58.517449971504  C 152.490766386905 58.0512494080062  152.21829007717 57.1387713820146  150.639240619549 56.7721863235377  C 150.639240619549 56.7721863235377  149.063474009034 56.5171706306841  149.063474009034 56.5171706306841  C 148.443015906143 56.2462164570272  148.108165501409 55.6405541865001  147.487707398518 55.3696000128433  C 147.487707398518 55.3696000128433  146.108911614317 55.1026304593872  146.108911614317 55.1026304593872  C 146.108911614317 55.1026304593872  144.92708665643 54.4690758474542  144.92708665643 54.4690758474542  C 144.145769045383 54.1184292697806  143.545008025124 54.4451681262492  143.180611996442 53.2975975084083  C 142.934398463549 52.5166119490444  142.304091819343 49.4883005964087  142.47151702171 48.7710689602582  C 143.049298112232 46.2727120943337  144.92708665643 45.535557357179  145.386685251164 42.7901540388027  C 145.646030172478 41.467260132125  145.176583036429 40.7579977363761  145.386685251164 39.8216119891796  C 145.386685251164 39.8216119891796  146.181134250632 37.2913781616484  146.181134250632 37.2913781616484  C 146.41749924221 36.255376909431  146.328862370368 33.7769431445107  146.039971825107 32.7489111326949  C 145.642747325373 31.3224171007955  144.546276392222 30.77253951308  144.001323772752 28.4455213157916  C 143.512179554071 26.3575803305533  143.988192384331 24.5923935815828  143.420259835125 23.2097303718925  C 143.036166723811 22.273344624696  142.438688550658 22.249436903491  141.903584472503 21.4604821037254  C 141.506359972769 20.8787275544032  141.388177476981 20.1256343364451  141.046761378035 19.8427263021858  C 140.597011324617 19.472156623508  140.088170023305 19.9702341486125  139.516954626993 19.4442642821021  C 139.044224643839 19.0099406802109  138.820991040682 17.9938625289977  138.026542041214 17.523677345299  C 137.058102145168 16.9498920363785  136.716686046223 17.8743239229726  135.669457819651 16.9100458343701  C 135.669457819651 16.9100458343701  132.458833350725 13.5988264474751  132.458833350725 13.5988264474751  C 131.97297197915 12.7819793063036  131.976254826255 11.8416089389062  131.43458505389 11.1124234421532  C 130.938875140999 10.4469918686135  129.914626844164 9.93696048290641  129.569927898113 9.23965194776005  C 129.212097563642 8.51843569140866  129.494422414693 7.43461899678117  129.25477457601 6.76121818283981  C 129.25477457601 6.76121818283981  127.399965961549 4.05566106647188  127.399965961549 4.05566106647188  C 127.399965961549 4.05566106647188  128.581790919436 3.33842943032131  128.581790919436 3.33842943032131  C 128.581790919436 3.33842943032131  128.187849266807 0.708580097769286  128.187849266807 0.708580097769286  C 127.422945891286 0.891872627007757  126.605516962081 1.22259610367719  125.824199351033 1.15485756026295  C 124.809799595514 1.0711805360454  121.415335688695 -1.18012987742717  120.991848412119 1.66488894597003  C 120.991848412119 1.66488894597003  120.991848412119 3.33842943032131  120.991848412119 3.33842943032131  C 120.853968833699 4.56170783197811  119.839569078179 6.06390964769343  118.930220430027 6.58191027380217  C 118.56254155424 6.79309514444651  116.264548580572 7.43063437658032  115.860758386627 7.4186805159778  C 114.488528296636 7.37484969376862  113.392057363486 6.7173873606306  112.266040806388 8.38694322478108  C 111.008710365081 10.2437762383708  111.192549802974 10.8016230664879  111.018558906397 12.9015179123287  C 111.018558906397 12.9015179123287  110.677142807452 15.5313672448808  110.677142807452 15.5313672448808  C 110.604920171136 16.7546456465375  110.762496832188 17.9062008845792  110.509717605084 19.1175254256335  C 110.207695671402 20.5599579383363  109.557691944565 22.5084372165453  108.297078656152 23.0383917032566  C 107.285961747738 23.4607614445452  105.962974364326 22.4207755721269  104.948574608806 22.3490524085119  C 104.298570881969 22.3012369661018  103.868517911182 22.6279758225704  103.175837171976 22.540314178152  C 103.175837171976 22.540314178152  100.812187256203 21.7912055803947  100.812187256203 21.7912055803947  C 99.6467765338422 21.6238515319596  99.1346523854246 21.930667287424  97.8576248614858 21.2851588148885  C 97.8576248614858 21.2851588148885  95.297004119398 19.715218455759  95.297004119398 19.715218455759  C 94.643717545455 19.1494023872402  94.0593707607221 18.157231957232  93.3272958562534 17.8265084805625  Z " fill-rule="evenodd" />
    </mask>
  </defs>
  <g transform="matrix(1 0 0 1 -200 -2054 )">
    <path d="M 93.3272958562534 17.8265084805625  C 92.900525732572 17.6352467109224  92.0338540967884 17.6830621533324  91.5545584194233 17.6830621533324  C 91.0128886470585 20.1216497162443  90.2184396475902 20.0897727546376  89.3255052349647 21.9904365904366  C 87.8712039673429 25.0705480056832  88.2979740910242 24.7438091492146  86.2790231213011 27.9673668916912  C 85.5436653697271 29.1388452307371  84.4340630481557 30.310323569783  83.9514845236853 31.553525072444  C 83.4886030818464 32.7409418922932  83.0815300407964 34.7850520553223  83.1734497597432 36.0959921013975  C 83.2456723960585 37.1160548728116  83.5641085652668 37.5185015130961  83.6494625900032 38.2476870098492  C 83.7315337676342 38.9529647853972  83.5017344702673 39.9491198356063  83.3507235034262 40.638459130351  C 81.7519769631739 39.2039958580499  81.6239459260695 39.9929506578155  80.826214079496 39.4390884498993  C 80.2353016005526 39.032657189414  79.9037340429232 37.9966559371965  79.2077704566122 37.4348244888786  C 78.6365550603002 36.9726085455815  77.9044801558315 37.0363624687949  77.2446278876781 37.0562855697991  C 77.2446278876781 37.0562855697991  71.9264155771878 37.7615633453471  71.9264155771878 37.7615633453471  C 71.9264155771878 37.7615633453471  69.3690776822051 37.7615633453471  69.3690776822051 37.7615633453471  C 69.3690776822051 37.7615633453471  67.7933110716894 37.4786553110877  67.7933110716894 37.4786553110877  C 66.7986083988015 37.3870090464685  65.2294074824962 37.7097632827362  65.0915279040762 39.2039958580499  C 64.9700625611822 40.5029820435226  66.5819404898556 41.1723982372631  66.6968401385389 42.7901540388027  C 66.6968401385389 42.7901540388027  66.0369878703855 50.4446094446094  66.0369878703855 50.4446094446094  C 66.0369878703855 50.4446094446094  66.0369878703855 53.3135359892117  66.0369878703855 53.3135359892117  C 66.1945645314371 55.010984194768  66.411232440383 54.9950457139647  66.4145152874883 57.1387713820146  C 66.4145152874883 57.1387713820146  66.4145152874883 62.1593928350685  66.4145152874883 62.1593928350685  C 65.5839549698623 61.9601618250267  64.421827094607 61.4142688575121  63.972077041189 62.6853627015789  C 63.7324292025064 63.3547788953194  64.0311682890834 64.2035029980976  63.3975787977719 64.8251037494281  C 62.9609601327748 65.2554427311184  60.8665036796311 65.7495356360221  60.4266021675288 66.9927371386831  C 60.1180145396362 67.8573997222645  60.6399872293694 70.2521564629673  59.5566476846399 71.9017892261136  C 59.1134633254324 72.5751900400549  58.358408491227 72.7704364298959  57.7477989296522 73.156944589377  C 57.7477989296522 73.156944589377  55.9750614928221 74.5117154576614  55.9750614928221 74.5117154576614  C 53.8149480975736 75.9740710713684  53.6376743538906 75.276762536222  51.8386741402185 75.6632706957031  C 51.8386741402185 75.6632706957031  47.9025404610346 76.834749034749  47.9025404610346 76.834749034749  C 47.9025404610346 76.834749034749  44.16009476106 77.9942735131924  44.16009476106 77.9942735131924  C 43.1095836873829 77.9066118687741  42.5547825265972 76.1693174612094  41.0085615400287 76.1334558794018  C 39.9514847721412 76.1095481581968  39.5148661071441 77.1973494730251  38.6449116242553 77.4882267476862  C 38.6449116242553 77.4882267476862  35.6903492295384 77.7033962385314  35.6903492295384 77.7033962385314  C 35.6903492295384 77.7033962385314  35.493378403224 80.0941683590332  35.493378403224 80.0941683590332  C 33.6648325656048 79.6399216561379  33.4219018798169 79.0462132462133  32.7357868348216 78.8987822987823  C 30.519865038784 78.4126586342803  29.78450728721 82.389309594715  27.8147990240655 84.2859888103131  C 26.1700926243397 85.8599137896435  25.5890286867121 85.0111896868654  24.0723533240908 85.1626052544972  C 23.2680557833068 85.2462822787147  21.895825693316 85.4375440483549  21.2523876606888 84.5051429213591  C 20.9241029501647 84.0269884972588  21.1243566235844 83.094587370263  21.104659540953 82.4849404795351  C 21.0816796112163 81.5286316313343  20.8485974667442 80.9428924618113  20.5268784504306 80.0941683590332  C 20.5268784504306 80.0941683590332  17.2932740517682 81.2178312556691  17.2932740517682 81.2178312556691  C 17.2932740517682 81.2178312556691  15.0116953136258 79.855091146983  15.0116953136258 79.855091146983  C 15.0116953136258 79.855091146983  15.0116953136258 82.0067860554347  15.0116953136258 82.0067860554347  C 12.4477917244326 80.8711692981963  12.2147095799606 82.608463705761  10.6783371347078 82.9073102208237  C 10.054596184712 83.0268488268488  9.70661439155647 82.608463705761  9.10585337129737 82.5805713643551  C 7.98968535551548 82.5327559219451  6.49598992263082 83.55680331356  5.85583473710889 84.6366353879867  C 5.2156795515869 85.7324059432168  5.4914387084271 86.9477151044719  4.86769775843137 87.7805007264467  C 4.14218854817312 88.7567326756516  2.9209694250235 88.9997945079026  2.15934889660758 90.7769351174757  C 1.67020467792671 91.9205211151157  2.3202084047644 92.4066447796178  2.38258249976397 93.3071689450068  C 2.49748214844741 94.9727401889564  1.28282871950828 96.4271265622617  0.242166187146896 97.2320198428307  C 0.613127910039118 98.2759903354498  1.37803128556025 100.551208470127  2.21844014450194 101.04131675483  C 3.05884900344358 101.531425039533  3.91895494501673 100.595039292337  4.69042401474835 100.583085431734  C 5.71795515868876 100.567146950931  7.49397544262411 102.495703128136  8.05205945051505 103.448027356135  C 8.82352852024668 104.774905883014  7.91746271920015 106.396646304754  7.66796633920185 107.751417173039  C 7.42175280630877 108.906957031281  7.76316890525388 109.456834618997  7.66796633920185 110.620343717641  C 7.66796633920185 110.620343717641  6.82427463315494 115.166795366795  6.82427463315494 115.166795366795  C 6.75205199683966 116.728766485523  8.33110145446052 117.386228818661  6.6831122076296 119.171338668636  C 5.448761696059 120.434463272301  4.61163568422253 119.243061832251  3.7876410608071 119.171338668636  C 3.42324503212536 119.203215630243  2.45808798318453 119.585739169523  2.01490362397697 119.709262395749  C 2.01490362397697 119.709262395749  5.36340767132274 123.060327984652  5.36340767132274 123.060327984652  C 5.36340767132274 123.060327984652  6.93917428183838 124.112267717673  6.93917428183838 124.112267717673  C 8.4427182560387 125.498915547564  8.39675839656537 126.542886040183  8.90559969787767 127.244179195531  C 9.38161252813762 127.897656908468  9.93313084181807 127.682487417622  10.5535889447087 128.590980823413  C 11.5909686299648 130.109121119932  11.7222825141744 133.464171329036  11.1379357294415 135.253265799212  C 10.9015707378642 135.970497435362  10.4813663083933 136.568190465488  10.0907075028697 137.165883495613  C 11.1018244112839 138.91513176378  11.2626839194407 138.560500565906  11.2692496136511 140.752041676366  C 13.7773448020552 140.763995536969  13.3177462073215 141.839842991194  14.768764627838 143.780353029002  C 15.3793741894128 144.605169410575  16.0851863170396 144.864169723629  16.7516042794035 145.613278321386  C 17.2965568988735 146.222925212114  17.58873029124 146.924218367462  18.1960570057095 147.454172854173  C 19.4271246701749 148.5340049286  21.9844625651576 148.836836063863  23.4814408451474 149.4903137768  C 24.1018989480379 149.761267950457  24.6731143443499 150.183637691746  25.2541782819775 150.554207370424  C 24.3054354685629 151.901008998306  23.8228569440925 152.785594682892  24.1478588075113 154.618519975277  C 24.1478588075113 154.618519975277  24.6796800385604 156.535122291879  24.6796800385604 156.535122291879  C 24.6796800385604 156.535122291879  24.4695778238249 160.117295852431  24.4695778238249 160.117295852431  C 24.5221033775088 161.802790197385  25.0867530796102 161.288774191477  26.6329740661787 163.010130118238  C 27.2731292517007 163.727361754389  28.9506641224788 165.978672167861  29.5875364608955 166.309395644531  C 30.2244087993122 166.644103741401  31.2355257077265 166.177903177903  31.9479035295638 166.177903177903  C 31.9479035295638 166.177903177903  35.493378403224 166.871227092849  35.493378403224 166.871227092849  C 36.4979296174277 166.899119434255  37.210307439265 165.293317493317  37.7782399884716 164.424670289535  C 37.7782399884716 164.424670289535  40.0434044910879 160.619357997736  40.0434044910879 160.619357997736  C 40.0434044910879 160.619357997736  41.5994740189721 158.913940551778  41.5994740189721 158.913940551778  C 42.0098299071272 158.439770747879  42.6828135637016 157.53924658249  43.1752406294877 157.264307788632  C 44.4391367650055 156.563014633285  45.9164179623639 158.260462838841  46.9176863294624 158.953786753787  C 47.689155399194 159.487725860699  48.5919383531353 159.894157121184  49.4783070715503 160.049557309017  C 49.9707341373364 160.133234333234  50.8439714673305 160.073465030222  51.2280645786437 160.264726799862  C 51.9240281649548 160.607404137134  51.9896851070597 161.392374316699  52.5083749496877 161.790836336782  C 52.8957509081061 162.085698231644  53.5556031762595 162.033898169033  54.0053532296776 162.033898169033  C 54.6290941796733 162.033898169033  55.6237968525613 162.121559813452  56.1720323191365 161.790836336782  C 57.0124411780783 161.280804951075  59.3465454699046 157.929739362172  61.5723158072579 158.475632329686  C 62.6031297983035 158.73064802254  64.3364730698707 159.949941803996  64.8354658298674 161.077589320833  C 65.1013764453919 161.68325159136  65.1867304701282 162.78300676679  65.2326903296015 163.468361441334  C 67.678411423006 163.711423273585  67.3796723364291 164.548193515761  68.7781652032617 165.173778887292  C 70.4950942393027 165.942810586054  71.4142914287702 165.289332873117  72.3203572298167 165.404886858941  C 72.9211182500758 165.480594642757  73.3675854563885 165.926872105251  73.8961238403324 165.906949004246  C 74.6249158976958 165.87905666284  75.8494178679507 164.667732121786  76.6537154087347 164.35294712592  C 77.5138213503078 164.014254408849  78.8597886634566 164.325054784514  79.805248629766 164.093946812866  C 80.635808947392 163.894715802824  81.7322798805424 163.11373024346  82.5628401981684 163.093807142456  C 84.0631013252635 163.049976320247  85.2711890599922 165.440748440748  86.305285898143 165.313240594322  C 87.2047860049791 165.205655848899  90.2676823541688 163.06591480105  90.9472317049537 162.249067659878  C 91.5676898078443 161.507928302523  92.0371369438937 160.467942430105  92.9333542036244 160.193003636247  C 92.9333542036244 160.193003636247  96.6757999035991 159.790556995962  96.6757999035991 159.790556995962  C 97.3651977956997 159.854310919176  97.6179770228032 160.121280472632  98.4485373404293 160.041588068615  C 98.4485373404293 160.041588068615  101.797041387775 159.463818139494  101.797041387775 159.463818139494  C 102.424065184876 159.58734136572  102.778612672242 160.200972876649  103.372807998291 160.455988569502  C 103.815992357498 160.647250339142  104.836957807228 160.607404137134  105.342516261435 160.599434896732  C 105.342516261435 160.599434896732  108.887991135095 160.121280472632  108.887991135095 160.121280472632  C 110.069816092982 160.089403511025  111.034973141923 160.272696040264  111.977150261127 161.229004888464  C 112.485991562439 161.743020894372  112.765033566385 162.412437088113  113.254177785066 162.747145184983  C 113.92716144164 163.205376508079  114.124132267955 162.655498920364  115.778687208996 163.647669350372  C 115.778687208996 163.647669350372  119.521132908971 166.472765072765  119.521132908971 166.472765072765  C 120.276187743176 166.87521171305  121.664832068693 167.516735565384  122.475695303688 167.253750632129  C 123.06004208842 167.062488862489  123.66736880289 166.40104190915  124.166361562887 166.393072668748  C 124.580000298147 166.393072668748  125.37116645051 167.074442723091  125.824199351033 167.30555069474  C 125.824199351033 167.30555069474  127.981029899177 168.050674672296  127.981029899177 168.050674672296  C 128.50956828312 168.397336629769  128.972449724959 169.138475987125  129.369674224693 169.684368954639  C 129.871949831795 169.329737756765  130.298719955477 168.983075799292  130.735338620474 168.508905995392  C 131.70377851652 167.44899702197  131.815395318098 165.564271666974  131.211351450734 164.185593077485  C 130.797712715473 163.249207330288  129.835838513638 161.743020894372  129.980283786268 160.599434896732  C 130.242911554688 158.559309353904  132.688632648092 158.093108790406  133.305807903877 157.591046645101  C 133.847477676242 157.148753802808  134.425258766765 156.427537546456  134.336621894923 155.574828823477  C 134.218439399134 154.463119787444  132.947977569406 152.458855826423  132.426004879673 151.510516218624  C 132.002517603097 150.745469140064  131.638121574415 149.836975734273  131.099734649156 149.195451881938  C 130.584327653633 148.58580499121  129.425482625483 147.788880951043  129.103763609169 147.167280199713  C 128.486588353384 146.111355846491  129.399219848641 145.545539777972  129.103763609169 144.099122645069  C 128.896944241539 142.804121079797  127.994161287598 139.9630868766  128.338860233648 138.632223729521  C 128.539113907068 137.843268929755  129.415634084167 137.612160958107  129.960586703637 137.277452861237  C 130.518670711528 136.938760144166  131.22776568626 136.221528508015  131.730041293362 136.058159079781  C 131.730041293362 136.058159079781  134.684603688079 136.209574647412  134.684603688079 136.209574647412  C 136.371987100172 136.185666926207  136.893959789906 135.663681679898  138.427049388053 135.313035102224  C 138.427049388053 135.313035102224  142.366465914342 134.364695494425  142.366465914342 134.364695494425  C 142.366465914342 134.364695494425  144.92708665643 133.930371892534  144.92708665643 133.930371892534  C 144.92708665643 133.930371892534  146.502853266946 133.284863419999  146.502853266946 133.284863419999  C 147.399070526677 132.986016904936  149.677366417714 133.14938633317  150.294541673499 132.424185456618  C 150.701614714549 131.946031032518  150.849342834285 129.511428089806  150.816514363233 128.794196453656  C 150.816514363233 128.794196453656  150.258430355342 123.634113293573  150.258430355342 123.634113293573  C 150.386461392446 122.908912417021  151.19732462744 121.888849645606  151.489498019807 120.904648456  C 151.725863011384 120.091785935029  151.978642238488 116.641104841105  152.014753556646 115.644949790896  C 152.865010956903 115.876057762544  154.161735563473 116.481720033071  154.969315951362 116.398043008854  C 157.789281614764 116.107165734193  157.818827238711 114.485425312452  159.210754411334 112.297868822193  C 159.210754411334 112.297868822193  162.257236524997 108.492556530394  162.257236524997 108.492556530394  C 164.620886440771 105.814891755432  167.627974389171 102.332333699901  170.920670035728 101.639009784956  C 172.65073046019 101.272424726479  172.975732323609 101.730656049575  174.466144909388 101.774486871784  C 174.863369409122 101.782456112186  175.480544664908 101.798394592989  175.844940693589 101.631040544554  C 178.911119889884 100.260331195466  177.440404386737 95.2556482232157  178.50732969594 92.7373682562872  C 178.85202864199 91.9205211151157  180.089662000666 91.3706435274003  180.769211351451 91.0160123295258  C 180.62476607882 90.0716573419276  180.49345219461 88.9838560270993  180.102793389087 88.1431011647227  C 180.102793389087 88.1431011647227  177.647223754367 83.4412493277358  177.647223754367 83.4412493277358  C 177.322221890948 82.5805713643551  177.489647093315 81.9231090312172  177.345201820684 81.050477207234  C 177.345201820684 81.050477207234  176.586864139374 78.4206278746819  176.586864139374 78.4206278746819  C 175.956557495168 75.8704709461466  176.442418866743 74.2766228658121  173.875232430445 73.6390836336782  C 173.875232430445 73.6390836336782  174.269174083074 70.4832644346158  174.269174083074 70.4832644346158  C 173.94088937255 70.5191260164233  173.612604662026 70.5231106366242  173.284319951501 70.4832644346158  C 173.284319951501 70.4832644346158  170.014604234682 68.8934009744821  170.014604234682 68.8934009744821  C 169.558288487053 68.4670466129925  169.423691755738 67.8175535202562  169.026467256004 67.3314298557542  C 169.026467256004 67.3314298557542  167.650954318908 66.1320591753024  167.650954318908 66.1320591753024  C 167.650954318908 66.1320591753024  166.662817340231 64.4346109697461  166.662817340231 64.4346109697461  C 166.662817340231 64.4346109697461  163.045119830255 60.8763451303992  163.045119830255 60.8763451303992  C 161.663041198949 59.6849436903491  158.445851035812 58.6011269957216  156.742053388192 58.517449971504  C 155.973867165566 58.5652654139141  155.130175459519 58.6290193371275  154.378403472419 58.517449971504  C 152.490766386905 58.0512494080062  152.21829007717 57.1387713820146  150.639240619549 56.7721863235377  C 150.639240619549 56.7721863235377  149.063474009034 56.5171706306841  149.063474009034 56.5171706306841  C 148.443015906143 56.2462164570272  148.108165501409 55.6405541865001  147.487707398518 55.3696000128433  C 147.487707398518 55.3696000128433  146.108911614317 55.1026304593872  146.108911614317 55.1026304593872  C 146.108911614317 55.1026304593872  144.92708665643 54.4690758474542  144.92708665643 54.4690758474542  C 144.145769045383 54.1184292697806  143.545008025124 54.4451681262492  143.180611996442 53.2975975084083  C 142.934398463549 52.5166119490444  142.304091819343 49.4883005964087  142.47151702171 48.7710689602582  C 143.049298112232 46.2727120943337  144.92708665643 45.535557357179  145.386685251164 42.7901540388027  C 145.646030172478 41.467260132125  145.176583036429 40.7579977363761  145.386685251164 39.8216119891796  C 145.386685251164 39.8216119891796  146.181134250632 37.2913781616484  146.181134250632 37.2913781616484  C 146.41749924221 36.255376909431  146.328862370368 33.7769431445107  146.039971825107 32.7489111326949  C 145.642747325373 31.3224171007955  144.546276392222 30.77253951308  144.001323772752 28.4455213157916  C 143.512179554071 26.3575803305533  143.988192384331 24.5923935815828  143.420259835125 23.2097303718925  C 143.036166723811 22.273344624696  142.438688550658 22.249436903491  141.903584472503 21.4604821037254  C 141.506359972769 20.8787275544032  141.388177476981 20.1256343364451  141.046761378035 19.8427263021858  C 140.597011324617 19.472156623508  140.088170023305 19.9702341486125  139.516954626993 19.4442642821021  C 139.044224643839 19.0099406802109  138.820991040682 17.9938625289977  138.026542041214 17.523677345299  C 137.058102145168 16.9498920363785  136.716686046223 17.8743239229726  135.669457819651 16.9100458343701  C 135.669457819651 16.9100458343701  132.458833350725 13.5988264474751  132.458833350725 13.5988264474751  C 131.97297197915 12.7819793063036  131.976254826255 11.8416089389062  131.43458505389 11.1124234421532  C 130.938875140999 10.4469918686135  129.914626844164 9.93696048290641  129.569927898113 9.23965194776005  C 129.212097563642 8.51843569140866  129.494422414693 7.43461899678117  129.25477457601 6.76121818283981  C 129.25477457601 6.76121818283981  127.399965961549 4.05566106647188  127.399965961549 4.05566106647188  C 127.399965961549 4.05566106647188  128.581790919436 3.33842943032131  128.581790919436 3.33842943032131  C 128.581790919436 3.33842943032131  128.187849266807 0.708580097769286  128.187849266807 0.708580097769286  C 127.422945891286 0.891872627007757  126.605516962081 1.22259610367719  125.824199351033 1.15485756026295  C 124.809799595514 1.0711805360454  121.415335688695 -1.18012987742717  120.991848412119 1.66488894597003  C 120.991848412119 1.66488894597003  120.991848412119 3.33842943032131  120.991848412119 3.33842943032131  C 120.853968833699 4.56170783197811  119.839569078179 6.06390964769343  118.930220430027 6.58191027380217  C 118.56254155424 6.79309514444651  116.264548580572 7.43063437658032  115.860758386627 7.4186805159778  C 114.488528296636 7.37484969376862  113.392057363486 6.7173873606306  112.266040806388 8.38694322478108  C 111.008710365081 10.2437762383708  111.192549802974 10.8016230664879  111.018558906397 12.9015179123287  C 111.018558906397 12.9015179123287  110.677142807452 15.5313672448808  110.677142807452 15.5313672448808  C 110.604920171136 16.7546456465375  110.762496832188 17.9062008845792  110.509717605084 19.1175254256335  C 110.207695671402 20.5599579383363  109.557691944565 22.5084372165453  108.297078656152 23.0383917032566  C 107.285961747738 23.4607614445452  105.962974364326 22.4207755721269  104.948574608806 22.3490524085119  C 104.298570881969 22.3012369661018  103.868517911182 22.6279758225704  103.175837171976 22.540314178152  C 103.175837171976 22.540314178152  100.812187256203 21.7912055803947  100.812187256203 21.7912055803947  C 99.6467765338422 21.6238515319596  99.1346523854246 21.930667287424  97.8576248614858 21.2851588148885  C 97.8576248614858 21.2851588148885  95.297004119398 19.715218455759  95.297004119398 19.715218455759  C 94.643717545455 19.1494023872402  94.0593707607221 18.157231957232  93.3272958562534 17.8265084805625  Z " fill-rule="nonzero" fill="#aad5ff" stroke="none" transform="matrix(1 0 0 1 200 2054 )" />
    <path d="M 93.3272958562534 17.8265084805625  C 92.900525732572 17.6352467109224  92.0338540967884 17.6830621533324  91.5545584194233 17.6830621533324  C 91.0128886470585 20.1216497162443  90.2184396475902 20.0897727546376  89.3255052349647 21.9904365904366  C 87.8712039673429 25.0705480056832  88.2979740910242 24.7438091492146  86.2790231213011 27.9673668916912  C 85.5436653697271 29.1388452307371  84.4340630481557 30.310323569783  83.9514845236853 31.553525072444  C 83.4886030818464 32.7409418922932  83.0815300407964 34.7850520553223  83.1734497597432 36.0959921013975  C 83.2456723960585 37.1160548728116  83.5641085652668 37.5185015130961  83.6494625900032 38.2476870098492  C 83.7315337676342 38.9529647853972  83.5017344702673 39.9491198356063  83.3507235034262 40.638459130351  C 81.7519769631739 39.2039958580499  81.6239459260695 39.9929506578155  80.826214079496 39.4390884498993  C 80.2353016005526 39.032657189414  79.9037340429232 37.9966559371965  79.2077704566122 37.4348244888786  C 78.6365550603002 36.9726085455815  77.9044801558315 37.0363624687949  77.2446278876781 37.0562855697991  C 77.2446278876781 37.0562855697991  71.9264155771878 37.7615633453471  71.9264155771878 37.7615633453471  C 71.9264155771878 37.7615633453471  69.3690776822051 37.7615633453471  69.3690776822051 37.7615633453471  C 69.3690776822051 37.7615633453471  67.7933110716894 37.4786553110877  67.7933110716894 37.4786553110877  C 66.7986083988015 37.3870090464685  65.2294074824962 37.7097632827362  65.0915279040762 39.2039958580499  C 64.9700625611822 40.5029820435226  66.5819404898556 41.1723982372631  66.6968401385389 42.7901540388027  C 66.6968401385389 42.7901540388027  66.0369878703855 50.4446094446094  66.0369878703855 50.4446094446094  C 66.0369878703855 50.4446094446094  66.0369878703855 53.3135359892117  66.0369878703855 53.3135359892117  C 66.1945645314371 55.010984194768  66.411232440383 54.9950457139647  66.4145152874883 57.1387713820146  C 66.4145152874883 57.1387713820146  66.4145152874883 62.1593928350685  66.4145152874883 62.1593928350685  C 65.5839549698623 61.9601618250267  64.421827094607 61.4142688575121  63.972077041189 62.6853627015789  C 63.7324292025064 63.3547788953194  64.0311682890834 64.2035029980976  63.3975787977719 64.8251037494281  C 62.9609601327748 65.2554427311184  60.8665036796311 65.7495356360221  60.4266021675288 66.9927371386831  C 60.1180145396362 67.8573997222645  60.6399872293694 70.2521564629673  59.5566476846399 71.9017892261136  C 59.1134633254324 72.5751900400549  58.358408491227 72.7704364298959  57.7477989296522 73.156944589377  C 57.7477989296522 73.156944589377  55.9750614928221 74.5117154576614  55.9750614928221 74.5117154576614  C 53.8149480975736 75.9740710713684  53.6376743538906 75.276762536222  51.8386741402185 75.6632706957031  C 51.8386741402185 75.6632706957031  47.9025404610346 76.834749034749  47.9025404610346 76.834749034749  C 47.9025404610346 76.834749034749  44.16009476106 77.9942735131924  44.16009476106 77.9942735131924  C 43.1095836873829 77.9066118687741  42.5547825265972 76.1693174612094  41.0085615400287 76.1334558794018  C 39.9514847721412 76.1095481581968  39.5148661071441 77.1973494730251  38.6449116242553 77.4882267476862  C 38.6449116242553 77.4882267476862  35.6903492295384 77.7033962385314  35.6903492295384 77.7033962385314  C 35.6903492295384 77.7033962385314  35.493378403224 80.0941683590332  35.493378403224 80.0941683590332  C 33.6648325656048 79.6399216561379  33.4219018798169 79.0462132462133  32.7357868348216 78.8987822987823  C 30.519865038784 78.4126586342803  29.78450728721 82.389309594715  27.8147990240655 84.2859888103131  C 26.1700926243397 85.8599137896435  25.5890286867121 85.0111896868654  24.0723533240908 85.1626052544972  C 23.2680557833068 85.2462822787147  21.895825693316 85.4375440483549  21.2523876606888 84.5051429213591  C 20.9241029501647 84.0269884972588  21.1243566235844 83.094587370263  21.104659540953 82.4849404795351  C 21.0816796112163 81.5286316313343  20.8485974667442 80.9428924618113  20.5268784504306 80.0941683590332  C 20.5268784504306 80.0941683590332  17.2932740517682 81.2178312556691  17.2932740517682 81.2178312556691  C 17.2932740517682 81.2178312556691  15.0116953136258 79.855091146983  15.0116953136258 79.855091146983  C 15.0116953136258 79.855091146983  15.0116953136258 82.0067860554347  15.0116953136258 82.0067860554347  C 12.4477917244326 80.8711692981963  12.2147095799606 82.608463705761  10.6783371347078 82.9073102208237  C 10.054596184712 83.0268488268488  9.70661439155647 82.608463705761  9.10585337129737 82.5805713643551  C 7.98968535551548 82.5327559219451  6.49598992263082 83.55680331356  5.85583473710889 84.6366353879867  C 5.2156795515869 85.7324059432168  5.4914387084271 86.9477151044719  4.86769775843137 87.7805007264467  C 4.14218854817312 88.7567326756516  2.9209694250235 88.9997945079026  2.15934889660758 90.7769351174757  C 1.67020467792671 91.9205211151157  2.3202084047644 92.4066447796178  2.38258249976397 93.3071689450068  C 2.49748214844741 94.9727401889564  1.28282871950828 96.4271265622617  0.242166187146896 97.2320198428307  C 0.613127910039118 98.2759903354498  1.37803128556025 100.551208470127  2.21844014450194 101.04131675483  C 3.05884900344358 101.531425039533  3.91895494501673 100.595039292337  4.69042401474835 100.583085431734  C 5.71795515868876 100.567146950931  7.49397544262411 102.495703128136  8.05205945051505 103.448027356135  C 8.82352852024668 104.774905883014  7.91746271920015 106.396646304754  7.66796633920185 107.751417173039  C 7.42175280630877 108.906957031281  7.76316890525388 109.456834618997  7.66796633920185 110.620343717641  C 7.66796633920185 110.620343717641  6.82427463315494 115.166795366795  6.82427463315494 115.166795366795  C 6.75205199683966 116.728766485523  8.33110145446052 117.386228818661  6.6831122076296 119.171338668636  C 5.448761696059 120.434463272301  4.61163568422253 119.243061832251  3.7876410608071 119.171338668636  C 3.42324503212536 119.203215630243  2.45808798318453 119.585739169523  2.01490362397697 119.709262395749  C 2.01490362397697 119.709262395749  5.36340767132274 123.060327984652  5.36340767132274 123.060327984652  C 5.36340767132274 123.060327984652  6.93917428183838 124.112267717673  6.93917428183838 124.112267717673  C 8.4427182560387 125.498915547564  8.39675839656537 126.542886040183  8.90559969787767 127.244179195531  C 9.38161252813762 127.897656908468  9.93313084181807 127.682487417622  10.5535889447087 128.590980823413  C 11.5909686299648 130.109121119932  11.7222825141744 133.464171329036  11.1379357294415 135.253265799212  C 10.9015707378642 135.970497435362  10.4813663083933 136.568190465488  10.0907075028697 137.165883495613  C 11.1018244112839 138.91513176378  11.2626839194407 138.560500565906  11.2692496136511 140.752041676366  C 13.7773448020552 140.763995536969  13.3177462073215 141.839842991194  14.768764627838 143.780353029002  C 15.3793741894128 144.605169410575  16.0851863170396 144.864169723629  16.7516042794035 145.613278321386  C 17.2965568988735 146.222925212114  17.58873029124 146.924218367462  18.1960570057095 147.454172854173  C 19.4271246701749 148.5340049286  21.9844625651576 148.836836063863  23.4814408451474 149.4903137768  C 24.1018989480379 149.761267950457  24.6731143443499 150.183637691746  25.2541782819775 150.554207370424  C 24.3054354685629 151.901008998306  23.8228569440925 152.785594682892  24.1478588075113 154.618519975277  C 24.1478588075113 154.618519975277  24.6796800385604 156.535122291879  24.6796800385604 156.535122291879  C 24.6796800385604 156.535122291879  24.4695778238249 160.117295852431  24.4695778238249 160.117295852431  C 24.5221033775088 161.802790197385  25.0867530796102 161.288774191477  26.6329740661787 163.010130118238  C 27.2731292517007 163.727361754389  28.9506641224788 165.978672167861  29.5875364608955 166.309395644531  C 30.2244087993122 166.644103741401  31.2355257077265 166.177903177903  31.9479035295638 166.177903177903  C 31.9479035295638 166.177903177903  35.493378403224 166.871227092849  35.493378403224 166.871227092849  C 36.4979296174277 166.899119434255  37.210307439265 165.293317493317  37.7782399884716 164.424670289535  C 37.7782399884716 164.424670289535  40.0434044910879 160.619357997736  40.0434044910879 160.619357997736  C 40.0434044910879 160.619357997736  41.5994740189721 158.913940551778  41.5994740189721 158.913940551778  C 42.0098299071272 158.439770747879  42.6828135637016 157.53924658249  43.1752406294877 157.264307788632  C 44.4391367650055 156.563014633285  45.9164179623639 158.260462838841  46.9176863294624 158.953786753787  C 47.689155399194 159.487725860699  48.5919383531353 159.894157121184  49.4783070715503 160.049557309017  C 49.9707341373364 160.133234333234  50.8439714673305 160.073465030222  51.2280645786437 160.264726799862  C 51.9240281649548 160.607404137134  51.9896851070597 161.392374316699  52.5083749496877 161.790836336782  C 52.8957509081061 162.085698231644  53.5556031762595 162.033898169033  54.0053532296776 162.033898169033  C 54.6290941796733 162.033898169033  55.6237968525613 162.121559813452  56.1720323191365 161.790836336782  C 57.0124411780783 161.280804951075  59.3465454699046 157.929739362172  61.5723158072579 158.475632329686  C 62.6031297983035 158.73064802254  64.3364730698707 159.949941803996  64.8354658298674 161.077589320833  C 65.1013764453919 161.68325159136  65.1867304701282 162.78300676679  65.2326903296015 163.468361441334  C 67.678411423006 163.711423273585  67.3796723364291 164.548193515761  68.7781652032617 165.173778887292  C 70.4950942393027 165.942810586054  71.4142914287702 165.289332873117  72.3203572298167 165.404886858941  C 72.9211182500758 165.480594642757  73.3675854563885 165.926872105251  73.8961238403324 165.906949004246  C 74.6249158976958 165.87905666284  75.8494178679507 164.667732121786  76.6537154087347 164.35294712592  C 77.5138213503078 164.014254408849  78.8597886634566 164.325054784514  79.805248629766 164.093946812866  C 80.635808947392 163.894715802824  81.7322798805424 163.11373024346  82.5628401981684 163.093807142456  C 84.0631013252635 163.049976320247  85.2711890599922 165.440748440748  86.305285898143 165.313240594322  C 87.2047860049791 165.205655848899  90.2676823541688 163.06591480105  90.9472317049537 162.249067659878  C 91.5676898078443 161.507928302523  92.0371369438937 160.467942430105  92.9333542036244 160.193003636247  C 92.9333542036244 160.193003636247  96.6757999035991 159.790556995962  96.6757999035991 159.790556995962  C 97.3651977956997 159.854310919176  97.6179770228032 160.121280472632  98.4485373404293 160.041588068615  C 98.4485373404293 160.041588068615  101.797041387775 159.463818139494  101.797041387775 159.463818139494  C 102.424065184876 159.58734136572  102.778612672242 160.200972876649  103.372807998291 160.455988569502  C 103.815992357498 160.647250339142  104.836957807228 160.607404137134  105.342516261435 160.599434896732  C 105.342516261435 160.599434896732  108.887991135095 160.121280472632  108.887991135095 160.121280472632  C 110.069816092982 160.089403511025  111.034973141923 160.272696040264  111.977150261127 161.229004888464  C 112.485991562439 161.743020894372  112.765033566385 162.412437088113  113.254177785066 162.747145184983  C 113.92716144164 163.205376508079  114.124132267955 162.655498920364  115.778687208996 163.647669350372  C 115.778687208996 163.647669350372  119.521132908971 166.472765072765  119.521132908971 166.472765072765  C 120.276187743176 166.87521171305  121.664832068693 167.516735565384  122.475695303688 167.253750632129  C 123.06004208842 167.062488862489  123.66736880289 166.40104190915  124.166361562887 166.393072668748  C 124.580000298147 166.393072668748  125.37116645051 167.074442723091  125.824199351033 167.30555069474  C 125.824199351033 167.30555069474  127.981029899177 168.050674672296  127.981029899177 168.050674672296  C 128.50956828312 168.397336629769  128.972449724959 169.138475987125  129.369674224693 169.684368954639  C 129.871949831795 169.329737756765  130.298719955477 168.983075799292  130.735338620474 168.508905995392  C 131.70377851652 167.44899702197  131.815395318098 165.564271666974  131.211351450734 164.185593077485  C 130.797712715473 163.249207330288  129.835838513638 161.743020894372  129.980283786268 160.599434896732  C 130.242911554688 158.559309353904  132.688632648092 158.093108790406  133.305807903877 157.591046645101  C 133.847477676242 157.148753802808  134.425258766765 156.427537546456  134.336621894923 155.574828823477  C 134.218439399134 154.463119787444  132.947977569406 152.458855826423  132.426004879673 151.510516218624  C 132.002517603097 150.745469140064  131.638121574415 149.836975734273  131.099734649156 149.195451881938  C 130.584327653633 148.58580499121  129.425482625483 147.788880951043  129.103763609169 147.167280199713  C 128.486588353384 146.111355846491  129.399219848641 145.545539777972  129.103763609169 144.099122645069  C 128.896944241539 142.804121079797  127.994161287598 139.9630868766  128.338860233648 138.632223729521  C 128.539113907068 137.843268929755  129.415634084167 137.612160958107  129.960586703637 137.277452861237  C 130.518670711528 136.938760144166  131.22776568626 136.221528508015  131.730041293362 136.058159079781  C 131.730041293362 136.058159079781  134.684603688079 136.209574647412  134.684603688079 136.209574647412  C 136.371987100172 136.185666926207  136.893959789906 135.663681679898  138.427049388053 135.313035102224  C 138.427049388053 135.313035102224  142.366465914342 134.364695494425  142.366465914342 134.364695494425  C 142.366465914342 134.364695494425  144.92708665643 133.930371892534  144.92708665643 133.930371892534  C 144.92708665643 133.930371892534  146.502853266946 133.284863419999  146.502853266946 133.284863419999  C 147.399070526677 132.986016904936  149.677366417714 133.14938633317  150.294541673499 132.424185456618  C 150.701614714549 131.946031032518  150.849342834285 129.511428089806  150.816514363233 128.794196453656  C 150.816514363233 128.794196453656  150.258430355342 123.634113293573  150.258430355342 123.634113293573  C 150.386461392446 122.908912417021  151.19732462744 121.888849645606  151.489498019807 120.904648456  C 151.725863011384 120.091785935029  151.978642238488 116.641104841105  152.014753556646 115.644949790896  C 152.865010956903 115.876057762544  154.161735563473 116.481720033071  154.969315951362 116.398043008854  C 157.789281614764 116.107165734193  157.818827238711 114.485425312452  159.210754411334 112.297868822193  C 159.210754411334 112.297868822193  162.257236524997 108.492556530394  162.257236524997 108.492556530394  C 164.620886440771 105.814891755432  167.627974389171 102.332333699901  170.920670035728 101.639009784956  C 172.65073046019 101.272424726479  172.975732323609 101.730656049575  174.466144909388 101.774486871784  C 174.863369409122 101.782456112186  175.480544664908 101.798394592989  175.844940693589 101.631040544554  C 178.911119889884 100.260331195466  177.440404386737 95.2556482232157  178.50732969594 92.7373682562872  C 178.85202864199 91.9205211151157  180.089662000666 91.3706435274003  180.769211351451 91.0160123295258  C 180.62476607882 90.0716573419276  180.49345219461 88.9838560270993  180.102793389087 88.1431011647227  C 180.102793389087 88.1431011647227  177.647223754367 83.4412493277358  177.647223754367 83.4412493277358  C 177.322221890948 82.5805713643551  177.489647093315 81.9231090312172  177.345201820684 81.050477207234  C 177.345201820684 81.050477207234  176.586864139374 78.4206278746819  176.586864139374 78.4206278746819  C 175.956557495168 75.8704709461466  176.442418866743 74.2766228658121  173.875232430445 73.6390836336782  C 173.875232430445 73.6390836336782  174.269174083074 70.4832644346158  174.269174083074 70.4832644346158  C 173.94088937255 70.5191260164233  173.612604662026 70.5231106366242  173.284319951501 70.4832644346158  C 173.284319951501 70.4832644346158  170.014604234682 68.8934009744821  170.014604234682 68.8934009744821  C 169.558288487053 68.4670466129925  169.423691755738 67.8175535202562  169.026467256004 67.3314298557542  C 169.026467256004 67.3314298557542  167.650954318908 66.1320591753024  167.650954318908 66.1320591753024  C 167.650954318908 66.1320591753024  166.662817340231 64.4346109697461  166.662817340231 64.4346109697461  C 166.662817340231 64.4346109697461  163.045119830255 60.8763451303992  163.045119830255 60.8763451303992  C 161.663041198949 59.6849436903491  158.445851035812 58.6011269957216  156.742053388192 58.517449971504  C 155.973867165566 58.5652654139141  155.130175459519 58.6290193371275  154.378403472419 58.517449971504  C 152.490766386905 58.0512494080062  152.21829007717 57.1387713820146  150.639240619549 56.7721863235377  C 150.639240619549 56.7721863235377  149.063474009034 56.5171706306841  149.063474009034 56.5171706306841  C 148.443015906143 56.2462164570272  148.108165501409 55.6405541865001  147.487707398518 55.3696000128433  C 147.487707398518 55.3696000128433  146.108911614317 55.1026304593872  146.108911614317 55.1026304593872  C 146.108911614317 55.1026304593872  144.92708665643 54.4690758474542  144.92708665643 54.4690758474542  C 144.145769045383 54.1184292697806  143.545008025124 54.4451681262492  143.180611996442 53.2975975084083  C 142.934398463549 52.5166119490444  142.304091819343 49.4883005964087  142.47151702171 48.7710689602582  C 143.049298112232 46.2727120943337  144.92708665643 45.535557357179  145.386685251164 42.7901540388027  C 145.646030172478 41.467260132125  145.176583036429 40.7579977363761  145.386685251164 39.8216119891796  C 145.386685251164 39.8216119891796  146.181134250632 37.2913781616484  146.181134250632 37.2913781616484  C 146.41749924221 36.255376909431  146.328862370368 33.7769431445107  146.039971825107 32.7489111326949  C 145.642747325373 31.3224171007955  144.546276392222 30.77253951308  144.001323772752 28.4455213157916  C 143.512179554071 26.3575803305533  143.988192384331 24.5923935815828  143.420259835125 23.2097303718925  C 143.036166723811 22.273344624696  142.438688550658 22.249436903491  141.903584472503 21.4604821037254  C 141.506359972769 20.8787275544032  141.388177476981 20.1256343364451  141.046761378035 19.8427263021858  C 140.597011324617 19.472156623508  140.088170023305 19.9702341486125  139.516954626993 19.4442642821021  C 139.044224643839 19.0099406802109  138.820991040682 17.9938625289977  138.026542041214 17.523677345299  C 137.058102145168 16.9498920363785  136.716686046223 17.8743239229726  135.669457819651 16.9100458343701  C 135.669457819651 16.9100458343701  132.458833350725 13.5988264474751  132.458833350725 13.5988264474751  C 131.97297197915 12.7819793063036  131.976254826255 11.8416089389062  131.43458505389 11.1124234421532  C 130.938875140999 10.4469918686135  129.914626844164 9.93696048290641  129.569927898113 9.23965194776005  C 129.212097563642 8.51843569140866  129.494422414693 7.43461899678117  129.25477457601 6.76121818283981  C 129.25477457601 6.76121818283981  127.399965961549 4.05566106647188  127.399965961549 4.05566106647188  C 127.399965961549 4.05566106647188  128.581790919436 3.33842943032131  128.581790919436 3.33842943032131  C 128.581790919436 3.33842943032131  128.187849266807 0.708580097769286  128.187849266807 0.708580097769286  C 127.422945891286 0.891872627007757  126.605516962081 1.22259610367719  125.824199351033 1.15485756026295  C 124.809799595514 1.0711805360454  121.415335688695 -1.18012987742717  120.991848412119 1.66488894597003  C 120.991848412119 1.66488894597003  120.991848412119 3.33842943032131  120.991848412119 3.33842943032131  C 120.853968833699 4.56170783197811  119.839569078179 6.06390964769343  118.930220430027 6.58191027380217  C 118.56254155424 6.79309514444651  116.264548580572 7.43063437658032  115.860758386627 7.4186805159778  C 114.488528296636 7.37484969376862  113.392057363486 6.7173873606306  112.266040806388 8.38694322478108  C 111.008710365081 10.2437762383708  111.192549802974 10.8016230664879  111.018558906397 12.9015179123287  C 111.018558906397 12.9015179123287  110.677142807452 15.5313672448808  110.677142807452 15.5313672448808  C 110.604920171136 16.7546456465375  110.762496832188 17.9062008845792  110.509717605084 19.1175254256335  C 110.207695671402 20.5599579383363  109.557691944565 22.5084372165453  108.297078656152 23.0383917032566  C 107.285961747738 23.4607614445452  105.962974364326 22.4207755721269  104.948574608806 22.3490524085119  C 104.298570881969 22.3012369661018  103.868517911182 22.6279758225704  103.175837171976 22.540314178152  C 103.175837171976 22.540314178152  100.812187256203 21.7912055803947  100.812187256203 21.7912055803947  C 99.6467765338422 21.6238515319596  99.1346523854246 21.930667287424  97.8576248614858 21.2851588148885  C 97.8576248614858 21.2851588148885  95.297004119398 19.715218455759  95.297004119398 19.715218455759  C 94.643717545455 19.1494023872402  94.0593707607221 18.157231957232  93.3272958562534 17.8265084805625  Z " stroke-width="2.13294375456538" stroke="#ffffff" fill="none" transform="matrix(1 0 0 1 200 2054 )" mask="url(#clip7)" />
  </g>
</svg>