<?xml version="1.0" encoding="utf-8"?>
<svg version="1.1" xmlns:xlink="http://www.w3.org/1999/xlink" width="50px" height="52px" xmlns="http://www.w3.org/2000/svg">
  <defs>
    <mask fill="white" id="clip36">
      <path d="M 16.9927618035726 7.29315698677397  C 16.5306239900835 7.910651767351  16.5047701263917 9.1771060307  16.4918431945459 9.97552284889832  C 16.4918431945459 9.97552284889832  13.0015715961661 8.08370762942351  13.0015715961661 8.08370762942351  C 13.0015715961661 8.08370762942351  10.0962436638113 10.2469059053302  10.0962436638113 10.2469059053302  C 10.0962436638113 10.2469059053302  7.96329990924585 9.44062291158318  7.96329990924585 9.44062291158318  C 7.96329990924585 9.44062291158318  6.02426013236817 9.97552284889832  6.02426013236817 9.97552284889832  C 5.67846470549165 8.83886048210371  4.61522456117041 6.43181076418571  3.66509507050034 5.99130493345552  C 2.10739978307544 5.27154987074479  -0.261460477676678 6.45934237860624  0.0423224207008843 8.78773034103676  C 0.0843349491998424 9.1181097140844  0.136042676583202 9.33049645390076  0.323483188348007 9.59008024700947  C 0.323483188348007 9.59008024700947  4.08522035549055 12.2921115480057  4.08522035549055 12.2921115480057  C 6.07596785975159 13.8456812188841  5.04504504504501 14.5221723160768  6.99378002080698 15.560507488512  C 9.07178431502757 16.6657051531117  10.0025234079288 15.6234368929021  11.0625318192885 16.2763294634485  C 11.980343980344 16.8387610151842  12.8852292095535 18.2782711406057  13.5832835292294 18.7030446202383  C 14.1262146667551 19.033423993286  15.0989662881554 18.9429629744753  15.7162272837948 18.9429629744753  C 15.7162272837948 19.8003761092893  15.7614715452554 21.2241538836133  15.612811829028 22.0147045262628  C 15.4156761183788 23.0923705764419  14.8371959182771 23.9497837112558  15.1377470836929 25.0785799025016  C 15.5158598401842 26.5102238523745  16.2947074838967 26.8130716110014  16.9507492750736 27.6901501846872  C 17.5486198729442 28.4885670028855  17.6843526573256 29.7235565640395  18.4728954999225 30.439378538976  C 18.7734466653385 30.7107615954079  19.2129623480975 30.9585461251936  19.59430683755 30.931014510773  C 20.5864488567192 30.8444865797367  22.4705491732518 28.8936750436463  22.8906744582421 27.8356744323391  C 23.5596431812647 28.252581736423  25.1690461960732 28.6852213916043  25.5697810832946 29.3145154355045  C 26.3260065962768 30.4944417678171  26.2904575337007 31.7018997145506  25.3435597759922 32.6419076926264  C 25.0688624742677 32.9132907490583  24.4095889501294 33.2122054199109  24.0540983243685 33.2869340876241  C 23.6210461075326 33.3734620186603  22.7743320716293 32.9447554512534  22.3089625251787 32.7913650280527  C 22.3089625251787 32.7913650280527  21.7789583194989 36.5671292914536  21.7789583194989 36.5671292914536  C 21.3168205060097 38.0971004356859  20.4733382030678 37.8611151692233  20.5670584589504 40.5788788213169  C 20.6381565841025 42.6948800439311  22.625672355402 42.8954675204243  23.8181818181818 44.2445166270353  C 25.0333134116918 45.6250304358413  24.8297142351196 47.3319905299204  24.6358102574318 49.0782815017432  C 24.6358102574318 49.0782815017432  28.25535117427 48.1068088214723  28.25535117427 48.1068088214723  C 28.25535117427 48.1068088214723  31.936295017376 49.1687425205539  31.936295017376 49.1687425205539  C 31.936295017376 49.1687425205539  34.4570467273169 48.68890581208  34.4570467273169 48.68890581208  C 34.4570467273169 48.68890581208  36.3960865041945 50.4902600127442  36.3960865041945 50.4902600127442  C 36.3960865041945 50.4902600127442  40.0802620802621 51.9101046992939  40.0802620802621 51.9101046992939  C 40.4034353764082 51.3122753575888  40.8526462580516 50.3486688528666  41.2856984748878 49.9042299343621  C 41.8706421409124 49.2985344171083  42.5396108639353 49.2906682415596  42.9306505522721 48.5433815644282  C 43.8226088496358 46.8246222070258  43.153640126613 44.2327173637121  45.5095734555193 42.2347087743293  C 44.452796777121 40.4372876614394  43.7030347300617 40.0164472695812  42.2132058348274 38.9269819560792  C 43.2021161210349 38.4078143698615  44.4140159815834 37.5032041817551  45.5095734555193 37.6054644638889  C 47.4647718972043 37.7785203259614  47.5681873519711 39.2730936802242  49.9693649423378 38.455011423154  C 49.6041791176926 37.4324086018162  49.0677114460898 35.9889653886203  48.3599619275295 35.273143413684  C 47.7459326648515 34.6556486331069  47.3839785731678 34.8837677240206  46.4790933439582 33.9398266581704  C 46.4790933439582 33.9398266581704  43.7644376563295 30.7894233508954  43.7644376563295 30.7894233508954  C 42.8013812338136 29.9595418305021  41.5410053788432 30.0500028493127  40.5779489563273 28.504299353983  C 40.0317860858399 27.6272207802972  40.2644708590653 26.5023576768257  39.6019656019656 25.082512990276  C 39.6019656019656 25.082512990276  37.1910928127144 20.5987929274875  37.1910928127144 20.5987929274875  C 37.1910928127144 20.5987929274875  36.1310844013545 17.5270513756999  36.1310844013545 17.5270513756999  C 36.1310844013545 17.5270513756999  34.722048830157 14.6952281781494  34.722048830157 14.6952281781494  C 33.9593598512516 12.8663423630646  33.3162449919206 10.1249801843246  32.0300152732584 8.66187153225678  C 31.4773889368484 8.02471131280791  30.3592093321823 7.82412383631467  29.6126790180843 7.53700842878524  C 27.8869336166633 6.86445041936702  25.2627664519557 6.09356521558934  23.8925116762954 4.65798817794217  C 23.4626911924209 4.21354925943766  22.3929875821767 2.77403913401605  22.3639019855235 2.08968186127464  C 22.3477433207162 1.7357039615809  22.771100338668 0.477115873780576  22.8906744582421 0.0641416574711116  C 21.6173716714256 0.500714400426887  20.1404697080372 1.09461065435767  19.5716847068198 2.66391267633358  C 19.1063151603693 3.93823311523133  19.2420479447506 4.93330432214842  18.8316178586449 5.67665791150546  C 18.3694800451556 6.51440560744749  17.4516678841002 6.68352838174576  16.9927618035726 7.29315698677397  Z " fill-rule="evenodd" />
    </mask>
  </defs>
  <g transform="matrix(1 0 0 1 -540 -2234 )">
    <path d="M 16.9927618035726 7.29315698677397  C 16.5306239900835 7.910651767351  16.5047701263917 9.1771060307  16.4918431945459 9.97552284889832  C 16.4918431945459 9.97552284889832  13.0015715961661 8.08370762942351  13.0015715961661 8.08370762942351  C 13.0015715961661 8.08370762942351  10.0962436638113 10.2469059053302  10.0962436638113 10.2469059053302  C 10.0962436638113 10.2469059053302  7.96329990924585 9.44062291158318  7.96329990924585 9.44062291158318  C 7.96329990924585 9.44062291158318  6.02426013236817 9.97552284889832  6.02426013236817 9.97552284889832  C 5.67846470549165 8.83886048210371  4.61522456117041 6.43181076418571  3.66509507050034 5.99130493345552  C 2.10739978307544 5.27154987074479  -0.261460477676678 6.45934237860624  0.0423224207008843 8.78773034103676  C 0.0843349491998424 9.1181097140844  0.136042676583202 9.33049645390076  0.323483188348007 9.59008024700947  C 0.323483188348007 9.59008024700947  4.08522035549055 12.2921115480057  4.08522035549055 12.2921115480057  C 6.07596785975159 13.8456812188841  5.04504504504501 14.5221723160768  6.99378002080698 15.560507488512  C 9.07178431502757 16.6657051531117  10.0025234079288 15.6234368929021  11.0625318192885 16.2763294634485  C 11.980343980344 16.8387610151842  12.8852292095535 18.2782711406057  13.5832835292294 18.7030446202383  C 14.1262146667551 19.033423993286  15.0989662881554 18.9429629744753  15.7162272837948 18.9429629744753  C 15.7162272837948 19.8003761092893  15.7614715452554 21.2241538836133  15.612811829028 22.0147045262628  C 15.4156761183788 23.0923705764419  14.8371959182771 23.9497837112558  15.1377470836929 25.0785799025016  C 15.5158598401842 26.5102238523745  16.2947074838967 26.8130716110014  16.9507492750736 27.6901501846872  C 17.5486198729442 28.4885670028855  17.6843526573256 29.7235565640395  18.4728954999225 30.439378538976  C 18.7734466653385 30.7107615954079  19.2129623480975 30.9585461251936  19.59430683755 30.931014510773  C 20.5864488567192 30.8444865797367  22.4705491732518 28.8936750436463  22.8906744582421 27.8356744323391  C 23.5596431812647 28.252581736423  25.1690461960732 28.6852213916043  25.5697810832946 29.3145154355045  C 26.3260065962768 30.4944417678171  26.2904575337007 31.7018997145506  25.3435597759922 32.6419076926264  C 25.0688624742677 32.9132907490583  24.4095889501294 33.2122054199109  24.0540983243685 33.2869340876241  C 23.6210461075326 33.3734620186603  22.7743320716293 32.9447554512534  22.3089625251787 32.7913650280527  C 22.3089625251787 32.7913650280527  21.7789583194989 36.5671292914536  21.7789583194989 36.5671292914536  C 21.3168205060097 38.0971004356859  20.4733382030678 37.8611151692233  20.5670584589504 40.5788788213169  C 20.6381565841025 42.6948800439311  22.625672355402 42.8954675204243  23.8181818181818 44.2445166270353  C 25.0333134116918 45.6250304358413  24.8297142351196 47.3319905299204  24.6358102574318 49.0782815017432  C 24.6358102574318 49.0782815017432  28.25535117427 48.1068088214723  28.25535117427 48.1068088214723  C 28.25535117427 48.1068088214723  31.936295017376 49.1687425205539  31.936295017376 49.1687425205539  C 31.936295017376 49.1687425205539  34.4570467273169 48.68890581208  34.4570467273169 48.68890581208  C 34.4570467273169 48.68890581208  36.3960865041945 50.4902600127442  36.3960865041945 50.4902600127442  C 36.3960865041945 50.4902600127442  40.0802620802621 51.9101046992939  40.0802620802621 51.9101046992939  C 40.4034353764082 51.3122753575888  40.8526462580516 50.3486688528666  41.2856984748878 49.9042299343621  C 41.8706421409124 49.2985344171083  42.5396108639353 49.2906682415596  42.9306505522721 48.5433815644282  C 43.8226088496358 46.8246222070258  43.153640126613 44.2327173637121  45.5095734555193 42.2347087743293  C 44.452796777121 40.4372876614394  43.7030347300617 40.0164472695812  42.2132058348274 38.9269819560792  C 43.2021161210349 38.4078143698615  44.4140159815834 37.5032041817551  45.5095734555193 37.6054644638889  C 47.4647718972043 37.7785203259614  47.5681873519711 39.2730936802242  49.9693649423378 38.455011423154  C 49.6041791176926 37.4324086018162  49.0677114460898 35.9889653886203  48.3599619275295 35.273143413684  C 47.7459326648515 34.6556486331069  47.3839785731678 34.8837677240206  46.4790933439582 33.9398266581704  C 46.4790933439582 33.9398266581704  43.7644376563295 30.7894233508954  43.7644376563295 30.7894233508954  C 42.8013812338136 29.9595418305021  41.5410053788432 30.0500028493127  40.5779489563273 28.504299353983  C 40.0317860858399 27.6272207802972  40.2644708590653 26.5023576768257  39.6019656019656 25.082512990276  C 39.6019656019656 25.082512990276  37.1910928127144 20.5987929274875  37.1910928127144 20.5987929274875  C 37.1910928127144 20.5987929274875  36.1310844013545 17.5270513756999  36.1310844013545 17.5270513756999  C 36.1310844013545 17.5270513756999  34.722048830157 14.6952281781494  34.722048830157 14.6952281781494  C 33.9593598512516 12.8663423630646  33.3162449919206 10.1249801843246  32.0300152732584 8.66187153225678  C 31.4773889368484 8.02471131280791  30.3592093321823 7.82412383631467  29.6126790180843 7.53700842878524  C 27.8869336166633 6.86445041936702  25.2627664519557 6.09356521558934  23.8925116762954 4.65798817794217  C 23.4626911924209 4.21354925943766  22.3929875821767 2.77403913401605  22.3639019855235 2.08968186127464  C 22.3477433207162 1.7357039615809  22.771100338668 0.477115873780576  22.8906744582421 0.0641416574711116  C 21.6173716714256 0.500714400426887  20.1404697080372 1.09461065435767  19.5716847068198 2.66391267633358  C 19.1063151603693 3.93823311523133  19.2420479447506 4.93330432214842  18.8316178586449 5.67665791150546  C 18.3694800451556 6.51440560744749  17.4516678841002 6.68352838174576  16.9927618035726 7.29315698677397  Z " fill-rule="nonzero" fill="#1c8dff" stroke="none" transform="matrix(1 0 0 1 540 2234 )" />
    <path d="M 16.9927618035726 7.29315698677397  C 16.5306239900835 7.910651767351  16.5047701263917 9.1771060307  16.4918431945459 9.97552284889832  C 16.4918431945459 9.97552284889832  13.0015715961661 8.08370762942351  13.0015715961661 8.08370762942351  C 13.0015715961661 8.08370762942351  10.0962436638113 10.2469059053302  10.0962436638113 10.2469059053302  C 10.0962436638113 10.2469059053302  7.96329990924585 9.44062291158318  7.96329990924585 9.44062291158318  C 7.96329990924585 9.44062291158318  6.02426013236817 9.97552284889832  6.02426013236817 9.97552284889832  C 5.67846470549165 8.83886048210371  4.61522456117041 6.43181076418571  3.66509507050034 5.99130493345552  C 2.10739978307544 5.27154987074479  -0.261460477676678 6.45934237860624  0.0423224207008843 8.78773034103676  C 0.0843349491998424 9.1181097140844  0.136042676583202 9.33049645390076  0.323483188348007 9.59008024700947  C 0.323483188348007 9.59008024700947  4.08522035549055 12.2921115480057  4.08522035549055 12.2921115480057  C 6.07596785975159 13.8456812188841  5.04504504504501 14.5221723160768  6.99378002080698 15.560507488512  C 9.07178431502757 16.6657051531117  10.0025234079288 15.6234368929021  11.0625318192885 16.2763294634485  C 11.980343980344 16.8387610151842  12.8852292095535 18.2782711406057  13.5832835292294 18.7030446202383  C 14.1262146667551 19.033423993286  15.0989662881554 18.9429629744753  15.7162272837948 18.9429629744753  C 15.7162272837948 19.8003761092893  15.7614715452554 21.2241538836133  15.612811829028 22.0147045262628  C 15.4156761183788 23.0923705764419  14.8371959182771 23.9497837112558  15.1377470836929 25.0785799025016  C 15.5158598401842 26.5102238523745  16.2947074838967 26.8130716110014  16.9507492750736 27.6901501846872  C 17.5486198729442 28.4885670028855  17.6843526573256 29.7235565640395  18.4728954999225 30.439378538976  C 18.7734466653385 30.7107615954079  19.2129623480975 30.9585461251936  19.59430683755 30.931014510773  C 20.5864488567192 30.8444865797367  22.4705491732518 28.8936750436463  22.8906744582421 27.8356744323391  C 23.5596431812647 28.252581736423  25.1690461960732 28.6852213916043  25.5697810832946 29.3145154355045  C 26.3260065962768 30.4944417678171  26.2904575337007 31.7018997145506  25.3435597759922 32.6419076926264  C 25.0688624742677 32.9132907490583  24.4095889501294 33.2122054199109  24.0540983243685 33.2869340876241  C 23.6210461075326 33.3734620186603  22.7743320716293 32.9447554512534  22.3089625251787 32.7913650280527  C 22.3089625251787 32.7913650280527  21.7789583194989 36.5671292914536  21.7789583194989 36.5671292914536  C 21.3168205060097 38.0971004356859  20.4733382030678 37.8611151692233  20.5670584589504 40.5788788213169  C 20.6381565841025 42.6948800439311  22.625672355402 42.8954675204243  23.8181818181818 44.2445166270353  C 25.0333134116918 45.6250304358413  24.8297142351196 47.3319905299204  24.6358102574318 49.0782815017432  C 24.6358102574318 49.0782815017432  28.25535117427 48.1068088214723  28.25535117427 48.1068088214723  C 28.25535117427 48.1068088214723  31.936295017376 49.1687425205539  31.936295017376 49.1687425205539  C 31.936295017376 49.1687425205539  34.4570467273169 48.68890581208  34.4570467273169 48.68890581208  C 34.4570467273169 48.68890581208  36.3960865041945 50.4902600127442  36.3960865041945 50.4902600127442  C 36.3960865041945 50.4902600127442  40.0802620802621 51.9101046992939  40.0802620802621 51.9101046992939  C 40.4034353764082 51.3122753575888  40.8526462580516 50.3486688528666  41.2856984748878 49.9042299343621  C 41.8706421409124 49.2985344171083  42.5396108639353 49.2906682415596  42.9306505522721 48.5433815644282  C 43.8226088496358 46.8246222070258  43.153640126613 44.2327173637121  45.5095734555193 42.2347087743293  C 44.452796777121 40.4372876614394  43.7030347300617 40.0164472695812  42.2132058348274 38.9269819560792  C 43.2021161210349 38.4078143698615  44.4140159815834 37.5032041817551  45.5095734555193 37.6054644638889  C 47.4647718972043 37.7785203259614  47.5681873519711 39.2730936802242  49.9693649423378 38.455011423154  C 49.6041791176926 37.4324086018162  49.0677114460898 35.9889653886203  48.3599619275295 35.273143413684  C 47.7459326648515 34.6556486331069  47.3839785731678 34.8837677240206  46.4790933439582 33.9398266581704  C 46.4790933439582 33.9398266581704  43.7644376563295 30.7894233508954  43.7644376563295 30.7894233508954  C 42.8013812338136 29.9595418305021  41.5410053788432 30.0500028493127  40.5779489563273 28.504299353983  C 40.0317860858399 27.6272207802972  40.2644708590653 26.5023576768257  39.6019656019656 25.082512990276  C 39.6019656019656 25.082512990276  37.1910928127144 20.5987929274875  37.1910928127144 20.5987929274875  C 37.1910928127144 20.5987929274875  36.1310844013545 17.5270513756999  36.1310844013545 17.5270513756999  C 36.1310844013545 17.5270513756999  34.722048830157 14.6952281781494  34.722048830157 14.6952281781494  C 33.9593598512516 12.8663423630646  33.3162449919206 10.1249801843246  32.0300152732584 8.66187153225678  C 31.4773889368484 8.02471131280791  30.3592093321823 7.82412383631467  29.6126790180843 7.53700842878524  C 27.8869336166633 6.86445041936702  25.2627664519557 6.09356521558934  23.8925116762954 4.65798817794217  C 23.4626911924209 4.21354925943766  22.3929875821767 2.77403913401605  22.3639019855235 2.08968186127464  C 22.3477433207162 1.7357039615809  22.771100338668 0.477115873780576  22.8906744582421 0.0641416574711116  C 21.6173716714256 0.500714400426887  20.1404697080372 1.09461065435767  19.5716847068198 2.66391267633358  C 19.1063151603693 3.93823311523133  19.2420479447506 4.93330432214842  18.8316178586449 5.67665791150546  C 18.3694800451556 6.51440560744749  17.4516678841002 6.68352838174576  16.9927618035726 7.29315698677397  Z " stroke-width="2.13294375456538" stroke="#ffffff" fill="none" transform="matrix(1 0 0 1 540 2234 )" mask="url(#clip36)" />
  </g>
</svg>