<?xml version="1.0" encoding="utf-8"?>
<svg version="1.1" xmlns:xlink="http://www.w3.org/1999/xlink" width="42px" height="73px" xmlns="http://www.w3.org/2000/svg">
  <defs>
    <mask fill="white" id="clip34">
      <path d="M 4.49299861790621 47.4757086031557  C 5.12781792097371 49.206211182475  5.03436736366928 50.4889613461663  5.03436736366928 52.3162752585943  C 5.03436736366928 52.3162752585943  6.58113520870666 52.8003319241381  6.58113520870666 52.8003319241381  C 5.501620150191 55.1681757797567  4.56389214413707 57.507782996552  4.95380653840698 60.3032102400677  C 5.13426278699467 61.5980618203975  5.70141099684156 62.4653300128302  6.77448118933626 62.7557640121566  C 8.28580227125826 63.1712459834151  9.39109679385786 61.0938361271227  11.2149938777977 62.1103551247648  C 11.601685839057 62.3241468187133  11.9078169750539 62.5500399293005  12.1269424197676 63.0179613726596  C 12.9486628374436 64.7847682018946  11.7144709944243 65.3252981450852  10.8508589476118 66.2409720040724  C 9.94213283865224 67.2010177240677  8.61771287133899 69.8915660233822  9.02373943066146 71.4405473531226  C 9.11396755495525 71.7914884356419  9.29442380354294 72.1141928793377  9.5071043822357 72.3683226287483  C 10.4512772543104 73.5098895983226  11.2053265787662 72.5014382117729  12.1849462139564 72.0093139351367  C 13.2064574782833 71.4970206307693  13.6833775638364 71.8439279077424  14.2956398358302 71.4365135475763  C 14.8176739835304 71.085572465057  15.0786910573806 70.4038593277495  15.6716187313115 69.9803097453985  C 15.6716187313115 69.9803097453985  19.1454015166245 68.7701680815389  19.1454015166245 68.7701680815389  C 19.9123405731222 68.6894919706151  20.7405058568192 69.3187656358219  21.4011046239706 69.6939095516184  C 22.0198117619856 70.048884439684  22.6642983640845 70.1618309949775  23.3345644302673 70.230405689263  C 23.2185568418896 69.5890306074174  22.870534076756 68.3587199158267  22.889868674819 67.8101223615436  C 22.9253154379345 66.9307527524724  23.3764560594037 66.5193045867601  23.508575812834 65.1437768955063  C 23.7051442264741 63.1268741224069  24.1852867450379 57.6045943296608  24.6783189956435 55.946700250173  C 25.2583569375325 53.9943383658129  26.5247731106568 52.0540778980913  26.7052293592445 51.3481619275066  C 26.9372445360001 50.4486232907042  26.6826723281711 49.2021773769287  26.9501342680421 48.2017936014714  C 27.2240410739341 47.1651055760984  28.0360941925787 46.2574993282037  28.0715409556942 45.2974536082084  C 28.1198774508516 44.0994133609873  27.1628148467346 43.3370241127557  27.4334992196162 41.9050231438552  C 28.0296493265577 38.774790040005  30.449696517439 38.1576177914366  31.2907515331781 36.1689516571606  C 31.6258845662696 35.3783257701056  32.0512457236547 33.1516651086039  31.8095632478676 32.3045659439022  C 31.596882669175 31.5502443067629  30.8782801078348 30.8765987805477  30.9846203971812 30.1343785600471  C 31.0651812224435 29.5898148113104  31.6935556594899 29.0250820348425  31.9996867954869 28.6338028968612  C 31.9996867954869 28.6338028968612  33.088869153034 27.048517317205  33.088869153034 27.048517317205  C 33.8042492813636 26.1046068193946  34.2070534076756 25.9634236252776  34.9321008350369 24.8016876279725  C 34.9321008350369 24.8016876279725  37.0589066219631 26.4958859573759  37.0589066219631 26.4958859573759  C 37.3650377579601 25.7819023756987  37.6711688939571 24.9912764886437  38.2383171038042 24.5435240730156  C 38.7732409835463 24.1240082962111  39.3371667603828 24.2087182126812  39.9590963314083 23.6923911027678  C 40.9709402967035 22.845291938066  42.0246758911351 20.287859221776  41.9086683027573 18.7469455031281  C 41.7765485493271 16.9761048683469  41.3060733297948 13.8579731811352  40.3876799218039 12.5066483231586  C 39.6626324944427 11.441723658962  38.608896900011 11.3449123258533  38.2318722377833 10.465542716782  C 37.7807316163139 9.42078708031647  38.8538018088086 6.91579383612708  38.4058836203499 6.08886369915632  C 38.1287543814474 5.57657039478909  36.5980987014624 4.99166859059034  36.0921767188149 4.79401211882657  C 36.0921767188149 4.79401211882657  32.6119490674809 3.76942551009199  32.6119490674809 3.76942551009199  C 31.6806659274479 3.28940265009442  31.5034321118708 2.48264154085462  30.8557230767613 2.05102434741133  C 30.3498010941137 1.71218468153063  29.3347346958079 1.80496220909316  28.7450294548875 1.80496220909316  C 28.5613507732893 3.49916053849677  28.4517880509325 4.06792712051077  27.2079289088817 4.98360097949785  C 26.9340221029896 5.18529125680783  26.669782596129 5.37488011747917  26.3443168620691 5.40715056184877  C 26.3443168620691 5.40715056184877  25.0746782559343 5.19335886790026  25.0746782559343 5.19335886790026  C 25.8029481163061 2.30515409682187  26.0414081590825 4.23331314790488  26.0414081590825 0.110763879689728  C 25.3582523608578 0.110763879689728  24.3399635295417 -0.0304193144272631  23.7824826187261 0.498009212124884  C 23.1315511506062 1.11518146069335  22.9543173350289 2.28901887463701  21.9714752668282 2.79727837345808  C 21.9714752668282 2.79727837345808  19.9187854391433 3.34990973328746  19.9187854391433 3.34990973328746  C 19.2452969399498 3.70488462135285  18.8360479476169 4.30592164773651  18.1786716134762 4.39466536975283  C 17.7210861259859 4.50761192504649  15.5652784419652 3.94287914857858  14.7564477563311 4.39466536975283  C 14.1280733192847 4.69316698017161  13.5093661812697 5.9718833383165  12.9422179714227 6.58098797579265  C 12.1204975537466 7.4603575848638  11.4018949924064 7.35547864066274  10.6575129669822 8.02509036133176  C 9.90346364252639 8.69873588754695  9.8132355182326 9.40868566367789  8.70471856262247 10.1025002176241  C 8.70471856262247 10.1025002176241  5.61440530555842 11.5506364087095  5.61440530555842 11.5506364087095  C 5.61440530555842 11.5506364087095  4.06763746052098 12.9866711831561  4.06763746052098 12.9866711831561  C 3.24269460983442 13.6441814871866  2.37263769700081 13.7490604313877  2.03750466390943 15.1165205115491  C 1.76359785801742 16.2338846478462  2.75610722524965 17.6094123391001  3.2298048777925 18.5049171703561  C 4.63800810337847 21.1833640530322  3.72283712839811 20.8404905816052  4.22231424502468 22.6234326330251  C 4.42854995769642 23.3535514368871  4.92802707432304 23.9868589076403  4.76046055777726 24.8016876279725  C 4.65734270144151 25.2978457101548  3.00101213404724 28.3796731474507  2.64976693590341 28.7628846743395  C 2.64976693590341 28.7628846743395  1.5154705162094 29.7955388941664  1.5154705162094 29.7955388941664  C 1.19000478214946 30.271527948618  1.03210556463512 31.2154384464284  0.893540945183986 31.8205092783583  C 0.655080902407349 32.8329944704541  0.0170391663293685 34.5110575776728  0.08793269256023 35.4509342699372  C 0.278056240179524 37.9720627363113  1.96983357068905 38.3472066521079  2.7754418233128 40.2148586199979  C 3.05901592823625 40.8764027295746  3.49082195164249 42.1309162544423  3.52626871475786 42.873136474943  C 3.55849304486287 43.6798975841828  3.27169650692889 44.6318756930855  3.42637329143258 45.2974536082084  C 3.5939398079783 46.0114371898856  4.12564125470988 46.4753248276984  4.49299861790621 47.4757086031557  Z " fill-rule="evenodd" />
    </mask>
  </defs>
  <g transform="matrix(1 0 0 1 -522 -2301 )">
    <path d="M 4.49299861790621 47.4757086031557  C 5.12781792097371 49.206211182475  5.03436736366928 50.4889613461663  5.03436736366928 52.3162752585943  C 5.03436736366928 52.3162752585943  6.58113520870666 52.8003319241381  6.58113520870666 52.8003319241381  C 5.501620150191 55.1681757797567  4.56389214413707 57.507782996552  4.95380653840698 60.3032102400677  C 5.13426278699467 61.5980618203975  5.70141099684156 62.4653300128302  6.77448118933626 62.7557640121566  C 8.28580227125826 63.1712459834151  9.39109679385786 61.0938361271227  11.2149938777977 62.1103551247648  C 11.601685839057 62.3241468187133  11.9078169750539 62.5500399293005  12.1269424197676 63.0179613726596  C 12.9486628374436 64.7847682018946  11.7144709944243 65.3252981450852  10.8508589476118 66.2409720040724  C 9.94213283865224 67.2010177240677  8.61771287133899 69.8915660233822  9.02373943066146 71.4405473531226  C 9.11396755495525 71.7914884356419  9.29442380354294 72.1141928793377  9.5071043822357 72.3683226287483  C 10.4512772543104 73.5098895983226  11.2053265787662 72.5014382117729  12.1849462139564 72.0093139351367  C 13.2064574782833 71.4970206307693  13.6833775638364 71.8439279077424  14.2956398358302 71.4365135475763  C 14.8176739835304 71.085572465057  15.0786910573806 70.4038593277495  15.6716187313115 69.9803097453985  C 15.6716187313115 69.9803097453985  19.1454015166245 68.7701680815389  19.1454015166245 68.7701680815389  C 19.9123405731222 68.6894919706151  20.7405058568192 69.3187656358219  21.4011046239706 69.6939095516184  C 22.0198117619856 70.048884439684  22.6642983640845 70.1618309949775  23.3345644302673 70.230405689263  C 23.2185568418896 69.5890306074174  22.870534076756 68.3587199158267  22.889868674819 67.8101223615436  C 22.9253154379345 66.9307527524724  23.3764560594037 66.5193045867601  23.508575812834 65.1437768955063  C 23.7051442264741 63.1268741224069  24.1852867450379 57.6045943296608  24.6783189956435 55.946700250173  C 25.2583569375325 53.9943383658129  26.5247731106568 52.0540778980913  26.7052293592445 51.3481619275066  C 26.9372445360001 50.4486232907042  26.6826723281711 49.2021773769287  26.9501342680421 48.2017936014714  C 27.2240410739341 47.1651055760984  28.0360941925787 46.2574993282037  28.0715409556942 45.2974536082084  C 28.1198774508516 44.0994133609873  27.1628148467346 43.3370241127557  27.4334992196162 41.9050231438552  C 28.0296493265577 38.774790040005  30.449696517439 38.1576177914366  31.2907515331781 36.1689516571606  C 31.6258845662696 35.3783257701056  32.0512457236547 33.1516651086039  31.8095632478676 32.3045659439022  C 31.596882669175 31.5502443067629  30.8782801078348 30.8765987805477  30.9846203971812 30.1343785600471  C 31.0651812224435 29.5898148113104  31.6935556594899 29.0250820348425  31.9996867954869 28.6338028968612  C 31.9996867954869 28.6338028968612  33.088869153034 27.048517317205  33.088869153034 27.048517317205  C 33.8042492813636 26.1046068193946  34.2070534076756 25.9634236252776  34.9321008350369 24.8016876279725  C 34.9321008350369 24.8016876279725  37.0589066219631 26.4958859573759  37.0589066219631 26.4958859573759  C 37.3650377579601 25.7819023756987  37.6711688939571 24.9912764886437  38.2383171038042 24.5435240730156  C 38.7732409835463 24.1240082962111  39.3371667603828 24.2087182126812  39.9590963314083 23.6923911027678  C 40.9709402967035 22.845291938066  42.0246758911351 20.287859221776  41.9086683027573 18.7469455031281  C 41.7765485493271 16.9761048683469  41.3060733297948 13.8579731811352  40.3876799218039 12.5066483231586  C 39.6626324944427 11.441723658962  38.608896900011 11.3449123258533  38.2318722377833 10.465542716782  C 37.7807316163139 9.42078708031647  38.8538018088086 6.91579383612708  38.4058836203499 6.08886369915632  C 38.1287543814474 5.57657039478909  36.5980987014624 4.99166859059034  36.0921767188149 4.79401211882657  C 36.0921767188149 4.79401211882657  32.6119490674809 3.76942551009199  32.6119490674809 3.76942551009199  C 31.6806659274479 3.28940265009442  31.5034321118708 2.48264154085462  30.8557230767613 2.05102434741133  C 30.3498010941137 1.71218468153063  29.3347346958079 1.80496220909316  28.7450294548875 1.80496220909316  C 28.5613507732893 3.49916053849677  28.4517880509325 4.06792712051077  27.2079289088817 4.98360097949785  C 26.9340221029896 5.18529125680783  26.669782596129 5.37488011747917  26.3443168620691 5.40715056184877  C 26.3443168620691 5.40715056184877  25.0746782559343 5.19335886790026  25.0746782559343 5.19335886790026  C 25.8029481163061 2.30515409682187  26.0414081590825 4.23331314790488  26.0414081590825 0.110763879689728  C 25.3582523608578 0.110763879689728  24.3399635295417 -0.0304193144272631  23.7824826187261 0.498009212124884  C 23.1315511506062 1.11518146069335  22.9543173350289 2.28901887463701  21.9714752668282 2.79727837345808  C 21.9714752668282 2.79727837345808  19.9187854391433 3.34990973328746  19.9187854391433 3.34990973328746  C 19.2452969399498 3.70488462135285  18.8360479476169 4.30592164773651  18.1786716134762 4.39466536975283  C 17.7210861259859 4.50761192504649  15.5652784419652 3.94287914857858  14.7564477563311 4.39466536975283  C 14.1280733192847 4.69316698017161  13.5093661812697 5.9718833383165  12.9422179714227 6.58098797579265  C 12.1204975537466 7.4603575848638  11.4018949924064 7.35547864066274  10.6575129669822 8.02509036133176  C 9.90346364252639 8.69873588754695  9.8132355182326 9.40868566367789  8.70471856262247 10.1025002176241  C 8.70471856262247 10.1025002176241  5.61440530555842 11.5506364087095  5.61440530555842 11.5506364087095  C 5.61440530555842 11.5506364087095  4.06763746052098 12.9866711831561  4.06763746052098 12.9866711831561  C 3.24269460983442 13.6441814871866  2.37263769700081 13.7490604313877  2.03750466390943 15.1165205115491  C 1.76359785801742 16.2338846478462  2.75610722524965 17.6094123391001  3.2298048777925 18.5049171703561  C 4.63800810337847 21.1833640530322  3.72283712839811 20.8404905816052  4.22231424502468 22.6234326330251  C 4.42854995769642 23.3535514368871  4.92802707432304 23.9868589076403  4.76046055777726 24.8016876279725  C 4.65734270144151 25.2978457101548  3.00101213404724 28.3796731474507  2.64976693590341 28.7628846743395  C 2.64976693590341 28.7628846743395  1.5154705162094 29.7955388941664  1.5154705162094 29.7955388941664  C 1.19000478214946 30.271527948618  1.03210556463512 31.2154384464284  0.893540945183986 31.8205092783583  C 0.655080902407349 32.8329944704541  0.0170391663293685 34.5110575776728  0.08793269256023 35.4509342699372  C 0.278056240179524 37.9720627363113  1.96983357068905 38.3472066521079  2.7754418233128 40.2148586199979  C 3.05901592823625 40.8764027295746  3.49082195164249 42.1309162544423  3.52626871475786 42.873136474943  C 3.55849304486287 43.6798975841828  3.27169650692889 44.6318756930855  3.42637329143258 45.2974536082084  C 3.5939398079783 46.0114371898856  4.12564125470988 46.4753248276984  4.49299861790621 47.4757086031557  Z " fill-rule="nonzero" fill="#1c8dff" stroke="none" transform="matrix(1 0 0 1 522 2301 )" />
    <path d="M 4.49299861790621 47.4757086031557  C 5.12781792097371 49.206211182475  5.03436736366928 50.4889613461663  5.03436736366928 52.3162752585943  C 5.03436736366928 52.3162752585943  6.58113520870666 52.8003319241381  6.58113520870666 52.8003319241381  C 5.501620150191 55.1681757797567  4.56389214413707 57.507782996552  4.95380653840698 60.3032102400677  C 5.13426278699467 61.5980618203975  5.70141099684156 62.4653300128302  6.77448118933626 62.7557640121566  C 8.28580227125826 63.1712459834151  9.39109679385786 61.0938361271227  11.2149938777977 62.1103551247648  C 11.601685839057 62.3241468187133  11.9078169750539 62.5500399293005  12.1269424197676 63.0179613726596  C 12.9486628374436 64.7847682018946  11.7144709944243 65.3252981450852  10.8508589476118 66.2409720040724  C 9.94213283865224 67.2010177240677  8.61771287133899 69.8915660233822  9.02373943066146 71.4405473531226  C 9.11396755495525 71.7914884356419  9.29442380354294 72.1141928793377  9.5071043822357 72.3683226287483  C 10.4512772543104 73.5098895983226  11.2053265787662 72.5014382117729  12.1849462139564 72.0093139351367  C 13.2064574782833 71.4970206307693  13.6833775638364 71.8439279077424  14.2956398358302 71.4365135475763  C 14.8176739835304 71.085572465057  15.0786910573806 70.4038593277495  15.6716187313115 69.9803097453985  C 15.6716187313115 69.9803097453985  19.1454015166245 68.7701680815389  19.1454015166245 68.7701680815389  C 19.9123405731222 68.6894919706151  20.7405058568192 69.3187656358219  21.4011046239706 69.6939095516184  C 22.0198117619856 70.048884439684  22.6642983640845 70.1618309949775  23.3345644302673 70.230405689263  C 23.2185568418896 69.5890306074174  22.870534076756 68.3587199158267  22.889868674819 67.8101223615436  C 22.9253154379345 66.9307527524724  23.3764560594037 66.5193045867601  23.508575812834 65.1437768955063  C 23.7051442264741 63.1268741224069  24.1852867450379 57.6045943296608  24.6783189956435 55.946700250173  C 25.2583569375325 53.9943383658129  26.5247731106568 52.0540778980913  26.7052293592445 51.3481619275066  C 26.9372445360001 50.4486232907042  26.6826723281711 49.2021773769287  26.9501342680421 48.2017936014714  C 27.2240410739341 47.1651055760984  28.0360941925787 46.2574993282037  28.0715409556942 45.2974536082084  C 28.1198774508516 44.0994133609873  27.1628148467346 43.3370241127557  27.4334992196162 41.9050231438552  C 28.0296493265577 38.774790040005  30.449696517439 38.1576177914366  31.2907515331781 36.1689516571606  C 31.6258845662696 35.3783257701056  32.0512457236547 33.1516651086039  31.8095632478676 32.3045659439022  C 31.596882669175 31.5502443067629  30.8782801078348 30.8765987805477  30.9846203971812 30.1343785600471  C 31.0651812224435 29.5898148113104  31.6935556594899 29.0250820348425  31.9996867954869 28.6338028968612  C 31.9996867954869 28.6338028968612  33.088869153034 27.048517317205  33.088869153034 27.048517317205  C 33.8042492813636 26.1046068193946  34.2070534076756 25.9634236252776  34.9321008350369 24.8016876279725  C 34.9321008350369 24.8016876279725  37.0589066219631 26.4958859573759  37.0589066219631 26.4958859573759  C 37.3650377579601 25.7819023756987  37.6711688939571 24.9912764886437  38.2383171038042 24.5435240730156  C 38.7732409835463 24.1240082962111  39.3371667603828 24.2087182126812  39.9590963314083 23.6923911027678  C 40.9709402967035 22.845291938066  42.0246758911351 20.287859221776  41.9086683027573 18.7469455031281  C 41.7765485493271 16.9761048683469  41.3060733297948 13.8579731811352  40.3876799218039 12.5066483231586  C 39.6626324944427 11.441723658962  38.608896900011 11.3449123258533  38.2318722377833 10.465542716782  C 37.7807316163139 9.42078708031647  38.8538018088086 6.91579383612708  38.4058836203499 6.08886369915632  C 38.1287543814474 5.57657039478909  36.5980987014624 4.99166859059034  36.0921767188149 4.79401211882657  C 36.0921767188149 4.79401211882657  32.6119490674809 3.76942551009199  32.6119490674809 3.76942551009199  C 31.6806659274479 3.28940265009442  31.5034321118708 2.48264154085462  30.8557230767613 2.05102434741133  C 30.3498010941137 1.71218468153063  29.3347346958079 1.80496220909316  28.7450294548875 1.80496220909316  C 28.5613507732893 3.49916053849677  28.4517880509325 4.06792712051077  27.2079289088817 4.98360097949785  C 26.9340221029896 5.18529125680783  26.669782596129 5.37488011747917  26.3443168620691 5.40715056184877  C 26.3443168620691 5.40715056184877  25.0746782559343 5.19335886790026  25.0746782559343 5.19335886790026  C 25.8029481163061 2.30515409682187  26.0414081590825 4.23331314790488  26.0414081590825 0.110763879689728  C 25.3582523608578 0.110763879689728  24.3399635295417 -0.0304193144272631  23.7824826187261 0.498009212124884  C 23.1315511506062 1.11518146069335  22.9543173350289 2.28901887463701  21.9714752668282 2.79727837345808  C 21.9714752668282 2.79727837345808  19.9187854391433 3.34990973328746  19.9187854391433 3.34990973328746  C 19.2452969399498 3.70488462135285  18.8360479476169 4.30592164773651  18.1786716134762 4.39466536975283  C 17.7210861259859 4.50761192504649  15.5652784419652 3.94287914857858  14.7564477563311 4.39466536975283  C 14.1280733192847 4.69316698017161  13.5093661812697 5.9718833383165  12.9422179714227 6.58098797579265  C 12.1204975537466 7.4603575848638  11.4018949924064 7.35547864066274  10.6575129669822 8.02509036133176  C 9.90346364252639 8.69873588754695  9.8132355182326 9.40868566367789  8.70471856262247 10.1025002176241  C 8.70471856262247 10.1025002176241  5.61440530555842 11.5506364087095  5.61440530555842 11.5506364087095  C 5.61440530555842 11.5506364087095  4.06763746052098 12.9866711831561  4.06763746052098 12.9866711831561  C 3.24269460983442 13.6441814871866  2.37263769700081 13.7490604313877  2.03750466390943 15.1165205115491  C 1.76359785801742 16.2338846478462  2.75610722524965 17.6094123391001  3.2298048777925 18.5049171703561  C 4.63800810337847 21.1833640530322  3.72283712839811 20.8404905816052  4.22231424502468 22.6234326330251  C 4.42854995769642 23.3535514368871  4.92802707432304 23.9868589076403  4.76046055777726 24.8016876279725  C 4.65734270144151 25.2978457101548  3.00101213404724 28.3796731474507  2.64976693590341 28.7628846743395  C 2.64976693590341 28.7628846743395  1.5154705162094 29.7955388941664  1.5154705162094 29.7955388941664  C 1.19000478214946 30.271527948618  1.03210556463512 31.2154384464284  0.893540945183986 31.8205092783583  C 0.655080902407349 32.8329944704541  0.0170391663293685 34.5110575776728  0.08793269256023 35.4509342699372  C 0.278056240179524 37.9720627363113  1.96983357068905 38.3472066521079  2.7754418233128 40.2148586199979  C 3.05901592823625 40.8764027295746  3.49082195164249 42.1309162544423  3.52626871475786 42.873136474943  C 3.55849304486287 43.6798975841828  3.27169650692889 44.6318756930855  3.42637329143258 45.2974536082084  C 3.5939398079783 46.0114371898856  4.12564125470988 46.4753248276984  4.49299861790621 47.4757086031557  Z " stroke-width="2.13294375456538" stroke="#ffffff" fill="none" transform="matrix(1 0 0 1 522 2301 )" mask="url(#clip34)" />
  </g>
</svg>