<?xml version="1.0" encoding="utf-8"?>
<svg version="1.1" xmlns:xlink="http://www.w3.org/1999/xlink" width="49px" height="86px" xmlns="http://www.w3.org/2000/svg">
  <defs>
    <mask fill="white" id="clip43">
      <path d="M 3.48282022769888 11.8261830105805  C 2.44100626706933 14.2692884552202  2.4310208297469 15.2024746332548  2.4310208297469 17.8338193498585  C 2.4310208297469 17.8338193498585  0.633642111727795 18.0741248034296  0.633642111727795 18.0741248034296  C 0.633642111727795 18.0741248034296  0.633642111727795 22.4036280586027  0.633642111727795 22.4036280586027  C 0.663598423694737 24.4542345957429  1.51901755430748 25.1310949566349  2.45099170439158 26.7291262228829  C 2.45099170439158 26.7291262228829  3.99207753113768 30.2896520266283  3.99207753113768 30.2896520266283  C 4.37152414938618 30.9064360241275  5.6263607728921 31.8876832928763  6.22548701223172 32.4964571085898  C 6.22548701223172 32.4964571085898  4.42810829421262 33.6939792855524  4.42810829421262 33.6939792855524  C 2.93362117497077 34.7473181903726  2.36112276849059 34.8915014625153  1.83189459040722 37.0622607264411  C 1.83189459040722 37.0622607264411  5.18367305160206 38.3398847212608  5.18367305160206 38.3398847212608  C 6.12896111811585 39.01273999126  6.61159058869504 41.5920185262567  6.62490450512485 42.8295916121479  C 6.64820385887697 45.0003508760738  6.97106633229896 47.5836345019633  5.0272345335523 48.7531210426761  C 4.14185909097245 49.2898032223182  3.34968106340102 48.620953043212  2.49426193278828 49.5541392212465  C 1.25939618392704 50.9078599430305  2.17805641758122 51.921147938922  1.82856611129984 53.0866293887419  C 1.3692359944726 54.6125690189186  0.0944284963220525 54.7687675637398  0.244210056157044 57.4121275530221  C 0.39732009509936 60.0194417242687  2.27458231169709 59.8632431794475  3.09005969302058 61.7416308081952  C 3.09005969302058 61.7416308081952  4.38816654492319 64.8615966137269  4.38816654492319 64.8615966137269  C 4.67108726905593 65.4343246114047  5.48323617127198 66.9522540597956  5.58641902360267 67.5049566030092  C 5.74618602075992 68.3700562358652  4.88743841103974 70.2123980465772  4.58787529136981 71.1135434974689  C 4.58787529136981 71.1135434974689  4.01204840578237 73.0359871260379  4.01204840578237 73.0359871260379  C 3.69251441146776 74.4858300292503  3.54938980984764 77.1051594731755  2.73058394941677 78.2706409229954  C 2.36112276849059 78.7993129208519  1.93507744273791 79.0075776472802  1.43247709751415 79.2839289188869  C 1.62220040663846 80.4974714594211  2.25461143705252 82.4960118149544  3.05011794373127 83.2970299935247  C 3.99540601024501 84.238226353345  4.97730734694068 83.6174372649529  6.02577826578511 83.9738903544167  C 6.02577826578511 83.9738903544167  7.42373949091115 84.6908016242373  7.42373949091115 84.6908016242373  C 7.42373949091115 84.6908016242373  9.22111820893019 84.967152895844  9.22111820893019 84.967152895844  C 9.22111820893019 84.967152895844  11.0184969269493 85.86028816495  11.0184969269493 85.86028816495  C 11.5543820632475 86.0325070733427  12.0769532831161 85.8162321651287  12.6161668985218 85.86028816495  C 14.3336621179623 85.8162321651287  14.5366993435163 86.7213827069131  15.4120893487739 84.3303434438805  C 15.4120893487739 84.3303434438805  16.8100505738998 85.7721761653072  16.8100505738998 85.7721761653072  C 17.1195991308919 85.4918198028076  17.4624324789586 85.235493985665  17.6454988298678 84.8029441692371  C 18.3045376931415 83.2409587210248  15.7848790088074 81.9473143626336  16.5770570363787 79.7645398260292  C 17.2593952534046 77.8901572881745  18.6640134367453 76.604523111569  19.4794908180689 74.9584307546068  C 20.3215960322518 73.248256943359  19.9521348513256 71.9425973122893  21.270212577873 69.4394155042568  C 22.0956753965189 67.8734249651516  23.6933453680914 67.8854402378301  24.6885606212168 66.8761573328314  C 25.4907240861105 66.0551136997968  26.2396318852851 63.4077486196216  27.9238423136512 62.1221144430161  C 27.9238423136512 62.1221144430161  30.9194735103497 61.1769129923031  30.9194735103497 61.1769129923031  C 31.395446022714 60.9766584476604  32.094426635277 60.6802817215894  32.4971726072775 60.3438540865898  C 33.3459347796755 59.6309479076621  34.710611213727 57.2639391899866  34.627399236041 55.9702948315955  C 34.5575011747846 54.8688948360611  33.4258182782542 51.9291581207077  32.4971726072775 51.5686999403511  C 31.8081774320369 51.30035885053  29.9974847975881 52.1133923017789  29.155379583405 52.1133923017789  C 28.3964863469081 52.1093872108861  26.8587289992695 50.8277581251734  26.3261723420786 50.1789334005313  C 25.081321155895 48.5328410435693  26.3827564869051 45.9375421450011  26.3261723420786 43.9510170621465  C 26.2462888435001 42.7174490671481  25.6271917295156 41.6320694351852  25.3276286098458 38.98470435501  C 23.5402353291491 38.9927145367957  22.5783048670981 39.6135036251878  21.7994407559565 41.6280643442923  C 21.7994407559565 41.6280643442923  19.8023532914908 40.5867407121509  19.8023532914908 40.5867407121509  C 19.8023532914908 40.5867407121509  17.6088855596861 40.5867407121509  17.6088855596861 40.5867407121509  C 17.6088855596861 40.5867407121509  14.2138368700944 39.9459261692945  14.2138368700944 39.9459261692945  C 14.2138368700944 38.6803174471532  14.1039970595487 35.980886185371  14.5133999897642 34.9075218260867  C 14.9694016274839 33.7260200126954  15.8314777163116 33.762065830731  16.2042673763452 33.1012258334104  C 16.4372609138662 32.6887014714467  16.4073046018992 32.0158462014475  16.4106330810066 31.5352352943053  C 16.413961560114 30.6661305705564  16.300793270461 28.6475647605589  16.6136703065607 27.9506789452027  C 17.0064308412389 27.0735640396681  18.4942610022658 26.076296407348  19.1532998655395 25.3113240468132  C 20.2883112411774 24.0016593248506  19.6625571689781 22.2033735139601  21.4000232630633 21.8909764243176  C 22.9477660480243 21.6186302436037  22.6681738029991 23.2406920552087  24.7285023705061 24.4382142321715  C 25.7503454564911 25.0309676843136  28.1135656227755 24.8066825943139  29.3218035387771 24.8066825943139  C 28.9589993160659 25.2552527743133  28.5662387813877 25.6998178634199  28.2933034945773 26.2485153157405  C 28.0902662690234 26.6610396777043  28.020368207767 26.9854520400254  27.9438131882959 27.4500425835962  C 27.4678406759315 30.3176876628783  29.2552339566284 30.1014127546642  30.7197647639031 31.0706447507345  C 31.3854605853917 31.5112047489482  32.1543392592109 32.3562789273399  32.7168522283688 32.977068015732  C 32.7168522283688 32.977068015732  31.3188910032429 33.2173734693032  31.3188910032429 33.2173734693032  C 31.3255479614576 35.7525960044784  31.4154168973585 36.1330796392994  32.5171434819222 38.2637879942967  C 32.5171434819222 38.2637879942967  34.3145221999414 37.7831770871544  34.3145221999414 37.7831770871544  C 34.484274634421 40.2783487134013  34.9069914810661 42.1807668875059  37.1104446501932 42.8616323392907  C 37.4599349564747 42.9697697933977  38.1689010063602 43.6105843362541  38.5084058753193 43.5665283364327  C 39.3471826103948 43.4583908823257  39.5735191897008 42.204797432863  40.7018736071241 41.8042883435779  C 41.7570014841834 41.4238047087569  42.7355743417715 41.6040337989352  43.6409206589959 40.6027610757222  C 45.2985032545025 38.7644243559032  44.3632006253112 37.8072076325115  44.8225307421383 35.8607334585854  C 45.3717297948662 33.5377807407313  46.8861877887526 31.515209839841  48.6902234649867 30.5740134800208  C 48.4272736154987 29.837076755736  47.9679434986716 28.5754731244876  47.5651975266711 27.970704399667  C 46.6099240228351 26.5368818600259  45.9641990759911 27.0615487669895  45.2951747753951 24.0337000519935  C 44.7992313883861 24.0857662336005  43.9571261742032 24.1178069607433  43.4977960573761 24.0337000519935  C 43.0251520241192 23.8454607800294  42.7289173835567 23.5971451446726  42.2995435786966 23.36885496378  C 41.2677150553893 22.8241626023521  39.7632424988253 22.1993684230672  39.7532570615028 20.4771793391409  C 39.7532570615028 19.8644004325345  40.3623687381648 18.9432295271785  40.5986907547934 18.3144302570008  C 40.9614949775046 17.3572135336092  41.3675694286126 15.7471669946827  41.5007085929103 14.7098484534339  C 39.024320136973 14.9421437252194  39.453693941833 14.5336244541485  38.1089883824261 14.5536499086127  C 37.1037876919784 14.5656651812913  36.131871792605 15.3226273600403  34.9469332303555 14.1251051830776  C 34.3744348238754 13.5483720945069  33.4957163395104 12.0304426461159  33.5023732977254 11.1052666498671  C 33.5123587350477 10.1640702900469  34.101499537065 9.18682811219099  33.9017907906184 7.98129575344257  C 33.4424606737913 5.21778303737466  31.77822112007 5.63030739933842  30.6498667026468 3.87207249737639  C 29.8044330093564 2.5543975936281  30.0141271931253 0.992412145415813  28.3232598065444 0.447719783987935  C 27.184919951799 0.0792514218455267  26.2096755733181 0.82820341880884  25.3276286098458 1.57715541577218  C 25.3276286098458 1.57715541577218  23.127503919826 3.08306959148456  23.127503919826 3.08306959148456  C 22.7214294687181 3.57569577130536  21.9392368784691 5.80252630773109  21.6896009454109 6.53946303201587  C 21.4399650123526 7.28440993808633  21.1204310180381 9.06667538540546  20.7010426505003 9.51925065629774  C 20.28498276207 9.96782083629716  19.7091558764824 9.85167320040441  19.2032270521511 10.0198870179042  C 18.3810927126127 10.3002433804039  17.7786379941655 11.0772310136172  17.1229276099994 11.0732259227243  C 16.3740198108247 11.0612106500458  15.6350974489724 10.1840957445112  14.6132543629874 10.7007524696891  C 13.917602229532 11.05320046826  12.1867930936618 12.8074302793293  11.6941781857602 13.5203364582569  C 11.3047461301892 14.0770440923633  10.7954888267506 15.3026019055761  10.2862315233119 15.5389022682543  C 9.98666840364206 15.735151722004  9.5240098077075 15.6149989952185  9.22111820893019 15.5389022682543  C 7.17743203696028 14.7338789987911  7.18741747428277 11.6739895566521  6.82128477246397 10.8729713780817  C 6.53170709011647 10.2361619261183  5.87932518505761 9.53527101986916  5.22694327999892 9.71550011004746  C 4.46805004350193 9.91975974558289  3.81899661755051 11.0451902864744  3.48282022769888 11.8261830105805  Z " fill-rule="evenodd" />
    </mask>
  </defs>
  <g transform="matrix(1 0 0 1 -512 -2141 )">
    <path d="M 3.48282022769888 11.8261830105805  C 2.44100626706933 14.2692884552202  2.4310208297469 15.2024746332548  2.4310208297469 17.8338193498585  C 2.4310208297469 17.8338193498585  0.633642111727795 18.0741248034296  0.633642111727795 18.0741248034296  C 0.633642111727795 18.0741248034296  0.633642111727795 22.4036280586027  0.633642111727795 22.4036280586027  C 0.663598423694737 24.4542345957429  1.51901755430748 25.1310949566349  2.45099170439158 26.7291262228829  C 2.45099170439158 26.7291262228829  3.99207753113768 30.2896520266283  3.99207753113768 30.2896520266283  C 4.37152414938618 30.9064360241275  5.6263607728921 31.8876832928763  6.22548701223172 32.4964571085898  C 6.22548701223172 32.4964571085898  4.42810829421262 33.6939792855524  4.42810829421262 33.6939792855524  C 2.93362117497077 34.7473181903726  2.36112276849059 34.8915014625153  1.83189459040722 37.0622607264411  C 1.83189459040722 37.0622607264411  5.18367305160206 38.3398847212608  5.18367305160206 38.3398847212608  C 6.12896111811585 39.01273999126  6.61159058869504 41.5920185262567  6.62490450512485 42.8295916121479  C 6.64820385887697 45.0003508760738  6.97106633229896 47.5836345019633  5.0272345335523 48.7531210426761  C 4.14185909097245 49.2898032223182  3.34968106340102 48.620953043212  2.49426193278828 49.5541392212465  C 1.25939618392704 50.9078599430305  2.17805641758122 51.921147938922  1.82856611129984 53.0866293887419  C 1.3692359944726 54.6125690189186  0.0944284963220525 54.7687675637398  0.244210056157044 57.4121275530221  C 0.39732009509936 60.0194417242687  2.27458231169709 59.8632431794475  3.09005969302058 61.7416308081952  C 3.09005969302058 61.7416308081952  4.38816654492319 64.8615966137269  4.38816654492319 64.8615966137269  C 4.67108726905593 65.4343246114047  5.48323617127198 66.9522540597956  5.58641902360267 67.5049566030092  C 5.74618602075992 68.3700562358652  4.88743841103974 70.2123980465772  4.58787529136981 71.1135434974689  C 4.58787529136981 71.1135434974689  4.01204840578237 73.0359871260379  4.01204840578237 73.0359871260379  C 3.69251441146776 74.4858300292503  3.54938980984764 77.1051594731755  2.73058394941677 78.2706409229954  C 2.36112276849059 78.7993129208519  1.93507744273791 79.0075776472802  1.43247709751415 79.2839289188869  C 1.62220040663846 80.4974714594211  2.25461143705252 82.4960118149544  3.05011794373127 83.2970299935247  C 3.99540601024501 84.238226353345  4.97730734694068 83.6174372649529  6.02577826578511 83.9738903544167  C 6.02577826578511 83.9738903544167  7.42373949091115 84.6908016242373  7.42373949091115 84.6908016242373  C 7.42373949091115 84.6908016242373  9.22111820893019 84.967152895844  9.22111820893019 84.967152895844  C 9.22111820893019 84.967152895844  11.0184969269493 85.86028816495  11.0184969269493 85.86028816495  C 11.5543820632475 86.0325070733427  12.0769532831161 85.8162321651287  12.6161668985218 85.86028816495  C 14.3336621179623 85.8162321651287  14.5366993435163 86.7213827069131  15.4120893487739 84.3303434438805  C 15.4120893487739 84.3303434438805  16.8100505738998 85.7721761653072  16.8100505738998 85.7721761653072  C 17.1195991308919 85.4918198028076  17.4624324789586 85.235493985665  17.6454988298678 84.8029441692371  C 18.3045376931415 83.2409587210248  15.7848790088074 81.9473143626336  16.5770570363787 79.7645398260292  C 17.2593952534046 77.8901572881745  18.6640134367453 76.604523111569  19.4794908180689 74.9584307546068  C 20.3215960322518 73.248256943359  19.9521348513256 71.9425973122893  21.270212577873 69.4394155042568  C 22.0956753965189 67.8734249651516  23.6933453680914 67.8854402378301  24.6885606212168 66.8761573328314  C 25.4907240861105 66.0551136997968  26.2396318852851 63.4077486196216  27.9238423136512 62.1221144430161  C 27.9238423136512 62.1221144430161  30.9194735103497 61.1769129923031  30.9194735103497 61.1769129923031  C 31.395446022714 60.9766584476604  32.094426635277 60.6802817215894  32.4971726072775 60.3438540865898  C 33.3459347796755 59.6309479076621  34.710611213727 57.2639391899866  34.627399236041 55.9702948315955  C 34.5575011747846 54.8688948360611  33.4258182782542 51.9291581207077  32.4971726072775 51.5686999403511  C 31.8081774320369 51.30035885053  29.9974847975881 52.1133923017789  29.155379583405 52.1133923017789  C 28.3964863469081 52.1093872108861  26.8587289992695 50.8277581251734  26.3261723420786 50.1789334005313  C 25.081321155895 48.5328410435693  26.3827564869051 45.9375421450011  26.3261723420786 43.9510170621465  C 26.2462888435001 42.7174490671481  25.6271917295156 41.6320694351852  25.3276286098458 38.98470435501  C 23.5402353291491 38.9927145367957  22.5783048670981 39.6135036251878  21.7994407559565 41.6280643442923  C 21.7994407559565 41.6280643442923  19.8023532914908 40.5867407121509  19.8023532914908 40.5867407121509  C 19.8023532914908 40.5867407121509  17.6088855596861 40.5867407121509  17.6088855596861 40.5867407121509  C 17.6088855596861 40.5867407121509  14.2138368700944 39.9459261692945  14.2138368700944 39.9459261692945  C 14.2138368700944 38.6803174471532  14.1039970595487 35.980886185371  14.5133999897642 34.9075218260867  C 14.9694016274839 33.7260200126954  15.8314777163116 33.762065830731  16.2042673763452 33.1012258334104  C 16.4372609138662 32.6887014714467  16.4073046018992 32.0158462014475  16.4106330810066 31.5352352943053  C 16.413961560114 30.6661305705564  16.300793270461 28.6475647605589  16.6136703065607 27.9506789452027  C 17.0064308412389 27.0735640396681  18.4942610022658 26.076296407348  19.1532998655395 25.3113240468132  C 20.2883112411774 24.0016593248506  19.6625571689781 22.2033735139601  21.4000232630633 21.8909764243176  C 22.9477660480243 21.6186302436037  22.6681738029991 23.2406920552087  24.7285023705061 24.4382142321715  C 25.7503454564911 25.0309676843136  28.1135656227755 24.8066825943139  29.3218035387771 24.8066825943139  C 28.9589993160659 25.2552527743133  28.5662387813877 25.6998178634199  28.2933034945773 26.2485153157405  C 28.0902662690234 26.6610396777043  28.020368207767 26.9854520400254  27.9438131882959 27.4500425835962  C 27.4678406759315 30.3176876628783  29.2552339566284 30.1014127546642  30.7197647639031 31.0706447507345  C 31.3854605853917 31.5112047489482  32.1543392592109 32.3562789273399  32.7168522283688 32.977068015732  C 32.7168522283688 32.977068015732  31.3188910032429 33.2173734693032  31.3188910032429 33.2173734693032  C 31.3255479614576 35.7525960044784  31.4154168973585 36.1330796392994  32.5171434819222 38.2637879942967  C 32.5171434819222 38.2637879942967  34.3145221999414 37.7831770871544  34.3145221999414 37.7831770871544  C 34.484274634421 40.2783487134013  34.9069914810661 42.1807668875059  37.1104446501932 42.8616323392907  C 37.4599349564747 42.9697697933977  38.1689010063602 43.6105843362541  38.5084058753193 43.5665283364327  C 39.3471826103948 43.4583908823257  39.5735191897008 42.204797432863  40.7018736071241 41.8042883435779  C 41.7570014841834 41.4238047087569  42.7355743417715 41.6040337989352  43.6409206589959 40.6027610757222  C 45.2985032545025 38.7644243559032  44.3632006253112 37.8072076325115  44.8225307421383 35.8607334585854  C 45.3717297948662 33.5377807407313  46.8861877887526 31.515209839841  48.6902234649867 30.5740134800208  C 48.4272736154987 29.837076755736  47.9679434986716 28.5754731244876  47.5651975266711 27.970704399667  C 46.6099240228351 26.5368818600259  45.9641990759911 27.0615487669895  45.2951747753951 24.0337000519935  C 44.7992313883861 24.0857662336005  43.9571261742032 24.1178069607433  43.4977960573761 24.0337000519935  C 43.0251520241192 23.8454607800294  42.7289173835567 23.5971451446726  42.2995435786966 23.36885496378  C 41.2677150553893 22.8241626023521  39.7632424988253 22.1993684230672  39.7532570615028 20.4771793391409  C 39.7532570615028 19.8644004325345  40.3623687381648 18.9432295271785  40.5986907547934 18.3144302570008  C 40.9614949775046 17.3572135336092  41.3675694286126 15.7471669946827  41.5007085929103 14.7098484534339  C 39.024320136973 14.9421437252194  39.453693941833 14.5336244541485  38.1089883824261 14.5536499086127  C 37.1037876919784 14.5656651812913  36.131871792605 15.3226273600403  34.9469332303555 14.1251051830776  C 34.3744348238754 13.5483720945069  33.4957163395104 12.0304426461159  33.5023732977254 11.1052666498671  C 33.5123587350477 10.1640702900469  34.101499537065 9.18682811219099  33.9017907906184 7.98129575344257  C 33.4424606737913 5.21778303737466  31.77822112007 5.63030739933842  30.6498667026468 3.87207249737639  C 29.8044330093564 2.5543975936281  30.0141271931253 0.992412145415813  28.3232598065444 0.447719783987935  C 27.184919951799 0.0792514218455267  26.2096755733181 0.82820341880884  25.3276286098458 1.57715541577218  C 25.3276286098458 1.57715541577218  23.127503919826 3.08306959148456  23.127503919826 3.08306959148456  C 22.7214294687181 3.57569577130536  21.9392368784691 5.80252630773109  21.6896009454109 6.53946303201587  C 21.4399650123526 7.28440993808633  21.1204310180381 9.06667538540546  20.7010426505003 9.51925065629774  C 20.28498276207 9.96782083629716  19.7091558764824 9.85167320040441  19.2032270521511 10.0198870179042  C 18.3810927126127 10.3002433804039  17.7786379941655 11.0772310136172  17.1229276099994 11.0732259227243  C 16.3740198108247 11.0612106500458  15.6350974489724 10.1840957445112  14.6132543629874 10.7007524696891  C 13.917602229532 11.05320046826  12.1867930936618 12.8074302793293  11.6941781857602 13.5203364582569  C 11.3047461301892 14.0770440923633  10.7954888267506 15.3026019055761  10.2862315233119 15.5389022682543  C 9.98666840364206 15.735151722004  9.5240098077075 15.6149989952185  9.22111820893019 15.5389022682543  C 7.17743203696028 14.7338789987911  7.18741747428277 11.6739895566521  6.82128477246397 10.8729713780817  C 6.53170709011647 10.2361619261183  5.87932518505761 9.53527101986916  5.22694327999892 9.71550011004746  C 4.46805004350193 9.91975974558289  3.81899661755051 11.0451902864744  3.48282022769888 11.8261830105805  Z " fill-rule="nonzero" fill="#3c6fdc" stroke="none" transform="matrix(1 0 0 1 512 2141 )" />
    <path d="M 3.48282022769888 11.8261830105805  C 2.44100626706933 14.2692884552202  2.4310208297469 15.2024746332548  2.4310208297469 17.8338193498585  C 2.4310208297469 17.8338193498585  0.633642111727795 18.0741248034296  0.633642111727795 18.0741248034296  C 0.633642111727795 18.0741248034296  0.633642111727795 22.4036280586027  0.633642111727795 22.4036280586027  C 0.663598423694737 24.4542345957429  1.51901755430748 25.1310949566349  2.45099170439158 26.7291262228829  C 2.45099170439158 26.7291262228829  3.99207753113768 30.2896520266283  3.99207753113768 30.2896520266283  C 4.37152414938618 30.9064360241275  5.6263607728921 31.8876832928763  6.22548701223172 32.4964571085898  C 6.22548701223172 32.4964571085898  4.42810829421262 33.6939792855524  4.42810829421262 33.6939792855524  C 2.93362117497077 34.7473181903726  2.36112276849059 34.8915014625153  1.83189459040722 37.0622607264411  C 1.83189459040722 37.0622607264411  5.18367305160206 38.3398847212608  5.18367305160206 38.3398847212608  C 6.12896111811585 39.01273999126  6.61159058869504 41.5920185262567  6.62490450512485 42.8295916121479  C 6.64820385887697 45.0003508760738  6.97106633229896 47.5836345019633  5.0272345335523 48.7531210426761  C 4.14185909097245 49.2898032223182  3.34968106340102 48.620953043212  2.49426193278828 49.5541392212465  C 1.25939618392704 50.9078599430305  2.17805641758122 51.921147938922  1.82856611129984 53.0866293887419  C 1.3692359944726 54.6125690189186  0.0944284963220525 54.7687675637398  0.244210056157044 57.4121275530221  C 0.39732009509936 60.0194417242687  2.27458231169709 59.8632431794475  3.09005969302058 61.7416308081952  C 3.09005969302058 61.7416308081952  4.38816654492319 64.8615966137269  4.38816654492319 64.8615966137269  C 4.67108726905593 65.4343246114047  5.48323617127198 66.9522540597956  5.58641902360267 67.5049566030092  C 5.74618602075992 68.3700562358652  4.88743841103974 70.2123980465772  4.58787529136981 71.1135434974689  C 4.58787529136981 71.1135434974689  4.01204840578237 73.0359871260379  4.01204840578237 73.0359871260379  C 3.69251441146776 74.4858300292503  3.54938980984764 77.1051594731755  2.73058394941677 78.2706409229954  C 2.36112276849059 78.7993129208519  1.93507744273791 79.0075776472802  1.43247709751415 79.2839289188869  C 1.62220040663846 80.4974714594211  2.25461143705252 82.4960118149544  3.05011794373127 83.2970299935247  C 3.99540601024501 84.238226353345  4.97730734694068 83.6174372649529  6.02577826578511 83.9738903544167  C 6.02577826578511 83.9738903544167  7.42373949091115 84.6908016242373  7.42373949091115 84.6908016242373  C 7.42373949091115 84.6908016242373  9.22111820893019 84.967152895844  9.22111820893019 84.967152895844  C 9.22111820893019 84.967152895844  11.0184969269493 85.86028816495  11.0184969269493 85.86028816495  C 11.5543820632475 86.0325070733427  12.0769532831161 85.8162321651287  12.6161668985218 85.86028816495  C 14.3336621179623 85.8162321651287  14.5366993435163 86.7213827069131  15.4120893487739 84.3303434438805  C 15.4120893487739 84.3303434438805  16.8100505738998 85.7721761653072  16.8100505738998 85.7721761653072  C 17.1195991308919 85.4918198028076  17.4624324789586 85.235493985665  17.6454988298678 84.8029441692371  C 18.3045376931415 83.2409587210248  15.7848790088074 81.9473143626336  16.5770570363787 79.7645398260292  C 17.2593952534046 77.8901572881745  18.6640134367453 76.604523111569  19.4794908180689 74.9584307546068  C 20.3215960322518 73.248256943359  19.9521348513256 71.9425973122893  21.270212577873 69.4394155042568  C 22.0956753965189 67.8734249651516  23.6933453680914 67.8854402378301  24.6885606212168 66.8761573328314  C 25.4907240861105 66.0551136997968  26.2396318852851 63.4077486196216  27.9238423136512 62.1221144430161  C 27.9238423136512 62.1221144430161  30.9194735103497 61.1769129923031  30.9194735103497 61.1769129923031  C 31.395446022714 60.9766584476604  32.094426635277 60.6802817215894  32.4971726072775 60.3438540865898  C 33.3459347796755 59.6309479076621  34.710611213727 57.2639391899866  34.627399236041 55.9702948315955  C 34.5575011747846 54.8688948360611  33.4258182782542 51.9291581207077  32.4971726072775 51.5686999403511  C 31.8081774320369 51.30035885053  29.9974847975881 52.1133923017789  29.155379583405 52.1133923017789  C 28.3964863469081 52.1093872108861  26.8587289992695 50.8277581251734  26.3261723420786 50.1789334005313  C 25.081321155895 48.5328410435693  26.3827564869051 45.9375421450011  26.3261723420786 43.9510170621465  C 26.2462888435001 42.7174490671481  25.6271917295156 41.6320694351852  25.3276286098458 38.98470435501  C 23.5402353291491 38.9927145367957  22.5783048670981 39.6135036251878  21.7994407559565 41.6280643442923  C 21.7994407559565 41.6280643442923  19.8023532914908 40.5867407121509  19.8023532914908 40.5867407121509  C 19.8023532914908 40.5867407121509  17.6088855596861 40.5867407121509  17.6088855596861 40.5867407121509  C 17.6088855596861 40.5867407121509  14.2138368700944 39.9459261692945  14.2138368700944 39.9459261692945  C 14.2138368700944 38.6803174471532  14.1039970595487 35.980886185371  14.5133999897642 34.9075218260867  C 14.9694016274839 33.7260200126954  15.8314777163116 33.762065830731  16.2042673763452 33.1012258334104  C 16.4372609138662 32.6887014714467  16.4073046018992 32.0158462014475  16.4106330810066 31.5352352943053  C 16.413961560114 30.6661305705564  16.300793270461 28.6475647605589  16.6136703065607 27.9506789452027  C 17.0064308412389 27.0735640396681  18.4942610022658 26.076296407348  19.1532998655395 25.3113240468132  C 20.2883112411774 24.0016593248506  19.6625571689781 22.2033735139601  21.4000232630633 21.8909764243176  C 22.9477660480243 21.6186302436037  22.6681738029991 23.2406920552087  24.7285023705061 24.4382142321715  C 25.7503454564911 25.0309676843136  28.1135656227755 24.8066825943139  29.3218035387771 24.8066825943139  C 28.9589993160659 25.2552527743133  28.5662387813877 25.6998178634199  28.2933034945773 26.2485153157405  C 28.0902662690234 26.6610396777043  28.020368207767 26.9854520400254  27.9438131882959 27.4500425835962  C 27.4678406759315 30.3176876628783  29.2552339566284 30.1014127546642  30.7197647639031 31.0706447507345  C 31.3854605853917 31.5112047489482  32.1543392592109 32.3562789273399  32.7168522283688 32.977068015732  C 32.7168522283688 32.977068015732  31.3188910032429 33.2173734693032  31.3188910032429 33.2173734693032  C 31.3255479614576 35.7525960044784  31.4154168973585 36.1330796392994  32.5171434819222 38.2637879942967  C 32.5171434819222 38.2637879942967  34.3145221999414 37.7831770871544  34.3145221999414 37.7831770871544  C 34.484274634421 40.2783487134013  34.9069914810661 42.1807668875059  37.1104446501932 42.8616323392907  C 37.4599349564747 42.9697697933977  38.1689010063602 43.6105843362541  38.5084058753193 43.5665283364327  C 39.3471826103948 43.4583908823257  39.5735191897008 42.204797432863  40.7018736071241 41.8042883435779  C 41.7570014841834 41.4238047087569  42.7355743417715 41.6040337989352  43.6409206589959 40.6027610757222  C 45.2985032545025 38.7644243559032  44.3632006253112 37.8072076325115  44.8225307421383 35.8607334585854  C 45.3717297948662 33.5377807407313  46.8861877887526 31.515209839841  48.6902234649867 30.5740134800208  C 48.4272736154987 29.837076755736  47.9679434986716 28.5754731244876  47.5651975266711 27.970704399667  C 46.6099240228351 26.5368818600259  45.9641990759911 27.0615487669895  45.2951747753951 24.0337000519935  C 44.7992313883861 24.0857662336005  43.9571261742032 24.1178069607433  43.4977960573761 24.0337000519935  C 43.0251520241192 23.8454607800294  42.7289173835567 23.5971451446726  42.2995435786966 23.36885496378  C 41.2677150553893 22.8241626023521  39.7632424988253 22.1993684230672  39.7532570615028 20.4771793391409  C 39.7532570615028 19.8644004325345  40.3623687381648 18.9432295271785  40.5986907547934 18.3144302570008  C 40.9614949775046 17.3572135336092  41.3675694286126 15.7471669946827  41.5007085929103 14.7098484534339  C 39.024320136973 14.9421437252194  39.453693941833 14.5336244541485  38.1089883824261 14.5536499086127  C 37.1037876919784 14.5656651812913  36.131871792605 15.3226273600403  34.9469332303555 14.1251051830776  C 34.3744348238754 13.5483720945069  33.4957163395104 12.0304426461159  33.5023732977254 11.1052666498671  C 33.5123587350477 10.1640702900469  34.101499537065 9.18682811219099  33.9017907906184 7.98129575344257  C 33.4424606737913 5.21778303737466  31.77822112007 5.63030739933842  30.6498667026468 3.87207249737639  C 29.8044330093564 2.5543975936281  30.0141271931253 0.992412145415813  28.3232598065444 0.447719783987935  C 27.184919951799 0.0792514218455267  26.2096755733181 0.82820341880884  25.3276286098458 1.57715541577218  C 25.3276286098458 1.57715541577218  23.127503919826 3.08306959148456  23.127503919826 3.08306959148456  C 22.7214294687181 3.57569577130536  21.9392368784691 5.80252630773109  21.6896009454109 6.53946303201587  C 21.4399650123526 7.28440993808633  21.1204310180381 9.06667538540546  20.7010426505003 9.51925065629774  C 20.28498276207 9.96782083629716  19.7091558764824 9.85167320040441  19.2032270521511 10.0198870179042  C 18.3810927126127 10.3002433804039  17.7786379941655 11.0772310136172  17.1229276099994 11.0732259227243  C 16.3740198108247 11.0612106500458  15.6350974489724 10.1840957445112  14.6132543629874 10.7007524696891  C 13.917602229532 11.05320046826  12.1867930936618 12.8074302793293  11.6941781857602 13.5203364582569  C 11.3047461301892 14.0770440923633  10.7954888267506 15.3026019055761  10.2862315233119 15.5389022682543  C 9.98666840364206 15.735151722004  9.5240098077075 15.6149989952185  9.22111820893019 15.5389022682543  C 7.17743203696028 14.7338789987911  7.18741747428277 11.6739895566521  6.82128477246397 10.8729713780817  C 6.53170709011647 10.2361619261183  5.87932518505761 9.53527101986916  5.22694327999892 9.71550011004746  C 4.46805004350193 9.91975974558289  3.81899661755051 11.0451902864744  3.48282022769888 11.8261830105805  Z " stroke-width="2.13294375456538" stroke="#ffffff" fill="none" transform="matrix(1 0 0 1 512 2141 )" mask="url(#clip43)" />
  </g>
</svg>