<?xml version="1.0" encoding="utf-8"?>
<svg version="1.1" xmlns:xlink="http://www.w3.org/1999/xlink" width="53px" height="61px" xmlns="http://www.w3.org/2000/svg">
  <defs>
    <mask fill="white" id="clip68">
      <path d="M 28.8018054611399 0.435615910751039  C 28.2757820779692 0.254251056953677  26.544152307283 0.313391770148513  25.9266465966044 0.313391770148513  C 25.9266465966044 3.15214600349731  26.1945591271634 7.35507935453873  24.8092553106144 9.77590588131125  C 24.4825327123718 10.351542156407  22.9175314667893 12.0232529827124  22.3980425355836 12.5791756867432  C 21.7707351469575 13.2494371029505  20.8101707081241 14.156261371937  20.0489070542187 14.5623609358745  C 17.9840202333251 15.6505500586581  15.9027972825193 14.909319786617  14.592639663566 15.9147119109281  C 14.0078062127116 16.3641813312083  13.7823676199242 17.0896407463975  13.1550602312983 17.5115111671869  C 12.570226780444 17.9057825884853  12.0180655894138 17.7480740199658  11.2273969016665 18.4183354361732  C 10.3387114344465 19.1674511366403  9.80288637332842 20.2911246873409  8.28689351748244 21.2058343847533  C 7.11395938979121 21.9115802288775  6.63367717037465 21.3674856674857  5.73845725118963 21.8287832304048  C 5.73845725118963 21.8287832304048  3.77812166173362 23.3151864887  3.77812166173362 23.3151864887  C 2.63459256788423 24.056416760741  1.33423662687841 24.4664590388914  0.0567512677495188 24.6833083206056  C 0.0567512677495188 25.7084140159815  0.105759657485919 28.1016415432631  0.563171295025654 28.9217260995639  C 0.929100605057442 29.5722739447064  1.61521806136716 30.3884157867942  2.04322466506494 31.2321566283728  C 2.57251527421812 32.2809186090267  2.25559435392267 33.22322730593  2.85349670870681 34.5440365672798  C 3.63763094448916 36.2788308209929  4.81709952414531 37.012175664608  5.22876999793107 37.6903225092414  C 6.01290423371341 38.9756473426743  4.94452133745995 40.3950244593487  6.15992940292267 42.3506107089891  C 6.15992940292267 42.3506107089891  9.02855381549335 46.1356163534541  9.02855381549335 46.1356163534541  C 9.48596545303315 46.7782787701706  10.0773333558523 48.1464006020761  10.51840886348 48.5091303096708  C 10.51840886348 48.5091303096708  12.991698932177 49.4553817207871  12.991698932177 49.4553817207871  C 12.991698932177 49.4553817207871  15.932202316361 51.1862332602873  15.932202316361 51.1862332602873  C 16.6607937104421 51.4543378267703  18.3956907071108 51.3045146866768  19.2647728184364 51.3518272572326  C 19.2647728184364 51.3518272572326  21.2218411819098 51.6514735374194  21.2218411819098 51.6514735374194  C 22.2085434286028 51.5647338247338  23.4729598838019 50.236039134958  24.7177729831066 50.1926692786152  C 25.6064584503265 50.1611275649113  26.4036615900387 51.3124001151028  27.2335369895751 51.5371348252428  C 27.9163872199022 51.7224423932531  29.3506994261876 50.7880191247758  29.9780068148135 50.3937477034774  C 29.9780068148135 50.3937477034774  29.9780068148135 52.526756092702  29.9780068148135 52.526756092702  C 30.0008773966906 54.0407583504881  30.8960973158755 56.3787878787879  32.1343759632152 56.9938512960135  C 32.7126749621046 57.2540704340704  33.1504832437499 56.851913584346  33.8986779937256 56.9938512960135  C 33.8986779937256 56.9938512960135  35.4669464652904 57.6168001416649  35.4669464652904 57.6168001416649  C 35.9962370744436 57.7074825685636  37.3880753429573 57.356581003608  38.0153827315833 57.2580131482833  C 38.0153827315833 57.2580131482833  38.0153827315833 60.0967673816322  38.0153827315833 60.0967673816322  C 38.0153827315833 60.0967673816322  40.5605517718936 60.2268769506607  40.5605517718936 60.2268769506607  C 40.5605517718936 60.2268769506607  43.3050215971322 59.7655793877416  43.3050215971322 59.7655793877416  C 43.3050215971322 59.7655793877416  44.873290068697 60.8064559399694  44.873290068697 60.8064559399694  C 45.3078311243598 59.1032033999601  45.5528730730417 57.849420280231  46.8532290140476 56.6666060163357  C 47.591622086076 55.9924018859153  48.2156622487195 56.2131938818425  48.6142638185755 55.5271616087832  C 49.2611745630961 54.3285764880359  48.8560385412752 51.2769156871859  48.6142638185755 49.9206219979193  C 48.5587209768744 49.4356681497222  48.4378336155245 48.5130730238839  48.2091277967547 48.1266870310113  C 47.4805364026736 46.9044456249861  45.0758580796074 47.1094667640613  43.893122273969 46.8650184828563  C 43.3540299868686 46.7546224848927  42.6613780785941 46.667882772207  42.331388254369 46.0646474976204  C 42.0700101757749 45.5875790778493  41.9589244923724 43.9119255373309  41.9327866845129 43.2968621201053  C 39.6065217850251 42.6581424176019  39.7927536660235 42.2954127100073  38.7995169673657 39.9849821811983  C 40.0508645186352 39.9849821811983  42.0732774017573 39.9692113243464  42.4882151015255 38.053052216836  C 42.6287058187699 37.2329676605352  42.1876303111422 36.4799092458551  42.4882151015255 35.4902879783961  C 42.9325578351355 34.1970777165371  43.6840198110937 33.7791500099608  43.6970887150233 30.1281966487372  C 43.7003559410058 29.5446749452155  43.6382786473397 28.5826526772473  43.8996567259338 28.0898134006242  C 44.5400330184896 26.875457423025  45.9514746428978 26.851801137747  46.8172895282408 27.6442866945569  C 46.8172895282408 27.6442866945569  49.382061924446 30.9955937755937  49.382061924446 30.9955937755937  C 49.382061924446 30.9955937755937  52.7146324265212 27.9951882595125  52.7146324265212 27.9951882595125  C 52.7146324265212 27.9951882595125  51.5972411405312 24.833131460699  51.5972411405312 24.833131460699  C 51.5972411405312 24.833131460699  49.0488048742384 22.6843522146225  49.0488048742384 22.6843522146225  C 49.0488048742384 22.6843522146225  47.7876556450216 20.2635256878499  47.7876556450216 20.2635256878499  C 47.7876556450216 20.2635256878499  44.873290068697 20.6104845385926  44.873290068697 20.6104845385926  C 44.873290068697 20.6104845385926  42.1288202434586 20.6104845385926  42.1288202434586 20.6104845385926  C 41.8903127467413 18.7731797153419  41.2564709061506 16.8925050357482  39.5836512031482 16.2892697611616  C 39.0478261420301 16.0960767647254  36.9404653833649 16.1670456205591  36.2510807010729 16.1670456205591  C 36.5287949095791 15.161653496248  37.2769896595549 12.1849042654447  37.760539104954 11.5028147065985  C 38.427053205369 10.5486778670562  39.0151538822058 11.116428713726  39.9855199989865 9.53540031431925  C 40.8578693362946 8.12390862607077  40.7239130710151 6.96869336166631  41.4296338832193 6.08552537795782  C 42.4098016779473 4.85145582929363  43.9813373754946 5.05647696836886  44.6772565097514 2.20589459238101  C 42.6352402707347 2.72633286849498  42.6156369148401 3.69229785067623  41.5407195666216 3.74355313544501  C 41.0212306354158 3.76720942072294  40.3318459531238 3.56218828164774  40.1717518799849 2.88404143701436  C 40.1717518799849 2.88404143701436  40.1717518799849 1.25964318126475  40.1717518799849 1.25964318126475  C 40.1717518799849 1.25964318126475  39.3876176442025 2.20589459238101  39.3876176442025 2.20589459238101  C 39.3876176442025 2.20589459238101  37.8193491726377 0.786517475706631  37.8193491726377 0.786517475706631  C 36.8914569936285 3.20340128826612  36.4177092261766 2.09944130863047  34.6828122295081 2.24926444872389  C 32.6898043802278 2.41485844566918  33.4510680341332 1.96144631117602  31.9383424042695 1.41340903557116  C 31.9383424042695 1.41340903557116  30.3700739327048 1.19655975385709  30.3700739327048 1.19655975385709  C 29.7068270582722 1.03490847112465  29.3866389119943 0.632751621400246  28.8018054611399 0.435615910751039  Z " fill-rule="evenodd" />
    </mask>
  </defs>
  <g transform="matrix(1 0 0 1 -489 -2225 )">
    <path d="M 28.8018054611399 0.435615910751039  C 28.2757820779692 0.254251056953677  26.544152307283 0.313391770148513  25.9266465966044 0.313391770148513  C 25.9266465966044 3.15214600349731  26.1945591271634 7.35507935453873  24.8092553106144 9.77590588131125  C 24.4825327123718 10.351542156407  22.9175314667893 12.0232529827124  22.3980425355836 12.5791756867432  C 21.7707351469575 13.2494371029505  20.8101707081241 14.156261371937  20.0489070542187 14.5623609358745  C 17.9840202333251 15.6505500586581  15.9027972825193 14.909319786617  14.592639663566 15.9147119109281  C 14.0078062127116 16.3641813312083  13.7823676199242 17.0896407463975  13.1550602312983 17.5115111671869  C 12.570226780444 17.9057825884853  12.0180655894138 17.7480740199658  11.2273969016665 18.4183354361732  C 10.3387114344465 19.1674511366403  9.80288637332842 20.2911246873409  8.28689351748244 21.2058343847533  C 7.11395938979121 21.9115802288775  6.63367717037465 21.3674856674857  5.73845725118963 21.8287832304048  C 5.73845725118963 21.8287832304048  3.77812166173362 23.3151864887  3.77812166173362 23.3151864887  C 2.63459256788423 24.056416760741  1.33423662687841 24.4664590388914  0.0567512677495188 24.6833083206056  C 0.0567512677495188 25.7084140159815  0.105759657485919 28.1016415432631  0.563171295025654 28.9217260995639  C 0.929100605057442 29.5722739447064  1.61521806136716 30.3884157867942  2.04322466506494 31.2321566283728  C 2.57251527421812 32.2809186090267  2.25559435392267 33.22322730593  2.85349670870681 34.5440365672798  C 3.63763094448916 36.2788308209929  4.81709952414531 37.012175664608  5.22876999793107 37.6903225092414  C 6.01290423371341 38.9756473426743  4.94452133745995 40.3950244593487  6.15992940292267 42.3506107089891  C 6.15992940292267 42.3506107089891  9.02855381549335 46.1356163534541  9.02855381549335 46.1356163534541  C 9.48596545303315 46.7782787701706  10.0773333558523 48.1464006020761  10.51840886348 48.5091303096708  C 10.51840886348 48.5091303096708  12.991698932177 49.4553817207871  12.991698932177 49.4553817207871  C 12.991698932177 49.4553817207871  15.932202316361 51.1862332602873  15.932202316361 51.1862332602873  C 16.6607937104421 51.4543378267703  18.3956907071108 51.3045146866768  19.2647728184364 51.3518272572326  C 19.2647728184364 51.3518272572326  21.2218411819098 51.6514735374194  21.2218411819098 51.6514735374194  C 22.2085434286028 51.5647338247338  23.4729598838019 50.236039134958  24.7177729831066 50.1926692786152  C 25.6064584503265 50.1611275649113  26.4036615900387 51.3124001151028  27.2335369895751 51.5371348252428  C 27.9163872199022 51.7224423932531  29.3506994261876 50.7880191247758  29.9780068148135 50.3937477034774  C 29.9780068148135 50.3937477034774  29.9780068148135 52.526756092702  29.9780068148135 52.526756092702  C 30.0008773966906 54.0407583504881  30.8960973158755 56.3787878787879  32.1343759632152 56.9938512960135  C 32.7126749621046 57.2540704340704  33.1504832437499 56.851913584346  33.8986779937256 56.9938512960135  C 33.8986779937256 56.9938512960135  35.4669464652904 57.6168001416649  35.4669464652904 57.6168001416649  C 35.9962370744436 57.7074825685636  37.3880753429573 57.356581003608  38.0153827315833 57.2580131482833  C 38.0153827315833 57.2580131482833  38.0153827315833 60.0967673816322  38.0153827315833 60.0967673816322  C 38.0153827315833 60.0967673816322  40.5605517718936 60.2268769506607  40.5605517718936 60.2268769506607  C 40.5605517718936 60.2268769506607  43.3050215971322 59.7655793877416  43.3050215971322 59.7655793877416  C 43.3050215971322 59.7655793877416  44.873290068697 60.8064559399694  44.873290068697 60.8064559399694  C 45.3078311243598 59.1032033999601  45.5528730730417 57.849420280231  46.8532290140476 56.6666060163357  C 47.591622086076 55.9924018859153  48.2156622487195 56.2131938818425  48.6142638185755 55.5271616087832  C 49.2611745630961 54.3285764880359  48.8560385412752 51.2769156871859  48.6142638185755 49.9206219979193  C 48.5587209768744 49.4356681497222  48.4378336155245 48.5130730238839  48.2091277967547 48.1266870310113  C 47.4805364026736 46.9044456249861  45.0758580796074 47.1094667640613  43.893122273969 46.8650184828563  C 43.3540299868686 46.7546224848927  42.6613780785941 46.667882772207  42.331388254369 46.0646474976204  C 42.0700101757749 45.5875790778493  41.9589244923724 43.9119255373309  41.9327866845129 43.2968621201053  C 39.6065217850251 42.6581424176019  39.7927536660235 42.2954127100073  38.7995169673657 39.9849821811983  C 40.0508645186352 39.9849821811983  42.0732774017573 39.9692113243464  42.4882151015255 38.053052216836  C 42.6287058187699 37.2329676605352  42.1876303111422 36.4799092458551  42.4882151015255 35.4902879783961  C 42.9325578351355 34.1970777165371  43.6840198110937 33.7791500099608  43.6970887150233 30.1281966487372  C 43.7003559410058 29.5446749452155  43.6382786473397 28.5826526772473  43.8996567259338 28.0898134006242  C 44.5400330184896 26.875457423025  45.9514746428978 26.851801137747  46.8172895282408 27.6442866945569  C 46.8172895282408 27.6442866945569  49.382061924446 30.9955937755937  49.382061924446 30.9955937755937  C 49.382061924446 30.9955937755937  52.7146324265212 27.9951882595125  52.7146324265212 27.9951882595125  C 52.7146324265212 27.9951882595125  51.5972411405312 24.833131460699  51.5972411405312 24.833131460699  C 51.5972411405312 24.833131460699  49.0488048742384 22.6843522146225  49.0488048742384 22.6843522146225  C 49.0488048742384 22.6843522146225  47.7876556450216 20.2635256878499  47.7876556450216 20.2635256878499  C 47.7876556450216 20.2635256878499  44.873290068697 20.6104845385926  44.873290068697 20.6104845385926  C 44.873290068697 20.6104845385926  42.1288202434586 20.6104845385926  42.1288202434586 20.6104845385926  C 41.8903127467413 18.7731797153419  41.2564709061506 16.8925050357482  39.5836512031482 16.2892697611616  C 39.0478261420301 16.0960767647254  36.9404653833649 16.1670456205591  36.2510807010729 16.1670456205591  C 36.5287949095791 15.161653496248  37.2769896595549 12.1849042654447  37.760539104954 11.5028147065985  C 38.427053205369 10.5486778670562  39.0151538822058 11.116428713726  39.9855199989865 9.53540031431925  C 40.8578693362946 8.12390862607077  40.7239130710151 6.96869336166631  41.4296338832193 6.08552537795782  C 42.4098016779473 4.85145582929363  43.9813373754946 5.05647696836886  44.6772565097514 2.20589459238101  C 42.6352402707347 2.72633286849498  42.6156369148401 3.69229785067623  41.5407195666216 3.74355313544501  C 41.0212306354158 3.76720942072294  40.3318459531238 3.56218828164774  40.1717518799849 2.88404143701436  C 40.1717518799849 2.88404143701436  40.1717518799849 1.25964318126475  40.1717518799849 1.25964318126475  C 40.1717518799849 1.25964318126475  39.3876176442025 2.20589459238101  39.3876176442025 2.20589459238101  C 39.3876176442025 2.20589459238101  37.8193491726377 0.786517475706631  37.8193491726377 0.786517475706631  C 36.8914569936285 3.20340128826612  36.4177092261766 2.09944130863047  34.6828122295081 2.24926444872389  C 32.6898043802278 2.41485844566918  33.4510680341332 1.96144631117602  31.9383424042695 1.41340903557116  C 31.9383424042695 1.41340903557116  30.3700739327048 1.19655975385709  30.3700739327048 1.19655975385709  C 29.7068270582722 1.03490847112465  29.3866389119943 0.632751621400246  28.8018054611399 0.435615910751039  Z " fill-rule="nonzero" fill="#1c8dff" stroke="none" transform="matrix(1 0 0 1 489 2225 )" />
    <path d="M 28.8018054611399 0.435615910751039  C 28.2757820779692 0.254251056953677  26.544152307283 0.313391770148513  25.9266465966044 0.313391770148513  C 25.9266465966044 3.15214600349731  26.1945591271634 7.35507935453873  24.8092553106144 9.77590588131125  C 24.4825327123718 10.351542156407  22.9175314667893 12.0232529827124  22.3980425355836 12.5791756867432  C 21.7707351469575 13.2494371029505  20.8101707081241 14.156261371937  20.0489070542187 14.5623609358745  C 17.9840202333251 15.6505500586581  15.9027972825193 14.909319786617  14.592639663566 15.9147119109281  C 14.0078062127116 16.3641813312083  13.7823676199242 17.0896407463975  13.1550602312983 17.5115111671869  C 12.570226780444 17.9057825884853  12.0180655894138 17.7480740199658  11.2273969016665 18.4183354361732  C 10.3387114344465 19.1674511366403  9.80288637332842 20.2911246873409  8.28689351748244 21.2058343847533  C 7.11395938979121 21.9115802288775  6.63367717037465 21.3674856674857  5.73845725118963 21.8287832304048  C 5.73845725118963 21.8287832304048  3.77812166173362 23.3151864887  3.77812166173362 23.3151864887  C 2.63459256788423 24.056416760741  1.33423662687841 24.4664590388914  0.0567512677495188 24.6833083206056  C 0.0567512677495188 25.7084140159815  0.105759657485919 28.1016415432631  0.563171295025654 28.9217260995639  C 0.929100605057442 29.5722739447064  1.61521806136716 30.3884157867942  2.04322466506494 31.2321566283728  C 2.57251527421812 32.2809186090267  2.25559435392267 33.22322730593  2.85349670870681 34.5440365672798  C 3.63763094448916 36.2788308209929  4.81709952414531 37.012175664608  5.22876999793107 37.6903225092414  C 6.01290423371341 38.9756473426743  4.94452133745995 40.3950244593487  6.15992940292267 42.3506107089891  C 6.15992940292267 42.3506107089891  9.02855381549335 46.1356163534541  9.02855381549335 46.1356163534541  C 9.48596545303315 46.7782787701706  10.0773333558523 48.1464006020761  10.51840886348 48.5091303096708  C 10.51840886348 48.5091303096708  12.991698932177 49.4553817207871  12.991698932177 49.4553817207871  C 12.991698932177 49.4553817207871  15.932202316361 51.1862332602873  15.932202316361 51.1862332602873  C 16.6607937104421 51.4543378267703  18.3956907071108 51.3045146866768  19.2647728184364 51.3518272572326  C 19.2647728184364 51.3518272572326  21.2218411819098 51.6514735374194  21.2218411819098 51.6514735374194  C 22.2085434286028 51.5647338247338  23.4729598838019 50.236039134958  24.7177729831066 50.1926692786152  C 25.6064584503265 50.1611275649113  26.4036615900387 51.3124001151028  27.2335369895751 51.5371348252428  C 27.9163872199022 51.7224423932531  29.3506994261876 50.7880191247758  29.9780068148135 50.3937477034774  C 29.9780068148135 50.3937477034774  29.9780068148135 52.526756092702  29.9780068148135 52.526756092702  C 30.0008773966906 54.0407583504881  30.8960973158755 56.3787878787879  32.1343759632152 56.9938512960135  C 32.7126749621046 57.2540704340704  33.1504832437499 56.851913584346  33.8986779937256 56.9938512960135  C 33.8986779937256 56.9938512960135  35.4669464652904 57.6168001416649  35.4669464652904 57.6168001416649  C 35.9962370744436 57.7074825685636  37.3880753429573 57.356581003608  38.0153827315833 57.2580131482833  C 38.0153827315833 57.2580131482833  38.0153827315833 60.0967673816322  38.0153827315833 60.0967673816322  C 38.0153827315833 60.0967673816322  40.5605517718936 60.2268769506607  40.5605517718936 60.2268769506607  C 40.5605517718936 60.2268769506607  43.3050215971322 59.7655793877416  43.3050215971322 59.7655793877416  C 43.3050215971322 59.7655793877416  44.873290068697 60.8064559399694  44.873290068697 60.8064559399694  C 45.3078311243598 59.1032033999601  45.5528730730417 57.849420280231  46.8532290140476 56.6666060163357  C 47.591622086076 55.9924018859153  48.2156622487195 56.2131938818425  48.6142638185755 55.5271616087832  C 49.2611745630961 54.3285764880359  48.8560385412752 51.2769156871859  48.6142638185755 49.9206219979193  C 48.5587209768744 49.4356681497222  48.4378336155245 48.5130730238839  48.2091277967547 48.1266870310113  C 47.4805364026736 46.9044456249861  45.0758580796074 47.1094667640613  43.893122273969 46.8650184828563  C 43.3540299868686 46.7546224848927  42.6613780785941 46.667882772207  42.331388254369 46.0646474976204  C 42.0700101757749 45.5875790778493  41.9589244923724 43.9119255373309  41.9327866845129 43.2968621201053  C 39.6065217850251 42.6581424176019  39.7927536660235 42.2954127100073  38.7995169673657 39.9849821811983  C 40.0508645186352 39.9849821811983  42.0732774017573 39.9692113243464  42.4882151015255 38.053052216836  C 42.6287058187699 37.2329676605352  42.1876303111422 36.4799092458551  42.4882151015255 35.4902879783961  C 42.9325578351355 34.1970777165371  43.6840198110937 33.7791500099608  43.6970887150233 30.1281966487372  C 43.7003559410058 29.5446749452155  43.6382786473397 28.5826526772473  43.8996567259338 28.0898134006242  C 44.5400330184896 26.875457423025  45.9514746428978 26.851801137747  46.8172895282408 27.6442866945569  C 46.8172895282408 27.6442866945569  49.382061924446 30.9955937755937  49.382061924446 30.9955937755937  C 49.382061924446 30.9955937755937  52.7146324265212 27.9951882595125  52.7146324265212 27.9951882595125  C 52.7146324265212 27.9951882595125  51.5972411405312 24.833131460699  51.5972411405312 24.833131460699  C 51.5972411405312 24.833131460699  49.0488048742384 22.6843522146225  49.0488048742384 22.6843522146225  C 49.0488048742384 22.6843522146225  47.7876556450216 20.2635256878499  47.7876556450216 20.2635256878499  C 47.7876556450216 20.2635256878499  44.873290068697 20.6104845385926  44.873290068697 20.6104845385926  C 44.873290068697 20.6104845385926  42.1288202434586 20.6104845385926  42.1288202434586 20.6104845385926  C 41.8903127467413 18.7731797153419  41.2564709061506 16.8925050357482  39.5836512031482 16.2892697611616  C 39.0478261420301 16.0960767647254  36.9404653833649 16.1670456205591  36.2510807010729 16.1670456205591  C 36.5287949095791 15.161653496248  37.2769896595549 12.1849042654447  37.760539104954 11.5028147065985  C 38.427053205369 10.5486778670562  39.0151538822058 11.116428713726  39.9855199989865 9.53540031431925  C 40.8578693362946 8.12390862607077  40.7239130710151 6.96869336166631  41.4296338832193 6.08552537795782  C 42.4098016779473 4.85145582929363  43.9813373754946 5.05647696836886  44.6772565097514 2.20589459238101  C 42.6352402707347 2.72633286849498  42.6156369148401 3.69229785067623  41.5407195666216 3.74355313544501  C 41.0212306354158 3.76720942072294  40.3318459531238 3.56218828164774  40.1717518799849 2.88404143701436  C 40.1717518799849 2.88404143701436  40.1717518799849 1.25964318126475  40.1717518799849 1.25964318126475  C 40.1717518799849 1.25964318126475  39.3876176442025 2.20589459238101  39.3876176442025 2.20589459238101  C 39.3876176442025 2.20589459238101  37.8193491726377 0.786517475706631  37.8193491726377 0.786517475706631  C 36.8914569936285 3.20340128826612  36.4177092261766 2.09944130863047  34.6828122295081 2.24926444872389  C 32.6898043802278 2.41485844566918  33.4510680341332 1.96144631117602  31.9383424042695 1.41340903557116  C 31.9383424042695 1.41340903557116  30.3700739327048 1.19655975385709  30.3700739327048 1.19655975385709  C 29.7068270582722 1.03490847112465  29.3866389119943 0.632751621400246  28.8018054611399 0.435615910751039  Z " stroke-width="2.13294375456538" stroke="#ffffff" fill="none" transform="matrix(1 0 0 1 489 2225 )" mask="url(#clip68)" />
  </g>
</svg>