<?xml version="1.0" encoding="utf-8"?>
<svg version="1.1" xmlns:xlink="http://www.w3.org/1999/xlink" width="35px" height="49px" xmlns="http://www.w3.org/2000/svg">
  <defs>
    <mask fill="white" id="clip9">
      <path d="M 10.4027574872169 5.12600825641363  C 9.99949780861937 7.03418498350919  9.84619247626 7.32714157646592  8.12983929875821 7.50133198308873  C 8.12983929875821 7.50133198308873  9.10632761139522 9.63516446421846  9.10632761139522 9.63516446421846  C 9.49958911614311 11.2226724882129  6.28017713659597 12.2361439449277  5.33035062089112 12.4895118091064  C 5.55364317019718 13.3050396219315  6.06021731190646 15.0113138322598  5.98689737034329 15.8189238993293  C 5.80359751643533 17.8735789229032  4.13390248356467 20.8268980897359  2.93078889700502 22.2283390884742  C 2.93078889700502 22.2283390884742  0.917823228633893 24.837236314939  0.917823228633893 24.837236314939  C 0.617878013148299 25.3716841534409  0.247945580715736 27.6282416937822  0.191289262235216 28.3250033202735  C 0.0413166544922774 30.2410977931248  1.36107560262957 29.5443361666333  2.57418736303867 31.4287596564623  C 3.6106647187728 33.0360620448458  3.99059532505476 35.8231085508112  4.13056975894813 37.8302570998516  C 6.92006026296559 37.8302570998516  5.83359203798392 37.8540103371183  8.12983929875821 39.2594102087345  C 8.12983929875821 39.2594102087345  7.84989043097147 42.1097986807446  7.84989043097147 42.1097986807446  C 7.84989043097147 42.1097986807446  8.98968224981735 44.2475900347522  8.98968224981735 44.2475900347522  C 8.98968224981735 44.2475900347522  9.52625091307522 46.6229137614272  9.52625091307522 46.6229137614272  C 10.2427867056245 46.781268676539  12.1524379108839 47.3592641166964  12.7256665449232 47.291963277774  C 14.0954163623082 47.1336083626624  15.3351899196493 45.1027065763552  15.9250821767713 43.7725252894172  C 16.4316563184806 44.8295443477875  18.0013696128561 48.3252290988777  19.2578067932797 47.9689305398765  C 19.7143900657413 47.8382877349092  21.4840668371073 45.8034270757243  22.4372260774288 46.0647126856585  C 22.9471329437546 46.2072321092591  24.2568937180424 48.1747919295216  24.8567841490139 48.7607051154348  C 25.2133856829803 47.7749457688646  26.169877647918 45.9538642450805  26.0199050401754 44.9601871527547  C 25.9599159970782 44.5405466277088  25.70996165084 44.0694407552515  25.70996165084 43.5349929167496  C 25.70996165084 42.9649152223477  26.123219503287 42.0385389689443  26.2698593864134 41.397201562742  C 26.2698593864134 41.397201562742  26.5698046018991 39.2594102087345  26.5698046018991 39.2594102087345  C 26.9064097881665 37.9213111760408  27.8029127100073 37.7985861168294  28.1361851716581 36.8405388804038  C 28.4094685902118 36.0527231777231  27.879565376187 33.1983758328353  29.5959185536889 33.2102524514687  C 30.0358382030678 33.2102524514687  30.9789992695399 34.5562692299178  31.4522461650841 34.9798686278415  C 31.8655040175311 33.1904580870797  32.1454528853177 33.032103171968  33.451880934989 32.1294801558315  C 33.451880934989 32.1294801558315  32.2521000730459 28.3289621931513  32.2521000730459 28.3289621931513  C 32.1487856099341 27.3511205923367  32.6386961285609 26.9235623215353  32.6886869978086 25.9536384664763  C 32.7786705624542 24.1365158155699  31.8421749452153 22.6994449609314  30.8523557341124 21.5197008433494  C 30.8523557341124 21.5197008433494  32.8519905040175 21.5197008433494  32.8519905040175 21.5197008433494  C 32.8519905040175 21.5197008433494  33.0519539810081 19.3819094893419  33.0519539810081 19.3819094893419  C 33.0519539810081 19.3819094893419  33.8518078889701 20.8071037253469  33.8518078889701 20.8071037253469  C 35.7814554419284 19.682783828054  34.7616417092768 17.6320876773579  33.8518078889701 16.0564562719968  C 33.8518078889701 16.0564562719968  32.7186815193572 17.382678686057  32.7186815193572 17.382678686057  C 32.7186815193572 17.382678686057  30.8523557341124 17.2441181353343  30.8523557341124 17.2441181353343  C 30.8523557341124 17.2441181353343  32.1754474068662 16.1435514753082  32.1754474068662 16.1435514753082  C 32.1754474068662 16.1435514753082  34.0517713659605 12.2519794364389  34.0517713659605 12.2519794364389  C 32.9519722425126 12.2242673262942  31.5455624543462 12.0540357925493  30.6523922571219 11.2305902339686  C 29.7258948137326 10.3754736923655  28.8560536888239 8.69691159218183  27.6562728268809 8.48709132965894  C 26.0898922571219 8.21392910109125  25.2767074506939 9.55598700666263  24.0569302410519 10.4111035482657  C 23.2170836376916 10.9930578613011  22.5871986851718 11.0920296832459  21.6573685171657 11.3018499457688  C 21.6573685171657 11.3018499457688  22.2272644265887 8.45146147375874  22.2272644265887 8.45146147375874  C 22.2272644265887 8.45146147375874  26.0565650109569 3.22574927507361  26.0565650109569 3.22574927507361  C 25.4366782322863 2.90903944485018  24.8067932797662 2.59232961462692  24.2568937180424 2.12518261504738  C 23.7936449963477 1.72929532726835  23.1171018991964 0.866261039909659  22.6571859021182 0.66039965026448  C 21.7773466033601 0.268471235363165  20.6375547845142 1.21464185315529  20.1843042366691 2.04996403036932  C 19.9143535427318 2.54482314009334  19.8043736303871 2.9129983177279  19.6577337472608 3.46328164774104  C 19.6577337472608 3.46328164774104  15.5251552227904 2.03412853885828  15.5251552227904 2.03412853885828  C 14.1620708546384 1.18692974301081  14.1587381300218 -0.357030679328091  12.3257395909423 0.209088142196208  C 12.042457998539 0.296183345507586  11.4192384952518 0.498085862275104  11.1892804967129 0.684152887531184  C 10.5460646457267 1.20672410739979  10.7593590211832 2.41418033512628  10.7093681519357 3.22574927507361  C 10.666042731921 3.92251090156492  10.5427319211103 4.45695874006685  10.4027574872169 5.12600825641363  Z " fill-rule="evenodd" />
    </mask>
  </defs>
  <g transform="matrix(1 0 0 1 -561 -2283 )">
    <path d="M 10.4027574872169 5.12600825641363  C 9.99949780861937 7.03418498350919  9.84619247626 7.32714157646592  8.12983929875821 7.50133198308873  C 8.12983929875821 7.50133198308873  9.10632761139522 9.63516446421846  9.10632761139522 9.63516446421846  C 9.49958911614311 11.2226724882129  6.28017713659597 12.2361439449277  5.33035062089112 12.4895118091064  C 5.55364317019718 13.3050396219315  6.06021731190646 15.0113138322598  5.98689737034329 15.8189238993293  C 5.80359751643533 17.8735789229032  4.13390248356467 20.8268980897359  2.93078889700502 22.2283390884742  C 2.93078889700502 22.2283390884742  0.917823228633893 24.837236314939  0.917823228633893 24.837236314939  C 0.617878013148299 25.3716841534409  0.247945580715736 27.6282416937822  0.191289262235216 28.3250033202735  C 0.0413166544922774 30.2410977931248  1.36107560262957 29.5443361666333  2.57418736303867 31.4287596564623  C 3.6106647187728 33.0360620448458  3.99059532505476 35.8231085508112  4.13056975894813 37.8302570998516  C 6.92006026296559 37.8302570998516  5.83359203798392 37.8540103371183  8.12983929875821 39.2594102087345  C 8.12983929875821 39.2594102087345  7.84989043097147 42.1097986807446  7.84989043097147 42.1097986807446  C 7.84989043097147 42.1097986807446  8.98968224981735 44.2475900347522  8.98968224981735 44.2475900347522  C 8.98968224981735 44.2475900347522  9.52625091307522 46.6229137614272  9.52625091307522 46.6229137614272  C 10.2427867056245 46.781268676539  12.1524379108839 47.3592641166964  12.7256665449232 47.291963277774  C 14.0954163623082 47.1336083626624  15.3351899196493 45.1027065763552  15.9250821767713 43.7725252894172  C 16.4316563184806 44.8295443477875  18.0013696128561 48.3252290988777  19.2578067932797 47.9689305398765  C 19.7143900657413 47.8382877349092  21.4840668371073 45.8034270757243  22.4372260774288 46.0647126856585  C 22.9471329437546 46.2072321092591  24.2568937180424 48.1747919295216  24.8567841490139 48.7607051154348  C 25.2133856829803 47.7749457688646  26.169877647918 45.9538642450805  26.0199050401754 44.9601871527547  C 25.9599159970782 44.5405466277088  25.70996165084 44.0694407552515  25.70996165084 43.5349929167496  C 25.70996165084 42.9649152223477  26.123219503287 42.0385389689443  26.2698593864134 41.397201562742  C 26.2698593864134 41.397201562742  26.5698046018991 39.2594102087345  26.5698046018991 39.2594102087345  C 26.9064097881665 37.9213111760408  27.8029127100073 37.7985861168294  28.1361851716581 36.8405388804038  C 28.4094685902118 36.0527231777231  27.879565376187 33.1983758328353  29.5959185536889 33.2102524514687  C 30.0358382030678 33.2102524514687  30.9789992695399 34.5562692299178  31.4522461650841 34.9798686278415  C 31.8655040175311 33.1904580870797  32.1454528853177 33.032103171968  33.451880934989 32.1294801558315  C 33.451880934989 32.1294801558315  32.2521000730459 28.3289621931513  32.2521000730459 28.3289621931513  C 32.1487856099341 27.3511205923367  32.6386961285609 26.9235623215353  32.6886869978086 25.9536384664763  C 32.7786705624542 24.1365158155699  31.8421749452153 22.6994449609314  30.8523557341124 21.5197008433494  C 30.8523557341124 21.5197008433494  32.8519905040175 21.5197008433494  32.8519905040175 21.5197008433494  C 32.8519905040175 21.5197008433494  33.0519539810081 19.3819094893419  33.0519539810081 19.3819094893419  C 33.0519539810081 19.3819094893419  33.8518078889701 20.8071037253469  33.8518078889701 20.8071037253469  C 35.7814554419284 19.682783828054  34.7616417092768 17.6320876773579  33.8518078889701 16.0564562719968  C 33.8518078889701 16.0564562719968  32.7186815193572 17.382678686057  32.7186815193572 17.382678686057  C 32.7186815193572 17.382678686057  30.8523557341124 17.2441181353343  30.8523557341124 17.2441181353343  C 30.8523557341124 17.2441181353343  32.1754474068662 16.1435514753082  32.1754474068662 16.1435514753082  C 32.1754474068662 16.1435514753082  34.0517713659605 12.2519794364389  34.0517713659605 12.2519794364389  C 32.9519722425126 12.2242673262942  31.5455624543462 12.0540357925493  30.6523922571219 11.2305902339686  C 29.7258948137326 10.3754736923655  28.8560536888239 8.69691159218183  27.6562728268809 8.48709132965894  C 26.0898922571219 8.21392910109125  25.2767074506939 9.55598700666263  24.0569302410519 10.4111035482657  C 23.2170836376916 10.9930578613011  22.5871986851718 11.0920296832459  21.6573685171657 11.3018499457688  C 21.6573685171657 11.3018499457688  22.2272644265887 8.45146147375874  22.2272644265887 8.45146147375874  C 22.2272644265887 8.45146147375874  26.0565650109569 3.22574927507361  26.0565650109569 3.22574927507361  C 25.4366782322863 2.90903944485018  24.8067932797662 2.59232961462692  24.2568937180424 2.12518261504738  C 23.7936449963477 1.72929532726835  23.1171018991964 0.866261039909659  22.6571859021182 0.66039965026448  C 21.7773466033601 0.268471235363165  20.6375547845142 1.21464185315529  20.1843042366691 2.04996403036932  C 19.9143535427318 2.54482314009334  19.8043736303871 2.9129983177279  19.6577337472608 3.46328164774104  C 19.6577337472608 3.46328164774104  15.5251552227904 2.03412853885828  15.5251552227904 2.03412853885828  C 14.1620708546384 1.18692974301081  14.1587381300218 -0.357030679328091  12.3257395909423 0.209088142196208  C 12.042457998539 0.296183345507586  11.4192384952518 0.498085862275104  11.1892804967129 0.684152887531184  C 10.5460646457267 1.20672410739979  10.7593590211832 2.41418033512628  10.7093681519357 3.22574927507361  C 10.666042731921 3.92251090156492  10.5427319211103 4.45695874006685  10.4027574872169 5.12600825641363  Z " fill-rule="nonzero" fill="#2d79b4" stroke="none" transform="matrix(1 0 0 1 561 2283 )" />
    <path d="M 10.4027574872169 5.12600825641363  C 9.99949780861937 7.03418498350919  9.84619247626 7.32714157646592  8.12983929875821 7.50133198308873  C 8.12983929875821 7.50133198308873  9.10632761139522 9.63516446421846  9.10632761139522 9.63516446421846  C 9.49958911614311 11.2226724882129  6.28017713659597 12.2361439449277  5.33035062089112 12.4895118091064  C 5.55364317019718 13.3050396219315  6.06021731190646 15.0113138322598  5.98689737034329 15.8189238993293  C 5.80359751643533 17.8735789229032  4.13390248356467 20.8268980897359  2.93078889700502 22.2283390884742  C 2.93078889700502 22.2283390884742  0.917823228633893 24.837236314939  0.917823228633893 24.837236314939  C 0.617878013148299 25.3716841534409  0.247945580715736 27.6282416937822  0.191289262235216 28.3250033202735  C 0.0413166544922774 30.2410977931248  1.36107560262957 29.5443361666333  2.57418736303867 31.4287596564623  C 3.6106647187728 33.0360620448458  3.99059532505476 35.8231085508112  4.13056975894813 37.8302570998516  C 6.92006026296559 37.8302570998516  5.83359203798392 37.8540103371183  8.12983929875821 39.2594102087345  C 8.12983929875821 39.2594102087345  7.84989043097147 42.1097986807446  7.84989043097147 42.1097986807446  C 7.84989043097147 42.1097986807446  8.98968224981735 44.2475900347522  8.98968224981735 44.2475900347522  C 8.98968224981735 44.2475900347522  9.52625091307522 46.6229137614272  9.52625091307522 46.6229137614272  C 10.2427867056245 46.781268676539  12.1524379108839 47.3592641166964  12.7256665449232 47.291963277774  C 14.0954163623082 47.1336083626624  15.3351899196493 45.1027065763552  15.9250821767713 43.7725252894172  C 16.4316563184806 44.8295443477875  18.0013696128561 48.3252290988777  19.2578067932797 47.9689305398765  C 19.7143900657413 47.8382877349092  21.4840668371073 45.8034270757243  22.4372260774288 46.0647126856585  C 22.9471329437546 46.2072321092591  24.2568937180424 48.1747919295216  24.8567841490139 48.7607051154348  C 25.2133856829803 47.7749457688646  26.169877647918 45.9538642450805  26.0199050401754 44.9601871527547  C 25.9599159970782 44.5405466277088  25.70996165084 44.0694407552515  25.70996165084 43.5349929167496  C 25.70996165084 42.9649152223477  26.123219503287 42.0385389689443  26.2698593864134 41.397201562742  C 26.2698593864134 41.397201562742  26.5698046018991 39.2594102087345  26.5698046018991 39.2594102087345  C 26.9064097881665 37.9213111760408  27.8029127100073 37.7985861168294  28.1361851716581 36.8405388804038  C 28.4094685902118 36.0527231777231  27.879565376187 33.1983758328353  29.5959185536889 33.2102524514687  C 30.0358382030678 33.2102524514687  30.9789992695399 34.5562692299178  31.4522461650841 34.9798686278415  C 31.8655040175311 33.1904580870797  32.1454528853177 33.032103171968  33.451880934989 32.1294801558315  C 33.451880934989 32.1294801558315  32.2521000730459 28.3289621931513  32.2521000730459 28.3289621931513  C 32.1487856099341 27.3511205923367  32.6386961285609 26.9235623215353  32.6886869978086 25.9536384664763  C 32.7786705624542 24.1365158155699  31.8421749452153 22.6994449609314  30.8523557341124 21.5197008433494  C 30.8523557341124 21.5197008433494  32.8519905040175 21.5197008433494  32.8519905040175 21.5197008433494  C 32.8519905040175 21.5197008433494  33.0519539810081 19.3819094893419  33.0519539810081 19.3819094893419  C 33.0519539810081 19.3819094893419  33.8518078889701 20.8071037253469  33.8518078889701 20.8071037253469  C 35.7814554419284 19.682783828054  34.7616417092768 17.6320876773579  33.8518078889701 16.0564562719968  C 33.8518078889701 16.0564562719968  32.7186815193572 17.382678686057  32.7186815193572 17.382678686057  C 32.7186815193572 17.382678686057  30.8523557341124 17.2441181353343  30.8523557341124 17.2441181353343  C 30.8523557341124 17.2441181353343  32.1754474068662 16.1435514753082  32.1754474068662 16.1435514753082  C 32.1754474068662 16.1435514753082  34.0517713659605 12.2519794364389  34.0517713659605 12.2519794364389  C 32.9519722425126 12.2242673262942  31.5455624543462 12.0540357925493  30.6523922571219 11.2305902339686  C 29.7258948137326 10.3754736923655  28.8560536888239 8.69691159218183  27.6562728268809 8.48709132965894  C 26.0898922571219 8.21392910109125  25.2767074506939 9.55598700666263  24.0569302410519 10.4111035482657  C 23.2170836376916 10.9930578613011  22.5871986851718 11.0920296832459  21.6573685171657 11.3018499457688  C 21.6573685171657 11.3018499457688  22.2272644265887 8.45146147375874  22.2272644265887 8.45146147375874  C 22.2272644265887 8.45146147375874  26.0565650109569 3.22574927507361  26.0565650109569 3.22574927507361  C 25.4366782322863 2.90903944485018  24.8067932797662 2.59232961462692  24.2568937180424 2.12518261504738  C 23.7936449963477 1.72929532726835  23.1171018991964 0.866261039909659  22.6571859021182 0.66039965026448  C 21.7773466033601 0.268471235363165  20.6375547845142 1.21464185315529  20.1843042366691 2.04996403036932  C 19.9143535427318 2.54482314009334  19.8043736303871 2.9129983177279  19.6577337472608 3.46328164774104  C 19.6577337472608 3.46328164774104  15.5251552227904 2.03412853885828  15.5251552227904 2.03412853885828  C 14.1620708546384 1.18692974301081  14.1587381300218 -0.357030679328091  12.3257395909423 0.209088142196208  C 12.042457998539 0.296183345507586  11.4192384952518 0.498085862275104  11.1892804967129 0.684152887531184  C 10.5460646457267 1.20672410739979  10.7593590211832 2.41418033512628  10.7093681519357 3.22574927507361  C 10.666042731921 3.92251090156492  10.5427319211103 4.45695874006685  10.4027574872169 5.12600825641363  Z " stroke-width="2.13294375456538" stroke="#ffffff" fill="none" transform="matrix(1 0 0 1 561 2283 )" mask="url(#clip9)" />
  </g>
</svg>