<?xml version="1.0" encoding="utf-8"?>
<svg version="1.1" xmlns:xlink="http://www.w3.org/1999/xlink" width="24px" height="23px" xmlns="http://www.w3.org/2000/svg">
  <defs>
    <mask fill="white" id="clip45">
      <path d="M 9.56012811147946 1.27985225853564  C 9.01868854301284 1.55283465680145  8.69054335000283 2.61707038337374  8.50021913805693 3.25402931266052  C 8.50021913805693 3.25402931266052  6.33446086419053 2.54190131718445  6.33446086419053 2.54190131718445  C 6.22289149856721 3.03247838073463  6.09819632522328 3.76834397605972  5.90787211327751 4.20353330662829  C 5.4911277181547 5.14512476731312  2.8298702028431 7.75230448408303  2.00294431645779 8.6147706119371  C 1.57307411361461 9.05787247578866  0.477069168961123 10.1023268691534  0.237523178063668 10.6522479323263  C -0.0282744282744716 11.2654692617639  0.178457043321885 12.6936815193572  0.237523178063668 13.3820719149838  C 0.237523178063668 13.3820719149838  0.870843400573108 19.2650404109427  0.870843400573108 19.2650404109427  C 1.09726358375008 20.0483812059662  2.00950722031791 20.3411449374396  2.59360566387585 20.6418212021961  C 4.38855986964086 21.5675875963147  5.9111535652076 22.6120419896791  7.90955779063887 22.6792985225853  C 7.90955779063887 22.6792985225853  10.4658088441872 22.6792985225853  10.4658088441872 22.6792985225853  C 11.145069393718 22.5606105233394  12.3099848289037 21.6546254624283  12.9597123110637 21.2233923985013  C 12.9597123110637 21.2233923985013  15.12547058493 20.0325561394  15.12547058493 20.0325561394  C 15.8572343653424 19.4826350762269  18.4495813901219 16.384878295907  18.8991403045458 15.5184559014114  C 18.8991403045458 15.5184559014114  20.7236275776816 9.18842927495928  20.7236275776816 9.18842927495928  C 21.2814744057987 7.95803034944271  21.5800865314379 7.35667781992976  22.4135753216834 6.33991729305586  C 22.8139124571557 5.85329649614738  23.6867786705624 5.03830556799159  23.8475698151373 4.41717170527107  C 24.1494633927066 3.27776691250966  23.0403326403326 0.354085864417073  21.813069618475 0.00593439996225698  C 21.813069618475 0.00593439996225698  18.2756644378265 0.31847946464336  18.2756644378265 0.31847946464336  C 17.3634208012585 0.282873064869534  17.1271562622914 0.0573658663021774  16.1099061639601 0.31847946464336  C 14.8334213631512 0.551899196493707  12.9465865033432 1.41832159098936  11.6471315390234 1.27985225853564  C 11.0728774512557 1.26007092532808  10.0917233241557 0.955438393930024  9.56012811147946 1.27985225853564  Z " fill-rule="evenodd" />
    </mask>
  </defs>
  <g transform="matrix(1 0 0 1 -482 -2432 )">
    <path d="M 9.56012811147946 1.27985225853564  C 9.01868854301284 1.55283465680145  8.69054335000283 2.61707038337374  8.50021913805693 3.25402931266052  C 8.50021913805693 3.25402931266052  6.33446086419053 2.54190131718445  6.33446086419053 2.54190131718445  C 6.22289149856721 3.03247838073463  6.09819632522328 3.76834397605972  5.90787211327751 4.20353330662829  C 5.4911277181547 5.14512476731312  2.8298702028431 7.75230448408303  2.00294431645779 8.6147706119371  C 1.57307411361461 9.05787247578866  0.477069168961123 10.1023268691534  0.237523178063668 10.6522479323263  C -0.0282744282744716 11.2654692617639  0.178457043321885 12.6936815193572  0.237523178063668 13.3820719149838  C 0.237523178063668 13.3820719149838  0.870843400573108 19.2650404109427  0.870843400573108 19.2650404109427  C 1.09726358375008 20.0483812059662  2.00950722031791 20.3411449374396  2.59360566387585 20.6418212021961  C 4.38855986964086 21.5675875963147  5.9111535652076 22.6120419896791  7.90955779063887 22.6792985225853  C 7.90955779063887 22.6792985225853  10.4658088441872 22.6792985225853  10.4658088441872 22.6792985225853  C 11.145069393718 22.5606105233394  12.3099848289037 21.6546254624283  12.9597123110637 21.2233923985013  C 12.9597123110637 21.2233923985013  15.12547058493 20.0325561394  15.12547058493 20.0325561394  C 15.8572343653424 19.4826350762269  18.4495813901219 16.384878295907  18.8991403045458 15.5184559014114  C 18.8991403045458 15.5184559014114  20.7236275776816 9.18842927495928  20.7236275776816 9.18842927495928  C 21.2814744057987 7.95803034944271  21.5800865314379 7.35667781992976  22.4135753216834 6.33991729305586  C 22.8139124571557 5.85329649614738  23.6867786705624 5.03830556799159  23.8475698151373 4.41717170527107  C 24.1494633927066 3.27776691250966  23.0403326403326 0.354085864417073  21.813069618475 0.00593439996225698  C 21.813069618475 0.00593439996225698  18.2756644378265 0.31847946464336  18.2756644378265 0.31847946464336  C 17.3634208012585 0.282873064869534  17.1271562622914 0.0573658663021774  16.1099061639601 0.31847946464336  C 14.8334213631512 0.551899196493707  12.9465865033432 1.41832159098936  11.6471315390234 1.27985225853564  C 11.0728774512557 1.26007092532808  10.0917233241557 0.955438393930024  9.56012811147946 1.27985225853564  Z " fill-rule="nonzero" fill="#aad5ff" stroke="none" transform="matrix(1 0 0 1 482 2432 )" />
    <path d="M 9.56012811147946 1.27985225853564  C 9.01868854301284 1.55283465680145  8.69054335000283 2.61707038337374  8.50021913805693 3.25402931266052  C 8.50021913805693 3.25402931266052  6.33446086419053 2.54190131718445  6.33446086419053 2.54190131718445  C 6.22289149856721 3.03247838073463  6.09819632522328 3.76834397605972  5.90787211327751 4.20353330662829  C 5.4911277181547 5.14512476731312  2.8298702028431 7.75230448408303  2.00294431645779 8.6147706119371  C 1.57307411361461 9.05787247578866  0.477069168961123 10.1023268691534  0.237523178063668 10.6522479323263  C -0.0282744282744716 11.2654692617639  0.178457043321885 12.6936815193572  0.237523178063668 13.3820719149838  C 0.237523178063668 13.3820719149838  0.870843400573108 19.2650404109427  0.870843400573108 19.2650404109427  C 1.09726358375008 20.0483812059662  2.00950722031791 20.3411449374396  2.59360566387585 20.6418212021961  C 4.38855986964086 21.5675875963147  5.9111535652076 22.6120419896791  7.90955779063887 22.6792985225853  C 7.90955779063887 22.6792985225853  10.4658088441872 22.6792985225853  10.4658088441872 22.6792985225853  C 11.145069393718 22.5606105233394  12.3099848289037 21.6546254624283  12.9597123110637 21.2233923985013  C 12.9597123110637 21.2233923985013  15.12547058493 20.0325561394  15.12547058493 20.0325561394  C 15.8572343653424 19.4826350762269  18.4495813901219 16.384878295907  18.8991403045458 15.5184559014114  C 18.8991403045458 15.5184559014114  20.7236275776816 9.18842927495928  20.7236275776816 9.18842927495928  C 21.2814744057987 7.95803034944271  21.5800865314379 7.35667781992976  22.4135753216834 6.33991729305586  C 22.8139124571557 5.85329649614738  23.6867786705624 5.03830556799159  23.8475698151373 4.41717170527107  C 24.1494633927066 3.27776691250966  23.0403326403326 0.354085864417073  21.813069618475 0.00593439996225698  C 21.813069618475 0.00593439996225698  18.2756644378265 0.31847946464336  18.2756644378265 0.31847946464336  C 17.3634208012585 0.282873064869534  17.1271562622914 0.0573658663021774  16.1099061639601 0.31847946464336  C 14.8334213631512 0.551899196493707  12.9465865033432 1.41832159098936  11.6471315390234 1.27985225853564  C 11.0728774512557 1.26007092532808  10.0917233241557 0.955438393930024  9.56012811147946 1.27985225853564  Z " stroke-width="2.13294375456538" stroke="#ffffff" fill="none" transform="matrix(1 0 0 1 482 2432 )" mask="url(#clip45)" />
  </g>
</svg>