<?xml version="1.0" encoding="utf-8"?>
<svg version="1.1" xmlns:xlink="http://www.w3.org/1999/xlink" width="69px" height="54px" xmlns="http://www.w3.org/2000/svg">
  <defs>
    <mask fill="white" id="clip39">
      <path d="M 24.556547773079 4.77247078159235  C 24.0186729208908 3.95661979547111  21.5272894030862 0.797196859021142  20.8706201050159 0.213303506208888  C 20.3327452528276 0.781199780861925  19.2536957027321 2.20094046749455  18.4947311873745 1.88899744338931  C 18.0756507810682 1.71302958363759  17.6697697576378 1.03315376186993  17.108795985417 0.929172753834848  C 16.5643214417908 0.829191015339575  16.1980385669877 1.34509678597516  15.3301791429049 1.32110116873628  C 15.3301791429049 1.32110116873628  13.7462531978106 1.12513696128553  13.7462531978106 1.12513696128553  C 13.7462531978106 1.12513696128553  11.568355023306 1.12513696128553  11.568355023306 1.12513696128553  C 11.0172807882419 0.97316471877275  9.90193293523799 0.63722607742875  9.40695607739605 0.845188093498848  C 8.83608276801823 1.0891435354273  8.50939804184259 1.79301497443379  8.20251238998043 2.37290905770629  C 8.95487721390037 2.4169010226442  9.90193293523799 2.45689371804229  10.4530071703021 3.16876369612851  C 10.8555883480134 3.69266800584359  11.0865775483397 4.66848977355733  11.4957584174891 5.1084094229364  C 12.0006348124879 5.65630934989042  12.5121108989246 5.33636778670558  13.0763845168644 5.87626917457993  C 13.4987647688895 6.28019539810077  14.3171265071883 8.14785427319202  14.7362069134945 8.85172571219869  C 14.2313305184957 9.1156775018261  13.4723660031381 9.60358838568294  12.9542902252633 9.64758035062084  C 12.1029300297753 9.72356647187723  11.3604647430122 8.9477081811541  9.9910287696494 10.3874452154857  C 8.25530992148367 12.275100438276  9.82603648370218 12.9669740686632  9.9910287696494 14.614673119065  C 10.0141276896821 15.2745525931336  9.47625283749386 18.7979090577063  10.327613032982 20.3536249086924  C 11.2581695257249 22.0493151935719  12.667203647715 21.901342220599  14.5514155532335 24.6928323593863  C 14.8550013593765 25.1407505478451  15.1783862398333 25.5926680058437  15.3598777543754 26.1325693937181  C 15.9571498295047 27.9322406866326  14.9638962681018 30.4997717311906  14.7362069134945 32.2914444850255  C 14.7362069134945 32.2914444850255  13.1522809684002 31.6195672023374  13.1522809684002 31.6195672023374  C 13.1522809684002 31.6195672023374  11.568355023306 32.6833728999269  11.568355023306 32.6833728999269  C 11.568355023306 32.6833728999269  8.20251238998043 35.5388513513514  8.20251238998043 35.5388513513514  C 8.20251238998043 35.5388513513514  6.53609030191262 35.8467951059167  6.53609030191262 35.8467951059167  C 6.53609030191262 35.8467951059167  5.24915047152348 35.4108747260774  5.24915047152348 35.4108747260774  C 5.24915047152348 35.4108747260774  3.64542545211549 36.6746439006574  3.64542545211549 36.6746439006574  C 3.64542545211549 36.6746439006574  2.06479935274012 36.6746439006574  2.06479935274012 36.6746439006574  C 2.06479935274012 36.6746439006574  0.282882664509089 37.8144357195033  0.282882664509089 37.8144357195033  C 0.639266002155296 38.4583181154127  1.39163082607513 39.5501186997808  1.55662311202241 40.2139974433892  C 1.85030938100863 41.4017804967129  1.03524748842887 44.3732377647917  0.876854893919472 45.7329894083273  C 0.876854893919472 45.7329894083273  2.06479935274012 44.5332085463841  2.06479935274012 44.5332085463841  C 2.06479935274012 44.5332085463841  3.1339493656788 47.0207542001461  3.1339493656788 47.0207542001461  C 3.1339493656788 47.0207542001461  5.03136065407301 48.6644539810079  5.03136065407301 48.6644539810079  C 5.03136065407301 48.6644539810079  5.2326512429288 51.4919375456537  5.2326512429288 51.4919375456537  C 6.95847055393773 50.9480368882395  7.1102634570093 51.1440010956902  8.00452164684378 53.6515430971511  C 9.20566548854021 51.8158783783783  9.00437489968459 49.8762326515704  9.86893447804846 48.684450328707  C 10.8786872680461 47.2927045288531  13.7495530435295 45.149096055515  15.3301791429049 45.1650931336741  C 16.2079381041446 45.1730916727538  16.554421904634 45.7409879474068  17.3067867285538 45.8089755295836  C 17.9238578779968 45.8609660336011  19.4648858287447 45.2850712198684  20.0786571324688 45.0131208911614  C 19.880666389332 44.4692202337473  19.3658904571764 43.3894174579985  19.3955890686469 42.8535153396639  C 19.5539816631562 40.0900200876551  23.3158057827552 40.3659696859021  24.8271351220326 40.7738951789627  C 26.0282789637292 41.0978360116873  26.0315788094481 42.0656592403213  26.8433408563089 42.4695854638421  C 27.3020194112426 42.6975438276113  29.1697320881661 42.6095598977355  29.7802035461712 42.6135591672754  C 32.0867957037149 42.6335555149744  31.7799100518528 43.969311541271  33.5420276657703 45.1530953250548  C 33.9347093063249 45.4170471146822  35.0104590107014 45.7849799123447  35.4559381827592 45.844968955442  C 36.3501963725937 45.9529492330168  38.660088375856 45.2890704894083  39.3728550511486 44.6051953981008  C 39.8282337603632 44.1652757487217  40.1120204921925 43.461404309715  40.4024069154599 42.8535153396639  C 40.5871982757209 43.6213750913074  40.9039834647397 46.2648922571219  41.4781566198364 46.5328433162892  C 41.8279402660447 46.6968133674214  42.6232030843108 46.3848703433162  42.976286576238 46.2368973703433  C 43.3590686796359 46.0769265887509  43.593357725681 45.9649470416361  43.903543223262 45.6290084002922  C 44.520614372705 44.9651296566836  44.949594316168 43.5653853177502  45.6425619171468 43.3734203798393  C 47.1241926449538 42.957496347699  48.2725389551471 45.5970142439737  48.279138646585 46.5928323593864  C 48.279138646585 47.0527483564645  47.5333735141031 48.772434258583  47.3320829252473 49.3323319941563  C 47.3320829252473 49.3323319941563  50.6979255585728 51.4919375456537  50.6979255585728 51.4919375456537  C 51.5294866797472 49.1763604821037  51.5360863711851 49.8562363038714  53.0738144762141 48.8004291453616  C 53.8888763687938 48.2405314097882  54.1627635634665 47.6246439006574  55.053721907582 47.1247352081812  C 55.053721907582 47.1247352081812  58.2116742606137 45.6809989043097  58.2116742606137 45.6809989043097  C 59.0069370788798 45.1091033601169  59.251125662082 44.3612399561724  60.0034904860017 43.7413531775018  C 60.7327563898889 43.1374634769904  61.4719218309328 43.1374634769904  62.1450903575979 42.4895818115413  C 62.755561815603 41.9056884587289  63.3924320393596 40.6219229364499  63.9930039602079 40.2339937910883  C 64.8311647728203 39.6580989773557  66.2302993576536 40.1300127830533  67.127857393207 40.2339937910883  C 70.2924094376767 40.6499178232286  68.4444958350667 35.7668097151205  67.5931356395785 34.2150931336742  C 67.3027492163112 33.6871895544193  67.0948589360176 33.3792457998538  66.9034678843187 32.7713568298028  C 66.2995961177514 30.8597059897735  66.391991797882 29.8518900657414  64.9499592187024 28.2121895544192  C 66.2039005919021 26.30053871439  66.1379036775231 25.8446219868517  66.1379036775231 23.4930514974434  C 65.3030427106295 23.2211011687363  63.2406391362881 22.2812728268809  62.5740703010609 21.6933802045288  C 61.6402139625991 20.8735299488677  60.5479650296277 19.1938367421475  59.4062184108723 18.8179054054053  C 58.5581580611031 18.5379565376186  56.8191393672184 19.2778214024836  55.8456848801292 19.3698046018992  C 55.8456848801292 19.3698046018992  53.6677867056245 19.1738403944485  53.6677867056245 19.1738403944485  C 53.6677867056245 19.1738403944485  53.6677867056245 16.2943663257853  53.6677867056245 16.2943663257853  C 53.0276166361491 16.3983473338203  51.8726706345176 16.7062910883856  51.291897787983 16.5823137326515  C 51.291897787983 16.5823137326515  49.7079718428888 15.9624269539809  49.7079718428888 15.9624269539809  C 49.0942005391648 15.8464481373265  48.5068280011922 16.1863860482103  47.9260551546577 15.8384495982469  C 47.0416965019801 15.3105460189919  45.7943548202184 13.1549397370343  45.5765650027679 11.9751552227903  C 45.5765650027679 11.9751552227903  45.5765650027679 9.57159422936445  45.5765650027679 9.57159422936445  C 44.9429946247303 9.74756208911606  43.4613638969232 10.5474159970781  43.0587827192117 10.4514335281226  C 42.2668197466646 10.2594685902117  41.8609387232341 8.9477081811541  40.6003976585967 9.09968042366683  C 39.287059062456 9.25165266617967  38.1024144493542 10.3954437545653  37.2345550252713 10.5114225712198  C 37.2345550252713 10.5114225712198  35.0599566964856 10.29546201607  35.0599566964856 10.29546201607  C 34.297692335409 10.2834642074507  32.4167802756095 10.3794466764061  31.7601109775391 10.1394905040175  C 31.7601109775391 10.1394905040175  28.7902498304873 8.37981190650112  28.7902498304873 8.37981190650112  C 28.0378850065675 8.00787983929871  26.5100564386954 7.69593681519348  26.0612774209186 7.27601351351342  C 25.5366019516061 6.78810262965663  25.0317255566074 5.48834002921836  24.556547773079 4.77247078159235  Z " fill-rule="evenodd" />
    </mask>
  </defs>
  <g transform="matrix(1 0 0 1 -474 -2267 )">
    <path d="M 24.556547773079 4.77247078159235  C 24.0186729208908 3.95661979547111  21.5272894030862 0.797196859021142  20.8706201050159 0.213303506208888  C 20.3327452528276 0.781199780861925  19.2536957027321 2.20094046749455  18.4947311873745 1.88899744338931  C 18.0756507810682 1.71302958363759  17.6697697576378 1.03315376186993  17.108795985417 0.929172753834848  C 16.5643214417908 0.829191015339575  16.1980385669877 1.34509678597516  15.3301791429049 1.32110116873628  C 15.3301791429049 1.32110116873628  13.7462531978106 1.12513696128553  13.7462531978106 1.12513696128553  C 13.7462531978106 1.12513696128553  11.568355023306 1.12513696128553  11.568355023306 1.12513696128553  C 11.0172807882419 0.97316471877275  9.90193293523799 0.63722607742875  9.40695607739605 0.845188093498848  C 8.83608276801823 1.0891435354273  8.50939804184259 1.79301497443379  8.20251238998043 2.37290905770629  C 8.95487721390037 2.4169010226442  9.90193293523799 2.45689371804229  10.4530071703021 3.16876369612851  C 10.8555883480134 3.69266800584359  11.0865775483397 4.66848977355733  11.4957584174891 5.1084094229364  C 12.0006348124879 5.65630934989042  12.5121108989246 5.33636778670558  13.0763845168644 5.87626917457993  C 13.4987647688895 6.28019539810077  14.3171265071883 8.14785427319202  14.7362069134945 8.85172571219869  C 14.2313305184957 9.1156775018261  13.4723660031381 9.60358838568294  12.9542902252633 9.64758035062084  C 12.1029300297753 9.72356647187723  11.3604647430122 8.9477081811541  9.9910287696494 10.3874452154857  C 8.25530992148367 12.275100438276  9.82603648370218 12.9669740686632  9.9910287696494 14.614673119065  C 10.0141276896821 15.2745525931336  9.47625283749386 18.7979090577063  10.327613032982 20.3536249086924  C 11.2581695257249 22.0493151935719  12.667203647715 21.901342220599  14.5514155532335 24.6928323593863  C 14.8550013593765 25.1407505478451  15.1783862398333 25.5926680058437  15.3598777543754 26.1325693937181  C 15.9571498295047 27.9322406866326  14.9638962681018 30.4997717311906  14.7362069134945 32.2914444850255  C 14.7362069134945 32.2914444850255  13.1522809684002 31.6195672023374  13.1522809684002 31.6195672023374  C 13.1522809684002 31.6195672023374  11.568355023306 32.6833728999269  11.568355023306 32.6833728999269  C 11.568355023306 32.6833728999269  8.20251238998043 35.5388513513514  8.20251238998043 35.5388513513514  C 8.20251238998043 35.5388513513514  6.53609030191262 35.8467951059167  6.53609030191262 35.8467951059167  C 6.53609030191262 35.8467951059167  5.24915047152348 35.4108747260774  5.24915047152348 35.4108747260774  C 5.24915047152348 35.4108747260774  3.64542545211549 36.6746439006574  3.64542545211549 36.6746439006574  C 3.64542545211549 36.6746439006574  2.06479935274012 36.6746439006574  2.06479935274012 36.6746439006574  C 2.06479935274012 36.6746439006574  0.282882664509089 37.8144357195033  0.282882664509089 37.8144357195033  C 0.639266002155296 38.4583181154127  1.39163082607513 39.5501186997808  1.55662311202241 40.2139974433892  C 1.85030938100863 41.4017804967129  1.03524748842887 44.3732377647917  0.876854893919472 45.7329894083273  C 0.876854893919472 45.7329894083273  2.06479935274012 44.5332085463841  2.06479935274012 44.5332085463841  C 2.06479935274012 44.5332085463841  3.1339493656788 47.0207542001461  3.1339493656788 47.0207542001461  C 3.1339493656788 47.0207542001461  5.03136065407301 48.6644539810079  5.03136065407301 48.6644539810079  C 5.03136065407301 48.6644539810079  5.2326512429288 51.4919375456537  5.2326512429288 51.4919375456537  C 6.95847055393773 50.9480368882395  7.1102634570093 51.1440010956902  8.00452164684378 53.6515430971511  C 9.20566548854021 51.8158783783783  9.00437489968459 49.8762326515704  9.86893447804846 48.684450328707  C 10.8786872680461 47.2927045288531  13.7495530435295 45.149096055515  15.3301791429049 45.1650931336741  C 16.2079381041446 45.1730916727538  16.554421904634 45.7409879474068  17.3067867285538 45.8089755295836  C 17.9238578779968 45.8609660336011  19.4648858287447 45.2850712198684  20.0786571324688 45.0131208911614  C 19.880666389332 44.4692202337473  19.3658904571764 43.3894174579985  19.3955890686469 42.8535153396639  C 19.5539816631562 40.0900200876551  23.3158057827552 40.3659696859021  24.8271351220326 40.7738951789627  C 26.0282789637292 41.0978360116873  26.0315788094481 42.0656592403213  26.8433408563089 42.4695854638421  C 27.3020194112426 42.6975438276113  29.1697320881661 42.6095598977355  29.7802035461712 42.6135591672754  C 32.0867957037149 42.6335555149744  31.7799100518528 43.969311541271  33.5420276657703 45.1530953250548  C 33.9347093063249 45.4170471146822  35.0104590107014 45.7849799123447  35.4559381827592 45.844968955442  C 36.3501963725937 45.9529492330168  38.660088375856 45.2890704894083  39.3728550511486 44.6051953981008  C 39.8282337603632 44.1652757487217  40.1120204921925 43.461404309715  40.4024069154599 42.8535153396639  C 40.5871982757209 43.6213750913074  40.9039834647397 46.2648922571219  41.4781566198364 46.5328433162892  C 41.8279402660447 46.6968133674214  42.6232030843108 46.3848703433162  42.976286576238 46.2368973703433  C 43.3590686796359 46.0769265887509  43.593357725681 45.9649470416361  43.903543223262 45.6290084002922  C 44.520614372705 44.9651296566836  44.949594316168 43.5653853177502  45.6425619171468 43.3734203798393  C 47.1241926449538 42.957496347699  48.2725389551471 45.5970142439737  48.279138646585 46.5928323593864  C 48.279138646585 47.0527483564645  47.5333735141031 48.772434258583  47.3320829252473 49.3323319941563  C 47.3320829252473 49.3323319941563  50.6979255585728 51.4919375456537  50.6979255585728 51.4919375456537  C 51.5294866797472 49.1763604821037  51.5360863711851 49.8562363038714  53.0738144762141 48.8004291453616  C 53.8888763687938 48.2405314097882  54.1627635634665 47.6246439006574  55.053721907582 47.1247352081812  C 55.053721907582 47.1247352081812  58.2116742606137 45.6809989043097  58.2116742606137 45.6809989043097  C 59.0069370788798 45.1091033601169  59.251125662082 44.3612399561724  60.0034904860017 43.7413531775018  C 60.7327563898889 43.1374634769904  61.4719218309328 43.1374634769904  62.1450903575979 42.4895818115413  C 62.755561815603 41.9056884587289  63.3924320393596 40.6219229364499  63.9930039602079 40.2339937910883  C 64.8311647728203 39.6580989773557  66.2302993576536 40.1300127830533  67.127857393207 40.2339937910883  C 70.2924094376767 40.6499178232286  68.4444958350667 35.7668097151205  67.5931356395785 34.2150931336742  C 67.3027492163112 33.6871895544193  67.0948589360176 33.3792457998538  66.9034678843187 32.7713568298028  C 66.2995961177514 30.8597059897735  66.391991797882 29.8518900657414  64.9499592187024 28.2121895544192  C 66.2039005919021 26.30053871439  66.1379036775231 25.8446219868517  66.1379036775231 23.4930514974434  C 65.3030427106295 23.2211011687363  63.2406391362881 22.2812728268809  62.5740703010609 21.6933802045288  C 61.6402139625991 20.8735299488677  60.5479650296277 19.1938367421475  59.4062184108723 18.8179054054053  C 58.5581580611031 18.5379565376186  56.8191393672184 19.2778214024836  55.8456848801292 19.3698046018992  C 55.8456848801292 19.3698046018992  53.6677867056245 19.1738403944485  53.6677867056245 19.1738403944485  C 53.6677867056245 19.1738403944485  53.6677867056245 16.2943663257853  53.6677867056245 16.2943663257853  C 53.0276166361491 16.3983473338203  51.8726706345176 16.7062910883856  51.291897787983 16.5823137326515  C 51.291897787983 16.5823137326515  49.7079718428888 15.9624269539809  49.7079718428888 15.9624269539809  C 49.0942005391648 15.8464481373265  48.5068280011922 16.1863860482103  47.9260551546577 15.8384495982469  C 47.0416965019801 15.3105460189919  45.7943548202184 13.1549397370343  45.5765650027679 11.9751552227903  C 45.5765650027679 11.9751552227903  45.5765650027679 9.57159422936445  45.5765650027679 9.57159422936445  C 44.9429946247303 9.74756208911606  43.4613638969232 10.5474159970781  43.0587827192117 10.4514335281226  C 42.2668197466646 10.2594685902117  41.8609387232341 8.9477081811541  40.6003976585967 9.09968042366683  C 39.287059062456 9.25165266617967  38.1024144493542 10.3954437545653  37.2345550252713 10.5114225712198  C 37.2345550252713 10.5114225712198  35.0599566964856 10.29546201607  35.0599566964856 10.29546201607  C 34.297692335409 10.2834642074507  32.4167802756095 10.3794466764061  31.7601109775391 10.1394905040175  C 31.7601109775391 10.1394905040175  28.7902498304873 8.37981190650112  28.7902498304873 8.37981190650112  C 28.0378850065675 8.00787983929871  26.5100564386954 7.69593681519348  26.0612774209186 7.27601351351342  C 25.5366019516061 6.78810262965663  25.0317255566074 5.48834002921836  24.556547773079 4.77247078159235  Z " fill-rule="nonzero" fill="#2d79b4" stroke="none" transform="matrix(1 0 0 1 474 2267 )" />
    <path d="M 24.556547773079 4.77247078159235  C 24.0186729208908 3.95661979547111  21.5272894030862 0.797196859021142  20.8706201050159 0.213303506208888  C 20.3327452528276 0.781199780861925  19.2536957027321 2.20094046749455  18.4947311873745 1.88899744338931  C 18.0756507810682 1.71302958363759  17.6697697576378 1.03315376186993  17.108795985417 0.929172753834848  C 16.5643214417908 0.829191015339575  16.1980385669877 1.34509678597516  15.3301791429049 1.32110116873628  C 15.3301791429049 1.32110116873628  13.7462531978106 1.12513696128553  13.7462531978106 1.12513696128553  C 13.7462531978106 1.12513696128553  11.568355023306 1.12513696128553  11.568355023306 1.12513696128553  C 11.0172807882419 0.97316471877275  9.90193293523799 0.63722607742875  9.40695607739605 0.845188093498848  C 8.83608276801823 1.0891435354273  8.50939804184259 1.79301497443379  8.20251238998043 2.37290905770629  C 8.95487721390037 2.4169010226442  9.90193293523799 2.45689371804229  10.4530071703021 3.16876369612851  C 10.8555883480134 3.69266800584359  11.0865775483397 4.66848977355733  11.4957584174891 5.1084094229364  C 12.0006348124879 5.65630934989042  12.5121108989246 5.33636778670558  13.0763845168644 5.87626917457993  C 13.4987647688895 6.28019539810077  14.3171265071883 8.14785427319202  14.7362069134945 8.85172571219869  C 14.2313305184957 9.1156775018261  13.4723660031381 9.60358838568294  12.9542902252633 9.64758035062084  C 12.1029300297753 9.72356647187723  11.3604647430122 8.9477081811541  9.9910287696494 10.3874452154857  C 8.25530992148367 12.275100438276  9.82603648370218 12.9669740686632  9.9910287696494 14.614673119065  C 10.0141276896821 15.2745525931336  9.47625283749386 18.7979090577063  10.327613032982 20.3536249086924  C 11.2581695257249 22.0493151935719  12.667203647715 21.901342220599  14.5514155532335 24.6928323593863  C 14.8550013593765 25.1407505478451  15.1783862398333 25.5926680058437  15.3598777543754 26.1325693937181  C 15.9571498295047 27.9322406866326  14.9638962681018 30.4997717311906  14.7362069134945 32.2914444850255  C 14.7362069134945 32.2914444850255  13.1522809684002 31.6195672023374  13.1522809684002 31.6195672023374  C 13.1522809684002 31.6195672023374  11.568355023306 32.6833728999269  11.568355023306 32.6833728999269  C 11.568355023306 32.6833728999269  8.20251238998043 35.5388513513514  8.20251238998043 35.5388513513514  C 8.20251238998043 35.5388513513514  6.53609030191262 35.8467951059167  6.53609030191262 35.8467951059167  C 6.53609030191262 35.8467951059167  5.24915047152348 35.4108747260774  5.24915047152348 35.4108747260774  C 5.24915047152348 35.4108747260774  3.64542545211549 36.6746439006574  3.64542545211549 36.6746439006574  C 3.64542545211549 36.6746439006574  2.06479935274012 36.6746439006574  2.06479935274012 36.6746439006574  C 2.06479935274012 36.6746439006574  0.282882664509089 37.8144357195033  0.282882664509089 37.8144357195033  C 0.639266002155296 38.4583181154127  1.39163082607513 39.5501186997808  1.55662311202241 40.2139974433892  C 1.85030938100863 41.4017804967129  1.03524748842887 44.3732377647917  0.876854893919472 45.7329894083273  C 0.876854893919472 45.7329894083273  2.06479935274012 44.5332085463841  2.06479935274012 44.5332085463841  C 2.06479935274012 44.5332085463841  3.1339493656788 47.0207542001461  3.1339493656788 47.0207542001461  C 3.1339493656788 47.0207542001461  5.03136065407301 48.6644539810079  5.03136065407301 48.6644539810079  C 5.03136065407301 48.6644539810079  5.2326512429288 51.4919375456537  5.2326512429288 51.4919375456537  C 6.95847055393773 50.9480368882395  7.1102634570093 51.1440010956902  8.00452164684378 53.6515430971511  C 9.20566548854021 51.8158783783783  9.00437489968459 49.8762326515704  9.86893447804846 48.684450328707  C 10.8786872680461 47.2927045288531  13.7495530435295 45.149096055515  15.3301791429049 45.1650931336741  C 16.2079381041446 45.1730916727538  16.554421904634 45.7409879474068  17.3067867285538 45.8089755295836  C 17.9238578779968 45.8609660336011  19.4648858287447 45.2850712198684  20.0786571324688 45.0131208911614  C 19.880666389332 44.4692202337473  19.3658904571764 43.3894174579985  19.3955890686469 42.8535153396639  C 19.5539816631562 40.0900200876551  23.3158057827552 40.3659696859021  24.8271351220326 40.7738951789627  C 26.0282789637292 41.0978360116873  26.0315788094481 42.0656592403213  26.8433408563089 42.4695854638421  C 27.3020194112426 42.6975438276113  29.1697320881661 42.6095598977355  29.7802035461712 42.6135591672754  C 32.0867957037149 42.6335555149744  31.7799100518528 43.969311541271  33.5420276657703 45.1530953250548  C 33.9347093063249 45.4170471146822  35.0104590107014 45.7849799123447  35.4559381827592 45.844968955442  C 36.3501963725937 45.9529492330168  38.660088375856 45.2890704894083  39.3728550511486 44.6051953981008  C 39.8282337603632 44.1652757487217  40.1120204921925 43.461404309715  40.4024069154599 42.8535153396639  C 40.5871982757209 43.6213750913074  40.9039834647397 46.2648922571219  41.4781566198364 46.5328433162892  C 41.8279402660447 46.6968133674214  42.6232030843108 46.3848703433162  42.976286576238 46.2368973703433  C 43.3590686796359 46.0769265887509  43.593357725681 45.9649470416361  43.903543223262 45.6290084002922  C 44.520614372705 44.9651296566836  44.949594316168 43.5653853177502  45.6425619171468 43.3734203798393  C 47.1241926449538 42.957496347699  48.2725389551471 45.5970142439737  48.279138646585 46.5928323593864  C 48.279138646585 47.0527483564645  47.5333735141031 48.772434258583  47.3320829252473 49.3323319941563  C 47.3320829252473 49.3323319941563  50.6979255585728 51.4919375456537  50.6979255585728 51.4919375456537  C 51.5294866797472 49.1763604821037  51.5360863711851 49.8562363038714  53.0738144762141 48.8004291453616  C 53.8888763687938 48.2405314097882  54.1627635634665 47.6246439006574  55.053721907582 47.1247352081812  C 55.053721907582 47.1247352081812  58.2116742606137 45.6809989043097  58.2116742606137 45.6809989043097  C 59.0069370788798 45.1091033601169  59.251125662082 44.3612399561724  60.0034904860017 43.7413531775018  C 60.7327563898889 43.1374634769904  61.4719218309328 43.1374634769904  62.1450903575979 42.4895818115413  C 62.755561815603 41.9056884587289  63.3924320393596 40.6219229364499  63.9930039602079 40.2339937910883  C 64.8311647728203 39.6580989773557  66.2302993576536 40.1300127830533  67.127857393207 40.2339937910883  C 70.2924094376767 40.6499178232286  68.4444958350667 35.7668097151205  67.5931356395785 34.2150931336742  C 67.3027492163112 33.6871895544193  67.0948589360176 33.3792457998538  66.9034678843187 32.7713568298028  C 66.2995961177514 30.8597059897735  66.391991797882 29.8518900657414  64.9499592187024 28.2121895544192  C 66.2039005919021 26.30053871439  66.1379036775231 25.8446219868517  66.1379036775231 23.4930514974434  C 65.3030427106295 23.2211011687363  63.2406391362881 22.2812728268809  62.5740703010609 21.6933802045288  C 61.6402139625991 20.8735299488677  60.5479650296277 19.1938367421475  59.4062184108723 18.8179054054053  C 58.5581580611031 18.5379565376186  56.8191393672184 19.2778214024836  55.8456848801292 19.3698046018992  C 55.8456848801292 19.3698046018992  53.6677867056245 19.1738403944485  53.6677867056245 19.1738403944485  C 53.6677867056245 19.1738403944485  53.6677867056245 16.2943663257853  53.6677867056245 16.2943663257853  C 53.0276166361491 16.3983473338203  51.8726706345176 16.7062910883856  51.291897787983 16.5823137326515  C 51.291897787983 16.5823137326515  49.7079718428888 15.9624269539809  49.7079718428888 15.9624269539809  C 49.0942005391648 15.8464481373265  48.5068280011922 16.1863860482103  47.9260551546577 15.8384495982469  C 47.0416965019801 15.3105460189919  45.7943548202184 13.1549397370343  45.5765650027679 11.9751552227903  C 45.5765650027679 11.9751552227903  45.5765650027679 9.57159422936445  45.5765650027679 9.57159422936445  C 44.9429946247303 9.74756208911606  43.4613638969232 10.5474159970781  43.0587827192117 10.4514335281226  C 42.2668197466646 10.2594685902117  41.8609387232341 8.9477081811541  40.6003976585967 9.09968042366683  C 39.287059062456 9.25165266617967  38.1024144493542 10.3954437545653  37.2345550252713 10.5114225712198  C 37.2345550252713 10.5114225712198  35.0599566964856 10.29546201607  35.0599566964856 10.29546201607  C 34.297692335409 10.2834642074507  32.4167802756095 10.3794466764061  31.7601109775391 10.1394905040175  C 31.7601109775391 10.1394905040175  28.7902498304873 8.37981190650112  28.7902498304873 8.37981190650112  C 28.0378850065675 8.00787983929871  26.5100564386954 7.69593681519348  26.0612774209186 7.27601351351342  C 25.5366019516061 6.78810262965663  25.0317255566074 5.48834002921836  24.556547773079 4.77247078159235  Z " stroke-width="2.13294375456538" stroke="#ffffff" fill="none" transform="matrix(1 0 0 1 474 2267 )" mask="url(#clip39)" />
  </g>
</svg>