<?xml version="1.0" encoding="utf-8"?>
<svg version="1.1" xmlns:xlink="http://www.w3.org/1999/xlink" width="49px" height="69px" xmlns="http://www.w3.org/2000/svg">
  <defs>
    <mask fill="white" id="clip38">
      <path d="M 13.1569831994156 2.58258032068397  C 13.219038531775 3.22998119963114  13.8265275748722 4.22721982061813  14.1400703067933 4.75398699541358  C 14.1400703067933 4.75398699541358  11.2006071950329 5.46572584990827  11.2006071950329 5.46572584990827  C 10.5179985390796 5.45768360296489  10.2077218772827 5.08371912009483  9.63289353542729 4.91483193428246  C 9.0678634039445 4.74996587194187  8.03905131482833 4.97112766288654  7.48055332359388 5.18424720688785  C 6.7587518261505 5.46572584990827  6.14146457268077 6.01259864206253  5.52091124908691 6.52328132297112  C 4.99834002921841 6.95354153444544  4.07730825420003 7.66930151241172  3.69844411979551 8.244322168868  C 3.25752465303134 8.91584978864546  3.08115686632573 10.1784825587661  2.83620160701247 11.0269396112994  C 2.21238221329429 13.1822617921421  1.99682158509859 12.6072411356859  1.99355551497439 15.1284855524555  C 1.98702337472605 19.3184962099892  2.40181428049669 21.2687410937742  3.01256939371802 25.2657378246655  C 3.01256939371802 25.2657378246655  3.20853360116871 28.1609467243051  3.20853360116871 28.1609467243051  C 3.37183710737764 29.4557484821995  4.19488677867054 30.5052617083187  4.14916179693199 31.6070495395705  C 4.07077611395175 33.5371888059969  3.15954254930608 34.1282939563401  2.29403396639873 35.3627788621586  C 1.55916818845873 36.4002287178627  0.540154309715092 38.8129028008957  0.229877647918158 40.1479157935071  C 0.229877647918158 40.1479157935071  2.5814481373265 39.5367050258056  2.5814481373265 39.5367050258056  C 2.96357834185534 39.3879234573519  3.68211376917458 38.9496209989341  4.06097790357927 39.0863391969727  C 4.9656793279766 39.4040079512387  6.30476807888971 41.9614424792537  5.20736851716583 43.7146523129243  C 4.86116508400289 44.2655462285501  4.07404218407589 44.643531834892  3.56126917457993 44.9732639595732  C 4.45943845872893 47.5548252284185  4.12629930606289 46.493248631884  3.56126917457993 49.0748099007292  C 3.56126917457993 49.0748099007292  5.32494704163616 49.3160773090326  5.32494704163616 49.3160773090326  C 5.32494704163616 50.9003999568908  5.0375328707085 52.3922367648996  6.1186020818115 53.5060879665664  C 6.53992512783054 53.9363481780406  6.93185354273192 54.2861859200805  7.48055332359388 53.9644960423427  C 8.26441015339668 53.498045719623  9.19197406866317 51.5236740950077  9.83865595325057 51.3949981439125  C 10.6747699050402 51.2261109581003  11.0405697589482 52.8023913590151  12.3763924397369 52.3319199128238  C 14.1400703067933 51.7166880216503  14.4928058802045 49.9192458297908  15.5150858290722 49.2839083212588  C 16.151969503287 48.9622184435211  16.6026871804237 49.3924786549952  17.4714618334551 49.2839083212588  C 18.9967165814463 48.9501550731058  18.3402364864864 48.3550287992911  21.1947817750183 48.3510076758193  C 21.2666353177502 49.4648588774861  21.5703798392988 53.2889472990934  22.4489527027027 53.7071441401525  C 22.7690275748721 53.9202636841538  23.7325182615048 53.6991018932091  24.1342448867786 53.7071441401525  C 24.1342448867786 53.7071441401525  22.8474132578525 56.0715647415248  22.8474132578525 56.0715647415248  C 22.8474132578525 56.0715647415248  22.5338705259314 58.7255062328612  22.5338705259314 58.7255062328612  C 22.5338705259314 58.7255062328612  20.1855661066471 62.8310732974888  20.1855661066471 62.8310732974888  C 20.1855661066471 62.8310732974888  20.0189965303141 65.9675496054317  20.0189965303141 65.9675496054317  C 22.4750812636961 64.0494737094205  21.0706711102994 64.5681986372726  24.1342448867786 63.3136081140954  C 24.1342448867786 63.3136081140954  24.8527803140979 68.8627585050713  24.8527803140979 68.8627585050713  C 25.4929300584367 68.7139769366176  26.2245297662528 68.5692164916356  26.8124223886048 68.2153576261241  C 27.2729382761139 67.9338789831035  27.860830898466 67.3307104623452  28.2952182249817 67.2060556347218  C 28.9549643900658 67.0170628315511  29.5787837837838 67.6604425870265  30.1862728268809 67.0291262019662  C 31.3457277209642 65.8227891604497  31.120368882396 63.5307487815684  31.120368882396 61.8660036642756  C 31.8487025200876 61.8660036642756  34.9253405770636 61.7574333305392  35.3923886048211 62.0107641092577  C 36.0880615412709 62.3847285921278  36.104391891892 63.3819672131147  36.5485774287801 63.8926498940234  C 37.02542366691 64.4395226861774  38.3187874360847 64.2786777473086  38.9589371804237 64.2786777473086  C 38.6682569393718 61.6287573794442  38.3743106281957 61.3874899711408  37.1952593133674 59.2080410494676  C 37.8582715485755 59.0029637524099  39.0111943024105 58.8461399370128  39.5468298027757 58.4922810715011  C 40.2229063184806 58.0378941191967  40.6605597151205 57.1492258319462  41.1961952154857 57.18139481972  C 41.4738111760408 57.1934581901352  42.1825483929874 57.7805422170065  42.4862929145362 57.961492773234  C 43.492242512783 58.5525979235771  45.6217202337472 59.2281466668262  46.532953798393 58.1705911937635  C 47.6728122717312 56.8436204480954  46.8889554419284 55.2512555532936  47.029396457268 53.6588906584918  C 47.1829017531044 51.9177441952364  48.1888513513513 49.7302530266198  48.7571475529584 48.109740267516  C 46.532953798393 47.6513321917398  47.4376552227903 46.2841502113544  47.0849196493792 44.2494617346633  C 46.6603305332359 41.7804919230263  45.781757669832 41.3462105880802  45.582527392257 40.3891832018106  C 45.4159578159241 39.4603036798429  45.9548593864134 38.7163958375743  45.582527392257 37.248685770396  C 45.3963613951789 36.5852003975619  44.9227812271731 34.8159060700043  44.5439170927684 34.3213078829825  C 43.5804264061358 33.058675112862  42.2217412344777 32.8897879270498  42.2217412344777 30.5736208073381  C 42.2217412344777 29.9101354345041  42.5614125273922 29.0455938880839  42.741046384222 28.4022141326084  C 43.0055980642804 27.4693134871691  43.2603515339664 25.8045683698763  43.7600602629656 25.1169562562118  C 43.7600602629656 25.1169562562118  44.9913686997809 23.9628938198277  44.9913686997809 23.9628938198277  C 45.3245078524471 23.5889293369576  46.8040376186997 20.9349878456214  46.9542768444119 20.4403896585996  C 47.3004802775748 19.3104539630459  46.5460180788897 18.6308840963248  46.3075949598246 17.54518075896  C 46.1214289627465 16.7128082003137  46.314127100073 16.0091115927623  46.0430432797662 15.1284855524555  C 45.8862719138057 14.6178028715466  45.4845452885317 13.9100851405237  45.2297918188459 13.4396136943323  C 43.730665631848 10.6650384988444  42.9533409422936 10.2910740159742  40.5266508400292 8.85553293656972  C 41.3366362308253 7.10634422637077  41.8984002921841 6.4227532361781  41.0622863403944 4.51674071058204  C 40.853257852447 4.0422481409189  40.6801561358657 3.66426253457701  40.2882277209642 3.38278389155653  C 39.974684989043 3.15357985366836  39.1581674579985 2.95252368008227  38.762972972973 2.82384772898735  C 37.4304163623082 5.28477529368087  36.9796986851716 6.16540133398792  34.4517604090577 6.44285885353673  C 34.4517604090577 6.44285885353673  33.8638677867056 2.82384772898735  33.8638677867056 2.82384772898735  C 33.5405268444119 3.31442479253735  33.2629108838569 3.897487695937  32.8448539079619 4.27547330227878  C 31.469838385683 5.5059370846256  29.0888732651571 5.91609167874117  27.5962792184075 4.89472631692382  C 25.662765704894 3.57981894167091  25.9697762965668 2.34935515932403  23.3503880569758 2.34131291238071  C 22.6416508400292 2.33729178890888  20.9988175675676 2.46998886347575  20.4272552958364 2.09602438060563  C 19.669527027027 1.60142619358379  19.6107377647918 0.756990264522415  18.4512828707086 0.519743979690759  C 17.3048922571219 0.169906237650935  15.4269019357195 -0.00300207163309096  14.3393005843681 0.519743979690759  C 13.7285454711468 0.905771832976029  13.0687993060628 1.68989090996166  13.1569831994156 2.58258032068397  Z " fill-rule="evenodd" />
    </mask>
  </defs>
  <g transform="matrix(1 0 0 1 -482 -2306 )">
    <path d="M 13.1569831994156 2.58258032068397  C 13.219038531775 3.22998119963114  13.8265275748722 4.22721982061813  14.1400703067933 4.75398699541358  C 14.1400703067933 4.75398699541358  11.2006071950329 5.46572584990827  11.2006071950329 5.46572584990827  C 10.5179985390796 5.45768360296489  10.2077218772827 5.08371912009483  9.63289353542729 4.91483193428246  C 9.0678634039445 4.74996587194187  8.03905131482833 4.97112766288654  7.48055332359388 5.18424720688785  C 6.7587518261505 5.46572584990827  6.14146457268077 6.01259864206253  5.52091124908691 6.52328132297112  C 4.99834002921841 6.95354153444544  4.07730825420003 7.66930151241172  3.69844411979551 8.244322168868  C 3.25752465303134 8.91584978864546  3.08115686632573 10.1784825587661  2.83620160701247 11.0269396112994  C 2.21238221329429 13.1822617921421  1.99682158509859 12.6072411356859  1.99355551497439 15.1284855524555  C 1.98702337472605 19.3184962099892  2.40181428049669 21.2687410937742  3.01256939371802 25.2657378246655  C 3.01256939371802 25.2657378246655  3.20853360116871 28.1609467243051  3.20853360116871 28.1609467243051  C 3.37183710737764 29.4557484821995  4.19488677867054 30.5052617083187  4.14916179693199 31.6070495395705  C 4.07077611395175 33.5371888059969  3.15954254930608 34.1282939563401  2.29403396639873 35.3627788621586  C 1.55916818845873 36.4002287178627  0.540154309715092 38.8129028008957  0.229877647918158 40.1479157935071  C 0.229877647918158 40.1479157935071  2.5814481373265 39.5367050258056  2.5814481373265 39.5367050258056  C 2.96357834185534 39.3879234573519  3.68211376917458 38.9496209989341  4.06097790357927 39.0863391969727  C 4.9656793279766 39.4040079512387  6.30476807888971 41.9614424792537  5.20736851716583 43.7146523129243  C 4.86116508400289 44.2655462285501  4.07404218407589 44.643531834892  3.56126917457993 44.9732639595732  C 4.45943845872893 47.5548252284185  4.12629930606289 46.493248631884  3.56126917457993 49.0748099007292  C 3.56126917457993 49.0748099007292  5.32494704163616 49.3160773090326  5.32494704163616 49.3160773090326  C 5.32494704163616 50.9003999568908  5.0375328707085 52.3922367648996  6.1186020818115 53.5060879665664  C 6.53992512783054 53.9363481780406  6.93185354273192 54.2861859200805  7.48055332359388 53.9644960423427  C 8.26441015339668 53.498045719623  9.19197406866317 51.5236740950077  9.83865595325057 51.3949981439125  C 10.6747699050402 51.2261109581003  11.0405697589482 52.8023913590151  12.3763924397369 52.3319199128238  C 14.1400703067933 51.7166880216503  14.4928058802045 49.9192458297908  15.5150858290722 49.2839083212588  C 16.151969503287 48.9622184435211  16.6026871804237 49.3924786549952  17.4714618334551 49.2839083212588  C 18.9967165814463 48.9501550731058  18.3402364864864 48.3550287992911  21.1947817750183 48.3510076758193  C 21.2666353177502 49.4648588774861  21.5703798392988 53.2889472990934  22.4489527027027 53.7071441401525  C 22.7690275748721 53.9202636841538  23.7325182615048 53.6991018932091  24.1342448867786 53.7071441401525  C 24.1342448867786 53.7071441401525  22.8474132578525 56.0715647415248  22.8474132578525 56.0715647415248  C 22.8474132578525 56.0715647415248  22.5338705259314 58.7255062328612  22.5338705259314 58.7255062328612  C 22.5338705259314 58.7255062328612  20.1855661066471 62.8310732974888  20.1855661066471 62.8310732974888  C 20.1855661066471 62.8310732974888  20.0189965303141 65.9675496054317  20.0189965303141 65.9675496054317  C 22.4750812636961 64.0494737094205  21.0706711102994 64.5681986372726  24.1342448867786 63.3136081140954  C 24.1342448867786 63.3136081140954  24.8527803140979 68.8627585050713  24.8527803140979 68.8627585050713  C 25.4929300584367 68.7139769366176  26.2245297662528 68.5692164916356  26.8124223886048 68.2153576261241  C 27.2729382761139 67.9338789831035  27.860830898466 67.3307104623452  28.2952182249817 67.2060556347218  C 28.9549643900658 67.0170628315511  29.5787837837838 67.6604425870265  30.1862728268809 67.0291262019662  C 31.3457277209642 65.8227891604497  31.120368882396 63.5307487815684  31.120368882396 61.8660036642756  C 31.8487025200876 61.8660036642756  34.9253405770636 61.7574333305392  35.3923886048211 62.0107641092577  C 36.0880615412709 62.3847285921278  36.104391891892 63.3819672131147  36.5485774287801 63.8926498940234  C 37.02542366691 64.4395226861774  38.3187874360847 64.2786777473086  38.9589371804237 64.2786777473086  C 38.6682569393718 61.6287573794442  38.3743106281957 61.3874899711408  37.1952593133674 59.2080410494676  C 37.8582715485755 59.0029637524099  39.0111943024105 58.8461399370128  39.5468298027757 58.4922810715011  C 40.2229063184806 58.0378941191967  40.6605597151205 57.1492258319462  41.1961952154857 57.18139481972  C 41.4738111760408 57.1934581901352  42.1825483929874 57.7805422170065  42.4862929145362 57.961492773234  C 43.492242512783 58.5525979235771  45.6217202337472 59.2281466668262  46.532953798393 58.1705911937635  C 47.6728122717312 56.8436204480954  46.8889554419284 55.2512555532936  47.029396457268 53.6588906584918  C 47.1829017531044 51.9177441952364  48.1888513513513 49.7302530266198  48.7571475529584 48.109740267516  C 46.532953798393 47.6513321917398  47.4376552227903 46.2841502113544  47.0849196493792 44.2494617346633  C 46.6603305332359 41.7804919230263  45.781757669832 41.3462105880802  45.582527392257 40.3891832018106  C 45.4159578159241 39.4603036798429  45.9548593864134 38.7163958375743  45.582527392257 37.248685770396  C 45.3963613951789 36.5852003975619  44.9227812271731 34.8159060700043  44.5439170927684 34.3213078829825  C 43.5804264061358 33.058675112862  42.2217412344777 32.8897879270498  42.2217412344777 30.5736208073381  C 42.2217412344777 29.9101354345041  42.5614125273922 29.0455938880839  42.741046384222 28.4022141326084  C 43.0055980642804 27.4693134871691  43.2603515339664 25.8045683698763  43.7600602629656 25.1169562562118  C 43.7600602629656 25.1169562562118  44.9913686997809 23.9628938198277  44.9913686997809 23.9628938198277  C 45.3245078524471 23.5889293369576  46.8040376186997 20.9349878456214  46.9542768444119 20.4403896585996  C 47.3004802775748 19.3104539630459  46.5460180788897 18.6308840963248  46.3075949598246 17.54518075896  C 46.1214289627465 16.7128082003137  46.314127100073 16.0091115927623  46.0430432797662 15.1284855524555  C 45.8862719138057 14.6178028715466  45.4845452885317 13.9100851405237  45.2297918188459 13.4396136943323  C 43.730665631848 10.6650384988444  42.9533409422936 10.2910740159742  40.5266508400292 8.85553293656972  C 41.3366362308253 7.10634422637077  41.8984002921841 6.4227532361781  41.0622863403944 4.51674071058204  C 40.853257852447 4.0422481409189  40.6801561358657 3.66426253457701  40.2882277209642 3.38278389155653  C 39.974684989043 3.15357985366836  39.1581674579985 2.95252368008227  38.762972972973 2.82384772898735  C 37.4304163623082 5.28477529368087  36.9796986851716 6.16540133398792  34.4517604090577 6.44285885353673  C 34.4517604090577 6.44285885353673  33.8638677867056 2.82384772898735  33.8638677867056 2.82384772898735  C 33.5405268444119 3.31442479253735  33.2629108838569 3.897487695937  32.8448539079619 4.27547330227878  C 31.469838385683 5.5059370846256  29.0888732651571 5.91609167874117  27.5962792184075 4.89472631692382  C 25.662765704894 3.57981894167091  25.9697762965668 2.34935515932403  23.3503880569758 2.34131291238071  C 22.6416508400292 2.33729178890888  20.9988175675676 2.46998886347575  20.4272552958364 2.09602438060563  C 19.669527027027 1.60142619358379  19.6107377647918 0.756990264522415  18.4512828707086 0.519743979690759  C 17.3048922571219 0.169906237650935  15.4269019357195 -0.00300207163309096  14.3393005843681 0.519743979690759  C 13.7285454711468 0.905771832976029  13.0687993060628 1.68989090996166  13.1569831994156 2.58258032068397  Z " fill-rule="nonzero" fill="#1c8dff" stroke="none" transform="matrix(1 0 0 1 482 2306 )" />
    <path d="M 13.1569831994156 2.58258032068397  C 13.219038531775 3.22998119963114  13.8265275748722 4.22721982061813  14.1400703067933 4.75398699541358  C 14.1400703067933 4.75398699541358  11.2006071950329 5.46572584990827  11.2006071950329 5.46572584990827  C 10.5179985390796 5.45768360296489  10.2077218772827 5.08371912009483  9.63289353542729 4.91483193428246  C 9.0678634039445 4.74996587194187  8.03905131482833 4.97112766288654  7.48055332359388 5.18424720688785  C 6.7587518261505 5.46572584990827  6.14146457268077 6.01259864206253  5.52091124908691 6.52328132297112  C 4.99834002921841 6.95354153444544  4.07730825420003 7.66930151241172  3.69844411979551 8.244322168868  C 3.25752465303134 8.91584978864546  3.08115686632573 10.1784825587661  2.83620160701247 11.0269396112994  C 2.21238221329429 13.1822617921421  1.99682158509859 12.6072411356859  1.99355551497439 15.1284855524555  C 1.98702337472605 19.3184962099892  2.40181428049669 21.2687410937742  3.01256939371802 25.2657378246655  C 3.01256939371802 25.2657378246655  3.20853360116871 28.1609467243051  3.20853360116871 28.1609467243051  C 3.37183710737764 29.4557484821995  4.19488677867054 30.5052617083187  4.14916179693199 31.6070495395705  C 4.07077611395175 33.5371888059969  3.15954254930608 34.1282939563401  2.29403396639873 35.3627788621586  C 1.55916818845873 36.4002287178627  0.540154309715092 38.8129028008957  0.229877647918158 40.1479157935071  C 0.229877647918158 40.1479157935071  2.5814481373265 39.5367050258056  2.5814481373265 39.5367050258056  C 2.96357834185534 39.3879234573519  3.68211376917458 38.9496209989341  4.06097790357927 39.0863391969727  C 4.9656793279766 39.4040079512387  6.30476807888971 41.9614424792537  5.20736851716583 43.7146523129243  C 4.86116508400289 44.2655462285501  4.07404218407589 44.643531834892  3.56126917457993 44.9732639595732  C 4.45943845872893 47.5548252284185  4.12629930606289 46.493248631884  3.56126917457993 49.0748099007292  C 3.56126917457993 49.0748099007292  5.32494704163616 49.3160773090326  5.32494704163616 49.3160773090326  C 5.32494704163616 50.9003999568908  5.0375328707085 52.3922367648996  6.1186020818115 53.5060879665664  C 6.53992512783054 53.9363481780406  6.93185354273192 54.2861859200805  7.48055332359388 53.9644960423427  C 8.26441015339668 53.498045719623  9.19197406866317 51.5236740950077  9.83865595325057 51.3949981439125  C 10.6747699050402 51.2261109581003  11.0405697589482 52.8023913590151  12.3763924397369 52.3319199128238  C 14.1400703067933 51.7166880216503  14.4928058802045 49.9192458297908  15.5150858290722 49.2839083212588  C 16.151969503287 48.9622184435211  16.6026871804237 49.3924786549952  17.4714618334551 49.2839083212588  C 18.9967165814463 48.9501550731058  18.3402364864864 48.3550287992911  21.1947817750183 48.3510076758193  C 21.2666353177502 49.4648588774861  21.5703798392988 53.2889472990934  22.4489527027027 53.7071441401525  C 22.7690275748721 53.9202636841538  23.7325182615048 53.6991018932091  24.1342448867786 53.7071441401525  C 24.1342448867786 53.7071441401525  22.8474132578525 56.0715647415248  22.8474132578525 56.0715647415248  C 22.8474132578525 56.0715647415248  22.5338705259314 58.7255062328612  22.5338705259314 58.7255062328612  C 22.5338705259314 58.7255062328612  20.1855661066471 62.8310732974888  20.1855661066471 62.8310732974888  C 20.1855661066471 62.8310732974888  20.0189965303141 65.9675496054317  20.0189965303141 65.9675496054317  C 22.4750812636961 64.0494737094205  21.0706711102994 64.5681986372726  24.1342448867786 63.3136081140954  C 24.1342448867786 63.3136081140954  24.8527803140979 68.8627585050713  24.8527803140979 68.8627585050713  C 25.4929300584367 68.7139769366176  26.2245297662528 68.5692164916356  26.8124223886048 68.2153576261241  C 27.2729382761139 67.9338789831035  27.860830898466 67.3307104623452  28.2952182249817 67.2060556347218  C 28.9549643900658 67.0170628315511  29.5787837837838 67.6604425870265  30.1862728268809 67.0291262019662  C 31.3457277209642 65.8227891604497  31.120368882396 63.5307487815684  31.120368882396 61.8660036642756  C 31.8487025200876 61.8660036642756  34.9253405770636 61.7574333305392  35.3923886048211 62.0107641092577  C 36.0880615412709 62.3847285921278  36.104391891892 63.3819672131147  36.5485774287801 63.8926498940234  C 37.02542366691 64.4395226861774  38.3187874360847 64.2786777473086  38.9589371804237 64.2786777473086  C 38.6682569393718 61.6287573794442  38.3743106281957 61.3874899711408  37.1952593133674 59.2080410494676  C 37.8582715485755 59.0029637524099  39.0111943024105 58.8461399370128  39.5468298027757 58.4922810715011  C 40.2229063184806 58.0378941191967  40.6605597151205 57.1492258319462  41.1961952154857 57.18139481972  C 41.4738111760408 57.1934581901352  42.1825483929874 57.7805422170065  42.4862929145362 57.961492773234  C 43.492242512783 58.5525979235771  45.6217202337472 59.2281466668262  46.532953798393 58.1705911937635  C 47.6728122717312 56.8436204480954  46.8889554419284 55.2512555532936  47.029396457268 53.6588906584918  C 47.1829017531044 51.9177441952364  48.1888513513513 49.7302530266198  48.7571475529584 48.109740267516  C 46.532953798393 47.6513321917398  47.4376552227903 46.2841502113544  47.0849196493792 44.2494617346633  C 46.6603305332359 41.7804919230263  45.781757669832 41.3462105880802  45.582527392257 40.3891832018106  C 45.4159578159241 39.4603036798429  45.9548593864134 38.7163958375743  45.582527392257 37.248685770396  C 45.3963613951789 36.5852003975619  44.9227812271731 34.8159060700043  44.5439170927684 34.3213078829825  C 43.5804264061358 33.058675112862  42.2217412344777 32.8897879270498  42.2217412344777 30.5736208073381  C 42.2217412344777 29.9101354345041  42.5614125273922 29.0455938880839  42.741046384222 28.4022141326084  C 43.0055980642804 27.4693134871691  43.2603515339664 25.8045683698763  43.7600602629656 25.1169562562118  C 43.7600602629656 25.1169562562118  44.9913686997809 23.9628938198277  44.9913686997809 23.9628938198277  C 45.3245078524471 23.5889293369576  46.8040376186997 20.9349878456214  46.9542768444119 20.4403896585996  C 47.3004802775748 19.3104539630459  46.5460180788897 18.6308840963248  46.3075949598246 17.54518075896  C 46.1214289627465 16.7128082003137  46.314127100073 16.0091115927623  46.0430432797662 15.1284855524555  C 45.8862719138057 14.6178028715466  45.4845452885317 13.9100851405237  45.2297918188459 13.4396136943323  C 43.730665631848 10.6650384988444  42.9533409422936 10.2910740159742  40.5266508400292 8.85553293656972  C 41.3366362308253 7.10634422637077  41.8984002921841 6.4227532361781  41.0622863403944 4.51674071058204  C 40.853257852447 4.0422481409189  40.6801561358657 3.66426253457701  40.2882277209642 3.38278389155653  C 39.974684989043 3.15357985366836  39.1581674579985 2.95252368008227  38.762972972973 2.82384772898735  C 37.4304163623082 5.28477529368087  36.9796986851716 6.16540133398792  34.4517604090577 6.44285885353673  C 34.4517604090577 6.44285885353673  33.8638677867056 2.82384772898735  33.8638677867056 2.82384772898735  C 33.5405268444119 3.31442479253735  33.2629108838569 3.897487695937  32.8448539079619 4.27547330227878  C 31.469838385683 5.5059370846256  29.0888732651571 5.91609167874117  27.5962792184075 4.89472631692382  C 25.662765704894 3.57981894167091  25.9697762965668 2.34935515932403  23.3503880569758 2.34131291238071  C 22.6416508400292 2.33729178890888  20.9988175675676 2.46998886347575  20.4272552958364 2.09602438060563  C 19.669527027027 1.60142619358379  19.6107377647918 0.756990264522415  18.4512828707086 0.519743979690759  C 17.3048922571219 0.169906237650935  15.4269019357195 -0.00300207163309096  14.3393005843681 0.519743979690759  C 13.7285454711468 0.905771832976029  13.0687993060628 1.68989090996166  13.1569831994156 2.58258032068397  Z " stroke-width="2.13294375456538" stroke="#ffffff" fill="none" transform="matrix(1 0 0 1 482 2306 )" mask="url(#clip38)" />
  </g>
</svg>