<?xml version="1.0" encoding="utf-8"?>
<svg version="1.1" xmlns:xlink="http://www.w3.org/1999/xlink" width="3px" height="5px" xmlns="http://www.w3.org/2000/svg">
  <defs>
    <mask fill="white" id="clip64">
      <path d="M 2.53441928414895 0.356043153340408  C 1.16826880934991 0.495504860369635  0.573177501826081 2.4479687587795  0.29482834185535 3.96564027645098  C 0.29482834185535 3.96564027645098  1.25465303140982 4.5891161431702  1.25465303140982 4.5891161431702  C 3.25428780131483 5.33974827218077  2.70078889700505 1.50455132887561  2.53441928414895 0.356043153340408  Z " fill-rule="evenodd" />
    </mask>
  </defs>
  <g transform="matrix(1 0 0 1 -525 -2404 )">
    <path d="M 2.53441928414895 0.356043153340408  C 1.16826880934991 0.495504860369635  0.573177501826081 2.4479687587795  0.29482834185535 3.96564027645098  C 0.29482834185535 3.96564027645098  1.25465303140982 4.5891161431702  1.25465303140982 4.5891161431702  C 3.25428780131483 5.33974827218077  2.70078889700505 1.50455132887561  2.53441928414895 0.356043153340408  Z " fill-rule="nonzero" fill="#1c8dff" stroke="none" transform="matrix(1 0 0 1 525 2404 )" />
    <path d="M 2.53441928414895 0.356043153340408  C 1.16826880934991 0.495504860369635  0.573177501826081 2.4479687587795  0.29482834185535 3.96564027645098  C 0.29482834185535 3.96564027645098  1.25465303140982 4.5891161431702  1.25465303140982 4.5891161431702  C 3.25428780131483 5.33974827218077  2.70078889700505 1.50455132887561  2.53441928414895 0.356043153340408  Z " stroke-width="2.13294375456538" stroke="#ffffff" fill="none" transform="matrix(1 0 0 1 525 2404 )" mask="url(#clip64)" />
  </g>
</svg>