<?xml version="1.0" encoding="utf-8"?>
<svg version="1.1" xmlns:xlink="http://www.w3.org/1999/xlink" width="126px" height="133px" xmlns="http://www.w3.org/2000/svg">
  <defs>
    <mask fill="white" id="clip54">
      <path d="M 4.4369526919607 25.8676988446383  C 4.4369526919607 25.8676988446383  1.97998968762084 25.136519717281  1.97998968762084 25.136519717281  C 1.97998968762084 25.136519717281  1.4530271129635 29.9311369458533  1.4530271129635 29.9311369458533  C 1.4530271129635 29.9311369458533  0.171849353327929 33.0476381444253  0.171849353327929 33.0476381444253  C 0.171849353327929 33.0476381444253  0.76138873372571 38.0819862344262  0.76138873372571 38.0819862344262  C 0.76138873372571 38.0819862344262  0.402395479740449 41.9176800172841  0.402395479740449 41.9176800172841  C 3.02403428866066 42.8286572907128  3.23811283461524 41.134559203284  5.5369870665578 41.0706309735697  C 5.5369870665578 41.0706309735697  8.50115154900524 41.7658504717126  8.50115154900524 41.7658504717126  C 9.4167490224724 41.8257831870698  10.0985068534353 41.1705188324983  10.8724831349633 41.2344470622126  C 11.3500429682465 41.2783977201411  12.8782344347527 42.1334377925699  13.4414256864177 42.3971417401413  C 13.4414256864177 42.3971417401413  17.1960340308511 43.9394102819988  17.1960340308511 43.9394102819988  C 18.4047544364715 44.5667060360703  19.7616830662141 45.4457191946419  20.7168027327804 46.5484811572135  C 20.7168027327804 46.5484811572135  24.109124307137 50.9994841510715  24.109124307137 50.9994841510715  C 25.278322519658 52.2420891161431  26.2433227344992 52.2301025730717  27.2708997550809 53.1051202172861  C 28.8583745112363 54.4516085556435  28.5751321273579 55.2626979701437  31.0255080995145 56.0657963559295  C 31.0255080995145 56.0657963559295  32.1288359902032 47.9149470673567  32.1288359902032 47.9149470673567  C 32.3429145361578 47.2516916840708  33.265099041808 45.9131943744277  33.8743995187556 45.8332840872848  C 34.2531538692906 45.7853379149991  35.2379151806814 46.3766740398564  35.5705603059339 46.6204004156422  C 37.2502535126541 47.8510188376424  38.4227452412667 50.152435107357  40.5075409272548 50.0685293058571  C 41.0345035019121 50.0445562197141  41.3243329179736 50.012592104857  41.7063807846002 49.5211438389284  C 41.9632750397456 49.1935116616426  42.1180702960512 48.789964711571  42.2860396167233 48.3944087902138  C 42.7800670304645 48.6820858239282  43.7714153740386 49.4252514943569  44.2621492716883 49.4252514943569  C 44.81875349117 49.4292470087141  45.2040948738882 48.9298077140711  45.6454260301637 48.7979557402853  C 46.3205968289434 48.5981800224282  47.1011601426545 49.2694264344283  47.6215356851286 49.7369016142141  C 49.6174064366433 51.5388785892859  49.9105293687963 52.9333130999289  51.2411098698063 54.8671420487865  C 52.4465367593349 56.6171773372154  54.0043698706655 58.0395804483585  55.723585270485 58.9425666930729  C 55.723585270485 58.9425666930729  56.3164181669746 56.3055272173582  56.3164181669746 56.3055272173582  C 56.3164181669746 56.3055272173582  57.758978215099 58.0795355919299  57.758978215099 58.0795355919299  C 57.758978215099 58.0795355919299  59.39914922872 59.5139252461445  59.39914922872 59.5139252461445  C 59.39914922872 59.5139252461445  60.541999312508 61.3518618504305  60.541999312508 61.3518618504305  C 60.541999312508 61.3518618504305  63.9540819834142 63.6253095196452  63.9540819834142 63.6253095196452  C 63.9540819834142 63.6253095196452  65.5349697073862 65.2355018055741  65.5349697073862 65.2355018055741  C 65.5349697073862 65.2355018055741  67.5110793623512 67.3331468430745  67.5110793623512 67.3331468430745  C 67.5110793623512 67.3331468430745  70.0800219138056 69.8942715460035  70.0800219138056 69.8942715460035  C 70.0800219138056 69.8942715460035  71.0680767412883 67.7366937931461  71.0680767412883 67.7366937931461  C 71.4665921883728 70.8491994773608  72.1318824388777 70.3857198119321  73.2088622008336 71.6203337482895  C 74.5954324754007 73.2145439767899  74.0223606754608 73.2664856634327  76.205961844197 74.4491579131472  C 76.205961844197 74.4491579131472  75.4056374339363 76.6067356660047  75.4056374339363 76.6067356660047  C 75.4056374339363 76.6067356660047  76.6209448717398 79.2437751417195  76.6209448717398 79.2437751417195  C 76.6209448717398 79.2437751417195  77.5299553130237 83.5589306474346  77.5299553130237 83.5589306474346  C 77.5299553130237 83.5589306474346  78.6991535255445 86.1959701231494  78.6991535255445 86.1959701231494  C 78.6991535255445 86.1959701231494  78.5904674945215 88.5972742517927  78.5904674945215 88.5972742517927  C 78.5904674945215 88.5972742517927  78.9725153611481 91.7137754503647  78.9725153611481 91.7137754503647  C 78.9725153611481 91.7137754503647  76.9964057061832 92.1932371732219  76.9964057061832 92.1932371732219  C 77.0721565762901 92.6447302955791  77.3027027027027 93.6555954279365  77.2137777682293 94.059142378008  C 76.9667640613586 95.197863969794  74.3187771237056 95.8171686951511  73.8543913547889 96.8400203705799  C 73.5184527134446 97.5871815553658  74.121166158209 98.314365168366  73.6633674214755 99.8646247389376  C 73.0902956215357 101.786467144724  72.0495445365874 101.954278747724  71.3414385768917 102.833291906295  C 70.195294977012 104.255695017438  70.8045954539596 105.430376238439  68.6967451553302 105.857896274653  C 69.7704314011945 106.58907540201  71.6609096377777 108.191276659225  72.069305633137 109.653634913939  C 72.2504490181757 110.312894782868  71.7992373136252 110.71644173294  71.4567116400979 111.143961769154  C 70.7288445838525 112.050943528226  69.9976840115155 113.17767857694  68.8943561208266 113.277566435869  C 67.5044923301679 113.40142738094  66.5592532118765 112.458485992654  65.3373587418897 111.823199209868  C 63.5456859880548 110.888248850297  62.3863683238087 110.656509017582  60.466248442401 110.656509017582  C 60.4794225067675 111.447620860297  60.5979890860655 113.045826603154  60.7988935676534 113.773010216154  C 61.2764534009366 115.487085875369  63.5588600524213 118.204035638227  64.9421368108968 118.895259622012  C 65.3571198384394 119.027111595798  65.5217956430198 118.959187851727  65.9301916383793 118.895259622012  C 67.0697482060758 118.943205794298  67.3002943324883 119.578492577084  68.1039122588407 120.445519192584  C 69.6024620805225 122.055711478513  69.9746293988742 121.803994074013  70.0800219138056 124.560898980442  C 70.0800219138056 124.560898980442  71.776182700984 124.425051492299  71.776182700984 124.425051492299  C 71.776182700984 124.425051492299  72.5139303055043 123.12251381187  72.5139303055043 123.12251381187  C 72.5139303055043 123.12251381187  73.600790615735 120.245743474727  73.600790615735 120.245743474727  C 73.600790615735 120.245743474727  71.8585206032741 115.451126246155  71.8585206032741 115.451126246155  C 71.8585206032741 115.451126246155  74.0322412237356 113.713077500797  74.0322412237356 113.713077500797  C 75.5373780776006 112.706207882797  76.113743393632 113.381449809154  77.5892386026727 110.896239879011  C 78.0635049198642 111.567486291011  80.0264405104627 114.57610860194  80.293215313883 115.211395384726  C 80.7213724057922 116.218265002726  80.5336419885704 117.237121163798  81.0573110471361 117.856425889155  C 81.7357753620074 118.659524274941  84.1202810123319 119.422667517156  85.0951617754479 119.506573318655  C 85.750571477678 119.558515005298  86.4586774373737 119.43065854587  87.071271430413 119.750299694441  C 88.869531216431 120.693241082727  89.6072788209514 123.458137017871  90.2429274266318 125.519822426157  C 90.433951359945 126.139127151514  90.8818695484038 127.261866685871  90.7204872599149 127.897153468657  C 90.5821595840674 128.440543421228  89.9860331714864 128.9839333738  89.6402139818674 129.355516209014  C 91.0992416104499 131.497111904443  95.4763244961973 133.914398090515  97.7389700511323 132.611860410086  C 98.891700683195 131.944609512443  99.2572809693637 130.206560767086  100.146530314098 129.603238099157  C 100.861223305977 129.115785347586  102.40258883685 129.759063159086  103.272077085034 127.897153468657  C 103.578374081554 127.237893599728  103.723288789584 125.763548801942  103.525677824088 125.040360703299  C 103.367589051691 124.472997664585  102.982247668973 123.953580798156  102.949312508057 123.362244673299  C 102.913083831049 122.742939947942  103.627776822928 121.152725233799  103.864909981524 120.485474336156  C 105.696104928458 121.296563750656  107.115610363941 120.489469850513  109.002795084433 120.485474336156  C 109.002795084433 120.485474336156  108.110252223607 117.848434860441  108.110252223607 117.848434860441  C 108.110252223607 117.848434860441  108.212351222447 115.451126246155  108.212351222447 115.451126246155  C 108.212351222447 115.451126246155  108.413255704035 112.594333480797  108.413255704035 112.594333480797  C 108.413255704035 112.594333480797  110.188460877412 110.656509017582  110.188460877412 110.656509017582  C 109.276156920036 109.401917509439  108.159654964981 108.478953692939  106.829074463971 108.015474027511  C 107.570115584583 106.748895976296  108.400081639668 105.83392318851  108.564757444249 104.179780244653  C 108.564757444249 104.179780244653  108.409962187943 101.542740768938  108.409962187943 101.542740768938  C 108.409962187943 101.542740768938  109.990849911915 101.346960565438  109.990849911915 101.346960565438  C 112.134928887552 101.163166905009  112.43793236798 102.573583473081  113.547847290852 102.909206679081  C 114.749980664289 103.268802971224  117.842592274309 102.833291906295  118.369554848967 101.231090649081  C 118.586926911013 100.575826294509  118.260868817944 99.097485982366  118.092899497272 98.4342305990802  C 120.823224337215 99.0934904680089  119.40042538564 98.765858290723  121.844214325613 98.4342305990802  C 121.844214325613 98.4342305990802  123.425102049585 98.4342305990802  123.425102049585 98.4342305990802  C 124.133208009281 98.3782933980802  125.075153611481 98.3303472257944  125.394624672367 97.4353520097944  C 126.313515661926 94.8742273068652  124.805085291969 93.0642593030792  125.029044386199 90.5151211432215  C 125.144317449405 89.2005969197214  125.671280024062 88.7890589409355  125.918293730933 87.8740861531496  C 126.112611180338 87.1508980545067  125.796433635543 85.2410421917921  125.470375542474 84.5897733515776  C 125.160785029863 83.958482083149  124.521842908091 84.0463833990061  124.017934946075 83.7706929083632  C 124.017934946075 83.7706929083632  122.437047222103 82.651948888363  122.437047222103 82.651948888363  C 122.437047222103 82.651948888363  121.063651011902 82.148514079363  121.063651011902 82.148514079363  C 119.97349718558 81.5811510406485  119.983377733855 80.3585236473626  119.202814420143 79.8391067809339  C 118.824060069609 79.5913848907911  116.627284836506 79.2237975699338  115.579946719374 78.1649862652908  C 114.595185407983 77.170103190362  114.127506122975 75.3201800430045  111.96695956688 75.1763415261473  C 110.405832939458 75.0764536672187  109.516583594724 75.8435924237904  109.24322175912 77.8053899731479  C 109.144416276372 78.5325735861479  109.282743952219 79.5274566610767  109.085132986723 80.1947075587197  C 108.890815537318 80.8299943415055  108.512061186783 81.1136758608627  108.311156705195 81.6810388995771  C 108.159654964981 82.2164378234344  108.182709577622 83.9464955400776  108.311156705195 84.517854093149  C 108.640508314356 86.3717727548637  109.760303785502 86.295857982078  110.540867099214 87.0709877673638  C 111.878034632407 88.3974985339355  112.213973273751 90.5710583442216  110.952556610665 92.1213179147933  C 110.708836419886 92.4209814915791  110.092948910755 93.0163131307934  109.793238946419 93.224079877365  C 109.114774631547 93.6995460858651  108.56805096034 93.6276268274365  107.817129291454 93.6316223417936  C 107.817129291454 93.6316223417936  107.975218063851 96.2686618175083  107.975218063851 96.2686618175083  C 107.975218063851 96.2686618175083  107.421907360461 99.1454321546518  107.421907360461 99.1454321546518  C 105.65987625145 97.0158230022942  105.841019636489 97.2275852632229  103.469688050531 97.2275852632229  C 103.469688050531 97.2275852632229  104.457742878013 96.2686618175083  104.457742878013 96.2686618175083  C 102.787930219568 95.2977518287225  99.540523353242 93.643608884865  98.8060692648133 91.474044588936  C 98.4536630430111 90.4232243130072  99.026734842951 89.7839420158643  99.1057792291497 88.357543390364  C 99.1485949383406 87.5864091194354  98.950983972844 85.7005263428636  98.7138508142482 84.9973158160063  C 98.4800111717441 84.3020963178633  97.9793967258196 83.5589306474346  97.8838847591629 82.8397380631488  C 97.7060348902161 81.9447428471486  98.1341919821253 81.037761088077  97.8838847591629 79.9629677260054  C 97.4623146994371 77.7894079157193  96.54671722597 77.2540089918621  95.4302152709148 75.8475879381475  C 95.0053516950974 75.3161845286473  94.705641730761 74.664915688433  94.1523310273708 74.3133104250043  C 94.1523310273708 74.3133104250043  92.4067674988184 73.7299653288614  92.4067674988184 73.7299653288614  C 92.4067674988184 73.7299653288614  93.3948223263008 72.0518492988611  93.3948223263008 72.0518492988611  C 91.4121256391527 72.0278762127182  88.7213229923087 71.0329931377894  87.0745649465046 69.6984913425034  C 86.1326193443045 68.9313525859318  85.5694280926396 67.5568956470745  84.8415610363941 67.0095101801458  C 84.32118549392 66.6179497731458  83.5241545997508 66.1704521651457  82.9214411549865 66.1384880502885  C 82.5657414170927 62.8621662774308  82.210041679199 62.8222111338594  84.1071069479655 61.8193370302163  C 84.1071069479655 61.8193370302163  83.8666802732781 59.6617592773588  83.8666802732781 59.6617592773588  C 83.8666802732781 59.6617592773588  86.4356228247325 56.0657963559295  86.4356228247325 56.0657963559295  C 86.4356228247325 56.0657963559295  87.9638142912388 52.4698334345003  87.9638142912388 52.4698334345003  C 87.9638142912388 52.4698334345003  89.0803162462938 50.0725248202142  89.0803162462938 50.0725248202142  C 89.0803162462938 50.0725248202142  87.6641043269025 45.5176384530705  87.6641043269025 45.5176384530705  C 86.6628754350535 45.5735756540705  83.7415266617969 46.3167413244992  82.9214411549865 46.9200639924279  C 82.0519529068019 47.5593462895709  80.9288639195635 49.3573277502855  79.9605701886305 49.6090451547855  C 79.2689318093929 49.788843300857  77.9581124049327 48.9098301422854  77.1940166716796 48.7260364818568  C 76.6374124521977 48.5901889937139  73.9894255145447 48.5861934793567  73.4394083272461 48.7260364818568  C 72.9980771709706 48.8379108838568  72.4777016284965 49.1375744606426  72.0561315687707 49.3533322359283  C 72.2076333089846 49.900717702857  72.6259098526188 51.2312239837858  72.5765071112448 51.7506408502144  C 72.5205173376874 52.349968003786  72.1779916641602 52.7694970112861  71.8519335710909 53.1890260187862  C 71.4962338331973 53.6445146555005  70.9725647746316 54.2758059239292  70.4752438447987 54.4795771561436  C 69.37191595411 54.939061307215  67.5835367163666 53.6085550262862  66.7206355003653 52.8613938415004  C 65.5415567395694 51.8385421660716  63.3579555708331 50.7717398327143  62.7552421260688 49.1136013744998  C 62.3666072272591 48.0388080124281  62.9495595754738 47.035933908785  62.6169144502213 46.3566964680706  C 62.4127164525416 45.9371674605706  61.803415975594 45.697436599142  61.4510097537919 45.4856743382134  C 60.9009925664933 45.1540466465704  59.7779035792549 44.2870200310703  59.3003437459716 43.8275358799988  C 58.2991148541227 42.8686124342843  58.4539101104284 42.2053570509984  57.9565891805955 41.5101375528554  C 57.4922034116787 40.8628642269982  57.0212306105788 40.9627520859268  56.3164181669746 40.3594294179981  C 55.7202917543934 39.8440080659266  55.1406329222704 38.9330307924979  54.5379194775061 38.5694389859977  C 53.9549671292914 38.213838208212  52.6540282731062 38.3217170958549  51.9689769260516 38.3217170958549  C 52.4597108237012 37.5146231957119  53.0986529454733 36.431838804926  53.7540626477034 35.8365071657116  C 54.5741481545138 35.0893459809257  55.2394384050186 35.0773594378543  55.9640119451725 33.982588503997  C 55.9640119451725 33.982588503997  57.5020839599536 31.1297912529964  57.5020839599536 31.1297912529964  C 57.726043054183 30.7062667311392  58.0257530185193 30.1868498647105  58.1179714690842 29.6914060844247  C 58.2530056288402 28.976209014496  57.8380226012976 27.0303935225671  57.3901044128389 26.5349497422813  C 57.0574592875865 26.1673624214241  55.8092166888669 25.7238603277812  55.3283633394922 25.5360711529954  C 54.9397284406822 25.3842416074239  54.5543870579641 25.2284165474953  54.1426975465132 25.2004479469953  C 53.1184140420229 25.136519717281  49.0871503458944 26.3351740244241  48.224249129893 27.0144114651386  C 47.417337687449 27.6496982479244  46.8409723714174 28.9921910719246  46.1822691530958 29.447679708639  C 45.7541120611868 29.7433477710676  45.1415180681476 29.6914060844247  44.6573712026811 29.6914060844247  C 44.6573712026811 29.6914060844247  43.0764834787092 29.6914060844247  43.0764834787092 29.6914060844247  C 43.3498453143127 28.9402493852817  44.1995724659477 26.3271829957098  44.0810058866498 25.6159814401383  C 43.9756133717183 24.9647125999239  43.3234971855798 24.2135559007809  42.9677974476862 23.6981345487093  C 42.9677974476862 23.6981345487093  40.68209728011 20.3419024887087  40.68209728011 20.3419024887087  C 40.3296910583078 19.8424631940657  39.7138035491771 19.0833154662085  39.6347591629786 18.4200600829227  C 39.496431487131 17.3013160629224  40.7809027628582 15.9708097819936  40.6326945387358 14.3446354386362  C 40.6326945387358 14.3446354386362  38.2712435010528 5.71432442720607  38.2712435010528 5.71432442720607  C 38.2712435010528 5.71432442720607  36.8418575172948 0.747900081276555  36.8418575172948 0.747900081276555  C 36.4663966828513 0.0606716118478516  35.7780518197053 0.200514614347895  35.175338374941 0.200514614347895  C 33.2091092682507 0.192523585633637  30.5084260731319 -0.242987479295067  28.9110707687019 1.38718237841951  C 28.153562067632 2.16231216370539  28.1206269067159 4.33187645963437  28.044876036609 5.47459356577741  C 27.8834937481201 7.91585283799216  27.7879817814635 9.38620212142101  25.8876229966055 10.8685379479212  C 24.731598848451 11.7315690490643  23.0123834486315 10.8165962612784  21.737792721179 10.8685379479212  C 19.8110858075882 11.000389921707  16.8370407768658 12.5826136071359  15.4175353413827 14.1288776633504  C 15.4175353413827 14.1288776633504  9.89101533966405 20.3419024887087  9.89101533966405 20.3419024887087  C 7.80951316976748 22.9989195362092  8.49456451682209 24.3733764750666  5.93220899755084 25.4841294663525  C 5.54028058264942 25.6519410693525  4.84864220341163 25.8796853877097  4.4369526919607 25.8676988446383  Z " fill-rule="evenodd" />
    </mask>
  </defs>
  <g transform="matrix(1 0 0 1 -349 -2145 )">
    <path d="M 4.4369526919607 25.8676988446383  C 4.4369526919607 25.8676988446383  1.97998968762084 25.136519717281  1.97998968762084 25.136519717281  C 1.97998968762084 25.136519717281  1.4530271129635 29.9311369458533  1.4530271129635 29.9311369458533  C 1.4530271129635 29.9311369458533  0.171849353327929 33.0476381444253  0.171849353327929 33.0476381444253  C 0.171849353327929 33.0476381444253  0.76138873372571 38.0819862344262  0.76138873372571 38.0819862344262  C 0.76138873372571 38.0819862344262  0.402395479740449 41.9176800172841  0.402395479740449 41.9176800172841  C 3.02403428866066 42.8286572907128  3.23811283461524 41.134559203284  5.5369870665578 41.0706309735697  C 5.5369870665578 41.0706309735697  8.50115154900524 41.7658504717126  8.50115154900524 41.7658504717126  C 9.4167490224724 41.8257831870698  10.0985068534353 41.1705188324983  10.8724831349633 41.2344470622126  C 11.3500429682465 41.2783977201411  12.8782344347527 42.1334377925699  13.4414256864177 42.3971417401413  C 13.4414256864177 42.3971417401413  17.1960340308511 43.9394102819988  17.1960340308511 43.9394102819988  C 18.4047544364715 44.5667060360703  19.7616830662141 45.4457191946419  20.7168027327804 46.5484811572135  C 20.7168027327804 46.5484811572135  24.109124307137 50.9994841510715  24.109124307137 50.9994841510715  C 25.278322519658 52.2420891161431  26.2433227344992 52.2301025730717  27.2708997550809 53.1051202172861  C 28.8583745112363 54.4516085556435  28.5751321273579 55.2626979701437  31.0255080995145 56.0657963559295  C 31.0255080995145 56.0657963559295  32.1288359902032 47.9149470673567  32.1288359902032 47.9149470673567  C 32.3429145361578 47.2516916840708  33.265099041808 45.9131943744277  33.8743995187556 45.8332840872848  C 34.2531538692906 45.7853379149991  35.2379151806814 46.3766740398564  35.5705603059339 46.6204004156422  C 37.2502535126541 47.8510188376424  38.4227452412667 50.152435107357  40.5075409272548 50.0685293058571  C 41.0345035019121 50.0445562197141  41.3243329179736 50.012592104857  41.7063807846002 49.5211438389284  C 41.9632750397456 49.1935116616426  42.1180702960512 48.789964711571  42.2860396167233 48.3944087902138  C 42.7800670304645 48.6820858239282  43.7714153740386 49.4252514943569  44.2621492716883 49.4252514943569  C 44.81875349117 49.4292470087141  45.2040948738882 48.9298077140711  45.6454260301637 48.7979557402853  C 46.3205968289434 48.5981800224282  47.1011601426545 49.2694264344283  47.6215356851286 49.7369016142141  C 49.6174064366433 51.5388785892859  49.9105293687963 52.9333130999289  51.2411098698063 54.8671420487865  C 52.4465367593349 56.6171773372154  54.0043698706655 58.0395804483585  55.723585270485 58.9425666930729  C 55.723585270485 58.9425666930729  56.3164181669746 56.3055272173582  56.3164181669746 56.3055272173582  C 56.3164181669746 56.3055272173582  57.758978215099 58.0795355919299  57.758978215099 58.0795355919299  C 57.758978215099 58.0795355919299  59.39914922872 59.5139252461445  59.39914922872 59.5139252461445  C 59.39914922872 59.5139252461445  60.541999312508 61.3518618504305  60.541999312508 61.3518618504305  C 60.541999312508 61.3518618504305  63.9540819834142 63.6253095196452  63.9540819834142 63.6253095196452  C 63.9540819834142 63.6253095196452  65.5349697073862 65.2355018055741  65.5349697073862 65.2355018055741  C 65.5349697073862 65.2355018055741  67.5110793623512 67.3331468430745  67.5110793623512 67.3331468430745  C 67.5110793623512 67.3331468430745  70.0800219138056 69.8942715460035  70.0800219138056 69.8942715460035  C 70.0800219138056 69.8942715460035  71.0680767412883 67.7366937931461  71.0680767412883 67.7366937931461  C 71.4665921883728 70.8491994773608  72.1318824388777 70.3857198119321  73.2088622008336 71.6203337482895  C 74.5954324754007 73.2145439767899  74.0223606754608 73.2664856634327  76.205961844197 74.4491579131472  C 76.205961844197 74.4491579131472  75.4056374339363 76.6067356660047  75.4056374339363 76.6067356660047  C 75.4056374339363 76.6067356660047  76.6209448717398 79.2437751417195  76.6209448717398 79.2437751417195  C 76.6209448717398 79.2437751417195  77.5299553130237 83.5589306474346  77.5299553130237 83.5589306474346  C 77.5299553130237 83.5589306474346  78.6991535255445 86.1959701231494  78.6991535255445 86.1959701231494  C 78.6991535255445 86.1959701231494  78.5904674945215 88.5972742517927  78.5904674945215 88.5972742517927  C 78.5904674945215 88.5972742517927  78.9725153611481 91.7137754503647  78.9725153611481 91.7137754503647  C 78.9725153611481 91.7137754503647  76.9964057061832 92.1932371732219  76.9964057061832 92.1932371732219  C 77.0721565762901 92.6447302955791  77.3027027027027 93.6555954279365  77.2137777682293 94.059142378008  C 76.9667640613586 95.197863969794  74.3187771237056 95.8171686951511  73.8543913547889 96.8400203705799  C 73.5184527134446 97.5871815553658  74.121166158209 98.314365168366  73.6633674214755 99.8646247389376  C 73.0902956215357 101.786467144724  72.0495445365874 101.954278747724  71.3414385768917 102.833291906295  C 70.195294977012 104.255695017438  70.8045954539596 105.430376238439  68.6967451553302 105.857896274653  C 69.7704314011945 106.58907540201  71.6609096377777 108.191276659225  72.069305633137 109.653634913939  C 72.2504490181757 110.312894782868  71.7992373136252 110.71644173294  71.4567116400979 111.143961769154  C 70.7288445838525 112.050943528226  69.9976840115155 113.17767857694  68.8943561208266 113.277566435869  C 67.5044923301679 113.40142738094  66.5592532118765 112.458485992654  65.3373587418897 111.823199209868  C 63.5456859880548 110.888248850297  62.3863683238087 110.656509017582  60.466248442401 110.656509017582  C 60.4794225067675 111.447620860297  60.5979890860655 113.045826603154  60.7988935676534 113.773010216154  C 61.2764534009366 115.487085875369  63.5588600524213 118.204035638227  64.9421368108968 118.895259622012  C 65.3571198384394 119.027111595798  65.5217956430198 118.959187851727  65.9301916383793 118.895259622012  C 67.0697482060758 118.943205794298  67.3002943324883 119.578492577084  68.1039122588407 120.445519192584  C 69.6024620805225 122.055711478513  69.9746293988742 121.803994074013  70.0800219138056 124.560898980442  C 70.0800219138056 124.560898980442  71.776182700984 124.425051492299  71.776182700984 124.425051492299  C 71.776182700984 124.425051492299  72.5139303055043 123.12251381187  72.5139303055043 123.12251381187  C 72.5139303055043 123.12251381187  73.600790615735 120.245743474727  73.600790615735 120.245743474727  C 73.600790615735 120.245743474727  71.8585206032741 115.451126246155  71.8585206032741 115.451126246155  C 71.8585206032741 115.451126246155  74.0322412237356 113.713077500797  74.0322412237356 113.713077500797  C 75.5373780776006 112.706207882797  76.113743393632 113.381449809154  77.5892386026727 110.896239879011  C 78.0635049198642 111.567486291011  80.0264405104627 114.57610860194  80.293215313883 115.211395384726  C 80.7213724057922 116.218265002726  80.5336419885704 117.237121163798  81.0573110471361 117.856425889155  C 81.7357753620074 118.659524274941  84.1202810123319 119.422667517156  85.0951617754479 119.506573318655  C 85.750571477678 119.558515005298  86.4586774373737 119.43065854587  87.071271430413 119.750299694441  C 88.869531216431 120.693241082727  89.6072788209514 123.458137017871  90.2429274266318 125.519822426157  C 90.433951359945 126.139127151514  90.8818695484038 127.261866685871  90.7204872599149 127.897153468657  C 90.5821595840674 128.440543421228  89.9860331714864 128.9839333738  89.6402139818674 129.355516209014  C 91.0992416104499 131.497111904443  95.4763244961973 133.914398090515  97.7389700511323 132.611860410086  C 98.891700683195 131.944609512443  99.2572809693637 130.206560767086  100.146530314098 129.603238099157  C 100.861223305977 129.115785347586  102.40258883685 129.759063159086  103.272077085034 127.897153468657  C 103.578374081554 127.237893599728  103.723288789584 125.763548801942  103.525677824088 125.040360703299  C 103.367589051691 124.472997664585  102.982247668973 123.953580798156  102.949312508057 123.362244673299  C 102.913083831049 122.742939947942  103.627776822928 121.152725233799  103.864909981524 120.485474336156  C 105.696104928458 121.296563750656  107.115610363941 120.489469850513  109.002795084433 120.485474336156  C 109.002795084433 120.485474336156  108.110252223607 117.848434860441  108.110252223607 117.848434860441  C 108.110252223607 117.848434860441  108.212351222447 115.451126246155  108.212351222447 115.451126246155  C 108.212351222447 115.451126246155  108.413255704035 112.594333480797  108.413255704035 112.594333480797  C 108.413255704035 112.594333480797  110.188460877412 110.656509017582  110.188460877412 110.656509017582  C 109.276156920036 109.401917509439  108.159654964981 108.478953692939  106.829074463971 108.015474027511  C 107.570115584583 106.748895976296  108.400081639668 105.83392318851  108.564757444249 104.179780244653  C 108.564757444249 104.179780244653  108.409962187943 101.542740768938  108.409962187943 101.542740768938  C 108.409962187943 101.542740768938  109.990849911915 101.346960565438  109.990849911915 101.346960565438  C 112.134928887552 101.163166905009  112.43793236798 102.573583473081  113.547847290852 102.909206679081  C 114.749980664289 103.268802971224  117.842592274309 102.833291906295  118.369554848967 101.231090649081  C 118.586926911013 100.575826294509  118.260868817944 99.097485982366  118.092899497272 98.4342305990802  C 120.823224337215 99.0934904680089  119.40042538564 98.765858290723  121.844214325613 98.4342305990802  C 121.844214325613 98.4342305990802  123.425102049585 98.4342305990802  123.425102049585 98.4342305990802  C 124.133208009281 98.3782933980802  125.075153611481 98.3303472257944  125.394624672367 97.4353520097944  C 126.313515661926 94.8742273068652  124.805085291969 93.0642593030792  125.029044386199 90.5151211432215  C 125.144317449405 89.2005969197214  125.671280024062 88.7890589409355  125.918293730933 87.8740861531496  C 126.112611180338 87.1508980545067  125.796433635543 85.2410421917921  125.470375542474 84.5897733515776  C 125.160785029863 83.958482083149  124.521842908091 84.0463833990061  124.017934946075 83.7706929083632  C 124.017934946075 83.7706929083632  122.437047222103 82.651948888363  122.437047222103 82.651948888363  C 122.437047222103 82.651948888363  121.063651011902 82.148514079363  121.063651011902 82.148514079363  C 119.97349718558 81.5811510406485  119.983377733855 80.3585236473626  119.202814420143 79.8391067809339  C 118.824060069609 79.5913848907911  116.627284836506 79.2237975699338  115.579946719374 78.1649862652908  C 114.595185407983 77.170103190362  114.127506122975 75.3201800430045  111.96695956688 75.1763415261473  C 110.405832939458 75.0764536672187  109.516583594724 75.8435924237904  109.24322175912 77.8053899731479  C 109.144416276372 78.5325735861479  109.282743952219 79.5274566610767  109.085132986723 80.1947075587197  C 108.890815537318 80.8299943415055  108.512061186783 81.1136758608627  108.311156705195 81.6810388995771  C 108.159654964981 82.2164378234344  108.182709577622 83.9464955400776  108.311156705195 84.517854093149  C 108.640508314356 86.3717727548637  109.760303785502 86.295857982078  110.540867099214 87.0709877673638  C 111.878034632407 88.3974985339355  112.213973273751 90.5710583442216  110.952556610665 92.1213179147933  C 110.708836419886 92.4209814915791  110.092948910755 93.0163131307934  109.793238946419 93.224079877365  C 109.114774631547 93.6995460858651  108.56805096034 93.6276268274365  107.817129291454 93.6316223417936  C 107.817129291454 93.6316223417936  107.975218063851 96.2686618175083  107.975218063851 96.2686618175083  C 107.975218063851 96.2686618175083  107.421907360461 99.1454321546518  107.421907360461 99.1454321546518  C 105.65987625145 97.0158230022942  105.841019636489 97.2275852632229  103.469688050531 97.2275852632229  C 103.469688050531 97.2275852632229  104.457742878013 96.2686618175083  104.457742878013 96.2686618175083  C 102.787930219568 95.2977518287225  99.540523353242 93.643608884865  98.8060692648133 91.474044588936  C 98.4536630430111 90.4232243130072  99.026734842951 89.7839420158643  99.1057792291497 88.357543390364  C 99.1485949383406 87.5864091194354  98.950983972844 85.7005263428636  98.7138508142482 84.9973158160063  C 98.4800111717441 84.3020963178633  97.9793967258196 83.5589306474346  97.8838847591629 82.8397380631488  C 97.7060348902161 81.9447428471486  98.1341919821253 81.037761088077  97.8838847591629 79.9629677260054  C 97.4623146994371 77.7894079157193  96.54671722597 77.2540089918621  95.4302152709148 75.8475879381475  C 95.0053516950974 75.3161845286473  94.705641730761 74.664915688433  94.1523310273708 74.3133104250043  C 94.1523310273708 74.3133104250043  92.4067674988184 73.7299653288614  92.4067674988184 73.7299653288614  C 92.4067674988184 73.7299653288614  93.3948223263008 72.0518492988611  93.3948223263008 72.0518492988611  C 91.4121256391527 72.0278762127182  88.7213229923087 71.0329931377894  87.0745649465046 69.6984913425034  C 86.1326193443045 68.9313525859318  85.5694280926396 67.5568956470745  84.8415610363941 67.0095101801458  C 84.32118549392 66.6179497731458  83.5241545997508 66.1704521651457  82.9214411549865 66.1384880502885  C 82.5657414170927 62.8621662774308  82.210041679199 62.8222111338594  84.1071069479655 61.8193370302163  C 84.1071069479655 61.8193370302163  83.8666802732781 59.6617592773588  83.8666802732781 59.6617592773588  C 83.8666802732781 59.6617592773588  86.4356228247325 56.0657963559295  86.4356228247325 56.0657963559295  C 86.4356228247325 56.0657963559295  87.9638142912388 52.4698334345003  87.9638142912388 52.4698334345003  C 87.9638142912388 52.4698334345003  89.0803162462938 50.0725248202142  89.0803162462938 50.0725248202142  C 89.0803162462938 50.0725248202142  87.6641043269025 45.5176384530705  87.6641043269025 45.5176384530705  C 86.6628754350535 45.5735756540705  83.7415266617969 46.3167413244992  82.9214411549865 46.9200639924279  C 82.0519529068019 47.5593462895709  80.9288639195635 49.3573277502855  79.9605701886305 49.6090451547855  C 79.2689318093929 49.788843300857  77.9581124049327 48.9098301422854  77.1940166716796 48.7260364818568  C 76.6374124521977 48.5901889937139  73.9894255145447 48.5861934793567  73.4394083272461 48.7260364818568  C 72.9980771709706 48.8379108838568  72.4777016284965 49.1375744606426  72.0561315687707 49.3533322359283  C 72.2076333089846 49.900717702857  72.6259098526188 51.2312239837858  72.5765071112448 51.7506408502144  C 72.5205173376874 52.349968003786  72.1779916641602 52.7694970112861  71.8519335710909 53.1890260187862  C 71.4962338331973 53.6445146555005  70.9725647746316 54.2758059239292  70.4752438447987 54.4795771561436  C 69.37191595411 54.939061307215  67.5835367163666 53.6085550262862  66.7206355003653 52.8613938415004  C 65.5415567395694 51.8385421660716  63.3579555708331 50.7717398327143  62.7552421260688 49.1136013744998  C 62.3666072272591 48.0388080124281  62.9495595754738 47.035933908785  62.6169144502213 46.3566964680706  C 62.4127164525416 45.9371674605706  61.803415975594 45.697436599142  61.4510097537919 45.4856743382134  C 60.9009925664933 45.1540466465704  59.7779035792549 44.2870200310703  59.3003437459716 43.8275358799988  C 58.2991148541227 42.8686124342843  58.4539101104284 42.2053570509984  57.9565891805955 41.5101375528554  C 57.4922034116787 40.8628642269982  57.0212306105788 40.9627520859268  56.3164181669746 40.3594294179981  C 55.7202917543934 39.8440080659266  55.1406329222704 38.9330307924979  54.5379194775061 38.5694389859977  C 53.9549671292914 38.213838208212  52.6540282731062 38.3217170958549  51.9689769260516 38.3217170958549  C 52.4597108237012 37.5146231957119  53.0986529454733 36.431838804926  53.7540626477034 35.8365071657116  C 54.5741481545138 35.0893459809257  55.2394384050186 35.0773594378543  55.9640119451725 33.982588503997  C 55.9640119451725 33.982588503997  57.5020839599536 31.1297912529964  57.5020839599536 31.1297912529964  C 57.726043054183 30.7062667311392  58.0257530185193 30.1868498647105  58.1179714690842 29.6914060844247  C 58.2530056288402 28.976209014496  57.8380226012976 27.0303935225671  57.3901044128389 26.5349497422813  C 57.0574592875865 26.1673624214241  55.8092166888669 25.7238603277812  55.3283633394922 25.5360711529954  C 54.9397284406822 25.3842416074239  54.5543870579641 25.2284165474953  54.1426975465132 25.2004479469953  C 53.1184140420229 25.136519717281  49.0871503458944 26.3351740244241  48.224249129893 27.0144114651386  C 47.417337687449 27.6496982479244  46.8409723714174 28.9921910719246  46.1822691530958 29.447679708639  C 45.7541120611868 29.7433477710676  45.1415180681476 29.6914060844247  44.6573712026811 29.6914060844247  C 44.6573712026811 29.6914060844247  43.0764834787092 29.6914060844247  43.0764834787092 29.6914060844247  C 43.3498453143127 28.9402493852817  44.1995724659477 26.3271829957098  44.0810058866498 25.6159814401383  C 43.9756133717183 24.9647125999239  43.3234971855798 24.2135559007809  42.9677974476862 23.6981345487093  C 42.9677974476862 23.6981345487093  40.68209728011 20.3419024887087  40.68209728011 20.3419024887087  C 40.3296910583078 19.8424631940657  39.7138035491771 19.0833154662085  39.6347591629786 18.4200600829227  C 39.496431487131 17.3013160629224  40.7809027628582 15.9708097819936  40.6326945387358 14.3446354386362  C 40.6326945387358 14.3446354386362  38.2712435010528 5.71432442720607  38.2712435010528 5.71432442720607  C 38.2712435010528 5.71432442720607  36.8418575172948 0.747900081276555  36.8418575172948 0.747900081276555  C 36.4663966828513 0.0606716118478516  35.7780518197053 0.200514614347895  35.175338374941 0.200514614347895  C 33.2091092682507 0.192523585633637  30.5084260731319 -0.242987479295067  28.9110707687019 1.38718237841951  C 28.153562067632 2.16231216370539  28.1206269067159 4.33187645963437  28.044876036609 5.47459356577741  C 27.8834937481201 7.91585283799216  27.7879817814635 9.38620212142101  25.8876229966055 10.8685379479212  C 24.731598848451 11.7315690490643  23.0123834486315 10.8165962612784  21.737792721179 10.8685379479212  C 19.8110858075882 11.000389921707  16.8370407768658 12.5826136071359  15.4175353413827 14.1288776633504  C 15.4175353413827 14.1288776633504  9.89101533966405 20.3419024887087  9.89101533966405 20.3419024887087  C 7.80951316976748 22.9989195362092  8.49456451682209 24.3733764750666  5.93220899755084 25.4841294663525  C 5.54028058264942 25.6519410693525  4.84864220341163 25.8796853877097  4.4369526919607 25.8676988446383  Z " fill-rule="nonzero" fill="#1c8dff" stroke="none" transform="matrix(1 0 0 1 349 2145 )" />
    <path d="M 4.4369526919607 25.8676988446383  C 4.4369526919607 25.8676988446383  1.97998968762084 25.136519717281  1.97998968762084 25.136519717281  C 1.97998968762084 25.136519717281  1.4530271129635 29.9311369458533  1.4530271129635 29.9311369458533  C 1.4530271129635 29.9311369458533  0.171849353327929 33.0476381444253  0.171849353327929 33.0476381444253  C 0.171849353327929 33.0476381444253  0.76138873372571 38.0819862344262  0.76138873372571 38.0819862344262  C 0.76138873372571 38.0819862344262  0.402395479740449 41.9176800172841  0.402395479740449 41.9176800172841  C 3.02403428866066 42.8286572907128  3.23811283461524 41.134559203284  5.5369870665578 41.0706309735697  C 5.5369870665578 41.0706309735697  8.50115154900524 41.7658504717126  8.50115154900524 41.7658504717126  C 9.4167490224724 41.8257831870698  10.0985068534353 41.1705188324983  10.8724831349633 41.2344470622126  C 11.3500429682465 41.2783977201411  12.8782344347527 42.1334377925699  13.4414256864177 42.3971417401413  C 13.4414256864177 42.3971417401413  17.1960340308511 43.9394102819988  17.1960340308511 43.9394102819988  C 18.4047544364715 44.5667060360703  19.7616830662141 45.4457191946419  20.7168027327804 46.5484811572135  C 20.7168027327804 46.5484811572135  24.109124307137 50.9994841510715  24.109124307137 50.9994841510715  C 25.278322519658 52.2420891161431  26.2433227344992 52.2301025730717  27.2708997550809 53.1051202172861  C 28.8583745112363 54.4516085556435  28.5751321273579 55.2626979701437  31.0255080995145 56.0657963559295  C 31.0255080995145 56.0657963559295  32.1288359902032 47.9149470673567  32.1288359902032 47.9149470673567  C 32.3429145361578 47.2516916840708  33.265099041808 45.9131943744277  33.8743995187556 45.8332840872848  C 34.2531538692906 45.7853379149991  35.2379151806814 46.3766740398564  35.5705603059339 46.6204004156422  C 37.2502535126541 47.8510188376424  38.4227452412667 50.152435107357  40.5075409272548 50.0685293058571  C 41.0345035019121 50.0445562197141  41.3243329179736 50.012592104857  41.7063807846002 49.5211438389284  C 41.9632750397456 49.1935116616426  42.1180702960512 48.789964711571  42.2860396167233 48.3944087902138  C 42.7800670304645 48.6820858239282  43.7714153740386 49.4252514943569  44.2621492716883 49.4252514943569  C 44.81875349117 49.4292470087141  45.2040948738882 48.9298077140711  45.6454260301637 48.7979557402853  C 46.3205968289434 48.5981800224282  47.1011601426545 49.2694264344283  47.6215356851286 49.7369016142141  C 49.6174064366433 51.5388785892859  49.9105293687963 52.9333130999289  51.2411098698063 54.8671420487865  C 52.4465367593349 56.6171773372154  54.0043698706655 58.0395804483585  55.723585270485 58.9425666930729  C 55.723585270485 58.9425666930729  56.3164181669746 56.3055272173582  56.3164181669746 56.3055272173582  C 56.3164181669746 56.3055272173582  57.758978215099 58.0795355919299  57.758978215099 58.0795355919299  C 57.758978215099 58.0795355919299  59.39914922872 59.5139252461445  59.39914922872 59.5139252461445  C 59.39914922872 59.5139252461445  60.541999312508 61.3518618504305  60.541999312508 61.3518618504305  C 60.541999312508 61.3518618504305  63.9540819834142 63.6253095196452  63.9540819834142 63.6253095196452  C 63.9540819834142 63.6253095196452  65.5349697073862 65.2355018055741  65.5349697073862 65.2355018055741  C 65.5349697073862 65.2355018055741  67.5110793623512 67.3331468430745  67.5110793623512 67.3331468430745  C 67.5110793623512 67.3331468430745  70.0800219138056 69.8942715460035  70.0800219138056 69.8942715460035  C 70.0800219138056 69.8942715460035  71.0680767412883 67.7366937931461  71.0680767412883 67.7366937931461  C 71.4665921883728 70.8491994773608  72.1318824388777 70.3857198119321  73.2088622008336 71.6203337482895  C 74.5954324754007 73.2145439767899  74.0223606754608 73.2664856634327  76.205961844197 74.4491579131472  C 76.205961844197 74.4491579131472  75.4056374339363 76.6067356660047  75.4056374339363 76.6067356660047  C 75.4056374339363 76.6067356660047  76.6209448717398 79.2437751417195  76.6209448717398 79.2437751417195  C 76.6209448717398 79.2437751417195  77.5299553130237 83.5589306474346  77.5299553130237 83.5589306474346  C 77.5299553130237 83.5589306474346  78.6991535255445 86.1959701231494  78.6991535255445 86.1959701231494  C 78.6991535255445 86.1959701231494  78.5904674945215 88.5972742517927  78.5904674945215 88.5972742517927  C 78.5904674945215 88.5972742517927  78.9725153611481 91.7137754503647  78.9725153611481 91.7137754503647  C 78.9725153611481 91.7137754503647  76.9964057061832 92.1932371732219  76.9964057061832 92.1932371732219  C 77.0721565762901 92.6447302955791  77.3027027027027 93.6555954279365  77.2137777682293 94.059142378008  C 76.9667640613586 95.197863969794  74.3187771237056 95.8171686951511  73.8543913547889 96.8400203705799  C 73.5184527134446 97.5871815553658  74.121166158209 98.314365168366  73.6633674214755 99.8646247389376  C 73.0902956215357 101.786467144724  72.0495445365874 101.954278747724  71.3414385768917 102.833291906295  C 70.195294977012 104.255695017438  70.8045954539596 105.430376238439  68.6967451553302 105.857896274653  C 69.7704314011945 106.58907540201  71.6609096377777 108.191276659225  72.069305633137 109.653634913939  C 72.2504490181757 110.312894782868  71.7992373136252 110.71644173294  71.4567116400979 111.143961769154  C 70.7288445838525 112.050943528226  69.9976840115155 113.17767857694  68.8943561208266 113.277566435869  C 67.5044923301679 113.40142738094  66.5592532118765 112.458485992654  65.3373587418897 111.823199209868  C 63.5456859880548 110.888248850297  62.3863683238087 110.656509017582  60.466248442401 110.656509017582  C 60.4794225067675 111.447620860297  60.5979890860655 113.045826603154  60.7988935676534 113.773010216154  C 61.2764534009366 115.487085875369  63.5588600524213 118.204035638227  64.9421368108968 118.895259622012  C 65.3571198384394 119.027111595798  65.5217956430198 118.959187851727  65.9301916383793 118.895259622012  C 67.0697482060758 118.943205794298  67.3002943324883 119.578492577084  68.1039122588407 120.445519192584  C 69.6024620805225 122.055711478513  69.9746293988742 121.803994074013  70.0800219138056 124.560898980442  C 70.0800219138056 124.560898980442  71.776182700984 124.425051492299  71.776182700984 124.425051492299  C 71.776182700984 124.425051492299  72.5139303055043 123.12251381187  72.5139303055043 123.12251381187  C 72.5139303055043 123.12251381187  73.600790615735 120.245743474727  73.600790615735 120.245743474727  C 73.600790615735 120.245743474727  71.8585206032741 115.451126246155  71.8585206032741 115.451126246155  C 71.8585206032741 115.451126246155  74.0322412237356 113.713077500797  74.0322412237356 113.713077500797  C 75.5373780776006 112.706207882797  76.113743393632 113.381449809154  77.5892386026727 110.896239879011  C 78.0635049198642 111.567486291011  80.0264405104627 114.57610860194  80.293215313883 115.211395384726  C 80.7213724057922 116.218265002726  80.5336419885704 117.237121163798  81.0573110471361 117.856425889155  C 81.7357753620074 118.659524274941  84.1202810123319 119.422667517156  85.0951617754479 119.506573318655  C 85.750571477678 119.558515005298  86.4586774373737 119.43065854587  87.071271430413 119.750299694441  C 88.869531216431 120.693241082727  89.6072788209514 123.458137017871  90.2429274266318 125.519822426157  C 90.433951359945 126.139127151514  90.8818695484038 127.261866685871  90.7204872599149 127.897153468657  C 90.5821595840674 128.440543421228  89.9860331714864 128.9839333738  89.6402139818674 129.355516209014  C 91.0992416104499 131.497111904443  95.4763244961973 133.914398090515  97.7389700511323 132.611860410086  C 98.891700683195 131.944609512443  99.2572809693637 130.206560767086  100.146530314098 129.603238099157  C 100.861223305977 129.115785347586  102.40258883685 129.759063159086  103.272077085034 127.897153468657  C 103.578374081554 127.237893599728  103.723288789584 125.763548801942  103.525677824088 125.040360703299  C 103.367589051691 124.472997664585  102.982247668973 123.953580798156  102.949312508057 123.362244673299  C 102.913083831049 122.742939947942  103.627776822928 121.152725233799  103.864909981524 120.485474336156  C 105.696104928458 121.296563750656  107.115610363941 120.489469850513  109.002795084433 120.485474336156  C 109.002795084433 120.485474336156  108.110252223607 117.848434860441  108.110252223607 117.848434860441  C 108.110252223607 117.848434860441  108.212351222447 115.451126246155  108.212351222447 115.451126246155  C 108.212351222447 115.451126246155  108.413255704035 112.594333480797  108.413255704035 112.594333480797  C 108.413255704035 112.594333480797  110.188460877412 110.656509017582  110.188460877412 110.656509017582  C 109.276156920036 109.401917509439  108.159654964981 108.478953692939  106.829074463971 108.015474027511  C 107.570115584583 106.748895976296  108.400081639668 105.83392318851  108.564757444249 104.179780244653  C 108.564757444249 104.179780244653  108.409962187943 101.542740768938  108.409962187943 101.542740768938  C 108.409962187943 101.542740768938  109.990849911915 101.346960565438  109.990849911915 101.346960565438  C 112.134928887552 101.163166905009  112.43793236798 102.573583473081  113.547847290852 102.909206679081  C 114.749980664289 103.268802971224  117.842592274309 102.833291906295  118.369554848967 101.231090649081  C 118.586926911013 100.575826294509  118.260868817944 99.097485982366  118.092899497272 98.4342305990802  C 120.823224337215 99.0934904680089  119.40042538564 98.765858290723  121.844214325613 98.4342305990802  C 121.844214325613 98.4342305990802  123.425102049585 98.4342305990802  123.425102049585 98.4342305990802  C 124.133208009281 98.3782933980802  125.075153611481 98.3303472257944  125.394624672367 97.4353520097944  C 126.313515661926 94.8742273068652  124.805085291969 93.0642593030792  125.029044386199 90.5151211432215  C 125.144317449405 89.2005969197214  125.671280024062 88.7890589409355  125.918293730933 87.8740861531496  C 126.112611180338 87.1508980545067  125.796433635543 85.2410421917921  125.470375542474 84.5897733515776  C 125.160785029863 83.958482083149  124.521842908091 84.0463833990061  124.017934946075 83.7706929083632  C 124.017934946075 83.7706929083632  122.437047222103 82.651948888363  122.437047222103 82.651948888363  C 122.437047222103 82.651948888363  121.063651011902 82.148514079363  121.063651011902 82.148514079363  C 119.97349718558 81.5811510406485  119.983377733855 80.3585236473626  119.202814420143 79.8391067809339  C 118.824060069609 79.5913848907911  116.627284836506 79.2237975699338  115.579946719374 78.1649862652908  C 114.595185407983 77.170103190362  114.127506122975 75.3201800430045  111.96695956688 75.1763415261473  C 110.405832939458 75.0764536672187  109.516583594724 75.8435924237904  109.24322175912 77.8053899731479  C 109.144416276372 78.5325735861479  109.282743952219 79.5274566610767  109.085132986723 80.1947075587197  C 108.890815537318 80.8299943415055  108.512061186783 81.1136758608627  108.311156705195 81.6810388995771  C 108.159654964981 82.2164378234344  108.182709577622 83.9464955400776  108.311156705195 84.517854093149  C 108.640508314356 86.3717727548637  109.760303785502 86.295857982078  110.540867099214 87.0709877673638  C 111.878034632407 88.3974985339355  112.213973273751 90.5710583442216  110.952556610665 92.1213179147933  C 110.708836419886 92.4209814915791  110.092948910755 93.0163131307934  109.793238946419 93.224079877365  C 109.114774631547 93.6995460858651  108.56805096034 93.6276268274365  107.817129291454 93.6316223417936  C 107.817129291454 93.6316223417936  107.975218063851 96.2686618175083  107.975218063851 96.2686618175083  C 107.975218063851 96.2686618175083  107.421907360461 99.1454321546518  107.421907360461 99.1454321546518  C 105.65987625145 97.0158230022942  105.841019636489 97.2275852632229  103.469688050531 97.2275852632229  C 103.469688050531 97.2275852632229  104.457742878013 96.2686618175083  104.457742878013 96.2686618175083  C 102.787930219568 95.2977518287225  99.540523353242 93.643608884865  98.8060692648133 91.474044588936  C 98.4536630430111 90.4232243130072  99.026734842951 89.7839420158643  99.1057792291497 88.357543390364  C 99.1485949383406 87.5864091194354  98.950983972844 85.7005263428636  98.7138508142482 84.9973158160063  C 98.4800111717441 84.3020963178633  97.9793967258196 83.5589306474346  97.8838847591629 82.8397380631488  C 97.7060348902161 81.9447428471486  98.1341919821253 81.037761088077  97.8838847591629 79.9629677260054  C 97.4623146994371 77.7894079157193  96.54671722597 77.2540089918621  95.4302152709148 75.8475879381475  C 95.0053516950974 75.3161845286473  94.705641730761 74.664915688433  94.1523310273708 74.3133104250043  C 94.1523310273708 74.3133104250043  92.4067674988184 73.7299653288614  92.4067674988184 73.7299653288614  C 92.4067674988184 73.7299653288614  93.3948223263008 72.0518492988611  93.3948223263008 72.0518492988611  C 91.4121256391527 72.0278762127182  88.7213229923087 71.0329931377894  87.0745649465046 69.6984913425034  C 86.1326193443045 68.9313525859318  85.5694280926396 67.5568956470745  84.8415610363941 67.0095101801458  C 84.32118549392 66.6179497731458  83.5241545997508 66.1704521651457  82.9214411549865 66.1384880502885  C 82.5657414170927 62.8621662774308  82.210041679199 62.8222111338594  84.1071069479655 61.8193370302163  C 84.1071069479655 61.8193370302163  83.8666802732781 59.6617592773588  83.8666802732781 59.6617592773588  C 83.8666802732781 59.6617592773588  86.4356228247325 56.0657963559295  86.4356228247325 56.0657963559295  C 86.4356228247325 56.0657963559295  87.9638142912388 52.4698334345003  87.9638142912388 52.4698334345003  C 87.9638142912388 52.4698334345003  89.0803162462938 50.0725248202142  89.0803162462938 50.0725248202142  C 89.0803162462938 50.0725248202142  87.6641043269025 45.5176384530705  87.6641043269025 45.5176384530705  C 86.6628754350535 45.5735756540705  83.7415266617969 46.3167413244992  82.9214411549865 46.9200639924279  C 82.0519529068019 47.5593462895709  80.9288639195635 49.3573277502855  79.9605701886305 49.6090451547855  C 79.2689318093929 49.788843300857  77.9581124049327 48.9098301422854  77.1940166716796 48.7260364818568  C 76.6374124521977 48.5901889937139  73.9894255145447 48.5861934793567  73.4394083272461 48.7260364818568  C 72.9980771709706 48.8379108838568  72.4777016284965 49.1375744606426  72.0561315687707 49.3533322359283  C 72.2076333089846 49.900717702857  72.6259098526188 51.2312239837858  72.5765071112448 51.7506408502144  C 72.5205173376874 52.349968003786  72.1779916641602 52.7694970112861  71.8519335710909 53.1890260187862  C 71.4962338331973 53.6445146555005  70.9725647746316 54.2758059239292  70.4752438447987 54.4795771561436  C 69.37191595411 54.939061307215  67.5835367163666 53.6085550262862  66.7206355003653 52.8613938415004  C 65.5415567395694 51.8385421660716  63.3579555708331 50.7717398327143  62.7552421260688 49.1136013744998  C 62.3666072272591 48.0388080124281  62.9495595754738 47.035933908785  62.6169144502213 46.3566964680706  C 62.4127164525416 45.9371674605706  61.803415975594 45.697436599142  61.4510097537919 45.4856743382134  C 60.9009925664933 45.1540466465704  59.7779035792549 44.2870200310703  59.3003437459716 43.8275358799988  C 58.2991148541227 42.8686124342843  58.4539101104284 42.2053570509984  57.9565891805955 41.5101375528554  C 57.4922034116787 40.8628642269982  57.0212306105788 40.9627520859268  56.3164181669746 40.3594294179981  C 55.7202917543934 39.8440080659266  55.1406329222704 38.9330307924979  54.5379194775061 38.5694389859977  C 53.9549671292914 38.213838208212  52.6540282731062 38.3217170958549  51.9689769260516 38.3217170958549  C 52.4597108237012 37.5146231957119  53.0986529454733 36.431838804926  53.7540626477034 35.8365071657116  C 54.5741481545138 35.0893459809257  55.2394384050186 35.0773594378543  55.9640119451725 33.982588503997  C 55.9640119451725 33.982588503997  57.5020839599536 31.1297912529964  57.5020839599536 31.1297912529964  C 57.726043054183 30.7062667311392  58.0257530185193 30.1868498647105  58.1179714690842 29.6914060844247  C 58.2530056288402 28.976209014496  57.8380226012976 27.0303935225671  57.3901044128389 26.5349497422813  C 57.0574592875865 26.1673624214241  55.8092166888669 25.7238603277812  55.3283633394922 25.5360711529954  C 54.9397284406822 25.3842416074239  54.5543870579641 25.2284165474953  54.1426975465132 25.2004479469953  C 53.1184140420229 25.136519717281  49.0871503458944 26.3351740244241  48.224249129893 27.0144114651386  C 47.417337687449 27.6496982479244  46.8409723714174 28.9921910719246  46.1822691530958 29.447679708639  C 45.7541120611868 29.7433477710676  45.1415180681476 29.6914060844247  44.6573712026811 29.6914060844247  C 44.6573712026811 29.6914060844247  43.0764834787092 29.6914060844247  43.0764834787092 29.6914060844247  C 43.3498453143127 28.9402493852817  44.1995724659477 26.3271829957098  44.0810058866498 25.6159814401383  C 43.9756133717183 24.9647125999239  43.3234971855798 24.2135559007809  42.9677974476862 23.6981345487093  C 42.9677974476862 23.6981345487093  40.68209728011 20.3419024887087  40.68209728011 20.3419024887087  C 40.3296910583078 19.8424631940657  39.7138035491771 19.0833154662085  39.6347591629786 18.4200600829227  C 39.496431487131 17.3013160629224  40.7809027628582 15.9708097819936  40.6326945387358 14.3446354386362  C 40.6326945387358 14.3446354386362  38.2712435010528 5.71432442720607  38.2712435010528 5.71432442720607  C 38.2712435010528 5.71432442720607  36.8418575172948 0.747900081276555  36.8418575172948 0.747900081276555  C 36.4663966828513 0.0606716118478516  35.7780518197053 0.200514614347895  35.175338374941 0.200514614347895  C 33.2091092682507 0.192523585633637  30.5084260731319 -0.242987479295067  28.9110707687019 1.38718237841951  C 28.153562067632 2.16231216370539  28.1206269067159 4.33187645963437  28.044876036609 5.47459356577741  C 27.8834937481201 7.91585283799216  27.7879817814635 9.38620212142101  25.8876229966055 10.8685379479212  C 24.731598848451 11.7315690490643  23.0123834486315 10.8165962612784  21.737792721179 10.8685379479212  C 19.8110858075882 11.000389921707  16.8370407768658 12.5826136071359  15.4175353413827 14.1288776633504  C 15.4175353413827 14.1288776633504  9.89101533966405 20.3419024887087  9.89101533966405 20.3419024887087  C 7.80951316976748 22.9989195362092  8.49456451682209 24.3733764750666  5.93220899755084 25.4841294663525  C 5.54028058264942 25.6519410693525  4.84864220341163 25.8796853877097  4.4369526919607 25.8676988446383  Z " stroke-width="2.13294375456538" stroke="#ffffff" fill="none" transform="matrix(1 0 0 1 349 2145 )" mask="url(#clip54)" />
  </g>
</svg>