<?xml version="1.0" encoding="utf-8"?>
<svg version="1.1" xmlns:xlink="http://www.w3.org/1999/xlink" width="39px" height="60px" xmlns="http://www.w3.org/2000/svg">
  <defs>
    <mask fill="white" id="clip56">
      <path d="M 14.9839766252738 5.38108378648911  C 14.4149925493061 5.86297107918728  14.112199853908 6.77144712279841  13.9092289262234 7.52982712442173  C 13.9092289262234 7.52982712442173  11.9127935719503 5.63387712036348  11.9127935719503 5.63387712036348  C 10.2590796201607 6.94919243567892  10.1592578524471 7.33233233233227  8.88486661796918 8.9399399399399  C 8.55212739225721 9.36257879501119  7.77351760409056 10.0775099423748  7.70031497443381 10.6304953602251  C 7.60049320672033 11.4086248410572  8.40904952520083 12.1156561967372  8.6386395909422 12.9806833860888  C 8.85492008765516 13.8101615128641  8.48225215485746 15.5362659957254  8.15284032140244 16.2985958931905  C 7.15129525200882 18.6290344398452  5.48427173119063 18.0720991261531  4.39288707085456 20.8014771528284  C 4.10007655222785 21.5361577794009  3.92705215485756 22.1286421556691  4.12669569028481 22.9383708032357  C 4.36294054054054 23.8705462218975  4.97185332359373 24.5025295565836  4.65242366691007 25.5453020588154  C 4.44612534696853 26.2088845602358  3.8172482103725 26.9356653951249  3.61427728268808 27.9152395638881  C 3.40797896274643 28.8987636284933  3.69080730460183 30.4234234234233  3.34475850986121 31.3911479046614  C 3.09520409057706 32.0744798852907  1.9572359386413 33.630738846955  1.3250314097881 35.6570354137921  C 0.962345653761872 36.8104049995943  0.263593279766326 42.5377539701864  0.170426296566745 43.9518166815465  C 0.140479766252724 44.4218542867191  0.11386062819571 45.0419879338797  0.456582030679385 45.3698292887481  C 0.825922571219735 45.7292698103508  2.34321344046742 45.7490192895598  3.13180540540532 46.0768606444281  C 5.03174638422206 46.8747396044693  5.7371535427319 48.257203149095  6.52241811541268 48.4862971079187  C 7.22117048940834 48.6877417958499  8.20275120525929 48.0123096069042  8.77839006574135 48.6087438790141  C 9.08783754565371 48.9247355463571  9.42057677136603 50.0899548196845  9.64683944485023 50.5915915915915  C 9.64683944485023 50.5915915915915  10.8480280496713 52.9615290966642  10.8480280496713 52.9615290966642  C 11.4968695398099 54.8140302464626  11.5434530314098 56.7218299380461  12.7546238130022 58.4123853583313  C 13.0673986851716 58.8508237967697  13.6463649379107 59.5697048399751  14.1088724616508 59.7514000486973  C 14.6712017531044 59.9765441116792  16.3149335281227 59.4551578605633  16.5911070854638 58.787625463301  C 16.7641314828342 58.361036712388  16.7042384222058 56.3939885831777  16.7042384222058 55.8054541027512  C 16.7042384222058 55.8054541027512  17.7024560993426 57.4644103563022  17.7024560993426 57.4644103563022  C 17.7024560993426 57.4644103563022  18.587542439737 55.3314666017369  18.587542439737 55.3314666017369  C 19.6090518626735 53.6409111814517  21.3758971512052 52.463842220599  21.2195097151205 50.1255038822606  C 21.1895631848063 49.72656440224  21.1629440467494 49.4579714849984  20.9133896274653 49.1617292968643  C 20.6605078159241 48.8536374212051  20.1613989773558 48.628493358223  19.8319871439007 48.4586478370262  C 19.8319871439007 48.4586478370262  22.2277095690284 47.4356248140032  22.2277095690284 47.4356248140032  C 22.2277095690284 47.4356248140032  25.0193916727538 45.709520331142  25.0193916727538 45.709520331142  C 25.0193916727538 45.709520331142  26.4701346968589 45.1407353299246  26.4701346968589 45.1407353299246  C 26.4701346968589 45.1407353299246  27.0857022644266 43.0038416795172  27.0857022644266 43.0038416795172  C 27.0857022644266 43.0038416795172  28.3900400292185 40.1599166734301  28.3900400292185 40.1599166734301  C 28.3900400292185 40.1599166734301  28.2136882395909 37.315991667343  28.2136882395909 37.315991667343  C 29.7941995617238 38.1020209398588  29.7276517165815 38.133620106593  31.2083412710007 37.0789979168356  C 31.2083412710007 37.0789979168356  30.0104800584368 34.9460541622703  30.0104800584368 34.9460541622703  C 32.1267015339663 33.9862294727159  31.6342474799122 33.0619538457377  34.2029943024105 33.0501041582122  C 34.1497560262965 32.2640748856964  33.9867138056975 31.4701458214971  34.0665712198685 30.6801666531396  C 34.1564108108108 29.7677407136866  34.5889718042366 28.2509807104402  34.542388312637 27.4412520628736  C 34.4691856829802 26.2602332061791  33.6706115412708 25.5492519546573  33.836981154127 24.3603333062792  C 34.1630655953251 21.9982955928902  34.3294352081812 23.1437653870086  33.2047766252738 20.8014771528284  C 33.2047766252738 20.8014771528284  34.4026378378379 20.3274896518139  34.4026378378379 20.3274896518139  C 34.4026378378379 20.3274896518139  32.8054895544192 19.8535021507994  32.8054895544192 19.8535021507994  C 32.8054895544192 19.8535021507994  32.8054895544192 17.2465708952196  32.8054895544192 17.2465708952196  C 34.3194530314098 17.9022536049563  34.8784549306063 17.7245082920758  36.3990731921111 17.2465708952196  C 36.3990731921111 17.2465708952196  35.8001425858291 19.6165084002922  35.8001425858291 19.6165084002922  C 36.4622936449963 19.0279739198658  37.5370413440468 17.8272055839623  37.573642658875 16.772583394205  C 37.5936070124179 16.1445499553607  37.1943199415632 15.544165787409  37.3207608473338 14.8766333901468  C 37.4172552227903 14.3789465140816  37.9130366691015 13.7351134918702  38.142626734843 13.217677136596  C 38.4354372534697 12.5501447393339  38.6517177501826 11.5863701539377  38.7947956172388 10.8477396315234  C 38.7947956172388 10.8477396315234  36.9980037983929 10.3737521305089  36.9980037983929 10.3737521305089  C 36.9980037983929 10.3737521305089  38.9944391526662 10.3737521305089  38.9944391526662 10.3737521305089  C 38.9944391526662 10.3737521305089  37.5969344046749 8.00381462543623  37.5969344046749 8.00381462543623  C 36.8249794010227 8.2645077509942  36.0796435354274 8.6634472310148  35.4008555149743 9.17693369044707  C 35.034842366691 9.45737629521409  34.4259295836376 10.1328084841597  34.0033507669831 10.128858588318  C 32.9186208911614 10.1091091091091  31.7873075237399 7.38763087411735  31.407984806428 6.34485837188538  C 30.4097671292915 7.23358493628763  29.3716207450694 9.13743473202925  28.2136882395909 9.52057462868265  C 27.5016262965667 9.75756837918993  25.2489817384952 9.1413846278711  24.8064385682979 8.41065389714026  C 24.450407596786 7.82211941671397  24.5302650109568 7.02029056083103  24.0843944485025 6.1078646213781  C 23.6984169466764 5.32578524470421  23.0229563184806 4.68590211833458  22.9397715120525 3.73792711630546  C 22.8998428049671 3.26393961529089  23.142742439737 1.9012255498742  23.225927246165 1.36798961123282  C 23.225927246165 1.36798961123282  22.0280660336011 0.491112734355966  22.0280660336011 0.491112734355966  C 21.5289571950328 0.202770337905463  21.1695988312636 0.183020858696523  20.6305612856098 0.183020858696523  C 18.4644289262234 0.183020858696523  19.3728070124178 1.84592700808906  17.1035254930606 4.17636555474388  C 16.1053078159241 5.20333847360877  15.6128537618699 4.84389795200605  14.9839766252738 5.38108378648911  Z " fill-rule="evenodd" />
    </mask>
  </defs>
  <g transform="matrix(1 0 0 1 -546 -2320 )">
    <path d="M 14.9839766252738 5.38108378648911  C 14.4149925493061 5.86297107918728  14.112199853908 6.77144712279841  13.9092289262234 7.52982712442173  C 13.9092289262234 7.52982712442173  11.9127935719503 5.63387712036348  11.9127935719503 5.63387712036348  C 10.2590796201607 6.94919243567892  10.1592578524471 7.33233233233227  8.88486661796918 8.9399399399399  C 8.55212739225721 9.36257879501119  7.77351760409056 10.0775099423748  7.70031497443381 10.6304953602251  C 7.60049320672033 11.4086248410572  8.40904952520083 12.1156561967372  8.6386395909422 12.9806833860888  C 8.85492008765516 13.8101615128641  8.48225215485746 15.5362659957254  8.15284032140244 16.2985958931905  C 7.15129525200882 18.6290344398452  5.48427173119063 18.0720991261531  4.39288707085456 20.8014771528284  C 4.10007655222785 21.5361577794009  3.92705215485756 22.1286421556691  4.12669569028481 22.9383708032357  C 4.36294054054054 23.8705462218975  4.97185332359373 24.5025295565836  4.65242366691007 25.5453020588154  C 4.44612534696853 26.2088845602358  3.8172482103725 26.9356653951249  3.61427728268808 27.9152395638881  C 3.40797896274643 28.8987636284933  3.69080730460183 30.4234234234233  3.34475850986121 31.3911479046614  C 3.09520409057706 32.0744798852907  1.9572359386413 33.630738846955  1.3250314097881 35.6570354137921  C 0.962345653761872 36.8104049995943  0.263593279766326 42.5377539701864  0.170426296566745 43.9518166815465  C 0.140479766252724 44.4218542867191  0.11386062819571 45.0419879338797  0.456582030679385 45.3698292887481  C 0.825922571219735 45.7292698103508  2.34321344046742 45.7490192895598  3.13180540540532 46.0768606444281  C 5.03174638422206 46.8747396044693  5.7371535427319 48.257203149095  6.52241811541268 48.4862971079187  C 7.22117048940834 48.6877417958499  8.20275120525929 48.0123096069042  8.77839006574135 48.6087438790141  C 9.08783754565371 48.9247355463571  9.42057677136603 50.0899548196845  9.64683944485023 50.5915915915915  C 9.64683944485023 50.5915915915915  10.8480280496713 52.9615290966642  10.8480280496713 52.9615290966642  C 11.4968695398099 54.8140302464626  11.5434530314098 56.7218299380461  12.7546238130022 58.4123853583313  C 13.0673986851716 58.8508237967697  13.6463649379107 59.5697048399751  14.1088724616508 59.7514000486973  C 14.6712017531044 59.9765441116792  16.3149335281227 59.4551578605633  16.5911070854638 58.787625463301  C 16.7641314828342 58.361036712388  16.7042384222058 56.3939885831777  16.7042384222058 55.8054541027512  C 16.7042384222058 55.8054541027512  17.7024560993426 57.4644103563022  17.7024560993426 57.4644103563022  C 17.7024560993426 57.4644103563022  18.587542439737 55.3314666017369  18.587542439737 55.3314666017369  C 19.6090518626735 53.6409111814517  21.3758971512052 52.463842220599  21.2195097151205 50.1255038822606  C 21.1895631848063 49.72656440224  21.1629440467494 49.4579714849984  20.9133896274653 49.1617292968643  C 20.6605078159241 48.8536374212051  20.1613989773558 48.628493358223  19.8319871439007 48.4586478370262  C 19.8319871439007 48.4586478370262  22.2277095690284 47.4356248140032  22.2277095690284 47.4356248140032  C 22.2277095690284 47.4356248140032  25.0193916727538 45.709520331142  25.0193916727538 45.709520331142  C 25.0193916727538 45.709520331142  26.4701346968589 45.1407353299246  26.4701346968589 45.1407353299246  C 26.4701346968589 45.1407353299246  27.0857022644266 43.0038416795172  27.0857022644266 43.0038416795172  C 27.0857022644266 43.0038416795172  28.3900400292185 40.1599166734301  28.3900400292185 40.1599166734301  C 28.3900400292185 40.1599166734301  28.2136882395909 37.315991667343  28.2136882395909 37.315991667343  C 29.7941995617238 38.1020209398588  29.7276517165815 38.133620106593  31.2083412710007 37.0789979168356  C 31.2083412710007 37.0789979168356  30.0104800584368 34.9460541622703  30.0104800584368 34.9460541622703  C 32.1267015339663 33.9862294727159  31.6342474799122 33.0619538457377  34.2029943024105 33.0501041582122  C 34.1497560262965 32.2640748856964  33.9867138056975 31.4701458214971  34.0665712198685 30.6801666531396  C 34.1564108108108 29.7677407136866  34.5889718042366 28.2509807104402  34.542388312637 27.4412520628736  C 34.4691856829802 26.2602332061791  33.6706115412708 25.5492519546573  33.836981154127 24.3603333062792  C 34.1630655953251 21.9982955928902  34.3294352081812 23.1437653870086  33.2047766252738 20.8014771528284  C 33.2047766252738 20.8014771528284  34.4026378378379 20.3274896518139  34.4026378378379 20.3274896518139  C 34.4026378378379 20.3274896518139  32.8054895544192 19.8535021507994  32.8054895544192 19.8535021507994  C 32.8054895544192 19.8535021507994  32.8054895544192 17.2465708952196  32.8054895544192 17.2465708952196  C 34.3194530314098 17.9022536049563  34.8784549306063 17.7245082920758  36.3990731921111 17.2465708952196  C 36.3990731921111 17.2465708952196  35.8001425858291 19.6165084002922  35.8001425858291 19.6165084002922  C 36.4622936449963 19.0279739198658  37.5370413440468 17.8272055839623  37.573642658875 16.772583394205  C 37.5936070124179 16.1445499553607  37.1943199415632 15.544165787409  37.3207608473338 14.8766333901468  C 37.4172552227903 14.3789465140816  37.9130366691015 13.7351134918702  38.142626734843 13.217677136596  C 38.4354372534697 12.5501447393339  38.6517177501826 11.5863701539377  38.7947956172388 10.8477396315234  C 38.7947956172388 10.8477396315234  36.9980037983929 10.3737521305089  36.9980037983929 10.3737521305089  C 36.9980037983929 10.3737521305089  38.9944391526662 10.3737521305089  38.9944391526662 10.3737521305089  C 38.9944391526662 10.3737521305089  37.5969344046749 8.00381462543623  37.5969344046749 8.00381462543623  C 36.8249794010227 8.2645077509942  36.0796435354274 8.6634472310148  35.4008555149743 9.17693369044707  C 35.034842366691 9.45737629521409  34.4259295836376 10.1328084841597  34.0033507669831 10.128858588318  C 32.9186208911614 10.1091091091091  31.7873075237399 7.38763087411735  31.407984806428 6.34485837188538  C 30.4097671292915 7.23358493628763  29.3716207450694 9.13743473202925  28.2136882395909 9.52057462868265  C 27.5016262965667 9.75756837918993  25.2489817384952 9.1413846278711  24.8064385682979 8.41065389714026  C 24.450407596786 7.82211941671397  24.5302650109568 7.02029056083103  24.0843944485025 6.1078646213781  C 23.6984169466764 5.32578524470421  23.0229563184806 4.68590211833458  22.9397715120525 3.73792711630546  C 22.8998428049671 3.26393961529089  23.142742439737 1.9012255498742  23.225927246165 1.36798961123282  C 23.225927246165 1.36798961123282  22.0280660336011 0.491112734355966  22.0280660336011 0.491112734355966  C 21.5289571950328 0.202770337905463  21.1695988312636 0.183020858696523  20.6305612856098 0.183020858696523  C 18.4644289262234 0.183020858696523  19.3728070124178 1.84592700808906  17.1035254930606 4.17636555474388  C 16.1053078159241 5.20333847360877  15.6128537618699 4.84389795200605  14.9839766252738 5.38108378648911  Z " fill-rule="nonzero" fill="#1c8dff" stroke="none" transform="matrix(1 0 0 1 546 2320 )" />
    <path d="M 14.9839766252738 5.38108378648911  C 14.4149925493061 5.86297107918728  14.112199853908 6.77144712279841  13.9092289262234 7.52982712442173  C 13.9092289262234 7.52982712442173  11.9127935719503 5.63387712036348  11.9127935719503 5.63387712036348  C 10.2590796201607 6.94919243567892  10.1592578524471 7.33233233233227  8.88486661796918 8.9399399399399  C 8.55212739225721 9.36257879501119  7.77351760409056 10.0775099423748  7.70031497443381 10.6304953602251  C 7.60049320672033 11.4086248410572  8.40904952520083 12.1156561967372  8.6386395909422 12.9806833860888  C 8.85492008765516 13.8101615128641  8.48225215485746 15.5362659957254  8.15284032140244 16.2985958931905  C 7.15129525200882 18.6290344398452  5.48427173119063 18.0720991261531  4.39288707085456 20.8014771528284  C 4.10007655222785 21.5361577794009  3.92705215485756 22.1286421556691  4.12669569028481 22.9383708032357  C 4.36294054054054 23.8705462218975  4.97185332359373 24.5025295565836  4.65242366691007 25.5453020588154  C 4.44612534696853 26.2088845602358  3.8172482103725 26.9356653951249  3.61427728268808 27.9152395638881  C 3.40797896274643 28.8987636284933  3.69080730460183 30.4234234234233  3.34475850986121 31.3911479046614  C 3.09520409057706 32.0744798852907  1.9572359386413 33.630738846955  1.3250314097881 35.6570354137921  C 0.962345653761872 36.8104049995943  0.263593279766326 42.5377539701864  0.170426296566745 43.9518166815465  C 0.140479766252724 44.4218542867191  0.11386062819571 45.0419879338797  0.456582030679385 45.3698292887481  C 0.825922571219735 45.7292698103508  2.34321344046742 45.7490192895598  3.13180540540532 46.0768606444281  C 5.03174638422206 46.8747396044693  5.7371535427319 48.257203149095  6.52241811541268 48.4862971079187  C 7.22117048940834 48.6877417958499  8.20275120525929 48.0123096069042  8.77839006574135 48.6087438790141  C 9.08783754565371 48.9247355463571  9.42057677136603 50.0899548196845  9.64683944485023 50.5915915915915  C 9.64683944485023 50.5915915915915  10.8480280496713 52.9615290966642  10.8480280496713 52.9615290966642  C 11.4968695398099 54.8140302464626  11.5434530314098 56.7218299380461  12.7546238130022 58.4123853583313  C 13.0673986851716 58.8508237967697  13.6463649379107 59.5697048399751  14.1088724616508 59.7514000486973  C 14.6712017531044 59.9765441116792  16.3149335281227 59.4551578605633  16.5911070854638 58.787625463301  C 16.7641314828342 58.361036712388  16.7042384222058 56.3939885831777  16.7042384222058 55.8054541027512  C 16.7042384222058 55.8054541027512  17.7024560993426 57.4644103563022  17.7024560993426 57.4644103563022  C 17.7024560993426 57.4644103563022  18.587542439737 55.3314666017369  18.587542439737 55.3314666017369  C 19.6090518626735 53.6409111814517  21.3758971512052 52.463842220599  21.2195097151205 50.1255038822606  C 21.1895631848063 49.72656440224  21.1629440467494 49.4579714849984  20.9133896274653 49.1617292968643  C 20.6605078159241 48.8536374212051  20.1613989773558 48.628493358223  19.8319871439007 48.4586478370262  C 19.8319871439007 48.4586478370262  22.2277095690284 47.4356248140032  22.2277095690284 47.4356248140032  C 22.2277095690284 47.4356248140032  25.0193916727538 45.709520331142  25.0193916727538 45.709520331142  C 25.0193916727538 45.709520331142  26.4701346968589 45.1407353299246  26.4701346968589 45.1407353299246  C 26.4701346968589 45.1407353299246  27.0857022644266 43.0038416795172  27.0857022644266 43.0038416795172  C 27.0857022644266 43.0038416795172  28.3900400292185 40.1599166734301  28.3900400292185 40.1599166734301  C 28.3900400292185 40.1599166734301  28.2136882395909 37.315991667343  28.2136882395909 37.315991667343  C 29.7941995617238 38.1020209398588  29.7276517165815 38.133620106593  31.2083412710007 37.0789979168356  C 31.2083412710007 37.0789979168356  30.0104800584368 34.9460541622703  30.0104800584368 34.9460541622703  C 32.1267015339663 33.9862294727159  31.6342474799122 33.0619538457377  34.2029943024105 33.0501041582122  C 34.1497560262965 32.2640748856964  33.9867138056975 31.4701458214971  34.0665712198685 30.6801666531396  C 34.1564108108108 29.7677407136866  34.5889718042366 28.2509807104402  34.542388312637 27.4412520628736  C 34.4691856829802 26.2602332061791  33.6706115412708 25.5492519546573  33.836981154127 24.3603333062792  C 34.1630655953251 21.9982955928902  34.3294352081812 23.1437653870086  33.2047766252738 20.8014771528284  C 33.2047766252738 20.8014771528284  34.4026378378379 20.3274896518139  34.4026378378379 20.3274896518139  C 34.4026378378379 20.3274896518139  32.8054895544192 19.8535021507994  32.8054895544192 19.8535021507994  C 32.8054895544192 19.8535021507994  32.8054895544192 17.2465708952196  32.8054895544192 17.2465708952196  C 34.3194530314098 17.9022536049563  34.8784549306063 17.7245082920758  36.3990731921111 17.2465708952196  C 36.3990731921111 17.2465708952196  35.8001425858291 19.6165084002922  35.8001425858291 19.6165084002922  C 36.4622936449963 19.0279739198658  37.5370413440468 17.8272055839623  37.573642658875 16.772583394205  C 37.5936070124179 16.1445499553607  37.1943199415632 15.544165787409  37.3207608473338 14.8766333901468  C 37.4172552227903 14.3789465140816  37.9130366691015 13.7351134918702  38.142626734843 13.217677136596  C 38.4354372534697 12.5501447393339  38.6517177501826 11.5863701539377  38.7947956172388 10.8477396315234  C 38.7947956172388 10.8477396315234  36.9980037983929 10.3737521305089  36.9980037983929 10.3737521305089  C 36.9980037983929 10.3737521305089  38.9944391526662 10.3737521305089  38.9944391526662 10.3737521305089  C 38.9944391526662 10.3737521305089  37.5969344046749 8.00381462543623  37.5969344046749 8.00381462543623  C 36.8249794010227 8.2645077509942  36.0796435354274 8.6634472310148  35.4008555149743 9.17693369044707  C 35.034842366691 9.45737629521409  34.4259295836376 10.1328084841597  34.0033507669831 10.128858588318  C 32.9186208911614 10.1091091091091  31.7873075237399 7.38763087411735  31.407984806428 6.34485837188538  C 30.4097671292915 7.23358493628763  29.3716207450694 9.13743473202925  28.2136882395909 9.52057462868265  C 27.5016262965667 9.75756837918993  25.2489817384952 9.1413846278711  24.8064385682979 8.41065389714026  C 24.450407596786 7.82211941671397  24.5302650109568 7.02029056083103  24.0843944485025 6.1078646213781  C 23.6984169466764 5.32578524470421  23.0229563184806 4.68590211833458  22.9397715120525 3.73792711630546  C 22.8998428049671 3.26393961529089  23.142742439737 1.9012255498742  23.225927246165 1.36798961123282  C 23.225927246165 1.36798961123282  22.0280660336011 0.491112734355966  22.0280660336011 0.491112734355966  C 21.5289571950328 0.202770337905463  21.1695988312636 0.183020858696523  20.6305612856098 0.183020858696523  C 18.4644289262234 0.183020858696523  19.3728070124178 1.84592700808906  17.1035254930606 4.17636555474388  C 16.1053078159241 5.20333847360877  15.6128537618699 4.84389795200605  14.9839766252738 5.38108378648911  Z " stroke-width="2.13294375456538" stroke="#ffffff" fill="none" transform="matrix(1 0 0 1 546 2320 )" mask="url(#clip56)" />
  </g>
</svg>