<?xml version="1.0" encoding="utf-8"?>
<svg version="1.1" xmlns:xlink="http://www.w3.org/1999/xlink" width="173px" height="131px" xmlns="http://www.w3.org/2000/svg">
  <defs>
    <mask fill="white" id="clip14">
      <path d="M 16.4330237943522 67.2484332565412  C 16.7405231856353 67.7857710100953  17.3358943474815 68.0484694673884  17.8102285148864 68.2992270857134  C 18.2453074408509 67.5907373069535  19.0598537007393 65.9110592921403  19.5930707303048 65.3657609792745  C 20.8328821057975 64.1000320486806  21.4151681871636 64.4184544211571  22.7171336949371 65.2105300726921  C 23.1293137300613 65.4652679706733  23.678887110227 66.1737577494333  24.0256417429505 66.5359631981253  C 24.8957995948795 67.455407798651  25.6023939408068 69.676403846674  26.2108501831331 70.9023299807084  C 26.783322454139 72.0685519199032  27.3001831331044 72.1760194706141  27.938080806511 73.0954640711398  C 28.719914365199 74.2218832137749  28.4974679970367 74.8189251621683  29.979353361412 76.2597863976242  C 30.8756813743013 77.1274873626224  32.4458910319175 77.9912080479647  32.9954644120831 78.8310470553713  C 33.9212338560528 80.2559871722034  34.1371376839749 82.4610621016025  35.6713633702708 83.9059036167145  C 37.0125841194846 85.1716325473083  37.1303498438058 83.9656078115538  38.2196827937771 84.1447203960718  C 39.0767555652259 84.2880104636861  40.3525509120391 85.4582126825369  40.6535077630822 86.4493023168698  C 40.8072574587238 86.9508175535203  40.7680022172834 87.8145382388626  40.7712734874034 88.3598365517283  C 40.7876298380036 91.2972829378234  42.1582920182978 91.6555081068594  43.6957889747137 93.2316988506177  C 44.1668518719985 93.7133126889883  44.5136065047221 94.3939405101567  45.0958925860881 94.6685798064176  C 45.6781786674541 94.9392388230226  46.4534696859021 94.6526586877937  46.9736016349875 95.0546669330452  C 47.9484401307575 95.8109200676768  48.0269506136384 98.3622793271441  48.5372687523636 98.8757354027624  C 48.7793427412461 99.1185324617757  51.5828212341151 99.9185686726227  52.4922343274844 100.778309078309  C 53.1399458112512 101.395252424982  53.224998834372 102.545553245553  53.5750247372157 103.409273930896  C 53.9185080998192 104.269014336582  54.4648102098648 105.005366072933  54.8998891358293 105.797441724469  C 54.8998891358293 105.797441724469  55.6849939646374 104.125724268968  55.6849939646374 104.125724268968  C 56.3359767185242 104.690923980113  57.6183146055774 106.394483672862  58.2365846582637 106.458168147357  C 59.4076993612359 106.577576537036  59.4763960337566 104.96954355603  61.3802752436162 105.944712071739  C 62.1719226126644 106.350700596647  63.0682506255536 107.011427019535  63.6538079770397 107.779620993134  C 63.971121178683 108.193570077354  64.2459078687659 108.870217618866  64.5926625014894 109.136896355815  C 65.1585922322553 109.570746838314  66.686275378311 109.272225864118  67.4615663967591 109.475220126571  C 68.1616182024462 109.658312990745  68.6948352320118 110.167788786708  69.2280522615772 110.179729625676  C 69.9411891477446 110.187690184987  70.3304702920287 109.463279287604  70.9912668562755 109.4274567707  C 70.9912668562755 109.4274567707  72.3652003066897 109.777721380424  72.3652003066897 109.777721380424  C 72.9376725776955 109.913050888727  74.3443187293101 109.873248092167  74.916791000316 109.777721380424  C 76.5393409798528 109.391634253796  77.0725580094183 108.519953009142  78.0572103155484 109.136896355815  C 81.0340661247792 110.995686955146  78.9044692766371 113.387835028376  78.8455864144766 116.070543516489  C 78.8030599029162 117.98903831066  79.1334581850396 118.721409767356  80.4125248019727 119.891611986206  C 80.7298380036161 118.454731030407  81.2336136021012 115.919292889563  82.0056333504292 114.876459619703  C 82.8725199322382 113.69829684154  83.5464015769651 113.300268875944  84.305336244813 112.416646792322  C 85.4142968155044 111.119075624481  85.8886309829093 110.127985990148  87.6093190660471 109.530944041755  C 88.5514448606168 109.208541389622  91.1259344450834 109.61452991453  91.9241243543717 110.239433820515  C 92.5816496484984 110.752889896133  93.0592550860234 111.656413378035  93.8868864263919 112.177830012965  C 93.8868864263919 112.177830012965  97.0273057416243 113.467440621495  97.0273057416243 113.467440621495  C 97.9498039154738 113.957015019177  98.2671171171171 114.601820323442  98.9900678136446 114.796854026584  C 98.9900678136446 114.796854026584  101.345382300069 114.637642840346  101.345382300069 114.637642840346  C 102.856709095525 114.617741442066  103.226362619088 114.542116128603  103.942770775376 116.309360295847  C 104.142318252698 116.798934693529  104.292796678219 117.185021820157  104.36803589098 117.742260971991  C 104.37457843122 118.554238021806  103.978754746696 119.545327656138  104.36803589098 120.241876595931  C 105.28399152459 121.638954755171  107.429944723332 121.543428043428  107.871566189536 123.243007456521  C 108.617415776904 125.718741402525  106.975238176647 126.582462087867  107.871566189536 128.71589198346  C 108.025315885178 129.193525542174  108.18887939118 129.464184558779  108.627229587264 129.647277422953  C 108.879117386507 129.695040778824  109.503929979433 129.691060499169  109.785259209756 129.647277422953  C 109.785259209756 129.647277422953  112.333578633262 129.396519804628  112.333578633262 129.396519804628  C 112.333578633262 129.396519804628  113.707512083677 130.013463151301  113.707512083677 130.013463151301  C 113.707512083677 130.013463151301  115.473997948495 130.288102447562  115.473997948495 130.288102447562  C 115.473997948495 130.288102447562  117.436760020515 130.956789429762  117.436760020515 130.956789429762  C 117.436760020515 130.956789429762  119.792074506939 130.650307896254  119.792074506939 130.650307896254  C 120.665503628988 130.602544540382  121.898772464241 130.650307896254  122.710047454009 130.192575735819  C 123.498423552938 129.750764694008  123.472253391977 128.871122890042  124.012012961783 128.035264162291  C 124.012012961783 128.035264162291  127.250570380616 124.532618065051  127.250570380616 124.532618065051  C 128.686657963311 123.243007456521  129.923198068684 124.098767582551  131.369099461739 123.390277803791  C 132.605639567112 122.789255575742  136.472280848992 120.69562847671  137.453661885002 119.899572545518  C 138.899563278057 118.721409767356  138.909377088417 117.344233006395  141.18290982184 116.86659944768  C 143.243809997462 116.428768685525  143.590564630185 117.284528811556  145.304710173083 118.052722785155  C 146.629574571696 118.645784453892  148.131087556792 119.0517729788  149.230234317123 120.178192121435  C 149.230234317123 120.178192121435  150.604167767537 121.710599788978  150.604167767537 121.710599788978  C 150.604167767537 121.710599788978  152.164563614794 123.047973753379  152.164563614794 123.047973753379  C 152.481876816437 123.382317244479  152.972567334442 124.134590099455  153.384747369566 124.214195692574  C 154.251633951375 124.381367438124  155.033467510063 122.82109781299  155.360594522067 122.040963000422  C 156.155513161235 120.126448485908  157.028942283284 116.540216515892  158.841225929783 115.672515550894  C 159.838963316393 115.194881992179  160.067952224795 116.86659944768  161.039519450445 117.829827124422  C 161.422258054489 118.207953691738  163.352307425309 119.712499401689  163.751402379953 119.696578283065  C 164.170124955318 119.684637444097  165.102436939527 118.968187106025  165.517888244772 118.69752808942  C 165.733792072694 119.19904332607  165.966052251216 119.831907791367  166.39458863694 120.122468206252  C 166.904906775666 120.46875253632  168.30828165716 119.995099257261  168.527456755203 119.314471436093  C 168.710647881925 118.749271724947  168.089106559118 115.127217238028  168.053122587798 114.19981207819  C 168.013867346357 113.168919647298  168.776073284325 111.568847225604  169.050859974408 110.334960532258  C 169.050859974408 110.334960532258  171.010350776308 111.771841488058  171.010350776308 111.771841488058  C 171.010350776308 111.771841488058  171.837982116677 109.140876635471  171.837982116677 109.140876635471  C 171.837982116677 109.140876635471  172.678698537525 107.230342400613  172.678698537525 107.230342400613  C 172.678698537525 107.230342400613  172.011359433038 101.737556475394  172.011359433038 101.737556475394  C 172.011359433038 101.737556475394  172.724496319206 97.9164880056772  172.724496319206 97.9164880056772  C 172.724496319206 97.9164880056772  172.037529593999 94.3342363153173  172.037529593999 94.3342363153173  C 172.037529593999 94.3342363153173  172.037529593999 90.7519846249576  172.037529593999 90.7519846249576  C 172.037529593999 90.7519846249576  171.644977179595 87.4045694342991  171.644977179595 87.4045694342991  C 171.644977179595 87.4045694342991  170.24487356822 82.3894170677954  170.24487356822 82.3894170677954  C 170.24487356822 82.3894170677954  170.542559149143 80.379375841538  170.542559149143 80.379375841538  C 170.542559149143 80.379375841538  171.795455605116 79.7624324948649  171.795455605116 79.7624324948649  C 171.795455605116 79.7624324948649  170.693037574665 78.3096304204411  170.693037574665 78.3096304204411  C 170.693037574665 78.3096304204411  168.749903123365 74.5084633490039  168.749903123365 74.5084633490039  C 168.455488812562 73.5969793077901  168.524185485083 72.7412191817596  168.357350708961 71.8814787760733  C 168.128361800559 70.6834145996307  166.836210103145 67.2364924175735  166.096903056018 66.480239282942  C 165.135149640728 65.501090487577  163.231270430868 64.3348685483821  161.984916515135 64.3149671501022  C 161.294678519808 64.3070065907904  160.509573691 64.1796376417998  160.015611902875 64.8682260222801  C 159.58707551715 65.4692482503293  159.148725321066 67.272314934477  159.004789435784 68.0604103063562  C 158.906651332183 68.5897875005983  158.857582280383 69.4375870673168  158.533726538499 69.8276544736004  C 158.108461422895 70.3331499899067  157.470563749488 70.1062740495173  156.881735127882 70.3411105492186  C 156.377959529397 70.5441048116724  155.73351931575 71.1491073193775  155.354051981827 71.5948986408446  C 154.369399675696 72.7611205800395  154.595117313979 74.0865537054726  153.885251697931 74.4129366372609  C 152.962753524082 74.8308660011363  151.641160395588 73.0277993169885  150.993448911822 72.4785207244665  C 150.434061721296 72.000887165752  149.87140326065 71.8695379371054  149.230234317123 71.6426619967161  C 149.230234317123 71.6426619967161  148.837681902719 74.5084633490039  148.837681902719 74.5084633490039  C 148.837681902719 74.5084633490039  145.304710173083 72.9959570797408  145.304710173083 72.9959570797408  C 144.797663304478 72.7889825376311  143.803197187987 72.4665798854987  143.459713825384 71.9969068860961  C 142.802188531257 71.0933834041942  143.554580658865 69.9828853801826  142.700779157536 67.8215935269989  C 142.481604059494 67.2603740955092  142.223173720011 66.5558645964049  141.729211931886 66.2891858594561  C 141.15673966088 65.9866846056035  140.616980091074 65.9986254445714  139.900571934787 65.1985892337243  C 138.804696444576 63.9766433793461  138.013049075528 60.9635716797878  136.472280848992 60.5098197990089  C 135.651192048863 60.2670227399957  133.760397919484 61.7476867720111  132.743032912153 61.9108782379051  C 131.071413880816 62.1775569748542  129.972267120485 60.1754763079087  128.624503831031 59.8411328168085  C 127.999691238104 59.6898821898822  127.240756570256 59.8928764523358  126.465465551808 59.6261977153869  C 126.465465551808 59.6261977153869  122.147388993364 57.572373412914  122.147388993364 57.572373412914  C 120.923933968471 57.1146412524791  119.370080661455 56.8758244731217  118.221864849323 56.1315121774581  C 117.508727963156 55.6658194577113  117.119446818872 55.0050930348227  116.651655191707 54.6866706623463  C 115.807667500738 54.1135103918887  115.320248252853 54.8737438061762  114.492616912485 54.3403863322782  C 114.096793227961 54.0816681546411  113.458895554554 53.2617305455142  113.11868346207 52.8517617409508  C 111.290043464972 50.6267854132719  110.890948510327 50.4874756253134  110.374087831362 47.3589758157325  C 108.21504955214 48.218716221419  108.401511948982 48.0913472724283  106.25228748012 48.3540457297214  C 105.728884260914 48.4177302042166  104.973220863186 48.6883892208216  104.485801615301 48.5490794328632  C 103.874074102855 48.3699668483452  102.987559900326 47.3868377733243  102.523039543281 46.8574605790821  C 101.983279973475 46.248477791721  100.903760833864 44.9708080221594  100.52429349994 44.2543576840873  C 100.52429349994 44.2543576840873  99.2419556128871 40.6681257140716  99.2419556128871 40.6681257140716  C 98.4306806231188 38.7098281233417  97.6357619839505 39.1516391651527  97.3086349719472 36.6082404649972  C 96.9847792300639 34.1046445614012  97.8614796222329 34.8887596536245  98.5419038072 33.4319772995449  C 98.7512650948821 32.9861859780779  98.9279136813638 31.6488120136768  98.9475413020841 31.1154545397788  C 98.9475413020841 31.1154545397788  98.7218236638018 28.2496531874909  98.7218236638018 28.2496531874909  C 98.7741639857224 27.4336958580201  99.2812108543275 25.7978009194225  99.1732589403664 25.1529956151577  C 99.0424081355651 24.3370382856869  98.3717977609581 24.0265764725224  98.0119580477544 23.2225599820194  C 97.6782884955111 22.4782476863557  97.6161343632304 20.6274176463365  97.4198581560283 19.6482688509716  C 101.224345305628 18.1875062172359  100.076129493496 13.7335732822219  98.5975153992405 10.5732312353933  C 98.5975153992405 10.5732312353933  100.364001264059 10.0955976766787  100.364001264059 10.0955976766787  C 100.364001264059 10.0955976766787  98.9900678136446 9.11644888131377  98.9900678136446 9.11644888131377  C 97.6946448461112 8.0935170097332  97.4623846675888 7.57608065445899  95.8496484984121 6.70439940980472  C 94.6883476058002 6.07153494450793  94.3186940822363 6.4257798338879  93.7004240295499 6.0317321479483  C 93.1704782701045 5.68942809753619  92.7844683959404 4.94511580187253  92.3003204181755 4.45554140419  C 91.4825028881671 3.62366295609536  90.79880743308 3.42464897329762  89.7683573452694 3.40872785467374  C 89.7683573452694 3.40872785467374  85.1231537748214 3.8863614133885  85.1231537748214 3.8863614133885  C 84.5572240440555 3.89432197270025  83.8735285889684 3.94208532857178  83.3566679100032 3.64356435437512  C 82.7776530987572 3.30524058361894  82.4832387879542 2.69625779625778  81.7864582523869 2.63655360141846  C 81.7864582523869 2.63655360141846  78.2534865227505 3.29728002430701  78.2534865227505 3.29728002430701  C 78.2534865227505 3.29728002430701  76.4870006579323 3.01069988907821  76.4870006579323 3.01069988907821  C 76.4870006579323 3.01069988907821  72.7610239912137 3.48037288848096  72.7610239912137 3.48037288848096  C 71.9170363002451 3.74705162543003  71.4917711846406 4.77794405632238  70.9062138331545 5.48245355542653  C 70.2748586999881 6.238706690058  67.5302630692797 8.33233378909057  66.7091742691513 8.51144637360844  C 66.1236169176652 8.63483504294311  65.7245219630211 7.98604945902241  65.2992568474167 7.59200177308284  C 64.556678530169 6.90341339260257  63.7192333794404 6.21880529177827  62.7509374239104 6.35015452042478  C 61.8120828994607 6.4735431897594  61.0302493407726 7.0626245788408  60.199346730284 7.32134275647783  C 59.5287363556771 7.53229757824346  58.733817716509 7.45667226478034  58.0403084510618 7.46861310374817  C 55.9826795455605 7.50443562065183  55.6620950737972 8.76618427158965  54.5073367214253 9.02888272888268  C 53.8367263468183 9.18411363546491  53.411461231214 8.646775881911  52.740850856607 8.55920972947999  C 51.7758261711971 8.5034858142966  51.3734599464329 9.17217279649708  49.6037028114946 8.55920972947999  C 48.6517632065648 8.18506344182015  48.282109683001 7.50443562065183  47.4446645322723 7.10242737540028  C 46.8852773417466 6.83574863845135  46.1786829958193 6.84370919776325  45.7926731216553 6.37403619836047  C 45.3150676841303 5.792915368591  45.4230195980915 4.63067370905205  45.086078775728 3.90626281166817  C 44.6182871485631 2.89527177905555  42.8779714447052 1.85243850919528  41.9489307306156 1.71312872123681  C 39.4365952784297 1.32306131495315  37.3560674820882 4.52718643799724  36.4531969289588 5.07646503051905  C 36.0606445145548 5.31528180987638  35.7008048013511 5.30732125056446  35.2755396857467 5.31926208953237  C 34.725966305581 5.33120292850023  33.4370858782877 5.41478880127534  32.9987356822032 5.07646503051905  C 32.498231353838 4.68639762423547  32.4066357904771 3.85053889648478  31.8636049505515 3.54405736297625  C 31.5462917489082 3.36494477845827  30.6139797646985 3.41668841398567  30.1756295686141 3.33708282086661  C 29.3774396593258 3.1977730329082  28.526909428117 2.83556758421625  27.8203150821897 2.37385514412534  C 26.6688279999378 1.62556256880575  25.1542299343622 -0.161582996718153  23.6985147309471 0.447399790642976  C 23.0802446782608 0.71009824793606  22.4096343036539 1.64944424674155  21.9320288661289 2.20270311891932  C 21.2810461122422 2.95895625355078  20.6725898699159 3.46445176985713  20.1459153805905 4.36399497210306  C 19.4360497645431 5.58196054682537  17.679377710085 8.95723769507549  16.7961347776759 9.75329362626655  C 16.1124393225888 10.3463552950039  15.2291963901797 9.93638649044047  14.4735329924519 9.75329362626655  C 13.1748387547985 9.46671349103778  12.0527931036269 9.24381783030424  10.7475563257334 9.75329362626655  C 9.73673385864301 10.1433610325503  9.45540462832009 11.1026084296354  8.72591139155259 11.9145854794503  C 8.72591139155259 11.9145854794503  7.12953157297608 13.3474861555943  7.12953157297608 13.3474861555943  C 6.7827769402525 13.8290999939649  6.73370788845197 14.5057475354772  6.62248470437082 15.1107500431824  C 6.42293722704876 16.2013466689142  5.77849701340212 18.1636245393002  5.97150195048413 19.1706352922569  C 6.40003833620852 21.3956116199359  7.97024799382473 23.5807851510554  7.99968942490507 26.1003021732751  C 8.02913085598536 28.8825176527879  8.42495454050948 32.2498342417261  5.84065114568279 33.5195434519758  C 5.5233379440395 33.6747743585581  5.00320599495413 33.8777686210119  4.66299390247059 33.8339855447963  C 3.34467204409702 33.6668137992463  2.7329445316507 30.9761447518204  2.34366338736669 30.5502548286332  C 1.85624413948161 30.0208776343911  0.90103326443176 30.5303534303534  0.658959275549272 31.1791390142741  C 0.515023390267793 31.5652261409018  0.547736091468131 32.3413806738131  0.524837200627886 32.78717199528  C 0.479039418947401 33.5832279264712  0.129013516103775 35.4897818816737  0.282763211745404 36.1306069062825  C 0.459411798227215 36.8629783629784  1.01879898875301 37.2888682861655  1.06459677043343 37.9018313531827  C 1.10385201187386 38.3914057508651  0.694943246869656 39.119796927905  0.622975304228895 39.9516753759997  C 0.622975304228895 39.9516753759997  0.776724999870467 42.3398431695728  0.776724999870467 42.3398431695728  C 0.776724999870467 42.3398431695728  0.269678131265259 44.7319912428021  0.269678131265259 44.7319912428021  C 0.191167648384443 45.4285401825942  1.08095312103363 49.3690170419899  1.44079283423736 49.8904336769201  C 2.13103082956449 50.8934641502209  3.34467204409702 50.9133655485006  4.27044148806658 51.3352751920319  C 5.281263955157 51.8009679117787  7.08700506141565 53.4886064859037  7.74125908542239 54.5234791964522  C 8.51327883375038 55.7494053304864  8.21559325282728 57.1544440490385  8.97452792067512 58.2729026323621  C 9.52737257096085 59.0928402414889  10.0344194395661 58.7346150724529  11.1368374700175 59.7097835881619  C 12.2915958223894 60.7247549004305  13.125769702998 62.1258133393268  14.1365921700884 63.3119366768015  C 14.1365921700884 63.3119366768015  15.5923073735035 64.6493106412025  15.5923073735035 64.6493106412025  C 16.22366250667 65.4334257334257  16.0829978915085 66.6394504691801  16.4330237943522 67.2484332565412  Z " fill-rule="evenodd" />
    </mask>
  </defs>
  <g transform="matrix(1 0 0 1 -219 -2210 )">
    <path d="M 16.4330237943522 67.2484332565412  C 16.7405231856353 67.7857710100953  17.3358943474815 68.0484694673884  17.8102285148864 68.2992270857134  C 18.2453074408509 67.5907373069535  19.0598537007393 65.9110592921403  19.5930707303048 65.3657609792745  C 20.8328821057975 64.1000320486806  21.4151681871636 64.4184544211571  22.7171336949371 65.2105300726921  C 23.1293137300613 65.4652679706733  23.678887110227 66.1737577494333  24.0256417429505 66.5359631981253  C 24.8957995948795 67.455407798651  25.6023939408068 69.676403846674  26.2108501831331 70.9023299807084  C 26.783322454139 72.0685519199032  27.3001831331044 72.1760194706141  27.938080806511 73.0954640711398  C 28.719914365199 74.2218832137749  28.4974679970367 74.8189251621683  29.979353361412 76.2597863976242  C 30.8756813743013 77.1274873626224  32.4458910319175 77.9912080479647  32.9954644120831 78.8310470553713  C 33.9212338560528 80.2559871722034  34.1371376839749 82.4610621016025  35.6713633702708 83.9059036167145  C 37.0125841194846 85.1716325473083  37.1303498438058 83.9656078115538  38.2196827937771 84.1447203960718  C 39.0767555652259 84.2880104636861  40.3525509120391 85.4582126825369  40.6535077630822 86.4493023168698  C 40.8072574587238 86.9508175535203  40.7680022172834 87.8145382388626  40.7712734874034 88.3598365517283  C 40.7876298380036 91.2972829378234  42.1582920182978 91.6555081068594  43.6957889747137 93.2316988506177  C 44.1668518719985 93.7133126889883  44.5136065047221 94.3939405101567  45.0958925860881 94.6685798064176  C 45.6781786674541 94.9392388230226  46.4534696859021 94.6526586877937  46.9736016349875 95.0546669330452  C 47.9484401307575 95.8109200676768  48.0269506136384 98.3622793271441  48.5372687523636 98.8757354027624  C 48.7793427412461 99.1185324617757  51.5828212341151 99.9185686726227  52.4922343274844 100.778309078309  C 53.1399458112512 101.395252424982  53.224998834372 102.545553245553  53.5750247372157 103.409273930896  C 53.9185080998192 104.269014336582  54.4648102098648 105.005366072933  54.8998891358293 105.797441724469  C 54.8998891358293 105.797441724469  55.6849939646374 104.125724268968  55.6849939646374 104.125724268968  C 56.3359767185242 104.690923980113  57.6183146055774 106.394483672862  58.2365846582637 106.458168147357  C 59.4076993612359 106.577576537036  59.4763960337566 104.96954355603  61.3802752436162 105.944712071739  C 62.1719226126644 106.350700596647  63.0682506255536 107.011427019535  63.6538079770397 107.779620993134  C 63.971121178683 108.193570077354  64.2459078687659 108.870217618866  64.5926625014894 109.136896355815  C 65.1585922322553 109.570746838314  66.686275378311 109.272225864118  67.4615663967591 109.475220126571  C 68.1616182024462 109.658312990745  68.6948352320118 110.167788786708  69.2280522615772 110.179729625676  C 69.9411891477446 110.187690184987  70.3304702920287 109.463279287604  70.9912668562755 109.4274567707  C 70.9912668562755 109.4274567707  72.3652003066897 109.777721380424  72.3652003066897 109.777721380424  C 72.9376725776955 109.913050888727  74.3443187293101 109.873248092167  74.916791000316 109.777721380424  C 76.5393409798528 109.391634253796  77.0725580094183 108.519953009142  78.0572103155484 109.136896355815  C 81.0340661247792 110.995686955146  78.9044692766371 113.387835028376  78.8455864144766 116.070543516489  C 78.8030599029162 117.98903831066  79.1334581850396 118.721409767356  80.4125248019727 119.891611986206  C 80.7298380036161 118.454731030407  81.2336136021012 115.919292889563  82.0056333504292 114.876459619703  C 82.8725199322382 113.69829684154  83.5464015769651 113.300268875944  84.305336244813 112.416646792322  C 85.4142968155044 111.119075624481  85.8886309829093 110.127985990148  87.6093190660471 109.530944041755  C 88.5514448606168 109.208541389622  91.1259344450834 109.61452991453  91.9241243543717 110.239433820515  C 92.5816496484984 110.752889896133  93.0592550860234 111.656413378035  93.8868864263919 112.177830012965  C 93.8868864263919 112.177830012965  97.0273057416243 113.467440621495  97.0273057416243 113.467440621495  C 97.9498039154738 113.957015019177  98.2671171171171 114.601820323442  98.9900678136446 114.796854026584  C 98.9900678136446 114.796854026584  101.345382300069 114.637642840346  101.345382300069 114.637642840346  C 102.856709095525 114.617741442066  103.226362619088 114.542116128603  103.942770775376 116.309360295847  C 104.142318252698 116.798934693529  104.292796678219 117.185021820157  104.36803589098 117.742260971991  C 104.37457843122 118.554238021806  103.978754746696 119.545327656138  104.36803589098 120.241876595931  C 105.28399152459 121.638954755171  107.429944723332 121.543428043428  107.871566189536 123.243007456521  C 108.617415776904 125.718741402525  106.975238176647 126.582462087867  107.871566189536 128.71589198346  C 108.025315885178 129.193525542174  108.18887939118 129.464184558779  108.627229587264 129.647277422953  C 108.879117386507 129.695040778824  109.503929979433 129.691060499169  109.785259209756 129.647277422953  C 109.785259209756 129.647277422953  112.333578633262 129.396519804628  112.333578633262 129.396519804628  C 112.333578633262 129.396519804628  113.707512083677 130.013463151301  113.707512083677 130.013463151301  C 113.707512083677 130.013463151301  115.473997948495 130.288102447562  115.473997948495 130.288102447562  C 115.473997948495 130.288102447562  117.436760020515 130.956789429762  117.436760020515 130.956789429762  C 117.436760020515 130.956789429762  119.792074506939 130.650307896254  119.792074506939 130.650307896254  C 120.665503628988 130.602544540382  121.898772464241 130.650307896254  122.710047454009 130.192575735819  C 123.498423552938 129.750764694008  123.472253391977 128.871122890042  124.012012961783 128.035264162291  C 124.012012961783 128.035264162291  127.250570380616 124.532618065051  127.250570380616 124.532618065051  C 128.686657963311 123.243007456521  129.923198068684 124.098767582551  131.369099461739 123.390277803791  C 132.605639567112 122.789255575742  136.472280848992 120.69562847671  137.453661885002 119.899572545518  C 138.899563278057 118.721409767356  138.909377088417 117.344233006395  141.18290982184 116.86659944768  C 143.243809997462 116.428768685525  143.590564630185 117.284528811556  145.304710173083 118.052722785155  C 146.629574571696 118.645784453892  148.131087556792 119.0517729788  149.230234317123 120.178192121435  C 149.230234317123 120.178192121435  150.604167767537 121.710599788978  150.604167767537 121.710599788978  C 150.604167767537 121.710599788978  152.164563614794 123.047973753379  152.164563614794 123.047973753379  C 152.481876816437 123.382317244479  152.972567334442 124.134590099455  153.384747369566 124.214195692574  C 154.251633951375 124.381367438124  155.033467510063 122.82109781299  155.360594522067 122.040963000422  C 156.155513161235 120.126448485908  157.028942283284 116.540216515892  158.841225929783 115.672515550894  C 159.838963316393 115.194881992179  160.067952224795 116.86659944768  161.039519450445 117.829827124422  C 161.422258054489 118.207953691738  163.352307425309 119.712499401689  163.751402379953 119.696578283065  C 164.170124955318 119.684637444097  165.102436939527 118.968187106025  165.517888244772 118.69752808942  C 165.733792072694 119.19904332607  165.966052251216 119.831907791367  166.39458863694 120.122468206252  C 166.904906775666 120.46875253632  168.30828165716 119.995099257261  168.527456755203 119.314471436093  C 168.710647881925 118.749271724947  168.089106559118 115.127217238028  168.053122587798 114.19981207819  C 168.013867346357 113.168919647298  168.776073284325 111.568847225604  169.050859974408 110.334960532258  C 169.050859974408 110.334960532258  171.010350776308 111.771841488058  171.010350776308 111.771841488058  C 171.010350776308 111.771841488058  171.837982116677 109.140876635471  171.837982116677 109.140876635471  C 171.837982116677 109.140876635471  172.678698537525 107.230342400613  172.678698537525 107.230342400613  C 172.678698537525 107.230342400613  172.011359433038 101.737556475394  172.011359433038 101.737556475394  C 172.011359433038 101.737556475394  172.724496319206 97.9164880056772  172.724496319206 97.9164880056772  C 172.724496319206 97.9164880056772  172.037529593999 94.3342363153173  172.037529593999 94.3342363153173  C 172.037529593999 94.3342363153173  172.037529593999 90.7519846249576  172.037529593999 90.7519846249576  C 172.037529593999 90.7519846249576  171.644977179595 87.4045694342991  171.644977179595 87.4045694342991  C 171.644977179595 87.4045694342991  170.24487356822 82.3894170677954  170.24487356822 82.3894170677954  C 170.24487356822 82.3894170677954  170.542559149143 80.379375841538  170.542559149143 80.379375841538  C 170.542559149143 80.379375841538  171.795455605116 79.7624324948649  171.795455605116 79.7624324948649  C 171.795455605116 79.7624324948649  170.693037574665 78.3096304204411  170.693037574665 78.3096304204411  C 170.693037574665 78.3096304204411  168.749903123365 74.5084633490039  168.749903123365 74.5084633490039  C 168.455488812562 73.5969793077901  168.524185485083 72.7412191817596  168.357350708961 71.8814787760733  C 168.128361800559 70.6834145996307  166.836210103145 67.2364924175735  166.096903056018 66.480239282942  C 165.135149640728 65.501090487577  163.231270430868 64.3348685483821  161.984916515135 64.3149671501022  C 161.294678519808 64.3070065907904  160.509573691 64.1796376417998  160.015611902875 64.8682260222801  C 159.58707551715 65.4692482503293  159.148725321066 67.272314934477  159.004789435784 68.0604103063562  C 158.906651332183 68.5897875005983  158.857582280383 69.4375870673168  158.533726538499 69.8276544736004  C 158.108461422895 70.3331499899067  157.470563749488 70.1062740495173  156.881735127882 70.3411105492186  C 156.377959529397 70.5441048116724  155.73351931575 71.1491073193775  155.354051981827 71.5948986408446  C 154.369399675696 72.7611205800395  154.595117313979 74.0865537054726  153.885251697931 74.4129366372609  C 152.962753524082 74.8308660011363  151.641160395588 73.0277993169885  150.993448911822 72.4785207244665  C 150.434061721296 72.000887165752  149.87140326065 71.8695379371054  149.230234317123 71.6426619967161  C 149.230234317123 71.6426619967161  148.837681902719 74.5084633490039  148.837681902719 74.5084633490039  C 148.837681902719 74.5084633490039  145.304710173083 72.9959570797408  145.304710173083 72.9959570797408  C 144.797663304478 72.7889825376311  143.803197187987 72.4665798854987  143.459713825384 71.9969068860961  C 142.802188531257 71.0933834041942  143.554580658865 69.9828853801826  142.700779157536 67.8215935269989  C 142.481604059494 67.2603740955092  142.223173720011 66.5558645964049  141.729211931886 66.2891858594561  C 141.15673966088 65.9866846056035  140.616980091074 65.9986254445714  139.900571934787 65.1985892337243  C 138.804696444576 63.9766433793461  138.013049075528 60.9635716797878  136.472280848992 60.5098197990089  C 135.651192048863 60.2670227399957  133.760397919484 61.7476867720111  132.743032912153 61.9108782379051  C 131.071413880816 62.1775569748542  129.972267120485 60.1754763079087  128.624503831031 59.8411328168085  C 127.999691238104 59.6898821898822  127.240756570256 59.8928764523358  126.465465551808 59.6261977153869  C 126.465465551808 59.6261977153869  122.147388993364 57.572373412914  122.147388993364 57.572373412914  C 120.923933968471 57.1146412524791  119.370080661455 56.8758244731217  118.221864849323 56.1315121774581  C 117.508727963156 55.6658194577113  117.119446818872 55.0050930348227  116.651655191707 54.6866706623463  C 115.807667500738 54.1135103918887  115.320248252853 54.8737438061762  114.492616912485 54.3403863322782  C 114.096793227961 54.0816681546411  113.458895554554 53.2617305455142  113.11868346207 52.8517617409508  C 111.290043464972 50.6267854132719  110.890948510327 50.4874756253134  110.374087831362 47.3589758157325  C 108.21504955214 48.218716221419  108.401511948982 48.0913472724283  106.25228748012 48.3540457297214  C 105.728884260914 48.4177302042166  104.973220863186 48.6883892208216  104.485801615301 48.5490794328632  C 103.874074102855 48.3699668483452  102.987559900326 47.3868377733243  102.523039543281 46.8574605790821  C 101.983279973475 46.248477791721  100.903760833864 44.9708080221594  100.52429349994 44.2543576840873  C 100.52429349994 44.2543576840873  99.2419556128871 40.6681257140716  99.2419556128871 40.6681257140716  C 98.4306806231188 38.7098281233417  97.6357619839505 39.1516391651527  97.3086349719472 36.6082404649972  C 96.9847792300639 34.1046445614012  97.8614796222329 34.8887596536245  98.5419038072 33.4319772995449  C 98.7512650948821 32.9861859780779  98.9279136813638 31.6488120136768  98.9475413020841 31.1154545397788  C 98.9475413020841 31.1154545397788  98.7218236638018 28.2496531874909  98.7218236638018 28.2496531874909  C 98.7741639857224 27.4336958580201  99.2812108543275 25.7978009194225  99.1732589403664 25.1529956151577  C 99.0424081355651 24.3370382856869  98.3717977609581 24.0265764725224  98.0119580477544 23.2225599820194  C 97.6782884955111 22.4782476863557  97.6161343632304 20.6274176463365  97.4198581560283 19.6482688509716  C 101.224345305628 18.1875062172359  100.076129493496 13.7335732822219  98.5975153992405 10.5732312353933  C 98.5975153992405 10.5732312353933  100.364001264059 10.0955976766787  100.364001264059 10.0955976766787  C 100.364001264059 10.0955976766787  98.9900678136446 9.11644888131377  98.9900678136446 9.11644888131377  C 97.6946448461112 8.0935170097332  97.4623846675888 7.57608065445899  95.8496484984121 6.70439940980472  C 94.6883476058002 6.07153494450793  94.3186940822363 6.4257798338879  93.7004240295499 6.0317321479483  C 93.1704782701045 5.68942809753619  92.7844683959404 4.94511580187253  92.3003204181755 4.45554140419  C 91.4825028881671 3.62366295609536  90.79880743308 3.42464897329762  89.7683573452694 3.40872785467374  C 89.7683573452694 3.40872785467374  85.1231537748214 3.8863614133885  85.1231537748214 3.8863614133885  C 84.5572240440555 3.89432197270025  83.8735285889684 3.94208532857178  83.3566679100032 3.64356435437512  C 82.7776530987572 3.30524058361894  82.4832387879542 2.69625779625778  81.7864582523869 2.63655360141846  C 81.7864582523869 2.63655360141846  78.2534865227505 3.29728002430701  78.2534865227505 3.29728002430701  C 78.2534865227505 3.29728002430701  76.4870006579323 3.01069988907821  76.4870006579323 3.01069988907821  C 76.4870006579323 3.01069988907821  72.7610239912137 3.48037288848096  72.7610239912137 3.48037288848096  C 71.9170363002451 3.74705162543003  71.4917711846406 4.77794405632238  70.9062138331545 5.48245355542653  C 70.2748586999881 6.238706690058  67.5302630692797 8.33233378909057  66.7091742691513 8.51144637360844  C 66.1236169176652 8.63483504294311  65.7245219630211 7.98604945902241  65.2992568474167 7.59200177308284  C 64.556678530169 6.90341339260257  63.7192333794404 6.21880529177827  62.7509374239104 6.35015452042478  C 61.8120828994607 6.4735431897594  61.0302493407726 7.0626245788408  60.199346730284 7.32134275647783  C 59.5287363556771 7.53229757824346  58.733817716509 7.45667226478034  58.0403084510618 7.46861310374817  C 55.9826795455605 7.50443562065183  55.6620950737972 8.76618427158965  54.5073367214253 9.02888272888268  C 53.8367263468183 9.18411363546491  53.411461231214 8.646775881911  52.740850856607 8.55920972947999  C 51.7758261711971 8.5034858142966  51.3734599464329 9.17217279649708  49.6037028114946 8.55920972947999  C 48.6517632065648 8.18506344182015  48.282109683001 7.50443562065183  47.4446645322723 7.10242737540028  C 46.8852773417466 6.83574863845135  46.1786829958193 6.84370919776325  45.7926731216553 6.37403619836047  C 45.3150676841303 5.792915368591  45.4230195980915 4.63067370905205  45.086078775728 3.90626281166817  C 44.6182871485631 2.89527177905555  42.8779714447052 1.85243850919528  41.9489307306156 1.71312872123681  C 39.4365952784297 1.32306131495315  37.3560674820882 4.52718643799724  36.4531969289588 5.07646503051905  C 36.0606445145548 5.31528180987638  35.7008048013511 5.30732125056446  35.2755396857467 5.31926208953237  C 34.725966305581 5.33120292850023  33.4370858782877 5.41478880127534  32.9987356822032 5.07646503051905  C 32.498231353838 4.68639762423547  32.4066357904771 3.85053889648478  31.8636049505515 3.54405736297625  C 31.5462917489082 3.36494477845827  30.6139797646985 3.41668841398567  30.1756295686141 3.33708282086661  C 29.3774396593258 3.1977730329082  28.526909428117 2.83556758421625  27.8203150821897 2.37385514412534  C 26.6688279999378 1.62556256880575  25.1542299343622 -0.161582996718153  23.6985147309471 0.447399790642976  C 23.0802446782608 0.71009824793606  22.4096343036539 1.64944424674155  21.9320288661289 2.20270311891932  C 21.2810461122422 2.95895625355078  20.6725898699159 3.46445176985713  20.1459153805905 4.36399497210306  C 19.4360497645431 5.58196054682537  17.679377710085 8.95723769507549  16.7961347776759 9.75329362626655  C 16.1124393225888 10.3463552950039  15.2291963901797 9.93638649044047  14.4735329924519 9.75329362626655  C 13.1748387547985 9.46671349103778  12.0527931036269 9.24381783030424  10.7475563257334 9.75329362626655  C 9.73673385864301 10.1433610325503  9.45540462832009 11.1026084296354  8.72591139155259 11.9145854794503  C 8.72591139155259 11.9145854794503  7.12953157297608 13.3474861555943  7.12953157297608 13.3474861555943  C 6.7827769402525 13.8290999939649  6.73370788845197 14.5057475354772  6.62248470437082 15.1107500431824  C 6.42293722704876 16.2013466689142  5.77849701340212 18.1636245393002  5.97150195048413 19.1706352922569  C 6.40003833620852 21.3956116199359  7.97024799382473 23.5807851510554  7.99968942490507 26.1003021732751  C 8.02913085598536 28.8825176527879  8.42495454050948 32.2498342417261  5.84065114568279 33.5195434519758  C 5.5233379440395 33.6747743585581  5.00320599495413 33.8777686210119  4.66299390247059 33.8339855447963  C 3.34467204409702 33.6668137992463  2.7329445316507 30.9761447518204  2.34366338736669 30.5502548286332  C 1.85624413948161 30.0208776343911  0.90103326443176 30.5303534303534  0.658959275549272 31.1791390142741  C 0.515023390267793 31.5652261409018  0.547736091468131 32.3413806738131  0.524837200627886 32.78717199528  C 0.479039418947401 33.5832279264712  0.129013516103775 35.4897818816737  0.282763211745404 36.1306069062825  C 0.459411798227215 36.8629783629784  1.01879898875301 37.2888682861655  1.06459677043343 37.9018313531827  C 1.10385201187386 38.3914057508651  0.694943246869656 39.119796927905  0.622975304228895 39.9516753759997  C 0.622975304228895 39.9516753759997  0.776724999870467 42.3398431695728  0.776724999870467 42.3398431695728  C 0.776724999870467 42.3398431695728  0.269678131265259 44.7319912428021  0.269678131265259 44.7319912428021  C 0.191167648384443 45.4285401825942  1.08095312103363 49.3690170419899  1.44079283423736 49.8904336769201  C 2.13103082956449 50.8934641502209  3.34467204409702 50.9133655485006  4.27044148806658 51.3352751920319  C 5.281263955157 51.8009679117787  7.08700506141565 53.4886064859037  7.74125908542239 54.5234791964522  C 8.51327883375038 55.7494053304864  8.21559325282728 57.1544440490385  8.97452792067512 58.2729026323621  C 9.52737257096085 59.0928402414889  10.0344194395661 58.7346150724529  11.1368374700175 59.7097835881619  C 12.2915958223894 60.7247549004305  13.125769702998 62.1258133393268  14.1365921700884 63.3119366768015  C 14.1365921700884 63.3119366768015  15.5923073735035 64.6493106412025  15.5923073735035 64.6493106412025  C 16.22366250667 65.4334257334257  16.0829978915085 66.6394504691801  16.4330237943522 67.2484332565412  Z " fill-rule="nonzero" fill="#1c8dff" stroke="none" transform="matrix(1 0 0 1 219 2210 )" />
    <path d="M 16.4330237943522 67.2484332565412  C 16.7405231856353 67.7857710100953  17.3358943474815 68.0484694673884  17.8102285148864 68.2992270857134  C 18.2453074408509 67.5907373069535  19.0598537007393 65.9110592921403  19.5930707303048 65.3657609792745  C 20.8328821057975 64.1000320486806  21.4151681871636 64.4184544211571  22.7171336949371 65.2105300726921  C 23.1293137300613 65.4652679706733  23.678887110227 66.1737577494333  24.0256417429505 66.5359631981253  C 24.8957995948795 67.455407798651  25.6023939408068 69.676403846674  26.2108501831331 70.9023299807084  C 26.783322454139 72.0685519199032  27.3001831331044 72.1760194706141  27.938080806511 73.0954640711398  C 28.719914365199 74.2218832137749  28.4974679970367 74.8189251621683  29.979353361412 76.2597863976242  C 30.8756813743013 77.1274873626224  32.4458910319175 77.9912080479647  32.9954644120831 78.8310470553713  C 33.9212338560528 80.2559871722034  34.1371376839749 82.4610621016025  35.6713633702708 83.9059036167145  C 37.0125841194846 85.1716325473083  37.1303498438058 83.9656078115538  38.2196827937771 84.1447203960718  C 39.0767555652259 84.2880104636861  40.3525509120391 85.4582126825369  40.6535077630822 86.4493023168698  C 40.8072574587238 86.9508175535203  40.7680022172834 87.8145382388626  40.7712734874034 88.3598365517283  C 40.7876298380036 91.2972829378234  42.1582920182978 91.6555081068594  43.6957889747137 93.2316988506177  C 44.1668518719985 93.7133126889883  44.5136065047221 94.3939405101567  45.0958925860881 94.6685798064176  C 45.6781786674541 94.9392388230226  46.4534696859021 94.6526586877937  46.9736016349875 95.0546669330452  C 47.9484401307575 95.8109200676768  48.0269506136384 98.3622793271441  48.5372687523636 98.8757354027624  C 48.7793427412461 99.1185324617757  51.5828212341151 99.9185686726227  52.4922343274844 100.778309078309  C 53.1399458112512 101.395252424982  53.224998834372 102.545553245553  53.5750247372157 103.409273930896  C 53.9185080998192 104.269014336582  54.4648102098648 105.005366072933  54.8998891358293 105.797441724469  C 54.8998891358293 105.797441724469  55.6849939646374 104.125724268968  55.6849939646374 104.125724268968  C 56.3359767185242 104.690923980113  57.6183146055774 106.394483672862  58.2365846582637 106.458168147357  C 59.4076993612359 106.577576537036  59.4763960337566 104.96954355603  61.3802752436162 105.944712071739  C 62.1719226126644 106.350700596647  63.0682506255536 107.011427019535  63.6538079770397 107.779620993134  C 63.971121178683 108.193570077354  64.2459078687659 108.870217618866  64.5926625014894 109.136896355815  C 65.1585922322553 109.570746838314  66.686275378311 109.272225864118  67.4615663967591 109.475220126571  C 68.1616182024462 109.658312990745  68.6948352320118 110.167788786708  69.2280522615772 110.179729625676  C 69.9411891477446 110.187690184987  70.3304702920287 109.463279287604  70.9912668562755 109.4274567707  C 70.9912668562755 109.4274567707  72.3652003066897 109.777721380424  72.3652003066897 109.777721380424  C 72.9376725776955 109.913050888727  74.3443187293101 109.873248092167  74.916791000316 109.777721380424  C 76.5393409798528 109.391634253796  77.0725580094183 108.519953009142  78.0572103155484 109.136896355815  C 81.0340661247792 110.995686955146  78.9044692766371 113.387835028376  78.8455864144766 116.070543516489  C 78.8030599029162 117.98903831066  79.1334581850396 118.721409767356  80.4125248019727 119.891611986206  C 80.7298380036161 118.454731030407  81.2336136021012 115.919292889563  82.0056333504292 114.876459619703  C 82.8725199322382 113.69829684154  83.5464015769651 113.300268875944  84.305336244813 112.416646792322  C 85.4142968155044 111.119075624481  85.8886309829093 110.127985990148  87.6093190660471 109.530944041755  C 88.5514448606168 109.208541389622  91.1259344450834 109.61452991453  91.9241243543717 110.239433820515  C 92.5816496484984 110.752889896133  93.0592550860234 111.656413378035  93.8868864263919 112.177830012965  C 93.8868864263919 112.177830012965  97.0273057416243 113.467440621495  97.0273057416243 113.467440621495  C 97.9498039154738 113.957015019177  98.2671171171171 114.601820323442  98.9900678136446 114.796854026584  C 98.9900678136446 114.796854026584  101.345382300069 114.637642840346  101.345382300069 114.637642840346  C 102.856709095525 114.617741442066  103.226362619088 114.542116128603  103.942770775376 116.309360295847  C 104.142318252698 116.798934693529  104.292796678219 117.185021820157  104.36803589098 117.742260971991  C 104.37457843122 118.554238021806  103.978754746696 119.545327656138  104.36803589098 120.241876595931  C 105.28399152459 121.638954755171  107.429944723332 121.543428043428  107.871566189536 123.243007456521  C 108.617415776904 125.718741402525  106.975238176647 126.582462087867  107.871566189536 128.71589198346  C 108.025315885178 129.193525542174  108.18887939118 129.464184558779  108.627229587264 129.647277422953  C 108.879117386507 129.695040778824  109.503929979433 129.691060499169  109.785259209756 129.647277422953  C 109.785259209756 129.647277422953  112.333578633262 129.396519804628  112.333578633262 129.396519804628  C 112.333578633262 129.396519804628  113.707512083677 130.013463151301  113.707512083677 130.013463151301  C 113.707512083677 130.013463151301  115.473997948495 130.288102447562  115.473997948495 130.288102447562  C 115.473997948495 130.288102447562  117.436760020515 130.956789429762  117.436760020515 130.956789429762  C 117.436760020515 130.956789429762  119.792074506939 130.650307896254  119.792074506939 130.650307896254  C 120.665503628988 130.602544540382  121.898772464241 130.650307896254  122.710047454009 130.192575735819  C 123.498423552938 129.750764694008  123.472253391977 128.871122890042  124.012012961783 128.035264162291  C 124.012012961783 128.035264162291  127.250570380616 124.532618065051  127.250570380616 124.532618065051  C 128.686657963311 123.243007456521  129.923198068684 124.098767582551  131.369099461739 123.390277803791  C 132.605639567112 122.789255575742  136.472280848992 120.69562847671  137.453661885002 119.899572545518  C 138.899563278057 118.721409767356  138.909377088417 117.344233006395  141.18290982184 116.86659944768  C 143.243809997462 116.428768685525  143.590564630185 117.284528811556  145.304710173083 118.052722785155  C 146.629574571696 118.645784453892  148.131087556792 119.0517729788  149.230234317123 120.178192121435  C 149.230234317123 120.178192121435  150.604167767537 121.710599788978  150.604167767537 121.710599788978  C 150.604167767537 121.710599788978  152.164563614794 123.047973753379  152.164563614794 123.047973753379  C 152.481876816437 123.382317244479  152.972567334442 124.134590099455  153.384747369566 124.214195692574  C 154.251633951375 124.381367438124  155.033467510063 122.82109781299  155.360594522067 122.040963000422  C 156.155513161235 120.126448485908  157.028942283284 116.540216515892  158.841225929783 115.672515550894  C 159.838963316393 115.194881992179  160.067952224795 116.86659944768  161.039519450445 117.829827124422  C 161.422258054489 118.207953691738  163.352307425309 119.712499401689  163.751402379953 119.696578283065  C 164.170124955318 119.684637444097  165.102436939527 118.968187106025  165.517888244772 118.69752808942  C 165.733792072694 119.19904332607  165.966052251216 119.831907791367  166.39458863694 120.122468206252  C 166.904906775666 120.46875253632  168.30828165716 119.995099257261  168.527456755203 119.314471436093  C 168.710647881925 118.749271724947  168.089106559118 115.127217238028  168.053122587798 114.19981207819  C 168.013867346357 113.168919647298  168.776073284325 111.568847225604  169.050859974408 110.334960532258  C 169.050859974408 110.334960532258  171.010350776308 111.771841488058  171.010350776308 111.771841488058  C 171.010350776308 111.771841488058  171.837982116677 109.140876635471  171.837982116677 109.140876635471  C 171.837982116677 109.140876635471  172.678698537525 107.230342400613  172.678698537525 107.230342400613  C 172.678698537525 107.230342400613  172.011359433038 101.737556475394  172.011359433038 101.737556475394  C 172.011359433038 101.737556475394  172.724496319206 97.9164880056772  172.724496319206 97.9164880056772  C 172.724496319206 97.9164880056772  172.037529593999 94.3342363153173  172.037529593999 94.3342363153173  C 172.037529593999 94.3342363153173  172.037529593999 90.7519846249576  172.037529593999 90.7519846249576  C 172.037529593999 90.7519846249576  171.644977179595 87.4045694342991  171.644977179595 87.4045694342991  C 171.644977179595 87.4045694342991  170.24487356822 82.3894170677954  170.24487356822 82.3894170677954  C 170.24487356822 82.3894170677954  170.542559149143 80.379375841538  170.542559149143 80.379375841538  C 170.542559149143 80.379375841538  171.795455605116 79.7624324948649  171.795455605116 79.7624324948649  C 171.795455605116 79.7624324948649  170.693037574665 78.3096304204411  170.693037574665 78.3096304204411  C 170.693037574665 78.3096304204411  168.749903123365 74.5084633490039  168.749903123365 74.5084633490039  C 168.455488812562 73.5969793077901  168.524185485083 72.7412191817596  168.357350708961 71.8814787760733  C 168.128361800559 70.6834145996307  166.836210103145 67.2364924175735  166.096903056018 66.480239282942  C 165.135149640728 65.501090487577  163.231270430868 64.3348685483821  161.984916515135 64.3149671501022  C 161.294678519808 64.3070065907904  160.509573691 64.1796376417998  160.015611902875 64.8682260222801  C 159.58707551715 65.4692482503293  159.148725321066 67.272314934477  159.004789435784 68.0604103063562  C 158.906651332183 68.5897875005983  158.857582280383 69.4375870673168  158.533726538499 69.8276544736004  C 158.108461422895 70.3331499899067  157.470563749488 70.1062740495173  156.881735127882 70.3411105492186  C 156.377959529397 70.5441048116724  155.73351931575 71.1491073193775  155.354051981827 71.5948986408446  C 154.369399675696 72.7611205800395  154.595117313979 74.0865537054726  153.885251697931 74.4129366372609  C 152.962753524082 74.8308660011363  151.641160395588 73.0277993169885  150.993448911822 72.4785207244665  C 150.434061721296 72.000887165752  149.87140326065 71.8695379371054  149.230234317123 71.6426619967161  C 149.230234317123 71.6426619967161  148.837681902719 74.5084633490039  148.837681902719 74.5084633490039  C 148.837681902719 74.5084633490039  145.304710173083 72.9959570797408  145.304710173083 72.9959570797408  C 144.797663304478 72.7889825376311  143.803197187987 72.4665798854987  143.459713825384 71.9969068860961  C 142.802188531257 71.0933834041942  143.554580658865 69.9828853801826  142.700779157536 67.8215935269989  C 142.481604059494 67.2603740955092  142.223173720011 66.5558645964049  141.729211931886 66.2891858594561  C 141.15673966088 65.9866846056035  140.616980091074 65.9986254445714  139.900571934787 65.1985892337243  C 138.804696444576 63.9766433793461  138.013049075528 60.9635716797878  136.472280848992 60.5098197990089  C 135.651192048863 60.2670227399957  133.760397919484 61.7476867720111  132.743032912153 61.9108782379051  C 131.071413880816 62.1775569748542  129.972267120485 60.1754763079087  128.624503831031 59.8411328168085  C 127.999691238104 59.6898821898822  127.240756570256 59.8928764523358  126.465465551808 59.6261977153869  C 126.465465551808 59.6261977153869  122.147388993364 57.572373412914  122.147388993364 57.572373412914  C 120.923933968471 57.1146412524791  119.370080661455 56.8758244731217  118.221864849323 56.1315121774581  C 117.508727963156 55.6658194577113  117.119446818872 55.0050930348227  116.651655191707 54.6866706623463  C 115.807667500738 54.1135103918887  115.320248252853 54.8737438061762  114.492616912485 54.3403863322782  C 114.096793227961 54.0816681546411  113.458895554554 53.2617305455142  113.11868346207 52.8517617409508  C 111.290043464972 50.6267854132719  110.890948510327 50.4874756253134  110.374087831362 47.3589758157325  C 108.21504955214 48.218716221419  108.401511948982 48.0913472724283  106.25228748012 48.3540457297214  C 105.728884260914 48.4177302042166  104.973220863186 48.6883892208216  104.485801615301 48.5490794328632  C 103.874074102855 48.3699668483452  102.987559900326 47.3868377733243  102.523039543281 46.8574605790821  C 101.983279973475 46.248477791721  100.903760833864 44.9708080221594  100.52429349994 44.2543576840873  C 100.52429349994 44.2543576840873  99.2419556128871 40.6681257140716  99.2419556128871 40.6681257140716  C 98.4306806231188 38.7098281233417  97.6357619839505 39.1516391651527  97.3086349719472 36.6082404649972  C 96.9847792300639 34.1046445614012  97.8614796222329 34.8887596536245  98.5419038072 33.4319772995449  C 98.7512650948821 32.9861859780779  98.9279136813638 31.6488120136768  98.9475413020841 31.1154545397788  C 98.9475413020841 31.1154545397788  98.7218236638018 28.2496531874909  98.7218236638018 28.2496531874909  C 98.7741639857224 27.4336958580201  99.2812108543275 25.7978009194225  99.1732589403664 25.1529956151577  C 99.0424081355651 24.3370382856869  98.3717977609581 24.0265764725224  98.0119580477544 23.2225599820194  C 97.6782884955111 22.4782476863557  97.6161343632304 20.6274176463365  97.4198581560283 19.6482688509716  C 101.224345305628 18.1875062172359  100.076129493496 13.7335732822219  98.5975153992405 10.5732312353933  C 98.5975153992405 10.5732312353933  100.364001264059 10.0955976766787  100.364001264059 10.0955976766787  C 100.364001264059 10.0955976766787  98.9900678136446 9.11644888131377  98.9900678136446 9.11644888131377  C 97.6946448461112 8.0935170097332  97.4623846675888 7.57608065445899  95.8496484984121 6.70439940980472  C 94.6883476058002 6.07153494450793  94.3186940822363 6.4257798338879  93.7004240295499 6.0317321479483  C 93.1704782701045 5.68942809753619  92.7844683959404 4.94511580187253  92.3003204181755 4.45554140419  C 91.4825028881671 3.62366295609536  90.79880743308 3.42464897329762  89.7683573452694 3.40872785467374  C 89.7683573452694 3.40872785467374  85.1231537748214 3.8863614133885  85.1231537748214 3.8863614133885  C 84.5572240440555 3.89432197270025  83.8735285889684 3.94208532857178  83.3566679100032 3.64356435437512  C 82.7776530987572 3.30524058361894  82.4832387879542 2.69625779625778  81.7864582523869 2.63655360141846  C 81.7864582523869 2.63655360141846  78.2534865227505 3.29728002430701  78.2534865227505 3.29728002430701  C 78.2534865227505 3.29728002430701  76.4870006579323 3.01069988907821  76.4870006579323 3.01069988907821  C 76.4870006579323 3.01069988907821  72.7610239912137 3.48037288848096  72.7610239912137 3.48037288848096  C 71.9170363002451 3.74705162543003  71.4917711846406 4.77794405632238  70.9062138331545 5.48245355542653  C 70.2748586999881 6.238706690058  67.5302630692797 8.33233378909057  66.7091742691513 8.51144637360844  C 66.1236169176652 8.63483504294311  65.7245219630211 7.98604945902241  65.2992568474167 7.59200177308284  C 64.556678530169 6.90341339260257  63.7192333794404 6.21880529177827  62.7509374239104 6.35015452042478  C 61.8120828994607 6.4735431897594  61.0302493407726 7.0626245788408  60.199346730284 7.32134275647783  C 59.5287363556771 7.53229757824346  58.733817716509 7.45667226478034  58.0403084510618 7.46861310374817  C 55.9826795455605 7.50443562065183  55.6620950737972 8.76618427158965  54.5073367214253 9.02888272888268  C 53.8367263468183 9.18411363546491  53.411461231214 8.646775881911  52.740850856607 8.55920972947999  C 51.7758261711971 8.5034858142966  51.3734599464329 9.17217279649708  49.6037028114946 8.55920972947999  C 48.6517632065648 8.18506344182015  48.282109683001 7.50443562065183  47.4446645322723 7.10242737540028  C 46.8852773417466 6.83574863845135  46.1786829958193 6.84370919776325  45.7926731216553 6.37403619836047  C 45.3150676841303 5.792915368591  45.4230195980915 4.63067370905205  45.086078775728 3.90626281166817  C 44.6182871485631 2.89527177905555  42.8779714447052 1.85243850919528  41.9489307306156 1.71312872123681  C 39.4365952784297 1.32306131495315  37.3560674820882 4.52718643799724  36.4531969289588 5.07646503051905  C 36.0606445145548 5.31528180987638  35.7008048013511 5.30732125056446  35.2755396857467 5.31926208953237  C 34.725966305581 5.33120292850023  33.4370858782877 5.41478880127534  32.9987356822032 5.07646503051905  C 32.498231353838 4.68639762423547  32.4066357904771 3.85053889648478  31.8636049505515 3.54405736297625  C 31.5462917489082 3.36494477845827  30.6139797646985 3.41668841398567  30.1756295686141 3.33708282086661  C 29.3774396593258 3.1977730329082  28.526909428117 2.83556758421625  27.8203150821897 2.37385514412534  C 26.6688279999378 1.62556256880575  25.1542299343622 -0.161582996718153  23.6985147309471 0.447399790642976  C 23.0802446782608 0.71009824793606  22.4096343036539 1.64944424674155  21.9320288661289 2.20270311891932  C 21.2810461122422 2.95895625355078  20.6725898699159 3.46445176985713  20.1459153805905 4.36399497210306  C 19.4360497645431 5.58196054682537  17.679377710085 8.95723769507549  16.7961347776759 9.75329362626655  C 16.1124393225888 10.3463552950039  15.2291963901797 9.93638649044047  14.4735329924519 9.75329362626655  C 13.1748387547985 9.46671349103778  12.0527931036269 9.24381783030424  10.7475563257334 9.75329362626655  C 9.73673385864301 10.1433610325503  9.45540462832009 11.1026084296354  8.72591139155259 11.9145854794503  C 8.72591139155259 11.9145854794503  7.12953157297608 13.3474861555943  7.12953157297608 13.3474861555943  C 6.7827769402525 13.8290999939649  6.73370788845197 14.5057475354772  6.62248470437082 15.1107500431824  C 6.42293722704876 16.2013466689142  5.77849701340212 18.1636245393002  5.97150195048413 19.1706352922569  C 6.40003833620852 21.3956116199359  7.97024799382473 23.5807851510554  7.99968942490507 26.1003021732751  C 8.02913085598536 28.8825176527879  8.42495454050948 32.2498342417261  5.84065114568279 33.5195434519758  C 5.5233379440395 33.6747743585581  5.00320599495413 33.8777686210119  4.66299390247059 33.8339855447963  C 3.34467204409702 33.6668137992463  2.7329445316507 30.9761447518204  2.34366338736669 30.5502548286332  C 1.85624413948161 30.0208776343911  0.90103326443176 30.5303534303534  0.658959275549272 31.1791390142741  C 0.515023390267793 31.5652261409018  0.547736091468131 32.3413806738131  0.524837200627886 32.78717199528  C 0.479039418947401 33.5832279264712  0.129013516103775 35.4897818816737  0.282763211745404 36.1306069062825  C 0.459411798227215 36.8629783629784  1.01879898875301 37.2888682861655  1.06459677043343 37.9018313531827  C 1.10385201187386 38.3914057508651  0.694943246869656 39.119796927905  0.622975304228895 39.9516753759997  C 0.622975304228895 39.9516753759997  0.776724999870467 42.3398431695728  0.776724999870467 42.3398431695728  C 0.776724999870467 42.3398431695728  0.269678131265259 44.7319912428021  0.269678131265259 44.7319912428021  C 0.191167648384443 45.4285401825942  1.08095312103363 49.3690170419899  1.44079283423736 49.8904336769201  C 2.13103082956449 50.8934641502209  3.34467204409702 50.9133655485006  4.27044148806658 51.3352751920319  C 5.281263955157 51.8009679117787  7.08700506141565 53.4886064859037  7.74125908542239 54.5234791964522  C 8.51327883375038 55.7494053304864  8.21559325282728 57.1544440490385  8.97452792067512 58.2729026323621  C 9.52737257096085 59.0928402414889  10.0344194395661 58.7346150724529  11.1368374700175 59.7097835881619  C 12.2915958223894 60.7247549004305  13.125769702998 62.1258133393268  14.1365921700884 63.3119366768015  C 14.1365921700884 63.3119366768015  15.5923073735035 64.6493106412025  15.5923073735035 64.6493106412025  C 16.22366250667 65.4334257334257  16.0829978915085 66.6394504691801  16.4330237943522 67.2484332565412  Z " stroke-width="2.13294375456538" stroke="#ffffff" fill="none" transform="matrix(1 0 0 1 219 2210 )" mask="url(#clip14)" />
  </g>
</svg>