<?xml version="1.0" encoding="utf-8"?>
<svg version="1.1" xmlns:xlink="http://www.w3.org/1999/xlink" width="54px" height="57px" xmlns="http://www.w3.org/2000/svg">
  <defs>
    <mask fill="white" id="clip47">
      <path d="M 36.2670215795274 0.456521124437359  C 36.2670215795274 0.456521124437359  34.314835770264 0.236896722354402  34.314835770264 0.236896722354402  C 34.314835770264 0.236896722354402  33.7291800274851 4.71174391479525  33.7291800274851 4.71174391479525  C 33.0719441383665 4.56663493484763  32.1316413069046 4.08816748745255  31.5817756372956 4.13522985932741  C 29.6458580431095 4.31171375385844  29.8020329078506 5.6686788095854  29.1090069455622 7.30017436791633  C 29.1090069455622 7.30017436791633  28.0678411806218 9.41798110228797  28.0678411806218 9.41798110228797  C 28.0678411806218 9.41798110228797  26.1807282316673 6.82955064916706  26.1807282316673 6.82955064916706  C 25.8033056418764 7.15114352364572  25.0126703891248 7.99042248874849  24.6189795842566 8.07278163952964  C 23.7990615443661 8.23749994109187  22.5691844845304 6.57070760385488  21.6907008703619 6.51972336765704  C 21.0627477683822 6.48442658875086  19.6929640588825 7.68843893588439  19.162620247366 8.16298451895665  C 18.9576407373933 8.34731214213338  18.7038565821892 8.55909281557058  18.5737108615716 8.83362331817432  C 18.3166730633519 9.37091873041305  18.547681717448 10.9161332736397  18.9088360921617 11.343616484837  C 18.9088360921617 11.343616484837  20.096415792797 12.1397549423879  20.096415792797 12.1397549423879  C 20.5812086020973 12.575081882231  20.8870510455485 13.269251867386  21.498735932451 13.4731888121774  C 21.9574995976278 13.6261415207709  23.1353183692166 13.2927830533236  23.642886679625 13.182970852282  C 23.7600178281808 14.0889215108743  24.2317960654195 15.4772614811847  24.0756212006784 16.2420250241523  C 23.5778138193163 18.6853464973256  22.3967414047121 18.0853012559202  20.9098265466565 18.5402375173778  C 20.3144098748313 18.7206432762317  19.5628183382649 19.1638139447206  18.9576407373933 19.0775329296166  C 18.3264339923983 18.9873300501896  17.5585742407546 18.2970819293573  17.0087085711456 18.1637385423785  C 15.6259102895841 17.8421456678997  15.1638929813918 19.4305007186786  14.542447165443 20.4776384928956  C 14.0121033539265 21.3639798298734  12.1477659060802 23.442567921016  11.3473697242822 23.8857385895049  C 10.055673447153 24.6034397605976  8.54923673100495 22.7091792926317  6.8573423629768 22.124821508518  C 5.50382686855426 24.6583458611183  5.29884735858167 22.9954753882042  3.73384506815563 23.136662503829  C 2.32176399945524 23.266084026485  0.519245768902124 25.1211258512218  0.242686112589865 26.8349805603336  C 0.0702430327717138 27.909571384811  0.854370999492346 28.7213972996536  1.18949623008251 29.5802855863709  C 1.66778175335207 30.803907255119  0.616855059365378 32.1020443460024  1.98989241188048 33.0040731402719  C 2.98876081762018 33.6629463465209  3.59068477547629 32.5216838285539  4.51471939186087 32.3216687480854  C 5.04180956036208 32.2118565470439  7.74558690619153 32.7922924668347  8.20760421438382 33.1099634769905  C 8.55249037402041 33.3531190650108  8.76072352700839 33.6668682108438  8.98522489507377 34.0551327788119  C 10.0003615158906 35.7885968095383  9.3854229859727 35.6827064728197  8.48091022768074 38.0515125238578  C 7.83994255363933 39.7222267254176  7.13390201928905 42.1145639623931  6.94193708137823 43.9343090082236  C 6.72719664235922 45.9697565918141  7.66749947382101 45.4010862649921  8.49067115672705 46.4050835316572  C 9.0795805425214 47.1267065670727  9.73356278862457 49.044498220976  9.77911379084065 50.0563392162868  C 9.87021579527305 52.197677136596  8.90388381968785 53.7977977803434  8.22387242946104 55.703823841278  C 8.70215795273054 56.0764009519545  9.40494484406526 56.6882117863285  9.98083965779796 56.7391960225264  C 10.4656324670983 56.7823365300785  10.9243961322751 56.4803529772143  11.3473697242822 56.2293536605481  C 12.9351475158163 55.2998718160183  13.2214681011749 54.9625914842479  13.6899926953981 52.8800815287824  C 14.3016775823006 53.076174744928  15.0890591920368 53.2212837248756  15.6421785046613 53.5467984636772  C 16.29941439378 53.9389848959683  16.6052568372311 54.4213742076863  17.3991457329981 54.7586545394566  C 18.7949585866214 55.358699780862  21.550794220698 55.703823841278  23.0572309368461 55.703823841278  C 23.0572309368461 55.703823841278  23.0572309368461 52.8800815287824  23.0572309368461 52.8800815287824  C 25.4128684800237 52.4408327246164  26.935573411249 51.4799759655034  29.0439340852534 50.4799005631612  C 30.2673038590582 49.8955427790476  31.126265615134 49.919073964985  31.0416708967327 48.1738443412898  C 30.9570761783312 46.4835208181153  32.1218803778584 45.0716496618676  33.5339614465588 45.8324913405123  C 34.8061358655953 46.5188175970216  34.8093895086107 47.5188929993637  35.5479664731153 48.2875784066541  C 36.146636787956 48.9111548339969  39.2213294375456 50.1896826032659  39.972920974112 50.0210424373806  C 40.3698654219954 49.9308395579538  41.2906463953647 49.5778717688917  41.537923264538 49.1856853366007  C 41.7917074197423 48.7778114470181  41.6875908432482 48.1777662056127  41.7917074197423 47.7110643511863  C 41.9576432135297 46.9659101298333  42.523777098216 46.3893960743655  43.0964182689332 46.0874125215014  C 44.0074383132559 45.6128669384292  44.511752980649 46.2795838733241  45.6342598209753 45.9030848983246  C 45.6342598209753 45.9030848983246  48.9204392665685 44.6480883149933  48.9204392665685 44.6480883149933  C 49.5614069406098 44.177464596244  49.9388295304008 43.169545465256  50.5472607742877 42.7655934399961  C 51.2728231667306 42.2753603996323  52.1447994948682 42.8126558118711  52.6458605192457 42.1537826056221  C 52.8540936722338 41.8792521030184  53.0135221799904 41.2360663540611  53.1176387564843 40.8752548363532  C 53.8106647187727 38.4201677702113  53.6382216389546 37.9809189660454  53.6382216389546 35.4630820707367  C 53.6382216389546 35.4630820707367  51.8812544106177 34.9924583519875  51.8812544106177 34.9924583519875  C 52.6523678052767 32.6628709441786  52.684904235431 33.0119168689177  51.8812544106177 30.7568448832441  C 52.4278664372114 30.5764391243902  53.2965891223334 30.3058304861094  53.6349679959392 29.7175508376728  C 54.3507694593356 28.4743198473103  53.9050203662205 25.5329216051273  52.6426068762303 25.0466104290864  C 52.1838432110534 24.8662046702325  51.5396218939966 25.2701566954923  51.1003800869123 25.4544843186691  C 50.2772084040063 25.7996083790852  49.4182466479306 25.94079549471  48.5625385348702 26.1290449822097  C 48.8846491933986 24.7681580621597  49.8802639561228 22.524851669455  50.6188409206275 21.4306515233629  C 51.3736861002093 20.3011545983646  52.0927412066211 20.1913423973231  52.3790617919798 18.8226117486274  C 52.8052890270022 16.822460943943  52.0048928452043 16.4851806121727  51.6144556833517 14.8301538679045  C 51.4224907454408 14.0261716817078  51.5266073219349 13.0966898371781  51.4322516744871 12.2417234147836  C 51.4322516744871 12.2417234147836  50.905161505986 8.47673366478944  50.905161505986 8.47673366478944  C 50.2414183308365 9.27679398666317  49.9941414616633 10.3709941327552  49.1416869916183 10.9396644595772  C 46.2166619207387 12.8849091637409  44.9086974285325 9.31993449421515  44.85338549727 6.34323947312606  C 44.85338549727 6.34323947312606  43.1582374862264 6.34323947312606  43.1582374862264 6.34323947312606  C 43.1582374862264 6.34323947312606  42.5953572445555 4.94705577416994  42.5953572445555 4.94705577416994  C 42.5953572445555 4.94705577416994  42.1203253643016 1.18990975282168  42.1203253643016 1.18990975282168  C 42.1203253643016 1.18990975282168  40.3633581359646 1.18990975282168  40.3633581359646 1.18990975282168  C 40.3633581359646 1.18990975282168  38.0239888078642 1.53895567756069  38.0239888078642 1.53895567756069  C 38.0239888078642 1.53895567756069  36.2670215795274 0.456521124437359  36.2670215795274 0.456521124437359  Z " fill-rule="evenodd" />
    </mask>
  </defs>
  <g transform="matrix(1 0 0 1 -432 -2318 )">
    <path d="M 36.2670215795274 0.456521124437359  C 36.2670215795274 0.456521124437359  34.314835770264 0.236896722354402  34.314835770264 0.236896722354402  C 34.314835770264 0.236896722354402  33.7291800274851 4.71174391479525  33.7291800274851 4.71174391479525  C 33.0719441383665 4.56663493484763  32.1316413069046 4.08816748745255  31.5817756372956 4.13522985932741  C 29.6458580431095 4.31171375385844  29.8020329078506 5.6686788095854  29.1090069455622 7.30017436791633  C 29.1090069455622 7.30017436791633  28.0678411806218 9.41798110228797  28.0678411806218 9.41798110228797  C 28.0678411806218 9.41798110228797  26.1807282316673 6.82955064916706  26.1807282316673 6.82955064916706  C 25.8033056418764 7.15114352364572  25.0126703891248 7.99042248874849  24.6189795842566 8.07278163952964  C 23.7990615443661 8.23749994109187  22.5691844845304 6.57070760385488  21.6907008703619 6.51972336765704  C 21.0627477683822 6.48442658875086  19.6929640588825 7.68843893588439  19.162620247366 8.16298451895665  C 18.9576407373933 8.34731214213338  18.7038565821892 8.55909281557058  18.5737108615716 8.83362331817432  C 18.3166730633519 9.37091873041305  18.547681717448 10.9161332736397  18.9088360921617 11.343616484837  C 18.9088360921617 11.343616484837  20.096415792797 12.1397549423879  20.096415792797 12.1397549423879  C 20.5812086020973 12.575081882231  20.8870510455485 13.269251867386  21.498735932451 13.4731888121774  C 21.9574995976278 13.6261415207709  23.1353183692166 13.2927830533236  23.642886679625 13.182970852282  C 23.7600178281808 14.0889215108743  24.2317960654195 15.4772614811847  24.0756212006784 16.2420250241523  C 23.5778138193163 18.6853464973256  22.3967414047121 18.0853012559202  20.9098265466565 18.5402375173778  C 20.3144098748313 18.7206432762317  19.5628183382649 19.1638139447206  18.9576407373933 19.0775329296166  C 18.3264339923983 18.9873300501896  17.5585742407546 18.2970819293573  17.0087085711456 18.1637385423785  C 15.6259102895841 17.8421456678997  15.1638929813918 19.4305007186786  14.542447165443 20.4776384928956  C 14.0121033539265 21.3639798298734  12.1477659060802 23.442567921016  11.3473697242822 23.8857385895049  C 10.055673447153 24.6034397605976  8.54923673100495 22.7091792926317  6.8573423629768 22.124821508518  C 5.50382686855426 24.6583458611183  5.29884735858167 22.9954753882042  3.73384506815563 23.136662503829  C 2.32176399945524 23.266084026485  0.519245768902124 25.1211258512218  0.242686112589865 26.8349805603336  C 0.0702430327717138 27.909571384811  0.854370999492346 28.7213972996536  1.18949623008251 29.5802855863709  C 1.66778175335207 30.803907255119  0.616855059365378 32.1020443460024  1.98989241188048 33.0040731402719  C 2.98876081762018 33.6629463465209  3.59068477547629 32.5216838285539  4.51471939186087 32.3216687480854  C 5.04180956036208 32.2118565470439  7.74558690619153 32.7922924668347  8.20760421438382 33.1099634769905  C 8.55249037402041 33.3531190650108  8.76072352700839 33.6668682108438  8.98522489507377 34.0551327788119  C 10.0003615158906 35.7885968095383  9.3854229859727 35.6827064728197  8.48091022768074 38.0515125238578  C 7.83994255363933 39.7222267254176  7.13390201928905 42.1145639623931  6.94193708137823 43.9343090082236  C 6.72719664235922 45.9697565918141  7.66749947382101 45.4010862649921  8.49067115672705 46.4050835316572  C 9.0795805425214 47.1267065670727  9.73356278862457 49.044498220976  9.77911379084065 50.0563392162868  C 9.87021579527305 52.197677136596  8.90388381968785 53.7977977803434  8.22387242946104 55.703823841278  C 8.70215795273054 56.0764009519545  9.40494484406526 56.6882117863285  9.98083965779796 56.7391960225264  C 10.4656324670983 56.7823365300785  10.9243961322751 56.4803529772143  11.3473697242822 56.2293536605481  C 12.9351475158163 55.2998718160183  13.2214681011749 54.9625914842479  13.6899926953981 52.8800815287824  C 14.3016775823006 53.076174744928  15.0890591920368 53.2212837248756  15.6421785046613 53.5467984636772  C 16.29941439378 53.9389848959683  16.6052568372311 54.4213742076863  17.3991457329981 54.7586545394566  C 18.7949585866214 55.358699780862  21.550794220698 55.703823841278  23.0572309368461 55.703823841278  C 23.0572309368461 55.703823841278  23.0572309368461 52.8800815287824  23.0572309368461 52.8800815287824  C 25.4128684800237 52.4408327246164  26.935573411249 51.4799759655034  29.0439340852534 50.4799005631612  C 30.2673038590582 49.8955427790476  31.126265615134 49.919073964985  31.0416708967327 48.1738443412898  C 30.9570761783312 46.4835208181153  32.1218803778584 45.0716496618676  33.5339614465588 45.8324913405123  C 34.8061358655953 46.5188175970216  34.8093895086107 47.5188929993637  35.5479664731153 48.2875784066541  C 36.146636787956 48.9111548339969  39.2213294375456 50.1896826032659  39.972920974112 50.0210424373806  C 40.3698654219954 49.9308395579538  41.2906463953647 49.5778717688917  41.537923264538 49.1856853366007  C 41.7917074197423 48.7778114470181  41.6875908432482 48.1777662056127  41.7917074197423 47.7110643511863  C 41.9576432135297 46.9659101298333  42.523777098216 46.3893960743655  43.0964182689332 46.0874125215014  C 44.0074383132559 45.6128669384292  44.511752980649 46.2795838733241  45.6342598209753 45.9030848983246  C 45.6342598209753 45.9030848983246  48.9204392665685 44.6480883149933  48.9204392665685 44.6480883149933  C 49.5614069406098 44.177464596244  49.9388295304008 43.169545465256  50.5472607742877 42.7655934399961  C 51.2728231667306 42.2753603996323  52.1447994948682 42.8126558118711  52.6458605192457 42.1537826056221  C 52.8540936722338 41.8792521030184  53.0135221799904 41.2360663540611  53.1176387564843 40.8752548363532  C 53.8106647187727 38.4201677702113  53.6382216389546 37.9809189660454  53.6382216389546 35.4630820707367  C 53.6382216389546 35.4630820707367  51.8812544106177 34.9924583519875  51.8812544106177 34.9924583519875  C 52.6523678052767 32.6628709441786  52.684904235431 33.0119168689177  51.8812544106177 30.7568448832441  C 52.4278664372114 30.5764391243902  53.2965891223334 30.3058304861094  53.6349679959392 29.7175508376728  C 54.3507694593356 28.4743198473103  53.9050203662205 25.5329216051273  52.6426068762303 25.0466104290864  C 52.1838432110534 24.8662046702325  51.5396218939966 25.2701566954923  51.1003800869123 25.4544843186691  C 50.2772084040063 25.7996083790852  49.4182466479306 25.94079549471  48.5625385348702 26.1290449822097  C 48.8846491933986 24.7681580621597  49.8802639561228 22.524851669455  50.6188409206275 21.4306515233629  C 51.3736861002093 20.3011545983646  52.0927412066211 20.1913423973231  52.3790617919798 18.8226117486274  C 52.8052890270022 16.822460943943  52.0048928452043 16.4851806121727  51.6144556833517 14.8301538679045  C 51.4224907454408 14.0261716817078  51.5266073219349 13.0966898371781  51.4322516744871 12.2417234147836  C 51.4322516744871 12.2417234147836  50.905161505986 8.47673366478944  50.905161505986 8.47673366478944  C 50.2414183308365 9.27679398666317  49.9941414616633 10.3709941327552  49.1416869916183 10.9396644595772  C 46.2166619207387 12.8849091637409  44.9086974285325 9.31993449421515  44.85338549727 6.34323947312606  C 44.85338549727 6.34323947312606  43.1582374862264 6.34323947312606  43.1582374862264 6.34323947312606  C 43.1582374862264 6.34323947312606  42.5953572445555 4.94705577416994  42.5953572445555 4.94705577416994  C 42.5953572445555 4.94705577416994  42.1203253643016 1.18990975282168  42.1203253643016 1.18990975282168  C 42.1203253643016 1.18990975282168  40.3633581359646 1.18990975282168  40.3633581359646 1.18990975282168  C 40.3633581359646 1.18990975282168  38.0239888078642 1.53895567756069  38.0239888078642 1.53895567756069  C 38.0239888078642 1.53895567756069  36.2670215795274 0.456521124437359  36.2670215795274 0.456521124437359  Z " fill-rule="nonzero" fill="#aad5ff" stroke="none" transform="matrix(1 0 0 1 432 2318 )" />
    <path d="M 36.2670215795274 0.456521124437359  C 36.2670215795274 0.456521124437359  34.314835770264 0.236896722354402  34.314835770264 0.236896722354402  C 34.314835770264 0.236896722354402  33.7291800274851 4.71174391479525  33.7291800274851 4.71174391479525  C 33.0719441383665 4.56663493484763  32.1316413069046 4.08816748745255  31.5817756372956 4.13522985932741  C 29.6458580431095 4.31171375385844  29.8020329078506 5.6686788095854  29.1090069455622 7.30017436791633  C 29.1090069455622 7.30017436791633  28.0678411806218 9.41798110228797  28.0678411806218 9.41798110228797  C 28.0678411806218 9.41798110228797  26.1807282316673 6.82955064916706  26.1807282316673 6.82955064916706  C 25.8033056418764 7.15114352364572  25.0126703891248 7.99042248874849  24.6189795842566 8.07278163952964  C 23.7990615443661 8.23749994109187  22.5691844845304 6.57070760385488  21.6907008703619 6.51972336765704  C 21.0627477683822 6.48442658875086  19.6929640588825 7.68843893588439  19.162620247366 8.16298451895665  C 18.9576407373933 8.34731214213338  18.7038565821892 8.55909281557058  18.5737108615716 8.83362331817432  C 18.3166730633519 9.37091873041305  18.547681717448 10.9161332736397  18.9088360921617 11.343616484837  C 18.9088360921617 11.343616484837  20.096415792797 12.1397549423879  20.096415792797 12.1397549423879  C 20.5812086020973 12.575081882231  20.8870510455485 13.269251867386  21.498735932451 13.4731888121774  C 21.9574995976278 13.6261415207709  23.1353183692166 13.2927830533236  23.642886679625 13.182970852282  C 23.7600178281808 14.0889215108743  24.2317960654195 15.4772614811847  24.0756212006784 16.2420250241523  C 23.5778138193163 18.6853464973256  22.3967414047121 18.0853012559202  20.9098265466565 18.5402375173778  C 20.3144098748313 18.7206432762317  19.5628183382649 19.1638139447206  18.9576407373933 19.0775329296166  C 18.3264339923983 18.9873300501896  17.5585742407546 18.2970819293573  17.0087085711456 18.1637385423785  C 15.6259102895841 17.8421456678997  15.1638929813918 19.4305007186786  14.542447165443 20.4776384928956  C 14.0121033539265 21.3639798298734  12.1477659060802 23.442567921016  11.3473697242822 23.8857385895049  C 10.055673447153 24.6034397605976  8.54923673100495 22.7091792926317  6.8573423629768 22.124821508518  C 5.50382686855426 24.6583458611183  5.29884735858167 22.9954753882042  3.73384506815563 23.136662503829  C 2.32176399945524 23.266084026485  0.519245768902124 25.1211258512218  0.242686112589865 26.8349805603336  C 0.0702430327717138 27.909571384811  0.854370999492346 28.7213972996536  1.18949623008251 29.5802855863709  C 1.66778175335207 30.803907255119  0.616855059365378 32.1020443460024  1.98989241188048 33.0040731402719  C 2.98876081762018 33.6629463465209  3.59068477547629 32.5216838285539  4.51471939186087 32.3216687480854  C 5.04180956036208 32.2118565470439  7.74558690619153 32.7922924668347  8.20760421438382 33.1099634769905  C 8.55249037402041 33.3531190650108  8.76072352700839 33.6668682108438  8.98522489507377 34.0551327788119  C 10.0003615158906 35.7885968095383  9.3854229859727 35.6827064728197  8.48091022768074 38.0515125238578  C 7.83994255363933 39.7222267254176  7.13390201928905 42.1145639623931  6.94193708137823 43.9343090082236  C 6.72719664235922 45.9697565918141  7.66749947382101 45.4010862649921  8.49067115672705 46.4050835316572  C 9.0795805425214 47.1267065670727  9.73356278862457 49.044498220976  9.77911379084065 50.0563392162868  C 9.87021579527305 52.197677136596  8.90388381968785 53.7977977803434  8.22387242946104 55.703823841278  C 8.70215795273054 56.0764009519545  9.40494484406526 56.6882117863285  9.98083965779796 56.7391960225264  C 10.4656324670983 56.7823365300785  10.9243961322751 56.4803529772143  11.3473697242822 56.2293536605481  C 12.9351475158163 55.2998718160183  13.2214681011749 54.9625914842479  13.6899926953981 52.8800815287824  C 14.3016775823006 53.076174744928  15.0890591920368 53.2212837248756  15.6421785046613 53.5467984636772  C 16.29941439378 53.9389848959683  16.6052568372311 54.4213742076863  17.3991457329981 54.7586545394566  C 18.7949585866214 55.358699780862  21.550794220698 55.703823841278  23.0572309368461 55.703823841278  C 23.0572309368461 55.703823841278  23.0572309368461 52.8800815287824  23.0572309368461 52.8800815287824  C 25.4128684800237 52.4408327246164  26.935573411249 51.4799759655034  29.0439340852534 50.4799005631612  C 30.2673038590582 49.8955427790476  31.126265615134 49.919073964985  31.0416708967327 48.1738443412898  C 30.9570761783312 46.4835208181153  32.1218803778584 45.0716496618676  33.5339614465588 45.8324913405123  C 34.8061358655953 46.5188175970216  34.8093895086107 47.5188929993637  35.5479664731153 48.2875784066541  C 36.146636787956 48.9111548339969  39.2213294375456 50.1896826032659  39.972920974112 50.0210424373806  C 40.3698654219954 49.9308395579538  41.2906463953647 49.5778717688917  41.537923264538 49.1856853366007  C 41.7917074197423 48.7778114470181  41.6875908432482 48.1777662056127  41.7917074197423 47.7110643511863  C 41.9576432135297 46.9659101298333  42.523777098216 46.3893960743655  43.0964182689332 46.0874125215014  C 44.0074383132559 45.6128669384292  44.511752980649 46.2795838733241  45.6342598209753 45.9030848983246  C 45.6342598209753 45.9030848983246  48.9204392665685 44.6480883149933  48.9204392665685 44.6480883149933  C 49.5614069406098 44.177464596244  49.9388295304008 43.169545465256  50.5472607742877 42.7655934399961  C 51.2728231667306 42.2753603996323  52.1447994948682 42.8126558118711  52.6458605192457 42.1537826056221  C 52.8540936722338 41.8792521030184  53.0135221799904 41.2360663540611  53.1176387564843 40.8752548363532  C 53.8106647187727 38.4201677702113  53.6382216389546 37.9809189660454  53.6382216389546 35.4630820707367  C 53.6382216389546 35.4630820707367  51.8812544106177 34.9924583519875  51.8812544106177 34.9924583519875  C 52.6523678052767 32.6628709441786  52.684904235431 33.0119168689177  51.8812544106177 30.7568448832441  C 52.4278664372114 30.5764391243902  53.2965891223334 30.3058304861094  53.6349679959392 29.7175508376728  C 54.3507694593356 28.4743198473103  53.9050203662205 25.5329216051273  52.6426068762303 25.0466104290864  C 52.1838432110534 24.8662046702325  51.5396218939966 25.2701566954923  51.1003800869123 25.4544843186691  C 50.2772084040063 25.7996083790852  49.4182466479306 25.94079549471  48.5625385348702 26.1290449822097  C 48.8846491933986 24.7681580621597  49.8802639561228 22.524851669455  50.6188409206275 21.4306515233629  C 51.3736861002093 20.3011545983646  52.0927412066211 20.1913423973231  52.3790617919798 18.8226117486274  C 52.8052890270022 16.822460943943  52.0048928452043 16.4851806121727  51.6144556833517 14.8301538679045  C 51.4224907454408 14.0261716817078  51.5266073219349 13.0966898371781  51.4322516744871 12.2417234147836  C 51.4322516744871 12.2417234147836  50.905161505986 8.47673366478944  50.905161505986 8.47673366478944  C 50.2414183308365 9.27679398666317  49.9941414616633 10.3709941327552  49.1416869916183 10.9396644595772  C 46.2166619207387 12.8849091637409  44.9086974285325 9.31993449421515  44.85338549727 6.34323947312606  C 44.85338549727 6.34323947312606  43.1582374862264 6.34323947312606  43.1582374862264 6.34323947312606  C 43.1582374862264 6.34323947312606  42.5953572445555 4.94705577416994  42.5953572445555 4.94705577416994  C 42.5953572445555 4.94705577416994  42.1203253643016 1.18990975282168  42.1203253643016 1.18990975282168  C 42.1203253643016 1.18990975282168  40.3633581359646 1.18990975282168  40.3633581359646 1.18990975282168  C 40.3633581359646 1.18990975282168  38.0239888078642 1.53895567756069  38.0239888078642 1.53895567756069  C 38.0239888078642 1.53895567756069  36.2670215795274 0.456521124437359  36.2670215795274 0.456521124437359  Z " stroke-width="2.13294375456538" stroke="#ffffff" fill="none" transform="matrix(1 0 0 1 432 2318 )" mask="url(#clip47)" />
  </g>
</svg>