<?xml version="1.0" encoding="utf-8"?>
<svg version="1.1" xmlns:xlink="http://www.w3.org/1999/xlink" width="52px" height="63px" xmlns="http://www.w3.org/2000/svg">
  <defs>
    <mask fill="white" id="clip29">
      <path d="M 35.5988965754308 1.91403607349552  C 33.7590443861985 2.48652322560847  34.2516289262236 1.75501186457529  32.6629622309114 0.244281879832826  C 31.2080436557383 2.6415718293057  32.3758930950029 2.95166903670024  31.537520732179 5.24956885559797  C 30.9111880720147 6.96703031193678  30.3272633523826 6.56946978963609  29.5834933184377 7.32881038723033  C 28.8723447772097 8.0523705378175  28.9734714046319 9.06614986968415  28.1350990418081 9.86922212473149  C 26.9998710952606 10.9585379558352  24.3510058866497 10.0401731493207  22.9417574012805 10.0242707284287  C 22.8504172216732 10.8710746409291  22.7949606840545 11.8848539727958  22.1327443819018 12.3698778100026  C 21.6662570360504 12.7078042539581  21.176934645297 12.5567312554838  20.612582821295 13.0298282770216  C 19.9829880118592 13.5546081664585  19.3762282473252 14.8745091004966  18.7988278262363 15.3674841481494  C 18.1072521806385 15.9638249316004  17.6570755811455 15.5304839622927  16.877421905212 16.1308003509666  C 16.877421905212 16.1308003509666  14.9201323421991 18.2299199087141  14.9201323421991 18.2299199087141  C 13.4032329308641 19.6054793158743  11.6025265328922 20.5596245693959  10.2585210329566 22.2333543682816  C 9.60935332789069 23.0404022285519  8.30775576848697 25.8670575421095  7.87388991535255 26.9643245836593  C 7.50852919692352 26.5190567986826  6.88872083530271 25.7954966480954  6.62122459502422 25.2945703899966  C 6.2395531302368 24.5789614498554  6.35699050401746 24.1615229014398  5.85788166544904 23.3942310933995  C 5.51535599192198 22.8734268091856  4.9966742577235 22.4122566033168  4.54649765823052 22.0385497123543  C 4.54649765823052 22.0385497123543  3.56785287672403 21.2990871408751  3.56785287672403 21.2990871408751  C 2.70990761827005 20.7703316462153  1.63013620934134 21.1837945894079  1.54205817900555 22.4400858398779  C 1.49638808920207 23.068231465113  1.99875907704194 23.8593769044913  2.04442916684576 26.2487156435181  C 2.00202122631379 26.9523977679903  1.96287543505355 28.7692493549042  2.04442916684576 29.3496877174632  C 2.30866325785246 30.3873206806678  2.97087956000519 31.3017098819593  2.91216087311477 32.1326113735678  C 2.87301508185453 32.6891961047886  2.23689597387533 33.7069510418783  2.00202122631379 34.2794381939912  C 2.00202122631379 34.2794381939912  0.778715249430547 38.0960192080774  0.778715249430547 38.0960192080774  C 0.452500322261869 38.9189694892398  -0.0205113221329043 39.7737246121861  0.191528380526734 40.7199186552617  C 0.550364800412467 42.3419655862483  1.31696987925926 42.5964043205207  2.39347913891629 43.2285255509788  C 2.84039358913759 43.4869398904742  3.07200618742741 43.6817445464015  3.56785287672403 43.8725735971058  C 4.07348601383563 44.0673782530332  4.64762428565291 44.0673782530332  5.08149013878739 44.4768655910028  C 5.58386112662748 44.9459870073176  5.65236626133293 45.6417179213437  6.19062089116142 46.405034124161  C 6.19062089116142 46.405034124161  7.42697546513131 47.8879348723423  7.42697546513131 47.8879348723423  C 7.42697546513131 47.8879348723423  9.04826365316023 50.2653467957002  9.04826365316023 50.2653467957002  C 10.4672985863446 49.1720553593735  12.5126661796932 47.3154477202294  13.3021063034419 45.4946205280925  C 13.3021063034419 45.4946205280925  14.0263034417566 43.1092573942886  14.0263034417566 43.1092573942886  C 14.4275478021742 42.1749901668821  14.9168701929274 41.7973076706964  15.2854930606281 40.7199186552617  C 15.7128346152193 39.4795298256837  15.7226210630344 38.481652914709  16.7012658445408 37.5314832664105  C 17.1449181454904 37.1021179023257  18.1496601211704 36.4739722770908  18.7205362437159 36.3666309360696  C 19.4577819791174 36.3308504890626  19.9568908176857 36.6648013277951  20.7887388819661 36.3666309360696  C 21.2650126756326 36.1280946226892  22.2534439049541 35.2932175258578  22.6579504146434 35.400558866879  C 23.0624569243328 35.5039246026772  23.6007115541614 36.5018015136519  23.8486348988097 36.9033376411755  C 24.7652988441542 38.3902139945799  26.2658875091307 39.718066139064  26.1941202251535 41.6740639087832  C 26.1517122846216 42.9224039488072  24.13896618399 46.8821067509217  23.4539148369353 47.8402276096663  C 22.9123980578352 48.5955926020375  22.3643569801916 48.8301533101949  21.9337532763287 49.8081521950544  C 21.3530907059682 51.1240775238696  21.7804322605594 51.7045158864286  21.7445486185708 52.8892462428845  C 21.7151892751257 53.79568423373  21.3726636015984 54.6464637514534  21.1801967945688 55.5131456900688  C 21.1801967945688 55.5131456900688  24.7033180079919 55.036073063308  24.7033180079919 55.036073063308  C 24.3183843939329 55.6284382415359  23.8910428393416 56.2287546302099  23.6692166888669 56.9443635703511  C 23.1603214024836 58.5703861065608  23.7246732264856 59.4847753078522  21.7673836634726 59.5682630175353  C 21.7673836634726 59.5682630175353  21.3759257508701 62.9077714048608  21.3759257508701 62.9077714048608  C 21.3759257508701 62.9077714048608  22.8667279680316 62.6652594862574  22.8667279680316 62.6652594862574  C 22.8667279680316 62.6652594862574  24.3216465432046 60.7529933739913  24.3216465432046 60.7529933739913  C 24.3216465432046 60.7529933739913  27.0422790357925 58.5465324752227  27.0422790357925 58.5465324752227  C 27.0422790357925 58.5465324752227  28.2949443561208 55.2785849819114  28.2949443561208 55.2785849819114  C 28.2949443561208 55.2785849819114  30.4936329652386 52.8494901906544  30.4936329652386 52.8494901906544  C 30.4936329652386 52.8494901906544  31.7006281957633 51.2711749171208  31.7006281957633 51.2711749171208  C 31.7006281957633 51.2711749171208  34.8453400936708 49.4264940936458  34.8453400936708 49.4264940936458  C 34.8453400936708 49.4264940936458  35.4031676191295 47.1643747217552  35.4031676191295 47.1643747217552  C 36.8809212392042 47.1603991165322  40.6356550509173 46.3294976249238  41.842650281442 45.4588400810854  C 42.3254483736519 45.1129624266838  42.8049843165901 44.3933778813196  43.1116263481288 43.8248663344297  C 44.0446010398316 42.0676488258609  43.9075907704208 39.5153102726907  45.6430541829588 37.4440199515043  C 46.1878331113309 36.7959963001543  46.686941949899 36.7562402479242  47.1860507884674 36.0962897809051  C 47.6818974777639 35.4363393138861  47.8808885833369 34.4980964812565  48.393046018992 33.9216337239206  C 48.8823684097451 33.3730002031458  49.564157607528 33.2338540203405  50.0045477592059 32.8323178928168  C 50.6765505091738 32.2121234780278  51.7889434108194 29.1946391137659  51.7889434108194 28.1570061505612  C 51.782419112276 26.6343493501498  50.9538331972673 24.1257424544327  50.151344476432 22.9847437554298  C 50.151344476432 22.9847437554298  48.9410870966356 21.6727940318377  48.9410870966356 21.6727940318377  C 48.4517647058823 21.0685020379407  47.2447694753577 18.9216752175172  47.009894727796 18.1345053833619  C 46.7032526962574 17.1167504462722  47.1436428479354 15.721313012997  46.8402629656684 14.5564606826561  C 46.6412718600954 13.8050712955079  45.610432690242 12.1790487592982  45.1863532849226 11.4554886087111  C 45.1863532849226 11.4554886087111  42.4722450908779 6.92329865448369  42.4722450908779 6.92329865448369  C 42.1231951188071 6.3587627128168  41.4348816224809 5.11837388323873  41.0140643664332 4.73671578183014  C 40.5801985132986 4.3471064699755  40.0256331371116 4.20398468194722  39.5102135521848 4.06086289391902  C 39.5102135521848 4.06086289391902  38.5348309199502 6.44622602772287  38.5348309199502 6.44622602772287  C 38.5348309199502 6.44622602772287  35.5988965754308 1.91403607349552  35.5988965754308 1.91403607349552  Z " fill-rule="evenodd" />
    </mask>
  </defs>
  <g transform="matrix(1 0 0 1 -551 -2122 )">
    <path d="M 35.5988965754308 1.91403607349552  C 33.7590443861985 2.48652322560847  34.2516289262236 1.75501186457529  32.6629622309114 0.244281879832826  C 31.2080436557383 2.6415718293057  32.3758930950029 2.95166903670024  31.537520732179 5.24956885559797  C 30.9111880720147 6.96703031193678  30.3272633523826 6.56946978963609  29.5834933184377 7.32881038723033  C 28.8723447772097 8.0523705378175  28.9734714046319 9.06614986968415  28.1350990418081 9.86922212473149  C 26.9998710952606 10.9585379558352  24.3510058866497 10.0401731493207  22.9417574012805 10.0242707284287  C 22.8504172216732 10.8710746409291  22.7949606840545 11.8848539727958  22.1327443819018 12.3698778100026  C 21.6662570360504 12.7078042539581  21.176934645297 12.5567312554838  20.612582821295 13.0298282770216  C 19.9829880118592 13.5546081664585  19.3762282473252 14.8745091004966  18.7988278262363 15.3674841481494  C 18.1072521806385 15.9638249316004  17.6570755811455 15.5304839622927  16.877421905212 16.1308003509666  C 16.877421905212 16.1308003509666  14.9201323421991 18.2299199087141  14.9201323421991 18.2299199087141  C 13.4032329308641 19.6054793158743  11.6025265328922 20.5596245693959  10.2585210329566 22.2333543682816  C 9.60935332789069 23.0404022285519  8.30775576848697 25.8670575421095  7.87388991535255 26.9643245836593  C 7.50852919692352 26.5190567986826  6.88872083530271 25.7954966480954  6.62122459502422 25.2945703899966  C 6.2395531302368 24.5789614498554  6.35699050401746 24.1615229014398  5.85788166544904 23.3942310933995  C 5.51535599192198 22.8734268091856  4.9966742577235 22.4122566033168  4.54649765823052 22.0385497123543  C 4.54649765823052 22.0385497123543  3.56785287672403 21.2990871408751  3.56785287672403 21.2990871408751  C 2.70990761827005 20.7703316462153  1.63013620934134 21.1837945894079  1.54205817900555 22.4400858398779  C 1.49638808920207 23.068231465113  1.99875907704194 23.8593769044913  2.04442916684576 26.2487156435181  C 2.00202122631379 26.9523977679903  1.96287543505355 28.7692493549042  2.04442916684576 29.3496877174632  C 2.30866325785246 30.3873206806678  2.97087956000519 31.3017098819593  2.91216087311477 32.1326113735678  C 2.87301508185453 32.6891961047886  2.23689597387533 33.7069510418783  2.00202122631379 34.2794381939912  C 2.00202122631379 34.2794381939912  0.778715249430547 38.0960192080774  0.778715249430547 38.0960192080774  C 0.452500322261869 38.9189694892398  -0.0205113221329043 39.7737246121861  0.191528380526734 40.7199186552617  C 0.550364800412467 42.3419655862483  1.31696987925926 42.5964043205207  2.39347913891629 43.2285255509788  C 2.84039358913759 43.4869398904742  3.07200618742741 43.6817445464015  3.56785287672403 43.8725735971058  C 4.07348601383563 44.0673782530332  4.64762428565291 44.0673782530332  5.08149013878739 44.4768655910028  C 5.58386112662748 44.9459870073176  5.65236626133293 45.6417179213437  6.19062089116142 46.405034124161  C 6.19062089116142 46.405034124161  7.42697546513131 47.8879348723423  7.42697546513131 47.8879348723423  C 7.42697546513131 47.8879348723423  9.04826365316023 50.2653467957002  9.04826365316023 50.2653467957002  C 10.4672985863446 49.1720553593735  12.5126661796932 47.3154477202294  13.3021063034419 45.4946205280925  C 13.3021063034419 45.4946205280925  14.0263034417566 43.1092573942886  14.0263034417566 43.1092573942886  C 14.4275478021742 42.1749901668821  14.9168701929274 41.7973076706964  15.2854930606281 40.7199186552617  C 15.7128346152193 39.4795298256837  15.7226210630344 38.481652914709  16.7012658445408 37.5314832664105  C 17.1449181454904 37.1021179023257  18.1496601211704 36.4739722770908  18.7205362437159 36.3666309360696  C 19.4577819791174 36.3308504890626  19.9568908176857 36.6648013277951  20.7887388819661 36.3666309360696  C 21.2650126756326 36.1280946226892  22.2534439049541 35.2932175258578  22.6579504146434 35.400558866879  C 23.0624569243328 35.5039246026772  23.6007115541614 36.5018015136519  23.8486348988097 36.9033376411755  C 24.7652988441542 38.3902139945799  26.2658875091307 39.718066139064  26.1941202251535 41.6740639087832  C 26.1517122846216 42.9224039488072  24.13896618399 46.8821067509217  23.4539148369353 47.8402276096663  C 22.9123980578352 48.5955926020375  22.3643569801916 48.8301533101949  21.9337532763287 49.8081521950544  C 21.3530907059682 51.1240775238696  21.7804322605594 51.7045158864286  21.7445486185708 52.8892462428845  C 21.7151892751257 53.79568423373  21.3726636015984 54.6464637514534  21.1801967945688 55.5131456900688  C 21.1801967945688 55.5131456900688  24.7033180079919 55.036073063308  24.7033180079919 55.036073063308  C 24.3183843939329 55.6284382415359  23.8910428393416 56.2287546302099  23.6692166888669 56.9443635703511  C 23.1603214024836 58.5703861065608  23.7246732264856 59.4847753078522  21.7673836634726 59.5682630175353  C 21.7673836634726 59.5682630175353  21.3759257508701 62.9077714048608  21.3759257508701 62.9077714048608  C 21.3759257508701 62.9077714048608  22.8667279680316 62.6652594862574  22.8667279680316 62.6652594862574  C 22.8667279680316 62.6652594862574  24.3216465432046 60.7529933739913  24.3216465432046 60.7529933739913  C 24.3216465432046 60.7529933739913  27.0422790357925 58.5465324752227  27.0422790357925 58.5465324752227  C 27.0422790357925 58.5465324752227  28.2949443561208 55.2785849819114  28.2949443561208 55.2785849819114  C 28.2949443561208 55.2785849819114  30.4936329652386 52.8494901906544  30.4936329652386 52.8494901906544  C 30.4936329652386 52.8494901906544  31.7006281957633 51.2711749171208  31.7006281957633 51.2711749171208  C 31.7006281957633 51.2711749171208  34.8453400936708 49.4264940936458  34.8453400936708 49.4264940936458  C 34.8453400936708 49.4264940936458  35.4031676191295 47.1643747217552  35.4031676191295 47.1643747217552  C 36.8809212392042 47.1603991165322  40.6356550509173 46.3294976249238  41.842650281442 45.4588400810854  C 42.3254483736519 45.1129624266838  42.8049843165901 44.3933778813196  43.1116263481288 43.8248663344297  C 44.0446010398316 42.0676488258609  43.9075907704208 39.5153102726907  45.6430541829588 37.4440199515043  C 46.1878331113309 36.7959963001543  46.686941949899 36.7562402479242  47.1860507884674 36.0962897809051  C 47.6818974777639 35.4363393138861  47.8808885833369 34.4980964812565  48.393046018992 33.9216337239206  C 48.8823684097451 33.3730002031458  49.564157607528 33.2338540203405  50.0045477592059 32.8323178928168  C 50.6765505091738 32.2121234780278  51.7889434108194 29.1946391137659  51.7889434108194 28.1570061505612  C 51.782419112276 26.6343493501498  50.9538331972673 24.1257424544327  50.151344476432 22.9847437554298  C 50.151344476432 22.9847437554298  48.9410870966356 21.6727940318377  48.9410870966356 21.6727940318377  C 48.4517647058823 21.0685020379407  47.2447694753577 18.9216752175172  47.009894727796 18.1345053833619  C 46.7032526962574 17.1167504462722  47.1436428479354 15.721313012997  46.8402629656684 14.5564606826561  C 46.6412718600954 13.8050712955079  45.610432690242 12.1790487592982  45.1863532849226 11.4554886087111  C 45.1863532849226 11.4554886087111  42.4722450908779 6.92329865448369  42.4722450908779 6.92329865448369  C 42.1231951188071 6.3587627128168  41.4348816224809 5.11837388323873  41.0140643664332 4.73671578183014  C 40.5801985132986 4.3471064699755  40.0256331371116 4.20398468194722  39.5102135521848 4.06086289391902  C 39.5102135521848 4.06086289391902  38.5348309199502 6.44622602772287  38.5348309199502 6.44622602772287  C 38.5348309199502 6.44622602772287  35.5988965754308 1.91403607349552  35.5988965754308 1.91403607349552  Z " fill-rule="nonzero" fill="#3c6fdc" stroke="none" transform="matrix(1 0 0 1 551 2122 )" />
    <path d="M 35.5988965754308 1.91403607349552  C 33.7590443861985 2.48652322560847  34.2516289262236 1.75501186457529  32.6629622309114 0.244281879832826  C 31.2080436557383 2.6415718293057  32.3758930950029 2.95166903670024  31.537520732179 5.24956885559797  C 30.9111880720147 6.96703031193678  30.3272633523826 6.56946978963609  29.5834933184377 7.32881038723033  C 28.8723447772097 8.0523705378175  28.9734714046319 9.06614986968415  28.1350990418081 9.86922212473149  C 26.9998710952606 10.9585379558352  24.3510058866497 10.0401731493207  22.9417574012805 10.0242707284287  C 22.8504172216732 10.8710746409291  22.7949606840545 11.8848539727958  22.1327443819018 12.3698778100026  C 21.6662570360504 12.7078042539581  21.176934645297 12.5567312554838  20.612582821295 13.0298282770216  C 19.9829880118592 13.5546081664585  19.3762282473252 14.8745091004966  18.7988278262363 15.3674841481494  C 18.1072521806385 15.9638249316004  17.6570755811455 15.5304839622927  16.877421905212 16.1308003509666  C 16.877421905212 16.1308003509666  14.9201323421991 18.2299199087141  14.9201323421991 18.2299199087141  C 13.4032329308641 19.6054793158743  11.6025265328922 20.5596245693959  10.2585210329566 22.2333543682816  C 9.60935332789069 23.0404022285519  8.30775576848697 25.8670575421095  7.87388991535255 26.9643245836593  C 7.50852919692352 26.5190567986826  6.88872083530271 25.7954966480954  6.62122459502422 25.2945703899966  C 6.2395531302368 24.5789614498554  6.35699050401746 24.1615229014398  5.85788166544904 23.3942310933995  C 5.51535599192198 22.8734268091856  4.9966742577235 22.4122566033168  4.54649765823052 22.0385497123543  C 4.54649765823052 22.0385497123543  3.56785287672403 21.2990871408751  3.56785287672403 21.2990871408751  C 2.70990761827005 20.7703316462153  1.63013620934134 21.1837945894079  1.54205817900555 22.4400858398779  C 1.49638808920207 23.068231465113  1.99875907704194 23.8593769044913  2.04442916684576 26.2487156435181  C 2.00202122631379 26.9523977679903  1.96287543505355 28.7692493549042  2.04442916684576 29.3496877174632  C 2.30866325785246 30.3873206806678  2.97087956000519 31.3017098819593  2.91216087311477 32.1326113735678  C 2.87301508185453 32.6891961047886  2.23689597387533 33.7069510418783  2.00202122631379 34.2794381939912  C 2.00202122631379 34.2794381939912  0.778715249430547 38.0960192080774  0.778715249430547 38.0960192080774  C 0.452500322261869 38.9189694892398  -0.0205113221329043 39.7737246121861  0.191528380526734 40.7199186552617  C 0.550364800412467 42.3419655862483  1.31696987925926 42.5964043205207  2.39347913891629 43.2285255509788  C 2.84039358913759 43.4869398904742  3.07200618742741 43.6817445464015  3.56785287672403 43.8725735971058  C 4.07348601383563 44.0673782530332  4.64762428565291 44.0673782530332  5.08149013878739 44.4768655910028  C 5.58386112662748 44.9459870073176  5.65236626133293 45.6417179213437  6.19062089116142 46.405034124161  C 6.19062089116142 46.405034124161  7.42697546513131 47.8879348723423  7.42697546513131 47.8879348723423  C 7.42697546513131 47.8879348723423  9.04826365316023 50.2653467957002  9.04826365316023 50.2653467957002  C 10.4672985863446 49.1720553593735  12.5126661796932 47.3154477202294  13.3021063034419 45.4946205280925  C 13.3021063034419 45.4946205280925  14.0263034417566 43.1092573942886  14.0263034417566 43.1092573942886  C 14.4275478021742 42.1749901668821  14.9168701929274 41.7973076706964  15.2854930606281 40.7199186552617  C 15.7128346152193 39.4795298256837  15.7226210630344 38.481652914709  16.7012658445408 37.5314832664105  C 17.1449181454904 37.1021179023257  18.1496601211704 36.4739722770908  18.7205362437159 36.3666309360696  C 19.4577819791174 36.3308504890626  19.9568908176857 36.6648013277951  20.7887388819661 36.3666309360696  C 21.2650126756326 36.1280946226892  22.2534439049541 35.2932175258578  22.6579504146434 35.400558866879  C 23.0624569243328 35.5039246026772  23.6007115541614 36.5018015136519  23.8486348988097 36.9033376411755  C 24.7652988441542 38.3902139945799  26.2658875091307 39.718066139064  26.1941202251535 41.6740639087832  C 26.1517122846216 42.9224039488072  24.13896618399 46.8821067509217  23.4539148369353 47.8402276096663  C 22.9123980578352 48.5955926020375  22.3643569801916 48.8301533101949  21.9337532763287 49.8081521950544  C 21.3530907059682 51.1240775238696  21.7804322605594 51.7045158864286  21.7445486185708 52.8892462428845  C 21.7151892751257 53.79568423373  21.3726636015984 54.6464637514534  21.1801967945688 55.5131456900688  C 21.1801967945688 55.5131456900688  24.7033180079919 55.036073063308  24.7033180079919 55.036073063308  C 24.3183843939329 55.6284382415359  23.8910428393416 56.2287546302099  23.6692166888669 56.9443635703511  C 23.1603214024836 58.5703861065608  23.7246732264856 59.4847753078522  21.7673836634726 59.5682630175353  C 21.7673836634726 59.5682630175353  21.3759257508701 62.9077714048608  21.3759257508701 62.9077714048608  C 21.3759257508701 62.9077714048608  22.8667279680316 62.6652594862574  22.8667279680316 62.6652594862574  C 22.8667279680316 62.6652594862574  24.3216465432046 60.7529933739913  24.3216465432046 60.7529933739913  C 24.3216465432046 60.7529933739913  27.0422790357925 58.5465324752227  27.0422790357925 58.5465324752227  C 27.0422790357925 58.5465324752227  28.2949443561208 55.2785849819114  28.2949443561208 55.2785849819114  C 28.2949443561208 55.2785849819114  30.4936329652386 52.8494901906544  30.4936329652386 52.8494901906544  C 30.4936329652386 52.8494901906544  31.7006281957633 51.2711749171208  31.7006281957633 51.2711749171208  C 31.7006281957633 51.2711749171208  34.8453400936708 49.4264940936458  34.8453400936708 49.4264940936458  C 34.8453400936708 49.4264940936458  35.4031676191295 47.1643747217552  35.4031676191295 47.1643747217552  C 36.8809212392042 47.1603991165322  40.6356550509173 46.3294976249238  41.842650281442 45.4588400810854  C 42.3254483736519 45.1129624266838  42.8049843165901 44.3933778813196  43.1116263481288 43.8248663344297  C 44.0446010398316 42.0676488258609  43.9075907704208 39.5153102726907  45.6430541829588 37.4440199515043  C 46.1878331113309 36.7959963001543  46.686941949899 36.7562402479242  47.1860507884674 36.0962897809051  C 47.6818974777639 35.4363393138861  47.8808885833369 34.4980964812565  48.393046018992 33.9216337239206  C 48.8823684097451 33.3730002031458  49.564157607528 33.2338540203405  50.0045477592059 32.8323178928168  C 50.6765505091738 32.2121234780278  51.7889434108194 29.1946391137659  51.7889434108194 28.1570061505612  C 51.782419112276 26.6343493501498  50.9538331972673 24.1257424544327  50.151344476432 22.9847437554298  C 50.151344476432 22.9847437554298  48.9410870966356 21.6727940318377  48.9410870966356 21.6727940318377  C 48.4517647058823 21.0685020379407  47.2447694753577 18.9216752175172  47.009894727796 18.1345053833619  C 46.7032526962574 17.1167504462722  47.1436428479354 15.721313012997  46.8402629656684 14.5564606826561  C 46.6412718600954 13.8050712955079  45.610432690242 12.1790487592982  45.1863532849226 11.4554886087111  C 45.1863532849226 11.4554886087111  42.4722450908779 6.92329865448369  42.4722450908779 6.92329865448369  C 42.1231951188071 6.3587627128168  41.4348816224809 5.11837388323873  41.0140643664332 4.73671578183014  C 40.5801985132986 4.3471064699755  40.0256331371116 4.20398468194722  39.5102135521848 4.06086289391902  C 39.5102135521848 4.06086289391902  38.5348309199502 6.44622602772287  38.5348309199502 6.44622602772287  C 38.5348309199502 6.44622602772287  35.5988965754308 1.91403607349552  35.5988965754308 1.91403607349552  Z " stroke-width="2.13294375456538" stroke="#ffffff" fill="none" transform="matrix(1 0 0 1 551 2122 )" mask="url(#clip29)" />
  </g>
</svg>