<?xml version="1.0" encoding="utf-8"?>
<svg version="1.1" xmlns:xlink="http://www.w3.org/1999/xlink" width="42px" height="50px" xmlns="http://www.w3.org/2000/svg">
  <defs>
    <mask fill="white" id="clip58">
      <path d="M 32.6962937085146 3.76985093201301  C 32.6962937085146 3.76985093201301  27.2758344713692 0.226794361929478  27.2758344713692 0.226794361929478  C 26.9252898021406 0.657333008684304  26.3248197668878 1.33671509347187  26.1300727284276 1.88575061548033  C 25.6269762124052 3.30376322268205  26.5779909168864 5.48015583150709  27.4705815098293 6.38863187511839  C 26.1592847841966 7.99228958688405  25.4906532854828 8.79016854692526  24.7181566995903 10.8915131347563  C 24.7181566995903 10.8915131347563  23.9489058976721 13.261450639829  23.9489058976721 13.261450639829  C 23.5042334931875 15.1060519979438  23.6924889636992 16.2475718962206  22.2156572553752 17.3337932527122  C 21.303591958586 17.9973757541325  20.9108520976911 17.8828287747206  19.9436084733383 17.7761815869923  C 17.7981452663004 17.5510375240104  18.4408104932194 19.8775261748234  18.0545622002732 21.3231880529177  C 17.8598151618127 22.0539187836486  16.7075618509226 24.7042988934881  16.3245593419506 25.5100776452127  C 15.8604122336202 26.4817520222925  15.552062756058 27.3823282742201  14.6757010829866 27.9155642128615  C 12.6762981547939 29.1281822362903  10.7320735541653 25.8695181668154  10.011509511862 25.5653761869977  C 9.3526153650713 25.2849335822309  8.87223933686914 25.9603657711765  8.33993076507761 25.8734680626572  C 7.80113062533746 25.7865703541379  7.25908470162278 24.4752049346644  6.31131578111592 23.9814679544409  C 4.68193222599803 23.1322403484565  4.51639724330676 24.1592132673214  3.49722107536434 25.4389795200606  C 3.10448121446944 25.9287666044422  2.67603772985666 26.3000568135702  2.22487375742361 26.695046397749  C 2.67279194588241 27.7694180667153  3.21159208562273 28.0261612964316  3.14343062216147 28.8319400481562  C 3.01359926318798 30.3644996347699  1.2478927811477 32.205151097043  0.627948042049013 33.5678651624597  C 0.361793756153361 34.1484998512025  -0.06340394448506 35.0293266239212  0.124851526026703 35.7008089170251  C 0.371531108076397 36.5618862105348  2.00740623114302 38.1852934015096  2.60787626639558 38.8488759029299  C 3.98408867151517 40.3695858020182  3.81855368882395 41.19116413711  4.30542128497473 41.6296025755485  C 4.74360212151038 42.0245921597273  5.35056372471178 41.6928009090171  6.11656874265566 42.1391391391391  C 7.7849017054657 43.1029137245353  8.39835487661571 44.9001163325487  9.0377743195603 46.8434650867083  C 9.0377743195603 46.8434650867083  10.7904976657034 45.1845088331575  10.7904976657034 45.1845088331575  C 10.7904976657034 45.1845088331575  11.9589798964652 47.7914400887374  11.9589798964652 47.7914400887374  C 13.7603900022232 45.5715986256526  13.241064566329 42.4709303898492  15.8539206656715 42.5538782025268  C 15.8539206656715 42.5538782025268  17.6066440118144 43.051565078592  17.6066440118144 43.051565078592  C 17.7494585066853 42.1272894516137  18.0350874964271 39.2715147580013  18.638803315654 38.7896274653032  C 19.7813192746213 37.8772015258501  21.254905198971 39.6783540297053  22.2156572553752 39.88769850932  C 22.7771778829358 40.0140951762573  24.2345348874138 39.5756567378189  24.9388700098453 39.5045586126666  C 24.9388700098453 39.5045586126666  26.6915933559881 39.5045586126666  26.6915933559881 39.5045586126666  C 26.6915933559881 39.5045586126666  27.2758344713692 44.9475150826502  27.2758344713692 44.9475150826502  C 27.7821767713659 44.9159159159159  28.7299456918728 44.671022373725  29.106456632896 45.0976111246381  C 29.440772382253 45.4768011254498  29.4797217899451 46.531423315207  29.5673579572521 47.0804588372155  C 29.7880712675072 48.3918242566891  30.4112617905802 49.5728431133836  31.5602693174962 49.8414360306252  C 33.3162384476133 50.252225198171  34.6956966367072 48.6209182155128  34.9813256264489 46.606471336201  C 34.9813256264489 46.606471336201  34.6762219328612 41.8665963260557  34.6762219328612 41.8665963260557  C 34.6405183091434 38.1694938181424  34.8969352431163 39.5480074669263  33.7024867405595 36.1747964180396  C 33.7024867405595 36.1747964180396  31.7550163559563 36.6487839190542  31.7550163559563 36.6487839190542  C 31.7550163559563 35.9536022508995  31.855635659161 33.9944539133728  31.5635151014704 33.4809674539404  C 31.290869247626 33.0109298487677  30.4826690380157 32.6791385980575  30.0217677136595 32.2328003679354  C 29.3174325912281 31.5494683873062  29.1194397687934 30.7634391147905  28.8338107790517 29.7759651543435  C 28.8338107790517 29.7759651543435  27.2758344713692 31.4349214078944  27.2758344713692 31.4349214078944  C 27.5614634611109 29.8865622379136  28.5254613014895 26.1065119173227  28.1424587925176 24.6411005600195  C 27.9606948899547 23.961718475232  27.2466224156001 22.9268457646835  26.8863403944485 22.2711630549468  C 26.8863403944485 22.2711630549468  28.8338107790517 21.1928414901387  28.8338107790517 21.1928414901387  C 28.8338107790517 21.1928414901387  30.5703052053228 21.1928414901387  30.5703052053228 21.1928414901387  C 30.5703052053228 21.1928414901387  31.9562549623654 20.0552714877039  31.9562549623654 20.0552714877039  C 31.9562549623654 20.0552714877039  33.3129926636389 20.3910126342557  33.3129926636389 20.3910126342557  C 33.3129926636389 20.3910126342557  35.2604630482421 19.9249249249249  35.2604630482421 19.9249249249249  C 35.2604630482421 19.9249249249249  38.3764156636072 17.2034466899331  38.3764156636072 17.2034466899331  C 38.3764156636072 17.2034466899331  39.6552545494966 16.2238725211698  39.6552545494966 16.2238725211698  C 39.6552545494966 16.2238725211698  41.1028742020516 16.8163568974379  41.1028742020516 16.8163568974379  C 42.0279226347381 13.4352460568676  42.6316384539651 11.5906446987527  40.2654619366722 8.80991802613426  C 39.6649919014196 8.10288667045415  39.2235652809096 7.96859021183349  38.5711627020675 7.43140437735031  C 38.0907866738654 7.03641479317156  37.2955696001525 6.15953791629465  36.8184393559246 5.91859426994557  C 36.0394512020833 5.61050239428613  35.192301584781 6.27803479154829  34.4977038142726 5.91859426994557  C 33.8842506431225 5.54335416497577  33.4720360783815 4.45713280848412  32.6962937085146 3.76985093201301  Z " fill-rule="evenodd" />
    </mask>
  </defs>
  <g transform="matrix(1 0 0 1 -448 -2282 )">
    <path d="M 32.6962937085146 3.76985093201301  C 32.6962937085146 3.76985093201301  27.2758344713692 0.226794361929478  27.2758344713692 0.226794361929478  C 26.9252898021406 0.657333008684304  26.3248197668878 1.33671509347187  26.1300727284276 1.88575061548033  C 25.6269762124052 3.30376322268205  26.5779909168864 5.48015583150709  27.4705815098293 6.38863187511839  C 26.1592847841966 7.99228958688405  25.4906532854828 8.79016854692526  24.7181566995903 10.8915131347563  C 24.7181566995903 10.8915131347563  23.9489058976721 13.261450639829  23.9489058976721 13.261450639829  C 23.5042334931875 15.1060519979438  23.6924889636992 16.2475718962206  22.2156572553752 17.3337932527122  C 21.303591958586 17.9973757541325  20.9108520976911 17.8828287747206  19.9436084733383 17.7761815869923  C 17.7981452663004 17.5510375240104  18.4408104932194 19.8775261748234  18.0545622002732 21.3231880529177  C 17.8598151618127 22.0539187836486  16.7075618509226 24.7042988934881  16.3245593419506 25.5100776452127  C 15.8604122336202 26.4817520222925  15.552062756058 27.3823282742201  14.6757010829866 27.9155642128615  C 12.6762981547939 29.1281822362903  10.7320735541653 25.8695181668154  10.011509511862 25.5653761869977  C 9.3526153650713 25.2849335822309  8.87223933686914 25.9603657711765  8.33993076507761 25.8734680626572  C 7.80113062533746 25.7865703541379  7.25908470162278 24.4752049346644  6.31131578111592 23.9814679544409  C 4.68193222599803 23.1322403484565  4.51639724330676 24.1592132673214  3.49722107536434 25.4389795200606  C 3.10448121446944 25.9287666044422  2.67603772985666 26.3000568135702  2.22487375742361 26.695046397749  C 2.67279194588241 27.7694180667153  3.21159208562273 28.0261612964316  3.14343062216147 28.8319400481562  C 3.01359926318798 30.3644996347699  1.2478927811477 32.205151097043  0.627948042049013 33.5678651624597  C 0.361793756153361 34.1484998512025  -0.06340394448506 35.0293266239212  0.124851526026703 35.7008089170251  C 0.371531108076397 36.5618862105348  2.00740623114302 38.1852934015096  2.60787626639558 38.8488759029299  C 3.98408867151517 40.3695858020182  3.81855368882395 41.19116413711  4.30542128497473 41.6296025755485  C 4.74360212151038 42.0245921597273  5.35056372471178 41.6928009090171  6.11656874265566 42.1391391391391  C 7.7849017054657 43.1029137245353  8.39835487661571 44.9001163325487  9.0377743195603 46.8434650867083  C 9.0377743195603 46.8434650867083  10.7904976657034 45.1845088331575  10.7904976657034 45.1845088331575  C 10.7904976657034 45.1845088331575  11.9589798964652 47.7914400887374  11.9589798964652 47.7914400887374  C 13.7603900022232 45.5715986256526  13.241064566329 42.4709303898492  15.8539206656715 42.5538782025268  C 15.8539206656715 42.5538782025268  17.6066440118144 43.051565078592  17.6066440118144 43.051565078592  C 17.7494585066853 42.1272894516137  18.0350874964271 39.2715147580013  18.638803315654 38.7896274653032  C 19.7813192746213 37.8772015258501  21.254905198971 39.6783540297053  22.2156572553752 39.88769850932  C 22.7771778829358 40.0140951762573  24.2345348874138 39.5756567378189  24.9388700098453 39.5045586126666  C 24.9388700098453 39.5045586126666  26.6915933559881 39.5045586126666  26.6915933559881 39.5045586126666  C 26.6915933559881 39.5045586126666  27.2758344713692 44.9475150826502  27.2758344713692 44.9475150826502  C 27.7821767713659 44.9159159159159  28.7299456918728 44.671022373725  29.106456632896 45.0976111246381  C 29.440772382253 45.4768011254498  29.4797217899451 46.531423315207  29.5673579572521 47.0804588372155  C 29.7880712675072 48.3918242566891  30.4112617905802 49.5728431133836  31.5602693174962 49.8414360306252  C 33.3162384476133 50.252225198171  34.6956966367072 48.6209182155128  34.9813256264489 46.606471336201  C 34.9813256264489 46.606471336201  34.6762219328612 41.8665963260557  34.6762219328612 41.8665963260557  C 34.6405183091434 38.1694938181424  34.8969352431163 39.5480074669263  33.7024867405595 36.1747964180396  C 33.7024867405595 36.1747964180396  31.7550163559563 36.6487839190542  31.7550163559563 36.6487839190542  C 31.7550163559563 35.9536022508995  31.855635659161 33.9944539133728  31.5635151014704 33.4809674539404  C 31.290869247626 33.0109298487677  30.4826690380157 32.6791385980575  30.0217677136595 32.2328003679354  C 29.3174325912281 31.5494683873062  29.1194397687934 30.7634391147905  28.8338107790517 29.7759651543435  C 28.8338107790517 29.7759651543435  27.2758344713692 31.4349214078944  27.2758344713692 31.4349214078944  C 27.5614634611109 29.8865622379136  28.5254613014895 26.1065119173227  28.1424587925176 24.6411005600195  C 27.9606948899547 23.961718475232  27.2466224156001 22.9268457646835  26.8863403944485 22.2711630549468  C 26.8863403944485 22.2711630549468  28.8338107790517 21.1928414901387  28.8338107790517 21.1928414901387  C 28.8338107790517 21.1928414901387  30.5703052053228 21.1928414901387  30.5703052053228 21.1928414901387  C 30.5703052053228 21.1928414901387  31.9562549623654 20.0552714877039  31.9562549623654 20.0552714877039  C 31.9562549623654 20.0552714877039  33.3129926636389 20.3910126342557  33.3129926636389 20.3910126342557  C 33.3129926636389 20.3910126342557  35.2604630482421 19.9249249249249  35.2604630482421 19.9249249249249  C 35.2604630482421 19.9249249249249  38.3764156636072 17.2034466899331  38.3764156636072 17.2034466899331  C 38.3764156636072 17.2034466899331  39.6552545494966 16.2238725211698  39.6552545494966 16.2238725211698  C 39.6552545494966 16.2238725211698  41.1028742020516 16.8163568974379  41.1028742020516 16.8163568974379  C 42.0279226347381 13.4352460568676  42.6316384539651 11.5906446987527  40.2654619366722 8.80991802613426  C 39.6649919014196 8.10288667045415  39.2235652809096 7.96859021183349  38.5711627020675 7.43140437735031  C 38.0907866738654 7.03641479317156  37.2955696001525 6.15953791629465  36.8184393559246 5.91859426994557  C 36.0394512020833 5.61050239428613  35.192301584781 6.27803479154829  34.4977038142726 5.91859426994557  C 33.8842506431225 5.54335416497577  33.4720360783815 4.45713280848412  32.6962937085146 3.76985093201301  Z " fill-rule="nonzero" fill="#1c8dff" stroke="none" transform="matrix(1 0 0 1 448 2282 )" />
    <path d="M 32.6962937085146 3.76985093201301  C 32.6962937085146 3.76985093201301  27.2758344713692 0.226794361929478  27.2758344713692 0.226794361929478  C 26.9252898021406 0.657333008684304  26.3248197668878 1.33671509347187  26.1300727284276 1.88575061548033  C 25.6269762124052 3.30376322268205  26.5779909168864 5.48015583150709  27.4705815098293 6.38863187511839  C 26.1592847841966 7.99228958688405  25.4906532854828 8.79016854692526  24.7181566995903 10.8915131347563  C 24.7181566995903 10.8915131347563  23.9489058976721 13.261450639829  23.9489058976721 13.261450639829  C 23.5042334931875 15.1060519979438  23.6924889636992 16.2475718962206  22.2156572553752 17.3337932527122  C 21.303591958586 17.9973757541325  20.9108520976911 17.8828287747206  19.9436084733383 17.7761815869923  C 17.7981452663004 17.5510375240104  18.4408104932194 19.8775261748234  18.0545622002732 21.3231880529177  C 17.8598151618127 22.0539187836486  16.7075618509226 24.7042988934881  16.3245593419506 25.5100776452127  C 15.8604122336202 26.4817520222925  15.552062756058 27.3823282742201  14.6757010829866 27.9155642128615  C 12.6762981547939 29.1281822362903  10.7320735541653 25.8695181668154  10.011509511862 25.5653761869977  C 9.3526153650713 25.2849335822309  8.87223933686914 25.9603657711765  8.33993076507761 25.8734680626572  C 7.80113062533746 25.7865703541379  7.25908470162278 24.4752049346644  6.31131578111592 23.9814679544409  C 4.68193222599803 23.1322403484565  4.51639724330676 24.1592132673214  3.49722107536434 25.4389795200606  C 3.10448121446944 25.9287666044422  2.67603772985666 26.3000568135702  2.22487375742361 26.695046397749  C 2.67279194588241 27.7694180667153  3.21159208562273 28.0261612964316  3.14343062216147 28.8319400481562  C 3.01359926318798 30.3644996347699  1.2478927811477 32.205151097043  0.627948042049013 33.5678651624597  C 0.361793756153361 34.1484998512025  -0.06340394448506 35.0293266239212  0.124851526026703 35.7008089170251  C 0.371531108076397 36.5618862105348  2.00740623114302 38.1852934015096  2.60787626639558 38.8488759029299  C 3.98408867151517 40.3695858020182  3.81855368882395 41.19116413711  4.30542128497473 41.6296025755485  C 4.74360212151038 42.0245921597273  5.35056372471178 41.6928009090171  6.11656874265566 42.1391391391391  C 7.7849017054657 43.1029137245353  8.39835487661571 44.9001163325487  9.0377743195603 46.8434650867083  C 9.0377743195603 46.8434650867083  10.7904976657034 45.1845088331575  10.7904976657034 45.1845088331575  C 10.7904976657034 45.1845088331575  11.9589798964652 47.7914400887374  11.9589798964652 47.7914400887374  C 13.7603900022232 45.5715986256526  13.241064566329 42.4709303898492  15.8539206656715 42.5538782025268  C 15.8539206656715 42.5538782025268  17.6066440118144 43.051565078592  17.6066440118144 43.051565078592  C 17.7494585066853 42.1272894516137  18.0350874964271 39.2715147580013  18.638803315654 38.7896274653032  C 19.7813192746213 37.8772015258501  21.254905198971 39.6783540297053  22.2156572553752 39.88769850932  C 22.7771778829358 40.0140951762573  24.2345348874138 39.5756567378189  24.9388700098453 39.5045586126666  C 24.9388700098453 39.5045586126666  26.6915933559881 39.5045586126666  26.6915933559881 39.5045586126666  C 26.6915933559881 39.5045586126666  27.2758344713692 44.9475150826502  27.2758344713692 44.9475150826502  C 27.7821767713659 44.9159159159159  28.7299456918728 44.671022373725  29.106456632896 45.0976111246381  C 29.440772382253 45.4768011254498  29.4797217899451 46.531423315207  29.5673579572521 47.0804588372155  C 29.7880712675072 48.3918242566891  30.4112617905802 49.5728431133836  31.5602693174962 49.8414360306252  C 33.3162384476133 50.252225198171  34.6956966367072 48.6209182155128  34.9813256264489 46.606471336201  C 34.9813256264489 46.606471336201  34.6762219328612 41.8665963260557  34.6762219328612 41.8665963260557  C 34.6405183091434 38.1694938181424  34.8969352431163 39.5480074669263  33.7024867405595 36.1747964180396  C 33.7024867405595 36.1747964180396  31.7550163559563 36.6487839190542  31.7550163559563 36.6487839190542  C 31.7550163559563 35.9536022508995  31.855635659161 33.9944539133728  31.5635151014704 33.4809674539404  C 31.290869247626 33.0109298487677  30.4826690380157 32.6791385980575  30.0217677136595 32.2328003679354  C 29.3174325912281 31.5494683873062  29.1194397687934 30.7634391147905  28.8338107790517 29.7759651543435  C 28.8338107790517 29.7759651543435  27.2758344713692 31.4349214078944  27.2758344713692 31.4349214078944  C 27.5614634611109 29.8865622379136  28.5254613014895 26.1065119173227  28.1424587925176 24.6411005600195  C 27.9606948899547 23.961718475232  27.2466224156001 22.9268457646835  26.8863403944485 22.2711630549468  C 26.8863403944485 22.2711630549468  28.8338107790517 21.1928414901387  28.8338107790517 21.1928414901387  C 28.8338107790517 21.1928414901387  30.5703052053228 21.1928414901387  30.5703052053228 21.1928414901387  C 30.5703052053228 21.1928414901387  31.9562549623654 20.0552714877039  31.9562549623654 20.0552714877039  C 31.9562549623654 20.0552714877039  33.3129926636389 20.3910126342557  33.3129926636389 20.3910126342557  C 33.3129926636389 20.3910126342557  35.2604630482421 19.9249249249249  35.2604630482421 19.9249249249249  C 35.2604630482421 19.9249249249249  38.3764156636072 17.2034466899331  38.3764156636072 17.2034466899331  C 38.3764156636072 17.2034466899331  39.6552545494966 16.2238725211698  39.6552545494966 16.2238725211698  C 39.6552545494966 16.2238725211698  41.1028742020516 16.8163568974379  41.1028742020516 16.8163568974379  C 42.0279226347381 13.4352460568676  42.6316384539651 11.5906446987527  40.2654619366722 8.80991802613426  C 39.6649919014196 8.10288667045415  39.2235652809096 7.96859021183349  38.5711627020675 7.43140437735031  C 38.0907866738654 7.03641479317156  37.2955696001525 6.15953791629465  36.8184393559246 5.91859426994557  C 36.0394512020833 5.61050239428613  35.192301584781 6.27803479154829  34.4977038142726 5.91859426994557  C 33.8842506431225 5.54335416497577  33.4720360783815 4.45713280848412  32.6962937085146 3.76985093201301  Z " stroke-width="2.13294375456538" stroke="#ffffff" fill="none" transform="matrix(1 0 0 1 448 2282 )" mask="url(#clip58)" />
  </g>
</svg>