<?xml version="1.0" encoding="utf-8"?>
<svg version="1.1" xmlns:xlink="http://www.w3.org/1999/xlink" width="46px" height="102px" xmlns="http://www.w3.org/2000/svg">
  <defs>
    <mask fill="white" id="clip22">
      <path d="M 42.7557187343816 0.308210372534631  C 41.393721886894 0.972977842707536  40.1930990734689 2.86252901550196  39.4669159201876 4.41768200633064  C 39.4669159201876 4.41768200633064  38.3050228749375 2.48381300219137  38.3050228749375 2.48381300219137  C 37.7757160432125 2.6449687525363  36.4589039252624 2.86252901550196  36.1038810503247 3.19692719746772  C 35.7940429049249 3.48700754808863  35.4293375879436 4.42976868760655  35.1291818845873 4.90114925736543  C 35.1291818845873 4.90114925736543  32.7279362577372 8.26124665205739  32.7279362577372 8.26124665205739  C 31.7596920533621 9.62704163623081  31.1561531659682 9.61495495495492  30.4686997808619 10.5416005194383  C 30.0394448502556 11.1096745394042  29.4165410787744 12.6084230176122  29.0453808004306 13.3618261504747  C 28.161051093768 15.1707994480967  27.0669351428242 16.6252300949598  27.3089961939179 18.9216995373752  C 27.3767732882242 19.5622936449963  27.6737015108992 20.4607369531694  27.8479854676867 21.0973021670319  C 27.4025931336741 21.2906890674458  26.5440832724616 21.6291161431701  26.2148802429741 22.0199188377567  C 25.7404405828304 22.5799350702053  25.4273749567491 24.8482022563103  25.3305505363115 25.7265010956903  C 25.3305505363115 25.7265010956903  22.2967186959362 25.7265010956903  22.2967186959362 25.7265010956903  C 21.7900042289801 25.8433390146903  21.0476836722925 26.1495349403457  20.5764714928299 25.8876568460352  C 20.0310272576986 25.589518707897  19.8212410134175 24.8240288937586  19.4371708123486 24.316388280172  C 18.9691861135674 23.6919097475854  17.3360808888547 22.94656440224  16.6905847526046 23.3011070529989  C 16.0547710583984 23.6516208099991  15.4286398062358 24.9207223439655  15.1446215062857 25.6942699456213  C 14.3377513359732 27.8779303627952  13.7471223713045 29.7916548981413  13.7793971781169 32.2210778345913  C 13.8148994656107 34.6706452398344  15.1607589096921 35.8914000486973  16.8777786321172 36.600485350215  C 17.3974030217984 36.8140167194221  18.3882395909423 36.9872591510429  18.772309792011 37.2934550766983  C 19.3887586021298 37.7849801152504  19.5920898850486 38.7720590861131  20.0923493906424 39.275670805941  C 20.5280592826111 39.7107913318724  21.0960958825112 39.6825890755621  21.7157721733113 40.0089294700106  C 23.4069720502864 40.9114016719422  22.9293049094614 41.3988978167357  25.3305505363115 41.4069556042529  C 25.3305505363115 41.4069556042529  25.8630848487178 44.5293482671861  25.8630848487178 44.5293482671861  C 25.9728191918803 45.6171495820144  25.4564222828803 46.028096745394  25.1498116181615 46.9708578849119  C 24.9045230863866 47.7242610177745  24.9012956057053 49.0537959581202  24.962617738649 49.8716613911209  C 25.1078543693053 51.7974726077428  25.8049901964553 51.9787728268809  25.4693322056054 54.6257560262965  C 25.4209199953866 55.0326742959175  25.3402329783553 55.6410372534696  25.1401291761178 55.9714065416767  C 24.7980162239053 56.5515672429186  23.9362788820114 56.6925785244704  23.3940621275614 56.793300868436  C 23.3940621275614 56.793300868436  21.3284744915612 56.793300868436  21.3284744915612 56.793300868436  C 19.6340471339049 56.9705721938154  19.9471127599862 57.4822417011606  18.0687190034984 56.793300868436  C 18.049354119411 57.349288207126  18.1978182307486 58.8198344290236  18.0687190034984 59.1985504423342  C 17.636236592211 60.9833503774044  14.4668505632233 61.821360279198  13.1984506554919 61.2492573654735  C 12.2366614124794 60.8181657333008  12.1979316443043 59.8633179125071  10.2937180423667 59.7263355247139  C 9.62885702202908 59.6779887996103  9.01240821191033 59.8351156561967  8.3572296336165 59.9438957876795  C 8.38627695974776 60.6610388767145  8.55087847449153 61.7407824040255  8.47341893814155 62.3612320428537  C 8.28299757794781 63.8720672023375  7.4761274076352 64.8107994480967  6.80803890661633 65.9872364256148  C 6.80803890661633 65.9872364256148  10.1000692014916 68.6463063063063  10.1000692014916 68.6463063063063  C 10.1000692014916 68.6463063063063  8.36045711429767 70.6526953981007  8.36045711429767 70.6526953981007  C 8.36045711429767 70.6526953981007  8.16358079274141 73.0015404593782  8.16358079274141 73.0015404593782  C 8.16358079274141 73.0015404593782  8.01834416208516 76.1440775911047  8.01834416208516 76.1440775911047  C 8.01834416208516 76.1440775911047  8.93817615624158 79.060996672348  8.93817615624158 79.060996672348  C 8.93817615624158 79.060996672348  7.19533658836644 79.060996672348  7.19533658836644 79.060996672348  C 5.32985275460373 79.3188458728999  5.78170004997889 79.7902264426589  3.70965745261623 79.060996672348  C 3.4934162469724 79.681446311176  2.88019491753482 81.0955880204528  2.89955980162233 81.703950978005  C 2.93183460843483 82.5862787111436  3.56764830264126 83.0576592809025  3.63542539694743 84.1212872331791  C 3.73870477874743 85.769104780456  2.82532774595364 87.3484311338365  1.57952020299103 87.8560717474231  C 1.18254007919728 88.017227497768  0.646778286109679 87.9890252414576  0.227205797547242 87.9890252414576  C 0.227205797547242 87.9890252414576  0.808152320172212 89.9228942455969  0.808152320172212 89.9228942455969  C 1.60856752912224 89.3951091632172  3.33526969359116 88.0011119227335  4.25187420706624 88.3999724048372  C 4.81022836492252 88.6417060303546  5.04583445465386 89.5562649135621  5.4331321364038 90.0639055271487  C 5.83979470224136 90.5957195032871  6.43365114759138 90.7407596785974  7.00168774749147 90.8173086600113  C 8.01834416208516 90.9542910478045  9.95806005151661 90.2452057462868  11.0683134058667 90.0316743770796  C 11.6331225250855 89.9188653518382  12.4432201760793 89.7979985390796  12.9047499134981 90.3096680464248  C 13.2985025566106 90.7447885723561  13.6051132213294 92.1710169629088  13.7793971781169 92.8277266455644  C 13.7793971781169 92.8277266455644  16.1031832686172 91.8607921434948  16.1031832686172 91.8607921434948  C 16.9294183230172 94.6528155182208  17.4329053092922 94.0162503043584  18.6206181999923 94.854260206152  C 20.0794394679174 95.881628114601  19.6727769020798 96.0186105023943  21.5221233324363 95.9662348835321  C 22.5742820345239 95.9340037334632  23.6748529468301 95.5593166139112  24.7496040136866 95.7768768768769  C 26.0954634577678 96.0508416524632  28.9679212640806 98.1539241944647  30.3654203990619 99.0523675026377  C 32.3083637691745 100.301324567811  32.2405866748683 101.469703757812  33.1087789781246 101.860506452398  C 33.6284033678058 102.094182290399  34.6805620698935 101.731581852122  35.2066414209372 101.530137164191  C 34.4998231517434 97.9242772502232  35.113044481181 97.4287233179124  35.0678597516435 95.9702637772908  C 35.0388124255122 94.9831848064281  34.5288704778746 94.4513708302896  34.3997712506247 93.7946611476341  C 34.1867575256621 92.7229754078402  35.1324093652685 91.6392029867704  35.7875879435622 91.1275334794254  C 36.9430260274498 90.2331190650108  37.4271481296374 90.9301176852528  38.3050228749375 90.7770197224252  C 38.7052304794125 90.7044996347699  39.2732670793125 90.3701014528041  39.6605647610626 90.1646278711142  C 39.6605647610626 90.1646278711142  38.1856060897312 87.2638243649054  38.1856060897312 87.2638243649054  C 38.1856060897312 87.2638243649054  36.7945619161124 86.6353169385601  36.7945619161124 86.6353169385601  C 36.7945619161124 86.6353169385601  35.4712948367998 84.3509341774206  35.4712948367998 84.3509341774206  C 35.4712948367998 84.3509341774206  33.2701530121872 83.6378199821442  33.2701530121872 83.6378199821442  C 33.615493445081 83.1422660498337  34.1673926415747 82.2317360603847  34.6321498596748 81.9738868598328  C 34.6321498596748 81.9738868598328  38.4986717158125 82.1874182290398  38.4986717158125 82.1874182290398  C 38.4986717158125 82.1874182290398  40.6288089654377 82.3848340232123  40.6288089654377 82.3848340232123  C 40.6288089654377 82.3848340232123  41.9811233708815 82.0786380975569  41.9811233708815 82.0786380975569  C 42.7298988889315 82.1229559289019  43.0849217638692 83.073774855937  43.7239629387567 83.1462949435922  C 44.101578178463 83.190612774937  44.4081888431816 82.9005324243161  44.6922071431317 82.6386543300058  C 46.0316116258506 81.3896972648323  45.8799200338318 80.708814219625  45.8541001883818 78.803147471796  C 45.8218253815693 76.4301290479668  44.7632117181191 77.1432432432433  43.3108454115566 74.2102085869653  C 42.6072546230441 72.7880090901713  42.9074103264003 71.8210745881015  42.5039752412441 70.8339956172388  C 42.0844027526816 69.8106566025484  41.1871631232941 69.3674782890999  40.8256852869939 68.5778151124097  C 40.5061646995503 67.8848453859265  40.5416669870439 65.4554224494765  40.2996059359502 64.5368346725103  C 40.0220425973627 63.481264507751  39.3571815770251 62.8205259313367  39.3507266156626 61.6360311663014  C 39.3474991349813 60.4515364012661  39.9219906962439 56.7328674620566  40.2511937257314 55.5926905283661  C 40.6191265233939 54.3155312068825  41.4001768482565 51.6484035386738  41.3775844834877 50.3551286421556  C 41.3453096766751 48.521981981982  40.5513494290876 47.0192046100154  40.244738764369 45.2746936125314  C 39.8929433701126 43.2723334144955  40.1737341893814 41.4432156480805  40.0123601553188 39.4730866001136  C 40.0123601553188 39.4730866001136  39.3378166929375 34.8801477152828  39.3378166929375 34.8801477152828  C 39.3313617315752 33.3290236182128  39.9155357348814 32.1404999594189  40.3447906654877 30.7706760814869  C 40.7772730767751 29.3807077347617  41.4647264618814 25.9319746773801  41.3775844834877 24.4856018180342  C 41.2743051016877 22.7249752455158  39.4895082849563 19.9007207207207  39.5282380531314 18.6799659118577  C 39.5282380531314 18.6799659118577  41.3614470800815 13.8452934015096  41.3614470800815 13.8452934015096  C 41.3614470800815 13.8452934015096  42.4684729537503 9.97755539323103  42.4684729537503 9.97755539323103  C 42.4684729537503 9.97755539323103  42.9364576525317 7.07675188702211  42.9364576525317 7.07675188702211  C 43.1397889354503 6.15413521629739  43.6045461535504 5.32015420826224  43.5980911921878 4.41768200633064  C 43.5948637115066 3.24124502881258  43.0074622275191 1.46853177501825  42.7557187343816 0.308210372534631  Z " fill-rule="evenodd" />
    </mask>
  </defs>
  <g transform="matrix(1 0 0 1 -449 -2187 )">
    <path d="M 42.7557187343816 0.308210372534631  C 41.393721886894 0.972977842707536  40.1930990734689 2.86252901550196  39.4669159201876 4.41768200633064  C 39.4669159201876 4.41768200633064  38.3050228749375 2.48381300219137  38.3050228749375 2.48381300219137  C 37.7757160432125 2.6449687525363  36.4589039252624 2.86252901550196  36.1038810503247 3.19692719746772  C 35.7940429049249 3.48700754808863  35.4293375879436 4.42976868760655  35.1291818845873 4.90114925736543  C 35.1291818845873 4.90114925736543  32.7279362577372 8.26124665205739  32.7279362577372 8.26124665205739  C 31.7596920533621 9.62704163623081  31.1561531659682 9.61495495495492  30.4686997808619 10.5416005194383  C 30.0394448502556 11.1096745394042  29.4165410787744 12.6084230176122  29.0453808004306 13.3618261504747  C 28.161051093768 15.1707994480967  27.0669351428242 16.6252300949598  27.3089961939179 18.9216995373752  C 27.3767732882242 19.5622936449963  27.6737015108992 20.4607369531694  27.8479854676867 21.0973021670319  C 27.4025931336741 21.2906890674458  26.5440832724616 21.6291161431701  26.2148802429741 22.0199188377567  C 25.7404405828304 22.5799350702053  25.4273749567491 24.8482022563103  25.3305505363115 25.7265010956903  C 25.3305505363115 25.7265010956903  22.2967186959362 25.7265010956903  22.2967186959362 25.7265010956903  C 21.7900042289801 25.8433390146903  21.0476836722925 26.1495349403457  20.5764714928299 25.8876568460352  C 20.0310272576986 25.589518707897  19.8212410134175 24.8240288937586  19.4371708123486 24.316388280172  C 18.9691861135674 23.6919097475854  17.3360808888547 22.94656440224  16.6905847526046 23.3011070529989  C 16.0547710583984 23.6516208099991  15.4286398062358 24.9207223439655  15.1446215062857 25.6942699456213  C 14.3377513359732 27.8779303627952  13.7471223713045 29.7916548981413  13.7793971781169 32.2210778345913  C 13.8148994656107 34.6706452398344  15.1607589096921 35.8914000486973  16.8777786321172 36.600485350215  C 17.3974030217984 36.8140167194221  18.3882395909423 36.9872591510429  18.772309792011 37.2934550766983  C 19.3887586021298 37.7849801152504  19.5920898850486 38.7720590861131  20.0923493906424 39.275670805941  C 20.5280592826111 39.7107913318724  21.0960958825112 39.6825890755621  21.7157721733113 40.0089294700106  C 23.4069720502864 40.9114016719422  22.9293049094614 41.3988978167357  25.3305505363115 41.4069556042529  C 25.3305505363115 41.4069556042529  25.8630848487178 44.5293482671861  25.8630848487178 44.5293482671861  C 25.9728191918803 45.6171495820144  25.4564222828803 46.028096745394  25.1498116181615 46.9708578849119  C 24.9045230863866 47.7242610177745  24.9012956057053 49.0537959581202  24.962617738649 49.8716613911209  C 25.1078543693053 51.7974726077428  25.8049901964553 51.9787728268809  25.4693322056054 54.6257560262965  C 25.4209199953866 55.0326742959175  25.3402329783553 55.6410372534696  25.1401291761178 55.9714065416767  C 24.7980162239053 56.5515672429186  23.9362788820114 56.6925785244704  23.3940621275614 56.793300868436  C 23.3940621275614 56.793300868436  21.3284744915612 56.793300868436  21.3284744915612 56.793300868436  C 19.6340471339049 56.9705721938154  19.9471127599862 57.4822417011606  18.0687190034984 56.793300868436  C 18.049354119411 57.349288207126  18.1978182307486 58.8198344290236  18.0687190034984 59.1985504423342  C 17.636236592211 60.9833503774044  14.4668505632233 61.821360279198  13.1984506554919 61.2492573654735  C 12.2366614124794 60.8181657333008  12.1979316443043 59.8633179125071  10.2937180423667 59.7263355247139  C 9.62885702202908 59.6779887996103  9.01240821191033 59.8351156561967  8.3572296336165 59.9438957876795  C 8.38627695974776 60.6610388767145  8.55087847449153 61.7407824040255  8.47341893814155 62.3612320428537  C 8.28299757794781 63.8720672023375  7.4761274076352 64.8107994480967  6.80803890661633 65.9872364256148  C 6.80803890661633 65.9872364256148  10.1000692014916 68.6463063063063  10.1000692014916 68.6463063063063  C 10.1000692014916 68.6463063063063  8.36045711429767 70.6526953981007  8.36045711429767 70.6526953981007  C 8.36045711429767 70.6526953981007  8.16358079274141 73.0015404593782  8.16358079274141 73.0015404593782  C 8.16358079274141 73.0015404593782  8.01834416208516 76.1440775911047  8.01834416208516 76.1440775911047  C 8.01834416208516 76.1440775911047  8.93817615624158 79.060996672348  8.93817615624158 79.060996672348  C 8.93817615624158 79.060996672348  7.19533658836644 79.060996672348  7.19533658836644 79.060996672348  C 5.32985275460373 79.3188458728999  5.78170004997889 79.7902264426589  3.70965745261623 79.060996672348  C 3.4934162469724 79.681446311176  2.88019491753482 81.0955880204528  2.89955980162233 81.703950978005  C 2.93183460843483 82.5862787111436  3.56764830264126 83.0576592809025  3.63542539694743 84.1212872331791  C 3.73870477874743 85.769104780456  2.82532774595364 87.3484311338365  1.57952020299103 87.8560717474231  C 1.18254007919728 88.017227497768  0.646778286109679 87.9890252414576  0.227205797547242 87.9890252414576  C 0.227205797547242 87.9890252414576  0.808152320172212 89.9228942455969  0.808152320172212 89.9228942455969  C 1.60856752912224 89.3951091632172  3.33526969359116 88.0011119227335  4.25187420706624 88.3999724048372  C 4.81022836492252 88.6417060303546  5.04583445465386 89.5562649135621  5.4331321364038 90.0639055271487  C 5.83979470224136 90.5957195032871  6.43365114759138 90.7407596785974  7.00168774749147 90.8173086600113  C 8.01834416208516 90.9542910478045  9.95806005151661 90.2452057462868  11.0683134058667 90.0316743770796  C 11.6331225250855 89.9188653518382  12.4432201760793 89.7979985390796  12.9047499134981 90.3096680464248  C 13.2985025566106 90.7447885723561  13.6051132213294 92.1710169629088  13.7793971781169 92.8277266455644  C 13.7793971781169 92.8277266455644  16.1031832686172 91.8607921434948  16.1031832686172 91.8607921434948  C 16.9294183230172 94.6528155182208  17.4329053092922 94.0162503043584  18.6206181999923 94.854260206152  C 20.0794394679174 95.881628114601  19.6727769020798 96.0186105023943  21.5221233324363 95.9662348835321  C 22.5742820345239 95.9340037334632  23.6748529468301 95.5593166139112  24.7496040136866 95.7768768768769  C 26.0954634577678 96.0508416524632  28.9679212640806 98.1539241944647  30.3654203990619 99.0523675026377  C 32.3083637691745 100.301324567811  32.2405866748683 101.469703757812  33.1087789781246 101.860506452398  C 33.6284033678058 102.094182290399  34.6805620698935 101.731581852122  35.2066414209372 101.530137164191  C 34.4998231517434 97.9242772502232  35.113044481181 97.4287233179124  35.0678597516435 95.9702637772908  C 35.0388124255122 94.9831848064281  34.5288704778746 94.4513708302896  34.3997712506247 93.7946611476341  C 34.1867575256621 92.7229754078402  35.1324093652685 91.6392029867704  35.7875879435622 91.1275334794254  C 36.9430260274498 90.2331190650108  37.4271481296374 90.9301176852528  38.3050228749375 90.7770197224252  C 38.7052304794125 90.7044996347699  39.2732670793125 90.3701014528041  39.6605647610626 90.1646278711142  C 39.6605647610626 90.1646278711142  38.1856060897312 87.2638243649054  38.1856060897312 87.2638243649054  C 38.1856060897312 87.2638243649054  36.7945619161124 86.6353169385601  36.7945619161124 86.6353169385601  C 36.7945619161124 86.6353169385601  35.4712948367998 84.3509341774206  35.4712948367998 84.3509341774206  C 35.4712948367998 84.3509341774206  33.2701530121872 83.6378199821442  33.2701530121872 83.6378199821442  C 33.615493445081 83.1422660498337  34.1673926415747 82.2317360603847  34.6321498596748 81.9738868598328  C 34.6321498596748 81.9738868598328  38.4986717158125 82.1874182290398  38.4986717158125 82.1874182290398  C 38.4986717158125 82.1874182290398  40.6288089654377 82.3848340232123  40.6288089654377 82.3848340232123  C 40.6288089654377 82.3848340232123  41.9811233708815 82.0786380975569  41.9811233708815 82.0786380975569  C 42.7298988889315 82.1229559289019  43.0849217638692 83.073774855937  43.7239629387567 83.1462949435922  C 44.101578178463 83.190612774937  44.4081888431816 82.9005324243161  44.6922071431317 82.6386543300058  C 46.0316116258506 81.3896972648323  45.8799200338318 80.708814219625  45.8541001883818 78.803147471796  C 45.8218253815693 76.4301290479668  44.7632117181191 77.1432432432433  43.3108454115566 74.2102085869653  C 42.6072546230441 72.7880090901713  42.9074103264003 71.8210745881015  42.5039752412441 70.8339956172388  C 42.0844027526816 69.8106566025484  41.1871631232941 69.3674782890999  40.8256852869939 68.5778151124097  C 40.5061646995503 67.8848453859265  40.5416669870439 65.4554224494765  40.2996059359502 64.5368346725103  C 40.0220425973627 63.481264507751  39.3571815770251 62.8205259313367  39.3507266156626 61.6360311663014  C 39.3474991349813 60.4515364012661  39.9219906962439 56.7328674620566  40.2511937257314 55.5926905283661  C 40.6191265233939 54.3155312068825  41.4001768482565 51.6484035386738  41.3775844834877 50.3551286421556  C 41.3453096766751 48.521981981982  40.5513494290876 47.0192046100154  40.244738764369 45.2746936125314  C 39.8929433701126 43.2723334144955  40.1737341893814 41.4432156480805  40.0123601553188 39.4730866001136  C 40.0123601553188 39.4730866001136  39.3378166929375 34.8801477152828  39.3378166929375 34.8801477152828  C 39.3313617315752 33.3290236182128  39.9155357348814 32.1404999594189  40.3447906654877 30.7706760814869  C 40.7772730767751 29.3807077347617  41.4647264618814 25.9319746773801  41.3775844834877 24.4856018180342  C 41.2743051016877 22.7249752455158  39.4895082849563 19.9007207207207  39.5282380531314 18.6799659118577  C 39.5282380531314 18.6799659118577  41.3614470800815 13.8452934015096  41.3614470800815 13.8452934015096  C 41.3614470800815 13.8452934015096  42.4684729537503 9.97755539323103  42.4684729537503 9.97755539323103  C 42.4684729537503 9.97755539323103  42.9364576525317 7.07675188702211  42.9364576525317 7.07675188702211  C 43.1397889354503 6.15413521629739  43.6045461535504 5.32015420826224  43.5980911921878 4.41768200633064  C 43.5948637115066 3.24124502881258  43.0074622275191 1.46853177501825  42.7557187343816 0.308210372534631  Z " fill-rule="nonzero" fill="#1c8dff" stroke="none" transform="matrix(1 0 0 1 449 2187 )" />
    <path d="M 42.7557187343816 0.308210372534631  C 41.393721886894 0.972977842707536  40.1930990734689 2.86252901550196  39.4669159201876 4.41768200633064  C 39.4669159201876 4.41768200633064  38.3050228749375 2.48381300219137  38.3050228749375 2.48381300219137  C 37.7757160432125 2.6449687525363  36.4589039252624 2.86252901550196  36.1038810503247 3.19692719746772  C 35.7940429049249 3.48700754808863  35.4293375879436 4.42976868760655  35.1291818845873 4.90114925736543  C 35.1291818845873 4.90114925736543  32.7279362577372 8.26124665205739  32.7279362577372 8.26124665205739  C 31.7596920533621 9.62704163623081  31.1561531659682 9.61495495495492  30.4686997808619 10.5416005194383  C 30.0394448502556 11.1096745394042  29.4165410787744 12.6084230176122  29.0453808004306 13.3618261504747  C 28.161051093768 15.1707994480967  27.0669351428242 16.6252300949598  27.3089961939179 18.9216995373752  C 27.3767732882242 19.5622936449963  27.6737015108992 20.4607369531694  27.8479854676867 21.0973021670319  C 27.4025931336741 21.2906890674458  26.5440832724616 21.6291161431701  26.2148802429741 22.0199188377567  C 25.7404405828304 22.5799350702053  25.4273749567491 24.8482022563103  25.3305505363115 25.7265010956903  C 25.3305505363115 25.7265010956903  22.2967186959362 25.7265010956903  22.2967186959362 25.7265010956903  C 21.7900042289801 25.8433390146903  21.0476836722925 26.1495349403457  20.5764714928299 25.8876568460352  C 20.0310272576986 25.589518707897  19.8212410134175 24.8240288937586  19.4371708123486 24.316388280172  C 18.9691861135674 23.6919097475854  17.3360808888547 22.94656440224  16.6905847526046 23.3011070529989  C 16.0547710583984 23.6516208099991  15.4286398062358 24.9207223439655  15.1446215062857 25.6942699456213  C 14.3377513359732 27.8779303627952  13.7471223713045 29.7916548981413  13.7793971781169 32.2210778345913  C 13.8148994656107 34.6706452398344  15.1607589096921 35.8914000486973  16.8777786321172 36.600485350215  C 17.3974030217984 36.8140167194221  18.3882395909423 36.9872591510429  18.772309792011 37.2934550766983  C 19.3887586021298 37.7849801152504  19.5920898850486 38.7720590861131  20.0923493906424 39.275670805941  C 20.5280592826111 39.7107913318724  21.0960958825112 39.6825890755621  21.7157721733113 40.0089294700106  C 23.4069720502864 40.9114016719422  22.9293049094614 41.3988978167357  25.3305505363115 41.4069556042529  C 25.3305505363115 41.4069556042529  25.8630848487178 44.5293482671861  25.8630848487178 44.5293482671861  C 25.9728191918803 45.6171495820144  25.4564222828803 46.028096745394  25.1498116181615 46.9708578849119  C 24.9045230863866 47.7242610177745  24.9012956057053 49.0537959581202  24.962617738649 49.8716613911209  C 25.1078543693053 51.7974726077428  25.8049901964553 51.9787728268809  25.4693322056054 54.6257560262965  C 25.4209199953866 55.0326742959175  25.3402329783553 55.6410372534696  25.1401291761178 55.9714065416767  C 24.7980162239053 56.5515672429186  23.9362788820114 56.6925785244704  23.3940621275614 56.793300868436  C 23.3940621275614 56.793300868436  21.3284744915612 56.793300868436  21.3284744915612 56.793300868436  C 19.6340471339049 56.9705721938154  19.9471127599862 57.4822417011606  18.0687190034984 56.793300868436  C 18.049354119411 57.349288207126  18.1978182307486 58.8198344290236  18.0687190034984 59.1985504423342  C 17.636236592211 60.9833503774044  14.4668505632233 61.821360279198  13.1984506554919 61.2492573654735  C 12.2366614124794 60.8181657333008  12.1979316443043 59.8633179125071  10.2937180423667 59.7263355247139  C 9.62885702202908 59.6779887996103  9.01240821191033 59.8351156561967  8.3572296336165 59.9438957876795  C 8.38627695974776 60.6610388767145  8.55087847449153 61.7407824040255  8.47341893814155 62.3612320428537  C 8.28299757794781 63.8720672023375  7.4761274076352 64.8107994480967  6.80803890661633 65.9872364256148  C 6.80803890661633 65.9872364256148  10.1000692014916 68.6463063063063  10.1000692014916 68.6463063063063  C 10.1000692014916 68.6463063063063  8.36045711429767 70.6526953981007  8.36045711429767 70.6526953981007  C 8.36045711429767 70.6526953981007  8.16358079274141 73.0015404593782  8.16358079274141 73.0015404593782  C 8.16358079274141 73.0015404593782  8.01834416208516 76.1440775911047  8.01834416208516 76.1440775911047  C 8.01834416208516 76.1440775911047  8.93817615624158 79.060996672348  8.93817615624158 79.060996672348  C 8.93817615624158 79.060996672348  7.19533658836644 79.060996672348  7.19533658836644 79.060996672348  C 5.32985275460373 79.3188458728999  5.78170004997889 79.7902264426589  3.70965745261623 79.060996672348  C 3.4934162469724 79.681446311176  2.88019491753482 81.0955880204528  2.89955980162233 81.703950978005  C 2.93183460843483 82.5862787111436  3.56764830264126 83.0576592809025  3.63542539694743 84.1212872331791  C 3.73870477874743 85.769104780456  2.82532774595364 87.3484311338365  1.57952020299103 87.8560717474231  C 1.18254007919728 88.017227497768  0.646778286109679 87.9890252414576  0.227205797547242 87.9890252414576  C 0.227205797547242 87.9890252414576  0.808152320172212 89.9228942455969  0.808152320172212 89.9228942455969  C 1.60856752912224 89.3951091632172  3.33526969359116 88.0011119227335  4.25187420706624 88.3999724048372  C 4.81022836492252 88.6417060303546  5.04583445465386 89.5562649135621  5.4331321364038 90.0639055271487  C 5.83979470224136 90.5957195032871  6.43365114759138 90.7407596785974  7.00168774749147 90.8173086600113  C 8.01834416208516 90.9542910478045  9.95806005151661 90.2452057462868  11.0683134058667 90.0316743770796  C 11.6331225250855 89.9188653518382  12.4432201760793 89.7979985390796  12.9047499134981 90.3096680464248  C 13.2985025566106 90.7447885723561  13.6051132213294 92.1710169629088  13.7793971781169 92.8277266455644  C 13.7793971781169 92.8277266455644  16.1031832686172 91.8607921434948  16.1031832686172 91.8607921434948  C 16.9294183230172 94.6528155182208  17.4329053092922 94.0162503043584  18.6206181999923 94.854260206152  C 20.0794394679174 95.881628114601  19.6727769020798 96.0186105023943  21.5221233324363 95.9662348835321  C 22.5742820345239 95.9340037334632  23.6748529468301 95.5593166139112  24.7496040136866 95.7768768768769  C 26.0954634577678 96.0508416524632  28.9679212640806 98.1539241944647  30.3654203990619 99.0523675026377  C 32.3083637691745 100.301324567811  32.2405866748683 101.469703757812  33.1087789781246 101.860506452398  C 33.6284033678058 102.094182290399  34.6805620698935 101.731581852122  35.2066414209372 101.530137164191  C 34.4998231517434 97.9242772502232  35.113044481181 97.4287233179124  35.0678597516435 95.9702637772908  C 35.0388124255122 94.9831848064281  34.5288704778746 94.4513708302896  34.3997712506247 93.7946611476341  C 34.1867575256621 92.7229754078402  35.1324093652685 91.6392029867704  35.7875879435622 91.1275334794254  C 36.9430260274498 90.2331190650108  37.4271481296374 90.9301176852528  38.3050228749375 90.7770197224252  C 38.7052304794125 90.7044996347699  39.2732670793125 90.3701014528041  39.6605647610626 90.1646278711142  C 39.6605647610626 90.1646278711142  38.1856060897312 87.2638243649054  38.1856060897312 87.2638243649054  C 38.1856060897312 87.2638243649054  36.7945619161124 86.6353169385601  36.7945619161124 86.6353169385601  C 36.7945619161124 86.6353169385601  35.4712948367998 84.3509341774206  35.4712948367998 84.3509341774206  C 35.4712948367998 84.3509341774206  33.2701530121872 83.6378199821442  33.2701530121872 83.6378199821442  C 33.615493445081 83.1422660498337  34.1673926415747 82.2317360603847  34.6321498596748 81.9738868598328  C 34.6321498596748 81.9738868598328  38.4986717158125 82.1874182290398  38.4986717158125 82.1874182290398  C 38.4986717158125 82.1874182290398  40.6288089654377 82.3848340232123  40.6288089654377 82.3848340232123  C 40.6288089654377 82.3848340232123  41.9811233708815 82.0786380975569  41.9811233708815 82.0786380975569  C 42.7298988889315 82.1229559289019  43.0849217638692 83.073774855937  43.7239629387567 83.1462949435922  C 44.101578178463 83.190612774937  44.4081888431816 82.9005324243161  44.6922071431317 82.6386543300058  C 46.0316116258506 81.3896972648323  45.8799200338318 80.708814219625  45.8541001883818 78.803147471796  C 45.8218253815693 76.4301290479668  44.7632117181191 77.1432432432433  43.3108454115566 74.2102085869653  C 42.6072546230441 72.7880090901713  42.9074103264003 71.8210745881015  42.5039752412441 70.8339956172388  C 42.0844027526816 69.8106566025484  41.1871631232941 69.3674782890999  40.8256852869939 68.5778151124097  C 40.5061646995503 67.8848453859265  40.5416669870439 65.4554224494765  40.2996059359502 64.5368346725103  C 40.0220425973627 63.481264507751  39.3571815770251 62.8205259313367  39.3507266156626 61.6360311663014  C 39.3474991349813 60.4515364012661  39.9219906962439 56.7328674620566  40.2511937257314 55.5926905283661  C 40.6191265233939 54.3155312068825  41.4001768482565 51.6484035386738  41.3775844834877 50.3551286421556  C 41.3453096766751 48.521981981982  40.5513494290876 47.0192046100154  40.244738764369 45.2746936125314  C 39.8929433701126 43.2723334144955  40.1737341893814 41.4432156480805  40.0123601553188 39.4730866001136  C 40.0123601553188 39.4730866001136  39.3378166929375 34.8801477152828  39.3378166929375 34.8801477152828  C 39.3313617315752 33.3290236182128  39.9155357348814 32.1404999594189  40.3447906654877 30.7706760814869  C 40.7772730767751 29.3807077347617  41.4647264618814 25.9319746773801  41.3775844834877 24.4856018180342  C 41.2743051016877 22.7249752455158  39.4895082849563 19.9007207207207  39.5282380531314 18.6799659118577  C 39.5282380531314 18.6799659118577  41.3614470800815 13.8452934015096  41.3614470800815 13.8452934015096  C 41.3614470800815 13.8452934015096  42.4684729537503 9.97755539323103  42.4684729537503 9.97755539323103  C 42.4684729537503 9.97755539323103  42.9364576525317 7.07675188702211  42.9364576525317 7.07675188702211  C 43.1397889354503 6.15413521629739  43.6045461535504 5.32015420826224  43.5980911921878 4.41768200633064  C 43.5948637115066 3.24124502881258  43.0074622275191 1.46853177501825  42.7557187343816 0.308210372534631  Z " stroke-width="2.13294375456538" stroke="#ffffff" fill="none" transform="matrix(1 0 0 1 449 2187 )" mask="url(#clip22)" />
  </g>
</svg>