<?xml version="1.0" encoding="utf-8"?>
<svg version="1.1" xmlns:xlink="http://www.w3.org/1999/xlink" width="112px" height="100px" xmlns="http://www.w3.org/2000/svg">
  <defs>
    <mask fill="white" id="clip23">
      <path d="M 14.9970193221729 4.26908840209779  C 14.1232720613987 4.4727965134889  13.7927534346638 5.51929700730184  11.662380899967 6.22228970543568  C 11.662380899967 6.22228970543568  12.1008907611796 10.5361085348938  12.1008907611796 10.5361085348938  C 12.1008907611796 10.5361085348938  12.6179397020123 12.6251152458258  12.6179397020123 12.6251152458258  C 12.6964787816324 13.587735929066  11.9176329087325 14.3426542242212  12.3888673864535 15.257343587134  C 12.6572092418224 15.7845881107344  13.7534838948538 16.5954262796048  14.2050836026697 17.0827280362658  C 14.7548571600108 17.6778752636633  16.6757921490539 21.1528959873934  17.0913947787106 22.0396254134487  C 17.3041047860151 22.4909786798642  17.7360697239261 23.4496050864104  17.7033451074177 23.9608725032351  C 17.6673480292584 24.4441799832021  17.4022786355404 24.8116534390448  17.143754165124 25.1511669580299  C 15.8282245814863 26.892671596589  13.8123882045688 26.405369839928  13.3836957283089 28.5143479343296  C 12.971365560303 30.5594176016283  15.9034911994557 33.1676802827728  14.7973991614717 35.6840745999568  C 14.5912340774688 36.155399249842  14.1527242162562 36.5787925793999  13.8222055895214 36.922300375079  C 13.3215189569429 37.4335677919036  13.0073626384622 37.7051786070917  12.4477716961686 38.100611999792  C 11.6885605931737 35.9556854151448  11.1944188838968 36.4789356620513  9.69890390946301 35.8917769880418  C 9.69890390946301 35.8917769880418  7.73542691895889 34.7933508972075  7.73542691895889 34.7933508972075  C 6.81259273342201 34.5457057421831  6.26281917608091 35.5402806389748  5.46106607162506 35.6840745999568  C 5.46106607162506 35.6840745999568  4.00482063700127 35.4963435953414  4.00482063700127 35.4963435953414  C 4.00482063700127 35.4963435953414  2.04134364649724 35.7040459834265  2.04134364649724 35.7040459834265  C 2.40785935139144 38.0886291697103  3.73320631998158 39.1910495372384  3.01980968009849 41.935117625977  C 2.866003982509 42.5222762999866  2.6892910533636 43.0974521439143  2.35222750332704 43.5647825171056  C 1.97916687513134 44.0800442106242  1.16105146242126 44.6552200545519  0.666909753144438 45.0506534472522  C 1.12832684591291 47.3553510996572  0.532738825460029 49.1487813352374  2.63038674364844 50.2472074260716  C 2.43403904459805 51.0700284250238  1.91699010376536 53.3228004804075  1.91371764211451 54.0817130522566  C 1.90717271881283 55.244047570194  2.63038674364844 57.668573523417  1.5504743988713 59.2822613077699  C 1.23959054204153 59.7455974042673  0.676727138096936 60.2009449473768  0.274214355043625 60.5524412964437  C 0.457472207490667 61.4631363826626  0.565463441968433 63.2086352979156  0.86652991384571 63.9076337193554  C 1.25922531194649 64.8263173589623  1.95625964357549 65.2497106885203  2.48967089266242 66.5438563373576  C 3.85101493941184 69.8311460564724  3.00344737184423 69.7752261827573  5.77194992845489 72.7070252761112  C 6.16464532655564 73.1264243289752  6.85186227323211 73.8413998571909  7.34273152085817 74.0211423084183  C 7.91213984810426 74.2288446965034  8.71062049090924 73.9013140076001  9.3062085113622 73.8054513669455  C 11.2107811921511 73.5018863382058  11.3645868897405 73.8493884105788  13.4295101914206 72.7789222566022  C 14.3883414551168 76.3577941743748  13.8156606662197 75.6667843063227  16.1751055164754 78.5306806958796  C 17.0684875471547 79.613129679938  17.2419280146493 80.1164085433748  18.5312779050802 80.0245401794141  C 20.1773261154528 79.9087061552897  19.7519061008436 81.0630521198393  21.869188788937 81.9657586526703  C 21.869188788937 81.9657586526703  25.4034473718442 83.1959958744045  25.4034473718442 83.1959958744045  C 25.4034473718442 83.1959958744045  29.5267490519027 85.1491971777426  29.5267490519027 85.1491971777426  C 29.5267490519027 85.1491971777426  31.4902260424068 85.3049739688063  31.4902260424068 85.3049739688063  C 32.7173991614717 85.6125332742399  33.6075087305002 87.1902725683472  35.2175598627135 87.4578891068413  C 36.6672603740357 87.6975457084779  38.4998388985061 85.7723043419975  39.5372092418223 86.1277949677584  C 41.0229068313037 86.6310738311952  41.7853903959495 89.1834166386246  42.7114970431371 90.4855508408498  C 43.6114239971181 91.7517365528298  44.1906497093169 90.8809842335502  44.9596781972643 91.4801257376416  C 45.2967417473008 91.7437479994418  45.4930894463512 92.2550154162665  45.6698023754966 92.6744144691304  C 46.5860916377317 94.8193410537776  46.4093787085865 95.1388831892932  46.4093787085865 97.4675465018617  C 46.4093787085865 97.4675465018617  51.9071142819977 99.3847993149542  51.9071142819977 99.3847993149542  C 51.9071142819977 99.3847993149542  52.1034619810481 96.7485766969519  52.1034619810481 96.7485766969519  C 55.3170193221729 97.8949341081135  54.6232574521948 99.2210339705024  57.5324758597916 99.8641125182273  C 57.8760843331299 98.0347337924015  58.0691595705294 97.4955064387194  59.2996051512453 96.3171948140061  C 59.7381150124579 95.9017900378362  60.1209930256062 95.5303223052994  60.6740390445981 95.3465855773782  C 61.0078301329837 95.2906657036629  61.6852296947077 95.3106370871326  62.0484729379509 95.3465855773782  C 62.1008323243643 93.9246230743346  62.7487797312306 90.5254936077894  63.8581442308654 89.9383349337797  C 64.254112090617 89.7306325456948  65.66781552378 89.7945409727978  66.1717746180093 89.7945409727978  C 65.4583779781262 88.7999660760061  64.1395759328377 87.7175170919477  63.7926949978486 86.6790051515226  C 63.2298315939042 85.0014089400667  63.9792253119466 84.3583303923418  64.6795321052263 83.0841561269742  C 64.6795321052263 83.0841561269742  66.7608177151605 78.5306806958796  66.7608177151605 78.5306806958796  C 66.4466613966799 78.3070012010187  65.890342916037 77.9395277451761  65.6612706004782 77.6599283766001  C 64.3424685551898 76.2299773201686  64.6893494901788 74.2568046333609  65.6612706004782 72.7988936400719  C 65.9688819956573 72.3834888639019  66.5350178612526 71.7364160394831  66.9571654142109 71.5686564183376  C 67.7981880584768 71.2331371760463  68.3708688473739 72.3555289270442  69.1169901037653 72.6271397422323  C 69.9940098261905 72.9506761544417  70.4521544573082 72.1358437088773  71.865857890471 72.9746418146054  C 72.5334400672423 73.3740694839996  74.0453173499305 74.7001693463886  74.421650439777 75.4550876415436  C 74.768531374766 76.1620746163716  74.7161719883527 77.0408154890389  74.9027023024505 77.8117108909699  C 74.9027023024505 77.8117108909699  76.120058036563 80.6875901106086  76.120058036563 80.6875901106086  C 76.3785825069795 81.3546343184971  76.7810952900327 82.7206769478254  77.1279762250218 83.2319443646501  C 77.487947006614 83.7631831649445  78.2373407246565 84.1626108343387  78.7347548955841 84.5380728435693  C 79.7394006223921 85.2929911387244  81.8010514624213 87.5257918106384  82.8580565756426 87.4578891068413  C 83.401285209682 87.4259348932898  83.9412413820707 87.1982611217352  84.3732063199815 86.7988334523409  C 84.7495394098282 86.4513313799679  85.0636957283089 85.8282242157127  85.6101968239991 86.0079666669403  C 86.5657556260444 86.3235145257617  87.2038856479582 88.2327787854662  87.8845576713329 88.9317772069063  C 88.3819718422606 89.4470389004248  89.3015335661466 89.3152277695247  89.9265737414571 89.3152277695247  C 89.9265737414571 89.3152277695247  89.7302260424067 92.6744144691304  89.7302260424067 92.6744144691304  C 91.3140974814133 92.6664259157425  91.5693494901788 92.6065117653334  92.0863984310114 90.273854176071  C 93.0550470796602 90.5894020348924  95.1101529963877 91.172566432208  95.8202771746199 89.9623005939434  C 96.6351201256791 88.5643037510635  95.6599265537288 86.714953641768  95.6730164003322 86.02793805041  C 95.6959236318881 84.5260900134874  97.4434181534367 83.4356524760412  98.5626000380239 83.6593319709019  C 98.9978374375857 83.7472060581686  99.6654196143569 84.274450581769  100.133381630427 84.5220957367936  C 100.153016400332 83.4875780730624  100.251190249857 82.3971405356161  100.506442258623 81.4065599155182  C 100.712607342626 80.6116988534237  101.15766212714 79.828820621411  100.781329037293 79.0139881758466  C 99.9664860862343 77.2445236004301  98.8702114332029 78.35892679804  97.7772092418224 77.596019949497  C 96.4125927334221 76.6453820963386  94.4982026676805 74.1449648859304  93.9876986501496 72.2996090533291  C 93.7880784894483 71.5726506950315  93.6702698700181 69.9749400174545  93.6571800234147 69.1800789553599  C 95.5650251658545 69.1800789553599  96.3896855018662 69.4157412803024  98.1699046399231 70.350402026685  C 99.5770631497843 71.0853489383705  100.859868116914 72.23969490292  102.489554019032 71.744404592871  C 103.006602959865 71.5846335251133  103.284762200186 71.2730799429858  103.667640213334 70.8456923367339  C 104.021066071625 70.4502589440336  104.845726407637 69.4996210908752  104.953717642115 68.9404223537233  C 105.074798723196 68.3253037428561  104.655923631888 67.7141794086829  104.361402083312 67.2628261422673  C 103.330576663298 65.6930754015479  102.728443719543 65.1498537711717  101.115120125679 64.8662601259018  C 101.115120125679 64.8662601259018  102.954243573451 63.9515707629889  102.954243573451 63.9515707629889  C 103.487654822538 63.4043548559187  103.576011287111 62.3338887019421  104.472665779441 61.3632794653141  C 105.546033200917 60.2009449473768  106.452505078199 60.0371796029251  106.711029548616 57.9162186784416  C 106.776478781632 56.8936838447922  106.318334150515 56.0948285060037  106.711029548616 55.4317785748092  C 107.296800184116 54.5730090856115  109.724966729039 53.8979763243353  109.996581046059 52.8315044470525  C 110.107844742188 52.3761569039431  109.839502886819 51.2377880461694  109.754418883897 50.7265206293447  C 109.754418883897 50.7265206293447  111.717895874401 50.2472074260716  111.717895874401 50.2472074260716  C 111.269568628236 48.0223953075456  111.36447001611 47.4272480801482  111.547727868557 45.2903100488888  C 111.678626334591 43.7924562886604  110.89650800004 43.468919876451  110.363096750953 41.935117625977  C 109.698787035833 40.0418304730481  109.623520417863 38.1245776599557  109.381358255701 37.3816421948823  C 109.02793239741 36.2792218273542  108.291628525971 35.8438456677145  108.298173449273 34.9850761785167  C 108.298173449273 34.9850761785167  108.969028087695 32.8281667637878  108.969028087695 32.8281667637878  C 106.763388935029 31.5300268382564  107.250985721004 31.2584160230683  106.161255991275 30.0441559081097  C 106.161255991275 30.0441559081097  104.750825019762 28.841878623233  104.750825019762 28.841878623233  C 104.367947006614 28.3705539733477  104.099605151245 27.2481622223499  103.863987912385 26.5970951212372  C 103.863987912385 26.5970951212372  103.274944815234 28.5143479343296  103.274944815234 28.5143479343296  C 101.939780461691 27.4758359939046  101.812154457308 27.0564369410405  100.722424727578 25.9540165735124  C 100.722424727578 25.9540165735124  98.5626000380239 24.0727122506654  98.5626000380239 24.0727122506654  C 98.5626000380239 24.0727122506654  96.9918184456208 22.4670130197005  96.9918184456208 22.4670130197005  C 96.9918184456208 22.4670130197005  93.8927972622752 20.2142409643168  93.8927972622752 20.2142409643168  C 93.2546672403614 19.5551853098163  93.1990353922972 18.8322212282127  92.5969024485426 18.1811541271  C 91.5235350270671 17.0228138858567  91.34027717462 17.6658924335814  90.1229214405075 15.329240567625  C 90.1229214405075 15.329240567625  89.1411829452555 17.9654631856271  89.1411829452555 17.9654631856271  C 87.3118768824359 16.6793060901776  85.8654488327647 15.4251032082796  84.4910149394119 13.4119877545325  C 82.9987724266288 11.2271184029459  82.6944334931006 9.55351646818389  80.3055364879875 8.0077313876281  C 78.800204128601 7.03312787430605  78.738027357235 8.30730213967382  77.7530164003322 8.33126779983749  C 77.3570485405806 8.3392563532253  76.3425854288202 7.6322693783975  75.7895394098282 7.42057271361853  C 75.5833743258253 7.81201182962494  75.3902990884257 8.22342232910103  75.1088673864535 8.54296446461643  C 74.2874795120926 9.47762521099895  73.0832136245835 9.13411741531993  72.2585532885718 8.41115333371633  C 71.1884583287471 7.48048686402771  68.7112048590612 4.57664770753141  67.3498608123117 4.81231003247402  C 66.5415627845542 4.95210971676201  65.952519687403 6.04654153090229  65.7921690665119 6.94125951034542  C 65.7921690665119 6.94125951034542  64.7973407246565 15.0895839659884  64.7973407246565 15.0895839659884  C 62.3626292564316 14.2867343505059  62.6440609584037 13.4758961816356  61.0667344426989 12.1298249357769  C 60.1668074887179 11.358929533846  59.1032574521949 11.1991584660882  58.1215189569429 10.2325435061542  C 58.1215189569429 10.2325435061542  54.0080346618369 5.37150876962596  54.0080346618369 5.37150876962596  C 53.0230237049341 4.24512274193413  51.5831405785645 3.38635325273651  50.3363326895944 2.77123464186931  C 50.3363326895944 2.77123464186931  46.6057264076368 1.23743239139534  46.6057264076368 1.23743239139534  C 46.0526803886448 0.965821576207191  44.7371508050071 0.186937620888415  44.249554019032 0.158977684030816  C 43.5230675325454 0.115040640397467  42.8293056625674 0.754124911428278  41.8933816304271 0.710187867794929  C 40.9378228283819 0.666250824161551  39.8415481753505 -0.0487247040541945  38.7518184456207 0.0671093200701307  C 37.3839294755697 0.210903281052055  36.1305766632978 1.04970138678004  35.4139075617639 1.1695296875983  C 34.7855949248026 1.26938660494687  34.2685459839699 0.993781513064818  33.6500507319612 0.989787236370887  C 33.6500507319612 0.989787236370887  29.7230967509531 1.55298025021676  29.7230967509531 1.55298025021676  C 29.7230967509531 1.55298025021676  27.9559674594995 2.25996722504468  27.9559674594995 2.25996722504468  C 27.9559674594995 2.25996722504468  25.4034473718442 2.69534338468443  25.4034473718442 2.69534338468443  C 25.4034473718442 2.69534338468443  21.4764933908362 3.6459812378427  21.4764933908362 3.6459812378427  C 20.131511652341 3.95753481997028  19.3690280876953 4.5007564503465  17.942234807929 4.54069921728592  C 17.942234807929 4.54069921728592  14.9970193221729 4.26908840209779  14.9970193221729 4.26908840209779  Z " fill-rule="evenodd" />
    </mask>
  </defs>
  <g transform="matrix(1 0 0 1 -316 -2186 )">
    <path d="M 14.9970193221729 4.26908840209779  C 14.1232720613987 4.4727965134889  13.7927534346638 5.51929700730184  11.662380899967 6.22228970543568  C 11.662380899967 6.22228970543568  12.1008907611796 10.5361085348938  12.1008907611796 10.5361085348938  C 12.1008907611796 10.5361085348938  12.6179397020123 12.6251152458258  12.6179397020123 12.6251152458258  C 12.6964787816324 13.587735929066  11.9176329087325 14.3426542242212  12.3888673864535 15.257343587134  C 12.6572092418224 15.7845881107344  13.7534838948538 16.5954262796048  14.2050836026697 17.0827280362658  C 14.7548571600108 17.6778752636633  16.6757921490539 21.1528959873934  17.0913947787106 22.0396254134487  C 17.3041047860151 22.4909786798642  17.7360697239261 23.4496050864104  17.7033451074177 23.9608725032351  C 17.6673480292584 24.4441799832021  17.4022786355404 24.8116534390448  17.143754165124 25.1511669580299  C 15.8282245814863 26.892671596589  13.8123882045688 26.405369839928  13.3836957283089 28.5143479343296  C 12.971365560303 30.5594176016283  15.9034911994557 33.1676802827728  14.7973991614717 35.6840745999568  C 14.5912340774688 36.155399249842  14.1527242162562 36.5787925793999  13.8222055895214 36.922300375079  C 13.3215189569429 37.4335677919036  13.0073626384622 37.7051786070917  12.4477716961686 38.100611999792  C 11.6885605931737 35.9556854151448  11.1944188838968 36.4789356620513  9.69890390946301 35.8917769880418  C 9.69890390946301 35.8917769880418  7.73542691895889 34.7933508972075  7.73542691895889 34.7933508972075  C 6.81259273342201 34.5457057421831  6.26281917608091 35.5402806389748  5.46106607162506 35.6840745999568  C 5.46106607162506 35.6840745999568  4.00482063700127 35.4963435953414  4.00482063700127 35.4963435953414  C 4.00482063700127 35.4963435953414  2.04134364649724 35.7040459834265  2.04134364649724 35.7040459834265  C 2.40785935139144 38.0886291697103  3.73320631998158 39.1910495372384  3.01980968009849 41.935117625977  C 2.866003982509 42.5222762999866  2.6892910533636 43.0974521439143  2.35222750332704 43.5647825171056  C 1.97916687513134 44.0800442106242  1.16105146242126 44.6552200545519  0.666909753144438 45.0506534472522  C 1.12832684591291 47.3553510996572  0.532738825460029 49.1487813352374  2.63038674364844 50.2472074260716  C 2.43403904459805 51.0700284250238  1.91699010376536 53.3228004804075  1.91371764211451 54.0817130522566  C 1.90717271881283 55.244047570194  2.63038674364844 57.668573523417  1.5504743988713 59.2822613077699  C 1.23959054204153 59.7455974042673  0.676727138096936 60.2009449473768  0.274214355043625 60.5524412964437  C 0.457472207490667 61.4631363826626  0.565463441968433 63.2086352979156  0.86652991384571 63.9076337193554  C 1.25922531194649 64.8263173589623  1.95625964357549 65.2497106885203  2.48967089266242 66.5438563373576  C 3.85101493941184 69.8311460564724  3.00344737184423 69.7752261827573  5.77194992845489 72.7070252761112  C 6.16464532655564 73.1264243289752  6.85186227323211 73.8413998571909  7.34273152085817 74.0211423084183  C 7.91213984810426 74.2288446965034  8.71062049090924 73.9013140076001  9.3062085113622 73.8054513669455  C 11.2107811921511 73.5018863382058  11.3645868897405 73.8493884105788  13.4295101914206 72.7789222566022  C 14.3883414551168 76.3577941743748  13.8156606662197 75.6667843063227  16.1751055164754 78.5306806958796  C 17.0684875471547 79.613129679938  17.2419280146493 80.1164085433748  18.5312779050802 80.0245401794141  C 20.1773261154528 79.9087061552897  19.7519061008436 81.0630521198393  21.869188788937 81.9657586526703  C 21.869188788937 81.9657586526703  25.4034473718442 83.1959958744045  25.4034473718442 83.1959958744045  C 25.4034473718442 83.1959958744045  29.5267490519027 85.1491971777426  29.5267490519027 85.1491971777426  C 29.5267490519027 85.1491971777426  31.4902260424068 85.3049739688063  31.4902260424068 85.3049739688063  C 32.7173991614717 85.6125332742399  33.6075087305002 87.1902725683472  35.2175598627135 87.4578891068413  C 36.6672603740357 87.6975457084779  38.4998388985061 85.7723043419975  39.5372092418223 86.1277949677584  C 41.0229068313037 86.6310738311952  41.7853903959495 89.1834166386246  42.7114970431371 90.4855508408498  C 43.6114239971181 91.7517365528298  44.1906497093169 90.8809842335502  44.9596781972643 91.4801257376416  C 45.2967417473008 91.7437479994418  45.4930894463512 92.2550154162665  45.6698023754966 92.6744144691304  C 46.5860916377317 94.8193410537776  46.4093787085865 95.1388831892932  46.4093787085865 97.4675465018617  C 46.4093787085865 97.4675465018617  51.9071142819977 99.3847993149542  51.9071142819977 99.3847993149542  C 51.9071142819977 99.3847993149542  52.1034619810481 96.7485766969519  52.1034619810481 96.7485766969519  C 55.3170193221729 97.8949341081135  54.6232574521948 99.2210339705024  57.5324758597916 99.8641125182273  C 57.8760843331299 98.0347337924015  58.0691595705294 97.4955064387194  59.2996051512453 96.3171948140061  C 59.7381150124579 95.9017900378362  60.1209930256062 95.5303223052994  60.6740390445981 95.3465855773782  C 61.0078301329837 95.2906657036629  61.6852296947077 95.3106370871326  62.0484729379509 95.3465855773782  C 62.1008323243643 93.9246230743346  62.7487797312306 90.5254936077894  63.8581442308654 89.9383349337797  C 64.254112090617 89.7306325456948  65.66781552378 89.7945409727978  66.1717746180093 89.7945409727978  C 65.4583779781262 88.7999660760061  64.1395759328377 87.7175170919477  63.7926949978486 86.6790051515226  C 63.2298315939042 85.0014089400667  63.9792253119466 84.3583303923418  64.6795321052263 83.0841561269742  C 64.6795321052263 83.0841561269742  66.7608177151605 78.5306806958796  66.7608177151605 78.5306806958796  C 66.4466613966799 78.3070012010187  65.890342916037 77.9395277451761  65.6612706004782 77.6599283766001  C 64.3424685551898 76.2299773201686  64.6893494901788 74.2568046333609  65.6612706004782 72.7988936400719  C 65.9688819956573 72.3834888639019  66.5350178612526 71.7364160394831  66.9571654142109 71.5686564183376  C 67.7981880584768 71.2331371760463  68.3708688473739 72.3555289270442  69.1169901037653 72.6271397422323  C 69.9940098261905 72.9506761544417  70.4521544573082 72.1358437088773  71.865857890471 72.9746418146054  C 72.5334400672423 73.3740694839996  74.0453173499305 74.7001693463886  74.421650439777 75.4550876415436  C 74.768531374766 76.1620746163716  74.7161719883527 77.0408154890389  74.9027023024505 77.8117108909699  C 74.9027023024505 77.8117108909699  76.120058036563 80.6875901106086  76.120058036563 80.6875901106086  C 76.3785825069795 81.3546343184971  76.7810952900327 82.7206769478254  77.1279762250218 83.2319443646501  C 77.487947006614 83.7631831649445  78.2373407246565 84.1626108343387  78.7347548955841 84.5380728435693  C 79.7394006223921 85.2929911387244  81.8010514624213 87.5257918106384  82.8580565756426 87.4578891068413  C 83.401285209682 87.4259348932898  83.9412413820707 87.1982611217352  84.3732063199815 86.7988334523409  C 84.7495394098282 86.4513313799679  85.0636957283089 85.8282242157127  85.6101968239991 86.0079666669403  C 86.5657556260444 86.3235145257617  87.2038856479582 88.2327787854662  87.8845576713329 88.9317772069063  C 88.3819718422606 89.4470389004248  89.3015335661466 89.3152277695247  89.9265737414571 89.3152277695247  C 89.9265737414571 89.3152277695247  89.7302260424067 92.6744144691304  89.7302260424067 92.6744144691304  C 91.3140974814133 92.6664259157425  91.5693494901788 92.6065117653334  92.0863984310114 90.273854176071  C 93.0550470796602 90.5894020348924  95.1101529963877 91.172566432208  95.8202771746199 89.9623005939434  C 96.6351201256791 88.5643037510635  95.6599265537288 86.714953641768  95.6730164003322 86.02793805041  C 95.6959236318881 84.5260900134874  97.4434181534367 83.4356524760412  98.5626000380239 83.6593319709019  C 98.9978374375857 83.7472060581686  99.6654196143569 84.274450581769  100.133381630427 84.5220957367936  C 100.153016400332 83.4875780730624  100.251190249857 82.3971405356161  100.506442258623 81.4065599155182  C 100.712607342626 80.6116988534237  101.15766212714 79.828820621411  100.781329037293 79.0139881758466  C 99.9664860862343 77.2445236004301  98.8702114332029 78.35892679804  97.7772092418224 77.596019949497  C 96.4125927334221 76.6453820963386  94.4982026676805 74.1449648859304  93.9876986501496 72.2996090533291  C 93.7880784894483 71.5726506950315  93.6702698700181 69.9749400174545  93.6571800234147 69.1800789553599  C 95.5650251658545 69.1800789553599  96.3896855018662 69.4157412803024  98.1699046399231 70.350402026685  C 99.5770631497843 71.0853489383705  100.859868116914 72.23969490292  102.489554019032 71.744404592871  C 103.006602959865 71.5846335251133  103.284762200186 71.2730799429858  103.667640213334 70.8456923367339  C 104.021066071625 70.4502589440336  104.845726407637 69.4996210908752  104.953717642115 68.9404223537233  C 105.074798723196 68.3253037428561  104.655923631888 67.7141794086829  104.361402083312 67.2628261422673  C 103.330576663298 65.6930754015479  102.728443719543 65.1498537711717  101.115120125679 64.8662601259018  C 101.115120125679 64.8662601259018  102.954243573451 63.9515707629889  102.954243573451 63.9515707629889  C 103.487654822538 63.4043548559187  103.576011287111 62.3338887019421  104.472665779441 61.3632794653141  C 105.546033200917 60.2009449473768  106.452505078199 60.0371796029251  106.711029548616 57.9162186784416  C 106.776478781632 56.8936838447922  106.318334150515 56.0948285060037  106.711029548616 55.4317785748092  C 107.296800184116 54.5730090856115  109.724966729039 53.8979763243353  109.996581046059 52.8315044470525  C 110.107844742188 52.3761569039431  109.839502886819 51.2377880461694  109.754418883897 50.7265206293447  C 109.754418883897 50.7265206293447  111.717895874401 50.2472074260716  111.717895874401 50.2472074260716  C 111.269568628236 48.0223953075456  111.36447001611 47.4272480801482  111.547727868557 45.2903100488888  C 111.678626334591 43.7924562886604  110.89650800004 43.468919876451  110.363096750953 41.935117625977  C 109.698787035833 40.0418304730481  109.623520417863 38.1245776599557  109.381358255701 37.3816421948823  C 109.02793239741 36.2792218273542  108.291628525971 35.8438456677145  108.298173449273 34.9850761785167  C 108.298173449273 34.9850761785167  108.969028087695 32.8281667637878  108.969028087695 32.8281667637878  C 106.763388935029 31.5300268382564  107.250985721004 31.2584160230683  106.161255991275 30.0441559081097  C 106.161255991275 30.0441559081097  104.750825019762 28.841878623233  104.750825019762 28.841878623233  C 104.367947006614 28.3705539733477  104.099605151245 27.2481622223499  103.863987912385 26.5970951212372  C 103.863987912385 26.5970951212372  103.274944815234 28.5143479343296  103.274944815234 28.5143479343296  C 101.939780461691 27.4758359939046  101.812154457308 27.0564369410405  100.722424727578 25.9540165735124  C 100.722424727578 25.9540165735124  98.5626000380239 24.0727122506654  98.5626000380239 24.0727122506654  C 98.5626000380239 24.0727122506654  96.9918184456208 22.4670130197005  96.9918184456208 22.4670130197005  C 96.9918184456208 22.4670130197005  93.8927972622752 20.2142409643168  93.8927972622752 20.2142409643168  C 93.2546672403614 19.5551853098163  93.1990353922972 18.8322212282127  92.5969024485426 18.1811541271  C 91.5235350270671 17.0228138858567  91.34027717462 17.6658924335814  90.1229214405075 15.329240567625  C 90.1229214405075 15.329240567625  89.1411829452555 17.9654631856271  89.1411829452555 17.9654631856271  C 87.3118768824359 16.6793060901776  85.8654488327647 15.4251032082796  84.4910149394119 13.4119877545325  C 82.9987724266288 11.2271184029459  82.6944334931006 9.55351646818389  80.3055364879875 8.0077313876281  C 78.800204128601 7.03312787430605  78.738027357235 8.30730213967382  77.7530164003322 8.33126779983749  C 77.3570485405806 8.3392563532253  76.3425854288202 7.6322693783975  75.7895394098282 7.42057271361853  C 75.5833743258253 7.81201182962494  75.3902990884257 8.22342232910103  75.1088673864535 8.54296446461643  C 74.2874795120926 9.47762521099895  73.0832136245835 9.13411741531993  72.2585532885718 8.41115333371633  C 71.1884583287471 7.48048686402771  68.7112048590612 4.57664770753141  67.3498608123117 4.81231003247402  C 66.5415627845542 4.95210971676201  65.952519687403 6.04654153090229  65.7921690665119 6.94125951034542  C 65.7921690665119 6.94125951034542  64.7973407246565 15.0895839659884  64.7973407246565 15.0895839659884  C 62.3626292564316 14.2867343505059  62.6440609584037 13.4758961816356  61.0667344426989 12.1298249357769  C 60.1668074887179 11.358929533846  59.1032574521949 11.1991584660882  58.1215189569429 10.2325435061542  C 58.1215189569429 10.2325435061542  54.0080346618369 5.37150876962596  54.0080346618369 5.37150876962596  C 53.0230237049341 4.24512274193413  51.5831405785645 3.38635325273651  50.3363326895944 2.77123464186931  C 50.3363326895944 2.77123464186931  46.6057264076368 1.23743239139534  46.6057264076368 1.23743239139534  C 46.0526803886448 0.965821576207191  44.7371508050071 0.186937620888415  44.249554019032 0.158977684030816  C 43.5230675325454 0.115040640397467  42.8293056625674 0.754124911428278  41.8933816304271 0.710187867794929  C 40.9378228283819 0.666250824161551  39.8415481753505 -0.0487247040541945  38.7518184456207 0.0671093200701307  C 37.3839294755697 0.210903281052055  36.1305766632978 1.04970138678004  35.4139075617639 1.1695296875983  C 34.7855949248026 1.26938660494687  34.2685459839699 0.993781513064818  33.6500507319612 0.989787236370887  C 33.6500507319612 0.989787236370887  29.7230967509531 1.55298025021676  29.7230967509531 1.55298025021676  C 29.7230967509531 1.55298025021676  27.9559674594995 2.25996722504468  27.9559674594995 2.25996722504468  C 27.9559674594995 2.25996722504468  25.4034473718442 2.69534338468443  25.4034473718442 2.69534338468443  C 25.4034473718442 2.69534338468443  21.4764933908362 3.6459812378427  21.4764933908362 3.6459812378427  C 20.131511652341 3.95753481997028  19.3690280876953 4.5007564503465  17.942234807929 4.54069921728592  C 17.942234807929 4.54069921728592  14.9970193221729 4.26908840209779  14.9970193221729 4.26908840209779  Z " fill-rule="nonzero" fill="#aad5ff" stroke="none" transform="matrix(1 0 0 1 316 2186 )" />
    <path d="M 14.9970193221729 4.26908840209779  C 14.1232720613987 4.4727965134889  13.7927534346638 5.51929700730184  11.662380899967 6.22228970543568  C 11.662380899967 6.22228970543568  12.1008907611796 10.5361085348938  12.1008907611796 10.5361085348938  C 12.1008907611796 10.5361085348938  12.6179397020123 12.6251152458258  12.6179397020123 12.6251152458258  C 12.6964787816324 13.587735929066  11.9176329087325 14.3426542242212  12.3888673864535 15.257343587134  C 12.6572092418224 15.7845881107344  13.7534838948538 16.5954262796048  14.2050836026697 17.0827280362658  C 14.7548571600108 17.6778752636633  16.6757921490539 21.1528959873934  17.0913947787106 22.0396254134487  C 17.3041047860151 22.4909786798642  17.7360697239261 23.4496050864104  17.7033451074177 23.9608725032351  C 17.6673480292584 24.4441799832021  17.4022786355404 24.8116534390448  17.143754165124 25.1511669580299  C 15.8282245814863 26.892671596589  13.8123882045688 26.405369839928  13.3836957283089 28.5143479343296  C 12.971365560303 30.5594176016283  15.9034911994557 33.1676802827728  14.7973991614717 35.6840745999568  C 14.5912340774688 36.155399249842  14.1527242162562 36.5787925793999  13.8222055895214 36.922300375079  C 13.3215189569429 37.4335677919036  13.0073626384622 37.7051786070917  12.4477716961686 38.100611999792  C 11.6885605931737 35.9556854151448  11.1944188838968 36.4789356620513  9.69890390946301 35.8917769880418  C 9.69890390946301 35.8917769880418  7.73542691895889 34.7933508972075  7.73542691895889 34.7933508972075  C 6.81259273342201 34.5457057421831  6.26281917608091 35.5402806389748  5.46106607162506 35.6840745999568  C 5.46106607162506 35.6840745999568  4.00482063700127 35.4963435953414  4.00482063700127 35.4963435953414  C 4.00482063700127 35.4963435953414  2.04134364649724 35.7040459834265  2.04134364649724 35.7040459834265  C 2.40785935139144 38.0886291697103  3.73320631998158 39.1910495372384  3.01980968009849 41.935117625977  C 2.866003982509 42.5222762999866  2.6892910533636 43.0974521439143  2.35222750332704 43.5647825171056  C 1.97916687513134 44.0800442106242  1.16105146242126 44.6552200545519  0.666909753144438 45.0506534472522  C 1.12832684591291 47.3553510996572  0.532738825460029 49.1487813352374  2.63038674364844 50.2472074260716  C 2.43403904459805 51.0700284250238  1.91699010376536 53.3228004804075  1.91371764211451 54.0817130522566  C 1.90717271881283 55.244047570194  2.63038674364844 57.668573523417  1.5504743988713 59.2822613077699  C 1.23959054204153 59.7455974042673  0.676727138096936 60.2009449473768  0.274214355043625 60.5524412964437  C 0.457472207490667 61.4631363826626  0.565463441968433 63.2086352979156  0.86652991384571 63.9076337193554  C 1.25922531194649 64.8263173589623  1.95625964357549 65.2497106885203  2.48967089266242 66.5438563373576  C 3.85101493941184 69.8311460564724  3.00344737184423 69.7752261827573  5.77194992845489 72.7070252761112  C 6.16464532655564 73.1264243289752  6.85186227323211 73.8413998571909  7.34273152085817 74.0211423084183  C 7.91213984810426 74.2288446965034  8.71062049090924 73.9013140076001  9.3062085113622 73.8054513669455  C 11.2107811921511 73.5018863382058  11.3645868897405 73.8493884105788  13.4295101914206 72.7789222566022  C 14.3883414551168 76.3577941743748  13.8156606662197 75.6667843063227  16.1751055164754 78.5306806958796  C 17.0684875471547 79.613129679938  17.2419280146493 80.1164085433748  18.5312779050802 80.0245401794141  C 20.1773261154528 79.9087061552897  19.7519061008436 81.0630521198393  21.869188788937 81.9657586526703  C 21.869188788937 81.9657586526703  25.4034473718442 83.1959958744045  25.4034473718442 83.1959958744045  C 25.4034473718442 83.1959958744045  29.5267490519027 85.1491971777426  29.5267490519027 85.1491971777426  C 29.5267490519027 85.1491971777426  31.4902260424068 85.3049739688063  31.4902260424068 85.3049739688063  C 32.7173991614717 85.6125332742399  33.6075087305002 87.1902725683472  35.2175598627135 87.4578891068413  C 36.6672603740357 87.6975457084779  38.4998388985061 85.7723043419975  39.5372092418223 86.1277949677584  C 41.0229068313037 86.6310738311952  41.7853903959495 89.1834166386246  42.7114970431371 90.4855508408498  C 43.6114239971181 91.7517365528298  44.1906497093169 90.8809842335502  44.9596781972643 91.4801257376416  C 45.2967417473008 91.7437479994418  45.4930894463512 92.2550154162665  45.6698023754966 92.6744144691304  C 46.5860916377317 94.8193410537776  46.4093787085865 95.1388831892932  46.4093787085865 97.4675465018617  C 46.4093787085865 97.4675465018617  51.9071142819977 99.3847993149542  51.9071142819977 99.3847993149542  C 51.9071142819977 99.3847993149542  52.1034619810481 96.7485766969519  52.1034619810481 96.7485766969519  C 55.3170193221729 97.8949341081135  54.6232574521948 99.2210339705024  57.5324758597916 99.8641125182273  C 57.8760843331299 98.0347337924015  58.0691595705294 97.4955064387194  59.2996051512453 96.3171948140061  C 59.7381150124579 95.9017900378362  60.1209930256062 95.5303223052994  60.6740390445981 95.3465855773782  C 61.0078301329837 95.2906657036629  61.6852296947077 95.3106370871326  62.0484729379509 95.3465855773782  C 62.1008323243643 93.9246230743346  62.7487797312306 90.5254936077894  63.8581442308654 89.9383349337797  C 64.254112090617 89.7306325456948  65.66781552378 89.7945409727978  66.1717746180093 89.7945409727978  C 65.4583779781262 88.7999660760061  64.1395759328377 87.7175170919477  63.7926949978486 86.6790051515226  C 63.2298315939042 85.0014089400667  63.9792253119466 84.3583303923418  64.6795321052263 83.0841561269742  C 64.6795321052263 83.0841561269742  66.7608177151605 78.5306806958796  66.7608177151605 78.5306806958796  C 66.4466613966799 78.3070012010187  65.890342916037 77.9395277451761  65.6612706004782 77.6599283766001  C 64.3424685551898 76.2299773201686  64.6893494901788 74.2568046333609  65.6612706004782 72.7988936400719  C 65.9688819956573 72.3834888639019  66.5350178612526 71.7364160394831  66.9571654142109 71.5686564183376  C 67.7981880584768 71.2331371760463  68.3708688473739 72.3555289270442  69.1169901037653 72.6271397422323  C 69.9940098261905 72.9506761544417  70.4521544573082 72.1358437088773  71.865857890471 72.9746418146054  C 72.5334400672423 73.3740694839996  74.0453173499305 74.7001693463886  74.421650439777 75.4550876415436  C 74.768531374766 76.1620746163716  74.7161719883527 77.0408154890389  74.9027023024505 77.8117108909699  C 74.9027023024505 77.8117108909699  76.120058036563 80.6875901106086  76.120058036563 80.6875901106086  C 76.3785825069795 81.3546343184971  76.7810952900327 82.7206769478254  77.1279762250218 83.2319443646501  C 77.487947006614 83.7631831649445  78.2373407246565 84.1626108343387  78.7347548955841 84.5380728435693  C 79.7394006223921 85.2929911387244  81.8010514624213 87.5257918106384  82.8580565756426 87.4578891068413  C 83.401285209682 87.4259348932898  83.9412413820707 87.1982611217352  84.3732063199815 86.7988334523409  C 84.7495394098282 86.4513313799679  85.0636957283089 85.8282242157127  85.6101968239991 86.0079666669403  C 86.5657556260444 86.3235145257617  87.2038856479582 88.2327787854662  87.8845576713329 88.9317772069063  C 88.3819718422606 89.4470389004248  89.3015335661466 89.3152277695247  89.9265737414571 89.3152277695247  C 89.9265737414571 89.3152277695247  89.7302260424067 92.6744144691304  89.7302260424067 92.6744144691304  C 91.3140974814133 92.6664259157425  91.5693494901788 92.6065117653334  92.0863984310114 90.273854176071  C 93.0550470796602 90.5894020348924  95.1101529963877 91.172566432208  95.8202771746199 89.9623005939434  C 96.6351201256791 88.5643037510635  95.6599265537288 86.714953641768  95.6730164003322 86.02793805041  C 95.6959236318881 84.5260900134874  97.4434181534367 83.4356524760412  98.5626000380239 83.6593319709019  C 98.9978374375857 83.7472060581686  99.6654196143569 84.274450581769  100.133381630427 84.5220957367936  C 100.153016400332 83.4875780730624  100.251190249857 82.3971405356161  100.506442258623 81.4065599155182  C 100.712607342626 80.6116988534237  101.15766212714 79.828820621411  100.781329037293 79.0139881758466  C 99.9664860862343 77.2445236004301  98.8702114332029 78.35892679804  97.7772092418224 77.596019949497  C 96.4125927334221 76.6453820963386  94.4982026676805 74.1449648859304  93.9876986501496 72.2996090533291  C 93.7880784894483 71.5726506950315  93.6702698700181 69.9749400174545  93.6571800234147 69.1800789553599  C 95.5650251658545 69.1800789553599  96.3896855018662 69.4157412803024  98.1699046399231 70.350402026685  C 99.5770631497843 71.0853489383705  100.859868116914 72.23969490292  102.489554019032 71.744404592871  C 103.006602959865 71.5846335251133  103.284762200186 71.2730799429858  103.667640213334 70.8456923367339  C 104.021066071625 70.4502589440336  104.845726407637 69.4996210908752  104.953717642115 68.9404223537233  C 105.074798723196 68.3253037428561  104.655923631888 67.7141794086829  104.361402083312 67.2628261422673  C 103.330576663298 65.6930754015479  102.728443719543 65.1498537711717  101.115120125679 64.8662601259018  C 101.115120125679 64.8662601259018  102.954243573451 63.9515707629889  102.954243573451 63.9515707629889  C 103.487654822538 63.4043548559187  103.576011287111 62.3338887019421  104.472665779441 61.3632794653141  C 105.546033200917 60.2009449473768  106.452505078199 60.0371796029251  106.711029548616 57.9162186784416  C 106.776478781632 56.8936838447922  106.318334150515 56.0948285060037  106.711029548616 55.4317785748092  C 107.296800184116 54.5730090856115  109.724966729039 53.8979763243353  109.996581046059 52.8315044470525  C 110.107844742188 52.3761569039431  109.839502886819 51.2377880461694  109.754418883897 50.7265206293447  C 109.754418883897 50.7265206293447  111.717895874401 50.2472074260716  111.717895874401 50.2472074260716  C 111.269568628236 48.0223953075456  111.36447001611 47.4272480801482  111.547727868557 45.2903100488888  C 111.678626334591 43.7924562886604  110.89650800004 43.468919876451  110.363096750953 41.935117625977  C 109.698787035833 40.0418304730481  109.623520417863 38.1245776599557  109.381358255701 37.3816421948823  C 109.02793239741 36.2792218273542  108.291628525971 35.8438456677145  108.298173449273 34.9850761785167  C 108.298173449273 34.9850761785167  108.969028087695 32.8281667637878  108.969028087695 32.8281667637878  C 106.763388935029 31.5300268382564  107.250985721004 31.2584160230683  106.161255991275 30.0441559081097  C 106.161255991275 30.0441559081097  104.750825019762 28.841878623233  104.750825019762 28.841878623233  C 104.367947006614 28.3705539733477  104.099605151245 27.2481622223499  103.863987912385 26.5970951212372  C 103.863987912385 26.5970951212372  103.274944815234 28.5143479343296  103.274944815234 28.5143479343296  C 101.939780461691 27.4758359939046  101.812154457308 27.0564369410405  100.722424727578 25.9540165735124  C 100.722424727578 25.9540165735124  98.5626000380239 24.0727122506654  98.5626000380239 24.0727122506654  C 98.5626000380239 24.0727122506654  96.9918184456208 22.4670130197005  96.9918184456208 22.4670130197005  C 96.9918184456208 22.4670130197005  93.8927972622752 20.2142409643168  93.8927972622752 20.2142409643168  C 93.2546672403614 19.5551853098163  93.1990353922972 18.8322212282127  92.5969024485426 18.1811541271  C 91.5235350270671 17.0228138858567  91.34027717462 17.6658924335814  90.1229214405075 15.329240567625  C 90.1229214405075 15.329240567625  89.1411829452555 17.9654631856271  89.1411829452555 17.9654631856271  C 87.3118768824359 16.6793060901776  85.8654488327647 15.4251032082796  84.4910149394119 13.4119877545325  C 82.9987724266288 11.2271184029459  82.6944334931006 9.55351646818389  80.3055364879875 8.0077313876281  C 78.800204128601 7.03312787430605  78.738027357235 8.30730213967382  77.7530164003322 8.33126779983749  C 77.3570485405806 8.3392563532253  76.3425854288202 7.6322693783975  75.7895394098282 7.42057271361853  C 75.5833743258253 7.81201182962494  75.3902990884257 8.22342232910103  75.1088673864535 8.54296446461643  C 74.2874795120926 9.47762521099895  73.0832136245835 9.13411741531993  72.2585532885718 8.41115333371633  C 71.1884583287471 7.48048686402771  68.7112048590612 4.57664770753141  67.3498608123117 4.81231003247402  C 66.5415627845542 4.95210971676201  65.952519687403 6.04654153090229  65.7921690665119 6.94125951034542  C 65.7921690665119 6.94125951034542  64.7973407246565 15.0895839659884  64.7973407246565 15.0895839659884  C 62.3626292564316 14.2867343505059  62.6440609584037 13.4758961816356  61.0667344426989 12.1298249357769  C 60.1668074887179 11.358929533846  59.1032574521949 11.1991584660882  58.1215189569429 10.2325435061542  C 58.1215189569429 10.2325435061542  54.0080346618369 5.37150876962596  54.0080346618369 5.37150876962596  C 53.0230237049341 4.24512274193413  51.5831405785645 3.38635325273651  50.3363326895944 2.77123464186931  C 50.3363326895944 2.77123464186931  46.6057264076368 1.23743239139534  46.6057264076368 1.23743239139534  C 46.0526803886448 0.965821576207191  44.7371508050071 0.186937620888415  44.249554019032 0.158977684030816  C 43.5230675325454 0.115040640397467  42.8293056625674 0.754124911428278  41.8933816304271 0.710187867794929  C 40.9378228283819 0.666250824161551  39.8415481753505 -0.0487247040541945  38.7518184456207 0.0671093200701307  C 37.3839294755697 0.210903281052055  36.1305766632978 1.04970138678004  35.4139075617639 1.1695296875983  C 34.7855949248026 1.26938660494687  34.2685459839699 0.993781513064818  33.6500507319612 0.989787236370887  C 33.6500507319612 0.989787236370887  29.7230967509531 1.55298025021676  29.7230967509531 1.55298025021676  C 29.7230967509531 1.55298025021676  27.9559674594995 2.25996722504468  27.9559674594995 2.25996722504468  C 27.9559674594995 2.25996722504468  25.4034473718442 2.69534338468443  25.4034473718442 2.69534338468443  C 25.4034473718442 2.69534338468443  21.4764933908362 3.6459812378427  21.4764933908362 3.6459812378427  C 20.131511652341 3.95753481997028  19.3690280876953 4.5007564503465  17.942234807929 4.54069921728592  C 17.942234807929 4.54069921728592  14.9970193221729 4.26908840209779  14.9970193221729 4.26908840209779  Z " stroke-width="2.13294375456538" stroke="#ffffff" fill="none" transform="matrix(1 0 0 1 316 2186 )" mask="url(#clip23)" />
  </g>
</svg>