<?xml version="1.0" encoding="utf-8"?>
<svg version="1.1" xmlns:xlink="http://www.w3.org/1999/xlink" width="8px" height="6px" xmlns="http://www.w3.org/2000/svg">
  <defs>
    <mask fill="white" id="clip65">
      <path d="M 6.43745037634574 0.184747991234417  C 6.11472671261151 0.00131482834177632  5.14655572140884 0.189013878743538  4.74222377489122 0.184747991234417  C 4.74222377489122 0.184747991234417  5.85506399466442 3.72543462381293  5.85506399466442 3.72543462381293  C 3.87791787086724 3.41829072315556  3.3697208371708 2.96610664718764  2.36816463937492 0.995266617969264  C 1.77094038809662 1.30241051862674  0.947438625464429 1.69060628195757  0.595039222536172 2.36035062089115  C -0.0763743767268465 3.62731921110287  0.494883602756715 5.50857560262949  1.70046050751102 5.85837837837835  C 1.70046050751102 5.85837837837835  7.85817639025629 5.51710737764785  7.85817639025629 5.51710737764785  C 7.85817639025629 4.13069393718035  7.86188585765547 0.747845142439644  6.43745037634574 0.184747991234417  Z " fill-rule="evenodd" />
    </mask>
  </defs>
  <g transform="matrix(1 0 0 1 -530 -2397 )">
    <path d="M 6.43745037634574 0.184747991234417  C 6.11472671261151 0.00131482834177632  5.14655572140884 0.189013878743538  4.74222377489122 0.184747991234417  C 4.74222377489122 0.184747991234417  5.85506399466442 3.72543462381293  5.85506399466442 3.72543462381293  C 3.87791787086724 3.41829072315556  3.3697208371708 2.96610664718764  2.36816463937492 0.995266617969264  C 1.77094038809662 1.30241051862674  0.947438625464429 1.69060628195757  0.595039222536172 2.36035062089115  C -0.0763743767268465 3.62731921110287  0.494883602756715 5.50857560262949  1.70046050751102 5.85837837837835  C 1.70046050751102 5.85837837837835  7.85817639025629 5.51710737764785  7.85817639025629 5.51710737764785  C 7.85817639025629 4.13069393718035  7.86188585765547 0.747845142439644  6.43745037634574 0.184747991234417  Z " fill-rule="nonzero" fill="#478eea" stroke="none" transform="matrix(1 0 0 1 530 2397 )" />
    <path d="M 6.43745037634574 0.184747991234417  C 6.11472671261151 0.00131482834177632  5.14655572140884 0.189013878743538  4.74222377489122 0.184747991234417  C 4.74222377489122 0.184747991234417  5.85506399466442 3.72543462381293  5.85506399466442 3.72543462381293  C 3.87791787086724 3.41829072315556  3.3697208371708 2.96610664718764  2.36816463937492 0.995266617969264  C 1.77094038809662 1.30241051862674  0.947438625464429 1.69060628195757  0.595039222536172 2.36035062089115  C -0.0763743767268465 3.62731921110287  0.494883602756715 5.50857560262949  1.70046050751102 5.85837837837835  C 1.70046050751102 5.85837837837835  7.85817639025629 5.51710737764785  7.85817639025629 5.51710737764785  C 7.85817639025629 4.13069393718035  7.86188585765547 0.747845142439644  6.43745037634574 0.184747991234417  Z " stroke-width="2.13294375456538" stroke="#ffffff" fill="none" transform="matrix(1 0 0 1 530 2397 )" mask="url(#clip65)" />
  </g>
</svg>