<?xml version="1.0" encoding="utf-8"?>
<svg version="1.1" xmlns:xlink="http://www.w3.org/1999/xlink" width="101px" height="112px" xmlns="http://www.w3.org/2000/svg">
  <defs>
    <mask fill="white" id="clip41">
      <path d="M 9.63579658252189 1.86136205344251  C 6.90000179254037 3.07168362580053  3.25227540589839 3.63120933630047  0.916276714452636 5.3613739446549  C 1.38876301272251 6.47248883075407  1.87116161095611 6.62328299386753  2.20157160974594 7.50820663529652  C 3.31174920568048 10.5121850952146  1.39867531268618 12.4804457505903  0.123292717356719 14.6510880459341  C 0.903060314501147 15.0042638490156  1.79186321124632 15.2582329658382  2.48242010871746 15.8336317461396  C 3.30844510569267 16.5201420150509  3.45712960514817 17.4526848658841  4.65982200074376 17.238398423565  C 5.57505769739237 17.0756994581005  5.94511689603701 15.5439482222637  6.26561459486345 14.6510880459341  C 6.82400749281868 14.9209302325581  7.5443012901809 15.2304550936858  8.04982858832966 15.5995039665687  C 9.53336948289683 16.678872713065  8.9782806849297 16.8376034110792  10.825272578166 16.5558564221041  C 10.6633716787587 17.0201437137955  10.3792190797994 17.74236838976  10.326353479993 18.2225287512528  C 10.1644525805858 19.7026925102349  11.62156067525 22.7820680517098  12.1502166733139 24.1749299267841  C 12.5367963718983 25.1868381266244  12.8143407708819 26.4765250479895  13.6106288679659 27.1273209098476  C 14.2020627658001 27.6114495387908  15.0875615625574 27.5201793874327  15.7814225600163 27.5082745850816  C 17.8663096523816 27.4725601780284  17.9125670522122 26.36938182683  19.1516045476748 25.9249358723903  C 19.875202445025 25.6312840810641  20.2650862435972 26.0638252331527  21.1307604404271 25.9249358723903  C 22.0096510372086 25.8376339884825  23.9458536301182 24.8812815329471  24.6925802273837 24.3019144851954  C 25.9613546227374 23.3177841575076  26.7510345198456 21.0796813155078  27.8711244157437 20.8693631406391  C 28.330394314062 20.7820612567313  29.2654546106378 21.2265072111709  29.65533840921 21.5201590024972  C 30.0584386077339 21.8217473287241  33.2435909960698 25.1154093125181  33.567392794884 25.6035062089116  C 34.8692081901168 27.4130361662731  33.8019838940251 28.5678019943262  33.567392794884 29.6551072757232  C 33.3724508955979 30.6352693359607  33.8383289938919 31.2027315813614  33.567392794884 32.274163792957  C 33.567392794884 32.274163792957  32.1367175001232 36.3217965923183  32.1367175001232 36.3217965923183  C 31.806307501333 37.0797356753359  31.2875638032329 37.8376747583536  31.2082654035232 38.7027570625308  C 31.0232358042009 40.7821292065164  32.5232971987075 46.2146873460513  32.6125078983808 47.7504068493383  C 32.7182390979937 49.6472386906076  32.3647003992882 50.8099410535614  30.6465684055801 50.6075594135934  C 30.6465684055801 50.6075594135934  30.051830407758 56.9607556016104  30.051830407758 56.9607556016104  C 30.051830407758 56.9607556016104  30.051830407758 64.5798291062904  30.051830407758 64.5798291062904  C 28.528640313336 62.6631559277694  28.5385526132996 62.6909337999219  27.8711244157437 60.2941002599079  C 26.0010038225923 61.4647391577624  25.4690437245403 63.4290315456877  24.4480768282791 65.5322132943755  C 23.456846831909 67.5679344964072  22.9744482336755 67.3060288446838  22.3202364360713 68.429048533134  C 21.801492737971 69.3219087094637  21.930352637499 69.9211170944672  20.9159939412136 71.2465184228855  C 19.5414883462471 73.0322387755449  18.0645556516556 73.3258905668711  17.8663096523816 76.0124076307609  C 17.6680636531075 78.7187660319024  18.8079781489332 78.7743217762074  20.142834544045 80.3060730120441  C 21.1076317405118 81.4171878981433  21.2794449398827 81.8140146431787  21.9237444375232 83.1552890413984  C 23.6253559312919 82.770367098714  23.7971691306627 82.7227478893098  24.5009424280855 80.7743285711859  C 24.5009424280855 80.7743285711859  26.0869104222776 81.2505206652284  26.0869104222776 81.2505206652284  C 25.7763250234151 82.8338593779197  25.4624355245643 83.4171946931218  24.4976383280976 84.5798970560756  C 24.1341873294285 85.0243430105152  23.1693901329618 85.9251397217457  23.09339583324 86.5084750369477  C 23.0041851335666 87.194985305859  24.1606201293318 88.9251499142134  24.5009424280855 89.5838823109722  C 24.5009424280855 89.5838823109722  29.65533840921 87.6791139348022  29.65533840921 87.6791139348022  C 29.65533840921 87.6791139348022  30.8877677046968 90.2981704520359  30.8877677046968 90.2981704520359  C 31.3569499029787 91.5918256408514  31.6675353018414 93.7584996687448  32.4836479988527 94.7346934615319  C 32.8008415976911 95.1116788693156  33.4286205953923 95.5481882888545  33.8185043939645 95.8577131499822  C 34.7502605905524 96.6077156980991  35.592806087467 97.6116873630387  36.7822820831111 96.8934309545246  C 37.4265815807516 96.5005724769395  37.8065530793603 95.766442998624  38.179916377993 95.060091392461  C 38.54667147665 95.4966008119999  39.1116725745808 96.2227937554147  39.5676383729112 96.4807311396878  C 41.1007407672969 97.3577182462161  41.7318238649858 95.1751711485212  44.1239922562257 94.5838992984185  C 44.2429398557901 95.1989807532234  44.4345776550883 96.1116822668048  44.7649876538784 96.6077156980991  C 45.4026789515431 97.5720046885352  47.56356034363 97.8378786077089  48.4854042402541 97.4370835952231  C 49.4138563368542 97.032320315287  50.0548517345068 96.2545398950176  51.1947662303326 96.0958091970034  C 51.5978664288563 96.0402534526984  51.9943584274042 96.1037457319041  52.3842422259766 96.2386668252162  C 55.0704755161396 97.1513683387976  54.7698024172404 100.286299624577  55.7511201136471 101.615669220446  C 56.6068820105131 102.766466781049  58.5629092033503 101.710907639255  59.4384957001437 102.587894745783  C 60.158789497506 103.310119421747  60.2380878972157 105.322031019077  61.5101663925574 106.6950515569  C 61.6951959918796 106.893464929417  61.8736173912264 107.068068697233  62.0949920904158 107.202989790545  C 64.368212882091 108.568073793467  64.6424531810869 104.087899842017  64.672190080978 102.44503711757  C 65.3627469784491 102.480751524623  66.2218129753032 102.512497664226  66.6843869736092 103.23075407274  C 67.1667855718428 103.980756620857  66.8925452728471 104.889489866988  67.5500611704392 106.016477822889  C 67.5500611704392 106.016477822889  69.9389254616912 109.349822481186  69.9389254616912 109.349822481186  C 70.6658274590294 110.568080588445  71.1911793571055 112.460944162264  72.7441063514186 111.52046477653  C 73.3421484492285 111.163320705998  73.4016222490107 110.278397064569  73.6725584480184 109.587918528208  C 74.0294012467118 108.675217014626  74.5283203448847 107.746642431243  75.1858362424769 107.111719639187  C 76.4777393377458 105.861715392325  77.141863435314 105.822032717822  77.9546720323373 103.873613399698  C 77.9546720323373 103.873613399698  79.5406400265296 105.302189681825  79.5406400265296 105.302189681825  C 79.5406400265296 105.302189681825  79.9371320250777 104.111709446719  79.9371320250777 104.111709446719  C 79.9371320250777 104.111709446719  83.8987479105701 106.81013131296  83.8987479105701 106.81013131296  C 83.8987479105701 106.81013131296  85.8812079033103 108.072040362172  85.8812079033103 108.072040362172  C 85.8812079033103 108.072040362172  89.0531438916947 107.445054105016  89.0531438916947 107.445054105016  C 89.0531438916947 107.445054105016  87.8207145962079 103.397421305655  87.8207145962079 103.397421305655  C 87.8207145962079 103.397421305655  87.5398660972363 100.5402687414  87.5398660972363 100.5402687414  C 87.5398660972363 100.5402687414  86.2281384020399 97.2069240831026  86.2281384020399 97.2069240831026  C 85.6796578040484 95.8854910221347  85.3789847051493 95.127551939117  84.6917319076662 93.8696111573547  C 84.43401210861 93.4013555982129  83.9516135103764 92.6791309222484  83.9648299103281 92.1037321419471  C 84.004479110183 90.2069003006778  85.6466168041695 89.7267399391849  86.4957705010599 88.5838789134829  C 87.582819397079 87.1156199568519  87.5464742972121 85.7862503609832  88.313025494405 84.9727555336606  C 89.0531438916947 84.1910068459408  89.9089057885608 84.1116414969338  90.8373578851609 84.1076732294834  C 90.8373578851609 84.1076732294834  96.9995043625949 84.1076732294834  96.9995043625949 84.1076732294834  C 96.9433346628007 82.008459748246  96.5897959640953 81.4092513632426  96.9995043625949 79.1076562420371  C 97.2506159616754 77.8576519951755  97.7726637597638 77.6711434250089  98.0535122587354 76.7266957718246  C 98.288103357876 75.9409788166545  98.5623436568719 72.2227122156726  98.5689518568477 71.2465184228855  C 98.5854723567873 68.2465082304177  99.3916727538349 69.8020690709565  99.3619358539437 66.2465014354392  C 99.3619358539437 66.2465014354392  98.5755600568235 60.0560042128867  98.5755600568235 60.0560042128867  C 98.522694457017 58.0520291504578  99.256204654331 57.6631389403231  99.1736021546335 56.7226595545892  C 99.1009119548996 55.8932916574651  98.3277525577308 54.9607488066319  98.4830452571622 54.1155078397065  C 98.6912035564 52.9845516163555  99.5370531533024 52.4924864525116  100.009539451572 51.7226425671429  C 100.323428950423 51.2107360660472  100.614189749358 49.6115242835545  100.713312748995 48.9408870844446  C 101.040418647797 46.7623082542002  99.355327653968 45.3813511814769  98.8762331557224 43.7027740499771  C 98.4136591574162 42.0837209302326  99.3321989540527 40.2821275077718  99.9566738517657 38.940853109552  C 99.9566738517657 38.940853109552  97.7759678597517 40.1868890889632  97.7759678597517 40.1868890889632  C 96.5798836641317 40.7741926716157  95.8827185666847 40.7860974739667  94.8022778706413 41.8773710228141  C 93.7053166746584 42.9884859089133  93.289000076183 44.3257920396827  92.0268338808049 45.5440501469414  C 90.8109250852576 46.7146890447959  89.8296073888512 46.2821478927073  88.9573249920456 47.3416753019519  C 88.9573249920456 47.3416753019519  87.9594867956995 48.9329505495439  87.9594867956995 48.9329505495439  C 87.9594867956995 48.9329505495439  86.5519402008541 50.6313690182955  86.5519402008541 50.6313690182955  C 84.8338082071459 53.0321708257598  85.891120203274 52.7028046273804  83.1057639134741 54.1512222467596  C 81.9361125177574 54.7583671666638  81.6783927187011 55.0917016324936  80.3336240236258 55.4170995634226  C 80.3336240236258 55.4170995634226  77.9546720323373 55.7782119014049  77.9546720323373 55.7782119014049  C 77.1782085351806 56.0798002276318  76.5702541374071 57.3298044744933  75.7904865402627 56.7940883686955  C 74.8686426436385 56.1591655766389  73.2595459495309 53.1155044422172  72.9555687506441 51.7980396486996  C 72.7077612515516 50.7226391696536  72.9027031508377 50.1512086568026  72.5987259519509 49.4170791784871  C 72.1923216534391 48.4448536531503  70.8805939582427 47.3138974297994  70.3387215602271 46.3218305672108  C 69.9157967617757 45.5480184143918  69.8596270619815 44.5996024937571  69.8265860621025 43.7027740499771  C 69.142637364607 43.7702345966331  68.220793467983 44.0638863879593  67.589710370294 43.8972191550444  C 65.8220168767672 43.4249953284523  65.1545886792114 42.2662612329488  63.8792060838819 41.3178453123142  C 63.8792060838819 41.3178453123142  61.5035581925816 39.9765709140945  61.5035581925816 39.9765709140945  C 60.0695787978328 39.309901982435  59.9010696984497 40.4289534034349  58.5298682034713 40.2543496356193  C 56.9339879093154 40.0519679956512  56.5242795108156 38.9091069699492  55.5561782143608 38.8138685511407  C 54.4922580182571 38.7067253299811  53.329214822516 39.7543479368747  52.3842422259766 40.1710160191618  C 51.1716375304172 40.7027638575093  49.0999668380036 40.4170486010838  48.1483860414883 39.3376798545875  C 46.3046982482399 37.2543394431515  46.6053713471388 36.329733127219  45.7463053502848 33.9487726570065  C 45.2374739521482 32.53210117723  44.7517712539268 32.6828953403435  44.3255423554878 31.7741620942124  C 44.014956956625 31.1114614300032  44.0645184564435 30.0519340207587  43.6977633577865 29.1749469142304  C 42.8882588607509 27.2265275961065  40.6844241688214 25.551918732057  39.4519948733347 22.9844496916778  C 38.1964368779325 20.3733297093448  37.8891555790577 18.2622114257564  37.5290086803766 17.5320502148912  C 36.9673116824335 16.3931574566395  36.0388595858335 16.5042689452495  35.3185657884712 14.8891840929553  C 34.7899097904073 13.7066403927498  35.1203197891972 12.7661610070158  34.3504644920164 11.5558394346578  C 33.963884793432 10.9447262473032  32.5596422985745 9.30186352285661  32.0342904004983 8.84551276606588  C 31.6708394018292 8.53598790493825  31.0298440041766 8.18281210185672  30.7622119051567 7.83360456622556  C 30.2467723070442 7.15503083221499  30.4615388062577 6.24232931863353  29.9361869081815 5.48835850306623  C 29.6784671091253 5.11137309528258  29.0143430115574 4.61137139653796  28.6641084128399 4.30978307031104  C 28.1387565147638 3.85740058097066  27.236737218067 2.96850867209132  26.6816484200997 2.70660302036795  C 26.6816484200997 2.70660302036795  23.7079584309894 2.02802928635738  23.7079584309894 2.02802928635738  C 23.4667591318727 2.48438004314811  23.0339220334577 3.39311328927922  22.5845644351033 3.56374878964445  C 22.2376339363738 3.69866988295649  20.7772217417219 3.00025481169416  20.341080543319 2.84549238113034  C 20.341080543319 2.84549238113034  14.1954545658243 0.34945215485756  14.1954545658243 0.34945215485756  C 13.6998395676393 0.270086805850477  13.471856668474 0.381198294460394  13.0059785701802 0.480404980719247  C 10.4849502794121 1.02802588886813  11.647993475153 0.972470144563166  9.63579658252189 1.86136205344251  Z " fill-rule="evenodd" />
    </mask>
  </defs>
  <g transform="matrix(1 0 0 1 -549 -2000 )">
    <path d="M 9.63579658252189 1.86136205344251  C 6.90000179254037 3.07168362580053  3.25227540589839 3.63120933630047  0.916276714452636 5.3613739446549  C 1.38876301272251 6.47248883075407  1.87116161095611 6.62328299386753  2.20157160974594 7.50820663529652  C 3.31174920568048 10.5121850952146  1.39867531268618 12.4804457505903  0.123292717356719 14.6510880459341  C 0.903060314501147 15.0042638490156  1.79186321124632 15.2582329658382  2.48242010871746 15.8336317461396  C 3.30844510569267 16.5201420150509  3.45712960514817 17.4526848658841  4.65982200074376 17.238398423565  C 5.57505769739237 17.0756994581005  5.94511689603701 15.5439482222637  6.26561459486345 14.6510880459341  C 6.82400749281868 14.9209302325581  7.5443012901809 15.2304550936858  8.04982858832966 15.5995039665687  C 9.53336948289683 16.678872713065  8.9782806849297 16.8376034110792  10.825272578166 16.5558564221041  C 10.6633716787587 17.0201437137955  10.3792190797994 17.74236838976  10.326353479993 18.2225287512528  C 10.1644525805858 19.7026925102349  11.62156067525 22.7820680517098  12.1502166733139 24.1749299267841  C 12.5367963718983 25.1868381266244  12.8143407708819 26.4765250479895  13.6106288679659 27.1273209098476  C 14.2020627658001 27.6114495387908  15.0875615625574 27.5201793874327  15.7814225600163 27.5082745850816  C 17.8663096523816 27.4725601780284  17.9125670522122 26.36938182683  19.1516045476748 25.9249358723903  C 19.875202445025 25.6312840810641  20.2650862435972 26.0638252331527  21.1307604404271 25.9249358723903  C 22.0096510372086 25.8376339884825  23.9458536301182 24.8812815329471  24.6925802273837 24.3019144851954  C 25.9613546227374 23.3177841575076  26.7510345198456 21.0796813155078  27.8711244157437 20.8693631406391  C 28.330394314062 20.7820612567313  29.2654546106378 21.2265072111709  29.65533840921 21.5201590024972  C 30.0584386077339 21.8217473287241  33.2435909960698 25.1154093125181  33.567392794884 25.6035062089116  C 34.8692081901168 27.4130361662731  33.8019838940251 28.5678019943262  33.567392794884 29.6551072757232  C 33.3724508955979 30.6352693359607  33.8383289938919 31.2027315813614  33.567392794884 32.274163792957  C 33.567392794884 32.274163792957  32.1367175001232 36.3217965923183  32.1367175001232 36.3217965923183  C 31.806307501333 37.0797356753359  31.2875638032329 37.8376747583536  31.2082654035232 38.7027570625308  C 31.0232358042009 40.7821292065164  32.5232971987075 46.2146873460513  32.6125078983808 47.7504068493383  C 32.7182390979937 49.6472386906076  32.3647003992882 50.8099410535614  30.6465684055801 50.6075594135934  C 30.6465684055801 50.6075594135934  30.051830407758 56.9607556016104  30.051830407758 56.9607556016104  C 30.051830407758 56.9607556016104  30.051830407758 64.5798291062904  30.051830407758 64.5798291062904  C 28.528640313336 62.6631559277694  28.5385526132996 62.6909337999219  27.8711244157437 60.2941002599079  C 26.0010038225923 61.4647391577624  25.4690437245403 63.4290315456877  24.4480768282791 65.5322132943755  C 23.456846831909 67.5679344964072  22.9744482336755 67.3060288446838  22.3202364360713 68.429048533134  C 21.801492737971 69.3219087094637  21.930352637499 69.9211170944672  20.9159939412136 71.2465184228855  C 19.5414883462471 73.0322387755449  18.0645556516556 73.3258905668711  17.8663096523816 76.0124076307609  C 17.6680636531075 78.7187660319024  18.8079781489332 78.7743217762074  20.142834544045 80.3060730120441  C 21.1076317405118 81.4171878981433  21.2794449398827 81.8140146431787  21.9237444375232 83.1552890413984  C 23.6253559312919 82.770367098714  23.7971691306627 82.7227478893098  24.5009424280855 80.7743285711859  C 24.5009424280855 80.7743285711859  26.0869104222776 81.2505206652284  26.0869104222776 81.2505206652284  C 25.7763250234151 82.8338593779197  25.4624355245643 83.4171946931218  24.4976383280976 84.5798970560756  C 24.1341873294285 85.0243430105152  23.1693901329618 85.9251397217457  23.09339583324 86.5084750369477  C 23.0041851335666 87.194985305859  24.1606201293318 88.9251499142134  24.5009424280855 89.5838823109722  C 24.5009424280855 89.5838823109722  29.65533840921 87.6791139348022  29.65533840921 87.6791139348022  C 29.65533840921 87.6791139348022  30.8877677046968 90.2981704520359  30.8877677046968 90.2981704520359  C 31.3569499029787 91.5918256408514  31.6675353018414 93.7584996687448  32.4836479988527 94.7346934615319  C 32.8008415976911 95.1116788693156  33.4286205953923 95.5481882888545  33.8185043939645 95.8577131499822  C 34.7502605905524 96.6077156980991  35.592806087467 97.6116873630387  36.7822820831111 96.8934309545246  C 37.4265815807516 96.5005724769395  37.8065530793603 95.766442998624  38.179916377993 95.060091392461  C 38.54667147665 95.4966008119999  39.1116725745808 96.2227937554147  39.5676383729112 96.4807311396878  C 41.1007407672969 97.3577182462161  41.7318238649858 95.1751711485212  44.1239922562257 94.5838992984185  C 44.2429398557901 95.1989807532234  44.4345776550883 96.1116822668048  44.7649876538784 96.6077156980991  C 45.4026789515431 97.5720046885352  47.56356034363 97.8378786077089  48.4854042402541 97.4370835952231  C 49.4138563368542 97.032320315287  50.0548517345068 96.2545398950176  51.1947662303326 96.0958091970034  C 51.5978664288563 96.0402534526984  51.9943584274042 96.1037457319041  52.3842422259766 96.2386668252162  C 55.0704755161396 97.1513683387976  54.7698024172404 100.286299624577  55.7511201136471 101.615669220446  C 56.6068820105131 102.766466781049  58.5629092033503 101.710907639255  59.4384957001437 102.587894745783  C 60.158789497506 103.310119421747  60.2380878972157 105.322031019077  61.5101663925574 106.6950515569  C 61.6951959918796 106.893464929417  61.8736173912264 107.068068697233  62.0949920904158 107.202989790545  C 64.368212882091 108.568073793467  64.6424531810869 104.087899842017  64.672190080978 102.44503711757  C 65.3627469784491 102.480751524623  66.2218129753032 102.512497664226  66.6843869736092 103.23075407274  C 67.1667855718428 103.980756620857  66.8925452728471 104.889489866988  67.5500611704392 106.016477822889  C 67.5500611704392 106.016477822889  69.9389254616912 109.349822481186  69.9389254616912 109.349822481186  C 70.6658274590294 110.568080588445  71.1911793571055 112.460944162264  72.7441063514186 111.52046477653  C 73.3421484492285 111.163320705998  73.4016222490107 110.278397064569  73.6725584480184 109.587918528208  C 74.0294012467118 108.675217014626  74.5283203448847 107.746642431243  75.1858362424769 107.111719639187  C 76.4777393377458 105.861715392325  77.141863435314 105.822032717822  77.9546720323373 103.873613399698  C 77.9546720323373 103.873613399698  79.5406400265296 105.302189681825  79.5406400265296 105.302189681825  C 79.5406400265296 105.302189681825  79.9371320250777 104.111709446719  79.9371320250777 104.111709446719  C 79.9371320250777 104.111709446719  83.8987479105701 106.81013131296  83.8987479105701 106.81013131296  C 83.8987479105701 106.81013131296  85.8812079033103 108.072040362172  85.8812079033103 108.072040362172  C 85.8812079033103 108.072040362172  89.0531438916947 107.445054105016  89.0531438916947 107.445054105016  C 89.0531438916947 107.445054105016  87.8207145962079 103.397421305655  87.8207145962079 103.397421305655  C 87.8207145962079 103.397421305655  87.5398660972363 100.5402687414  87.5398660972363 100.5402687414  C 87.5398660972363 100.5402687414  86.2281384020399 97.2069240831026  86.2281384020399 97.2069240831026  C 85.6796578040484 95.8854910221347  85.3789847051493 95.127551939117  84.6917319076662 93.8696111573547  C 84.43401210861 93.4013555982129  83.9516135103764 92.6791309222484  83.9648299103281 92.1037321419471  C 84.004479110183 90.2069003006778  85.6466168041695 89.7267399391849  86.4957705010599 88.5838789134829  C 87.582819397079 87.1156199568519  87.5464742972121 85.7862503609832  88.313025494405 84.9727555336606  C 89.0531438916947 84.1910068459408  89.9089057885608 84.1116414969338  90.8373578851609 84.1076732294834  C 90.8373578851609 84.1076732294834  96.9995043625949 84.1076732294834  96.9995043625949 84.1076732294834  C 96.9433346628007 82.008459748246  96.5897959640953 81.4092513632426  96.9995043625949 79.1076562420371  C 97.2506159616754 77.8576519951755  97.7726637597638 77.6711434250089  98.0535122587354 76.7266957718246  C 98.288103357876 75.9409788166545  98.5623436568719 72.2227122156726  98.5689518568477 71.2465184228855  C 98.5854723567873 68.2465082304177  99.3916727538349 69.8020690709565  99.3619358539437 66.2465014354392  C 99.3619358539437 66.2465014354392  98.5755600568235 60.0560042128867  98.5755600568235 60.0560042128867  C 98.522694457017 58.0520291504578  99.256204654331 57.6631389403231  99.1736021546335 56.7226595545892  C 99.1009119548996 55.8932916574651  98.3277525577308 54.9607488066319  98.4830452571622 54.1155078397065  C 98.6912035564 52.9845516163555  99.5370531533024 52.4924864525116  100.009539451572 51.7226425671429  C 100.323428950423 51.2107360660472  100.614189749358 49.6115242835545  100.713312748995 48.9408870844446  C 101.040418647797 46.7623082542002  99.355327653968 45.3813511814769  98.8762331557224 43.7027740499771  C 98.4136591574162 42.0837209302326  99.3321989540527 40.2821275077718  99.9566738517657 38.940853109552  C 99.9566738517657 38.940853109552  97.7759678597517 40.1868890889632  97.7759678597517 40.1868890889632  C 96.5798836641317 40.7741926716157  95.8827185666847 40.7860974739667  94.8022778706413 41.8773710228141  C 93.7053166746584 42.9884859089133  93.289000076183 44.3257920396827  92.0268338808049 45.5440501469414  C 90.8109250852576 46.7146890447959  89.8296073888512 46.2821478927073  88.9573249920456 47.3416753019519  C 88.9573249920456 47.3416753019519  87.9594867956995 48.9329505495439  87.9594867956995 48.9329505495439  C 87.9594867956995 48.9329505495439  86.5519402008541 50.6313690182955  86.5519402008541 50.6313690182955  C 84.8338082071459 53.0321708257598  85.891120203274 52.7028046273804  83.1057639134741 54.1512222467596  C 81.9361125177574 54.7583671666638  81.6783927187011 55.0917016324936  80.3336240236258 55.4170995634226  C 80.3336240236258 55.4170995634226  77.9546720323373 55.7782119014049  77.9546720323373 55.7782119014049  C 77.1782085351806 56.0798002276318  76.5702541374071 57.3298044744933  75.7904865402627 56.7940883686955  C 74.8686426436385 56.1591655766389  73.2595459495309 53.1155044422172  72.9555687506441 51.7980396486996  C 72.7077612515516 50.7226391696536  72.9027031508377 50.1512086568026  72.5987259519509 49.4170791784871  C 72.1923216534391 48.4448536531503  70.8805939582427 47.3138974297994  70.3387215602271 46.3218305672108  C 69.9157967617757 45.5480184143918  69.8596270619815 44.5996024937571  69.8265860621025 43.7027740499771  C 69.142637364607 43.7702345966331  68.220793467983 44.0638863879593  67.589710370294 43.8972191550444  C 65.8220168767672 43.4249953284523  65.1545886792114 42.2662612329488  63.8792060838819 41.3178453123142  C 63.8792060838819 41.3178453123142  61.5035581925816 39.9765709140945  61.5035581925816 39.9765709140945  C 60.0695787978328 39.309901982435  59.9010696984497 40.4289534034349  58.5298682034713 40.2543496356193  C 56.9339879093154 40.0519679956512  56.5242795108156 38.9091069699492  55.5561782143608 38.8138685511407  C 54.4922580182571 38.7067253299811  53.329214822516 39.7543479368747  52.3842422259766 40.1710160191618  C 51.1716375304172 40.7027638575093  49.0999668380036 40.4170486010838  48.1483860414883 39.3376798545875  C 46.3046982482399 37.2543394431515  46.6053713471388 36.329733127219  45.7463053502848 33.9487726570065  C 45.2374739521482 32.53210117723  44.7517712539268 32.6828953403435  44.3255423554878 31.7741620942124  C 44.014956956625 31.1114614300032  44.0645184564435 30.0519340207587  43.6977633577865 29.1749469142304  C 42.8882588607509 27.2265275961065  40.6844241688214 25.551918732057  39.4519948733347 22.9844496916778  C 38.1964368779325 20.3733297093448  37.8891555790577 18.2622114257564  37.5290086803766 17.5320502148912  C 36.9673116824335 16.3931574566395  36.0388595858335 16.5042689452495  35.3185657884712 14.8891840929553  C 34.7899097904073 13.7066403927498  35.1203197891972 12.7661610070158  34.3504644920164 11.5558394346578  C 33.963884793432 10.9447262473032  32.5596422985745 9.30186352285661  32.0342904004983 8.84551276606588  C 31.6708394018292 8.53598790493825  31.0298440041766 8.18281210185672  30.7622119051567 7.83360456622556  C 30.2467723070442 7.15503083221499  30.4615388062577 6.24232931863353  29.9361869081815 5.48835850306623  C 29.6784671091253 5.11137309528258  29.0143430115574 4.61137139653796  28.6641084128399 4.30978307031104  C 28.1387565147638 3.85740058097066  27.236737218067 2.96850867209132  26.6816484200997 2.70660302036795  C 26.6816484200997 2.70660302036795  23.7079584309894 2.02802928635738  23.7079584309894 2.02802928635738  C 23.4667591318727 2.48438004314811  23.0339220334577 3.39311328927922  22.5845644351033 3.56374878964445  C 22.2376339363738 3.69866988295649  20.7772217417219 3.00025481169416  20.341080543319 2.84549238113034  C 20.341080543319 2.84549238113034  14.1954545658243 0.34945215485756  14.1954545658243 0.34945215485756  C 13.6998395676393 0.270086805850477  13.471856668474 0.381198294460394  13.0059785701802 0.480404980719247  C 10.4849502794121 1.02802588886813  11.647993475153 0.972470144563166  9.63579658252189 1.86136205344251  Z " fill-rule="nonzero" fill="#52b0fa" stroke="none" transform="matrix(1 0 0 1 549 2000 )" />
    <path d="M 9.63579658252189 1.86136205344251  C 6.90000179254037 3.07168362580053  3.25227540589839 3.63120933630047  0.916276714452636 5.3613739446549  C 1.38876301272251 6.47248883075407  1.87116161095611 6.62328299386753  2.20157160974594 7.50820663529652  C 3.31174920568048 10.5121850952146  1.39867531268618 12.4804457505903  0.123292717356719 14.6510880459341  C 0.903060314501147 15.0042638490156  1.79186321124632 15.2582329658382  2.48242010871746 15.8336317461396  C 3.30844510569267 16.5201420150509  3.45712960514817 17.4526848658841  4.65982200074376 17.238398423565  C 5.57505769739237 17.0756994581005  5.94511689603701 15.5439482222637  6.26561459486345 14.6510880459341  C 6.82400749281868 14.9209302325581  7.5443012901809 15.2304550936858  8.04982858832966 15.5995039665687  C 9.53336948289683 16.678872713065  8.9782806849297 16.8376034110792  10.825272578166 16.5558564221041  C 10.6633716787587 17.0201437137955  10.3792190797994 17.74236838976  10.326353479993 18.2225287512528  C 10.1644525805858 19.7026925102349  11.62156067525 22.7820680517098  12.1502166733139 24.1749299267841  C 12.5367963718983 25.1868381266244  12.8143407708819 26.4765250479895  13.6106288679659 27.1273209098476  C 14.2020627658001 27.6114495387908  15.0875615625574 27.5201793874327  15.7814225600163 27.5082745850816  C 17.8663096523816 27.4725601780284  17.9125670522122 26.36938182683  19.1516045476748 25.9249358723903  C 19.875202445025 25.6312840810641  20.2650862435972 26.0638252331527  21.1307604404271 25.9249358723903  C 22.0096510372086 25.8376339884825  23.9458536301182 24.8812815329471  24.6925802273837 24.3019144851954  C 25.9613546227374 23.3177841575076  26.7510345198456 21.0796813155078  27.8711244157437 20.8693631406391  C 28.330394314062 20.7820612567313  29.2654546106378 21.2265072111709  29.65533840921 21.5201590024972  C 30.0584386077339 21.8217473287241  33.2435909960698 25.1154093125181  33.567392794884 25.6035062089116  C 34.8692081901168 27.4130361662731  33.8019838940251 28.5678019943262  33.567392794884 29.6551072757232  C 33.3724508955979 30.6352693359607  33.8383289938919 31.2027315813614  33.567392794884 32.274163792957  C 33.567392794884 32.274163792957  32.1367175001232 36.3217965923183  32.1367175001232 36.3217965923183  C 31.806307501333 37.0797356753359  31.2875638032329 37.8376747583536  31.2082654035232 38.7027570625308  C 31.0232358042009 40.7821292065164  32.5232971987075 46.2146873460513  32.6125078983808 47.7504068493383  C 32.7182390979937 49.6472386906076  32.3647003992882 50.8099410535614  30.6465684055801 50.6075594135934  C 30.6465684055801 50.6075594135934  30.051830407758 56.9607556016104  30.051830407758 56.9607556016104  C 30.051830407758 56.9607556016104  30.051830407758 64.5798291062904  30.051830407758 64.5798291062904  C 28.528640313336 62.6631559277694  28.5385526132996 62.6909337999219  27.8711244157437 60.2941002599079  C 26.0010038225923 61.4647391577624  25.4690437245403 63.4290315456877  24.4480768282791 65.5322132943755  C 23.456846831909 67.5679344964072  22.9744482336755 67.3060288446838  22.3202364360713 68.429048533134  C 21.801492737971 69.3219087094637  21.930352637499 69.9211170944672  20.9159939412136 71.2465184228855  C 19.5414883462471 73.0322387755449  18.0645556516556 73.3258905668711  17.8663096523816 76.0124076307609  C 17.6680636531075 78.7187660319024  18.8079781489332 78.7743217762074  20.142834544045 80.3060730120441  C 21.1076317405118 81.4171878981433  21.2794449398827 81.8140146431787  21.9237444375232 83.1552890413984  C 23.6253559312919 82.770367098714  23.7971691306627 82.7227478893098  24.5009424280855 80.7743285711859  C 24.5009424280855 80.7743285711859  26.0869104222776 81.2505206652284  26.0869104222776 81.2505206652284  C 25.7763250234151 82.8338593779197  25.4624355245643 83.4171946931218  24.4976383280976 84.5798970560756  C 24.1341873294285 85.0243430105152  23.1693901329618 85.9251397217457  23.09339583324 86.5084750369477  C 23.0041851335666 87.194985305859  24.1606201293318 88.9251499142134  24.5009424280855 89.5838823109722  C 24.5009424280855 89.5838823109722  29.65533840921 87.6791139348022  29.65533840921 87.6791139348022  C 29.65533840921 87.6791139348022  30.8877677046968 90.2981704520359  30.8877677046968 90.2981704520359  C 31.3569499029787 91.5918256408514  31.6675353018414 93.7584996687448  32.4836479988527 94.7346934615319  C 32.8008415976911 95.1116788693156  33.4286205953923 95.5481882888545  33.8185043939645 95.8577131499822  C 34.7502605905524 96.6077156980991  35.592806087467 97.6116873630387  36.7822820831111 96.8934309545246  C 37.4265815807516 96.5005724769395  37.8065530793603 95.766442998624  38.179916377993 95.060091392461  C 38.54667147665 95.4966008119999  39.1116725745808 96.2227937554147  39.5676383729112 96.4807311396878  C 41.1007407672969 97.3577182462161  41.7318238649858 95.1751711485212  44.1239922562257 94.5838992984185  C 44.2429398557901 95.1989807532234  44.4345776550883 96.1116822668048  44.7649876538784 96.6077156980991  C 45.4026789515431 97.5720046885352  47.56356034363 97.8378786077089  48.4854042402541 97.4370835952231  C 49.4138563368542 97.032320315287  50.0548517345068 96.2545398950176  51.1947662303326 96.0958091970034  C 51.5978664288563 96.0402534526984  51.9943584274042 96.1037457319041  52.3842422259766 96.2386668252162  C 55.0704755161396 97.1513683387976  54.7698024172404 100.286299624577  55.7511201136471 101.615669220446  C 56.6068820105131 102.766466781049  58.5629092033503 101.710907639255  59.4384957001437 102.587894745783  C 60.158789497506 103.310119421747  60.2380878972157 105.322031019077  61.5101663925574 106.6950515569  C 61.6951959918796 106.893464929417  61.8736173912264 107.068068697233  62.0949920904158 107.202989790545  C 64.368212882091 108.568073793467  64.6424531810869 104.087899842017  64.672190080978 102.44503711757  C 65.3627469784491 102.480751524623  66.2218129753032 102.512497664226  66.6843869736092 103.23075407274  C 67.1667855718428 103.980756620857  66.8925452728471 104.889489866988  67.5500611704392 106.016477822889  C 67.5500611704392 106.016477822889  69.9389254616912 109.349822481186  69.9389254616912 109.349822481186  C 70.6658274590294 110.568080588445  71.1911793571055 112.460944162264  72.7441063514186 111.52046477653  C 73.3421484492285 111.163320705998  73.4016222490107 110.278397064569  73.6725584480184 109.587918528208  C 74.0294012467118 108.675217014626  74.5283203448847 107.746642431243  75.1858362424769 107.111719639187  C 76.4777393377458 105.861715392325  77.141863435314 105.822032717822  77.9546720323373 103.873613399698  C 77.9546720323373 103.873613399698  79.5406400265296 105.302189681825  79.5406400265296 105.302189681825  C 79.5406400265296 105.302189681825  79.9371320250777 104.111709446719  79.9371320250777 104.111709446719  C 79.9371320250777 104.111709446719  83.8987479105701 106.81013131296  83.8987479105701 106.81013131296  C 83.8987479105701 106.81013131296  85.8812079033103 108.072040362172  85.8812079033103 108.072040362172  C 85.8812079033103 108.072040362172  89.0531438916947 107.445054105016  89.0531438916947 107.445054105016  C 89.0531438916947 107.445054105016  87.8207145962079 103.397421305655  87.8207145962079 103.397421305655  C 87.8207145962079 103.397421305655  87.5398660972363 100.5402687414  87.5398660972363 100.5402687414  C 87.5398660972363 100.5402687414  86.2281384020399 97.2069240831026  86.2281384020399 97.2069240831026  C 85.6796578040484 95.8854910221347  85.3789847051493 95.127551939117  84.6917319076662 93.8696111573547  C 84.43401210861 93.4013555982129  83.9516135103764 92.6791309222484  83.9648299103281 92.1037321419471  C 84.004479110183 90.2069003006778  85.6466168041695 89.7267399391849  86.4957705010599 88.5838789134829  C 87.582819397079 87.1156199568519  87.5464742972121 85.7862503609832  88.313025494405 84.9727555336606  C 89.0531438916947 84.1910068459408  89.9089057885608 84.1116414969338  90.8373578851609 84.1076732294834  C 90.8373578851609 84.1076732294834  96.9995043625949 84.1076732294834  96.9995043625949 84.1076732294834  C 96.9433346628007 82.008459748246  96.5897959640953 81.4092513632426  96.9995043625949 79.1076562420371  C 97.2506159616754 77.8576519951755  97.7726637597638 77.6711434250089  98.0535122587354 76.7266957718246  C 98.288103357876 75.9409788166545  98.5623436568719 72.2227122156726  98.5689518568477 71.2465184228855  C 98.5854723567873 68.2465082304177  99.3916727538349 69.8020690709565  99.3619358539437 66.2465014354392  C 99.3619358539437 66.2465014354392  98.5755600568235 60.0560042128867  98.5755600568235 60.0560042128867  C 98.522694457017 58.0520291504578  99.256204654331 57.6631389403231  99.1736021546335 56.7226595545892  C 99.1009119548996 55.8932916574651  98.3277525577308 54.9607488066319  98.4830452571622 54.1155078397065  C 98.6912035564 52.9845516163555  99.5370531533024 52.4924864525116  100.009539451572 51.7226425671429  C 100.323428950423 51.2107360660472  100.614189749358 49.6115242835545  100.713312748995 48.9408870844446  C 101.040418647797 46.7623082542002  99.355327653968 45.3813511814769  98.8762331557224 43.7027740499771  C 98.4136591574162 42.0837209302326  99.3321989540527 40.2821275077718  99.9566738517657 38.940853109552  C 99.9566738517657 38.940853109552  97.7759678597517 40.1868890889632  97.7759678597517 40.1868890889632  C 96.5798836641317 40.7741926716157  95.8827185666847 40.7860974739667  94.8022778706413 41.8773710228141  C 93.7053166746584 42.9884859089133  93.289000076183 44.3257920396827  92.0268338808049 45.5440501469414  C 90.8109250852576 46.7146890447959  89.8296073888512 46.2821478927073  88.9573249920456 47.3416753019519  C 88.9573249920456 47.3416753019519  87.9594867956995 48.9329505495439  87.9594867956995 48.9329505495439  C 87.9594867956995 48.9329505495439  86.5519402008541 50.6313690182955  86.5519402008541 50.6313690182955  C 84.8338082071459 53.0321708257598  85.891120203274 52.7028046273804  83.1057639134741 54.1512222467596  C 81.9361125177574 54.7583671666638  81.6783927187011 55.0917016324936  80.3336240236258 55.4170995634226  C 80.3336240236258 55.4170995634226  77.9546720323373 55.7782119014049  77.9546720323373 55.7782119014049  C 77.1782085351806 56.0798002276318  76.5702541374071 57.3298044744933  75.7904865402627 56.7940883686955  C 74.8686426436385 56.1591655766389  73.2595459495309 53.1155044422172  72.9555687506441 51.7980396486996  C 72.7077612515516 50.7226391696536  72.9027031508377 50.1512086568026  72.5987259519509 49.4170791784871  C 72.1923216534391 48.4448536531503  70.8805939582427 47.3138974297994  70.3387215602271 46.3218305672108  C 69.9157967617757 45.5480184143918  69.8596270619815 44.5996024937571  69.8265860621025 43.7027740499771  C 69.142637364607 43.7702345966331  68.220793467983 44.0638863879593  67.589710370294 43.8972191550444  C 65.8220168767672 43.4249953284523  65.1545886792114 42.2662612329488  63.8792060838819 41.3178453123142  C 63.8792060838819 41.3178453123142  61.5035581925816 39.9765709140945  61.5035581925816 39.9765709140945  C 60.0695787978328 39.309901982435  59.9010696984497 40.4289534034349  58.5298682034713 40.2543496356193  C 56.9339879093154 40.0519679956512  56.5242795108156 38.9091069699492  55.5561782143608 38.8138685511407  C 54.4922580182571 38.7067253299811  53.329214822516 39.7543479368747  52.3842422259766 40.1710160191618  C 51.1716375304172 40.7027638575093  49.0999668380036 40.4170486010838  48.1483860414883 39.3376798545875  C 46.3046982482399 37.2543394431515  46.6053713471388 36.329733127219  45.7463053502848 33.9487726570065  C 45.2374739521482 32.53210117723  44.7517712539268 32.6828953403435  44.3255423554878 31.7741620942124  C 44.014956956625 31.1114614300032  44.0645184564435 30.0519340207587  43.6977633577865 29.1749469142304  C 42.8882588607509 27.2265275961065  40.6844241688214 25.551918732057  39.4519948733347 22.9844496916778  C 38.1964368779325 20.3733297093448  37.8891555790577 18.2622114257564  37.5290086803766 17.5320502148912  C 36.9673116824335 16.3931574566395  36.0388595858335 16.5042689452495  35.3185657884712 14.8891840929553  C 34.7899097904073 13.7066403927498  35.1203197891972 12.7661610070158  34.3504644920164 11.5558394346578  C 33.963884793432 10.9447262473032  32.5596422985745 9.30186352285661  32.0342904004983 8.84551276606588  C 31.6708394018292 8.53598790493825  31.0298440041766 8.18281210185672  30.7622119051567 7.83360456622556  C 30.2467723070442 7.15503083221499  30.4615388062577 6.24232931863353  29.9361869081815 5.48835850306623  C 29.6784671091253 5.11137309528258  29.0143430115574 4.61137139653796  28.6641084128399 4.30978307031104  C 28.1387565147638 3.85740058097066  27.236737218067 2.96850867209132  26.6816484200997 2.70660302036795  C 26.6816484200997 2.70660302036795  23.7079584309894 2.02802928635738  23.7079584309894 2.02802928635738  C 23.4667591318727 2.48438004314811  23.0339220334577 3.39311328927922  22.5845644351033 3.56374878964445  C 22.2376339363738 3.69866988295649  20.7772217417219 3.00025481169416  20.341080543319 2.84549238113034  C 20.341080543319 2.84549238113034  14.1954545658243 0.34945215485756  14.1954545658243 0.34945215485756  C 13.6998395676393 0.270086805850477  13.471856668474 0.381198294460394  13.0059785701802 0.480404980719247  C 10.4849502794121 1.02802588886813  11.647993475153 0.972470144563166  9.63579658252189 1.86136205344251  Z " stroke-width="2.13294375456538" stroke="#ffffff" fill="none" transform="matrix(1 0 0 1 549 2000 )" mask="url(#clip41)" />
  </g>
</svg>