<?xml version="1.0" encoding="utf-8"?>
<svg version="1.1" xmlns:xlink="http://www.w3.org/1999/xlink" width="279px" height="279px" xmlns="http://www.w3.org/2000/svg">
  <g transform="matrix(1 0 0 1 -347 -78 )">
    <path d="M 486.5 80.5  C 563.22 80.5  623.5 140.78  623.5 217.5  C 623.5 294.22  563.22 354.5  486.5 354.5  C 409.78 354.5  349.5 294.22  349.5 217.5  C 349.5 140.78  409.78 80.5  486.5 80.5  Z " fill-rule="nonzero" fill="#ffffff" stroke="none" fill-opacity="0" />
    <path d="M 486.5 79.5  C 563.78 79.5  624.5 140.22  624.5 217.5  C 624.5 294.78  563.78 355.5  486.5 355.5  C 409.22 355.5  348.5 294.78  348.5 217.5  C 348.5 140.22  409.22 79.5  486.5 79.5  Z " stroke-width="3" stroke-dasharray="9,3" stroke="#00b4ff" fill="none" stroke-dashoffset="0.5" />
  </g>
</svg>